<?xml version="1.0" encoding="utf-8" standalone="no"?>
<!DOCTYPE svg PUBLIC "-//W3C//DTD SVG 1.1//EN"
  "http://www.w3.org/Graphics/SVG/1.1/DTD/svg11.dtd">
<!-- Created with matplotlib (https://matplotlib.org/) -->
<svg height="422.690625pt" version="1.1" viewBox="0 0 755.815556 422.690625" width="755.815556pt" xmlns="http://www.w3.org/2000/svg" xmlns:xlink="http://www.w3.org/1999/xlink">
 <defs>
  <style type="text/css">
*{stroke-linecap:butt;stroke-linejoin:round;}
  </style>
 </defs>
 <g id="figure_1">
  <g id="patch_1">
   <path d="M 0 422.690625 
L 755.815556 422.690625 
L 755.815556 0 
L 0 0 
z
" style="fill:none;"/>
  </g>
  <g id="axes_1">
   <g id="patch_2">
    <path d="M 46.704688 186.496875 
L 252.009408 186.496875 
L 252.009408 20.446875 
L 46.704688 20.446875 
z
" style="fill:#ffffff;"/>
   </g>
   <g id="matplotlib.axis_1">
    <g id="xtick_1">
     <g id="line2d_1">
      <defs>
       <path d="M 0 0 
L 0 6 
" id="m0fcc737a15" style="stroke:#262626;stroke-width:0.8;"/>
      </defs>
      <g>
       <use style="fill:#262626;stroke:#262626;stroke-width:0.8;" x="56.03672" xlink:href="#m0fcc737a15" y="186.496875"/>
      </g>
     </g>
    </g>
    <g id="xtick_2">
     <g id="line2d_2">
      <g>
       <use style="fill:#262626;stroke:#262626;stroke-width:0.8;" x="120.506722" xlink:href="#m0fcc737a15" y="186.496875"/>
      </g>
     </g>
    </g>
    <g id="xtick_3">
     <g id="line2d_3">
      <g>
       <use style="fill:#262626;stroke:#262626;stroke-width:0.8;" x="184.976724" xlink:href="#m0fcc737a15" y="186.496875"/>
      </g>
     </g>
    </g>
    <g id="xtick_4">
     <g id="line2d_4">
      <g>
       <use style="fill:#262626;stroke:#262626;stroke-width:0.8;" x="249.446725" xlink:href="#m0fcc737a15" y="186.496875"/>
      </g>
     </g>
    </g>
   </g>
   <g id="matplotlib.axis_2">
    <g id="ytick_1">
     <g id="line2d_5">
      <defs>
       <path d="M 0 0 
L -6 0 
" id="mfece647cb0" style="stroke:#262626;stroke-width:0.8;"/>
      </defs>
      <g>
       <use style="fill:#262626;stroke:#262626;stroke-width:0.8;" x="46.704688" xlink:href="#mfece647cb0" y="164.715254"/>
      </g>
     </g>
     <g id="text_1">
      <!-- 200 -->
      <defs>
       <path d="M 5.03125 0 
L 5.03125 6.203125 
Q 7.515625 11.921875 11.109375 16.28125 
Q 14.703125 20.65625 18.65625 24.1875 
Q 22.609375 27.734375 26.484375 30.765625 
Q 30.375 33.796875 33.5 36.8125 
Q 36.625 39.84375 38.546875 43.15625 
Q 40.484375 46.484375 40.484375 50.6875 
Q 40.484375 53.609375 39.59375 55.828125 
Q 38.71875 58.0625 37.0625 59.5625 
Q 35.40625 61.078125 33.078125 61.828125 
Q 30.765625 62.59375 27.9375 62.59375 
Q 25.296875 62.59375 22.96875 61.859375 
Q 20.65625 61.140625 18.84375 59.671875 
Q 17.046875 58.203125 15.890625 56.03125 
Q 14.75 53.859375 14.40625 50.984375 
L 5.421875 51.8125 
Q 5.859375 55.515625 7.46875 58.78125 
Q 9.078125 62.0625 11.90625 64.53125 
Q 14.75 67 18.71875 68.40625 
Q 22.703125 69.828125 27.9375 69.828125 
Q 33.0625 69.828125 37.0625 68.609375 
Q 41.0625 67.390625 43.8125 64.984375 
Q 46.578125 62.59375 48.046875 59.078125 
Q 49.515625 55.5625 49.515625 50.984375 
Q 49.515625 47.515625 48.265625 44.390625 
Q 47.015625 41.265625 44.9375 38.421875 
Q 42.875 35.59375 40.140625 32.953125 
Q 37.40625 30.328125 34.421875 27.8125 
Q 31.453125 25.296875 28.421875 22.828125 
Q 25.390625 20.359375 22.71875 17.859375 
Q 20.0625 15.375 17.96875 12.8125 
Q 15.875 10.25 14.703125 7.46875 
L 50.59375 7.46875 
L 50.59375 0 
z
" id="LiberationSans-50"/>
       <path d="M 51.703125 34.421875 
Q 51.703125 24.515625 49.828125 17.75 
Q 47.953125 10.984375 44.703125 6.8125 
Q 41.453125 2.640625 37.0625 0.828125 
Q 32.671875 -0.984375 27.6875 -0.984375 
Q 22.65625 -0.984375 18.3125 0.828125 
Q 13.96875 2.640625 10.765625 6.78125 
Q 7.5625 10.9375 5.734375 17.703125 
Q 3.90625 24.46875 3.90625 34.421875 
Q 3.90625 44.828125 5.734375 51.640625 
Q 7.5625 58.453125 10.78125 62.5 
Q 14.015625 66.546875 18.40625 68.1875 
Q 22.796875 69.828125 27.984375 69.828125 
Q 32.90625 69.828125 37.21875 68.1875 
Q 41.546875 66.546875 44.765625 62.5 
Q 48 58.453125 49.84375 51.640625 
Q 51.703125 44.828125 51.703125 34.421875 
z
M 42.78125 34.421875 
Q 42.78125 42.625 41.796875 48.0625 
Q 40.828125 53.515625 38.921875 56.765625 
Q 37.015625 60.015625 34.25 61.359375 
Q 31.5 62.703125 27.984375 62.703125 
Q 24.265625 62.703125 21.4375 61.328125 
Q 18.609375 59.96875 16.671875 56.71875 
Q 14.75 53.46875 13.765625 48.015625 
Q 12.796875 42.578125 12.796875 34.421875 
Q 12.796875 26.515625 13.796875 21.09375 
Q 14.796875 15.671875 16.71875 12.375 
Q 18.65625 9.078125 21.4375 7.640625 
Q 24.21875 6.203125 27.78125 6.203125 
Q 31.25 6.203125 34.03125 7.640625 
Q 36.8125 9.078125 38.734375 12.375 
Q 40.671875 15.671875 41.71875 21.09375 
Q 42.78125 26.515625 42.78125 34.421875 
z
" id="LiberationSans-48"/>
      </defs>
      <g style="fill:#262626;" transform="translate(20.521875 168.338691)scale(0.1 -0.1)">
       <use xlink:href="#LiberationSans-50"/>
       <use x="55.615234" xlink:href="#LiberationSans-48"/>
       <use x="111.230469" xlink:href="#LiberationSans-48"/>
      </g>
     </g>
    </g>
    <g id="ytick_2">
     <g id="line2d_6">
      <g>
       <use style="fill:#262626;stroke:#262626;stroke-width:0.8;" x="46.704688" xlink:href="#mfece647cb0" y="126.369672"/>
      </g>
     </g>
     <g id="text_2">
      <!-- 400 -->
      <defs>
       <path d="M 43.015625 15.578125 
L 43.015625 0 
L 34.71875 0 
L 34.71875 15.578125 
L 2.296875 15.578125 
L 2.296875 22.40625 
L 33.796875 68.796875 
L 43.015625 68.796875 
L 43.015625 22.515625 
L 52.6875 22.515625 
L 52.6875 15.578125 
z
M 34.71875 58.890625 
Q 34.625 58.640625 34.234375 57.9375 
Q 33.84375 57.234375 33.34375 56.34375 
Q 32.859375 55.46875 32.34375 54.5625 
Q 31.84375 53.65625 31.453125 53.078125 
L 13.8125 27.09375 
Q 13.578125 26.703125 13.109375 26.0625 
Q 12.640625 25.4375 12.15625 24.78125 
Q 11.671875 24.125 11.171875 23.484375 
Q 10.6875 22.859375 10.40625 22.515625 
L 34.71875 22.515625 
z
" id="LiberationSans-52"/>
      </defs>
      <g style="fill:#262626;" transform="translate(20.521875 129.99311)scale(0.1 -0.1)">
       <use xlink:href="#LiberationSans-52"/>
       <use x="55.615234" xlink:href="#LiberationSans-48"/>
       <use x="111.230469" xlink:href="#LiberationSans-48"/>
      </g>
     </g>
    </g>
    <g id="ytick_3">
     <g id="line2d_7">
      <g>
       <use style="fill:#262626;stroke:#262626;stroke-width:0.8;" x="46.704688" xlink:href="#mfece647cb0" y="88.024091"/>
      </g>
     </g>
     <g id="text_3">
      <!-- 600 -->
      <defs>
       <path d="M 51.21875 22.515625 
Q 51.21875 17.328125 49.78125 13 
Q 48.34375 8.6875 45.53125 5.578125 
Q 42.71875 2.484375 38.5625 0.75 
Q 34.421875 -0.984375 29 -0.984375 
Q 23 -0.984375 18.5 1.3125 
Q 14.015625 3.609375 11.03125 7.921875 
Q 8.0625 12.25 6.5625 18.53125 
Q 5.078125 24.8125 5.078125 32.8125 
Q 5.078125 42 6.765625 48.921875 
Q 8.453125 55.859375 11.625 60.5 
Q 14.796875 65.140625 19.359375 67.484375 
Q 23.921875 69.828125 29.6875 69.828125 
Q 33.203125 69.828125 36.28125 69.09375 
Q 39.359375 68.359375 41.875 66.71875 
Q 44.390625 65.09375 46.28125 62.40625 
Q 48.1875 59.71875 49.3125 55.8125 
L 40.921875 54.296875 
Q 39.546875 58.734375 36.546875 60.71875 
Q 33.546875 62.703125 29.59375 62.703125 
Q 25.984375 62.703125 23.046875 60.984375 
Q 20.125 59.28125 18.0625 55.875 
Q 16.015625 52.484375 14.90625 47.359375 
Q 13.8125 42.234375 13.8125 35.40625 
Q 16.21875 39.84375 20.5625 42.15625 
Q 24.90625 44.484375 30.515625 44.484375 
Q 35.203125 44.484375 39.015625 42.96875 
Q 42.828125 41.453125 45.53125 38.59375 
Q 48.25 35.75 49.734375 31.671875 
Q 51.21875 27.59375 51.21875 22.515625 
z
M 42.28125 22.125 
Q 42.28125 25.6875 41.40625 28.5625 
Q 40.53125 31.453125 38.765625 33.46875 
Q 37.015625 35.5 34.421875 36.59375 
Q 31.84375 37.703125 28.421875 37.703125 
Q 26.03125 37.703125 23.578125 36.984375 
Q 21.140625 36.28125 19.15625 34.6875 
Q 17.1875 33.109375 15.9375 30.515625 
Q 14.703125 27.9375 14.703125 24.21875 
Q 14.703125 20.40625 15.671875 17.109375 
Q 16.65625 13.8125 18.484375 11.375 
Q 20.3125 8.9375 22.890625 7.515625 
Q 25.484375 6.109375 28.71875 6.109375 
Q 31.890625 6.109375 34.40625 7.203125 
Q 36.921875 8.296875 38.671875 10.375 
Q 40.4375 12.453125 41.359375 15.421875 
Q 42.28125 18.40625 42.28125 22.125 
z
" id="LiberationSans-54"/>
      </defs>
      <g style="fill:#262626;" transform="translate(20.521875 91.647528)scale(0.1 -0.1)">
       <use xlink:href="#LiberationSans-54"/>
       <use x="55.615234" xlink:href="#LiberationSans-48"/>
       <use x="111.230469" xlink:href="#LiberationSans-48"/>
      </g>
     </g>
    </g>
    <g id="ytick_4">
     <g id="line2d_8">
      <g>
       <use style="fill:#262626;stroke:#262626;stroke-width:0.8;" x="46.704688" xlink:href="#mfece647cb0" y="49.678509"/>
      </g>
     </g>
     <g id="text_4">
      <!-- 800 -->
      <defs>
       <path d="M 51.265625 19.1875 
Q 51.265625 14.796875 49.875 11.109375 
Q 48.484375 7.421875 45.625 4.734375 
Q 42.78125 2.046875 38.328125 0.53125 
Q 33.890625 -0.984375 27.828125 -0.984375 
Q 21.78125 -0.984375 17.359375 0.53125 
Q 12.9375 2.046875 10.03125 4.703125 
Q 7.125 7.375 5.734375 11.0625 
Q 4.34375 14.75 4.34375 19.09375 
Q 4.34375 22.859375 5.484375 25.78125 
Q 6.640625 28.71875 8.5625 30.828125 
Q 10.5 32.953125 12.96875 34.25 
Q 15.4375 35.546875 18.0625 35.984375 
L 18.0625 36.1875 
Q 15.1875 36.859375 12.90625 38.375 
Q 10.640625 39.890625 9.09375 42.015625 
Q 7.5625 44.140625 6.75 46.71875 
Q 5.953125 49.3125 5.953125 52.203125 
Q 5.953125 55.8125 7.34375 59 
Q 8.734375 62.203125 11.46875 64.625 
Q 14.203125 67.046875 18.25 68.4375 
Q 22.3125 69.828125 27.640625 69.828125 
Q 33.25 69.828125 37.375 68.40625 
Q 41.5 67 44.203125 64.578125 
Q 46.921875 62.15625 48.234375 58.9375 
Q 49.5625 55.71875 49.5625 52.09375 
Q 49.5625 49.265625 48.75 46.671875 
Q 47.953125 44.09375 46.40625 41.96875 
Q 44.875 39.84375 42.59375 38.34375 
Q 40.328125 36.859375 37.359375 36.28125 
L 37.359375 36.078125 
Q 40.328125 35.59375 42.859375 34.296875 
Q 45.40625 33.015625 47.265625 30.890625 
Q 49.125 28.765625 50.1875 25.828125 
Q 51.265625 22.90625 51.265625 19.1875 
z
M 40.4375 51.609375 
Q 40.4375 54.203125 39.765625 56.34375 
Q 39.109375 58.5 37.59375 60.03125 
Q 36.078125 61.578125 33.640625 62.421875 
Q 31.203125 63.28125 27.640625 63.28125 
Q 24.171875 63.28125 21.78125 62.421875 
Q 19.390625 61.578125 17.84375 60.03125 
Q 16.3125 58.5 15.625 56.34375 
Q 14.9375 54.203125 14.9375 51.609375 
Q 14.9375 49.5625 15.46875 47.40625 
Q 16.015625 45.265625 17.421875 43.5 
Q 18.84375 41.75 21.328125 40.625 
Q 23.828125 39.5 27.734375 39.5 
Q 31.890625 39.5 34.40625 40.625 
Q 36.921875 41.75 38.25 43.5 
Q 39.59375 45.265625 40.015625 47.40625 
Q 40.4375 49.5625 40.4375 51.609375 
z
M 42.140625 20.015625 
Q 42.140625 22.515625 41.453125 24.828125 
Q 40.765625 27.15625 39.109375 28.9375 
Q 37.453125 30.71875 34.640625 31.8125 
Q 31.84375 32.90625 27.640625 32.90625 
Q 23.78125 32.90625 21.0625 31.8125 
Q 18.359375 30.71875 16.671875 28.90625 
Q 14.984375 27.09375 14.203125 24.71875 
Q 13.421875 22.359375 13.421875 19.828125 
Q 13.421875 16.65625 14.203125 14.03125 
Q 14.984375 11.421875 16.6875 9.546875 
Q 18.40625 7.671875 21.1875 6.640625 
Q 23.96875 5.609375 27.9375 5.609375 
Q 31.9375 5.609375 34.671875 6.640625 
Q 37.40625 7.671875 39.0625 9.546875 
Q 40.71875 11.421875 41.421875 14.078125 
Q 42.140625 16.75 42.140625 20.015625 
z
" id="LiberationSans-56"/>
      </defs>
      <g style="fill:#262626;" transform="translate(20.521875 53.301947)scale(0.1 -0.1)">
       <use xlink:href="#LiberationSans-56"/>
       <use x="55.615234" xlink:href="#LiberationSans-48"/>
       <use x="111.230469" xlink:href="#LiberationSans-48"/>
      </g>
     </g>
    </g>
    <g id="text_5">
     <!-- markers -->
     <defs>
      <path d="M 37.5 0 
L 37.5 33.5 
Q 37.5 37.359375 37.015625 39.9375 
Q 36.53125 42.53125 35.375 44.109375 
Q 34.234375 45.703125 32.375 46.359375 
Q 30.515625 47.015625 27.828125 47.015625 
Q 25.046875 47.015625 22.796875 45.921875 
Q 20.5625 44.828125 18.96875 42.75 
Q 17.390625 40.671875 16.53125 37.625 
Q 15.671875 34.578125 15.671875 30.609375 
L 15.671875 0 
L 6.9375 0 
L 6.9375 41.546875 
Q 6.9375 43.21875 6.90625 45.046875 
Q 6.890625 46.875 6.828125 48.5 
Q 6.78125 50.140625 6.734375 51.3125 
Q 6.6875 52.484375 6.640625 52.828125 
L 14.9375 52.828125 
Q 14.984375 52.59375 15.03125 51.515625 
Q 15.09375 50.4375 15.15625 49.046875 
Q 15.234375 47.65625 15.28125 46.21875 
Q 15.328125 44.78125 15.328125 43.796875 
L 15.484375 43.796875 
Q 16.65625 46.09375 18.015625 47.953125 
Q 19.390625 49.8125 21.21875 51.09375 
Q 23.046875 52.390625 25.40625 53.09375 
Q 27.78125 53.8125 30.90625 53.8125 
Q 36.921875 53.8125 40.40625 51.421875 
Q 43.890625 49.03125 45.265625 43.796875 
L 45.40625 43.796875 
Q 46.578125 46.09375 48.046875 47.953125 
Q 49.515625 49.8125 51.46875 51.09375 
Q 53.421875 52.390625 55.859375 53.09375 
Q 58.296875 53.8125 61.421875 53.8125 
Q 65.4375 53.8125 68.328125 52.734375 
Q 71.234375 51.65625 73.09375 49.40625 
Q 74.953125 47.171875 75.828125 43.625 
Q 76.703125 40.09375 76.703125 35.203125 
L 76.703125 0 
L 68.015625 0 
L 68.015625 33.5 
Q 68.015625 37.359375 67.53125 39.9375 
Q 67.046875 42.53125 65.890625 44.109375 
Q 64.75 45.703125 62.890625 46.359375 
Q 61.03125 47.015625 58.34375 47.015625 
Q 55.5625 47.015625 53.3125 45.96875 
Q 51.078125 44.921875 49.484375 42.875 
Q 47.90625 40.828125 47.046875 37.75 
Q 46.1875 34.671875 46.1875 30.609375 
L 46.1875 0 
z
" id="LiberationSans-109"/>
      <path d="M 20.21875 -0.984375 
Q 12.25 -0.984375 8.25 3.21875 
Q 4.25 7.421875 4.25 14.75 
Q 4.25 19.96875 6.21875 23.3125 
Q 8.203125 26.65625 11.390625 28.5625 
Q 14.59375 30.46875 18.6875 31.203125 
Q 22.796875 31.9375 27.046875 32.03125 
L 38.921875 32.234375 
L 38.921875 35.109375 
Q 38.921875 38.375 38.234375 40.671875 
Q 37.546875 42.96875 36.125 44.375 
Q 34.71875 45.796875 32.59375 46.453125 
Q 30.46875 47.125 27.59375 47.125 
Q 25.046875 47.125 23 46.75 
Q 20.953125 46.390625 19.4375 45.4375 
Q 17.921875 44.484375 16.984375 42.84375 
Q 16.0625 41.21875 15.765625 38.71875 
L 6.59375 39.546875 
Q 7.078125 42.671875 8.4375 45.28125 
Q 9.8125 47.90625 12.328125 49.796875 
Q 14.84375 51.703125 18.625 52.75 
Q 22.40625 53.8125 27.78125 53.8125 
Q 37.75 53.8125 42.765625 49.234375 
Q 47.796875 44.671875 47.796875 36.03125 
L 47.796875 13.28125 
Q 47.796875 9.375 48.828125 7.390625 
Q 49.859375 5.421875 52.734375 5.421875 
Q 53.46875 5.421875 54.203125 5.515625 
Q 54.9375 5.609375 55.609375 5.765625 
L 55.609375 0.296875 
Q 53.953125 -0.09375 52.3125 -0.28125 
Q 50.6875 -0.484375 48.828125 -0.484375 
Q 46.34375 -0.484375 44.5625 0.171875 
Q 42.78125 0.828125 41.65625 2.171875 
Q 40.53125 3.515625 39.9375 5.484375 
Q 39.359375 7.46875 39.203125 10.109375 
L 38.921875 10.109375 
Q 37.5 7.5625 35.8125 5.515625 
Q 34.125 3.46875 31.875 2.03125 
Q 29.640625 0.59375 26.78125 -0.1875 
Q 23.921875 -0.984375 20.21875 -0.984375 
z
M 22.21875 5.609375 
Q 26.421875 5.609375 29.5625 7.140625 
Q 32.71875 8.6875 34.78125 11.078125 
Q 36.859375 13.484375 37.890625 16.3125 
Q 38.921875 19.140625 38.921875 21.734375 
L 38.921875 26.078125 
L 29.296875 25.875 
Q 26.078125 25.828125 23.171875 25.40625 
Q 20.265625 25 18.0625 23.78125 
Q 15.875 22.5625 14.578125 20.359375 
Q 13.28125 18.171875 13.28125 14.59375 
Q 13.28125 10.296875 15.59375 7.953125 
Q 17.921875 5.609375 22.21875 5.609375 
z
" id="LiberationSans-97"/>
      <path d="M 6.9375 0 
L 6.9375 40.53125 
Q 6.9375 42.1875 6.90625 43.921875 
Q 6.890625 45.65625 6.828125 47.265625 
Q 6.78125 48.875 6.734375 50.28125 
Q 6.6875 51.703125 6.640625 52.828125 
L 14.9375 52.828125 
Q 14.984375 51.703125 15.0625 50.265625 
Q 15.140625 48.828125 15.203125 47.3125 
Q 15.28125 45.796875 15.296875 44.40625 
Q 15.328125 43.015625 15.328125 42.046875 
L 15.53125 42.046875 
Q 16.453125 45.0625 17.5 47.28125 
Q 18.5625 49.515625 19.96875 50.953125 
Q 21.390625 52.390625 23.34375 53.09375 
Q 25.296875 53.8125 28.078125 53.8125 
Q 29.15625 53.8125 30.125 53.640625 
Q 31.109375 53.46875 31.640625 53.328125 
L 31.640625 45.265625 
Q 30.765625 45.515625 29.59375 45.625 
Q 28.421875 45.75 26.953125 45.75 
Q 23.921875 45.75 21.796875 44.375 
Q 19.671875 43.015625 18.328125 40.59375 
Q 17 38.1875 16.359375 34.84375 
Q 15.71875 31.5 15.71875 27.546875 
L 15.71875 0 
z
" id="LiberationSans-114"/>
      <path d="M 39.84375 0 
L 21.96875 24.125 
L 15.53125 18.796875 
L 15.53125 0 
L 6.734375 0 
L 6.734375 72.46875 
L 15.53125 72.46875 
L 15.53125 27.203125 
L 38.71875 52.828125 
L 49.03125 52.828125 
L 27.59375 30.125 
L 50.140625 0 
z
" id="LiberationSans-107"/>
      <path d="M 13.484375 24.5625 
Q 13.484375 20.40625 14.328125 16.90625 
Q 15.1875 13.421875 16.96875 10.90625 
Q 18.75 8.40625 21.53125 7 
Q 24.3125 5.609375 28.21875 5.609375 
Q 33.9375 5.609375 37.375 7.90625 
Q 40.828125 10.203125 42.046875 13.71875 
L 49.75 11.53125 
Q 48.921875 9.328125 47.4375 7.109375 
Q 45.953125 4.890625 43.453125 3.09375 
Q 40.96875 1.3125 37.234375 0.15625 
Q 33.5 -0.984375 28.21875 -0.984375 
Q 16.5 -0.984375 10.375 6 
Q 4.25 12.984375 4.25 26.765625 
Q 4.25 34.1875 6.09375 39.328125 
Q 7.953125 44.484375 11.171875 47.703125 
Q 14.40625 50.921875 18.703125 52.359375 
Q 23 53.8125 27.875 53.8125 
Q 34.515625 53.8125 38.984375 51.65625 
Q 43.453125 49.515625 46.15625 45.71875 
Q 48.875 41.9375 50.015625 36.8125 
Q 51.171875 31.6875 51.171875 25.734375 
L 51.171875 24.5625 
z
M 42.09375 31.296875 
Q 41.359375 39.65625 37.84375 43.484375 
Q 34.328125 47.3125 27.734375 47.3125 
Q 25.53125 47.3125 23.109375 46.609375 
Q 20.703125 45.90625 18.65625 44.09375 
Q 16.609375 42.28125 15.1875 39.171875 
Q 13.765625 36.078125 13.578125 31.296875 
z
" id="LiberationSans-101"/>
      <path d="M 46.390625 14.59375 
Q 46.390625 10.890625 44.9375 7.984375 
Q 43.5 5.078125 40.765625 3.09375 
Q 38.03125 1.125 34.046875 0.0625 
Q 30.078125 -0.984375 24.953125 -0.984375 
Q 20.359375 -0.984375 16.671875 -0.265625 
Q 12.984375 0.4375 10.203125 2 
Q 7.421875 3.5625 5.53125 6.125 
Q 3.65625 8.6875 2.78125 12.40625 
L 10.546875 13.921875 
Q 11.671875 9.671875 15.1875 7.6875 
Q 18.703125 5.71875 24.953125 5.71875 
Q 27.78125 5.71875 30.140625 6.109375 
Q 32.515625 6.5 34.21875 7.453125 
Q 35.9375 8.40625 36.890625 9.984375 
Q 37.84375 11.578125 37.84375 13.921875 
Q 37.84375 16.3125 36.71875 17.84375 
Q 35.59375 19.390625 33.59375 20.40625 
Q 31.59375 21.4375 28.734375 22.1875 
Q 25.875 22.953125 22.46875 23.875 
Q 19.28125 24.703125 16.15625 25.734375 
Q 13.03125 26.765625 10.515625 28.4375 
Q 8.015625 30.125 6.453125 32.609375 
Q 4.890625 35.109375 4.890625 38.875 
Q 4.890625 46.09375 10.03125 49.875 
Q 15.1875 53.65625 25.046875 53.65625 
Q 33.796875 53.65625 38.9375 50.578125 
Q 44.09375 47.515625 45.453125 40.71875 
L 37.546875 39.75 
Q 37.109375 41.796875 35.9375 43.1875 
Q 34.765625 44.578125 33.109375 45.4375 
Q 31.453125 46.296875 29.375 46.65625 
Q 27.296875 47.015625 25.046875 47.015625 
Q 19.09375 47.015625 16.25 45.203125 
Q 13.421875 43.40625 13.421875 39.75 
Q 13.421875 37.59375 14.46875 36.203125 
Q 15.53125 34.8125 17.40625 33.859375 
Q 19.28125 32.90625 21.921875 32.203125 
Q 24.5625 31.5 27.734375 30.71875 
Q 29.828125 30.171875 32.03125 29.5625 
Q 34.234375 28.953125 36.296875 28.09375 
Q 38.375 27.25 40.203125 26.09375 
Q 42.046875 24.953125 43.40625 23.34375 
Q 44.78125 21.734375 45.578125 19.578125 
Q 46.390625 17.4375 46.390625 14.59375 
z
" id="LiberationSans-115"/>
     </defs>
     <g style="fill:#262626;" transform="translate(14.446875 121.527344)rotate(-90)scale(0.1 -0.1)">
      <use xlink:href="#LiberationSans-109"/>
      <use x="83.300781" xlink:href="#LiberationSans-97"/>
      <use x="138.916016" xlink:href="#LiberationSans-114"/>
      <use x="172.216797" xlink:href="#LiberationSans-107"/>
      <use x="222.216797" xlink:href="#LiberationSans-101"/>
      <use x="277.832031" xlink:href="#LiberationSans-114"/>
      <use x="311.132812" xlink:href="#LiberationSans-115"/>
     </g>
    </g>
   </g>
   <g id="line2d_9">
    <path clip-path="url(#p38f32533b2)" d="M 56.03672 39.495187 
L 69.253071 39.439977 
L 72.798921 39.622624 
L 75.377721 39.661405 
L 80.857671 39.505661 
L 86.015271 39.92771 
L 88.916421 40.184432 
L 91.495221 40.076679 
L 94.074021 39.70544 
L 96.652821 39.115827 
L 98.264571 38.749702 
L 101.165721 38.037487 
L 103.422172 37.220338 
L 111.480922 33.668222 
L 113.092672 33.309716 
L 115.026772 33.100142 
L 116.316172 33.224384 
L 117.605572 33.630202 
L 120.184372 34.759272 
L 122.440822 35.875726 
L 125.019622 37.208261 
L 127.276072 38.130285 
L 132.433672 39.885501 
L 134.690122 40.595669 
L 135.657172 40.959523 
L 140.170072 42.521631 
L 142.748873 43.199887 
L 148.228823 44.260089 
L 149.840573 44.167209 
L 151.452323 43.849543 
L 153.064073 43.256514 
L 157.899323 41.241428 
L 158.866373 40.866632 
L 159.511073 40.613105 
L 161.122823 40.147921 
L 163.056923 39.809753 
L 164.346323 39.763752 
L 165.958073 39.935574 
L 166.925123 40.144914 
L 170.470973 40.675091 
L 176.273273 41.37626 
L 177.562673 41.569228 
L 178.852073 41.570913 
L 182.397924 41.374177 
L 184.976724 41.06056 
L 190.779024 40.700204 
L 194.969574 40.965831 
L 199.804824 41.461744 
L 203.028324 41.919228 
L 205.929474 42.070817 
L 209.152974 42.281023 
L 213.021174 42.431864 
L 217.211725 42.685028 
L 222.046975 43.086002 
L 224.625775 42.94801 
L 229.138675 42.414252 
L 235.908025 41.744924 
L 242.677375 40.818185 
L 242.677375 40.818185 
" style="fill:none;stroke:#1f77b4;stroke-linecap:round;stroke-width:1.5;"/>
   </g>
   <g id="line2d_10">
    <path clip-path="url(#p38f32533b2)" d="M 56.03672 145.231935 
L 73.443621 145.178216 
L 78.278871 145.577698 
L 82.147071 146.22368 
L 84.403521 146.785903 
L 88.916421 148.198978 
L 94.718721 150.287378 
L 97.619871 150.869419 
L 100.843371 151.320185 
L 104.711572 151.764867 
L 106.968022 151.998266 
L 112.125622 152.134028 
L 114.704422 151.834652 
L 116.960872 151.317295 
L 130.499572 146.860586 
L 132.756022 146.324611 
L 136.946572 146.034637 
L 138.558322 146.173097 
L 141.137122 146.704199 
L 143.071223 147.291208 
L 147.906473 149.095263 
L 157.576973 153.185103 
L 159.833423 154.37462 
L 163.701623 156.172964 
L 165.635723 156.645593 
L 167.569823 156.829929 
L 170.148623 156.921954 
L 172.405073 156.828451 
L 174.016823 156.654982 
L 177.885023 155.819451 
L 182.075574 154.935571 
L 186.588474 154.222627 
L 191.423724 153.141191 
L 193.035474 152.721663 
L 195.936624 151.940808 
L 199.482474 151.069467 
L 212.054124 148.406112 
L 214.955274 148.048775 
L 219.468175 147.70331 
L 223.336375 147.509137 
L 225.915175 147.46117 
L 232.362175 147.351597 
L 234.940975 147.634642 
L 241.387975 148.53858 
L 242.677375 148.604364 
L 242.677375 148.604364 
" style="fill:none;stroke:#ff7f0e;stroke-linecap:round;stroke-width:1.5;"/>
   </g>
   <g id="line2d_11">
    <path clip-path="url(#p38f32533b2)" d="M 56.03672 160.823571 
L 71.831871 160.798687 
L 75.055371 160.677143 
L 86.982321 160.255418 
L 90.528171 159.788976 
L 99.231621 158.313011 
L 101.165721 158.14955 
L 106.968022 157.746291 
L 109.546822 157.439666 
L 112.125622 156.996558 
L 113.415022 157.069896 
L 114.382072 157.361177 
L 116.316172 158.038034 
L 117.927922 158.171471 
L 120.184372 158.452641 
L 122.763172 158.810118 
L 125.019622 158.993962 
L 132.111322 160.073081 
L 135.657172 159.983039 
L 141.781823 159.867384 
L 145.005323 159.799766 
L 147.906473 159.696781 
L 150.162923 159.684833 
L 151.774673 159.419531 
L 154.353473 158.711613 
L 158.544023 157.556278 
L 161.767523 156.994794 
L 165.313373 156.702068 
L 166.925123 156.751217 
L 169.181573 156.831854 
L 178.529723 157.107018 
L 181.108524 157.44839 
L 186.588474 158.033438 
L 188.522574 158.437601 
L 190.134324 158.743483 
L 195.291924 159.217365 
L 197.548374 159.347408 
L 202.705974 159.487362 
L 205.607124 159.683742 
L 208.508274 159.842341 
L 216.889375 160.46766 
L 221.402275 160.555241 
L 224.625775 160.481957 
L 242.677375 160.758733 
L 242.677375 160.758733 
" style="fill:none;stroke:#2ca02c;stroke-linecap:round;stroke-width:1.5;"/>
   </g>
   <g id="patch_3">
    <path d="M 46.704688 186.496875 
L 46.704688 20.446875 
" style="fill:none;stroke:#262626;stroke-linecap:square;stroke-linejoin:miter;stroke-width:1.25;"/>
   </g>
   <g id="patch_4">
    <path d="M 46.704688 186.496875 
L 252.009408 186.496875 
" style="fill:none;stroke:#262626;stroke-linecap:square;stroke-linejoin:miter;stroke-width:1.25;"/>
   </g>
   <g id="text_6">
    <!-- channel = PSISr -->
    <defs>
     <path d="M 13.421875 26.65625 
Q 13.421875 22.125 14.078125 18.3125 
Q 14.75 14.5 16.3125 11.734375 
Q 17.875 8.984375 20.4375 7.46875 
Q 23 5.953125 26.765625 5.953125 
Q 31.453125 5.953125 34.59375 8.484375 
Q 37.75 11.03125 38.484375 16.3125 
L 47.359375 15.71875 
Q 46.921875 12.453125 45.453125 9.421875 
Q 44 6.390625 41.484375 4.09375 
Q 38.96875 1.8125 35.34375 0.40625 
Q 31.734375 -0.984375 27 -0.984375 
Q 20.796875 -0.984375 16.453125 1.109375 
Q 12.109375 3.21875 9.390625 6.90625 
Q 6.6875 10.59375 5.46875 15.59375 
Q 4.25 20.609375 4.25 26.46875 
Q 4.25 31.78125 5.125 35.859375 
Q 6 39.9375 7.59375 42.984375 
Q 9.1875 46.046875 11.328125 48.125 
Q 13.484375 50.203125 15.984375 51.4375 
Q 18.5 52.6875 21.28125 53.25 
Q 24.078125 53.8125 26.90625 53.8125 
Q 31.34375 53.8125 34.8125 52.59375 
Q 38.28125 51.375 40.796875 49.25 
Q 43.3125 47.125 44.875 44.234375 
Q 46.4375 41.359375 47.078125 38.03125 
L 38.03125 37.359375 
Q 37.359375 41.75 34.5625 44.328125 
Q 31.78125 46.921875 26.65625 46.921875 
Q 22.90625 46.921875 20.390625 45.671875 
Q 17.875 44.4375 16.3125 41.921875 
Q 14.75 39.40625 14.078125 35.59375 
Q 13.421875 31.78125 13.421875 26.65625 
z
" id="LiberationSans-99"/>
     <path d="M 15.484375 43.796875 
Q 16.9375 46.484375 18.640625 48.359375 
Q 20.359375 50.25 22.40625 51.46875 
Q 24.46875 52.6875 26.90625 53.25 
Q 29.34375 53.8125 32.375 53.8125 
Q 37.453125 53.8125 40.703125 52.4375 
Q 43.953125 51.078125 45.828125 48.609375 
Q 47.703125 46.140625 48.40625 42.71875 
Q 49.125 39.3125 49.125 35.203125 
L 49.125 0 
L 40.28125 0 
L 40.28125 33.5 
Q 40.28125 36.859375 39.859375 39.390625 
Q 39.453125 41.9375 38.28125 43.625 
Q 37.109375 45.3125 34.953125 46.15625 
Q 32.8125 47.015625 29.390625 47.015625 
Q 26.265625 47.015625 23.75 45.890625 
Q 21.234375 44.78125 19.453125 42.71875 
Q 17.671875 40.671875 16.6875 37.734375 
Q 15.71875 34.8125 15.71875 31.15625 
L 15.71875 0 
L 6.9375 0 
L 6.9375 72.46875 
L 15.71875 72.46875 
L 15.71875 53.609375 
Q 15.71875 52 15.671875 50.390625 
Q 15.625 48.78125 15.546875 47.40625 
Q 15.484375 46.046875 15.421875 45.09375 
Q 15.375 44.140625 15.328125 43.796875 
z
" id="LiberationSans-104"/>
     <path d="M 40.28125 0 
L 40.28125 33.5 
Q 40.28125 37.359375 39.71875 39.9375 
Q 39.15625 42.53125 37.890625 44.109375 
Q 36.625 45.703125 34.546875 46.359375 
Q 32.46875 47.015625 29.390625 47.015625 
Q 26.265625 47.015625 23.75 45.921875 
Q 21.234375 44.828125 19.453125 42.75 
Q 17.671875 40.671875 16.6875 37.625 
Q 15.71875 34.578125 15.71875 30.609375 
L 15.71875 0 
L 6.9375 0 
L 6.9375 41.546875 
Q 6.9375 43.21875 6.90625 45.046875 
Q 6.890625 46.875 6.828125 48.5 
Q 6.78125 50.140625 6.734375 51.3125 
Q 6.6875 52.484375 6.640625 52.828125 
L 14.9375 52.828125 
Q 14.984375 52.59375 15.03125 51.515625 
Q 15.09375 50.4375 15.15625 49.046875 
Q 15.234375 47.65625 15.28125 46.21875 
Q 15.328125 44.78125 15.328125 43.796875 
L 15.484375 43.796875 
Q 16.75 46.09375 18.265625 47.953125 
Q 19.78125 49.8125 21.78125 51.09375 
Q 23.78125 52.390625 26.359375 53.09375 
Q 28.953125 53.8125 32.375 53.8125 
Q 36.765625 53.8125 39.9375 52.734375 
Q 43.109375 51.65625 45.15625 49.40625 
Q 47.21875 47.171875 48.171875 43.625 
Q 49.125 40.09375 49.125 35.203125 
L 49.125 0 
z
" id="LiberationSans-110"/>
     <path d="M 6.734375 0 
L 6.734375 72.46875 
L 15.53125 72.46875 
L 15.53125 0 
z
" id="LiberationSans-108"/>
     <path id="LiberationSans-32"/>
     <path d="M 4.890625 41.796875 
L 4.890625 49.03125 
L 53.46875 49.03125 
L 53.46875 41.796875 
z
M 4.890625 16.796875 
L 4.890625 24.03125 
L 53.46875 24.03125 
L 53.46875 16.796875 
z
" id="LiberationSans-61"/>
     <path d="M 61.421875 48.09375 
Q 61.421875 43.609375 59.9375 39.71875 
Q 58.453125 35.84375 55.5 32.984375 
Q 52.546875 30.125 48.09375 28.46875 
Q 43.65625 26.8125 37.75 26.8125 
L 17.53125 26.8125 
L 17.53125 0 
L 8.203125 0 
L 8.203125 68.796875 
L 37.15625 68.796875 
Q 43.265625 68.796875 47.796875 67.3125 
Q 52.34375 65.828125 55.375 63.109375 
Q 58.40625 60.40625 59.90625 56.5625 
Q 61.421875 52.734375 61.421875 48.09375 
z
M 52.046875 48 
Q 52.046875 54.546875 48.046875 57.9375 
Q 44.046875 61.328125 36.03125 61.328125 
L 17.53125 61.328125 
L 17.53125 34.1875 
L 36.421875 34.1875 
Q 44.484375 34.1875 48.265625 37.75 
Q 52.046875 41.3125 52.046875 48 
z
" id="LiberationSans-80"/>
     <path d="M 62.109375 19 
Q 62.109375 14.65625 60.421875 10.984375 
Q 58.734375 7.328125 55.21875 4.65625 
Q 51.703125 2 46.359375 0.5 
Q 41.015625 -0.984375 33.6875 -0.984375 
Q 20.84375 -0.984375 13.671875 3.515625 
Q 6.5 8.015625 4.546875 16.5 
L 13.578125 18.3125 
Q 14.265625 15.625 15.671875 13.421875 
Q 17.09375 11.234375 19.5 9.640625 
Q 21.921875 8.0625 25.484375 7.171875 
Q 29.046875 6.296875 34.03125 6.296875 
Q 38.1875 6.296875 41.65625 7 
Q 45.125 7.71875 47.609375 9.171875 
Q 50.09375 10.640625 51.484375 12.953125 
Q 52.875 15.28125 52.875 18.5 
Q 52.875 21.875 51.34375 23.96875 
Q 49.8125 26.078125 47.015625 27.4375 
Q 44.234375 28.8125 40.375 29.734375 
Q 36.53125 30.671875 31.84375 31.734375 
Q 28.953125 32.375 26.046875 33.125 
Q 23.140625 33.890625 20.484375 34.9375 
Q 17.828125 35.984375 15.484375 37.390625 
Q 13.140625 38.8125 11.421875 40.796875 
Q 9.71875 42.78125 8.734375 45.390625 
Q 7.765625 48 7.765625 51.421875 
Q 7.765625 56.296875 9.734375 59.78125 
Q 11.71875 63.28125 15.234375 65.53125 
Q 18.75 67.78125 23.53125 68.796875 
Q 28.328125 69.828125 33.890625 69.828125 
Q 40.28125 69.828125 44.8125 68.828125 
Q 49.359375 67.828125 52.484375 65.8125 
Q 55.609375 63.8125 57.484375 60.859375 
Q 59.375 57.90625 60.5 54 
L 51.3125 52.390625 
Q 50.640625 54.890625 49.34375 56.84375 
Q 48.046875 58.796875 45.9375 60.109375 
Q 43.84375 61.421875 40.84375 62.109375 
Q 37.84375 62.796875 33.796875 62.796875 
Q 29 62.796875 25.75 61.9375 
Q 22.515625 61.078125 20.53125 59.609375 
Q 18.5625 58.15625 17.703125 56.171875 
Q 16.84375 54.203125 16.84375 51.90625 
Q 16.84375 48.828125 18.375 46.84375 
Q 19.921875 44.875 22.5625 43.546875 
Q 25.203125 42.234375 28.65625 41.359375 
Q 32.125 40.484375 36.03125 39.59375 
Q 39.203125 38.875 42.359375 38.109375 
Q 45.515625 37.359375 48.390625 36.296875 
Q 51.265625 35.25 53.78125 33.828125 
Q 56.296875 32.421875 58.15625 30.375 
Q 60.015625 28.328125 61.0625 25.53125 
Q 62.109375 22.75 62.109375 19 
z
" id="LiberationSans-83"/>
     <path d="M 9.234375 0 
L 9.234375 68.796875 
L 18.5625 68.796875 
L 18.5625 0 
z
" id="LiberationSans-73"/>
    </defs>
    <g style="fill:#262626;" transform="translate(113.085954 14.446875)scale(0.1 -0.1)">
     <use xlink:href="#LiberationSans-99"/>
     <use x="50" xlink:href="#LiberationSans-104"/>
     <use x="105.615234" xlink:href="#LiberationSans-97"/>
     <use x="161.230469" xlink:href="#LiberationSans-110"/>
     <use x="216.845703" xlink:href="#LiberationSans-110"/>
     <use x="272.460938" xlink:href="#LiberationSans-101"/>
     <use x="328.076172" xlink:href="#LiberationSans-108"/>
     <use x="350.292969" xlink:href="#LiberationSans-32"/>
     <use x="378.076172" xlink:href="#LiberationSans-61"/>
     <use x="436.474609" xlink:href="#LiberationSans-32"/>
     <use x="464.257812" xlink:href="#LiberationSans-80"/>
     <use x="530.957031" xlink:href="#LiberationSans-83"/>
     <use x="597.65625" xlink:href="#LiberationSans-73"/>
     <use x="625.439453" xlink:href="#LiberationSans-83"/>
     <use x="692.138672" xlink:href="#LiberationSans-114"/>
    </g>
   </g>
  </g>
  <g id="axes_2">
   <g id="patch_5">
    <path d="M 269.397761 186.496875 
L 474.702482 186.496875 
L 474.702482 20.446875 
L 269.397761 20.446875 
z
" style="fill:#ffffff;"/>
   </g>
   <g id="matplotlib.axis_3">
    <g id="xtick_5">
     <g id="line2d_12">
      <g>
       <use style="fill:#262626;stroke:#262626;stroke-width:0.8;" x="278.729794" xlink:href="#m0fcc737a15" y="186.496875"/>
      </g>
     </g>
    </g>
    <g id="xtick_6">
     <g id="line2d_13">
      <g>
       <use style="fill:#262626;stroke:#262626;stroke-width:0.8;" x="343.199796" xlink:href="#m0fcc737a15" y="186.496875"/>
      </g>
     </g>
    </g>
    <g id="xtick_7">
     <g id="line2d_14">
      <g>
       <use style="fill:#262626;stroke:#262626;stroke-width:0.8;" x="407.669797" xlink:href="#m0fcc737a15" y="186.496875"/>
      </g>
     </g>
    </g>
    <g id="xtick_8">
     <g id="line2d_15">
      <g>
       <use style="fill:#262626;stroke:#262626;stroke-width:0.8;" x="472.139799" xlink:href="#m0fcc737a15" y="186.496875"/>
      </g>
     </g>
    </g>
   </g>
   <g id="matplotlib.axis_4">
    <g id="ytick_5">
     <g id="line2d_16">
      <g>
       <use style="fill:#262626;stroke:#262626;stroke-width:0.8;" x="269.397761" xlink:href="#mfece647cb0" y="164.715254"/>
      </g>
     </g>
    </g>
    <g id="ytick_6">
     <g id="line2d_17">
      <g>
       <use style="fill:#262626;stroke:#262626;stroke-width:0.8;" x="269.397761" xlink:href="#mfece647cb0" y="126.369672"/>
      </g>
     </g>
    </g>
    <g id="ytick_7">
     <g id="line2d_18">
      <g>
       <use style="fill:#262626;stroke:#262626;stroke-width:0.8;" x="269.397761" xlink:href="#mfece647cb0" y="88.024091"/>
      </g>
     </g>
    </g>
    <g id="ytick_8">
     <g id="line2d_19">
      <g>
       <use style="fill:#262626;stroke:#262626;stroke-width:0.8;" x="269.397761" xlink:href="#mfece647cb0" y="49.678509"/>
      </g>
     </g>
    </g>
   </g>
   <g id="line2d_20">
    <path clip-path="url(#p206b554906)" d="M 278.729794 32.466248 
L 290.334394 32.355991 
L 294.202594 32.493128 
L 297.426095 32.65683 
L 297.748445 32.654056 
L 298.070795 32.786712 
L 298.393145 32.743098 
L 299.037845 32.848487 
L 305.162495 33.197211 
L 310.320095 33.596441 
L 313.221245 33.644409 
L 315.155345 33.528335 
L 317.089445 33.228257 
L 326.115245 31.030571 
L 334.496346 28.287214 
L 336.108096 28.098506 
L 338.042196 28.026748 
L 339.331596 28.112033 
L 340.943346 28.492212 
L 342.877446 29.21434 
L 345.456246 30.454978 
L 346.745646 31.217384 
L 348.035046 31.811291 
L 349.002096 32.272917 
L 352.547946 33.567771 
L 364.797246 37.587013 
L 366.731346 37.811389 
L 370.277196 38.109724 
L 371.888947 37.952728 
L 372.855997 37.756904 
L 374.145397 37.354713 
L 376.079497 36.559646 
L 378.013597 35.759454 
L 381.237097 34.816694 
L 383.815897 34.480012 
L 386.717047 34.413274 
L 388.973497 34.640039 
L 393.808747 35.390626 
L 397.354597 35.825548 
L 400.900447 35.985469 
L 404.446297 35.623194 
L 410.248598 35.125432 
L 414.116798 35.06093 
L 418.952048 35.248679 
L 420.241448 35.370369 
L 422.820248 35.640993 
L 423.787298 35.79683 
L 424.754348 35.89273 
L 425.076698 36.002905 
L 426.366098 35.906503 
L 427.010798 36.007808 
L 428.944898 36.06385 
L 429.589598 36.159211 
L 430.878998 36.167929 
L 431.201348 36.06261 
L 435.069548 36.121354 
L 441.516548 36.396635 
L 445.062398 36.591149 
L 446.996499 36.514113 
L 450.542349 36.05952 
L 456.344649 35.311133 
L 461.179899 34.824172 
L 465.370449 34.392082 
L 465.370449 34.392082 
" style="fill:none;stroke:#1f77b4;stroke-linecap:round;stroke-width:1.5;"/>
   </g>
   <g id="line2d_21">
    <path clip-path="url(#p206b554906)" d="M 278.729794 165.513875 
L 296.136695 165.481949 
L 300.971945 166.000977 
L 305.807195 166.920607 
L 310.964795 168.350074 
L 314.510645 169.656276 
L 317.411795 170.630292 
L 319.345895 170.981637 
L 325.148195 171.813721 
L 328.049345 172.263066 
L 330.305795 172.506444 
L 333.851646 172.687388 
L 337.075146 172.41051 
L 339.009246 171.964181 
L 341.910396 170.932137 
L 344.811546 169.953946 
L 351.580896 167.844936 
L 355.126746 166.986092 
L 357.383196 166.778859 
L 359.639646 166.736767 
L 361.251396 166.905336 
L 363.507846 167.418531 
L 367.376046 168.521112 
L 370.921896 169.735531 
L 377.368897 172.123538 
L 379.947697 173.262124 
L 382.526497 174.647722 
L 386.072347 176.510417 
L 388.006447 176.997542 
L 389.295847 177.201788 
L 393.164047 177.336246 
L 396.387547 177.167741 
L 398.321647 176.753742 
L 405.735697 175.180802 
L 407.669797 174.929419 
L 410.570948 174.422319 
L 412.827398 173.988429 
L 429.589598 169.81125 
L 435.714248 168.589979 
L 439.904798 168.1438 
L 445.062398 167.856981 
L 450.219999 167.685948 
L 453.443499 167.571741 
L 456.022299 167.693964 
L 458.278749 168.0101 
L 463.436349 168.830774 
L 465.370449 168.964237 
L 465.370449 168.964237 
" style="fill:none;stroke:#ff7f0e;stroke-linecap:round;stroke-width:1.5;"/>
   </g>
   <g id="line2d_22">
    <path clip-path="url(#p206b554906)" d="M 278.729794 160.828671 
L 288.077944 160.798415 
L 297.103745 160.627467 
L 299.360195 160.535158 
L 310.642445 159.930031 
L 315.155345 159.330577 
L 320.312945 158.480978 
L 324.181145 158.210398 
L 331.595195 157.912941 
L 335.463396 157.620247 
L 336.752796 157.853372 
L 339.653946 158.684309 
L 343.522146 159.00792 
L 346.100946 159.17089 
L 348.357396 159.314253 
L 352.225596 159.745213 
L 356.416146 159.925768 
L 365.764296 159.597956 
L 367.698396 159.593205 
L 370.277196 159.498877 
L 372.855997 159.511612 
L 374.790097 159.282048 
L 378.013597 158.70422 
L 380.914747 158.034585 
L 386.717047 157.281514 
L 389.295847 157.232836 
L 392.196997 157.322478 
L 394.775797 157.316226 
L 401.545147 157.430755 
L 405.090997 157.798907 
L 411.215648 158.444783 
L 413.472098 158.737556 
L 423.464948 159.155194 
L 424.754348 159.177753 
L 425.721398 159.25913 
L 426.688448 159.32326 
L 430.878998 159.583188 
L 431.846048 159.660431 
L 434.424848 159.887646 
L 440.871848 160.069453 
L 443.450648 159.975754 
L 447.318849 159.875677 
L 456.666999 160.158901 
L 462.146949 160.182569 
L 465.370449 160.178933 
L 465.370449 160.178933 
" style="fill:none;stroke:#2ca02c;stroke-linecap:round;stroke-width:1.5;"/>
   </g>
   <g id="patch_6">
    <path d="M 269.397761 186.496875 
L 269.397761 20.446875 
" style="fill:none;stroke:#262626;stroke-linecap:square;stroke-linejoin:miter;stroke-width:1.25;"/>
   </g>
   <g id="patch_7">
    <path d="M 269.397761 186.496875 
L 474.702482 186.496875 
" style="fill:none;stroke:#262626;stroke-linecap:square;stroke-linejoin:miter;stroke-width:1.25;"/>
   </g>
   <g id="text_7">
    <!-- channel = PSISl -->
    <g style="fill:#262626;" transform="translate(336.332934 14.446875)scale(0.1 -0.1)">
     <use xlink:href="#LiberationSans-99"/>
     <use x="50" xlink:href="#LiberationSans-104"/>
     <use x="105.615234" xlink:href="#LiberationSans-97"/>
     <use x="161.230469" xlink:href="#LiberationSans-110"/>
     <use x="216.845703" xlink:href="#LiberationSans-110"/>
     <use x="272.460938" xlink:href="#LiberationSans-101"/>
     <use x="328.076172" xlink:href="#LiberationSans-108"/>
     <use x="350.292969" xlink:href="#LiberationSans-32"/>
     <use x="378.076172" xlink:href="#LiberationSans-61"/>
     <use x="436.474609" xlink:href="#LiberationSans-32"/>
     <use x="464.257812" xlink:href="#LiberationSans-80"/>
     <use x="530.957031" xlink:href="#LiberationSans-83"/>
     <use x="597.65625" xlink:href="#LiberationSans-73"/>
     <use x="625.439453" xlink:href="#LiberationSans-83"/>
     <use x="692.138672" xlink:href="#LiberationSans-108"/>
    </g>
   </g>
  </g>
  <g id="axes_3">
   <g id="patch_8">
    <path d="M 492.090835 186.496875 
L 697.395556 186.496875 
L 697.395556 20.446875 
L 492.090835 20.446875 
z
" style="fill:#ffffff;"/>
   </g>
   <g id="matplotlib.axis_5">
    <g id="xtick_9">
     <g id="line2d_23">
      <g>
       <use style="fill:#262626;stroke:#262626;stroke-width:0.8;" x="501.422868" xlink:href="#m0fcc737a15" y="186.496875"/>
      </g>
     </g>
    </g>
    <g id="xtick_10">
     <g id="line2d_24">
      <g>
       <use style="fill:#262626;stroke:#262626;stroke-width:0.8;" x="565.89287" xlink:href="#m0fcc737a15" y="186.496875"/>
      </g>
     </g>
    </g>
    <g id="xtick_11">
     <g id="line2d_25">
      <g>
       <use style="fill:#262626;stroke:#262626;stroke-width:0.8;" x="630.362871" xlink:href="#m0fcc737a15" y="186.496875"/>
      </g>
     </g>
    </g>
    <g id="xtick_12">
     <g id="line2d_26">
      <g>
       <use style="fill:#262626;stroke:#262626;stroke-width:0.8;" x="694.832873" xlink:href="#m0fcc737a15" y="186.496875"/>
      </g>
     </g>
    </g>
   </g>
   <g id="matplotlib.axis_6">
    <g id="ytick_9">
     <g id="line2d_27">
      <g>
       <use style="fill:#262626;stroke:#262626;stroke-width:0.8;" x="492.090835" xlink:href="#mfece647cb0" y="164.715254"/>
      </g>
     </g>
    </g>
    <g id="ytick_10">
     <g id="line2d_28">
      <g>
       <use style="fill:#262626;stroke:#262626;stroke-width:0.8;" x="492.090835" xlink:href="#mfece647cb0" y="126.369672"/>
      </g>
     </g>
    </g>
    <g id="ytick_11">
     <g id="line2d_29">
      <g>
       <use style="fill:#262626;stroke:#262626;stroke-width:0.8;" x="492.090835" xlink:href="#mfece647cb0" y="88.024091"/>
      </g>
     </g>
    </g>
    <g id="ytick_12">
     <g id="line2d_30">
      <g>
       <use style="fill:#262626;stroke:#262626;stroke-width:0.8;" x="492.090835" xlink:href="#mfece647cb0" y="49.678509"/>
      </g>
     </g>
    </g>
   </g>
   <g id="line2d_31">
    <path clip-path="url(#p851ccb80aa)" d="M 501.422868 64.496558 
L 505.935768 64.63235 
L 512.705118 64.988598 
L 514.961568 65.285938 
L 518.507418 66.079647 
L 522.375618 67.021225 
L 523.665018 67.122414 
L 524.954418 66.972872 
L 526.243819 66.55156 
L 529.789669 65.151644 
L 531.723769 64.965287 
L 533.013169 65.187733 
L 533.980219 65.561371 
L 535.269619 66.308682 
L 536.881369 67.562964 
L 540.427219 71.007736 
L 541.716619 72.022463 
L 543.650719 73.386091 
L 545.262469 74.244537 
L 546.551869 74.690341 
L 548.163619 74.960918 
L 549.453019 75.032547 
L 550.420069 74.937924 
L 551.709469 74.519338 
L 553.643569 73.55569 
L 558.801169 70.730676 
L 561.702319 68.795328 
L 562.669369 68.285302 
L 566.21522 66.436024 
L 567.50462 65.940872 
L 568.14932 65.698649 
L 570.40577 64.697648 
L 574.59632 62.754998 
L 577.17512 61.270933 
L 578.46452 60.427471 
L 579.75392 59.87802 
L 581.04332 59.559082 
L 582.97742 59.34311 
L 588.45737 58.887364 
L 593.29262 58.320226 
L 594.90437 58.379684 
L 596.51612 58.728338 
L 597.48317 59.15941 
L 598.45022 59.781402 
L 601.351371 62.686213 
L 603.607821 64.918163 
L 605.864271 66.862146 
L 607.798371 68.285138 
L 609.732471 69.54017 
L 611.344221 70.282156 
L 614.245371 71.192629 
L 620.370021 72.97524 
L 621.659421 72.943703 
L 624.238221 72.311612 
L 627.139371 71.146816 
L 629.718171 70.545162 
L 631.652271 70.12729 
L 632.619321 69.859861 
L 634.231071 69.61174 
L 635.520471 69.543528 
L 637.132221 69.778227 
L 639.388672 70.313178 
L 641.967472 71.271759 
L 645.513322 72.751261 
L 647.769772 73.284107 
L 649.703872 73.525405 
L 651.315622 73.46446 
L 652.605022 73.192444 
L 654.216772 72.631548 
L 656.795572 71.451305 
L 660.019072 70.003727 
L 662.275522 69.258429 
L 665.176672 68.609732 
L 668.722522 67.909383 
L 671.946022 67.280369 
L 680.649473 65.285353 
L 684.840023 64.844779 
L 688.063523 64.52916 
L 688.063523 64.52916 
" style="fill:none;stroke:#1f77b4;stroke-linecap:round;stroke-width:1.5;"/>
   </g>
   <g id="line2d_32">
    <path clip-path="url(#p851ccb80aa)" d="M 501.422868 162.403685 
L 505.291068 162.307076 
L 512.382768 162.149421 
L 516.895668 162.281667 
L 520.119168 162.52791 
L 524.954418 162.966649 
L 527.533219 163.232791 
L 529.467319 163.688516 
L 530.756719 164.157614 
L 533.013169 165.190674 
L 535.269619 166.451615 
L 539.460169 168.951359 
L 541.071919 169.615122 
L 543.973069 170.724816 
L 545.907169 171.318644 
L 547.841269 171.681952 
L 551.064769 172.026957 
L 557.834119 172.200365 
L 559.123519 172.019684 
L 560.412919 171.560776 
L 563.31407 169.938142 
L 565.57052 168.423051 
L 566.53757 167.845299 
L 567.82697 167.148574 
L 568.79402 166.447361 
L 570.40577 165.470949 
L 574.91867 162.523179 
L 578.78687 160.450347 
L 580.39862 159.814469 
L 581.68802 159.537353 
L 582.97742 159.525298 
L 588.13502 160.269078 
L 591.68087 161.668525 
L 593.61497 162.445211 
L 596.83847 163.726633 
L 598.77257 164.883466 
L 606.508971 170.806602 
L 608.443071 171.825853 
L 609.732471 172.337889 
L 612.311271 172.949323 
L 614.245371 173.122524 
L 618.113571 173.01343 
L 621.981771 172.7143 
L 626.817021 171.744406 
L 633.908721 169.536662 
L 635.198121 169.29138 
L 636.809871 169.087593 
L 638.099271 168.856256 
L 640.033372 168.904311 
L 641.000422 168.78599 
L 642.612172 168.817326 
L 646.802722 169.059279 
L 649.059172 168.862227 
L 650.670922 168.387298 
L 654.539122 167.145329 
L 661.953172 164.59471 
L 665.821372 163.528861 
L 667.433122 163.2647 
L 669.367222 163.220501 
L 675.491872 163.332204 
L 681.938873 163.344283 
L 685.162373 163.662991 
L 688.063523 164.053849 
L 688.063523 164.053849 
" style="fill:none;stroke:#ff7f0e;stroke-linecap:round;stroke-width:1.5;"/>
   </g>
   <g id="line2d_33">
    <path clip-path="url(#p851ccb80aa)" d="M 501.422868 84.257147 
L 513.027468 84.158955 
L 523.020318 84.204102 
L 525.276768 83.824086 
L 528.177919 83.139979 
L 530.756719 82.590903 
L 538.170769 81.322566 
L 540.427219 81.318681 
L 541.071919 81.400034 
L 543.006019 81.580352 
L 545.907169 81.928854 
L 549.453019 81.965891 
L 551.064769 81.751765 
L 552.676519 81.330816 
L 555.255319 80.410454 
L 557.511769 79.635854 
L 558.801169 79.516457 
L 560.412919 79.640336 
L 561.379969 79.805711 
L 562.347019 79.800609 
L 564.28112 79.435642 
L 570.08342 79.189722 
L 574.59632 79.277792 
L 576.53042 79.023189 
L 578.14217 78.550562 
L 579.43157 78.461625 
L 581.68802 78.387468 
L 582.65507 78.105112 
L 583.94447 77.520824 
L 584.91152 77.410796 
L 587.49032 77.38124 
L 588.13502 77.145916 
L 589.74677 76.300264 
L 592.00322 75.964178 
L 593.61497 75.760935 
L 598.12787 75.381739 
L 598.77257 75.350038 
L 600.06197 75.307863 
L 602.640771 75.351536 
L 605.219571 75.575632 
L 609.732471 76.478054 
L 620.370021 77.8636 
L 623.271171 77.83713 
L 625.527621 77.730979 
L 628.106421 78.056346 
L 630.040521 78.168651 
L 635.842821 78.446905 
L 638.743972 79.00656 
L 642.612172 79.942673 
L 650.348572 81.829292 
L 653.894422 82.148936 
L 656.795572 82.146151 
L 659.696722 82.174213 
L 661.630822 82.339564 
L 665.821372 82.892876 
L 670.011922 83.04745 
L 673.880122 83.163266 
L 688.063523 83.472097 
L 688.063523 83.472097 
" style="fill:none;stroke:#2ca02c;stroke-linecap:round;stroke-width:1.5;"/>
   </g>
   <g id="patch_9">
    <path d="M 492.090835 186.496875 
L 492.090835 20.446875 
" style="fill:none;stroke:#262626;stroke-linecap:square;stroke-linejoin:miter;stroke-width:1.25;"/>
   </g>
   <g id="patch_10">
    <path d="M 492.090835 186.496875 
L 697.395556 186.496875 
" style="fill:none;stroke:#262626;stroke-linecap:square;stroke-linejoin:miter;stroke-width:1.25;"/>
   </g>
   <g id="text_8">
    <!-- channel = STERr -->
    <defs>
     <path d="M 35.15625 61.1875 
L 35.15625 0 
L 25.875 0 
L 25.875 61.1875 
L 2.25 61.1875 
L 2.25 68.796875 
L 58.796875 68.796875 
L 58.796875 61.1875 
z
" id="LiberationSans-84"/>
     <path d="M 8.203125 0 
L 8.203125 68.796875 
L 60.40625 68.796875 
L 60.40625 61.1875 
L 17.53125 61.1875 
L 17.53125 39.109375 
L 57.46875 39.109375 
L 57.46875 31.59375 
L 17.53125 31.59375 
L 17.53125 7.625 
L 62.40625 7.625 
L 62.40625 0 
z
" id="LiberationSans-69"/>
     <path d="M 56.84375 0 
L 38.96875 28.5625 
L 17.53125 28.5625 
L 17.53125 0 
L 8.203125 0 
L 8.203125 68.796875 
L 40.578125 68.796875 
Q 46.4375 68.796875 50.953125 67.453125 
Q 55.46875 66.109375 58.546875 63.5625 
Q 61.625 61.03125 63.234375 57.375 
Q 64.84375 53.71875 64.84375 49.125 
Q 64.84375 45.84375 63.890625 42.671875 
Q 62.9375 39.5 60.890625 36.859375 
Q 58.84375 34.234375 55.65625 32.328125 
Q 52.484375 30.421875 48.046875 29.640625 
L 67.578125 0 
z
M 55.46875 49.03125 
Q 55.46875 52.15625 54.390625 54.4375 
Q 53.328125 56.734375 51.265625 58.265625 
Q 49.21875 59.8125 46.28125 60.5625 
Q 43.359375 61.328125 39.65625 61.328125 
L 17.53125 61.328125 
L 17.53125 35.9375 
L 40.046875 35.9375 
Q 44.046875 35.9375 46.96875 36.9375 
Q 49.90625 37.9375 51.78125 39.6875 
Q 53.65625 41.453125 54.5625 43.84375 
Q 55.46875 46.234375 55.46875 49.03125 
z
" id="LiberationSans-82"/>
    </defs>
    <g style="fill:#262626;" transform="translate(556.531477 14.446875)scale(0.1 -0.1)">
     <use xlink:href="#LiberationSans-99"/>
     <use x="50" xlink:href="#LiberationSans-104"/>
     <use x="105.615234" xlink:href="#LiberationSans-97"/>
     <use x="161.230469" xlink:href="#LiberationSans-110"/>
     <use x="216.845703" xlink:href="#LiberationSans-110"/>
     <use x="272.460938" xlink:href="#LiberationSans-101"/>
     <use x="328.076172" xlink:href="#LiberationSans-108"/>
     <use x="350.292969" xlink:href="#LiberationSans-32"/>
     <use x="378.076172" xlink:href="#LiberationSans-61"/>
     <use x="436.474609" xlink:href="#LiberationSans-32"/>
     <use x="464.257812" xlink:href="#LiberationSans-83"/>
     <use x="530.957031" xlink:href="#LiberationSans-84"/>
     <use x="592.041016" xlink:href="#LiberationSans-69"/>
     <use x="658.740234" xlink:href="#LiberationSans-82"/>
     <use x="730.957031" xlink:href="#LiberationSans-114"/>
    </g>
   </g>
  </g>
  <g id="axes_4">
   <g id="patch_11">
    <path d="M 46.704688 383.346875 
L 252.009408 383.346875 
L 252.009408 217.296875 
L 46.704688 217.296875 
z
" style="fill:#ffffff;"/>
   </g>
   <g id="matplotlib.axis_7">
    <g id="xtick_13">
     <g id="line2d_34">
      <g>
       <use style="fill:#262626;stroke:#262626;stroke-width:0.8;" x="56.03672" xlink:href="#m0fcc737a15" y="383.346875"/>
      </g>
     </g>
     <g id="text_9">
      <!-- 0 -->
      <g style="fill:#262626;" transform="translate(53.256251 400.09375)scale(0.1 -0.1)">
       <use xlink:href="#LiberationSans-48"/>
      </g>
     </g>
    </g>
    <g id="xtick_14">
     <g id="line2d_35">
      <g>
       <use style="fill:#262626;stroke:#262626;stroke-width:0.8;" x="120.506722" xlink:href="#m0fcc737a15" y="383.346875"/>
      </g>
     </g>
     <g id="text_10">
      <!-- 2 -->
      <g style="fill:#262626;" transform="translate(117.726253 400.09375)scale(0.1 -0.1)">
       <use xlink:href="#LiberationSans-50"/>
      </g>
     </g>
    </g>
    <g id="xtick_15">
     <g id="line2d_36">
      <g>
       <use style="fill:#262626;stroke:#262626;stroke-width:0.8;" x="184.976724" xlink:href="#m0fcc737a15" y="383.346875"/>
      </g>
     </g>
     <g id="text_11">
      <!-- 4 -->
      <g style="fill:#262626;" transform="translate(182.196255 400.09375)scale(0.1 -0.1)">
       <use xlink:href="#LiberationSans-52"/>
      </g>
     </g>
    </g>
    <g id="xtick_16">
     <g id="line2d_37">
      <g>
       <use style="fill:#262626;stroke:#262626;stroke-width:0.8;" x="249.446725" xlink:href="#m0fcc737a15" y="383.346875"/>
      </g>
     </g>
     <g id="text_12">
      <!-- 6 -->
      <g style="fill:#262626;" transform="translate(246.666257 400.09375)scale(0.1 -0.1)">
       <use xlink:href="#LiberationSans-54"/>
      </g>
     </g>
    </g>
    <g id="text_13">
     <!-- time [seconds] -->
     <defs>
      <path d="M 27.046875 0.390625 
Q 25.046875 -0.140625 22.96875 -0.453125 
Q 20.90625 -0.78125 18.171875 -0.78125 
Q 7.625 -0.78125 7.625 11.1875 
L 7.625 46.4375 
L 1.515625 46.4375 
L 1.515625 52.828125 
L 7.953125 52.828125 
L 10.546875 64.65625 
L 16.40625 64.65625 
L 16.40625 52.828125 
L 26.171875 52.828125 
L 26.171875 46.4375 
L 16.40625 46.4375 
L 16.40625 13.09375 
Q 16.40625 9.28125 17.640625 7.734375 
Q 18.890625 6.203125 21.96875 6.203125 
Q 23.25 6.203125 24.4375 6.390625 
Q 25.640625 6.59375 27.046875 6.890625 
z
" id="LiberationSans-116"/>
      <path d="M 6.6875 64.0625 
L 6.6875 72.46875 
L 15.484375 72.46875 
L 15.484375 64.0625 
z
M 6.6875 0 
L 6.6875 52.828125 
L 15.484375 52.828125 
L 15.484375 0 
z
" id="LiberationSans-105"/>
      <path d="M 7.125 -20.75 
L 7.125 72.46875 
L 27 72.46875 
L 27 66.15625 
L 15.625 66.15625 
L 15.625 -14.453125 
L 27 -14.453125 
L 27 -20.75 
z
" id="LiberationSans-91"/>
      <path d="M 51.421875 26.46875 
Q 51.421875 12.59375 45.3125 5.796875 
Q 39.203125 -0.984375 27.59375 -0.984375 
Q 22.078125 -0.984375 17.71875 0.671875 
Q 13.375 2.34375 10.375 5.765625 
Q 7.375 9.1875 5.78125 14.328125 
Q 4.203125 19.484375 4.203125 26.46875 
Q 4.203125 53.8125 27.875 53.8125 
Q 34.03125 53.8125 38.5 52.09375 
Q 42.96875 50.390625 45.828125 46.96875 
Q 48.6875 43.5625 50.046875 38.421875 
Q 51.421875 33.296875 51.421875 26.46875 
z
M 42.1875 26.46875 
Q 42.1875 32.625 41.234375 36.625 
Q 40.28125 40.625 38.453125 43.015625 
Q 36.625 45.40625 33.984375 46.359375 
Q 31.34375 47.3125 28.03125 47.3125 
Q 24.65625 47.3125 21.9375 46.3125 
Q 19.234375 45.3125 17.328125 42.890625 
Q 15.4375 40.484375 14.421875 36.46875 
Q 13.421875 32.46875 13.421875 26.46875 
Q 13.421875 20.3125 14.5 16.28125 
Q 15.578125 12.25 17.453125 9.859375 
Q 19.34375 7.46875 21.90625 6.484375 
Q 24.46875 5.515625 27.484375 5.515625 
Q 30.859375 5.515625 33.59375 6.46875 
Q 36.328125 7.421875 38.234375 9.8125 
Q 40.140625 12.203125 41.15625 16.25 
Q 42.1875 20.3125 42.1875 26.46875 
z
" id="LiberationSans-111"/>
      <path d="M 40.09375 8.5 
Q 37.640625 3.421875 33.609375 1.21875 
Q 29.59375 -0.984375 23.640625 -0.984375 
Q 13.625 -0.984375 8.90625 5.75 
Q 4.203125 12.5 4.203125 26.171875 
Q 4.203125 53.8125 23.640625 53.8125 
Q 29.640625 53.8125 33.640625 51.609375 
Q 37.640625 49.421875 40.09375 44.625 
L 40.1875 44.625 
Q 40.1875 45.125 40.15625 46.171875 
Q 40.140625 47.21875 40.109375 48.359375 
Q 40.09375 49.515625 40.09375 50.53125 
Q 40.09375 51.5625 40.09375 52 
L 40.09375 72.46875 
L 48.875 72.46875 
L 48.875 10.890625 
Q 48.875 8.984375 48.890625 7.21875 
Q 48.921875 5.46875 48.96875 4 
Q 49.03125 2.546875 49.078125 1.484375 
Q 49.125 0.4375 49.171875 0 
L 40.765625 0 
Q 40.671875 0.484375 40.59375 1.390625 
Q 40.53125 2.296875 40.453125 3.46875 
Q 40.375 4.640625 40.328125 5.9375 
Q 40.28125 7.234375 40.28125 8.5 
z
M 13.421875 26.46875 
Q 13.421875 21 14.109375 17.09375 
Q 14.796875 13.1875 16.3125 10.671875 
Q 17.828125 8.15625 20.171875 6.984375 
Q 22.515625 5.8125 25.875 5.8125 
Q 29.34375 5.8125 32 6.9375 
Q 34.671875 8.0625 36.453125 10.578125 
Q 38.234375 13.09375 39.15625 17.140625 
Q 40.09375 21.1875 40.09375 27.046875 
Q 40.09375 32.671875 39.15625 36.546875 
Q 38.234375 40.4375 36.421875 42.828125 
Q 34.625 45.21875 32 46.265625 
Q 29.390625 47.3125 25.984375 47.3125 
Q 22.75 47.3125 20.40625 46.1875 
Q 18.0625 45.0625 16.5 42.578125 
Q 14.9375 40.09375 14.171875 36.109375 
Q 13.421875 32.125 13.421875 26.46875 
z
" id="LiberationSans-100"/>
      <path d="M 0.78125 -20.75 
L 0.78125 -14.453125 
L 12.15625 -14.453125 
L 12.15625 66.15625 
L 0.78125 66.15625 
L 0.78125 72.46875 
L 20.65625 72.46875 
L 20.65625 -20.75 
z
" id="LiberationSans-93"/>
     </defs>
     <g style="fill:#262626;" transform="translate(117.122673 413.415625)scale(0.1 -0.1)">
      <use xlink:href="#LiberationSans-116"/>
      <use x="27.783203" xlink:href="#LiberationSans-105"/>
      <use x="50" xlink:href="#LiberationSans-109"/>
      <use x="133.300781" xlink:href="#LiberationSans-101"/>
      <use x="188.916016" xlink:href="#LiberationSans-32"/>
      <use x="216.699219" xlink:href="#LiberationSans-91"/>
      <use x="244.482422" xlink:href="#LiberationSans-115"/>
      <use x="294.482422" xlink:href="#LiberationSans-101"/>
      <use x="350.097656" xlink:href="#LiberationSans-99"/>
      <use x="400.097656" xlink:href="#LiberationSans-111"/>
      <use x="455.712891" xlink:href="#LiberationSans-110"/>
      <use x="511.328125" xlink:href="#LiberationSans-100"/>
      <use x="566.943359" xlink:href="#LiberationSans-115"/>
      <use x="616.943359" xlink:href="#LiberationSans-93"/>
     </g>
    </g>
   </g>
   <g id="matplotlib.axis_8">
    <g id="ytick_13">
     <g id="line2d_38">
      <g>
       <use style="fill:#262626;stroke:#262626;stroke-width:0.8;" x="46.704688" xlink:href="#mfece647cb0" y="361.565254"/>
      </g>
     </g>
     <g id="text_14">
      <!-- 200 -->
      <g style="fill:#262626;" transform="translate(20.521875 365.188691)scale(0.1 -0.1)">
       <use xlink:href="#LiberationSans-50"/>
       <use x="55.615234" xlink:href="#LiberationSans-48"/>
       <use x="111.230469" xlink:href="#LiberationSans-48"/>
      </g>
     </g>
    </g>
    <g id="ytick_14">
     <g id="line2d_39">
      <g>
       <use style="fill:#262626;stroke:#262626;stroke-width:0.8;" x="46.704688" xlink:href="#mfece647cb0" y="323.219672"/>
      </g>
     </g>
     <g id="text_15">
      <!-- 400 -->
      <g style="fill:#262626;" transform="translate(20.521875 326.84311)scale(0.1 -0.1)">
       <use xlink:href="#LiberationSans-52"/>
       <use x="55.615234" xlink:href="#LiberationSans-48"/>
       <use x="111.230469" xlink:href="#LiberationSans-48"/>
      </g>
     </g>
    </g>
    <g id="ytick_15">
     <g id="line2d_40">
      <g>
       <use style="fill:#262626;stroke:#262626;stroke-width:0.8;" x="46.704688" xlink:href="#mfece647cb0" y="284.874091"/>
      </g>
     </g>
     <g id="text_16">
      <!-- 600 -->
      <g style="fill:#262626;" transform="translate(20.521875 288.497528)scale(0.1 -0.1)">
       <use xlink:href="#LiberationSans-54"/>
       <use x="55.615234" xlink:href="#LiberationSans-48"/>
       <use x="111.230469" xlink:href="#LiberationSans-48"/>
      </g>
     </g>
    </g>
    <g id="ytick_16">
     <g id="line2d_41">
      <g>
       <use style="fill:#262626;stroke:#262626;stroke-width:0.8;" x="46.704688" xlink:href="#mfece647cb0" y="246.528509"/>
      </g>
     </g>
     <g id="text_17">
      <!-- 800 -->
      <g style="fill:#262626;" transform="translate(20.521875 250.151947)scale(0.1 -0.1)">
       <use xlink:href="#LiberationSans-56"/>
       <use x="55.615234" xlink:href="#LiberationSans-48"/>
       <use x="111.230469" xlink:href="#LiberationSans-48"/>
      </g>
     </g>
    </g>
    <g id="text_18">
     <!-- markers -->
     <g style="fill:#262626;" transform="translate(14.446875 318.377344)rotate(-90)scale(0.1 -0.1)">
      <use xlink:href="#LiberationSans-109"/>
      <use x="83.300781" xlink:href="#LiberationSans-97"/>
      <use x="138.916016" xlink:href="#LiberationSans-114"/>
      <use x="172.216797" xlink:href="#LiberationSans-107"/>
      <use x="222.216797" xlink:href="#LiberationSans-101"/>
      <use x="277.832031" xlink:href="#LiberationSans-114"/>
      <use x="311.132812" xlink:href="#LiberationSans-115"/>
     </g>
    </g>
   </g>
   <g id="line2d_42">
    <path clip-path="url(#p9decf0c0c1)" d="M 56.03672 258.929621 
L 60.22727 259.074938 
L 68.608371 259.626039 
L 70.864821 260.099156 
L 74.733021 261.198397 
L 76.989471 261.718733 
L 78.278871 261.824672 
L 79.568271 261.683463 
L 81.180021 261.162671 
L 84.081171 260.079462 
L 85.370571 259.848848 
L 86.659971 259.856758 
L 87.627021 260.051423 
L 88.916421 260.61164 
L 89.883471 261.218186 
L 92.462271 263.549217 
L 94.396371 265.390444 
L 96.008121 266.856875 
L 99.553971 269.204875 
L 100.843371 269.743688 
L 102.455121 270.116881 
L 104.066872 270.357606 
L 106.000972 269.996138 
L 107.612722 269.316033 
L 113.415022 266.337054 
L 116.960872 263.98813 
L 119.862022 262.328578 
L 122.118472 261.269511 
L 124.374922 260.220414 
L 127.276072 258.812974 
L 128.565472 258.155255 
L 129.210172 257.852497 
L 129.854872 257.585244 
L 131.144272 256.713045 
L 132.433672 255.988327 
L 133.723072 255.533152 
L 135.334822 255.213676 
L 139.525372 254.540333 
L 140.170072 254.353556 
L 141.781823 254.300078 
L 143.393573 254.16954 
L 144.038273 253.980469 
L 145.972373 253.715708 
L 148.228823 253.481232 
L 149.518223 253.609745 
L 150.807623 253.898483 
L 151.774673 254.303881 
L 153.064073 255.157681 
L 154.353473 256.373264 
L 158.866373 261.085132 
L 160.800473 262.754724 
L 164.668673 265.342044 
L 166.280423 266.009651 
L 174.016823 268.357487 
L 174.983873 268.52292 
L 175.950923 268.494859 
L 177.885023 268.130009 
L 179.174424 267.627309 
L 181.108524 266.779149 
L 183.364974 266.178033 
L 189.167274 264.905156 
L 189.811974 264.830578 
L 190.779024 264.80646 
L 191.423724 264.859459 
L 193.357824 265.08565 
L 193.680174 265.20761 
L 194.324874 265.281872 
L 194.969574 265.468287 
L 196.903674 266.188402 
L 197.548374 266.52224 
L 197.870724 266.598515 
L 198.515424 266.854125 
L 199.160124 267.074347 
L 199.804824 267.312041 
L 200.771874 267.469786 
L 202.705974 267.77554 
L 204.962424 267.960574 
L 206.251824 267.876085 
L 207.863574 267.515986 
L 209.475324 266.949474 
L 212.054124 265.787861 
L 215.599974 264.284182 
L 217.856425 263.611484 
L 223.336375 262.496528 
L 226.237525 261.902269 
L 233.329225 260.163308 
L 236.552725 259.731159 
L 241.065625 259.195236 
L 242.677375 259.005977 
L 242.677375 259.005977 
" style="fill:none;stroke:#1f77b4;stroke-linecap:round;stroke-width:1.5;"/>
   </g>
   <g id="line2d_43">
    <path clip-path="url(#p9decf0c0c1)" d="M 56.03672 365.169326 
L 60.22727 365.071046 
L 66.351921 364.945134 
L 69.897771 365.019957 
L 74.088321 365.374439 
L 76.667121 365.698781 
L 81.502371 366.016816 
L 83.436471 366.318889 
L 85.692921 366.980956 
L 88.271721 368.029348 
L 90.850521 369.311168 
L 92.139921 370.050843 
L 94.074021 370.97263 
L 96.330471 371.875216 
L 99.876321 373.078261 
L 101.488071 373.412992 
L 104.711572 373.742348 
L 113.737372 373.239683 
L 115.671472 372.700182 
L 116.960872 372.081337 
L 119.862022 370.465336 
L 121.151422 369.828181 
L 122.440822 369.161691 
L 129.210172 365.017828 
L 130.177222 364.557152 
L 131.788972 363.705997 
L 133.078372 363.295182 
L 135.012472 362.97501 
L 137.913622 362.573315 
L 139.203022 362.198728 
L 140.170072 361.81228 
L 142.426523 362.283325 
L 143.071223 362.500199 
L 144.360623 362.664922 
L 148.228823 363.995909 
L 150.162923 364.596536 
L 151.129973 364.959106 
L 153.064073 365.949543 
L 154.031123 366.562698 
L 154.675823 367.063868 
L 159.511073 370.893906 
L 162.412223 372.849182 
L 164.023973 373.623592 
L 165.958073 374.199969 
L 167.569823 374.482968 
L 168.859223 374.592152 
L 173.049773 374.516904 
L 176.917973 374.236653 
L 180.463824 373.592377 
L 186.910824 371.851469 
L 189.811974 371.29012 
L 194.324874 371.169454 
L 194.647224 371.239049 
L 195.291924 371.153106 
L 196.581324 371.315353 
L 197.226024 371.402332 
L 202.061274 371.832325 
L 203.673024 371.627528 
L 205.284774 371.217488 
L 210.442374 369.581853 
L 218.501125 366.885323 
L 221.079925 366.26372 
L 222.691675 366.10051 
L 225.270475 366.147172 
L 230.105725 366.18033 
L 235.263325 366.153301 
L 238.486825 366.37967 
L 242.677375 366.885647 
L 242.677375 366.885647 
" style="fill:none;stroke:#ff7f0e;stroke-linecap:round;stroke-width:1.5;"/>
   </g>
   <g id="line2d_44">
    <path clip-path="url(#p9decf0c0c1)" d="M 56.03672 281.743779 
L 66.674271 281.625119 
L 77.634171 281.706367 
L 79.568271 281.40375 
L 80.857671 281.153839 
L 87.949371 279.704622 
L 90.850521 279.119316 
L 91.817571 278.964544 
L 93.106971 278.888234 
L 94.074021 278.914973 
L 95.363421 278.900638 
L 96.652821 278.945457 
L 98.909271 279.245208 
L 99.553971 279.365049 
L 100.198671 279.389027 
L 100.843371 279.493246 
L 104.066872 279.400764 
L 105.678622 279.191682 
L 112.447972 277.006131 
L 113.737372 276.99753 
L 117.283222 277.288422 
L 120.829072 276.858053 
L 128.243122 277.015996 
L 128.887822 277.151402 
L 129.210172 276.940003 
L 130.821922 276.69991 
L 132.433672 276.19424 
L 134.367772 275.879157 
L 139.203022 275.2824 
L 145.972373 273.646399 
L 154.675823 272.575993 
L 156.287573 272.56786 
L 159.511073 272.831415 
L 160.478123 273.130312 
L 163.056923 273.71034 
L 171.438023 274.858858 
L 176.273273 275.362823 
L 181.108524 275.264981 
L 184.332024 275.587095 
L 189.489624 275.734612 
L 193.357824 276.45592 
L 194.647224 276.758374 
L 196.903674 277.407433 
L 201.738924 278.68416 
L 204.317724 279.269794 
L 208.508274 279.644415 
L 210.120024 279.603445 
L 212.054124 279.54669 
L 214.632924 279.621958 
L 216.567024 279.82856 
L 220.112875 280.342787 
L 229.783375 280.668914 
L 235.585675 280.773075 
L 242.677375 280.986931 
L 242.677375 280.986931 
" style="fill:none;stroke:#2ca02c;stroke-linecap:round;stroke-width:1.5;"/>
   </g>
   <g id="patch_12">
    <path d="M 46.704688 383.346875 
L 46.704688 217.296875 
" style="fill:none;stroke:#262626;stroke-linecap:square;stroke-linejoin:miter;stroke-width:1.25;"/>
   </g>
   <g id="patch_13">
    <path d="M 46.704688 383.346875 
L 252.009408 383.346875 
" style="fill:none;stroke:#262626;stroke-linecap:square;stroke-linejoin:miter;stroke-width:1.25;"/>
   </g>
   <g id="text_19">
    <!-- channel = STERl -->
    <g style="fill:#262626;" transform="translate(111.699235 211.296875)scale(0.1 -0.1)">
     <use xlink:href="#LiberationSans-99"/>
     <use x="50" xlink:href="#LiberationSans-104"/>
     <use x="105.615234" xlink:href="#LiberationSans-97"/>
     <use x="161.230469" xlink:href="#LiberationSans-110"/>
     <use x="216.845703" xlink:href="#LiberationSans-110"/>
     <use x="272.460938" xlink:href="#LiberationSans-101"/>
     <use x="328.076172" xlink:href="#LiberationSans-108"/>
     <use x="350.292969" xlink:href="#LiberationSans-32"/>
     <use x="378.076172" xlink:href="#LiberationSans-61"/>
     <use x="436.474609" xlink:href="#LiberationSans-32"/>
     <use x="464.257812" xlink:href="#LiberationSans-83"/>
     <use x="530.957031" xlink:href="#LiberationSans-84"/>
     <use x="592.041016" xlink:href="#LiberationSans-69"/>
     <use x="658.740234" xlink:href="#LiberationSans-82"/>
     <use x="730.957031" xlink:href="#LiberationSans-108"/>
    </g>
   </g>
  </g>
  <g id="axes_5">
   <g id="patch_14">
    <path d="M 269.397761 383.346875 
L 474.702482 383.346875 
L 474.702482 217.296875 
L 269.397761 217.296875 
z
" style="fill:#ffffff;"/>
   </g>
   <g id="matplotlib.axis_9">
    <g id="xtick_17">
     <g id="line2d_45">
      <g>
       <use style="fill:#262626;stroke:#262626;stroke-width:0.8;" x="278.729794" xlink:href="#m0fcc737a15" y="383.346875"/>
      </g>
     </g>
     <g id="text_20">
      <!-- 0 -->
      <g style="fill:#262626;" transform="translate(275.949325 400.09375)scale(0.1 -0.1)">
       <use xlink:href="#LiberationSans-48"/>
      </g>
     </g>
    </g>
    <g id="xtick_18">
     <g id="line2d_46">
      <g>
       <use style="fill:#262626;stroke:#262626;stroke-width:0.8;" x="343.199796" xlink:href="#m0fcc737a15" y="383.346875"/>
      </g>
     </g>
     <g id="text_21">
      <!-- 2 -->
      <g style="fill:#262626;" transform="translate(340.419327 400.09375)scale(0.1 -0.1)">
       <use xlink:href="#LiberationSans-50"/>
      </g>
     </g>
    </g>
    <g id="xtick_19">
     <g id="line2d_47">
      <g>
       <use style="fill:#262626;stroke:#262626;stroke-width:0.8;" x="407.669797" xlink:href="#m0fcc737a15" y="383.346875"/>
      </g>
     </g>
     <g id="text_22">
      <!-- 4 -->
      <g style="fill:#262626;" transform="translate(404.889329 400.09375)scale(0.1 -0.1)">
       <use xlink:href="#LiberationSans-52"/>
      </g>
     </g>
    </g>
    <g id="xtick_20">
     <g id="line2d_48">
      <g>
       <use style="fill:#262626;stroke:#262626;stroke-width:0.8;" x="472.139799" xlink:href="#m0fcc737a15" y="383.346875"/>
      </g>
     </g>
     <g id="text_23">
      <!-- 6 -->
      <g style="fill:#262626;" transform="translate(469.35933 400.09375)scale(0.1 -0.1)">
       <use xlink:href="#LiberationSans-54"/>
      </g>
     </g>
    </g>
    <g id="text_24">
     <!-- time [seconds] -->
     <g style="fill:#262626;" transform="translate(339.815747 413.415625)scale(0.1 -0.1)">
      <use xlink:href="#LiberationSans-116"/>
      <use x="27.783203" xlink:href="#LiberationSans-105"/>
      <use x="50" xlink:href="#LiberationSans-109"/>
      <use x="133.300781" xlink:href="#LiberationSans-101"/>
      <use x="188.916016" xlink:href="#LiberationSans-32"/>
      <use x="216.699219" xlink:href="#LiberationSans-91"/>
      <use x="244.482422" xlink:href="#LiberationSans-115"/>
      <use x="294.482422" xlink:href="#LiberationSans-101"/>
      <use x="350.097656" xlink:href="#LiberationSans-99"/>
      <use x="400.097656" xlink:href="#LiberationSans-111"/>
      <use x="455.712891" xlink:href="#LiberationSans-110"/>
      <use x="511.328125" xlink:href="#LiberationSans-100"/>
      <use x="566.943359" xlink:href="#LiberationSans-115"/>
      <use x="616.943359" xlink:href="#LiberationSans-93"/>
     </g>
    </g>
   </g>
   <g id="matplotlib.axis_10">
    <g id="ytick_17">
     <g id="line2d_49">
      <g>
       <use style="fill:#262626;stroke:#262626;stroke-width:0.8;" x="269.397761" xlink:href="#mfece647cb0" y="361.565254"/>
      </g>
     </g>
    </g>
    <g id="ytick_18">
     <g id="line2d_50">
      <g>
       <use style="fill:#262626;stroke:#262626;stroke-width:0.8;" x="269.397761" xlink:href="#mfece647cb0" y="323.219672"/>
      </g>
     </g>
    </g>
    <g id="ytick_19">
     <g id="line2d_51">
      <g>
       <use style="fill:#262626;stroke:#262626;stroke-width:0.8;" x="269.397761" xlink:href="#mfece647cb0" y="284.874091"/>
      </g>
     </g>
    </g>
    <g id="ytick_20">
     <g id="line2d_52">
      <g>
       <use style="fill:#262626;stroke:#262626;stroke-width:0.8;" x="269.397761" xlink:href="#mfece647cb0" y="246.528509"/>
      </g>
     </g>
    </g>
   </g>
   <g id="line2d_53">
    <path clip-path="url(#p83bc9fc3e9)" d="M 278.729794 261.642704 
L 282.920344 261.776132 
L 290.979094 262.256142 
L 292.913194 262.578431 
L 296.136695 263.367401 
L 299.360195 264.160479 
L 300.971945 264.314455 
L 302.261345 264.202244 
L 304.195445 263.604896 
L 306.451895 262.832344 
L 308.063645 262.547572 
L 309.353045 262.57595 
L 310.320095 262.770615 
L 311.609495 263.302396 
L 312.898895 264.10824 
L 314.510645 265.396049 
L 318.378845 268.964688 
L 320.312945 270.332809 
L 321.602345 271.080494 
L 323.214095 271.770172 
L 324.825845 272.129895 
L 326.759945 272.255658 
L 327.726995 272.152925 
L 329.016395 271.751998 
L 331.272845 270.71946 
L 335.141046 268.817522 
L 337.075146 267.568108 
L 339.009246 266.334959 
L 342.232746 264.682113 
L 344.811546 263.6283 
L 347.067996 262.723795 
L 349.324446 261.772469 
L 351.903246 260.630293 
L 354.159696 259.48951 
L 354.804396 259.194452 
L 356.416146 258.589182 
L 357.705546 258.20479 
L 358.672596 258.107311 
L 362.540796 257.614663 
L 372.211297 257.149198 
L 374.467747 257.808204 
L 375.434797 258.379854 
L 377.046547 259.788652 
L 381.881797 264.446959 
L 386.072347 267.481032 
L 387.684097 268.337477 
L 389.295847 268.938183 
L 396.065197 270.937154 
L 397.676947 271.274925 
L 398.643997 271.259256 
L 400.255747 270.99123 
L 401.222797 270.69595 
L 405.413347 269.069481 
L 412.182698 267.504705 
L 413.472098 267.469997 
L 417.662648 268.187736 
L 419.596748 268.89155 
L 422.497898 270.001042 
L 424.431998 270.384111 
L 427.333148 270.650791 
L 429.589598 270.372234 
L 431.201348 269.903001 
L 433.780148 268.854021 
L 437.325998 267.343181 
L 439.904798 266.51681 
L 443.128298 265.834213 
L 451.831749 263.94386 
L 456.022299 262.94706 
L 458.601099 262.564014 
L 465.370449 261.805703 
L 465.370449 261.805703 
" style="fill:none;stroke:#1f77b4;stroke-linecap:round;stroke-width:1.5;"/>
   </g>
   <g id="line2d_54">
    <path clip-path="url(#p83bc9fc3e9)" d="M 278.729794 362.832894 
L 282.920344 362.738183 
L 289.689694 362.591801 
L 294.524944 362.723962 
L 298.070795 363.018534 
L 301.938995 363.341636 
L 304.840145 363.608966 
L 306.774245 364.054887 
L 308.708345 364.73377 
L 311.287145 365.909411 
L 313.543595 367.091333 
L 316.767095 368.813072 
L 319.668245 369.978208 
L 323.214095 371.052067 
L 325.470545 371.403704 
L 328.371695 371.673044 
L 332.239895 371.817545 
L 333.851646 371.816822 
L 336.108096 371.57479 
L 337.397496 371.183584 
L 339.009246 370.459622 
L 342.555096 368.326547 
L 343.844496 367.611028 
L 345.133896 366.900266 
L 350.936196 363.214884 
L 354.159696 361.433025 
L 354.482046 361.193564 
L 355.126746 360.99052 
L 357.060846 360.238453 
L 358.027896 360.053492 
L 360.929046 359.73115 
L 361.896096 359.819955 
L 363.830196 360.066347 
L 367.376046 361.141727 
L 373.500697 363.686381 
L 375.434797 364.764535 
L 377.691247 366.334155 
L 381.559447 369.350976 
L 384.460597 371.191995 
L 386.394697 372.084444 
L 387.684097 372.485863 
L 389.940547 372.977411 
L 391.874647 373.11189 
L 397.999297 372.856069 
L 399.933397 372.602097 
L 403.479247 372.007409 
L 407.347447 370.788125 
L 409.281548 370.157028 
L 412.827398 369.264658 
L 416.373248 368.915013 
L 417.662648 368.914144 
L 418.952048 368.901491 
L 423.464948 369.33148 
L 425.076698 369.331012 
L 427.655498 368.864895 
L 433.135448 367.127496 
L 441.838898 364.378519 
L 444.095348 363.882611 
L 445.707098 363.756339 
L 448.608249 363.828983 
L 453.765849 363.843912 
L 457.956399 363.842137 
L 461.179899 364.046596 
L 465.370449 364.556611 
L 465.370449 364.556611 
" style="fill:none;stroke:#ff7f0e;stroke-linecap:round;stroke-width:1.5;"/>
   </g>
   <g id="line2d_55">
    <path clip-path="url(#p83bc9fc3e9)" d="M 278.729794 285.155855 
L 289.367344 285.040928 
L 300.649595 285.099708 
L 302.906045 284.70125 
L 310.320095 283.114041 
L 313.865945 282.647196 
L 315.477695 282.558974 
L 316.767095 282.591049 
L 319.023545 282.698604 
L 321.279995 283.0316 
L 323.536445 283.31272 
L 326.437595 283.451426 
L 328.049345 283.307747 
L 329.983445 282.81559 
L 332.884595 281.771607 
L 334.496346 281.272066 
L 335.785746 281.136941 
L 338.364546 281.365343 
L 339.653946 281.365706 
L 341.588046 280.994175 
L 342.555096 280.81787 
L 344.166846 280.722919 
L 352.870296 280.372393 
L 354.482046 280.092291 
L 357.383196 279.365307 
L 358.994946 278.907285 
L 359.639646 278.83589 
L 360.606696 278.61692 
L 361.896096 278.342867 
L 363.507846 277.966199 
L 368.665446 276.779976 
L 374.467747 276.023011 
L 376.724197 275.90599 
L 379.302997 275.970328 
L 380.592397 276.13802 
L 382.526497 276.466382 
L 387.684097 277.499997 
L 395.742847 278.681188 
L 397.354597 278.909087 
L 399.288697 278.909859 
L 401.222797 278.778877 
L 402.834547 278.692949 
L 404.768647 278.918437 
L 406.702747 279.138894 
L 411.860348 279.383398 
L 413.794448 279.643046 
L 416.695598 280.298424 
L 427.333148 282.714671 
L 431.846048 283.049177 
L 438.615398 283.108389 
L 443.450648 283.688195 
L 446.996499 283.80613 
L 451.831749 283.969035 
L 465.370449 284.305191 
L 465.370449 284.305191 
" style="fill:none;stroke:#2ca02c;stroke-linecap:round;stroke-width:1.5;"/>
   </g>
   <g id="patch_15">
    <path d="M 269.397761 383.346875 
L 269.397761 217.296875 
" style="fill:none;stroke:#262626;stroke-linecap:square;stroke-linejoin:miter;stroke-width:1.25;"/>
   </g>
   <g id="patch_16">
    <path d="M 269.397761 383.346875 
L 474.702482 383.346875 
" style="fill:none;stroke:#262626;stroke-linecap:square;stroke-linejoin:miter;stroke-width:1.25;"/>
   </g>
   <g id="text_25">
    <!-- channel = STER -->
    <g style="fill:#262626;" transform="translate(335.503247 211.296875)scale(0.1 -0.1)">
     <use xlink:href="#LiberationSans-99"/>
     <use x="50" xlink:href="#LiberationSans-104"/>
     <use x="105.615234" xlink:href="#LiberationSans-97"/>
     <use x="161.230469" xlink:href="#LiberationSans-110"/>
     <use x="216.845703" xlink:href="#LiberationSans-110"/>
     <use x="272.460938" xlink:href="#LiberationSans-101"/>
     <use x="328.076172" xlink:href="#LiberationSans-108"/>
     <use x="350.292969" xlink:href="#LiberationSans-32"/>
     <use x="378.076172" xlink:href="#LiberationSans-61"/>
     <use x="436.474609" xlink:href="#LiberationSans-32"/>
     <use x="464.257812" xlink:href="#LiberationSans-83"/>
     <use x="530.957031" xlink:href="#LiberationSans-84"/>
     <use x="592.041016" xlink:href="#LiberationSans-69"/>
     <use x="658.740234" xlink:href="#LiberationSans-82"/>
    </g>
   </g>
  </g>
  <g id="axes_6">
   <g id="patch_17">
    <path d="M 492.090835 383.346875 
L 697.395556 383.346875 
L 697.395556 217.296875 
L 492.090835 217.296875 
z
" style="fill:#ffffff;"/>
   </g>
   <g id="matplotlib.axis_11">
    <g id="xtick_21">
     <g id="line2d_56">
      <g>
       <use style="fill:#262626;stroke:#262626;stroke-width:0.8;" x="501.422868" xlink:href="#m0fcc737a15" y="383.346875"/>
      </g>
     </g>
     <g id="text_26">
      <!-- 0 -->
      <g style="fill:#262626;" transform="translate(498.642399 400.09375)scale(0.1 -0.1)">
       <use xlink:href="#LiberationSans-48"/>
      </g>
     </g>
    </g>
    <g id="xtick_22">
     <g id="line2d_57">
      <g>
       <use style="fill:#262626;stroke:#262626;stroke-width:0.8;" x="565.89287" xlink:href="#m0fcc737a15" y="383.346875"/>
      </g>
     </g>
     <g id="text_27">
      <!-- 2 -->
      <g style="fill:#262626;" transform="translate(563.112401 400.09375)scale(0.1 -0.1)">
       <use xlink:href="#LiberationSans-50"/>
      </g>
     </g>
    </g>
    <g id="xtick_23">
     <g id="line2d_58">
      <g>
       <use style="fill:#262626;stroke:#262626;stroke-width:0.8;" x="630.362871" xlink:href="#m0fcc737a15" y="383.346875"/>
      </g>
     </g>
     <g id="text_28">
      <!-- 4 -->
      <g style="fill:#262626;" transform="translate(627.582403 400.09375)scale(0.1 -0.1)">
       <use xlink:href="#LiberationSans-52"/>
      </g>
     </g>
    </g>
    <g id="xtick_24">
     <g id="line2d_59">
      <g>
       <use style="fill:#262626;stroke:#262626;stroke-width:0.8;" x="694.832873" xlink:href="#m0fcc737a15" y="383.346875"/>
      </g>
     </g>
     <g id="text_29">
      <!-- 6 -->
      <g style="fill:#262626;" transform="translate(692.052404 400.09375)scale(0.1 -0.1)">
       <use xlink:href="#LiberationSans-54"/>
      </g>
     </g>
    </g>
    <g id="text_30">
     <!-- time [seconds] -->
     <g style="fill:#262626;" transform="translate(562.50882 413.415625)scale(0.1 -0.1)">
      <use xlink:href="#LiberationSans-116"/>
      <use x="27.783203" xlink:href="#LiberationSans-105"/>
      <use x="50" xlink:href="#LiberationSans-109"/>
      <use x="133.300781" xlink:href="#LiberationSans-101"/>
      <use x="188.916016" xlink:href="#LiberationSans-32"/>
      <use x="216.699219" xlink:href="#LiberationSans-91"/>
      <use x="244.482422" xlink:href="#LiberationSans-115"/>
      <use x="294.482422" xlink:href="#LiberationSans-101"/>
      <use x="350.097656" xlink:href="#LiberationSans-99"/>
      <use x="400.097656" xlink:href="#LiberationSans-111"/>
      <use x="455.712891" xlink:href="#LiberationSans-110"/>
      <use x="511.328125" xlink:href="#LiberationSans-100"/>
      <use x="566.943359" xlink:href="#LiberationSans-115"/>
      <use x="616.943359" xlink:href="#LiberationSans-93"/>
     </g>
    </g>
   </g>
   <g id="matplotlib.axis_12">
    <g id="ytick_21">
     <g id="line2d_60">
      <g>
       <use style="fill:#262626;stroke:#262626;stroke-width:0.8;" x="492.090835" xlink:href="#mfece647cb0" y="361.565254"/>
      </g>
     </g>
    </g>
    <g id="ytick_22">
     <g id="line2d_61">
      <g>
       <use style="fill:#262626;stroke:#262626;stroke-width:0.8;" x="492.090835" xlink:href="#mfece647cb0" y="323.219672"/>
      </g>
     </g>
    </g>
    <g id="ytick_23">
     <g id="line2d_62">
      <g>
       <use style="fill:#262626;stroke:#262626;stroke-width:0.8;" x="492.090835" xlink:href="#mfece647cb0" y="284.874091"/>
      </g>
     </g>
    </g>
    <g id="ytick_24">
     <g id="line2d_63">
      <g>
       <use style="fill:#262626;stroke:#262626;stroke-width:0.8;" x="492.090835" xlink:href="#mfece647cb0" y="246.528509"/>
      </g>
     </g>
    </g>
   </g>
   <g id="line2d_64">
    <path clip-path="url(#p275a4fbd4b)" d="M 501.422868 266.351787 
L 506.580468 266.44517 
L 516.250968 266.99276 
L 522.375618 267.985476 
L 525.921469 268.01589 
L 531.079069 267.97148 
L 532.690819 268.193845 
L 534.302569 268.60837 
L 536.559019 269.467237 
L 539.782519 270.699098 
L 544.617769 271.853748 
L 545.907169 271.983373 
L 547.196569 271.900463 
L 549.453019 271.510185 
L 551.064769 270.979551 
L 552.998869 270.018606 
L 554.932969 269.104037 
L 556.222369 268.699939 
L 557.189419 268.407549 
L 558.478819 267.940283 
L 561.379969 266.941247 
L 562.991719 266.68435 
L 564.60347 266.698346 
L 566.21522 266.86351 
L 569.11637 267.487796 
L 570.08342 267.656108 
L 572.66222 267.77176 
L 575.88572 267.830657 
L 576.53042 267.796826 
L 580.07627 268.163197 
L 586.20092 269.279136 
L 591.68087 269.343112 
L 596.51612 269.145884 
L 598.12787 269.391348 
L 599.41727 269.828739 
L 605.541921 272.76655 
L 609.087771 274.160697 
L 611.344221 274.738373 
L 617.791221 275.970234 
L 621.981771 276.258154 
L 623.271171 276.055274 
L 625.527621 275.465626 
L 627.461721 274.920833 
L 632.619321 273.734119 
L 634.231071 273.297863 
L 636.165171 273.040158 
L 639.388672 272.940362 
L 641.000422 273.045693 
L 641.967472 273.196054 
L 643.579222 273.690622 
L 645.190972 274.203164 
L 646.802722 274.469809 
L 649.059172 274.42987 
L 651.960322 274.052382 
L 656.150872 273.103713 
L 657.762622 272.719262 
L 660.663772 272.138929 
L 664.209622 271.847616 
L 669.044872 271.59863 
L 671.623672 271.081968 
L 680.327123 269.09842 
L 688.063523 268.130758 
L 688.063523 268.130758 
" style="fill:none;stroke:#1f77b4;stroke-linecap:round;stroke-width:1.5;"/>
   </g>
   <g id="line2d_65">
    <path clip-path="url(#p275a4fbd4b)" d="M 501.422868 364.995143 
L 507.547518 364.880304 
L 517.540368 364.664566 
L 521.086218 364.688079 
L 522.697968 364.7633 
L 527.533219 365.145644 
L 529.144969 365.626479 
L 531.401419 366.560945 
L 538.815469 369.687176 
L 540.749569 370.048427 
L 542.361319 370.406258 
L 544.617769 370.829542 
L 547.518919 371.133227 
L 554.288269 371.536164 
L 557.511769 371.957856 
L 558.801169 371.685518 
L 559.768219 371.357086 
L 564.92582 369.283873 
L 566.85992 368.314763 
L 570.72812 366.56452 
L 573.95162 365.055625 
L 576.53042 364.227553 
L 579.75392 363.274474 
L 581.36567 363.119462 
L 582.97742 363.17646 
L 583.94447 363.219863 
L 586.52327 363.471515 
L 587.81267 363.839679 
L 589.10207 364.434391 
L 592.64792 366.707924 
L 594.90437 368.069568 
L 599.73962 370.662181 
L 603.285471 372.559891 
L 606.831321 373.99826 
L 611.344221 375.420045 
L 613.278321 375.799148 
L 617.791221 375.444241 
L 621.981771 374.893825 
L 626.494671 374.532088 
L 628.106421 373.99123 
L 635.198121 371.857098 
L 637.132221 371.481152 
L 639.066322 371.171806 
L 646.480372 370.832757 
L 649.703872 370.70865 
L 650.993272 370.424937 
L 655.506172 369.165576 
L 666.788422 366.516457 
L 668.400172 366.434951 
L 678.070673 366.584001 
L 687.418823 367.161561 
L 688.063523 367.225764 
L 688.063523 367.225764 
" style="fill:none;stroke:#ff7f0e;stroke-linecap:round;stroke-width:1.5;"/>
   </g>
   <g id="line2d_66">
    <path clip-path="url(#p275a4fbd4b)" d="M 501.422868 317.22821 
L 512.705118 317.121791 
L 522.697968 317.352083 
L 524.632068 317.143884 
L 527.210869 316.588934 
L 531.079069 315.696616 
L 535.591969 315.329766 
L 537.848419 315.395818 
L 540.104869 315.738229 
L 545.262469 316.641593 
L 547.518919 316.811602 
L 550.420069 316.863823 
L 552.031819 316.635935 
L 558.478819 315.264713 
L 559.768219 315.327612 
L 562.347019 315.578208 
L 563.31407 315.346447 
L 564.92582 314.926358 
L 566.53757 314.715742 
L 568.14932 314.541737 
L 573.30692 313.76069 
L 575.56337 313.367223 
L 580.07627 312.101636 
L 589.42442 309.500782 
L 592.97027 308.719676 
L 594.90437 308.490156 
L 597.16082 308.507387 
L 599.09492 308.778994 
L 601.996071 309.475049 
L 609.087771 311.384769 
L 613.600671 312.060515 
L 618.435921 312.695508 
L 620.047671 312.931727 
L 621.981771 312.799306 
L 624.560571 312.392926 
L 625.849971 312.212654 
L 627.461721 312.401597 
L 629.073471 312.563321 
L 633.586371 312.51763 
L 635.842821 312.737115 
L 637.132221 313.029399 
L 640.355722 313.851317 
L 644.223922 314.835725 
L 646.802722 315.359378 
L 649.059172 315.922573 
L 651.315622 316.115471 
L 654.861472 316.186503 
L 662.275522 315.806283 
L 664.209622 316.030285 
L 665.499022 316.041285 
L 668.400172 315.964736 
L 674.847172 316.177551 
L 686.451773 316.397732 
L 688.063523 316.459104 
L 688.063523 316.459104 
" style="fill:none;stroke:#2ca02c;stroke-linecap:round;stroke-width:1.5;"/>
   </g>
   <g id="patch_18">
    <path d="M 492.090835 383.346875 
L 492.090835 217.296875 
" style="fill:none;stroke:#262626;stroke-linecap:square;stroke-linejoin:miter;stroke-width:1.25;"/>
   </g>
   <g id="patch_19">
    <path d="M 492.090835 383.346875 
L 697.395556 383.346875 
" style="fill:none;stroke:#262626;stroke-linecap:square;stroke-linejoin:miter;stroke-width:1.25;"/>
   </g>
   <g id="text_31">
    <!-- channel = XIPH -->
    <defs>
     <path d="M 54.296875 0 
L 33.640625 30.078125 
L 12.546875 0 
L 2.25 0 
L 28.421875 35.75 
L 4.25 68.796875 
L 14.546875 68.796875 
L 33.6875 41.796875 
L 52.296875 68.796875 
L 62.59375 68.796875 
L 39.0625 36.078125 
L 64.59375 0 
z
" id="LiberationSans-88"/>
     <path d="M 54.734375 0 
L 54.734375 31.890625 
L 17.53125 31.890625 
L 17.53125 0 
L 8.203125 0 
L 8.203125 68.796875 
L 17.53125 68.796875 
L 17.53125 39.703125 
L 54.734375 39.703125 
L 54.734375 68.796875 
L 64.0625 68.796875 
L 64.0625 0 
z
" id="LiberationSans-72"/>
    </defs>
    <g style="fill:#262626;" transform="translate(559.861164 211.296875)scale(0.1 -0.1)">
     <use xlink:href="#LiberationSans-99"/>
     <use x="50" xlink:href="#LiberationSans-104"/>
     <use x="105.615234" xlink:href="#LiberationSans-97"/>
     <use x="161.230469" xlink:href="#LiberationSans-110"/>
     <use x="216.845703" xlink:href="#LiberationSans-110"/>
     <use x="272.460938" xlink:href="#LiberationSans-101"/>
     <use x="328.076172" xlink:href="#LiberationSans-108"/>
     <use x="350.292969" xlink:href="#LiberationSans-32"/>
     <use x="378.076172" xlink:href="#LiberationSans-61"/>
     <use x="436.474609" xlink:href="#LiberationSans-32"/>
     <use x="464.257812" xlink:href="#LiberationSans-88"/>
     <use x="530.957031" xlink:href="#LiberationSans-73"/>
     <use x="558.740234" xlink:href="#LiberationSans-80"/>
     <use x="625.439453" xlink:href="#LiberationSans-72"/>
    </g>
   </g>
  </g>
  <g id="legend_1">
   <g id="text_32">
    <!-- axis -->
    <defs>
     <path d="M 39.109375 0 
L 24.90625 21.6875 
L 10.59375 0 
L 1.125 0 
L 19.921875 27.15625 
L 2 52.828125 
L 11.71875 52.828125 
L 24.90625 32.28125 
L 37.984375 52.828125 
L 47.796875 52.828125 
L 29.890625 27.25 
L 48.921875 0 
z
" id="LiberationSans-120"/>
    </defs>
    <g style="fill:#262626;" transform="translate(721.424149 192.448437)scale(0.1 -0.1)">
     <use xlink:href="#LiberationSans-97"/>
     <use x="55.615234" xlink:href="#LiberationSans-120"/>
     <use x="105.615234" xlink:href="#LiberationSans-105"/>
     <use x="127.832031" xlink:href="#LiberationSans-115"/>
    </g>
   </g>
   <g id="line2d_67">
    <path d="M 713.815556 203.270312 
L 733.815556 203.270312 
" style="fill:none;stroke:#1f77b4;stroke-linecap:round;stroke-width:1.5;"/>
   </g>
   <g id="line2d_68"/>
   <g id="text_33">
    <!-- x -->
    <g style="fill:#262626;" transform="translate(741.815556 206.770312)scale(0.1 -0.1)">
     <use xlink:href="#LiberationSans-120"/>
    </g>
   </g>
   <g id="line2d_69">
    <path d="M 713.815556 217.592187 
L 733.815556 217.592187 
" style="fill:none;stroke:#ff7f0e;stroke-linecap:round;stroke-width:1.5;"/>
   </g>
   <g id="line2d_70"/>
   <g id="text_34">
    <!-- y -->
    <defs>
     <path d="M 29.5 0 
Q 27.640625 -4.78125 25.703125 -8.609375 
Q 23.78125 -12.453125 21.390625 -15.15625 
Q 19 -17.875 16.0625 -19.3125 
Q 13.140625 -20.75 9.328125 -20.75 
Q 7.671875 -20.75 6.25 -20.65625 
Q 4.828125 -20.5625 3.265625 -20.21875 
L 3.265625 -13.625 
Q 4.203125 -13.765625 5.375 -13.84375 
Q 6.546875 -13.921875 7.375 -13.921875 
Q 11.234375 -13.921875 14.546875 -11.03125 
Q 17.875 -8.15625 20.359375 -1.859375 
L 21.1875 0.25 
L 0.25 52.828125 
L 9.625 52.828125 
L 20.75 23.640625 
Q 21.234375 22.3125 21.984375 20.109375 
Q 22.75 17.921875 23.5 15.71875 
Q 24.265625 13.53125 24.84375 11.765625 
Q 25.4375 10.015625 25.53125 9.578125 
Q 25.6875 10.109375 26.25 11.6875 
Q 26.8125 13.28125 27.515625 15.234375 
Q 28.21875 17.1875 28.953125 19.1875 
Q 29.6875 21.1875 30.171875 22.65625 
L 40.53125 52.828125 
L 49.8125 52.828125 
z
" id="LiberationSans-121"/>
    </defs>
    <g style="fill:#262626;" transform="translate(741.815556 221.092187)scale(0.1 -0.1)">
     <use xlink:href="#LiberationSans-121"/>
    </g>
   </g>
   <g id="line2d_71">
    <path d="M 713.815556 231.914062 
L 733.815556 231.914062 
" style="fill:none;stroke:#2ca02c;stroke-linecap:round;stroke-width:1.5;"/>
   </g>
   <g id="line2d_72"/>
   <g id="text_35">
    <!-- z -->
    <defs>
     <path d="M 2.390625 0 
L 2.390625 6.6875 
L 34.671875 46.046875 
L 4.34375 46.046875 
L 4.34375 52.828125 
L 44.578125 52.828125 
L 44.578125 46.140625 
L 12.25 6.78125 
L 46.390625 6.78125 
L 46.390625 0 
z
" id="LiberationSans-122"/>
    </defs>
    <g style="fill:#262626;" transform="translate(741.815556 235.414062)scale(0.1 -0.1)">
     <use xlink:href="#LiberationSans-122"/>
    </g>
   </g>
  </g>
 </g>
 <defs>
  <clipPath id="p38f32533b2">
   <rect height="166.05" width="205.30472" x="46.704688" y="20.446875"/>
  </clipPath>
  <clipPath id="p206b554906">
   <rect height="166.05" width="205.30472" x="269.397761" y="20.446875"/>
  </clipPath>
  <clipPath id="p851ccb80aa">
   <rect height="166.05" width="205.30472" x="492.090835" y="20.446875"/>
  </clipPath>
  <clipPath id="p9decf0c0c1">
   <rect height="166.05" width="205.30472" x="46.704688" y="217.296875"/>
  </clipPath>
  <clipPath id="p83bc9fc3e9">
   <rect height="166.05" width="205.30472" x="269.397761" y="217.296875"/>
  </clipPath>
  <clipPath id="p275a4fbd4b">
   <rect height="166.05" width="205.30472" x="492.090835" y="217.296875"/>
  </clipPath>
 </defs>
</svg>
