<?xml version="1.0" encoding="utf-8" standalone="no"?>
<!DOCTYPE svg PUBLIC "-//W3C//DTD SVG 1.1//EN"
  "http://www.w3.org/Graphics/SVG/1.1/DTD/svg11.dtd">
<!-- Created with matplotlib (https://matplotlib.org/) -->
<svg height="312.65575pt" version="1.1" viewBox="0 0 414.0825 312.65575" width="414.0825pt" xmlns="http://www.w3.org/2000/svg" xmlns:xlink="http://www.w3.org/1999/xlink">
 <defs>
  <style type="text/css">
*{stroke-linecap:butt;stroke-linejoin:round;}
  </style>
 </defs>
 <g id="figure_1">
  <g id="patch_1">
   <path d="M 0 312.65575 
L 414.0825 312.65575 
L 414.0825 0 
L 0 0 
z
" style="fill:#ffffff;"/>
  </g>
  <g id="axes_1">
   <g id="patch_2">
    <path d="M 49.7625 273.312 
L 406.8825 273.312 
L 406.8825 7.2 
L 49.7625 7.2 
z
" style="fill:#ffffff;"/>
   </g>
   <g id="matplotlib.axis_1">
    <g id="xtick_1">
     <g id="line2d_1">
      <defs>
       <path d="M 0 0 
L 0 6 
" id="m33ed84be60" style="stroke:#262626;stroke-width:0.8;"/>
      </defs>
      <g>
       <use style="fill:#262626;stroke:#262626;stroke-width:0.8;" x="65.995227" xlink:href="#m33ed84be60" y="273.312"/>
      </g>
     </g>
     <g id="text_1">
      <!-- 0 -->
      <defs>
       <path d="M 51.703125 34.421875 
Q 51.703125 24.515625 49.828125 17.75 
Q 47.953125 10.984375 44.703125 6.8125 
Q 41.453125 2.640625 37.0625 0.828125 
Q 32.671875 -0.984375 27.6875 -0.984375 
Q 22.65625 -0.984375 18.3125 0.828125 
Q 13.96875 2.640625 10.765625 6.78125 
Q 7.5625 10.9375 5.734375 17.703125 
Q 3.90625 24.46875 3.90625 34.421875 
Q 3.90625 44.828125 5.734375 51.640625 
Q 7.5625 58.453125 10.78125 62.5 
Q 14.015625 66.546875 18.40625 68.1875 
Q 22.796875 69.828125 27.984375 69.828125 
Q 32.90625 69.828125 37.21875 68.1875 
Q 41.546875 66.546875 44.765625 62.5 
Q 48 58.453125 49.84375 51.640625 
Q 51.703125 44.828125 51.703125 34.421875 
z
M 42.78125 34.421875 
Q 42.78125 42.625 41.796875 48.0625 
Q 40.828125 53.515625 38.921875 56.765625 
Q 37.015625 60.015625 34.25 61.359375 
Q 31.5 62.703125 27.984375 62.703125 
Q 24.265625 62.703125 21.4375 61.328125 
Q 18.609375 59.96875 16.671875 56.71875 
Q 14.75 53.46875 13.765625 48.015625 
Q 12.796875 42.578125 12.796875 34.421875 
Q 12.796875 26.515625 13.796875 21.09375 
Q 14.796875 15.671875 16.71875 12.375 
Q 18.65625 9.078125 21.4375 7.640625 
Q 24.21875 6.203125 27.78125 6.203125 
Q 31.25 6.203125 34.03125 7.640625 
Q 36.8125 9.078125 38.734375 12.375 
Q 40.671875 15.671875 41.71875 21.09375 
Q 42.78125 26.515625 42.78125 34.421875 
z
" id="LiberationSans-48"/>
      </defs>
      <g style="fill:#262626;" transform="translate(63.214759 290.058875)scale(0.1 -0.1)">
       <use xlink:href="#LiberationSans-48"/>
      </g>
     </g>
    </g>
    <g id="xtick_2">
     <g id="line2d_2">
      <g>
       <use style="fill:#262626;stroke:#262626;stroke-width:0.8;" x="130.991132" xlink:href="#m33ed84be60" y="273.312"/>
      </g>
     </g>
     <g id="text_2">
      <!-- 200 -->
      <defs>
       <path d="M 5.03125 0 
L 5.03125 6.203125 
Q 7.515625 11.921875 11.109375 16.28125 
Q 14.703125 20.65625 18.65625 24.1875 
Q 22.609375 27.734375 26.484375 30.765625 
Q 30.375 33.796875 33.5 36.8125 
Q 36.625 39.84375 38.546875 43.15625 
Q 40.484375 46.484375 40.484375 50.6875 
Q 40.484375 53.609375 39.59375 55.828125 
Q 38.71875 58.0625 37.0625 59.5625 
Q 35.40625 61.078125 33.078125 61.828125 
Q 30.765625 62.59375 27.9375 62.59375 
Q 25.296875 62.59375 22.96875 61.859375 
Q 20.65625 61.140625 18.84375 59.671875 
Q 17.046875 58.203125 15.890625 56.03125 
Q 14.75 53.859375 14.40625 50.984375 
L 5.421875 51.8125 
Q 5.859375 55.515625 7.46875 58.78125 
Q 9.078125 62.0625 11.90625 64.53125 
Q 14.75 67 18.71875 68.40625 
Q 22.703125 69.828125 27.9375 69.828125 
Q 33.0625 69.828125 37.0625 68.609375 
Q 41.0625 67.390625 43.8125 64.984375 
Q 46.578125 62.59375 48.046875 59.078125 
Q 49.515625 55.5625 49.515625 50.984375 
Q 49.515625 47.515625 48.265625 44.390625 
Q 47.015625 41.265625 44.9375 38.421875 
Q 42.875 35.59375 40.140625 32.953125 
Q 37.40625 30.328125 34.421875 27.8125 
Q 31.453125 25.296875 28.421875 22.828125 
Q 25.390625 20.359375 22.71875 17.859375 
Q 20.0625 15.375 17.96875 12.8125 
Q 15.875 10.25 14.703125 7.46875 
L 50.59375 7.46875 
L 50.59375 0 
z
" id="LiberationSans-50"/>
      </defs>
      <g style="fill:#262626;" transform="translate(122.649726 290.058875)scale(0.1 -0.1)">
       <use xlink:href="#LiberationSans-50"/>
       <use x="55.615234" xlink:href="#LiberationSans-48"/>
       <use x="111.230469" xlink:href="#LiberationSans-48"/>
      </g>
     </g>
    </g>
    <g id="xtick_3">
     <g id="line2d_3">
      <g>
       <use style="fill:#262626;stroke:#262626;stroke-width:0.8;" x="195.987037" xlink:href="#m33ed84be60" y="273.312"/>
      </g>
     </g>
     <g id="text_3">
      <!-- 400 -->
      <defs>
       <path d="M 43.015625 15.578125 
L 43.015625 0 
L 34.71875 0 
L 34.71875 15.578125 
L 2.296875 15.578125 
L 2.296875 22.40625 
L 33.796875 68.796875 
L 43.015625 68.796875 
L 43.015625 22.515625 
L 52.6875 22.515625 
L 52.6875 15.578125 
z
M 34.71875 58.890625 
Q 34.625 58.640625 34.234375 57.9375 
Q 33.84375 57.234375 33.34375 56.34375 
Q 32.859375 55.46875 32.34375 54.5625 
Q 31.84375 53.65625 31.453125 53.078125 
L 13.8125 27.09375 
Q 13.578125 26.703125 13.109375 26.0625 
Q 12.640625 25.4375 12.15625 24.78125 
Q 11.671875 24.125 11.171875 23.484375 
Q 10.6875 22.859375 10.40625 22.515625 
L 34.71875 22.515625 
z
" id="LiberationSans-52"/>
      </defs>
      <g style="fill:#262626;" transform="translate(187.645631 290.058875)scale(0.1 -0.1)">
       <use xlink:href="#LiberationSans-52"/>
       <use x="55.615234" xlink:href="#LiberationSans-48"/>
       <use x="111.230469" xlink:href="#LiberationSans-48"/>
      </g>
     </g>
    </g>
    <g id="xtick_4">
     <g id="line2d_4">
      <g>
       <use style="fill:#262626;stroke:#262626;stroke-width:0.8;" x="260.982942" xlink:href="#m33ed84be60" y="273.312"/>
      </g>
     </g>
     <g id="text_4">
      <!-- 600 -->
      <defs>
       <path d="M 51.21875 22.515625 
Q 51.21875 17.328125 49.78125 13 
Q 48.34375 8.6875 45.53125 5.578125 
Q 42.71875 2.484375 38.5625 0.75 
Q 34.421875 -0.984375 29 -0.984375 
Q 23 -0.984375 18.5 1.3125 
Q 14.015625 3.609375 11.03125 7.921875 
Q 8.0625 12.25 6.5625 18.53125 
Q 5.078125 24.8125 5.078125 32.8125 
Q 5.078125 42 6.765625 48.921875 
Q 8.453125 55.859375 11.625 60.5 
Q 14.796875 65.140625 19.359375 67.484375 
Q 23.921875 69.828125 29.6875 69.828125 
Q 33.203125 69.828125 36.28125 69.09375 
Q 39.359375 68.359375 41.875 66.71875 
Q 44.390625 65.09375 46.28125 62.40625 
Q 48.1875 59.71875 49.3125 55.8125 
L 40.921875 54.296875 
Q 39.546875 58.734375 36.546875 60.71875 
Q 33.546875 62.703125 29.59375 62.703125 
Q 25.984375 62.703125 23.046875 60.984375 
Q 20.125 59.28125 18.0625 55.875 
Q 16.015625 52.484375 14.90625 47.359375 
Q 13.8125 42.234375 13.8125 35.40625 
Q 16.21875 39.84375 20.5625 42.15625 
Q 24.90625 44.484375 30.515625 44.484375 
Q 35.203125 44.484375 39.015625 42.96875 
Q 42.828125 41.453125 45.53125 38.59375 
Q 48.25 35.75 49.734375 31.671875 
Q 51.21875 27.59375 51.21875 22.515625 
z
M 42.28125 22.125 
Q 42.28125 25.6875 41.40625 28.5625 
Q 40.53125 31.453125 38.765625 33.46875 
Q 37.015625 35.5 34.421875 36.59375 
Q 31.84375 37.703125 28.421875 37.703125 
Q 26.03125 37.703125 23.578125 36.984375 
Q 21.140625 36.28125 19.15625 34.6875 
Q 17.1875 33.109375 15.9375 30.515625 
Q 14.703125 27.9375 14.703125 24.21875 
Q 14.703125 20.40625 15.671875 17.109375 
Q 16.65625 13.8125 18.484375 11.375 
Q 20.3125 8.9375 22.890625 7.515625 
Q 25.484375 6.109375 28.71875 6.109375 
Q 31.890625 6.109375 34.40625 7.203125 
Q 36.921875 8.296875 38.671875 10.375 
Q 40.4375 12.453125 41.359375 15.421875 
Q 42.28125 18.40625 42.28125 22.125 
z
" id="LiberationSans-54"/>
      </defs>
      <g style="fill:#262626;" transform="translate(252.641536 290.058875)scale(0.1 -0.1)">
       <use xlink:href="#LiberationSans-54"/>
       <use x="55.615234" xlink:href="#LiberationSans-48"/>
       <use x="111.230469" xlink:href="#LiberationSans-48"/>
      </g>
     </g>
    </g>
    <g id="xtick_5">
     <g id="line2d_5">
      <g>
       <use style="fill:#262626;stroke:#262626;stroke-width:0.8;" x="325.978847" xlink:href="#m33ed84be60" y="273.312"/>
      </g>
     </g>
     <g id="text_5">
      <!-- 800 -->
      <defs>
       <path d="M 51.265625 19.1875 
Q 51.265625 14.796875 49.875 11.109375 
Q 48.484375 7.421875 45.625 4.734375 
Q 42.78125 2.046875 38.328125 0.53125 
Q 33.890625 -0.984375 27.828125 -0.984375 
Q 21.78125 -0.984375 17.359375 0.53125 
Q 12.9375 2.046875 10.03125 4.703125 
Q 7.125 7.375 5.734375 11.0625 
Q 4.34375 14.75 4.34375 19.09375 
Q 4.34375 22.859375 5.484375 25.78125 
Q 6.640625 28.71875 8.5625 30.828125 
Q 10.5 32.953125 12.96875 34.25 
Q 15.4375 35.546875 18.0625 35.984375 
L 18.0625 36.1875 
Q 15.1875 36.859375 12.90625 38.375 
Q 10.640625 39.890625 9.09375 42.015625 
Q 7.5625 44.140625 6.75 46.71875 
Q 5.953125 49.3125 5.953125 52.203125 
Q 5.953125 55.8125 7.34375 59 
Q 8.734375 62.203125 11.46875 64.625 
Q 14.203125 67.046875 18.25 68.4375 
Q 22.3125 69.828125 27.640625 69.828125 
Q 33.25 69.828125 37.375 68.40625 
Q 41.5 67 44.203125 64.578125 
Q 46.921875 62.15625 48.234375 58.9375 
Q 49.5625 55.71875 49.5625 52.09375 
Q 49.5625 49.265625 48.75 46.671875 
Q 47.953125 44.09375 46.40625 41.96875 
Q 44.875 39.84375 42.59375 38.34375 
Q 40.328125 36.859375 37.359375 36.28125 
L 37.359375 36.078125 
Q 40.328125 35.59375 42.859375 34.296875 
Q 45.40625 33.015625 47.265625 30.890625 
Q 49.125 28.765625 50.1875 25.828125 
Q 51.265625 22.90625 51.265625 19.1875 
z
M 40.4375 51.609375 
Q 40.4375 54.203125 39.765625 56.34375 
Q 39.109375 58.5 37.59375 60.03125 
Q 36.078125 61.578125 33.640625 62.421875 
Q 31.203125 63.28125 27.640625 63.28125 
Q 24.171875 63.28125 21.78125 62.421875 
Q 19.390625 61.578125 17.84375 60.03125 
Q 16.3125 58.5 15.625 56.34375 
Q 14.9375 54.203125 14.9375 51.609375 
Q 14.9375 49.5625 15.46875 47.40625 
Q 16.015625 45.265625 17.421875 43.5 
Q 18.84375 41.75 21.328125 40.625 
Q 23.828125 39.5 27.734375 39.5 
Q 31.890625 39.5 34.40625 40.625 
Q 36.921875 41.75 38.25 43.5 
Q 39.59375 45.265625 40.015625 47.40625 
Q 40.4375 49.5625 40.4375 51.609375 
z
M 42.140625 20.015625 
Q 42.140625 22.515625 41.453125 24.828125 
Q 40.765625 27.15625 39.109375 28.9375 
Q 37.453125 30.71875 34.640625 31.8125 
Q 31.84375 32.90625 27.640625 32.90625 
Q 23.78125 32.90625 21.0625 31.8125 
Q 18.359375 30.71875 16.671875 28.90625 
Q 14.984375 27.09375 14.203125 24.71875 
Q 13.421875 22.359375 13.421875 19.828125 
Q 13.421875 16.65625 14.203125 14.03125 
Q 14.984375 11.421875 16.6875 9.546875 
Q 18.40625 7.671875 21.1875 6.640625 
Q 23.96875 5.609375 27.9375 5.609375 
Q 31.9375 5.609375 34.671875 6.640625 
Q 37.40625 7.671875 39.0625 9.546875 
Q 40.71875 11.421875 41.421875 14.078125 
Q 42.140625 16.75 42.140625 20.015625 
z
" id="LiberationSans-56"/>
      </defs>
      <g style="fill:#262626;" transform="translate(317.637441 290.058875)scale(0.1 -0.1)">
       <use xlink:href="#LiberationSans-56"/>
       <use x="55.615234" xlink:href="#LiberationSans-48"/>
       <use x="111.230469" xlink:href="#LiberationSans-48"/>
      </g>
     </g>
    </g>
    <g id="xtick_6">
     <g id="line2d_6">
      <g>
       <use style="fill:#262626;stroke:#262626;stroke-width:0.8;" x="390.974752" xlink:href="#m33ed84be60" y="273.312"/>
      </g>
     </g>
     <g id="text_6">
      <!-- 1000 -->
      <defs>
       <path d="M 7.625 0 
L 7.625 7.46875 
L 25.140625 7.46875 
L 25.140625 60.40625 
L 9.625 49.3125 
L 9.625 57.625 
L 25.875 68.796875 
L 33.984375 68.796875 
L 33.984375 7.46875 
L 50.734375 7.46875 
L 50.734375 0 
z
" id="LiberationSans-49"/>
      </defs>
      <g style="fill:#262626;" transform="translate(379.852877 290.058875)scale(0.1 -0.1)">
       <use xlink:href="#LiberationSans-49"/>
       <use x="55.615234" xlink:href="#LiberationSans-48"/>
       <use x="111.230469" xlink:href="#LiberationSans-48"/>
       <use x="166.845703" xlink:href="#LiberationSans-48"/>
      </g>
     </g>
    </g>
    <g id="text_7">
     <!-- time -->
     <defs>
      <path d="M 27.046875 0.390625 
Q 25.046875 -0.140625 22.96875 -0.453125 
Q 20.90625 -0.78125 18.171875 -0.78125 
Q 7.625 -0.78125 7.625 11.1875 
L 7.625 46.4375 
L 1.515625 46.4375 
L 1.515625 52.828125 
L 7.953125 52.828125 
L 10.546875 64.65625 
L 16.40625 64.65625 
L 16.40625 52.828125 
L 26.171875 52.828125 
L 26.171875 46.4375 
L 16.40625 46.4375 
L 16.40625 13.09375 
Q 16.40625 9.28125 17.640625 7.734375 
Q 18.890625 6.203125 21.96875 6.203125 
Q 23.25 6.203125 24.4375 6.390625 
Q 25.640625 6.59375 27.046875 6.890625 
z
" id="LiberationSans-116"/>
      <path d="M 6.6875 64.0625 
L 6.6875 72.46875 
L 15.484375 72.46875 
L 15.484375 64.0625 
z
M 6.6875 0 
L 6.6875 52.828125 
L 15.484375 52.828125 
L 15.484375 0 
z
" id="LiberationSans-105"/>
      <path d="M 37.5 0 
L 37.5 33.5 
Q 37.5 37.359375 37.015625 39.9375 
Q 36.53125 42.53125 35.375 44.109375 
Q 34.234375 45.703125 32.375 46.359375 
Q 30.515625 47.015625 27.828125 47.015625 
Q 25.046875 47.015625 22.796875 45.921875 
Q 20.5625 44.828125 18.96875 42.75 
Q 17.390625 40.671875 16.53125 37.625 
Q 15.671875 34.578125 15.671875 30.609375 
L 15.671875 0 
L 6.9375 0 
L 6.9375 41.546875 
Q 6.9375 43.21875 6.90625 45.046875 
Q 6.890625 46.875 6.828125 48.5 
Q 6.78125 50.140625 6.734375 51.3125 
Q 6.6875 52.484375 6.640625 52.828125 
L 14.9375 52.828125 
Q 14.984375 52.59375 15.03125 51.515625 
Q 15.09375 50.4375 15.15625 49.046875 
Q 15.234375 47.65625 15.28125 46.21875 
Q 15.328125 44.78125 15.328125 43.796875 
L 15.484375 43.796875 
Q 16.65625 46.09375 18.015625 47.953125 
Q 19.390625 49.8125 21.21875 51.09375 
Q 23.046875 52.390625 25.40625 53.09375 
Q 27.78125 53.8125 30.90625 53.8125 
Q 36.921875 53.8125 40.40625 51.421875 
Q 43.890625 49.03125 45.265625 43.796875 
L 45.40625 43.796875 
Q 46.578125 46.09375 48.046875 47.953125 
Q 49.515625 49.8125 51.46875 51.09375 
Q 53.421875 52.390625 55.859375 53.09375 
Q 58.296875 53.8125 61.421875 53.8125 
Q 65.4375 53.8125 68.328125 52.734375 
Q 71.234375 51.65625 73.09375 49.40625 
Q 74.953125 47.171875 75.828125 43.625 
Q 76.703125 40.09375 76.703125 35.203125 
L 76.703125 0 
L 68.015625 0 
L 68.015625 33.5 
Q 68.015625 37.359375 67.53125 39.9375 
Q 67.046875 42.53125 65.890625 44.109375 
Q 64.75 45.703125 62.890625 46.359375 
Q 61.03125 47.015625 58.34375 47.015625 
Q 55.5625 47.015625 53.3125 45.96875 
Q 51.078125 44.921875 49.484375 42.875 
Q 47.90625 40.828125 47.046875 37.75 
Q 46.1875 34.671875 46.1875 30.609375 
L 46.1875 0 
z
" id="LiberationSans-109"/>
      <path d="M 13.484375 24.5625 
Q 13.484375 20.40625 14.328125 16.90625 
Q 15.1875 13.421875 16.96875 10.90625 
Q 18.75 8.40625 21.53125 7 
Q 24.3125 5.609375 28.21875 5.609375 
Q 33.9375 5.609375 37.375 7.90625 
Q 40.828125 10.203125 42.046875 13.71875 
L 49.75 11.53125 
Q 48.921875 9.328125 47.4375 7.109375 
Q 45.953125 4.890625 43.453125 3.09375 
Q 40.96875 1.3125 37.234375 0.15625 
Q 33.5 -0.984375 28.21875 -0.984375 
Q 16.5 -0.984375 10.375 6 
Q 4.25 12.984375 4.25 26.765625 
Q 4.25 34.1875 6.09375 39.328125 
Q 7.953125 44.484375 11.171875 47.703125 
Q 14.40625 50.921875 18.703125 52.359375 
Q 23 53.8125 27.875 53.8125 
Q 34.515625 53.8125 38.984375 51.65625 
Q 43.453125 49.515625 46.15625 45.71875 
Q 48.875 41.9375 50.015625 36.8125 
Q 51.171875 31.6875 51.171875 25.734375 
L 51.171875 24.5625 
z
M 42.09375 31.296875 
Q 41.359375 39.65625 37.84375 43.484375 
Q 34.328125 47.3125 27.734375 47.3125 
Q 25.53125 47.3125 23.109375 46.609375 
Q 20.703125 45.90625 18.65625 44.09375 
Q 16.609375 42.28125 15.1875 39.171875 
Q 13.765625 36.078125 13.578125 31.296875 
z
" id="LiberationSans-101"/>
     </defs>
     <g style="fill:#262626;" transform="translate(218.877188 303.38075)scale(0.1 -0.1)">
      <use xlink:href="#LiberationSans-116"/>
      <use x="27.783203" xlink:href="#LiberationSans-105"/>
      <use x="50" xlink:href="#LiberationSans-109"/>
      <use x="133.300781" xlink:href="#LiberationSans-101"/>
     </g>
    </g>
   </g>
   <g id="matplotlib.axis_2">
    <g id="ytick_1">
     <g id="line2d_7">
      <defs>
       <path d="M 0 0 
L -6 0 
" id="mfece2f0127" style="stroke:#262626;stroke-width:0.8;"/>
      </defs>
      <g>
       <use style="fill:#262626;stroke:#262626;stroke-width:0.8;" x="49.7625" xlink:href="#mfece2f0127" y="240.845608"/>
      </g>
     </g>
     <g id="text_8">
      <!-- −1.0 -->
      <defs>
       <path d="M 4.9375 29.6875 
L 4.9375 36.8125 
L 53.515625 36.8125 
L 53.515625 29.6875 
z
" id="LiberationSans-8722"/>
       <path d="M 9.125 0 
L 9.125 10.6875 
L 18.65625 10.6875 
L 18.65625 0 
z
" id="LiberationSans-46"/>
      </defs>
      <g style="fill:#262626;" transform="translate(20.521875 244.469045)scale(0.1 -0.1)">
       <use xlink:href="#LiberationSans-8722"/>
       <use x="58.398438" xlink:href="#LiberationSans-49"/>
       <use x="114.013672" xlink:href="#LiberationSans-46"/>
       <use x="141.796875" xlink:href="#LiberationSans-48"/>
      </g>
     </g>
    </g>
    <g id="ytick_2">
     <g id="line2d_8">
      <g>
       <use style="fill:#262626;stroke:#262626;stroke-width:0.8;" x="49.7625" xlink:href="#mfece2f0127" y="185.392569"/>
      </g>
     </g>
     <g id="text_9">
      <!-- −0.5 -->
      <defs>
       <path d="M 51.421875 22.40625 
Q 51.421875 17.234375 49.859375 12.9375 
Q 48.296875 8.640625 45.21875 5.53125 
Q 42.140625 2.4375 37.578125 0.71875 
Q 33.015625 -0.984375 27 -0.984375 
Q 21.578125 -0.984375 17.546875 0.28125 
Q 13.53125 1.5625 10.734375 3.78125 
Q 7.953125 6 6.3125 8.984375 
Q 4.6875 11.96875 4 15.375 
L 12.890625 16.40625 
Q 13.421875 14.453125 14.390625 12.625 
Q 15.375 10.796875 17.0625 9.34375 
Q 18.75 7.90625 21.21875 7.046875 
Q 23.6875 6.203125 27.203125 6.203125 
Q 30.609375 6.203125 33.390625 7.25 
Q 36.1875 8.296875 38.15625 10.34375 
Q 40.140625 12.40625 41.203125 15.375 
Q 42.28125 18.359375 42.28125 22.21875 
Q 42.28125 25.390625 41.25 28.046875 
Q 40.234375 30.71875 38.328125 32.640625 
Q 36.421875 34.578125 33.65625 35.640625 
Q 30.90625 36.71875 27.390625 36.71875 
Q 25.203125 36.71875 23.34375 36.328125 
Q 21.484375 35.9375 19.890625 35.25 
Q 18.3125 34.578125 17.015625 33.671875 
Q 15.71875 32.765625 14.59375 31.78125 
L 6 31.78125 
L 8.296875 68.796875 
L 47.40625 68.796875 
L 47.40625 61.328125 
L 16.3125 61.328125 
L 14.984375 39.5 
Q 17.328125 41.3125 20.84375 42.59375 
Q 24.359375 43.890625 29.203125 43.890625 
Q 34.328125 43.890625 38.421875 42.328125 
Q 42.53125 40.765625 45.40625 37.90625 
Q 48.296875 35.0625 49.859375 31.109375 
Q 51.421875 27.15625 51.421875 22.40625 
z
" id="LiberationSans-53"/>
      </defs>
      <g style="fill:#262626;" transform="translate(20.521875 189.016006)scale(0.1 -0.1)">
       <use xlink:href="#LiberationSans-8722"/>
       <use x="58.398438" xlink:href="#LiberationSans-48"/>
       <use x="114.013672" xlink:href="#LiberationSans-46"/>
       <use x="141.796875" xlink:href="#LiberationSans-53"/>
      </g>
     </g>
    </g>
    <g id="ytick_3">
     <g id="line2d_9">
      <g>
       <use style="fill:#262626;stroke:#262626;stroke-width:0.8;" x="49.7625" xlink:href="#mfece2f0127" y="129.939529"/>
      </g>
     </g>
     <g id="text_10">
      <!-- 0.0 -->
      <g style="fill:#262626;" transform="translate(26.3625 133.562967)scale(0.1 -0.1)">
       <use xlink:href="#LiberationSans-48"/>
       <use x="55.615234" xlink:href="#LiberationSans-46"/>
       <use x="83.398438" xlink:href="#LiberationSans-48"/>
      </g>
     </g>
    </g>
    <g id="ytick_4">
     <g id="line2d_10">
      <g>
       <use style="fill:#262626;stroke:#262626;stroke-width:0.8;" x="49.7625" xlink:href="#mfece2f0127" y="74.48649"/>
      </g>
     </g>
     <g id="text_11">
      <!-- 0.5 -->
      <g style="fill:#262626;" transform="translate(26.3625 78.109928)scale(0.1 -0.1)">
       <use xlink:href="#LiberationSans-48"/>
       <use x="55.615234" xlink:href="#LiberationSans-46"/>
       <use x="83.398438" xlink:href="#LiberationSans-53"/>
      </g>
     </g>
    </g>
    <g id="ytick_5">
     <g id="line2d_11">
      <g>
       <use style="fill:#262626;stroke:#262626;stroke-width:0.8;" x="49.7625" xlink:href="#mfece2f0127" y="19.033451"/>
      </g>
     </g>
     <g id="text_12">
      <!-- 1.0 -->
      <g style="fill:#262626;" transform="translate(26.3625 22.656888)scale(0.1 -0.1)">
       <use xlink:href="#LiberationSans-49"/>
       <use x="55.615234" xlink:href="#LiberationSans-46"/>
       <use x="83.398438" xlink:href="#LiberationSans-48"/>
      </g>
     </g>
    </g>
    <g id="text_13">
     <!-- analogs -->
     <defs>
      <path d="M 20.21875 -0.984375 
Q 12.25 -0.984375 8.25 3.21875 
Q 4.25 7.421875 4.25 14.75 
Q 4.25 19.96875 6.21875 23.3125 
Q 8.203125 26.65625 11.390625 28.5625 
Q 14.59375 30.46875 18.6875 31.203125 
Q 22.796875 31.9375 27.046875 32.03125 
L 38.921875 32.234375 
L 38.921875 35.109375 
Q 38.921875 38.375 38.234375 40.671875 
Q 37.546875 42.96875 36.125 44.375 
Q 34.71875 45.796875 32.59375 46.453125 
Q 30.46875 47.125 27.59375 47.125 
Q 25.046875 47.125 23 46.75 
Q 20.953125 46.390625 19.4375 45.4375 
Q 17.921875 44.484375 16.984375 42.84375 
Q 16.0625 41.21875 15.765625 38.71875 
L 6.59375 39.546875 
Q 7.078125 42.671875 8.4375 45.28125 
Q 9.8125 47.90625 12.328125 49.796875 
Q 14.84375 51.703125 18.625 52.75 
Q 22.40625 53.8125 27.78125 53.8125 
Q 37.75 53.8125 42.765625 49.234375 
Q 47.796875 44.671875 47.796875 36.03125 
L 47.796875 13.28125 
Q 47.796875 9.375 48.828125 7.390625 
Q 49.859375 5.421875 52.734375 5.421875 
Q 53.46875 5.421875 54.203125 5.515625 
Q 54.9375 5.609375 55.609375 5.765625 
L 55.609375 0.296875 
Q 53.953125 -0.09375 52.3125 -0.28125 
Q 50.6875 -0.484375 48.828125 -0.484375 
Q 46.34375 -0.484375 44.5625 0.171875 
Q 42.78125 0.828125 41.65625 2.171875 
Q 40.53125 3.515625 39.9375 5.484375 
Q 39.359375 7.46875 39.203125 10.109375 
L 38.921875 10.109375 
Q 37.5 7.5625 35.8125 5.515625 
Q 34.125 3.46875 31.875 2.03125 
Q 29.640625 0.59375 26.78125 -0.1875 
Q 23.921875 -0.984375 20.21875 -0.984375 
z
M 22.21875 5.609375 
Q 26.421875 5.609375 29.5625 7.140625 
Q 32.71875 8.6875 34.78125 11.078125 
Q 36.859375 13.484375 37.890625 16.3125 
Q 38.921875 19.140625 38.921875 21.734375 
L 38.921875 26.078125 
L 29.296875 25.875 
Q 26.078125 25.828125 23.171875 25.40625 
Q 20.265625 25 18.0625 23.78125 
Q 15.875 22.5625 14.578125 20.359375 
Q 13.28125 18.171875 13.28125 14.59375 
Q 13.28125 10.296875 15.59375 7.953125 
Q 17.921875 5.609375 22.21875 5.609375 
z
" id="LiberationSans-97"/>
      <path d="M 40.28125 0 
L 40.28125 33.5 
Q 40.28125 37.359375 39.71875 39.9375 
Q 39.15625 42.53125 37.890625 44.109375 
Q 36.625 45.703125 34.546875 46.359375 
Q 32.46875 47.015625 29.390625 47.015625 
Q 26.265625 47.015625 23.75 45.921875 
Q 21.234375 44.828125 19.453125 42.75 
Q 17.671875 40.671875 16.6875 37.625 
Q 15.71875 34.578125 15.71875 30.609375 
L 15.71875 0 
L 6.9375 0 
L 6.9375 41.546875 
Q 6.9375 43.21875 6.90625 45.046875 
Q 6.890625 46.875 6.828125 48.5 
Q 6.78125 50.140625 6.734375 51.3125 
Q 6.6875 52.484375 6.640625 52.828125 
L 14.9375 52.828125 
Q 14.984375 52.59375 15.03125 51.515625 
Q 15.09375 50.4375 15.15625 49.046875 
Q 15.234375 47.65625 15.28125 46.21875 
Q 15.328125 44.78125 15.328125 43.796875 
L 15.484375 43.796875 
Q 16.75 46.09375 18.265625 47.953125 
Q 19.78125 49.8125 21.78125 51.09375 
Q 23.78125 52.390625 26.359375 53.09375 
Q 28.953125 53.8125 32.375 53.8125 
Q 36.765625 53.8125 39.9375 52.734375 
Q 43.109375 51.65625 45.15625 49.40625 
Q 47.21875 47.171875 48.171875 43.625 
Q 49.125 40.09375 49.125 35.203125 
L 49.125 0 
z
" id="LiberationSans-110"/>
      <path d="M 6.734375 0 
L 6.734375 72.46875 
L 15.53125 72.46875 
L 15.53125 0 
z
" id="LiberationSans-108"/>
      <path d="M 51.421875 26.46875 
Q 51.421875 12.59375 45.3125 5.796875 
Q 39.203125 -0.984375 27.59375 -0.984375 
Q 22.078125 -0.984375 17.71875 0.671875 
Q 13.375 2.34375 10.375 5.765625 
Q 7.375 9.1875 5.78125 14.328125 
Q 4.203125 19.484375 4.203125 26.46875 
Q 4.203125 53.8125 27.875 53.8125 
Q 34.03125 53.8125 38.5 52.09375 
Q 42.96875 50.390625 45.828125 46.96875 
Q 48.6875 43.5625 50.046875 38.421875 
Q 51.421875 33.296875 51.421875 26.46875 
z
M 42.1875 26.46875 
Q 42.1875 32.625 41.234375 36.625 
Q 40.28125 40.625 38.453125 43.015625 
Q 36.625 45.40625 33.984375 46.359375 
Q 31.34375 47.3125 28.03125 47.3125 
Q 24.65625 47.3125 21.9375 46.3125 
Q 19.234375 45.3125 17.328125 42.890625 
Q 15.4375 40.484375 14.421875 36.46875 
Q 13.421875 32.46875 13.421875 26.46875 
Q 13.421875 20.3125 14.5 16.28125 
Q 15.578125 12.25 17.453125 9.859375 
Q 19.34375 7.46875 21.90625 6.484375 
Q 24.46875 5.515625 27.484375 5.515625 
Q 30.859375 5.515625 33.59375 6.46875 
Q 36.328125 7.421875 38.234375 9.8125 
Q 40.140625 12.203125 41.15625 16.25 
Q 42.1875 20.3125 42.1875 26.46875 
z
" id="LiberationSans-111"/>
      <path d="M 26.765625 -20.75 
Q 22.21875 -20.75 18.703125 -19.8125 
Q 15.1875 -18.890625 12.6875 -17.15625 
Q 10.203125 -15.4375 8.640625 -13.03125 
Q 7.078125 -10.640625 6.390625 -7.71875 
L 15.234375 -6.453125 
Q 16.109375 -10.109375 19.109375 -12.078125 
Q 22.125 -14.0625 27 -14.0625 
Q 29.984375 -14.0625 32.421875 -13.234375 
Q 34.859375 -12.40625 36.5625 -10.5625 
Q 38.28125 -8.734375 39.203125 -5.796875 
Q 40.140625 -2.875 40.140625 1.3125 
L 40.140625 9.8125 
L 40.046875 9.8125 
Q 39.0625 7.8125 37.625 5.984375 
Q 36.1875 4.15625 34.109375 2.734375 
Q 32.03125 1.3125 29.296875 0.453125 
Q 26.5625 -0.390625 23.046875 -0.390625 
Q 18.015625 -0.390625 14.421875 1.296875 
Q 10.84375 2.984375 8.5625 6.34375 
Q 6.296875 9.71875 5.25 14.71875 
Q 4.203125 19.734375 4.203125 26.3125 
Q 4.203125 32.671875 5.25 37.75 
Q 6.296875 42.828125 8.65625 46.359375 
Q 11.03125 49.90625 14.8125 51.78125 
Q 18.609375 53.65625 24.03125 53.65625 
Q 29.640625 53.65625 33.765625 51.09375 
Q 37.890625 48.53125 40.140625 43.796875 
L 40.234375 43.796875 
Q 40.234375 45.015625 40.296875 46.53125 
Q 40.375 48.046875 40.453125 49.390625 
Q 40.53125 50.734375 40.625 51.703125 
Q 40.71875 52.6875 40.828125 52.828125 
L 49.171875 52.828125 
Q 49.125 52.390625 49.078125 51.34375 
Q 49.03125 50.296875 48.96875 48.828125 
Q 48.921875 47.359375 48.890625 45.578125 
Q 48.875 43.796875 48.875 41.890625 
L 48.875 1.515625 
Q 48.875 -9.578125 43.421875 -15.15625 
Q 37.984375 -20.75 26.765625 -20.75 
z
M 40.140625 26.421875 
Q 40.140625 31.9375 38.9375 35.859375 
Q 37.75 39.796875 35.796875 42.28125 
Q 33.84375 44.78125 31.328125 45.953125 
Q 28.8125 47.125 26.171875 47.125 
Q 22.796875 47.125 20.375 45.953125 
Q 17.96875 44.78125 16.375 42.265625 
Q 14.796875 39.75 14.03125 35.8125 
Q 13.28125 31.890625 13.28125 26.421875 
Q 13.28125 20.703125 14.03125 16.8125 
Q 14.796875 12.9375 16.359375 10.546875 
Q 17.921875 8.15625 20.3125 7.125 
Q 22.703125 6.109375 26.03125 6.109375 
Q 28.65625 6.109375 31.171875 7.21875 
Q 33.6875 8.34375 35.6875 10.78125 
Q 37.703125 13.234375 38.921875 17.09375 
Q 40.140625 20.953125 40.140625 26.421875 
z
" id="LiberationSans-103"/>
      <path d="M 46.390625 14.59375 
Q 46.390625 10.890625 44.9375 7.984375 
Q 43.5 5.078125 40.765625 3.09375 
Q 38.03125 1.125 34.046875 0.0625 
Q 30.078125 -0.984375 24.953125 -0.984375 
Q 20.359375 -0.984375 16.671875 -0.265625 
Q 12.984375 0.4375 10.203125 2 
Q 7.421875 3.5625 5.53125 6.125 
Q 3.65625 8.6875 2.78125 12.40625 
L 10.546875 13.921875 
Q 11.671875 9.671875 15.1875 7.6875 
Q 18.703125 5.71875 24.953125 5.71875 
Q 27.78125 5.71875 30.140625 6.109375 
Q 32.515625 6.5 34.21875 7.453125 
Q 35.9375 8.40625 36.890625 9.984375 
Q 37.84375 11.578125 37.84375 13.921875 
Q 37.84375 16.3125 36.71875 17.84375 
Q 35.59375 19.390625 33.59375 20.40625 
Q 31.59375 21.4375 28.734375 22.1875 
Q 25.875 22.953125 22.46875 23.875 
Q 19.28125 24.703125 16.15625 25.734375 
Q 13.03125 26.765625 10.515625 28.4375 
Q 8.015625 30.125 6.453125 32.609375 
Q 4.890625 35.109375 4.890625 38.875 
Q 4.890625 46.09375 10.03125 49.875 
Q 15.1875 53.65625 25.046875 53.65625 
Q 33.796875 53.65625 38.9375 50.578125 
Q 44.09375 47.515625 45.453125 40.71875 
L 37.546875 39.75 
Q 37.109375 41.796875 35.9375 43.1875 
Q 34.765625 44.578125 33.109375 45.4375 
Q 31.453125 46.296875 29.375 46.65625 
Q 27.296875 47.015625 25.046875 47.015625 
Q 19.09375 47.015625 16.25 45.203125 
Q 13.421875 43.40625 13.421875 39.75 
Q 13.421875 37.59375 14.46875 36.203125 
Q 15.53125 34.8125 17.40625 33.859375 
Q 19.28125 32.90625 21.921875 32.203125 
Q 24.5625 31.5 27.734375 30.71875 
Q 29.828125 30.171875 32.03125 29.5625 
Q 34.234375 28.953125 36.296875 28.09375 
Q 38.375 27.25 40.203125 26.09375 
Q 42.046875 24.953125 43.40625 23.34375 
Q 44.78125 21.734375 45.578125 19.578125 
Q 46.390625 17.4375 46.390625 14.59375 
z
" id="LiberationSans-115"/>
     </defs>
     <g style="fill:#262626;" transform="translate(14.446875 157.769281)rotate(-90)scale(0.1 -0.1)">
      <use xlink:href="#LiberationSans-97"/>
      <use x="55.615234" xlink:href="#LiberationSans-110"/>
      <use x="111.230469" xlink:href="#LiberationSans-97"/>
      <use x="166.845703" xlink:href="#LiberationSans-108"/>
      <use x="189.0625" xlink:href="#LiberationSans-111"/>
      <use x="244.677734" xlink:href="#LiberationSans-103"/>
      <use x="300.292969" xlink:href="#LiberationSans-115"/>
     </g>
    </g>
   </g>
   <g id="line2d_12">
    <path clip-path="url(#p129fdd516f)" d="M 65.995227 123.815318 
L 66.320207 169.058948 
L 66.645186 65.500488 
L 66.970166 43.150679 
L 67.295145 76.132065 
L 67.620125 201.899006 
L 67.945104 179.876788 
L 68.270084 36.920812 
L 68.595063 143.864868 
L 68.920043 32.080351 
L 69.245023 153.795052 
L 69.570002 29.730418 
L 69.894982 35.505446 
L 70.219961 94.332714 
L 70.544941 238.887661 
L 71.1949 38.722578 
L 71.519879 44.517386 
L 71.844859 199.280716 
L 72.169838 152.302077 
L 72.494818 55.519349 
L 72.819797 112.665275 
L 73.144777 52.904337 
L 73.469756 57.502914 
L 73.794736 39.555067 
L 74.119715 214.844656 
L 74.444695 208.635124 
L 74.769674 222.477558 
L 75.094654 33.391609 
L 75.744613 226.577478 
L 76.069593 169.526367 
L 76.394572 162.898012 
L 76.719552 61.275397 
L 77.044531 77.707892 
L 77.369511 87.931179 
L 77.69449 235.996006 
L 78.01947 38.842209 
L 78.344449 193.032829 
L 78.669429 101.312141 
L 78.994408 227.133393 
L 79.319388 222.76213 
L 79.644367 238.721247 
L 79.969347 115.315976 
L 80.294326 101.241546 
L 80.619306 229.652455 
L 80.944285 176.412529 
L 81.269265 51.982668 
L 81.594244 218.37418 
L 81.919224 192.812814 
L 82.244204 146.710479 
L 82.569183 54.018972 
L 82.894163 184.316989 
L 83.219142 19.668496 
L 83.544122 162.044219 
L 83.869101 155.126597 
L 84.194081 213.760967 
L 84.51906 89.969444 
L 84.84404 186.84207 
L 85.169019 101.35513 
L 85.493999 191.346511 
L 85.818978 154.810824 
L 86.143958 50.825323 
L 86.468937 76.947294 
L 86.793917 206.555467 
L 87.118896 106.048548 
L 87.443876 101.405469 
L 87.768855 220.756419 
L 88.093835 137.524251 
L 88.418814 183.026189 
L 88.743794 137.230463 
L 89.068774 68.481815 
L 89.393753 205.741713 
L 89.718733 213.495236 
L 90.043712 181.107935 
L 90.368692 29.619336 
L 90.693671 74.969107 
L 91.018651 236.530061 
L 91.34363 151.897859 
L 91.66861 183.751607 
L 91.993589 99.297385 
L 92.318569 138.968958 
L 92.643548 26.90811 
L 92.968528 192.273525 
L 93.293507 110.451908 
L 93.943466 57.725368 
L 94.268446 150.574486 
L 94.593425 88.477978 
L 94.918405 173.591835 
L 95.243385 144.251717 
L 95.568364 42.184622 
L 95.893344 30.144552 
L 96.218323 81.403182 
L 96.543303 157.809807 
L 96.868282 58.946821 
L 97.193262 235.107975 
L 97.518241 218.055316 
L 97.843221 94.144873 
L 98.1682 176.243133 
L 98.49318 29.816579 
L 98.818159 144.122063 
L 99.143139 145.607271 
L 99.468118 90.439329 
L 99.793098 70.589569 
L 100.443057 193.377606 
L 100.768036 69.31635 
L 101.093016 169.787801 
L 101.417995 202.00391 
L 101.742975 100.740135 
L 102.067955 220.781885 
L 102.392934 25.387776 
L 102.717914 100.572207 
L 103.042893 22.161996 
L 103.367873 165.674927 
L 103.692852 25.420496 
L 104.017832 208.558132 
L 104.342811 231.819013 
L 104.667791 233.529342 
L 104.99277 137.731708 
L 105.31775 222.434268 
L 105.642729 127.240545 
L 105.967709 168.202015 
L 106.292688 166.399017 
L 106.617668 99.859805 
L 106.942647 204.668487 
L 107.267627 70.814751 
L 107.592606 111.744074 
L 107.917586 37.899766 
L 108.242566 159.919515 
L 108.567545 22.867476 
L 108.892525 113.120036 
L 109.217504 24.93322 
L 109.542484 234.843226 
L 109.867463 79.37161 
L 110.192443 59.709026 
L 110.517422 229.051126 
L 110.842402 112.423098 
L 111.167381 62.965058 
L 111.492361 116.400398 
L 111.81734 226.690978 
L 112.14232 87.03058 
L 112.467299 227.404475 
L 112.792279 59.521069 
L 113.117258 231.300103 
L 113.442238 210.369198 
L 113.767217 179.8234 
L 114.417176 24.27729 
L 114.742156 214.711067 
L 115.067136 209.191312 
L 115.392115 159.02567 
L 115.717095 55.362037 
L 116.042074 137.208102 
L 116.367054 169.508467 
L 116.692033 116.363775 
L 117.017013 183.058395 
L 117.341992 151.863464 
L 117.666972 167.069742 
L 117.991951 62.477353 
L 118.316931 35.834452 
L 118.64191 72.363262 
L 118.96689 143.451533 
L 119.291869 128.977979 
L 119.616849 213.102742 
L 119.941828 75.181935 
L 120.266808 108.540051 
L 120.591787 40.673446 
L 120.916767 196.347617 
L 121.241747 72.329118 
L 121.566726 88.97711 
L 121.891706 181.877837 
L 122.216685 92.812912 
L 122.541665 35.808355 
L 122.866644 37.12534 
L 123.191624 81.223685 
L 123.516603 230.182407 
L 123.841583 47.366774 
L 124.166562 94.942316 
L 124.491542 171.987517 
L 124.816521 199.311201 
L 125.46648 229.702453 
L 125.79146 73.57634 
L 126.116439 188.532764 
L 126.441419 235.466012 
L 126.766398 152.726148 
L 127.091378 133.79749 
L 127.416357 203.308285 
L 127.741337 231.075151 
L 128.066317 198.895276 
L 128.391296 90.212359 
L 128.716276 222.60296 
L 129.041255 117.731647 
L 129.366235 208.369649 
L 129.691214 197.43937 
L 130.016194 153.656155 
L 130.341173 218.481323 
L 130.666153 202.426965 
L 130.991132 163.443721 
L 131.316112 167.721015 
L 131.641091 74.648084 
L 131.966071 224.257983 
L 132.29105 49.987174 
L 132.941009 70.93935 
L 133.265989 172.223057 
L 133.590968 58.320424 
L 133.915948 200.297884 
L 134.240928 213.250134 
L 134.565907 230.873746 
L 134.890887 32.49515 
L 135.215866 172.525046 
L 135.540846 37.306807 
L 135.865825 180.376606 
L 136.190805 39.536445 
L 136.515784 40.343155 
L 136.840764 35.963032 
L 137.165743 130.792743 
L 137.490723 48.768194 
L 137.815702 29.954174 
L 138.140682 168.841624 
L 138.465661 147.934172 
L 138.790641 81.309391 
L 139.11562 174.222148 
L 139.4406 73.641539 
L 139.765579 224.455432 
L 140.090559 124.727302 
L 140.415538 213.71499 
L 140.740518 175.782895 
L 141.065498 183.479352 
L 141.390477 54.760275 
L 141.715457 197.921128 
L 142.040436 61.522031 
L 142.365416 64.735551 
L 143.015375 188.976331 
L 143.340354 190.517241 
L 143.665334 137.719669 
L 143.990313 238.891663 
L 144.640272 29.507526 
L 144.965252 206.529741 
L 145.615211 27.511402 
L 145.94019 49.971336 
L 146.26517 52.22096 
L 146.590149 58.549302 
L 146.915129 172.300415 
L 147.240109 43.295968 
L 147.565088 32.044874 
L 147.890068 130.872821 
L 148.215047 162.197439 
L 148.540027 148.964576 
L 148.865006 166.714556 
L 149.189986 193.728615 
L 149.514965 103.666219 
L 149.839945 116.054779 
L 150.164924 138.238615 
L 150.489904 219.585936 
L 150.814883 64.085061 
L 151.139863 202.043217 
L 151.464842 215.434354 
L 151.789822 102.640798 
L 152.114801 152.421442 
L 152.439781 227.579361 
L 152.76476 161.976224 
L 153.08974 69.655343 
L 153.414719 104.375855 
L 154.064679 198.300973 
L 154.389658 100.705658 
L 154.714638 43.975052 
L 155.039617 97.494462 
L 155.364597 60.533651 
L 155.689576 125.164393 
L 156.339535 42.051614 
L 156.664515 69.345111 
L 156.989494 39.02894 
L 157.314474 145.213603 
L 157.639453 40.278563 
L 157.964433 102.974439 
L 158.289412 47.858214 
L 158.614392 232.111415 
L 158.939371 94.925952 
L 159.264351 52.754427 
L 159.58933 202.205479 
L 159.91431 94.053221 
L 160.23929 57.860623 
L 160.564269 176.974937 
L 160.889249 150.957046 
L 161.214228 114.519654 
L 161.539208 125.687903 
L 161.864187 232.152924 
L 162.189167 218.958937 
L 162.514146 218.560899 
L 162.839126 182.671398 
L 163.164105 186.309959 
L 163.489085 76.21166 
L 163.814064 113.80394 
L 164.139044 71.386425 
L 164.464023 225.341813 
L 164.789003 133.219191 
L 165.113982 169.028248 
L 165.438962 52.318736 
L 165.763941 83.849368 
L 166.088921 48.033512 
L 166.4139 230.547508 
L 166.73888 80.958195 
L 167.06386 121.065191 
L 167.388839 57.850572 
L 167.713819 128.351223 
L 168.038798 121.020667 
L 168.363778 229.362973 
L 168.688757 92.559109 
L 169.013737 180.259863 
L 169.338716 236.477256 
L 169.663696 226.109037 
L 169.988675 28.508022 
L 170.313655 164.081458 
L 170.638634 48.29588 
L 170.963614 27.977531 
L 171.288593 31.617478 
L 171.613573 45.26823 
L 171.938552 42.35835 
L 172.263532 176.74011 
L 172.588511 207.247745 
L 172.913491 99.0494 
L 173.238471 132.577854 
L 173.56345 218.942385 
L 173.88843 90.558707 
L 174.213409 115.996416 
L 174.538389 49.406766 
L 174.863368 105.721236 
L 175.188348 113.537368 
L 175.513327 143.081517 
L 175.838307 138.19381 
L 176.163286 29.152249 
L 176.488266 210.1366 
L 177.138225 95.375155 
L 177.788184 178.024939 
L 178.113163 177.10625 
L 178.438143 189.017856 
L 178.763122 164.563697 
L 179.088102 47.497546 
L 179.738061 187.557737 
L 180.063041 155.552907 
L 180.38802 217.371136 
L 180.713 40.319491 
L 181.037979 150.302366 
L 181.362959 23.38292 
L 181.687938 163.757283 
L 182.012918 55.331669 
L 182.337897 183.976228 
L 182.662877 223.95397 
L 182.987856 233.806762 
L 183.312836 106.390082 
L 183.637815 171.73478 
L 183.962795 142.467507 
L 184.287774 59.259743 
L 184.612754 185.812218 
L 184.937733 172.382736 
L 185.262713 53.339765 
L 185.587692 131.544945 
L 185.912672 57.259412 
L 186.237652 157.782278 
L 186.562631 152.482303 
L 186.887611 203.772287 
L 187.21259 37.588958 
L 187.53757 41.928082 
L 187.862549 22.534309 
L 188.187529 151.577943 
L 188.512508 59.266862 
L 188.837488 148.803826 
L 189.162467 140.076614 
L 189.487447 56.741652 
L 189.812426 201.503502 
L 190.137406 191.977964 
L 190.462385 171.035058 
L 190.787365 66.017917 
L 191.112344 158.186964 
L 191.437324 161.399545 
L 191.762303 19.296 
L 192.087283 155.712739 
L 192.412262 185.887091 
L 192.737242 102.609238 
L 193.062222 62.978886 
L 193.387201 225.405744 
L 193.712181 103.567787 
L 194.03716 232.919049 
L 194.36214 124.098694 
L 194.687119 183.841755 
L 195.012099 172.828751 
L 195.337078 137.238045 
L 195.662058 35.201902 
L 195.987037 83.21096 
L 196.312017 33.041865 
L 196.636996 94.456016 
L 196.961976 239.269023 
L 197.286955 181.935582 
L 197.611935 39.934239 
L 197.936914 98.121569 
L 198.261894 23.104317 
L 198.586873 206.250892 
L 198.911853 175.023331 
L 199.236833 160.468056 
L 199.561812 168.411114 
L 199.886792 184.950823 
L 200.536751 98.376076 
L 201.18671 223.167196 
L 201.511689 83.68448 
L 201.836669 139.030156 
L 202.161648 117.411067 
L 202.486628 139.832206 
L 202.811607 43.35349 
L 203.136587 116.909175 
L 203.461566 36.051581 
L 203.786546 127.59379 
L 204.111525 175.945996 
L 204.436505 162.004121 
L 204.761484 125.030983 
L 205.086464 123.287508 
L 205.411443 88.38575 
L 205.736423 191.049916 
L 206.061403 94.706243 
L 206.386382 68.145322 
L 206.711362 90.769279 
L 207.036341 133.970276 
L 207.361321 20.878784 
L 207.6863 151.053128 
L 208.01128 217.202514 
L 208.336259 58.625986 
L 208.661239 193.776798 
L 208.986218 82.630196 
L 209.311198 201.146493 
L 209.636177 237.101997 
L 209.961157 205.400335 
L 210.286136 157.224932 
L 210.611116 217.196384 
L 210.936095 196.997984 
L 211.261075 71.242204 
L 211.586054 70.076064 
L 211.911034 59.516781 
L 212.236014 54.267151 
L 212.560993 147.587815 
L 212.885973 48.412546 
L 213.210952 124.186415 
L 213.535932 136.461446 
L 213.860911 81.465515 
L 214.185891 193.418085 
L 214.51087 65.725492 
L 215.160829 212.609937 
L 215.485809 214.380775 
L 215.810788 204.267287 
L 216.135768 43.305749 
L 216.460747 21.043552 
L 216.785727 161.664479 
L 217.435686 192.319547 
L 217.760665 58.113098 
L 218.085645 194.440845 
L 218.410624 35.871183 
L 218.735604 92.819181 
L 219.060584 41.851757 
L 219.385563 117.959487 
L 219.710543 87.644418 
L 220.035522 103.44227 
L 220.360502 56.476351 
L 220.685481 55.441518 
L 221.010461 110.02235 
L 221.33544 100.547722 
L 221.66042 36.362322 
L 221.985399 34.589917 
L 222.310379 93.506931 
L 222.635358 239.125615 
L 222.960338 217.685931 
L 223.285317 50.543524 
L 223.610297 222.054987 
L 223.935276 193.484458 
L 224.260256 189.707551 
L 224.585235 107.706239 
L 224.910215 112.941443 
L 225.235195 176.649283 
L 225.560174 194.794883 
L 225.885154 71.263109 
L 226.210133 33.35006 
L 226.535113 229.132666 
L 226.860092 211.304562 
L 227.185072 98.405828 
L 227.510051 62.410714 
L 227.835031 65.350343 
L 228.16001 81.211135 
L 228.48499 44.003299 
L 228.809969 192.634984 
L 229.134949 217.047172 
L 229.459928 104.35062 
L 229.784908 58.454819 
L 230.109887 111.741266 
L 230.434867 27.241058 
L 230.759846 64.379739 
L 231.084826 85.401467 
L 231.409805 227.479808 
L 231.734785 216.947069 
L 232.059765 66.75908 
L 232.384744 196.874026 
L 232.709724 234.449615 
L 233.034703 38.827816 
L 233.359683 43.254147 
L 233.684662 192.383239 
L 234.009642 67.786375 
L 234.334621 230.203136 
L 234.659601 177.616277 
L 234.98458 102.508706 
L 235.30956 71.563229 
L 235.634539 238.538941 
L 235.959519 168.488572 
L 236.284498 193.301157 
L 236.609478 19.303972 
L 237.584416 224.064941 
L 237.909396 108.053267 
L 238.234376 98.50842 
L 238.559355 59.756848 
L 238.884335 176.835754 
L 239.209314 23.152929 
L 239.534294 143.366764 
L 239.859273 175.201685 
L 240.184253 163.555309 
L 240.509232 125.595105 
L 240.834212 33.073813 
L 241.484171 112.835672 
L 241.80915 204.732284 
L 242.13413 207.717228 
L 242.459109 129.452227 
L 242.784089 79.209158 
L 243.109068 74.261978 
L 243.434048 190.735051 
L 243.759027 218.642319 
L 244.084007 155.567487 
L 244.408986 37.183776 
L 244.733966 119.876521 
L 245.058946 169.843588 
L 245.383925 169.058839 
L 245.708905 211.547095 
L 246.358864 65.311745 
L 246.683843 26.007515 
L 247.333802 203.755307 
L 247.658782 89.358907 
L 247.983761 72.980088 
L 248.308741 224.941732 
L 248.63372 52.274414 
L 248.9587 56.89182 
L 249.283679 136.030257 
L 249.608659 116.53708 
L 249.933638 82.603026 
L 250.258618 90.734647 
L 250.583597 237.177727 
L 250.908577 213.687969 
L 251.233557 204.781046 
L 251.558536 73.227509 
L 251.883516 143.229724 
L 252.208495 119.846494 
L 252.533475 69.454141 
L 252.858454 165.211595 
L 253.183434 74.732651 
L 253.508413 142.738252 
L 254.158372 166.973894 
L 254.483352 26.809117 
L 254.808331 69.612521 
L 255.133311 236.365903 
L 255.45829 28.479214 
L 255.78327 68.843671 
L 256.108249 207.756843 
L 256.433229 223.912884 
L 256.758208 172.484411 
L 257.083188 102.394557 
L 257.408167 104.088057 
L 257.733147 179.658697 
L 258.058127 141.98948 
L 258.708086 229.626641 
L 259.033065 126.175273 
L 259.358045 163.878756 
L 259.683024 120.427685 
L 260.008004 30.898777 
L 260.332983 209.04433 
L 260.657963 240.410408 
L 260.982942 223.793085 
L 261.307922 138.211283 
L 261.632901 84.03949 
L 262.60784 162.332282 
L 262.932819 172.089568 
L 263.257799 157.38076 
L 263.582778 105.177539 
L 263.907758 203.635741 
L 264.232738 69.74812 
L 264.557717 113.247446 
L 264.882697 181.143451 
L 265.207676 129.683788 
L 265.532656 27.289591 
L 265.857635 236.300338 
L 266.182615 196.58906 
L 266.832574 99.231916 
L 267.157553 193.770798 
L 267.482533 34.248889 
L 267.807512 98.315324 
L 268.132492 46.220535 
L 268.457471 167.798887 
L 268.782451 56.973548 
L 269.10743 156.951988 
L 269.43241 184.782192 
L 269.757389 38.629371 
L 270.082369 220.390429 
L 270.407348 31.70141 
L 270.732328 139.141361 
L 271.057308 20.669211 
L 271.382287 121.156954 
L 271.707267 72.825523 
L 272.032246 239.27717 
L 272.357226 130.678869 
L 272.682205 77.269463 
L 273.007185 67.205058 
L 273.332164 205.788511 
L 273.657144 147.912758 
L 273.982123 147.890353 
L 274.307103 217.856817 
L 274.957062 61.822578 
L 275.282041 174.261871 
L 275.607021 144.89532 
L 275.932 27.693289 
L 276.25698 233.812371 
L 276.581959 109.638889 
L 276.906939 75.942445 
L 277.231919 72.072634 
L 277.556898 82.04185 
L 277.881878 79.709846 
L 278.206857 227.755881 
L 278.531837 122.367612 
L 278.856816 67.173549 
L 279.181796 219.980836 
L 279.506775 238.172789 
L 279.831755 60.165891 
L 280.156734 82.850053 
L 280.481714 149.413213 
L 280.806693 32.254247 
L 281.131673 70.804831 
L 281.456652 26.162285 
L 281.781632 34.712186 
L 282.106611 134.088836 
L 282.431591 73.441981 
L 282.75657 92.410823 
L 283.08155 60.857196 
L 283.406529 66.126744 
L 283.731509 206.856894 
L 284.056489 189.000225 
L 284.381468 181.903114 
L 284.706448 59.292677 
L 285.031427 61.013242 
L 285.356407 130.974206 
L 285.681386 112.009952 
L 286.006366 57.424222 
L 286.331345 171.508547 
L 286.656325 229.715345 
L 287.306284 38.172037 
L 287.631263 65.510138 
L 288.281222 226.478533 
L 288.606202 99.569119 
L 288.931181 55.745405 
L 289.256161 93.351932 
L 289.90612 213.484277 
L 290.2311 38.824808 
L 290.556079 179.634696 
L 290.881059 191.096016 
L 291.206038 59.852064 
L 291.531018 23.199097 
L 291.855997 94.414037 
L 292.180977 102.255046 
L 292.830936 236.317656 
L 293.155915 198.30251 
L 293.480895 111.211832 
L 293.805874 207.281777 
L 294.130854 44.800081 
L 294.455833 199.112829 
L 294.780813 125.036493 
L 295.105792 127.274845 
L 295.430772 106.883125 
L 295.755751 168.216751 
L 296.080731 47.085103 
L 296.40571 142.294126 
L 296.73069 85.543032 
L 297.05567 99.792848 
L 297.380649 214.858964 
L 297.705629 102.73663 
L 298.030608 118.693059 
L 298.355588 41.524302 
L 298.680567 45.456461 
L 299.005547 207.362001 
L 299.330526 222.726849 
L 299.655506 175.501472 
L 299.980485 22.002882 
L 300.305465 236.060282 
L 300.630444 91.589929 
L 300.955424 105.869864 
L 301.280403 97.426685 
L 301.605383 192.427144 
L 301.930362 190.556944 
L 302.255342 145.323959 
L 302.580321 219.583181 
L 302.905301 224.295491 
L 303.230281 221.246407 
L 303.55526 113.751862 
L 303.88024 152.621629 
L 304.205219 175.717836 
L 304.530199 170.79303 
L 304.855178 194.867651 
L 305.180158 149.568722 
L 305.505137 195.80486 
L 305.830117 86.01051 
L 306.155096 213.35587 
L 306.480076 30.513986 
L 306.805055 220.922675 
L 307.130035 31.574552 
L 307.455014 56.010653 
L 307.779994 89.855384 
L 308.104973 38.48601 
L 308.429953 209.965187 
L 308.754932 201.736847 
L 309.079912 184.915098 
L 309.404891 186.543435 
L 309.729871 171.895682 
L 310.054851 113.163677 
L 310.37983 234.59658 
L 310.70481 156.052899 
L 311.029789 186.194391 
L 311.679748 22.323074 
L 312.004728 126.023522 
L 312.329707 146.423447 
L 312.654687 159.164713 
L 312.979666 66.734329 
L 313.304646 224.879362 
L 313.629625 27.95684 
L 313.954605 148.14634 
L 314.279584 171.262973 
L 314.604564 24.785458 
L 314.929543 33.256299 
L 315.254523 98.456812 
L 315.579502 236.740447 
L 315.904482 74.81145 
L 316.229462 166.414897 
L 316.554441 154.720332 
L 316.879421 205.634674 
L 317.2044 124.736241 
L 317.52938 75.694791 
L 317.854359 180.288423 
L 318.179339 32.623237 
L 318.504318 197.650606 
L 318.829298 226.147815 
L 319.154277 97.917867 
L 319.479257 52.456388 
L 319.804236 29.429153 
L 320.129216 70.677751 
L 320.454195 196.560808 
L 320.779175 23.988472 
L 321.104154 36.903553 
L 321.429134 204.65309 
L 321.754113 116.900118 
L 322.079093 117.625089 
L 322.404072 142.686014 
L 322.729052 22.520043 
L 323.054032 227.620671 
L 323.379011 101.723047 
L 323.703991 195.306768 
L 324.35395 67.889625 
L 324.678929 186.118603 
L 325.003909 153.593678 
L 325.328888 29.953691 
L 325.978847 113.808643 
L 326.303827 191.603888 
L 326.628806 146.507691 
L 326.953786 69.149397 
L 327.278765 58.839178 
L 327.603745 186.588979 
L 327.928724 93.992605 
L 328.253704 219.772789 
L 328.578683 235.696836 
L 328.903663 119.143061 
L 329.228643 191.075428 
L 329.553622 223.34196 
L 329.878602 78.960816 
L 330.203581 130.38879 
L 330.528561 64.221687 
L 330.85354 93.574704 
L 331.17852 78.966 
L 331.503499 172.669294 
L 331.828479 182.447829 
L 332.153458 107.564252 
L 332.478438 196.464957 
L 332.803417 59.977288 
L 333.453376 190.496481 
L 334.103335 31.225193 
L 334.428315 222.635999 
L 334.753294 216.591512 
L 335.078274 53.671827 
L 335.403253 216.536376 
L 335.728233 232.111672 
L 336.053213 163.670375 
L 336.703172 114.535909 
L 337.028151 128.320249 
L 337.353131 38.29017 
L 337.67811 70.345679 
L 338.00309 22.624533 
L 338.653049 222.140275 
L 338.978028 28.897295 
L 339.303008 239.933259 
L 339.627987 68.698077 
L 339.952967 233.906873 
L 340.277946 71.999046 
L 340.602926 32.799349 
L 340.927905 154.502942 
L 341.252885 187.396674 
L 341.577864 190.654141 
L 341.902844 131.776657 
L 342.227824 202.940786 
L 342.552803 91.582966 
L 342.877783 159.140577 
L 343.202762 169.175994 
L 343.527742 138.526859 
L 343.852721 120.493104 
L 344.177701 209.36375 
L 344.50268 83.85509 
L 344.82766 44.997207 
L 345.152639 179.18473 
L 345.477619 200.832713 
L 345.802598 72.156259 
L 346.127578 200.133822 
L 346.452557 231.694712 
L 346.777537 103.489933 
L 347.102516 187.665829 
L 347.427496 202.73597 
L 347.752475 23.114187 
L 348.077455 176.106406 
L 348.402434 40.450903 
L 348.727414 201.314519 
L 349.052394 59.186524 
L 349.702353 223.412333 
L 350.027332 78.123035 
L 350.352312 42.972889 
L 350.677291 204.686458 
L 351.002271 79.900871 
L 351.32725 142.127549 
L 351.65223 73.627977 
L 351.977209 82.48771 
L 352.302189 234.945353 
L 352.627168 201.203109 
L 352.952148 136.366039 
L 353.277127 33.763071 
L 353.602107 164.969557 
L 353.927086 101.353827 
L 354.252066 238.165286 
L 354.577045 83.109012 
L 354.902025 107.077736 
L 355.227005 82.162356 
L 355.551984 40.180886 
L 355.876964 208.350363 
L 356.201943 182.821855 
L 356.526923 19.9693 
L 356.851902 206.179926 
L 357.176882 81.001777 
L 357.501861 80.014956 
L 357.826841 89.349292 
L 358.15182 190.39652 
L 358.4768 193.126257 
L 358.801779 93.043058 
L 359.126759 199.533053 
L 359.451738 94.102818 
L 359.776718 131.596847 
L 360.426677 174.250423 
L 360.751656 30.661524 
L 361.076636 128.144258 
L 361.401615 116.353099 
L 361.726595 30.289068 
L 362.051575 95.80767 
L 362.376554 28.382184 
L 362.701534 217.252172 
L 363.026513 53.050645 
L 363.351493 166.446566 
L 363.676472 61.069622 
L 364.001452 51.055003 
L 364.326431 180.626294 
L 364.651411 150.162007 
L 364.97639 79.806798 
L 365.30137 218.873865 
L 365.626349 73.259085 
L 365.951329 216.34137 
L 366.276308 38.00821 
L 366.601288 179.550193 
L 366.926267 113.170675 
L 367.251247 214.859537 
L 367.901206 151.243468 
L 368.226186 132.812246 
L 368.551165 240.830636 
L 368.876145 43.730956 
L 369.201124 239.143242 
L 369.526104 69.232966 
L 369.851083 136.465484 
L 370.176063 124.64265 
L 370.501042 194.649793 
L 370.826022 106.123924 
L 371.151001 121.681039 
L 371.475981 204.415976 
L 371.80096 188.027919 
L 372.12594 226.00557 
L 372.450919 226.143106 
L 372.775899 237.789971 
L 373.100878 191.941722 
L 373.425858 90.088485 
L 373.750837 170.705191 
L 374.075817 164.82298 
L 374.400796 211.587388 
L 374.725776 113.199218 
L 375.050756 164.953989 
L 375.375735 90.830319 
L 375.700715 76.380884 
L 376.025694 111.15362 
L 376.350674 179.610028 
L 376.675653 128.030215 
L 377.000633 184.964293 
L 377.325612 40.568564 
L 377.650592 70.851932 
L 377.975571 131.490904 
L 378.300551 26.695477 
L 378.62553 119.568603 
L 379.275489 219.6698 
L 379.925448 49.994743 
L 380.250428 48.596857 
L 380.900387 153.576196 
L 381.225367 96.601981 
L 381.550346 71.793612 
L 381.875326 149.542227 
L 382.200305 135.206643 
L 382.850264 46.393402 
L 383.175244 65.38989 
L 383.500223 235.87893 
L 383.825203 213.25831 
L 384.150182 51.68904 
L 384.475162 55.893568 
L 384.800141 154.603537 
L 385.125121 111.245662 
L 385.4501 39.918179 
L 385.77508 38.650811 
L 386.100059 67.146095 
L 386.425039 194.356233 
L 386.750018 78.860003 
L 387.074998 218.420746 
L 387.399977 42.55919 
L 387.724957 207.76259 
L 388.049937 93.928627 
L 388.374916 105.486231 
L 388.699896 68.51982 
L 389.024875 118.499012 
L 389.349855 227.633017 
L 389.674834 84.280328 
L 389.999814 155.857269 
L 390.324793 169.802501 
L 390.649773 20.880359 
L 390.649773 20.880359 
" style="fill:none;stroke:#1f77b4;stroke-linecap:round;stroke-width:1.5;"/>
   </g>
   <g id="line2d_13">
    <path clip-path="url(#p129fdd516f)" d="M 65.995227 136.698965 
L 66.320207 122.923506 
L 66.645186 93.731551 
L 66.970166 82.269466 
L 67.620125 158.902721 
L 67.945104 158.767004 
L 68.595063 101.586044 
L 68.920043 95.120969 
L 69.245023 83.551689 
L 69.570002 64.9853 
L 69.894982 75.166255 
L 70.544941 167.131553 
L 70.86992 143.506434 
L 71.1949 96.509328 
L 71.519879 95.79708 
L 71.844859 130.856254 
L 72.169838 140.946046 
L 73.144777 53.388863 
L 73.469756 53.533963 
L 73.794736 99.293136 
L 74.119715 168.818934 
L 74.444695 199.814841 
L 75.094654 124.82119 
L 75.419633 133.668868 
L 75.744613 171.782492 
L 76.069593 176.854989 
L 76.719552 86.98563 
L 77.044531 77.964105 
L 77.69449 128.537878 
L 78.01947 125.74263 
L 78.344449 124.864584 
L 78.669429 150.324725 
L 78.994408 191.451407 
L 79.319388 211.788109 
L 79.644367 187.969283 
L 79.969347 147.825436 
L 80.294326 136.651858 
L 80.619306 146.671455 
L 81.269265 139.463164 
L 81.594244 155.327836 
L 81.919224 161.4381 
L 82.894163 84.234183 
L 83.219142 89.812627 
L 83.869101 151.197422 
L 84.194081 156.682314 
L 84.51906 141.773008 
L 84.84404 133.691302 
L 85.169019 140.108134 
L 85.493999 140.781391 
L 86.143958 90.887346 
L 86.468937 95.241119 
L 86.793917 116.746086 
L 87.443876 138.155892 
L 87.768855 156.662646 
L 88.093835 162.999608 
L 88.743794 123.596499 
L 89.068774 130.99482 
L 89.393753 167.791061 
L 89.718733 181.147815 
L 90.368692 93.221595 
L 90.693671 104.038793 
L 91.018651 153.837436 
L 91.34363 179.426065 
L 91.66861 161.164993 
L 92.318569 99.540627 
L 92.643548 102.74414 
L 92.968528 118.580566 
L 93.293507 114.801308 
L 93.618487 93.629274 
L 93.943466 87.508382 
L 94.268446 107.171878 
L 94.593425 134.830975 
L 94.918405 144.506553 
L 95.243385 117.746297 
L 95.568364 71.99228 
L 95.893344 51.932318 
L 96.218323 71.73522 
L 97.193262 185.471695 
L 97.518241 188.990798 
L 98.1682 117.729399 
L 98.49318 103.928795 
L 98.818159 113.322228 
L 99.143139 117.996168 
L 99.468118 107.234633 
L 99.793098 106.310601 
L 100.443057 138.254523 
L 100.768036 142.813675 
L 101.417995 168.68579 
L 101.742975 165.021781 
L 102.067955 137.062372 
L 102.717914 67.113479 
L 103.042893 65.701637 
L 103.367873 83.543779 
L 103.692852 119.893593 
L 104.342811 216.396511 
L 104.667791 217.531972 
L 105.31775 172.762179 
L 105.642729 160.818647 
L 105.967709 154.872019 
L 106.617668 148.615944 
L 106.942647 137.295405 
L 107.592606 91.049839 
L 107.917586 84.742201 
L 108.242566 83.286899 
L 108.567545 76.112006 
L 108.892525 78.266738 
L 109.542484 122.103043 
L 109.867463 123.768799 
L 110.192443 126.66129 
L 110.517422 133.308448 
L 111.167381 108.323167 
L 111.492361 125.22613 
L 111.81734 151.196047 
L 112.14232 155.735192 
L 112.467299 147.861355 
L 112.792279 156.567963 
L 113.117258 185.226264 
L 113.442238 195.05518 
L 114.092197 106.165792 
L 114.417176 105.19539 
L 114.742156 152.289115 
L 115.067136 178.490767 
L 115.717095 114.73434 
L 116.042074 112.822817 
L 116.692033 151.740794 
L 117.017013 163.854142 
L 117.341992 159.816542 
L 117.666972 126.188951 
L 117.991951 76.219125 
L 118.316931 49.964757 
L 118.64191 70.352411 
L 119.291869 152.220214 
L 119.616849 148.731292 
L 120.266808 85.665377 
L 120.591787 87.45567 
L 120.916767 102.401192 
L 121.566726 116.693397 
L 121.891706 114.4341 
L 122.541665 47.371849 
L 122.866644 50.260536 
L 123.191624 90.431137 
L 123.516603 114.90134 
L 123.841583 104.719054 
L 124.166562 104.791691 
L 124.816521 186.932178 
L 125.141501 198.171989 
L 125.79146 148.986521 
L 126.116439 155.995197 
L 126.441419 168.199579 
L 126.766398 161.078797 
L 127.091378 158.942028 
L 127.416357 178.3819 
L 127.741337 189.751237 
L 128.391296 146.854979 
L 128.716276 142.347854 
L 129.691214 174.581427 
L 130.341173 185.524937 
L 130.666153 182.016847 
L 131.316112 141.433784 
L 131.641091 130.750857 
L 131.966071 116.394082 
L 132.61603 63.525137 
L 132.941009 71.813935 
L 133.590968 130.230536 
L 133.915948 172.454937 
L 134.240928 195.876764 
L 134.565907 171.685401 
L 134.890887 124.93754 
L 135.215866 100.099299 
L 135.540846 100.130209 
L 135.865825 94.890698 
L 136.515784 50.237581 
L 136.840764 54.842512 
L 137.165743 65.848214 
L 137.490723 69.105604 
L 137.815702 84.861247 
L 138.140682 116.089825 
L 138.465661 133.153212 
L 139.11562 126.11332 
L 139.4406 137.782682 
L 140.090559 179.238854 
L 140.415538 190.093915 
L 140.740518 183.360686 
L 142.040436 94.479078 
L 142.365416 94.596111 
L 143.340354 192.240498 
L 143.665334 192.708306 
L 143.990313 172.67238 
L 144.315293 139.484334 
L 144.640272 123.755483 
L 144.965252 127.12115 
L 145.290231 110.286597 
L 145.615211 70.535753 
L 145.94019 47.897082 
L 146.26517 61.632391 
L 146.590149 91.661726 
L 146.915129 101.27733 
L 147.240109 83.810362 
L 147.565088 79.082418 
L 148.540027 175.109001 
L 148.865006 178.717279 
L 149.189986 163.034855 
L 149.514965 139.708139 
L 149.839945 133.837309 
L 150.489904 158.620355 
L 150.814883 163.599142 
L 151.139863 172.858561 
L 151.464842 174.60077 
L 151.789822 169.044839 
L 152.439781 181.607915 
L 153.08974 121.475975 
L 153.414719 125.125485 
L 153.739699 155.841112 
L 154.064679 161.261151 
L 154.714638 86.064193 
L 155.039617 77.842802 
L 155.364597 92.164892 
L 155.689576 100.724683 
L 156.014556 88.653421 
L 156.339535 69.103993 
L 156.664515 64.982142 
L 157.314474 88.958591 
L 157.639453 87.108708 
L 157.964433 92.125723 
L 158.614392 138.870998 
L 158.939371 133.97279 
L 159.264351 123.98856 
L 159.58933 122.204813 
L 159.91431 117.341773 
L 160.23929 118.953257 
L 160.564269 133.815445 
L 160.889249 140.743082 
L 161.214228 140.453978 
L 161.539208 160.647357 
L 162.189167 227.663308 
L 162.514146 225.562873 
L 162.839126 198.401196 
L 163.489085 112.349123 
L 163.814064 99.627796 
L 164.139044 126.645913 
L 164.464023 163.912998 
L 164.789003 169.496191 
L 165.438962 89.977944 
L 165.763941 77.676663 
L 166.4139 137.931693 
L 166.73888 132.568436 
L 167.06386 104.73025 
L 167.388839 93.659513 
L 167.713819 113.631706 
L 168.038798 144.820663 
L 168.363778 161.053905 
L 168.688757 168.425829 
L 169.338716 206.239398 
L 169.663696 183.432711 
L 170.313655 96.516631 
L 170.963614 37.699348 
L 171.288593 26.078153 
L 171.613573 42.816808 
L 172.263532 144.599751 
L 172.588511 166.464131 
L 172.913491 159.21279 
L 173.238471 156.126132 
L 173.56345 154.285093 
L 173.88843 130.908115 
L 174.213409 96.856658 
L 174.538389 81.791138 
L 174.863368 95.181241 
L 175.188348 118.790879 
L 175.513327 126.8863 
L 175.838307 118.419297 
L 176.163286 119.378531 
L 176.488266 134.568781 
L 176.813245 138.43002 
L 177.138225 132.119518 
L 177.463204 142.363964 
L 178.113163 186.827517 
L 178.438143 174.459565 
L 179.088102 107.41161 
L 179.413081 121.923942 
L 179.738061 160.827864 
L 180.063041 179.651964 
L 180.38802 159.233547 
L 181.037979 88.533786 
L 181.362959 80.747093 
L 181.687938 91.520066 
L 182.012918 122.076566 
L 182.662877 207.320285 
L 182.987856 202.416167 
L 183.637815 138.344723 
L 183.962795 122.614248 
L 184.287774 126.978185 
L 184.612754 142.246953 
L 184.937733 137.77192 
L 185.587692 89.904834 
L 185.912672 102.475239 
L 186.562631 165.212835 
L 186.887611 143.170902 
L 187.53757 44.059959 
L 187.862549 52.416358 
L 188.512508 112.248343 
L 188.837488 120.011201 
L 189.162467 118.972144 
L 189.487447 131.156966 
L 189.812426 161.518569 
L 190.137406 176.80432 
L 191.112344 121.663415 
L 191.437324 112.918296 
L 191.762303 110.76779 
L 192.087283 126.995276 
L 192.412262 136.662784 
L 192.737242 125.300125 
L 193.062222 123.143971 
L 193.712181 165.958345 
L 194.03716 174.222683 
L 194.36214 174.992964 
L 194.687119 174.195734 
L 195.012099 159.956626 
L 195.987037 46.010746 
L 196.312017 66.85229 
L 196.961976 175.470238 
L 197.286955 158.866639 
L 197.611935 98.903568 
L 197.936914 64.031272 
L 198.261894 87.429436 
L 198.911853 176.394162 
L 199.236833 181.54985 
L 199.561812 173.634214 
L 200.211771 141.7403 
L 200.536751 141.420095 
L 200.86173 159.061241 
L 201.18671 163.530378 
L 201.836669 127.699084 
L 202.161648 120.54588 
L 202.486628 107.208883 
L 202.811607 85.470844 
L 203.136587 71.967874 
L 203.461566 83.587628 
L 204.111525 154.477495 
L 204.436505 157.987786 
L 205.086464 122.296926 
L 205.736423 129.831897 
L 206.061403 114.228311 
L 206.386382 93.288352 
L 206.711362 84.810639 
L 207.036341 85.892375 
L 207.361321 101.114351 
L 207.6863 132.262029 
L 208.01128 150.650999 
L 208.661239 131.684427 
L 208.986218 146.692202 
L 209.636177 210.808183 
L 209.961157 212.490407 
L 210.611116 195.678685 
L 210.936095 164.534625 
L 211.586054 69.931489 
L 211.911034 62.032879 
L 212.560993 96.043847 
L 213.535932 124.596137 
L 213.860911 129.344974 
L 214.185891 126.406324 
L 214.51087 129.525814 
L 214.83585 160.095151 
L 215.160829 205.107517 
L 215.485809 214.588629 
L 216.135768 93.786615 
L 216.460747 78.776883 
L 217.110706 172.165827 
L 217.435686 174.121687 
L 218.735604 77.114891 
L 219.060584 82.180602 
L 219.385563 98.601869 
L 219.710543 105.259359 
L 220.360502 82.735269 
L 220.685481 86.362921 
L 221.010461 95.001456 
L 221.33544 83.18333 
L 221.66042 60.030542 
L 221.985399 70.238691 
L 222.635358 183.869428 
L 222.960338 188.777557 
L 223.285317 172.375126 
L 223.610297 179.766179 
L 223.935276 191.743731 
L 224.260256 174.997591 
L 224.585235 148.279469 
L 224.910215 147.130552 
L 225.235195 159.777933 
L 225.560174 145.024751 
L 225.885154 113.13477 
L 226.210133 121.106707 
L 226.535113 167.40241 
L 226.860092 182.044043 
L 227.835031 57.350804 
L 228.16001 67.218767 
L 228.809969 164.006721 
L 229.134949 178.473246 
L 230.109887 63.869987 
L 230.434867 52.322869 
L 230.759846 71.930672 
L 231.409805 175.912968 
L 231.734785 184.807706 
L 232.059765 174.085857 
L 232.384744 171.488966 
L 232.709724 151.199915 
L 233.034703 106.47549 
L 233.359683 86.364625 
L 233.684662 111.549568 
L 234.009642 152.711284 
L 234.334621 175.163616 
L 234.659601 159.353297 
L 234.98458 129.521616 
L 235.30956 135.800712 
L 235.634539 173.602573 
L 235.959519 183.584685 
L 236.609478 93.008923 
L 236.934457 98.289637 
L 237.259437 144.651565 
L 237.584416 168.238476 
L 237.909396 143.102864 
L 238.234376 105.945977 
L 238.559355 91.003236 
L 238.884335 92.017364 
L 239.209314 102.560145 
L 239.859273 161.359569 
L 240.184253 154.948532 
L 240.834212 68.713727 
L 241.159191 75.761286 
L 241.80915 181.824188 
L 242.13413 183.221554 
L 242.784089 97.029191 
L 243.109068 112.97759 
L 243.434048 163.541029 
L 243.759027 181.967121 
L 244.408986 100.589796 
L 244.733966 106.784809 
L 245.383925 187.59411 
L 245.708905 180.615319 
L 246.358864 76.406486 
L 246.683843 70.730918 
L 247.333802 137.489353 
L 247.658782 133.777699 
L 248.308741 118.893054 
L 248.63372 100.130621 
L 248.9587 88.33039 
L 249.283679 93.58823 
L 249.608659 95.660419 
L 249.933638 99.534939 
L 250.258618 133.98123 
L 250.583597 186.950535 
L 250.908577 207.498376 
L 251.233557 176.989234 
L 251.558536 131.768692 
L 251.883516 107.135805 
L 252.208495 101.257371 
L 252.533475 101.995897 
L 252.858454 106.172029 
L 253.183434 116.069758 
L 253.508413 132.53768 
L 253.833393 137.860608 
L 254.483352 89.606734 
L 254.808331 92.880713 
L 255.133311 100.311485 
L 255.45829 92.62148 
L 255.78327 108.862882 
L 256.108249 159.667391 
L 256.433229 188.608579 
L 256.758208 163.580002 
L 257.083188 121.801539 
L 257.408167 109.983838 
L 257.733147 130.794659 
L 258.383106 184.684848 
L 258.708086 185.568611 
L 259.033065 160.404577 
L 259.683024 91.137083 
L 260.008004 103.733869 
L 260.657963 211.947317 
L 260.982942 200.465977 
L 261.632901 98.354942 
L 261.957881 94.988749 
L 262.60784 149.40497 
L 262.932819 157.742045 
L 263.257799 149.619683 
L 264.232738 118.058399 
L 264.882697 122.66237 
L 265.207676 114.633663 
L 265.532656 123.873539 
L 265.857635 158.935368 
L 266.182615 177.556808 
L 266.507594 161.739288 
L 267.482533 88.406366 
L 267.807512 74.078138 
L 268.132492 83.049872 
L 269.10743 137.172919 
L 269.43241 141.729371 
L 269.757389 136.061662 
L 270.082369 125.662271 
L 271.057308 74.680223 
L 271.382287 95.652097 
L 271.707267 138.752881 
L 272.032246 164.755337 
L 272.357226 145.038708 
L 272.682205 111.114418 
L 273.007185 113.356173 
L 273.657144 176.220546 
L 273.982123 187.288075 
L 274.307103 179.133239 
L 274.957062 133.242964 
L 275.282041 130.175229 
L 275.607021 132.033522 
L 276.25698 151.100908 
L 276.581959 137.740698 
L 276.906939 102.829953 
L 277.231919 81.758552 
L 277.556898 95.272269 
L 278.206857 156.704384 
L 278.531837 155.089219 
L 278.856816 161.71818 
L 279.181796 186.860364 
L 279.506775 185.210094 
L 280.156734 115.70491 
L 280.806693 83.865983 
L 281.131673 61.760582 
L 281.456652 56.305182 
L 282.106611 101.645177 
L 282.431591 105.38541 
L 282.75657 89.634925 
L 283.08155 86.986968 
L 283.406529 123.262859 
L 283.731509 178.821515 
L 284.056489 200.850497 
L 284.381468 167.262569 
L 284.706448 115.474996 
L 285.031427 92.638649 
L 285.356407 98.324545 
L 285.681386 109.677938 
L 286.006366 133.683125 
L 286.331345 173.162644 
L 286.656325 184.42787 
L 287.306284 92.084306 
L 287.631263 101.290649 
L 287.956243 151.765502 
L 288.281222 170.92764 
L 288.931181 96.903756 
L 289.256161 105.290131 
L 289.58114 138.432994 
L 289.90612 152.551405 
L 290.2311 151.146522 
L 290.556079 153.800492 
L 290.881059 138.492726 
L 291.531018 56.889614 
L 291.855997 68.941131 
L 292.830936 206.40271 
L 293.155915 194.22392 
L 293.805874 135.066345 
L 294.130854 127.522682 
L 294.455833 133.385545 
L 294.780813 135.427354 
L 295.430772 121.686602 
L 295.755751 111.805977 
L 296.080731 98.194383 
L 296.40571 91.346226 
L 296.73069 101.285399 
L 297.380649 144.40736 
L 297.705629 125.310385 
L 298.030608 79.854474 
L 298.355588 54.954061 
L 298.680567 87.35612 
L 299.005547 152.169705 
L 299.330526 180.891057 
L 299.980485 123.554042 
L 300.955424 99.167455 
L 301.280403 113.567588 
L 301.930362 163.60722 
L 302.255342 176.725605 
L 302.580321 194.470085 
L 302.905301 201.173324 
L 303.230281 178.46778 
L 303.55526 145.37238 
L 303.88024 134.854952 
L 304.530199 164.42207 
L 304.855178 168.099142 
L 305.180158 159.712436 
L 305.830117 132.426543 
L 306.480076 119.114168 
L 306.805055 103.889647 
L 307.455014 45.697436 
L 307.779994 49.465755 
L 308.104973 91.318513 
L 308.429953 150.686335 
L 308.754932 189.331584 
L 309.079912 190.630174 
L 309.729871 153.62832 
L 310.054851 157.56551 
L 310.37983 175.847151 
L 310.70481 178.553034 
L 311.029789 146.8393 
L 311.354769 98.000069 
L 311.679748 74.748635 
L 312.004728 95.422892 
L 312.329707 127.51177 
L 312.654687 138.332914 
L 312.979666 133.025275 
L 313.304646 125.291165 
L 313.629625 122.351012 
L 313.954605 122.872034 
L 314.279584 104.858381 
L 314.604564 69.566234 
L 314.929543 64.860431 
L 315.579502 145.038072 
L 315.904482 153.453298 
L 316.229462 157.081731 
L 316.554441 169.470768 
L 316.879421 167.668596 
L 317.52938 115.651758 
L 317.854359 109.476222 
L 318.179339 132.495023 
L 318.504318 170.762386 
L 318.829298 176.615958 
L 319.479257 69.393328 
L 319.804236 58.186295 
L 320.129216 86.921574 
L 320.454195 102.72118 
L 320.779175 92.288442 
L 321.104154 98.314541 
L 321.429134 129.088627 
L 321.754113 144.274577 
L 322.404072 111.539376 
L 322.729052 116.388232 
L 323.379011 161.227759 
L 323.703991 154.753367 
L 324.02897 136.767237 
L 324.35395 133.015468 
L 324.678929 137.990101 
L 325.003909 118.868643 
L 325.328888 84.549463 
L 325.653868 83.641021 
L 326.303827 153.250426 
L 326.628806 136.998835 
L 326.953786 100.49607 
L 327.278765 92.175507 
L 327.603745 119.319426 
L 328.253704 189.803717 
L 328.578683 196.16584 
L 328.903663 186.866914 
L 329.228643 180.861393 
L 329.553622 167.244891 
L 330.528561 76.7697 
L 330.85354 79.788788 
L 331.828479 160.51778 
L 332.153458 151.022701 
L 332.478438 130.256486 
L 332.803417 118.117645 
L 333.128397 122.737876 
L 333.453376 123.136508 
L 333.778356 109.819692 
L 334.103335 115.501392 
L 334.428315 145.077109 
L 334.753294 158.774862 
L 335.078274 158.655193 
L 335.728233 191.134852 
L 336.053213 176.119669 
L 337.353131 56.798302 
L 337.67811 42.983202 
L 338.00309 65.980536 
L 338.328069 110.700296 
L 338.653049 137.691499 
L 339.303008 143.732415 
L 339.627987 147.701467 
L 339.952967 130.154869 
L 340.277946 93.893888 
L 340.602926 82.298512 
L 341.252885 162.843567 
L 341.577864 176.917254 
L 341.902844 164.404421 
L 342.227824 145.509669 
L 342.552803 134.432509 
L 342.877783 137.066481 
L 343.202762 144.249036 
L 343.527742 147.192802 
L 343.852721 146.010797 
L 344.177701 130.977505 
L 344.50268 104.38802 
L 344.82766 100.468476 
L 345.477619 147.070666 
L 345.802598 154.576336 
L 346.452557 176.500547 
L 346.777537 172.423066 
L 347.102516 162.08844 
L 348.077455 99.88168 
L 348.402434 105.796774 
L 349.052394 124.782964 
L 349.377373 139.408225 
L 349.702353 139.206433 
L 350.027332 117.039606 
L 350.352312 106.815745 
L 350.677291 118.7506 
L 351.002271 121.060003 
L 351.32725 104.379882 
L 351.65223 99.632485 
L 351.977209 133.604605 
L 352.302189 180.448382 
L 352.627168 183.100091 
L 353.277127 102.321837 
L 353.602107 115.281299 
L 353.927086 151.381258 
L 354.252066 163.130269 
L 354.577045 135.004036 
L 354.902025 94.611094 
L 355.227005 80.219708 
L 355.551984 106.519199 
L 355.876964 144.293383 
L 356.201943 151.571328 
L 357.176882 102.165677 
L 357.501861 95.849206 
L 357.826841 120.04847 
L 358.15182 157.131204 
L 358.4768 170.566273 
L 358.801779 158.343107 
L 359.126759 141.589711 
L 359.451738 133.378856 
L 360.101697 144.144385 
L 360.426677 130.804932 
L 360.751656 108.401017 
L 361.726595 67.600025 
L 362.051575 66.443514 
L 362.701534 120.128754 
L 363.026513 123.644914 
L 363.676472 83.099241 
L 364.001452 90.507345 
L 364.326431 117.605951 
L 364.651411 134.206058 
L 364.97639 137.059665 
L 365.30137 138.486936 
L 365.626349 134.820399 
L 366.276308 109.970361 
L 366.601288 118.00048 
L 367.251247 165.861875 
L 367.576226 166.111845 
L 367.901206 154.180809 
L 368.226186 147.863926 
L 368.551165 144.080215 
L 368.876145 135.419383 
L 369.526104 111.525207 
L 369.851083 110.852251 
L 370.176063 122.755253 
L 370.501042 127.142797 
L 370.826022 120.449038 
L 371.151001 126.33805 
L 372.12594 208.5414 
L 372.450919 217.1222 
L 372.775899 199.182008 
L 373.425858 126.964788 
L 373.750837 131.536799 
L 374.075817 154.387795 
L 374.400796 161.363562 
L 374.725776 143.661841 
L 375.375735 85.617197 
L 375.700715 80.515983 
L 376.350674 138.046621 
L 376.675653 146.527105 
L 377.000633 122.17112 
L 377.325612 86.473108 
L 377.650592 66.438321 
L 377.975571 63.893425 
L 378.300551 77.218161 
L 378.95051 165.700623 
L 379.275489 174.238112 
L 379.925448 77.820672 
L 380.250428 70.05044 
L 380.900387 123.104739 
L 381.225367 123.236891 
L 381.550346 124.797487 
L 381.875326 136.04137 
L 382.200305 130.630629 
L 382.525285 103.081454 
L 382.850264 95.666768 
L 383.500223 195.829472 
L 383.825203 195.014156 
L 384.150182 150.128265 
L 384.475162 128.61205 
L 384.800141 138.584503 
L 385.125121 133.512042 
L 385.4501 107.398776 
L 385.77508 102.687106 
L 386.750018 205.761097 
L 387.074998 207.709967 
L 387.724957 204.16387 
L 388.374916 175.590756 
L 388.699896 182.473997 
L 389.349855 247.991636 
L 389.674834 261.216 
L 389.999814 258.958563 
L 390.324793 220.761208 
L 390.649773 134.702453 
L 390.649773 134.702453 
" style="fill:none;stroke:#ff7f0e;stroke-linecap:round;stroke-width:1.5;"/>
   </g>
   <g id="patch_3">
    <path d="M 49.7625 273.312 
L 49.7625 7.2 
" style="fill:none;stroke:#262626;stroke-linecap:square;stroke-linejoin:miter;stroke-width:1.25;"/>
   </g>
   <g id="patch_4">
    <path d="M 49.7625 273.312 
L 406.8825 273.312 
" style="fill:none;stroke:#262626;stroke-linecap:square;stroke-linejoin:miter;stroke-width:1.25;"/>
   </g>
   <g id="legend_1">
    <g id="line2d_14">
     <path d="M 58.7625 244.415125 
L 78.7625 244.415125 
" style="fill:none;stroke:#1f77b4;stroke-linecap:round;stroke-width:1.5;"/>
    </g>
    <g id="line2d_15"/>
    <g id="text_14">
     <!-- raw -->
     <defs>
      <path d="M 6.9375 0 
L 6.9375 40.53125 
Q 6.9375 42.1875 6.90625 43.921875 
Q 6.890625 45.65625 6.828125 47.265625 
Q 6.78125 48.875 6.734375 50.28125 
Q 6.6875 51.703125 6.640625 52.828125 
L 14.9375 52.828125 
Q 14.984375 51.703125 15.0625 50.265625 
Q 15.140625 48.828125 15.203125 47.3125 
Q 15.28125 45.796875 15.296875 44.40625 
Q 15.328125 43.015625 15.328125 42.046875 
L 15.53125 42.046875 
Q 16.453125 45.0625 17.5 47.28125 
Q 18.5625 49.515625 19.96875 50.953125 
Q 21.390625 52.390625 23.34375 53.09375 
Q 25.296875 53.8125 28.078125 53.8125 
Q 29.15625 53.8125 30.125 53.640625 
Q 31.109375 53.46875 31.640625 53.328125 
L 31.640625 45.265625 
Q 30.765625 45.515625 29.59375 45.625 
Q 28.421875 45.75 26.953125 45.75 
Q 23.921875 45.75 21.796875 44.375 
Q 19.671875 43.015625 18.328125 40.59375 
Q 17 38.1875 16.359375 34.84375 
Q 15.71875 31.5 15.71875 27.546875 
L 15.71875 0 
z
" id="LiberationSans-114"/>
      <path d="M 57.328125 0 
L 47.125 0 
L 38.671875 34.078125 
Q 38.28125 35.40625 37.859375 37.359375 
Q 37.453125 39.3125 37.0625 41.15625 
Q 36.578125 43.3125 36.140625 45.609375 
Q 35.6875 43.40625 35.203125 41.265625 
Q 34.8125 39.40625 34.34375 37.40625 
Q 33.890625 35.40625 33.5 33.890625 
L 24.8125 0 
L 14.65625 0 
L -0.140625 52.828125 
L 8.546875 52.828125 
L 17.484375 16.9375 
Q 17.828125 15.828125 18.15625 14.1875 
Q 18.5 12.546875 18.84375 10.984375 
Q 19.1875 9.1875 19.578125 7.28125 
Q 19.96875 9.125 20.40625 10.890625 
Q 20.796875 12.40625 21.1875 13.96875 
Q 21.578125 15.53125 21.875 16.546875 
L 31.453125 52.828125 
L 40.875 52.828125 
L 50.09375 16.546875 
Q 50.4375 15.28125 50.828125 13.671875 
Q 51.21875 12.0625 51.5625 10.640625 
Q 51.953125 8.984375 52.34375 7.28125 
Q 52.734375 9.125 53.125 10.890625 
Q 53.46875 12.40625 53.828125 14.03125 
Q 54.203125 15.671875 54.546875 16.9375 
L 63.875 52.828125 
L 72.46875 52.828125 
z
" id="LiberationSans-119"/>
     </defs>
     <g style="fill:#262626;" transform="translate(86.7625 247.915125)scale(0.1 -0.1)">
      <use xlink:href="#LiberationSans-114"/>
      <use x="33.300781" xlink:href="#LiberationSans-97"/>
      <use x="88.916016" xlink:href="#LiberationSans-119"/>
     </g>
    </g>
    <g id="line2d_16">
     <path d="M 58.7625 258.737 
L 78.7625 258.737 
" style="fill:none;stroke:#ff7f0e;stroke-linecap:round;stroke-width:1.5;"/>
    </g>
    <g id="line2d_17"/>
    <g id="text_15">
     <!-- band-pass @ 10-200Hz -->
     <defs>
      <path d="M 51.421875 26.65625 
Q 51.421875 -0.984375 31.984375 -0.984375 
Q 25.984375 -0.984375 22 1.1875 
Q 18.015625 3.375 15.53125 8.203125 
L 15.4375 8.203125 
Q 15.4375 6.9375 15.359375 5.5625 
Q 15.28125 4.203125 15.203125 3.03125 
Q 15.140625 1.859375 15.0625 1.03125 
Q 14.984375 0.203125 14.9375 0 
L 6.453125 0 
Q 6.5 0.4375 6.546875 1.484375 
Q 6.59375 2.546875 6.640625 4 
Q 6.6875 5.46875 6.703125 7.21875 
Q 6.734375 8.984375 6.734375 10.890625 
L 6.734375 72.46875 
L 15.53125 72.46875 
L 15.53125 51.8125 
Q 15.53125 50.34375 15.5 49 
Q 15.484375 47.65625 15.4375 46.625 
Q 15.375 45.40625 15.328125 44.34375 
L 15.53125 44.34375 
Q 17.96875 49.421875 22 51.609375 
Q 26.03125 53.8125 31.984375 53.8125 
Q 42 53.8125 46.703125 47.0625 
Q 51.421875 40.328125 51.421875 26.65625 
z
M 42.1875 26.375 
Q 42.1875 31.84375 41.5 35.75 
Q 40.828125 39.65625 39.3125 42.15625 
Q 37.796875 44.671875 35.453125 45.84375 
Q 33.109375 47.015625 29.734375 47.015625 
Q 26.265625 47.015625 23.609375 45.890625 
Q 20.953125 44.78125 19.171875 42.28125 
Q 17.390625 39.796875 16.453125 35.734375 
Q 15.53125 31.6875 15.53125 25.828125 
Q 15.53125 20.171875 16.453125 16.3125 
Q 17.390625 12.453125 19.171875 10.03125 
Q 20.953125 7.625 23.578125 6.5625 
Q 26.21875 5.515625 29.640625 5.515625 
Q 32.859375 5.515625 35.203125 6.640625 
Q 37.546875 7.765625 39.109375 10.25 
Q 40.671875 12.75 41.421875 16.71875 
Q 42.1875 20.703125 42.1875 26.375 
z
" id="LiberationSans-98"/>
      <path d="M 40.09375 8.5 
Q 37.640625 3.421875 33.609375 1.21875 
Q 29.59375 -0.984375 23.640625 -0.984375 
Q 13.625 -0.984375 8.90625 5.75 
Q 4.203125 12.5 4.203125 26.171875 
Q 4.203125 53.8125 23.640625 53.8125 
Q 29.640625 53.8125 33.640625 51.609375 
Q 37.640625 49.421875 40.09375 44.625 
L 40.1875 44.625 
Q 40.1875 45.125 40.15625 46.171875 
Q 40.140625 47.21875 40.109375 48.359375 
Q 40.09375 49.515625 40.09375 50.53125 
Q 40.09375 51.5625 40.09375 52 
L 40.09375 72.46875 
L 48.875 72.46875 
L 48.875 10.890625 
Q 48.875 8.984375 48.890625 7.21875 
Q 48.921875 5.46875 48.96875 4 
Q 49.03125 2.546875 49.078125 1.484375 
Q 49.125 0.4375 49.171875 0 
L 40.765625 0 
Q 40.671875 0.484375 40.59375 1.390625 
Q 40.53125 2.296875 40.453125 3.46875 
Q 40.375 4.640625 40.328125 5.9375 
Q 40.28125 7.234375 40.28125 8.5 
z
M 13.421875 26.46875 
Q 13.421875 21 14.109375 17.09375 
Q 14.796875 13.1875 16.3125 10.671875 
Q 17.828125 8.15625 20.171875 6.984375 
Q 22.515625 5.8125 25.875 5.8125 
Q 29.34375 5.8125 32 6.9375 
Q 34.671875 8.0625 36.453125 10.578125 
Q 38.234375 13.09375 39.15625 17.140625 
Q 40.09375 21.1875 40.09375 27.046875 
Q 40.09375 32.671875 39.15625 36.546875 
Q 38.234375 40.4375 36.421875 42.828125 
Q 34.625 45.21875 32 46.265625 
Q 29.390625 47.3125 25.984375 47.3125 
Q 22.75 47.3125 20.40625 46.1875 
Q 18.0625 45.0625 16.5 42.578125 
Q 14.9375 40.09375 14.171875 36.109375 
Q 13.421875 32.125 13.421875 26.46875 
z
" id="LiberationSans-100"/>
      <path d="M 4.4375 22.65625 
L 4.4375 30.46875 
L 28.859375 30.46875 
L 28.859375 22.65625 
z
" id="LiberationSans-45"/>
      <path d="M 51.421875 26.65625 
Q 51.421875 20.65625 50.4375 15.578125 
Q 49.46875 10.5 47.1875 6.828125 
Q 44.921875 3.171875 41.1875 1.09375 
Q 37.453125 -0.984375 31.984375 -0.984375 
Q 26.3125 -0.984375 22.0625 1.171875 
Q 17.828125 3.328125 15.578125 8.203125 
L 15.328125 8.203125 
Q 15.375 8.109375 15.40625 7.328125 
Q 15.4375 6.546875 15.453125 5.375 
Q 15.484375 4.203125 15.5 2.75 
Q 15.53125 1.3125 15.53125 -0.09375 
L 15.53125 -20.75 
L 6.734375 -20.75 
L 6.734375 42.046875 
Q 6.734375 43.953125 6.703125 45.703125 
Q 6.6875 47.46875 6.640625 48.90625 
Q 6.59375 50.34375 6.546875 51.359375 
Q 6.5 52.390625 6.453125 52.828125 
L 14.9375 52.828125 
Q 14.984375 52.6875 15.0625 51.796875 
Q 15.140625 50.921875 15.203125 49.671875 
Q 15.28125 48.4375 15.359375 47.015625 
Q 15.4375 45.609375 15.4375 44.34375 
L 15.625 44.34375 
Q 16.84375 46.875 18.40625 48.65625 
Q 19.96875 50.4375 21.96875 51.578125 
Q 23.96875 52.734375 26.4375 53.25 
Q 28.90625 53.765625 31.984375 53.765625 
Q 37.453125 53.765625 41.1875 51.8125 
Q 44.921875 49.859375 47.1875 46.3125 
Q 49.46875 42.78125 50.4375 37.765625 
Q 51.421875 32.765625 51.421875 26.65625 
z
M 42.1875 26.46875 
Q 42.1875 31.34375 41.59375 35.15625 
Q 41.015625 38.96875 39.578125 41.59375 
Q 38.140625 44.234375 35.734375 45.59375 
Q 33.34375 46.96875 29.734375 46.96875 
Q 26.8125 46.96875 24.21875 46.140625 
Q 21.625 45.3125 19.703125 42.96875 
Q 17.78125 40.625 16.65625 36.5 
Q 15.53125 32.375 15.53125 25.78125 
Q 15.53125 20.171875 16.453125 16.28125 
Q 17.390625 12.40625 19.171875 10.015625 
Q 20.953125 7.625 23.578125 6.5625 
Q 26.21875 5.515625 29.640625 5.515625 
Q 33.296875 5.515625 35.71875 6.921875 
Q 38.140625 8.34375 39.578125 11.03125 
Q 41.015625 13.71875 41.59375 17.59375 
Q 42.1875 21.484375 42.1875 26.46875 
z
" id="LiberationSans-112"/>
      <path id="LiberationSans-32"/>
      <path d="M 92.875 36.859375 
Q 92.875 29.828125 91.234375 24 
Q 89.59375 18.171875 86.71875 13.96875 
Q 83.84375 9.765625 79.8125 7.421875 
Q 75.78125 5.078125 71.046875 5.078125 
Q 68.3125 5.078125 66.375 5.734375 
Q 64.453125 6.390625 63.234375 7.53125 
Q 62.015625 8.6875 61.46875 10.25 
Q 60.9375 11.8125 60.9375 13.671875 
Q 60.9375 14.40625 60.984375 15.453125 
Q 61.03125 16.5 61.078125 17.09375 
L 60.796875 17.09375 
Q 59.625 14.890625 57.9375 12.71875 
Q 56.25 10.546875 53.96875 8.859375 
Q 51.703125 7.171875 48.84375 6.125 
Q 46 5.078125 42.53125 5.078125 
Q 38.421875 5.078125 35.375 6.484375 
Q 32.328125 7.90625 30.34375 10.421875 
Q 28.375 12.9375 27.390625 16.375 
Q 26.421875 19.828125 26.421875 23.875 
Q 26.421875 29.734375 28.15625 35.125 
Q 29.890625 40.53125 33.109375 44.65625 
Q 36.328125 48.78125 40.84375 51.265625 
Q 45.359375 53.765625 50.921875 53.765625 
Q 53.859375 53.765625 56.203125 53.09375 
Q 58.546875 52.4375 60.328125 51.265625 
Q 62.109375 50.09375 63.421875 48.453125 
Q 64.75 46.828125 65.625 44.875 
L 65.921875 44.875 
L 67.828125 52.6875 
L 75.4375 52.6875 
L 69.78125 27.984375 
Q 68.84375 23.875 68.40625 20.9375 
Q 67.96875 18.015625 67.96875 15.625 
Q 67.96875 13.28125 69.015625 12.15625 
Q 70.0625 11.03125 71.921875 11.03125 
Q 74.953125 11.03125 77.5625 13 
Q 80.171875 14.984375 82.09375 18.453125 
Q 84.03125 21.921875 85.125 26.609375 
Q 86.234375 31.296875 86.234375 36.765625 
Q 86.234375 43.0625 84.203125 48.484375 
Q 82.171875 53.90625 78.234375 57.859375 
Q 74.3125 61.8125 68.5 64.0625 
Q 62.703125 66.3125 55.078125 66.3125 
Q 48.53125 66.3125 42.984375 64.75 
Q 37.453125 63.1875 32.953125 60.34375 
Q 28.46875 57.515625 25.078125 53.578125 
Q 21.6875 49.65625 19.390625 44.96875 
Q 17.09375 40.28125 15.921875 34.9375 
Q 14.75 29.59375 14.75 23.96875 
Q 14.75 17.09375 16.84375 11.28125 
Q 18.953125 5.46875 22.96875 1.296875 
Q 27 -2.875 32.9375 -5.21875 
Q 38.875 -7.5625 46.578125 -7.5625 
Q 51.703125 -7.5625 56.140625 -6.75 
Q 60.59375 -5.953125 64.296875 -4.78125 
Q 68.015625 -3.609375 70.9375 -2.21875 
Q 73.875 -0.828125 76.03125 0.34375 
L 78.71875 -5.125 
Q 76.265625 -6.59375 72.96875 -8.125 
Q 69.671875 -9.671875 65.625 -10.9375 
Q 61.578125 -12.203125 56.78125 -13 
Q 52 -13.8125 46.578125 -13.8125 
Q 37.3125 -13.8125 30.109375 -11 
Q 22.90625 -8.203125 17.9375 -3.171875 
Q 12.984375 1.859375 10.421875 8.78125 
Q 7.859375 15.71875 7.859375 23.96875 
Q 7.859375 30.765625 9.390625 37.015625 
Q 10.9375 43.265625 13.8125 48.625 
Q 16.703125 54 20.84375 58.390625 
Q 25 62.796875 30.25 65.921875 
Q 35.5 69.046875 41.71875 70.75 
Q 47.953125 72.46875 54.984375 72.46875 
Q 64.796875 72.46875 71.921875 69.578125 
Q 79.046875 66.703125 83.703125 61.8125 
Q 88.375 56.9375 90.625 50.484375 
Q 92.875 44.046875 92.875 36.859375 
z
M 63.28125 36.46875 
Q 63.28125 38.921875 62.453125 40.96875 
Q 61.625 43.015625 60.078125 44.484375 
Q 58.546875 45.953125 56.375 46.75 
Q 54.203125 47.5625 51.46875 47.5625 
Q 47.265625 47.5625 44.09375 45.484375 
Q 40.921875 43.40625 38.796875 40.03125 
Q 36.671875 36.671875 35.5625 32.4375 
Q 34.46875 28.21875 34.46875 23.96875 
Q 34.46875 18.109375 36.78125 14.78125 
Q 39.109375 11.46875 43.953125 11.46875 
Q 47.3125 11.46875 50.234375 12.984375 
Q 53.171875 14.5 55.515625 16.984375 
Q 57.859375 19.484375 59.5625 22.703125 
Q 61.28125 25.921875 62.15625 29.390625 
Q 62.59375 31.15625 62.9375 33.109375 
Q 63.28125 35.0625 63.28125 36.46875 
z
" id="LiberationSans-64"/>
      <path d="M 54.734375 0 
L 54.734375 31.890625 
L 17.53125 31.890625 
L 17.53125 0 
L 8.203125 0 
L 8.203125 68.796875 
L 17.53125 68.796875 
L 17.53125 39.703125 
L 54.734375 39.703125 
L 54.734375 68.796875 
L 64.0625 68.796875 
L 64.0625 0 
z
" id="LiberationSans-72"/>
      <path d="M 2.390625 0 
L 2.390625 6.6875 
L 34.671875 46.046875 
L 4.34375 46.046875 
L 4.34375 52.828125 
L 44.578125 52.828125 
L 44.578125 46.140625 
L 12.25 6.78125 
L 46.390625 6.78125 
L 46.390625 0 
z
" id="LiberationSans-122"/>
     </defs>
     <g style="fill:#262626;" transform="translate(86.7625 262.237)scale(0.1 -0.1)">
      <use xlink:href="#LiberationSans-98"/>
      <use x="55.615234" xlink:href="#LiberationSans-97"/>
      <use x="111.230469" xlink:href="#LiberationSans-110"/>
      <use x="166.845703" xlink:href="#LiberationSans-100"/>
      <use x="222.460938" xlink:href="#LiberationSans-45"/>
      <use x="255.761719" xlink:href="#LiberationSans-112"/>
      <use x="311.376953" xlink:href="#LiberationSans-97"/>
      <use x="366.992188" xlink:href="#LiberationSans-115"/>
      <use x="416.992188" xlink:href="#LiberationSans-115"/>
      <use x="466.992188" xlink:href="#LiberationSans-32"/>
      <use x="494.775391" xlink:href="#LiberationSans-64"/>
      <use x="596.289062" xlink:href="#LiberationSans-32"/>
      <use x="624.072266" xlink:href="#LiberationSans-49"/>
      <use x="679.6875" xlink:href="#LiberationSans-48"/>
      <use x="735.302734" xlink:href="#LiberationSans-45"/>
      <use x="768.603516" xlink:href="#LiberationSans-50"/>
      <use x="824.21875" xlink:href="#LiberationSans-48"/>
      <use x="879.833984" xlink:href="#LiberationSans-48"/>
      <use x="935.449219" xlink:href="#LiberationSans-72"/>
      <use x="1007.666016" xlink:href="#LiberationSans-122"/>
     </g>
    </g>
   </g>
  </g>
 </g>
 <defs>
  <clipPath id="p129fdd516f">
   <rect height="266.112" width="357.12" x="49.7625" y="7.2"/>
  </clipPath>
 </defs>
</svg>
