<?xml version="1.0" encoding="utf-8" standalone="no"?>
<!DOCTYPE svg PUBLIC "-//W3C//DTD SVG 1.1//EN"
  "http://www.w3.org/Graphics/SVG/1.1/DTD/svg11.dtd">
<!-- Created with matplotlib (https://matplotlib.org/) -->
<svg height="312.65575pt" version="1.1" viewBox="0 0 414.0825 312.65575" width="414.0825pt" xmlns="http://www.w3.org/2000/svg" xmlns:xlink="http://www.w3.org/1999/xlink">
 <metadata>
  <rdf:RDF xmlns:cc="http://creativecommons.org/ns#" xmlns:dc="http://purl.org/dc/elements/1.1/" xmlns:rdf="http://www.w3.org/1999/02/22-rdf-syntax-ns#">
   <cc:Work>
    <dc:type rdf:resource="http://purl.org/dc/dcmitype/StillImage"/>
    <dc:date>2020-09-03T10:15:40.831000</dc:date>
    <dc:format>image/svg+xml</dc:format>
    <dc:creator>
     <cc:Agent>
      <dc:title>Matplotlib v3.3.1, https://matplotlib.org/</dc:title>
     </cc:Agent>
    </dc:creator>
   </cc:Work>
  </rdf:RDF>
 </metadata>
 <defs>
  <style type="text/css">*{stroke-linecap:butt;stroke-linejoin:round;}</style>
 </defs>
 <g id="figure_1">
  <g id="patch_1">
   <path d="M 0 312.65575 
L 414.0825 312.65575 
L 414.0825 0 
L 0 0 
z
" style="fill:#ffffff;"/>
  </g>
  <g id="axes_1">
   <g id="patch_2">
    <path d="M 49.7625 273.312 
L 406.8825 273.312 
L 406.8825 7.2 
L 49.7625 7.2 
z
" style="fill:#ffffff;"/>
   </g>
   <g id="matplotlib.axis_1">
    <g id="xtick_1">
     <g id="line2d_1">
      <defs>
       <path d="M 0 0 
L 0 6 
" id="mfd15fd9193" style="stroke:#262626;stroke-width:0.8;"/>
      </defs>
      <g>
       <use style="fill:#262626;stroke:#262626;stroke-width:0.8;" x="65.995227" xlink:href="#mfd15fd9193" y="273.312"/>
      </g>
     </g>
     <g id="text_1">
      <!-- 0 -->
      <g style="fill:#262626;" transform="translate(63.214759 290.058875)scale(0.1 -0.1)">
       <defs>
        <path d="M 51.703125 34.421875 
Q 51.703125 24.515625 49.828125 17.75 
Q 47.953125 10.984375 44.703125 6.8125 
Q 41.453125 2.640625 37.0625 0.828125 
Q 32.671875 -0.984375 27.6875 -0.984375 
Q 22.65625 -0.984375 18.3125 0.828125 
Q 13.96875 2.640625 10.765625 6.78125 
Q 7.5625 10.9375 5.734375 17.703125 
Q 3.90625 24.46875 3.90625 34.421875 
Q 3.90625 44.828125 5.734375 51.640625 
Q 7.5625 58.453125 10.78125 62.5 
Q 14.015625 66.546875 18.40625 68.1875 
Q 22.796875 69.828125 27.984375 69.828125 
Q 32.90625 69.828125 37.21875 68.1875 
Q 41.546875 66.546875 44.765625 62.5 
Q 48 58.453125 49.84375 51.640625 
Q 51.703125 44.828125 51.703125 34.421875 
z
M 42.78125 34.421875 
Q 42.78125 42.625 41.796875 48.0625 
Q 40.828125 53.515625 38.921875 56.765625 
Q 37.015625 60.015625 34.25 61.359375 
Q 31.5 62.703125 27.984375 62.703125 
Q 24.265625 62.703125 21.4375 61.328125 
Q 18.609375 59.96875 16.671875 56.71875 
Q 14.75 53.46875 13.765625 48.015625 
Q 12.796875 42.578125 12.796875 34.421875 
Q 12.796875 26.515625 13.796875 21.09375 
Q 14.796875 15.671875 16.71875 12.375 
Q 18.65625 9.078125 21.4375 7.640625 
Q 24.21875 6.203125 27.78125 6.203125 
Q 31.25 6.203125 34.03125 7.640625 
Q 36.8125 9.078125 38.734375 12.375 
Q 40.671875 15.671875 41.71875 21.09375 
Q 42.78125 26.515625 42.78125 34.421875 
z
" id="LiberationSans-48"/>
       </defs>
       <use xlink:href="#LiberationSans-48"/>
      </g>
     </g>
    </g>
    <g id="xtick_2">
     <g id="line2d_2">
      <g>
       <use style="fill:#262626;stroke:#262626;stroke-width:0.8;" x="130.991132" xlink:href="#mfd15fd9193" y="273.312"/>
      </g>
     </g>
     <g id="text_2">
      <!-- 200 -->
      <g style="fill:#262626;" transform="translate(122.649726 290.058875)scale(0.1 -0.1)">
       <defs>
        <path d="M 5.03125 0 
L 5.03125 6.203125 
Q 7.515625 11.921875 11.109375 16.28125 
Q 14.703125 20.65625 18.65625 24.1875 
Q 22.609375 27.734375 26.484375 30.765625 
Q 30.375 33.796875 33.5 36.8125 
Q 36.625 39.84375 38.546875 43.15625 
Q 40.484375 46.484375 40.484375 50.6875 
Q 40.484375 53.609375 39.59375 55.828125 
Q 38.71875 58.0625 37.0625 59.5625 
Q 35.40625 61.078125 33.078125 61.828125 
Q 30.765625 62.59375 27.9375 62.59375 
Q 25.296875 62.59375 22.96875 61.859375 
Q 20.65625 61.140625 18.84375 59.671875 
Q 17.046875 58.203125 15.890625 56.03125 
Q 14.75 53.859375 14.40625 50.984375 
L 5.421875 51.8125 
Q 5.859375 55.515625 7.46875 58.78125 
Q 9.078125 62.0625 11.90625 64.53125 
Q 14.75 67 18.71875 68.40625 
Q 22.703125 69.828125 27.9375 69.828125 
Q 33.0625 69.828125 37.0625 68.609375 
Q 41.0625 67.390625 43.8125 64.984375 
Q 46.578125 62.59375 48.046875 59.078125 
Q 49.515625 55.5625 49.515625 50.984375 
Q 49.515625 47.515625 48.265625 44.390625 
Q 47.015625 41.265625 44.9375 38.421875 
Q 42.875 35.59375 40.140625 32.953125 
Q 37.40625 30.328125 34.421875 27.8125 
Q 31.453125 25.296875 28.421875 22.828125 
Q 25.390625 20.359375 22.71875 17.859375 
Q 20.0625 15.375 17.96875 12.8125 
Q 15.875 10.25 14.703125 7.46875 
L 50.59375 7.46875 
L 50.59375 0 
z
" id="LiberationSans-50"/>
       </defs>
       <use xlink:href="#LiberationSans-50"/>
       <use x="55.615234" xlink:href="#LiberationSans-48"/>
       <use x="111.230469" xlink:href="#LiberationSans-48"/>
      </g>
     </g>
    </g>
    <g id="xtick_3">
     <g id="line2d_3">
      <g>
       <use style="fill:#262626;stroke:#262626;stroke-width:0.8;" x="195.987037" xlink:href="#mfd15fd9193" y="273.312"/>
      </g>
     </g>
     <g id="text_3">
      <!-- 400 -->
      <g style="fill:#262626;" transform="translate(187.645631 290.058875)scale(0.1 -0.1)">
       <defs>
        <path d="M 43.015625 15.578125 
L 43.015625 0 
L 34.71875 0 
L 34.71875 15.578125 
L 2.296875 15.578125 
L 2.296875 22.40625 
L 33.796875 68.796875 
L 43.015625 68.796875 
L 43.015625 22.515625 
L 52.6875 22.515625 
L 52.6875 15.578125 
z
M 34.71875 58.890625 
Q 34.625 58.640625 34.234375 57.9375 
Q 33.84375 57.234375 33.34375 56.34375 
Q 32.859375 55.46875 32.34375 54.5625 
Q 31.84375 53.65625 31.453125 53.078125 
L 13.8125 27.09375 
Q 13.578125 26.703125 13.109375 26.0625 
Q 12.640625 25.4375 12.15625 24.78125 
Q 11.671875 24.125 11.171875 23.484375 
Q 10.6875 22.859375 10.40625 22.515625 
L 34.71875 22.515625 
z
" id="LiberationSans-52"/>
       </defs>
       <use xlink:href="#LiberationSans-52"/>
       <use x="55.615234" xlink:href="#LiberationSans-48"/>
       <use x="111.230469" xlink:href="#LiberationSans-48"/>
      </g>
     </g>
    </g>
    <g id="xtick_4">
     <g id="line2d_4">
      <g>
       <use style="fill:#262626;stroke:#262626;stroke-width:0.8;" x="260.982942" xlink:href="#mfd15fd9193" y="273.312"/>
      </g>
     </g>
     <g id="text_4">
      <!-- 600 -->
      <g style="fill:#262626;" transform="translate(252.641536 290.058875)scale(0.1 -0.1)">
       <defs>
        <path d="M 51.21875 22.515625 
Q 51.21875 17.328125 49.78125 13 
Q 48.34375 8.6875 45.53125 5.578125 
Q 42.71875 2.484375 38.5625 0.75 
Q 34.421875 -0.984375 29 -0.984375 
Q 23 -0.984375 18.5 1.3125 
Q 14.015625 3.609375 11.03125 7.921875 
Q 8.0625 12.25 6.5625 18.53125 
Q 5.078125 24.8125 5.078125 32.8125 
Q 5.078125 42 6.765625 48.921875 
Q 8.453125 55.859375 11.625 60.5 
Q 14.796875 65.140625 19.359375 67.484375 
Q 23.921875 69.828125 29.6875 69.828125 
Q 33.203125 69.828125 36.28125 69.09375 
Q 39.359375 68.359375 41.875 66.71875 
Q 44.390625 65.09375 46.28125 62.40625 
Q 48.1875 59.71875 49.3125 55.8125 
L 40.921875 54.296875 
Q 39.546875 58.734375 36.546875 60.71875 
Q 33.546875 62.703125 29.59375 62.703125 
Q 25.984375 62.703125 23.046875 60.984375 
Q 20.125 59.28125 18.0625 55.875 
Q 16.015625 52.484375 14.90625 47.359375 
Q 13.8125 42.234375 13.8125 35.40625 
Q 16.21875 39.84375 20.5625 42.15625 
Q 24.90625 44.484375 30.515625 44.484375 
Q 35.203125 44.484375 39.015625 42.96875 
Q 42.828125 41.453125 45.53125 38.59375 
Q 48.25 35.75 49.734375 31.671875 
Q 51.21875 27.59375 51.21875 22.515625 
z
M 42.28125 22.125 
Q 42.28125 25.6875 41.40625 28.5625 
Q 40.53125 31.453125 38.765625 33.46875 
Q 37.015625 35.5 34.421875 36.59375 
Q 31.84375 37.703125 28.421875 37.703125 
Q 26.03125 37.703125 23.578125 36.984375 
Q 21.140625 36.28125 19.15625 34.6875 
Q 17.1875 33.109375 15.9375 30.515625 
Q 14.703125 27.9375 14.703125 24.21875 
Q 14.703125 20.40625 15.671875 17.109375 
Q 16.65625 13.8125 18.484375 11.375 
Q 20.3125 8.9375 22.890625 7.515625 
Q 25.484375 6.109375 28.71875 6.109375 
Q 31.890625 6.109375 34.40625 7.203125 
Q 36.921875 8.296875 38.671875 10.375 
Q 40.4375 12.453125 41.359375 15.421875 
Q 42.28125 18.40625 42.28125 22.125 
z
" id="LiberationSans-54"/>
       </defs>
       <use xlink:href="#LiberationSans-54"/>
       <use x="55.615234" xlink:href="#LiberationSans-48"/>
       <use x="111.230469" xlink:href="#LiberationSans-48"/>
      </g>
     </g>
    </g>
    <g id="xtick_5">
     <g id="line2d_5">
      <g>
       <use style="fill:#262626;stroke:#262626;stroke-width:0.8;" x="325.978847" xlink:href="#mfd15fd9193" y="273.312"/>
      </g>
     </g>
     <g id="text_5">
      <!-- 800 -->
      <g style="fill:#262626;" transform="translate(317.637441 290.058875)scale(0.1 -0.1)">
       <defs>
        <path d="M 51.265625 19.1875 
Q 51.265625 14.796875 49.875 11.109375 
Q 48.484375 7.421875 45.625 4.734375 
Q 42.78125 2.046875 38.328125 0.53125 
Q 33.890625 -0.984375 27.828125 -0.984375 
Q 21.78125 -0.984375 17.359375 0.53125 
Q 12.9375 2.046875 10.03125 4.703125 
Q 7.125 7.375 5.734375 11.0625 
Q 4.34375 14.75 4.34375 19.09375 
Q 4.34375 22.859375 5.484375 25.78125 
Q 6.640625 28.71875 8.5625 30.828125 
Q 10.5 32.953125 12.96875 34.25 
Q 15.4375 35.546875 18.0625 35.984375 
L 18.0625 36.1875 
Q 15.1875 36.859375 12.90625 38.375 
Q 10.640625 39.890625 9.09375 42.015625 
Q 7.5625 44.140625 6.75 46.71875 
Q 5.953125 49.3125 5.953125 52.203125 
Q 5.953125 55.8125 7.34375 59 
Q 8.734375 62.203125 11.46875 64.625 
Q 14.203125 67.046875 18.25 68.4375 
Q 22.3125 69.828125 27.640625 69.828125 
Q 33.25 69.828125 37.375 68.40625 
Q 41.5 67 44.203125 64.578125 
Q 46.921875 62.15625 48.234375 58.9375 
Q 49.5625 55.71875 49.5625 52.09375 
Q 49.5625 49.265625 48.75 46.671875 
Q 47.953125 44.09375 46.40625 41.96875 
Q 44.875 39.84375 42.59375 38.34375 
Q 40.328125 36.859375 37.359375 36.28125 
L 37.359375 36.078125 
Q 40.328125 35.59375 42.859375 34.296875 
Q 45.40625 33.015625 47.265625 30.890625 
Q 49.125 28.765625 50.1875 25.828125 
Q 51.265625 22.90625 51.265625 19.1875 
z
M 40.4375 51.609375 
Q 40.4375 54.203125 39.765625 56.34375 
Q 39.109375 58.5 37.59375 60.03125 
Q 36.078125 61.578125 33.640625 62.421875 
Q 31.203125 63.28125 27.640625 63.28125 
Q 24.171875 63.28125 21.78125 62.421875 
Q 19.390625 61.578125 17.84375 60.03125 
Q 16.3125 58.5 15.625 56.34375 
Q 14.9375 54.203125 14.9375 51.609375 
Q 14.9375 49.5625 15.46875 47.40625 
Q 16.015625 45.265625 17.421875 43.5 
Q 18.84375 41.75 21.328125 40.625 
Q 23.828125 39.5 27.734375 39.5 
Q 31.890625 39.5 34.40625 40.625 
Q 36.921875 41.75 38.25 43.5 
Q 39.59375 45.265625 40.015625 47.40625 
Q 40.4375 49.5625 40.4375 51.609375 
z
M 42.140625 20.015625 
Q 42.140625 22.515625 41.453125 24.828125 
Q 40.765625 27.15625 39.109375 28.9375 
Q 37.453125 30.71875 34.640625 31.8125 
Q 31.84375 32.90625 27.640625 32.90625 
Q 23.78125 32.90625 21.0625 31.8125 
Q 18.359375 30.71875 16.671875 28.90625 
Q 14.984375 27.09375 14.203125 24.71875 
Q 13.421875 22.359375 13.421875 19.828125 
Q 13.421875 16.65625 14.203125 14.03125 
Q 14.984375 11.421875 16.6875 9.546875 
Q 18.40625 7.671875 21.1875 6.640625 
Q 23.96875 5.609375 27.9375 5.609375 
Q 31.9375 5.609375 34.671875 6.640625 
Q 37.40625 7.671875 39.0625 9.546875 
Q 40.71875 11.421875 41.421875 14.078125 
Q 42.140625 16.75 42.140625 20.015625 
z
" id="LiberationSans-56"/>
       </defs>
       <use xlink:href="#LiberationSans-56"/>
       <use x="55.615234" xlink:href="#LiberationSans-48"/>
       <use x="111.230469" xlink:href="#LiberationSans-48"/>
      </g>
     </g>
    </g>
    <g id="xtick_6">
     <g id="line2d_6">
      <g>
       <use style="fill:#262626;stroke:#262626;stroke-width:0.8;" x="390.974752" xlink:href="#mfd15fd9193" y="273.312"/>
      </g>
     </g>
     <g id="text_6">
      <!-- 1000 -->
      <g style="fill:#262626;" transform="translate(379.852877 290.058875)scale(0.1 -0.1)">
       <defs>
        <path d="M 7.625 0 
L 7.625 7.46875 
L 25.140625 7.46875 
L 25.140625 60.40625 
L 9.625 49.3125 
L 9.625 57.625 
L 25.875 68.796875 
L 33.984375 68.796875 
L 33.984375 7.46875 
L 50.734375 7.46875 
L 50.734375 0 
z
" id="LiberationSans-49"/>
       </defs>
       <use xlink:href="#LiberationSans-49"/>
       <use x="55.615234" xlink:href="#LiberationSans-48"/>
       <use x="111.230469" xlink:href="#LiberationSans-48"/>
       <use x="166.845703" xlink:href="#LiberationSans-48"/>
      </g>
     </g>
    </g>
    <g id="text_7">
     <!-- time -->
     <g style="fill:#262626;" transform="translate(218.877188 303.38075)scale(0.1 -0.1)">
      <defs>
       <path d="M 27.046875 0.390625 
Q 25.046875 -0.140625 22.96875 -0.453125 
Q 20.90625 -0.78125 18.171875 -0.78125 
Q 7.625 -0.78125 7.625 11.1875 
L 7.625 46.4375 
L 1.515625 46.4375 
L 1.515625 52.828125 
L 7.953125 52.828125 
L 10.546875 64.65625 
L 16.40625 64.65625 
L 16.40625 52.828125 
L 26.171875 52.828125 
L 26.171875 46.4375 
L 16.40625 46.4375 
L 16.40625 13.09375 
Q 16.40625 9.28125 17.640625 7.734375 
Q 18.890625 6.203125 21.96875 6.203125 
Q 23.25 6.203125 24.4375 6.390625 
Q 25.640625 6.59375 27.046875 6.890625 
z
" id="LiberationSans-116"/>
       <path d="M 6.6875 64.0625 
L 6.6875 72.46875 
L 15.484375 72.46875 
L 15.484375 64.0625 
z
M 6.6875 0 
L 6.6875 52.828125 
L 15.484375 52.828125 
L 15.484375 0 
z
" id="LiberationSans-105"/>
       <path d="M 37.5 0 
L 37.5 33.5 
Q 37.5 37.359375 37.015625 39.9375 
Q 36.53125 42.53125 35.375 44.109375 
Q 34.234375 45.703125 32.375 46.359375 
Q 30.515625 47.015625 27.828125 47.015625 
Q 25.046875 47.015625 22.796875 45.921875 
Q 20.5625 44.828125 18.96875 42.75 
Q 17.390625 40.671875 16.53125 37.625 
Q 15.671875 34.578125 15.671875 30.609375 
L 15.671875 0 
L 6.9375 0 
L 6.9375 41.546875 
Q 6.9375 43.21875 6.90625 45.046875 
Q 6.890625 46.875 6.828125 48.5 
Q 6.78125 50.140625 6.734375 51.3125 
Q 6.6875 52.484375 6.640625 52.828125 
L 14.9375 52.828125 
Q 14.984375 52.59375 15.03125 51.515625 
Q 15.09375 50.4375 15.15625 49.046875 
Q 15.234375 47.65625 15.28125 46.21875 
Q 15.328125 44.78125 15.328125 43.796875 
L 15.484375 43.796875 
Q 16.65625 46.09375 18.015625 47.953125 
Q 19.390625 49.8125 21.21875 51.09375 
Q 23.046875 52.390625 25.40625 53.09375 
Q 27.78125 53.8125 30.90625 53.8125 
Q 36.921875 53.8125 40.40625 51.421875 
Q 43.890625 49.03125 45.265625 43.796875 
L 45.40625 43.796875 
Q 46.578125 46.09375 48.046875 47.953125 
Q 49.515625 49.8125 51.46875 51.09375 
Q 53.421875 52.390625 55.859375 53.09375 
Q 58.296875 53.8125 61.421875 53.8125 
Q 65.4375 53.8125 68.328125 52.734375 
Q 71.234375 51.65625 73.09375 49.40625 
Q 74.953125 47.171875 75.828125 43.625 
Q 76.703125 40.09375 76.703125 35.203125 
L 76.703125 0 
L 68.015625 0 
L 68.015625 33.5 
Q 68.015625 37.359375 67.53125 39.9375 
Q 67.046875 42.53125 65.890625 44.109375 
Q 64.75 45.703125 62.890625 46.359375 
Q 61.03125 47.015625 58.34375 47.015625 
Q 55.5625 47.015625 53.3125 45.96875 
Q 51.078125 44.921875 49.484375 42.875 
Q 47.90625 40.828125 47.046875 37.75 
Q 46.1875 34.671875 46.1875 30.609375 
L 46.1875 0 
z
" id="LiberationSans-109"/>
       <path d="M 13.484375 24.5625 
Q 13.484375 20.40625 14.328125 16.90625 
Q 15.1875 13.421875 16.96875 10.90625 
Q 18.75 8.40625 21.53125 7 
Q 24.3125 5.609375 28.21875 5.609375 
Q 33.9375 5.609375 37.375 7.90625 
Q 40.828125 10.203125 42.046875 13.71875 
L 49.75 11.53125 
Q 48.921875 9.328125 47.4375 7.109375 
Q 45.953125 4.890625 43.453125 3.09375 
Q 40.96875 1.3125 37.234375 0.15625 
Q 33.5 -0.984375 28.21875 -0.984375 
Q 16.5 -0.984375 10.375 6 
Q 4.25 12.984375 4.25 26.765625 
Q 4.25 34.1875 6.09375 39.328125 
Q 7.953125 44.484375 11.171875 47.703125 
Q 14.40625 50.921875 18.703125 52.359375 
Q 23 53.8125 27.875 53.8125 
Q 34.515625 53.8125 38.984375 51.65625 
Q 43.453125 49.515625 46.15625 45.71875 
Q 48.875 41.9375 50.015625 36.8125 
Q 51.171875 31.6875 51.171875 25.734375 
L 51.171875 24.5625 
z
M 42.09375 31.296875 
Q 41.359375 39.65625 37.84375 43.484375 
Q 34.328125 47.3125 27.734375 47.3125 
Q 25.53125 47.3125 23.109375 46.609375 
Q 20.703125 45.90625 18.65625 44.09375 
Q 16.609375 42.28125 15.1875 39.171875 
Q 13.765625 36.078125 13.578125 31.296875 
z
" id="LiberationSans-101"/>
      </defs>
      <use xlink:href="#LiberationSans-116"/>
      <use x="27.783203" xlink:href="#LiberationSans-105"/>
      <use x="50" xlink:href="#LiberationSans-109"/>
      <use x="133.300781" xlink:href="#LiberationSans-101"/>
     </g>
    </g>
   </g>
   <g id="matplotlib.axis_2">
    <g id="ytick_1">
     <g id="line2d_7">
      <defs>
       <path d="M 0 0 
L -6 0 
" id="me024b0ef15" style="stroke:#262626;stroke-width:0.8;"/>
      </defs>
      <g>
       <use style="fill:#262626;stroke:#262626;stroke-width:0.8;" x="49.7625" xlink:href="#me024b0ef15" y="238.84769"/>
      </g>
     </g>
     <g id="text_8">
      <!-- −1.0 -->
      <g style="fill:#262626;" transform="translate(20.521875 242.471128)scale(0.1 -0.1)">
       <defs>
        <path d="M 4.9375 29.6875 
L 4.9375 36.8125 
L 53.515625 36.8125 
L 53.515625 29.6875 
z
" id="LiberationSans-8722"/>
        <path d="M 9.125 0 
L 9.125 10.6875 
L 18.65625 10.6875 
L 18.65625 0 
z
" id="LiberationSans-46"/>
       </defs>
       <use xlink:href="#LiberationSans-8722"/>
       <use x="58.398438" xlink:href="#LiberationSans-49"/>
       <use x="114.013672" xlink:href="#LiberationSans-46"/>
       <use x="141.796875" xlink:href="#LiberationSans-48"/>
      </g>
     </g>
    </g>
    <g id="ytick_2">
     <g id="line2d_8">
      <g>
       <use style="fill:#262626;stroke:#262626;stroke-width:0.8;" x="49.7625" xlink:href="#me024b0ef15" y="187.766339"/>
      </g>
     </g>
     <g id="text_9">
      <!-- −0.5 -->
      <g style="fill:#262626;" transform="translate(20.521875 191.389777)scale(0.1 -0.1)">
       <defs>
        <path d="M 51.421875 22.40625 
Q 51.421875 17.234375 49.859375 12.9375 
Q 48.296875 8.640625 45.21875 5.53125 
Q 42.140625 2.4375 37.578125 0.71875 
Q 33.015625 -0.984375 27 -0.984375 
Q 21.578125 -0.984375 17.546875 0.28125 
Q 13.53125 1.5625 10.734375 3.78125 
Q 7.953125 6 6.3125 8.984375 
Q 4.6875 11.96875 4 15.375 
L 12.890625 16.40625 
Q 13.421875 14.453125 14.390625 12.625 
Q 15.375 10.796875 17.0625 9.34375 
Q 18.75 7.90625 21.21875 7.046875 
Q 23.6875 6.203125 27.203125 6.203125 
Q 30.609375 6.203125 33.390625 7.25 
Q 36.1875 8.296875 38.15625 10.34375 
Q 40.140625 12.40625 41.203125 15.375 
Q 42.28125 18.359375 42.28125 22.21875 
Q 42.28125 25.390625 41.25 28.046875 
Q 40.234375 30.71875 38.328125 32.640625 
Q 36.421875 34.578125 33.65625 35.640625 
Q 30.90625 36.71875 27.390625 36.71875 
Q 25.203125 36.71875 23.34375 36.328125 
Q 21.484375 35.9375 19.890625 35.25 
Q 18.3125 34.578125 17.015625 33.671875 
Q 15.71875 32.765625 14.59375 31.78125 
L 6 31.78125 
L 8.296875 68.796875 
L 47.40625 68.796875 
L 47.40625 61.328125 
L 16.3125 61.328125 
L 14.984375 39.5 
Q 17.328125 41.3125 20.84375 42.59375 
Q 24.359375 43.890625 29.203125 43.890625 
Q 34.328125 43.890625 38.421875 42.328125 
Q 42.53125 40.765625 45.40625 37.90625 
Q 48.296875 35.0625 49.859375 31.109375 
Q 51.421875 27.15625 51.421875 22.40625 
z
" id="LiberationSans-53"/>
       </defs>
       <use xlink:href="#LiberationSans-8722"/>
       <use x="58.398438" xlink:href="#LiberationSans-48"/>
       <use x="114.013672" xlink:href="#LiberationSans-46"/>
       <use x="141.796875" xlink:href="#LiberationSans-53"/>
      </g>
     </g>
    </g>
    <g id="ytick_3">
     <g id="line2d_9">
      <g>
       <use style="fill:#262626;stroke:#262626;stroke-width:0.8;" x="49.7625" xlink:href="#me024b0ef15" y="136.684988"/>
      </g>
     </g>
     <g id="text_10">
      <!-- 0.0 -->
      <g style="fill:#262626;" transform="translate(26.3625 140.308426)scale(0.1 -0.1)">
       <use xlink:href="#LiberationSans-48"/>
       <use x="55.615234" xlink:href="#LiberationSans-46"/>
       <use x="83.398438" xlink:href="#LiberationSans-48"/>
      </g>
     </g>
    </g>
    <g id="ytick_4">
     <g id="line2d_10">
      <g>
       <use style="fill:#262626;stroke:#262626;stroke-width:0.8;" x="49.7625" xlink:href="#me024b0ef15" y="85.603637"/>
      </g>
     </g>
     <g id="text_11">
      <!-- 0.5 -->
      <g style="fill:#262626;" transform="translate(26.3625 89.227075)scale(0.1 -0.1)">
       <use xlink:href="#LiberationSans-48"/>
       <use x="55.615234" xlink:href="#LiberationSans-46"/>
       <use x="83.398438" xlink:href="#LiberationSans-53"/>
      </g>
     </g>
    </g>
    <g id="ytick_5">
     <g id="line2d_11">
      <g>
       <use style="fill:#262626;stroke:#262626;stroke-width:0.8;" x="49.7625" xlink:href="#me024b0ef15" y="34.522286"/>
      </g>
     </g>
     <g id="text_12">
      <!-- 1.0 -->
      <g style="fill:#262626;" transform="translate(26.3625 38.145724)scale(0.1 -0.1)">
       <use xlink:href="#LiberationSans-49"/>
       <use x="55.615234" xlink:href="#LiberationSans-46"/>
       <use x="83.398438" xlink:href="#LiberationSans-48"/>
      </g>
     </g>
    </g>
    <g id="text_13">
     <!-- analogs -->
     <g style="fill:#262626;" transform="translate(14.446875 157.769281)rotate(-90)scale(0.1 -0.1)">
      <defs>
       <path d="M 20.21875 -0.984375 
Q 12.25 -0.984375 8.25 3.21875 
Q 4.25 7.421875 4.25 14.75 
Q 4.25 19.96875 6.21875 23.3125 
Q 8.203125 26.65625 11.390625 28.5625 
Q 14.59375 30.46875 18.6875 31.203125 
Q 22.796875 31.9375 27.046875 32.03125 
L 38.921875 32.234375 
L 38.921875 35.109375 
Q 38.921875 38.375 38.234375 40.671875 
Q 37.546875 42.96875 36.125 44.375 
Q 34.71875 45.796875 32.59375 46.453125 
Q 30.46875 47.125 27.59375 47.125 
Q 25.046875 47.125 23 46.75 
Q 20.953125 46.390625 19.4375 45.4375 
Q 17.921875 44.484375 16.984375 42.84375 
Q 16.0625 41.21875 15.765625 38.71875 
L 6.59375 39.546875 
Q 7.078125 42.671875 8.4375 45.28125 
Q 9.8125 47.90625 12.328125 49.796875 
Q 14.84375 51.703125 18.625 52.75 
Q 22.40625 53.8125 27.78125 53.8125 
Q 37.75 53.8125 42.765625 49.234375 
Q 47.796875 44.671875 47.796875 36.03125 
L 47.796875 13.28125 
Q 47.796875 9.375 48.828125 7.390625 
Q 49.859375 5.421875 52.734375 5.421875 
Q 53.46875 5.421875 54.203125 5.515625 
Q 54.9375 5.609375 55.609375 5.765625 
L 55.609375 0.296875 
Q 53.953125 -0.09375 52.3125 -0.28125 
Q 50.6875 -0.484375 48.828125 -0.484375 
Q 46.34375 -0.484375 44.5625 0.171875 
Q 42.78125 0.828125 41.65625 2.171875 
Q 40.53125 3.515625 39.9375 5.484375 
Q 39.359375 7.46875 39.203125 10.109375 
L 38.921875 10.109375 
Q 37.5 7.5625 35.8125 5.515625 
Q 34.125 3.46875 31.875 2.03125 
Q 29.640625 0.59375 26.78125 -0.1875 
Q 23.921875 -0.984375 20.21875 -0.984375 
z
M 22.21875 5.609375 
Q 26.421875 5.609375 29.5625 7.140625 
Q 32.71875 8.6875 34.78125 11.078125 
Q 36.859375 13.484375 37.890625 16.3125 
Q 38.921875 19.140625 38.921875 21.734375 
L 38.921875 26.078125 
L 29.296875 25.875 
Q 26.078125 25.828125 23.171875 25.40625 
Q 20.265625 25 18.0625 23.78125 
Q 15.875 22.5625 14.578125 20.359375 
Q 13.28125 18.171875 13.28125 14.59375 
Q 13.28125 10.296875 15.59375 7.953125 
Q 17.921875 5.609375 22.21875 5.609375 
z
" id="LiberationSans-97"/>
       <path d="M 40.28125 0 
L 40.28125 33.5 
Q 40.28125 37.359375 39.71875 39.9375 
Q 39.15625 42.53125 37.890625 44.109375 
Q 36.625 45.703125 34.546875 46.359375 
Q 32.46875 47.015625 29.390625 47.015625 
Q 26.265625 47.015625 23.75 45.921875 
Q 21.234375 44.828125 19.453125 42.75 
Q 17.671875 40.671875 16.6875 37.625 
Q 15.71875 34.578125 15.71875 30.609375 
L 15.71875 0 
L 6.9375 0 
L 6.9375 41.546875 
Q 6.9375 43.21875 6.90625 45.046875 
Q 6.890625 46.875 6.828125 48.5 
Q 6.78125 50.140625 6.734375 51.3125 
Q 6.6875 52.484375 6.640625 52.828125 
L 14.9375 52.828125 
Q 14.984375 52.59375 15.03125 51.515625 
Q 15.09375 50.4375 15.15625 49.046875 
Q 15.234375 47.65625 15.28125 46.21875 
Q 15.328125 44.78125 15.328125 43.796875 
L 15.484375 43.796875 
Q 16.75 46.09375 18.265625 47.953125 
Q 19.78125 49.8125 21.78125 51.09375 
Q 23.78125 52.390625 26.359375 53.09375 
Q 28.953125 53.8125 32.375 53.8125 
Q 36.765625 53.8125 39.9375 52.734375 
Q 43.109375 51.65625 45.15625 49.40625 
Q 47.21875 47.171875 48.171875 43.625 
Q 49.125 40.09375 49.125 35.203125 
L 49.125 0 
z
" id="LiberationSans-110"/>
       <path d="M 6.734375 0 
L 6.734375 72.46875 
L 15.53125 72.46875 
L 15.53125 0 
z
" id="LiberationSans-108"/>
       <path d="M 51.421875 26.46875 
Q 51.421875 12.59375 45.3125 5.796875 
Q 39.203125 -0.984375 27.59375 -0.984375 
Q 22.078125 -0.984375 17.71875 0.671875 
Q 13.375 2.34375 10.375 5.765625 
Q 7.375 9.1875 5.78125 14.328125 
Q 4.203125 19.484375 4.203125 26.46875 
Q 4.203125 53.8125 27.875 53.8125 
Q 34.03125 53.8125 38.5 52.09375 
Q 42.96875 50.390625 45.828125 46.96875 
Q 48.6875 43.5625 50.046875 38.421875 
Q 51.421875 33.296875 51.421875 26.46875 
z
M 42.1875 26.46875 
Q 42.1875 32.625 41.234375 36.625 
Q 40.28125 40.625 38.453125 43.015625 
Q 36.625 45.40625 33.984375 46.359375 
Q 31.34375 47.3125 28.03125 47.3125 
Q 24.65625 47.3125 21.9375 46.3125 
Q 19.234375 45.3125 17.328125 42.890625 
Q 15.4375 40.484375 14.421875 36.46875 
Q 13.421875 32.46875 13.421875 26.46875 
Q 13.421875 20.3125 14.5 16.28125 
Q 15.578125 12.25 17.453125 9.859375 
Q 19.34375 7.46875 21.90625 6.484375 
Q 24.46875 5.515625 27.484375 5.515625 
Q 30.859375 5.515625 33.59375 6.46875 
Q 36.328125 7.421875 38.234375 9.8125 
Q 40.140625 12.203125 41.15625 16.25 
Q 42.1875 20.3125 42.1875 26.46875 
z
" id="LiberationSans-111"/>
       <path d="M 26.765625 -20.75 
Q 22.21875 -20.75 18.703125 -19.8125 
Q 15.1875 -18.890625 12.6875 -17.15625 
Q 10.203125 -15.4375 8.640625 -13.03125 
Q 7.078125 -10.640625 6.390625 -7.71875 
L 15.234375 -6.453125 
Q 16.109375 -10.109375 19.109375 -12.078125 
Q 22.125 -14.0625 27 -14.0625 
Q 29.984375 -14.0625 32.421875 -13.234375 
Q 34.859375 -12.40625 36.5625 -10.5625 
Q 38.28125 -8.734375 39.203125 -5.796875 
Q 40.140625 -2.875 40.140625 1.3125 
L 40.140625 9.8125 
L 40.046875 9.8125 
Q 39.0625 7.8125 37.625 5.984375 
Q 36.1875 4.15625 34.109375 2.734375 
Q 32.03125 1.3125 29.296875 0.453125 
Q 26.5625 -0.390625 23.046875 -0.390625 
Q 18.015625 -0.390625 14.421875 1.296875 
Q 10.84375 2.984375 8.5625 6.34375 
Q 6.296875 9.71875 5.25 14.71875 
Q 4.203125 19.734375 4.203125 26.3125 
Q 4.203125 32.671875 5.25 37.75 
Q 6.296875 42.828125 8.65625 46.359375 
Q 11.03125 49.90625 14.8125 51.78125 
Q 18.609375 53.65625 24.03125 53.65625 
Q 29.640625 53.65625 33.765625 51.09375 
Q 37.890625 48.53125 40.140625 43.796875 
L 40.234375 43.796875 
Q 40.234375 45.015625 40.296875 46.53125 
Q 40.375 48.046875 40.453125 49.390625 
Q 40.53125 50.734375 40.625 51.703125 
Q 40.71875 52.6875 40.828125 52.828125 
L 49.171875 52.828125 
Q 49.125 52.390625 49.078125 51.34375 
Q 49.03125 50.296875 48.96875 48.828125 
Q 48.921875 47.359375 48.890625 45.578125 
Q 48.875 43.796875 48.875 41.890625 
L 48.875 1.515625 
Q 48.875 -9.578125 43.421875 -15.15625 
Q 37.984375 -20.75 26.765625 -20.75 
z
M 40.140625 26.421875 
Q 40.140625 31.9375 38.9375 35.859375 
Q 37.75 39.796875 35.796875 42.28125 
Q 33.84375 44.78125 31.328125 45.953125 
Q 28.8125 47.125 26.171875 47.125 
Q 22.796875 47.125 20.375 45.953125 
Q 17.96875 44.78125 16.375 42.265625 
Q 14.796875 39.75 14.03125 35.8125 
Q 13.28125 31.890625 13.28125 26.421875 
Q 13.28125 20.703125 14.03125 16.8125 
Q 14.796875 12.9375 16.359375 10.546875 
Q 17.921875 8.15625 20.3125 7.125 
Q 22.703125 6.109375 26.03125 6.109375 
Q 28.65625 6.109375 31.171875 7.21875 
Q 33.6875 8.34375 35.6875 10.78125 
Q 37.703125 13.234375 38.921875 17.09375 
Q 40.140625 20.953125 40.140625 26.421875 
z
" id="LiberationSans-103"/>
       <path d="M 46.390625 14.59375 
Q 46.390625 10.890625 44.9375 7.984375 
Q 43.5 5.078125 40.765625 3.09375 
Q 38.03125 1.125 34.046875 0.0625 
Q 30.078125 -0.984375 24.953125 -0.984375 
Q 20.359375 -0.984375 16.671875 -0.265625 
Q 12.984375 0.4375 10.203125 2 
Q 7.421875 3.5625 5.53125 6.125 
Q 3.65625 8.6875 2.78125 12.40625 
L 10.546875 13.921875 
Q 11.671875 9.671875 15.1875 7.6875 
Q 18.703125 5.71875 24.953125 5.71875 
Q 27.78125 5.71875 30.140625 6.109375 
Q 32.515625 6.5 34.21875 7.453125 
Q 35.9375 8.40625 36.890625 9.984375 
Q 37.84375 11.578125 37.84375 13.921875 
Q 37.84375 16.3125 36.71875 17.84375 
Q 35.59375 19.390625 33.59375 20.40625 
Q 31.59375 21.4375 28.734375 22.1875 
Q 25.875 22.953125 22.46875 23.875 
Q 19.28125 24.703125 16.15625 25.734375 
Q 13.03125 26.765625 10.515625 28.4375 
Q 8.015625 30.125 6.453125 32.609375 
Q 4.890625 35.109375 4.890625 38.875 
Q 4.890625 46.09375 10.03125 49.875 
Q 15.1875 53.65625 25.046875 53.65625 
Q 33.796875 53.65625 38.9375 50.578125 
Q 44.09375 47.515625 45.453125 40.71875 
L 37.546875 39.75 
Q 37.109375 41.796875 35.9375 43.1875 
Q 34.765625 44.578125 33.109375 45.4375 
Q 31.453125 46.296875 29.375 46.65625 
Q 27.296875 47.015625 25.046875 47.015625 
Q 19.09375 47.015625 16.25 45.203125 
Q 13.421875 43.40625 13.421875 39.75 
Q 13.421875 37.59375 14.46875 36.203125 
Q 15.53125 34.8125 17.40625 33.859375 
Q 19.28125 32.90625 21.921875 32.203125 
Q 24.5625 31.5 27.734375 30.71875 
Q 29.828125 30.171875 32.03125 29.5625 
Q 34.234375 28.953125 36.296875 28.09375 
Q 38.375 27.25 40.203125 26.09375 
Q 42.046875 24.953125 43.40625 23.34375 
Q 44.78125 21.734375 45.578125 19.578125 
Q 46.390625 17.4375 46.390625 14.59375 
z
" id="LiberationSans-115"/>
      </defs>
      <use xlink:href="#LiberationSans-97"/>
      <use x="55.615234" xlink:href="#LiberationSans-110"/>
      <use x="111.230469" xlink:href="#LiberationSans-97"/>
      <use x="166.845703" xlink:href="#LiberationSans-108"/>
      <use x="189.0625" xlink:href="#LiberationSans-111"/>
      <use x="244.677734" xlink:href="#LiberationSans-103"/>
      <use x="300.292969" xlink:href="#LiberationSans-115"/>
     </g>
    </g>
   </g>
   <g id="line2d_12">
    <path clip-path="url(#p6f05c3f003)" d="M 65.995227 53.008513 
L 66.320207 69.692741 
L 66.645186 205.411505 
L 66.970166 60.84546 
L 67.295145 183.220603 
L 67.620125 222.323947 
L 67.945104 104.642207 
L 68.270084 105.258789 
L 68.595063 219.450669 
L 68.920043 173.698166 
L 69.245023 35.990474 
L 69.570002 100.227888 
L 69.894982 89.674787 
L 70.219961 195.34328 
L 70.544941 222.750512 
L 70.86992 182.269641 
L 71.1949 187.991427 
L 71.519879 190.924372 
L 71.844859 199.463086 
L 72.169838 121.410502 
L 72.494818 171.807815 
L 72.819797 71.230364 
L 73.144777 201.26256 
L 73.469756 143.912576 
L 73.794736 236.057047 
L 74.119715 140.427755 
L 74.444695 227.438523 
L 74.769674 39.073939 
L 75.094654 77.309634 
L 75.419633 138.705465 
L 75.744613 221.155693 
L 76.069593 117.796036 
L 76.394572 83.812981 
L 76.719552 199.879311 
L 77.044531 122.748292 
L 77.369511 72.48372 
L 77.69449 81.875153 
L 78.01947 74.776022 
L 78.669429 47.255416 
L 78.994408 155.989417 
L 79.319388 122.633714 
L 79.644367 77.295863 
L 79.969347 96.404316 
L 80.294326 35.437618 
L 80.619306 236.052999 
L 80.944285 166.284953 
L 81.269265 181.426546 
L 81.594244 185.249898 
L 81.919224 193.379203 
L 82.244204 93.955675 
L 82.569183 221.529177 
L 82.894163 87.318166 
L 83.219142 97.163175 
L 83.544122 187.602035 
L 83.869101 187.187326 
L 84.194081 110.355497 
L 84.84404 59.759413 
L 85.169019 64.73393 
L 85.493999 41.697583 
L 85.818978 120.055987 
L 86.143958 53.186276 
L 86.468937 73.647889 
L 86.793917 56.044367 
L 87.118896 236.47208 
L 87.443876 41.489171 
L 87.768855 142.093449 
L 88.093835 75.758629 
L 88.418814 212.856657 
L 88.743794 157.946866 
L 89.068774 183.381381 
L 89.393753 179.254394 
L 89.718733 213.663436 
L 90.043712 74.20967 
L 90.368692 236.959251 
L 90.693671 174.994887 
L 91.018651 203.211186 
L 91.34363 118.492071 
L 91.66861 186.897466 
L 91.993589 185.927727 
L 92.643548 105.486739 
L 92.968528 214.062058 
L 93.618487 188.343611 
L 93.943466 39.886193 
L 94.268446 157.699345 
L 94.593425 116.458798 
L 94.918405 189.494358 
L 95.243385 138.63435 
L 95.568364 223.70326 
L 95.893344 231.748987 
L 96.218323 143.073523 
L 96.543303 157.39147 
L 96.868282 210.879564 
L 97.193262 98.353251 
L 97.518241 35.972284 
L 97.843221 158.006994 
L 98.1682 111.234495 
L 98.49318 42.087242 
L 98.818159 68.943971 
L 99.143139 144.132195 
L 99.468118 88.159854 
L 99.793098 212.666447 
L 100.118077 134.211863 
L 100.443057 181.828587 
L 100.768036 205.917855 
L 101.093016 151.747672 
L 101.417995 212.078089 
L 101.742975 96.027276 
L 102.067955 145.626259 
L 102.392934 130.321349 
L 102.717914 208.939368 
L 103.042893 210.288789 
L 103.692852 37.585176 
L 104.017832 219.181251 
L 104.342811 180.465501 
L 104.667791 61.195105 
L 104.99277 224.080682 
L 105.31775 59.881987 
L 105.642729 131.722745 
L 106.292688 175.572084 
L 106.617668 178.139107 
L 106.942647 176.364454 
L 107.267627 58.059944 
L 107.592606 90.957938 
L 107.917586 102.006266 
L 108.242566 75.642948 
L 108.567545 186.312633 
L 108.892525 112.565843 
L 109.217504 144.84447 
L 109.542484 78.974987 
L 109.867463 175.658811 
L 110.517422 58.589283 
L 111.167381 225.235105 
L 111.492361 133.405398 
L 111.81734 168.156722 
L 112.467299 44.527504 
L 112.792279 139.625575 
L 113.117258 143.593183 
L 113.442238 105.099387 
L 113.767217 217.700521 
L 114.092197 187.049936 
L 114.417176 51.076869 
L 114.742156 101.961395 
L 115.067136 236.100731 
L 115.392115 197.037508 
L 115.717095 99.32669 
L 116.367054 67.243044 
L 116.692033 179.148547 
L 117.017013 48.614896 
L 117.341992 125.866593 
L 117.666972 96.527073 
L 117.991951 116.918781 
L 118.316931 213.768779 
L 118.64191 42.058899 
L 118.96689 213.741088 
L 119.291869 186.768832 
L 119.616849 72.602845 
L 119.941828 112.452616 
L 120.266808 67.592524 
L 120.591787 133.469685 
L 120.916767 161.818395 
L 121.241747 50.491236 
L 121.566726 231.440421 
L 121.891706 63.918537 
L 122.216685 191.685753 
L 122.541665 65.429297 
L 122.866644 210.406286 
L 123.516603 57.384681 
L 123.841583 142.091511 
L 124.166562 86.305153 
L 124.491542 74.432837 
L 124.816521 88.363214 
L 125.141501 49.779318 
L 125.46648 147.548106 
L 125.79146 203.473765 
L 126.116439 229.078675 
L 126.441419 188.489678 
L 126.766398 209.588803 
L 127.091378 124.844588 
L 127.416357 201.05866 
L 127.741337 230.892545 
L 128.066317 231.494054 
L 128.391296 68.936917 
L 129.041255 165.681766 
L 129.366235 56.134184 
L 129.691214 224.504739 
L 130.016194 38.542987 
L 130.666153 201.361283 
L 130.991132 100.096622 
L 131.316112 82.869506 
L 131.641091 151.122053 
L 131.966071 62.79426 
L 132.29105 208.04923 
L 132.61603 181.874089 
L 132.941009 219.744826 
L 133.265989 195.75999 
L 133.590968 190.069329 
L 133.915948 51.351918 
L 134.240928 222.887897 
L 134.565907 151.515923 
L 134.890887 130.065114 
L 135.215866 55.221869 
L 135.540846 34.993008 
L 135.865825 84.91136 
L 136.190805 40.490429 
L 136.515784 78.022934 
L 136.840764 42.040922 
L 137.165743 94.334314 
L 137.490723 222.549996 
L 138.140682 106.731439 
L 138.465661 167.186989 
L 138.790641 182.988411 
L 139.4406 48.109542 
L 139.765579 231.700005 
L 140.090559 81.674214 
L 140.415538 91.176147 
L 140.740518 41.887517 
L 141.065498 48.679744 
L 141.390477 83.104214 
L 142.040436 197.11064 
L 142.365416 127.442182 
L 142.690395 82.466835 
L 143.015375 55.839717 
L 143.340354 77.489465 
L 143.665334 198.949695 
L 143.990313 116.316542 
L 144.640272 236.966739 
L 144.965252 197.937467 
L 145.290231 215.713835 
L 145.615211 66.658765 
L 145.94019 186.028296 
L 146.26517 180.676663 
L 146.590149 42.708263 
L 146.915129 161.390643 
L 147.240109 236.889101 
L 147.565088 180.850711 
L 147.890068 214.471755 
L 148.215047 217.841289 
L 148.540027 223.015069 
L 148.865006 117.62971 
L 149.189986 200.15914 
L 149.514965 165.036611 
L 149.839945 62.715572 
L 150.164924 152.144629 
L 150.489904 51.748685 
L 150.814883 137.106297 
L 151.139863 157.355238 
L 151.464842 85.52417 
L 151.789822 223.896159 
L 152.114801 220.564984 
L 152.439781 105.632898 
L 152.76476 139.353332 
L 153.08974 77.345775 
L 153.414719 51.630281 
L 153.739699 159.494471 
L 154.064679 116.985971 
L 154.389658 136.54265 
L 154.714638 38.279697 
L 155.039617 69.036033 
L 155.364597 52.556515 
L 155.689576 186.879549 
L 156.014556 81.000917 
L 156.339535 184.604766 
L 156.664515 196.196288 
L 156.989494 45.910126 
L 157.314474 234.903308 
L 157.639453 41.594254 
L 157.964433 208.349693 
L 158.289412 71.415673 
L 158.614392 182.469703 
L 158.939371 167.190296 
L 159.264351 194.558583 
L 159.58933 119.212297 
L 159.91431 167.722927 
L 160.23929 104.525592 
L 160.564269 235.650546 
L 161.214228 218.484385 
L 161.864187 72.364133 
L 162.189167 57.37038 
L 162.514146 188.826637 
L 162.839126 121.489365 
L 163.164105 81.851203 
L 163.489085 179.8325 
L 164.139044 131.78645 
L 164.464023 211.289333 
L 164.789003 233.538848 
L 165.113982 207.625582 
L 165.438962 110.765571 
L 165.763941 223.805609 
L 166.4139 169.815559 
L 166.73888 222.936858 
L 167.06386 199.678659 
L 167.388839 52.652123 
L 167.713819 234.904387 
L 168.038798 105.334949 
L 168.363778 160.30318 
L 168.688757 101.408465 
L 169.013737 118.563017 
L 169.338716 193.181217 
L 169.663696 65.74127 
L 169.988675 138.331773 
L 170.313655 70.782686 
L 170.638634 155.889015 
L 170.963614 37.651417 
L 171.288593 81.417141 
L 171.613573 41.479525 
L 171.938552 133.757725 
L 172.263532 142.060558 
L 172.588511 84.489286 
L 173.238471 41.848211 
L 173.56345 172.533491 
L 173.88843 75.652056 
L 174.213409 195.807444 
L 174.538389 127.372992 
L 174.863368 202.100145 
L 175.188348 167.865584 
L 175.513327 48.547516 
L 175.838307 208.997649 
L 176.163286 109.632122 
L 176.488266 117.692069 
L 176.813245 214.177778 
L 177.463204 123.816267 
L 177.788184 200.602346 
L 178.113163 75.259938 
L 178.438143 40.211419 
L 178.763122 194.966889 
L 179.088102 200.656828 
L 179.738061 86.060248 
L 180.063041 181.309532 
L 180.38802 234.78572 
L 181.037979 43.389893 
L 181.362959 158.899889 
L 181.687938 153.003528 
L 182.012918 40.876456 
L 182.337897 96.92171 
L 182.662877 91.902597 
L 182.987856 123.873376 
L 183.312836 39.71027 
L 183.637815 98.094768 
L 183.962795 55.969762 
L 184.287774 95.946821 
L 184.612754 88.644853 
L 184.937733 179.509361 
L 185.262713 176.839283 
L 185.587692 78.864036 
L 185.912672 178.223058 
L 186.237652 123.859468 
L 186.562631 187.898679 
L 186.887611 71.917231 
L 187.21259 216.269457 
L 187.53757 69.370671 
L 187.862549 115.69468 
L 188.187529 200.657324 
L 188.512508 128.096091 
L 188.837488 181.126001 
L 189.487447 167.021581 
L 189.812426 225.90996 
L 190.137406 37.390671 
L 190.462385 232.404365 
L 190.787365 103.482749 
L 191.112344 162.996451 
L 191.437324 106.851377 
L 191.762303 166.057122 
L 192.087283 101.183317 
L 192.412262 89.84635 
L 192.737242 97.750243 
L 193.062222 215.562363 
L 193.387201 104.627715 
L 194.03716 232.962839 
L 194.36214 154.087246 
L 194.687119 150.263821 
L 195.012099 143.392147 
L 195.337078 94.834208 
L 195.662058 175.743054 
L 195.987037 174.427872 
L 196.312017 226.475326 
L 196.636996 98.512668 
L 196.961976 122.826395 
L 197.286955 167.451263 
L 197.611935 94.759667 
L 197.936914 129.051851 
L 198.261894 142.969027 
L 198.586873 134.371096 
L 198.911853 108.825603 
L 199.236833 103.992392 
L 199.561812 179.806267 
L 199.886792 210.090246 
L 200.211771 206.843348 
L 200.536751 108.203889 
L 200.86173 60.497504 
L 201.18671 155.177198 
L 201.511689 204.210415 
L 201.836669 84.254579 
L 202.161648 68.748942 
L 202.486628 58.922327 
L 202.811607 114.856614 
L 203.136587 62.97898 
L 203.461566 235.698023 
L 203.786546 216.936692 
L 204.111525 219.932048 
L 204.436505 93.24445 
L 204.761484 224.630364 
L 205.086464 137.42784 
L 205.411443 142.261662 
L 205.736423 175.363067 
L 206.061403 61.001802 
L 206.386382 204.023858 
L 206.711362 166.83059 
L 207.036341 80.664786 
L 207.361321 232.631639 
L 207.6863 101.346828 
L 208.336259 48.361688 
L 208.661239 59.798025 
L 208.986218 173.589402 
L 209.311198 119.0386 
L 209.636177 223.054666 
L 209.961157 186.158298 
L 210.286136 219.595665 
L 210.611116 174.44692 
L 210.936095 60.02471 
L 211.261075 167.912686 
L 211.586054 124.037634 
L 211.911034 150.296974 
L 212.236014 145.079386 
L 212.560993 40.739489 
L 212.885973 178.335809 
L 213.210952 110.669365 
L 213.535932 153.018216 
L 213.860911 226.353972 
L 214.51087 72.660986 
L 214.83585 218.66995 
L 215.160829 224.628308 
L 215.485809 207.456868 
L 215.810788 82.661329 
L 216.135768 90.917041 
L 216.460747 123.400207 
L 216.785727 143.177141 
L 217.110706 57.34016 
L 217.435686 82.191848 
L 217.760665 72.947262 
L 218.085645 72.677542 
L 218.735604 145.263667 
L 219.060584 62.172059 
L 219.385563 49.640851 
L 219.710543 233.983511 
L 220.035522 228.31372 
L 220.360502 42.952079 
L 220.685481 182.216736 
L 221.010461 60.396127 
L 221.33544 159.406971 
L 221.66042 214.512523 
L 221.985399 222.411101 
L 222.635358 187.788162 
L 223.610297 37.301403 
L 223.935276 148.636647 
L 224.260256 132.969343 
L 224.585235 132.227486 
L 224.910215 128.627548 
L 225.235195 133.060122 
L 225.560174 237.054785 
L 225.885154 238.495265 
L 226.210133 218.89198 
L 226.535113 218.097096 
L 226.860092 94.819345 
L 227.185072 196.978139 
L 227.510051 56.03487 
L 227.835031 49.109827 
L 228.16001 39.44789 
L 228.48499 46.969523 
L 228.809969 183.293999 
L 229.134949 134.687331 
L 229.459928 202.997783 
L 229.784908 74.118577 
L 230.109887 57.318523 
L 230.434867 64.907754 
L 230.759846 150.299814 
L 231.084826 83.831342 
L 231.409805 218.909787 
L 231.734785 230.624661 
L 232.059765 84.942356 
L 232.384744 151.936802 
L 232.709724 35.431685 
L 233.034703 218.976183 
L 233.359683 64.021219 
L 233.684662 140.774957 
L 234.009642 69.839893 
L 234.334621 71.887828 
L 234.659601 51.687255 
L 234.98458 177.989367 
L 235.30956 44.779554 
L 235.634539 207.858277 
L 235.959519 222.099387 
L 236.609478 69.600265 
L 236.934457 142.115727 
L 237.259437 69.403355 
L 237.584416 89.754139 
L 237.909396 196.056151 
L 238.234376 44.967069 
L 238.559355 226.428554 
L 238.884335 55.306326 
L 239.209314 176.64216 
L 239.534294 136.654731 
L 239.859273 152.550473 
L 240.184253 203.737525 
L 240.509232 165.669187 
L 240.834212 199.426284 
L 241.159191 197.188504 
L 241.484171 200.627227 
L 242.13413 75.810041 
L 242.459109 122.592658 
L 242.784089 56.342893 
L 243.109068 108.785481 
L 243.434048 97.997993 
L 243.759027 102.438574 
L 244.084007 147.011759 
L 244.408986 97.998257 
L 244.733966 224.604627 
L 245.058946 63.158191 
L 245.383925 79.92091 
L 245.708905 188.74098 
L 246.033884 81.919149 
L 246.358864 236.264486 
L 246.683843 194.458697 
L 247.008823 225.538498 
L 247.333802 79.427511 
L 247.658782 84.403399 
L 247.983761 72.601181 
L 248.308741 237.931967 
L 248.63372 136.433111 
L 248.9587 94.83175 
L 249.283679 207.095292 
L 249.608659 106.078938 
L 249.933638 221.66186 
L 250.258618 201.798212 
L 250.583597 141.630314 
L 250.908577 105.307727 
L 251.233557 209.042922 
L 251.558536 201.001859 
L 251.883516 197.074104 
L 252.208495 190.075052 
L 252.533475 192.556984 
L 252.858454 158.108689 
L 253.183434 105.261856 
L 253.508413 149.346669 
L 253.833393 80.296508 
L 254.158372 91.882862 
L 254.483352 212.995028 
L 254.808331 228.868106 
L 255.133311 59.461926 
L 255.45829 222.536175 
L 255.78327 208.538227 
L 256.108249 234.3253 
L 256.433229 110.462609 
L 256.758208 119.85459 
L 257.083188 37.1982 
L 257.408167 57.62487 
L 257.733147 154.901992 
L 258.058127 162.923263 
L 258.383106 178.193279 
L 258.708086 207.707085 
L 259.033065 210.633691 
L 259.358045 211.818768 
L 259.683024 215.531147 
L 260.008004 189.70497 
L 260.332983 176.187499 
L 260.657963 42.372679 
L 260.982942 120.65091 
L 261.307922 37.056785 
L 261.632901 162.743231 
L 261.957881 145.342944 
L 262.60784 201.479097 
L 262.932819 209.595504 
L 263.257799 45.744002 
L 263.582778 37.217199 
L 263.907758 229.671539 
L 264.232738 208.128209 
L 264.557717 152.310959 
L 264.882697 200.775028 
L 265.207676 164.497682 
L 265.532656 212.470027 
L 265.857635 145.570741 
L 266.182615 183.333578 
L 266.507594 166.944548 
L 266.832574 219.57722 
L 267.157553 151.370254 
L 267.482533 37.943182 
L 267.807512 171.658745 
L 268.132492 59.770925 
L 268.457471 66.560685 
L 268.782451 44.31797 
L 269.43241 104.075302 
L 269.757389 63.825728 
L 270.082369 223.39156 
L 270.407348 144.279629 
L 270.732328 36.71751 
L 271.057308 81.598829 
L 271.382287 42.27125 
L 271.707267 79.548586 
L 272.032246 60.087079 
L 272.357226 94.485738 
L 272.682205 83.457811 
L 273.007185 131.949132 
L 273.332164 50.002449 
L 273.657144 70.271282 
L 273.982123 66.420554 
L 274.307103 101.334834 
L 274.957062 231.567618 
L 275.282041 47.669578 
L 275.932 177.929507 
L 276.25698 208.375599 
L 276.581959 69.355035 
L 276.906939 67.925364 
L 277.231919 72.423021 
L 277.556898 107.040909 
L 277.881878 164.061448 
L 278.206857 176.718407 
L 278.531837 237.099734 
L 278.856816 68.520489 
L 279.181796 220.982969 
L 279.506775 109.968421 
L 279.831755 135.852373 
L 280.156734 131.231674 
L 280.481714 49.496714 
L 280.806693 232.38794 
L 281.131673 80.824012 
L 281.456652 228.212063 
L 281.781632 231.051939 
L 282.106611 151.025016 
L 282.431591 225.95983 
L 282.75657 77.605534 
L 283.08155 130.644497 
L 283.406529 232.914329 
L 283.731509 230.572371 
L 284.056489 113.663946 
L 284.381468 74.138568 
L 284.706448 149.394124 
L 285.031427 125.532771 
L 285.356407 75.422214 
L 285.681386 114.10577 
L 286.006366 192.923464 
L 286.331345 113.585588 
L 286.656325 110.474236 
L 286.981304 88.850985 
L 287.306284 111.987321 
L 287.631263 40.806901 
L 287.956243 198.536677 
L 288.281222 44.515703 
L 288.606202 128.851257 
L 288.931181 101.549981 
L 289.256161 218.525159 
L 289.58114 161.086357 
L 289.90612 81.643986 
L 290.2311 94.407812 
L 290.556079 230.646194 
L 290.881059 127.164597 
L 291.206038 220.810213 
L 291.531018 35.368923 
L 291.855997 55.507203 
L 292.180977 234.540376 
L 292.505956 63.403768 
L 292.830936 50.984866 
L 293.155915 166.608807 
L 293.480895 91.835224 
L 293.805874 148.514664 
L 294.130854 104.967048 
L 294.455833 169.312199 
L 294.780813 172.940644 
L 295.105792 152.125065 
L 295.430772 209.104499 
L 295.755751 69.024886 
L 296.080731 167.599852 
L 296.40571 157.086971 
L 296.73069 56.169621 
L 297.05567 137.374829 
L 297.380649 127.642791 
L 297.705629 43.410825 
L 298.030608 57.666964 
L 298.355588 204.221337 
L 298.680567 142.157838 
L 299.005547 40.387196 
L 299.330526 162.763796 
L 299.655506 162.925865 
L 299.980485 198.99806 
L 300.305465 215.488574 
L 300.630444 87.584615 
L 300.955424 81.510904 
L 301.280403 40.853725 
L 301.605383 80.818702 
L 301.930362 189.124594 
L 302.255342 230.650854 
L 302.580321 37.497799 
L 302.905301 169.284965 
L 303.230281 175.103979 
L 303.55526 53.738026 
L 304.205219 194.944051 
L 304.530199 57.182741 
L 304.855178 35.878832 
L 305.180158 221.137058 
L 305.505137 62.667778 
L 305.830117 159.055413 
L 306.155096 131.766376 
L 306.480076 51.927547 
L 306.805055 39.961593 
L 307.130035 185.280944 
L 307.455014 195.356871 
L 307.779994 222.396112 
L 308.104973 124.058117 
L 308.429953 236.067967 
L 308.754932 154.686404 
L 309.079912 223.853472 
L 309.404891 156.049769 
L 309.729871 230.68853 
L 310.054851 68.191586 
L 310.37983 195.992686 
L 310.70481 171.765881 
L 311.029789 61.074782 
L 311.354769 86.366576 
L 311.679748 194.092589 
L 312.004728 224.156813 
L 312.329707 92.617357 
L 312.654687 159.017234 
L 312.979666 82.318085 
L 313.304646 147.862656 
L 313.629625 168.150608 
L 313.954605 146.654963 
L 314.279584 85.898073 
L 314.604564 54.501166 
L 314.929543 228.678988 
L 315.254523 131.758388 
L 315.579502 232.138578 
L 316.229462 57.961919 
L 316.554441 164.965613 
L 316.879421 48.324381 
L 317.2044 109.99836 
L 317.52938 47.976022 
L 317.854359 84.139314 
L 318.179339 217.713258 
L 318.829298 158.308653 
L 319.154277 204.090533 
L 319.479257 137.724677 
L 319.804236 142.535202 
L 320.129216 43.459644 
L 320.454195 150.226066 
L 320.779175 78.324176 
L 321.104154 46.391438 
L 321.429134 59.656593 
L 321.754113 196.211594 
L 322.079093 137.496182 
L 322.404072 167.795619 
L 322.729052 157.146401 
L 323.054032 165.12569 
L 323.379011 70.001511 
L 323.703991 146.464195 
L 324.02897 131.843634 
L 324.35395 38.108737 
L 324.678929 226.592401 
L 325.328888 80.687219 
L 325.653868 207.961462 
L 325.978847 113.89625 
L 326.303827 189.918953 
L 326.628806 61.614995 
L 326.953786 172.012919 
L 327.278765 171.611797 
L 327.603745 116.621485 
L 327.928724 201.341125 
L 328.578683 153.719219 
L 328.903663 166.590491 
L 329.228643 131.601941 
L 329.553622 116.325976 
L 329.878602 123.063134 
L 330.203581 105.184486 
L 330.528561 175.966646 
L 330.85354 213.0156 
L 331.17852 83.395382 
L 331.503499 65.011645 
L 331.828479 186.334788 
L 332.153458 155.668462 
L 332.478438 136.977334 
L 332.803417 129.875468 
L 333.128397 104.097095 
L 333.453376 230.347093 
L 333.778356 91.431594 
L 334.103335 226.185439 
L 334.753294 69.733451 
L 335.403253 208.384867 
L 335.728233 37.580252 
L 336.378192 81.248721 
L 336.703172 154.765416 
L 337.028151 201.283338 
L 337.353131 46.493471 
L 337.67811 130.074831 
L 338.00309 64.689817 
L 338.328069 168.94899 
L 338.653049 170.33977 
L 338.978028 37.476734 
L 339.627987 210.100041 
L 339.952967 193.962573 
L 340.277946 140.374231 
L 340.602926 230.169804 
L 340.927905 144.340247 
L 341.252885 153.247434 
L 341.577864 79.609493 
L 341.902844 166.32403 
L 342.227824 38.088018 
L 342.552803 201.911804 
L 342.877783 118.094097 
L 343.202762 220.519845 
L 343.527742 88.900635 
L 343.852721 35.594241 
L 344.177701 71.476857 
L 344.50268 125.30334 
L 344.82766 139.802717 
L 345.152639 68.229856 
L 345.477619 47.604408 
L 345.802598 36.727667 
L 346.127578 157.824653 
L 346.452557 36.378077 
L 346.777537 206.987996 
L 347.102516 187.04103 
L 347.427496 220.659435 
L 347.752475 183.324608 
L 348.077455 81.93854 
L 348.402434 64.573576 
L 348.727414 79.700136 
L 349.377373 133.831275 
L 349.702353 94.0414 
L 350.027332 158.990468 
L 350.352312 66.947022 
L 350.677291 100.480551 
L 351.002271 96.268464 
L 351.32725 129.342352 
L 351.65223 57.972921 
L 351.977209 187.354678 
L 352.302189 160.969542 
L 352.627168 79.955558 
L 352.952148 138.166573 
L 353.277127 57.158678 
L 353.602107 168.069509 
L 353.927086 163.384154 
L 354.252066 57.256391 
L 354.577045 143.965037 
L 354.902025 133.390326 
L 355.227005 170.85561 
L 355.551984 182.316993 
L 355.876964 104.820705 
L 356.201943 214.361199 
L 356.526923 59.189953 
L 356.851902 79.636695 
L 357.176882 199.872974 
L 357.501861 97.041785 
L 357.826841 115.714475 
L 358.15182 201.142492 
L 358.4768 183.025274 
L 358.801779 155.281358 
L 359.126759 95.974636 
L 359.451738 108.340272 
L 359.776718 130.09859 
L 360.101697 81.841896 
L 360.426677 83.981756 
L 360.751656 112.603369 
L 361.076636 78.045624 
L 361.401615 170.549191 
L 361.726595 58.786025 
L 362.051575 113.205939 
L 362.376554 70.817933 
L 363.026513 194.215208 
L 363.351493 128.019522 
L 363.676472 163.02015 
L 364.001452 96.330918 
L 364.326431 141.630932 
L 364.651411 68.008604 
L 364.97639 100.30025 
L 365.30137 98.977873 
L 365.626349 194.477339 
L 365.951329 37.740459 
L 366.276308 66.872063 
L 366.601288 77.633949 
L 366.926267 171.376331 
L 367.251247 129.404537 
L 367.576226 210.834026 
L 367.901206 128.823369 
L 368.226186 209.038811 
L 368.551165 125.84801 
L 368.876145 106.29733 
L 369.201124 159.120742 
L 369.526104 136.982307 
L 369.851083 59.929458 
L 370.176063 216.665482 
L 370.501042 77.076547 
L 370.826022 203.958198 
L 371.151001 231.347317 
L 371.475981 200.930085 
L 371.80096 82.529932 
L 372.12594 156.070142 
L 372.450919 60.569583 
L 372.775899 131.63661 
L 373.100878 234.301378 
L 373.425858 92.404893 
L 373.750837 216.324307 
L 374.075817 77.557378 
L 374.400796 204.500069 
L 374.725776 168.264218 
L 375.050756 83.300598 
L 375.375735 43.873983 
L 375.700715 162.954298 
L 376.025694 69.380155 
L 376.350674 199.863984 
L 376.675653 73.920358 
L 377.000633 104.504951 
L 377.325612 199.465295 
L 377.650592 177.038447 
L 377.975571 211.92355 
L 378.300551 160.597801 
L 378.62553 197.2371 
L 379.275489 35.645033 
L 379.600469 236.393913 
L 379.925448 128.324031 
L 380.250428 121.633031 
L 380.575407 52.05161 
L 380.900387 135.457946 
L 381.225367 127.755678 
L 381.550346 142.477041 
L 382.200305 227.399515 
L 382.525285 155.348544 
L 382.850264 228.101917 
L 383.175244 126.368094 
L 383.500223 176.059793 
L 383.825203 129.819164 
L 384.150182 211.407409 
L 384.475162 48.287696 
L 384.800141 56.074276 
L 385.125121 200.026577 
L 385.4501 168.673298 
L 385.77508 113.495532 
L 386.100059 219.296567 
L 386.425039 166.400477 
L 386.750018 187.539071 
L 387.074998 51.784365 
L 387.399977 64.65811 
L 387.724957 120.373131 
L 388.049937 132.527715 
L 388.374916 48.676767 
L 388.699896 48.329007 
L 389.024875 40.788921 
L 389.349855 213.229599 
L 389.674834 206.041651 
L 389.999814 100.573191 
L 390.324793 128.218872 
L 390.649773 235.074637 
L 390.649773 235.074637 
" style="fill:none;stroke:#1f77b4;stroke-linecap:round;stroke-width:1.5;"/>
   </g>
   <g id="line2d_13">
    <path clip-path="url(#p6f05c3f003)" d="M 65.995227 54.067552 
L 66.320207 62.937047 
L 66.645186 191.535723 
L 66.970166 41.318906 
L 67.295145 160.096569 
L 67.620125 197.98592 
L 67.945104 81.519523 
L 68.270084 85.552292 
L 68.595063 204.908681 
L 68.920043 165.4618 
L 69.245023 34.516923 
L 69.570002 105.303057 
L 69.894982 100.510447 
L 70.219961 210.727943 
L 70.544941 241.215434 
L 70.86992 202.241397 
L 71.1949 207.919075 
L 71.519879 209.379443 
L 71.844859 215.211339 
L 72.169838 133.457309 
L 72.494818 179.425356 
L 72.819797 73.975182 
L 73.144777 198.986975 
L 73.469756 136.767511 
L 73.794736 224.481414 
L 74.119715 125.123828 
L 74.444695 209.337404 
L 74.769674 19.296 
L 75.094654 57.124952 
L 75.419633 119.492653 
L 75.744613 204.343025 
L 76.069593 104.769468 
L 76.394572 75.798242 
L 76.719552 197.818118 
L 77.044531 127.180971 
L 77.369511 83.450014 
L 77.69449 98.855005 
L 78.01947 96.687384 
L 78.669429 73.881558 
L 78.994408 181.781437 
L 79.319388 145.350607 
L 79.644367 94.858829 
L 79.969347 107.093782 
L 80.294326 38.074422 
L 80.619306 230.141331 
L 80.944285 152.089824 
L 81.269265 159.969265 
L 81.594244 158.225865 
L 81.919224 163.011634 
L 82.244204 62.800659 
L 82.569183 192.252164 
L 82.894163 62.461223 
L 83.219142 78.921915 
L 83.544122 177.632305 
L 83.869101 186.452658 
L 84.194081 119.022882 
L 84.84404 84.43555 
L 85.169019 94.559407 
L 85.493999 74.073823 
L 85.818978 152.149603 
L 86.143958 82.187288 
L 86.468937 97.023621 
L 86.793917 71.769425 
L 87.118896 243.212361 
L 87.443876 38.717145 
L 87.768855 130.127095 
L 88.093835 55.730305 
L 88.418814 186.614908 
L 88.743794 127.891693 
L 89.068774 152.243964 
L 89.393753 149.844469 
L 89.718733 188.610198 
L 90.043712 55.72103 
L 90.368692 226.624338 
L 90.693671 173.645573 
L 91.018651 210.848205 
L 91.34363 134.283465 
L 91.66861 209.256371 
L 91.993589 212.66322 
L 92.643548 133.058571 
L 92.968528 238.054991 
L 93.618487 198.984748 
L 93.943466 42.076683 
L 94.268446 151.339962 
L 94.593425 102.31291 
L 94.918405 169.125258 
L 95.243385 114.250875 
L 95.568364 197.927074 
L 95.893344 207.326574 
L 96.218323 122.564421 
L 96.543303 142.875187 
L 96.868282 203.722068 
L 97.193262 99.059418 
L 97.518241 44.143624 
L 97.843221 172.415385 
L 98.1682 129.997244 
L 98.49318 62.912548 
L 98.818159 89.418794 
L 99.143139 162.019308 
L 99.468118 101.660373 
L 99.793098 220.610735 
L 100.118077 136.157499 
L 100.443057 178.059381 
L 100.768036 197.352554 
L 101.093016 139.776664 
L 101.417995 198.354449 
L 101.742975 82.244462 
L 102.067955 133.314491 
L 102.392934 120.687432 
L 102.717914 202.761113 
L 103.042893 207.864466 
L 103.692852 41.724776 
L 104.017832 225.423218 
L 104.342811 187.776123 
L 104.667791 68.535333 
L 104.99277 230.533692 
L 105.31775 64.755221 
L 105.642729 134.612897 
L 106.292688 174.514105 
L 106.617668 175.633287 
L 106.942647 172.969968 
L 107.267627 54.368363 
L 107.592606 87.509019 
L 107.917586 99.233664 
L 108.242566 73.848382 
L 108.567545 185.66057 
L 108.892525 113.090242 
L 109.217504 146.461959 
L 109.542484 81.504654 
L 109.867463 178.848069 
L 110.517422 62.180418 
L 111.167381 227.960117 
L 111.492361 135.264755 
L 111.81734 168.893667 
L 112.467299 42.406727 
L 112.792279 135.930621 
L 113.117258 138.40989 
L 113.442238 98.6947 
L 113.767217 210.530289 
L 114.092197 179.736517 
L 114.417176 44.356403 
L 114.742156 96.613667 
L 115.067136 232.871385 
L 115.392115 196.547551 
L 115.717095 101.973156 
L 116.367054 76.086336 
L 116.692033 190.35987 
L 117.017013 61.288148 
L 117.341992 138.863793 
L 117.666972 108.580874 
L 117.991951 126.755358 
L 118.316931 220.235805 
L 118.64191 44.244865 
L 118.96689 211.078372 
L 119.291869 179.112429 
L 119.616849 60.273733 
L 119.941828 96.244752 
L 120.266808 48.746576 
L 120.591787 113.606879 
L 120.916767 142.825268 
L 121.241747 34.355698 
L 121.566726 220.052557 
L 121.891706 58.855321 
L 122.216685 194.002249 
L 122.541665 75.485128 
L 122.866644 227.75433 
L 123.516603 84.6899 
L 123.841583 170.681077 
L 124.166562 113.167303 
L 124.491542 96.53488 
L 124.816521 103.007873 
L 125.141501 54.950968 
L 125.46648 142.201914 
L 125.79146 187.720901 
L 126.116439 204.230542 
L 126.441419 156.948614 
L 126.766398 174.600998 
L 127.091378 90.148696 
L 127.416357 170.472178 
L 127.741337 207.879641 
L 128.066317 218.757354 
L 128.391296 68.081957 
L 129.041255 188.1238 
L 129.366235 87.374927 
L 129.691214 261.216 
L 130.016194 76.747745 
L 130.666153 230.250464 
L 130.991132 119.140149 
L 131.316112 89.914388 
L 131.641091 145.341297 
L 131.966071 44.800114 
L 132.29105 179.843899 
L 132.61603 146.635396 
L 132.941009 181.464369 
L 133.265989 158.77548 
L 133.590968 158.551319 
L 133.915948 28.812386 
L 134.240928 211.774385 
L 134.565907 152.935284 
L 134.890887 143.661662 
L 135.215866 79.227764 
L 135.540846 66.453752 
L 135.865825 120.059762 
L 136.190805 75.215941 
L 136.515784 108.372442 
L 136.840764 64.688603 
L 137.165743 106.963897 
L 137.490723 224.100727 
L 138.140682 88.172376 
L 138.465661 141.828367 
L 138.790641 153.986408 
L 139.4406 21.881425 
L 139.765579 211.20605 
L 140.090559 68.834925 
L 140.415538 86.935794 
L 140.740518 46.169024 
L 141.065498 60.469773 
L 141.715457 153.567567 
L 142.040436 219.237589 
L 142.690395 99.966336 
L 143.015375 68.445523 
L 143.340354 84.276147 
L 143.665334 199.677836 
L 143.990313 111.405763 
L 144.640272 224.091125 
L 144.965252 183.326516 
L 145.290231 200.929285 
L 145.615211 53.085882 
L 145.94019 174.755841 
L 146.26517 172.438599 
L 146.590149 37.878714 
L 146.915129 160.023484 
L 147.240109 238.786618 
L 147.565088 185.633383 
L 147.890068 221.631616 
L 148.540027 233.059671 
L 148.865006 128.055859 
L 149.189986 210.202405 
L 149.514965 173.92358 
L 149.839945 69.706843 
L 150.164924 156.593746 
L 150.489904 53.17394 
L 150.814883 135.262272 
L 151.139863 152.287684 
L 151.464842 77.593475 
L 151.789822 213.762049 
L 152.114801 209.129877 
L 152.439781 93.946983 
L 152.76476 128.500181 
L 153.08974 68.332217 
L 153.414719 45.294158 
L 153.739699 156.435817 
L 154.064679 117.520216 
L 154.389658 140.673299 
L 154.714638 45.695908 
L 155.039617 79.14278 
L 155.364597 64.536062 
L 155.689576 199.770972 
L 156.014556 93.780449 
L 156.339535 196.258369 
L 156.664515 205.783297 
L 156.989494 52.618707 
L 157.314474 238.102755 
L 157.639453 40.886292 
L 157.964433 203.613735 
L 158.289412 62.842278 
L 158.614392 170.575796 
L 158.939371 152.808006 
L 159.264351 178.790312 
L 159.58933 103.351512 
L 159.91431 153.149558 
L 160.23929 92.586604 
L 160.564269 227.533164 
L 160.889249 222.297616 
L 161.214228 220.29975 
L 161.864187 84.053954 
L 162.189167 72.701463 
L 162.514146 206.391299 
L 162.839126 139.655164 
L 163.164105 98.936254 
L 163.489085 194.284329 
L 164.139044 137.603755 
L 164.464023 212.005111 
L 164.789003 229.290338 
L 165.113982 199.001175 
L 165.438962 98.710486 
L 165.763941 209.503419 
L 166.4139 154.885421 
L 166.73888 209.475479 
L 167.06386 188.606259 
L 167.388839 44.608009 
L 167.713819 230.230533 
L 168.038798 104.095302 
L 168.363778 162.32414 
L 168.688757 106.331049 
L 169.013737 125.89993 
L 169.338716 202.368314 
L 169.663696 76.174134 
L 169.988675 149.387486 
L 170.313655 81.833779 
L 170.638634 166.313797 
L 170.963614 46.843573 
L 171.288593 88.801806 
L 171.613573 46.542627 
L 171.938552 136.086795 
L 172.263532 141.387107 
L 172.588511 80.724494 
L 173.238471 32.496982 
L 173.56345 161.172058 
L 173.88843 63.122425 
L 174.213409 183.138285 
L 174.538389 115.694704 
L 174.863368 192.5333 
L 175.188348 161.395498 
L 175.513327 45.904005 
L 175.838307 210.56136 
L 176.163286 115.378918 
L 176.488266 127.178035 
L 176.813245 226.568017 
L 177.463204 138.326645 
L 177.788184 214.021749 
L 178.113163 86.188974 
L 178.438143 47.472388 
L 178.763122 197.751292 
L 179.088102 198.634356 
L 179.738061 75.497287 
L 180.063041 167.933177 
L 180.38802 220.005283 
L 181.037979 30.376368 
L 181.362959 148.79509 
L 181.687938 146.74541 
L 182.012918 38.972842 
L 182.337897 99.412185 
L 182.662877 98.378737 
L 182.987856 133.547981 
L 183.312836 51.521086 
L 183.637815 110.831944 
L 183.962795 68.41372 
L 184.287774 106.998324 
L 184.612754 97.430285 
L 184.937733 185.448175 
L 185.262713 179.665093 
L 185.587692 78.602206 
L 185.912672 175.140881 
L 186.237652 118.404456 
L 186.562631 180.632691 
L 186.887611 63.454857 
L 187.21259 207.230184 
L 187.53757 60.347636 
L 187.862549 107.238605 
L 188.187529 193.271729 
L 188.512508 122.232415 
L 188.837488 177.168924 
L 189.162467 170.997993 
L 189.487447 167.634677 
L 189.812426 228.90498 
L 190.137406 42.590982 
L 190.462385 239.433354 
L 190.787365 111.776885 
L 191.112344 171.841288 
L 191.437324 115.440338 
L 191.762303 173.571139 
L 192.087283 106.882072 
L 192.412262 93.16048 
L 192.737242 98.364312 
L 193.062222 213.472894 
L 193.387201 100.158016 
L 194.03716 225.793517 
L 194.36214 146.913517 
L 194.687119 143.985424 
L 195.012099 138.753718 
L 195.337078 92.328344 
L 195.662058 175.551654 
L 195.987037 176.404675 
L 196.312017 230.166099 
L 196.636996 103.211154 
L 196.961976 127.668217 
L 197.286955 171.540387 
L 197.611935 97.307167 
L 197.936914 129.503948 
L 198.261894 141.106035 
L 198.586873 130.359644 
L 198.911853 103.212768 
L 199.236833 97.642391 
L 199.561812 173.786655 
L 199.886792 205.51615 
L 200.211771 204.695562 
L 200.536751 109.151322 
L 200.86173 64.763841 
L 201.18671 162.481551 
L 201.511689 213.786226 
L 201.836669 94.936028 
L 202.486628 67.513786 
L 202.811607 120.37875 
L 203.136587 64.526621 
L 203.461566 232.905367 
L 203.786546 210.044831 
L 204.111525 209.755239 
L 204.436505 81.047426 
L 204.761484 211.947147 
L 205.086464 125.849892 
L 205.411443 133.220503 
L 205.736423 169.937179 
L 206.061403 59.775356 
L 206.386382 207.015863 
L 206.711362 173.500306 
L 207.036341 89.988663 
L 207.361321 243.244555 
L 207.6863 111.731125 
L 208.336259 54.18688 
L 208.661239 62.025187 
L 208.986218 172.078044 
L 209.311198 114.265192 
L 209.636177 216.038865 
L 209.961157 178.294287 
L 210.286136 212.415923 
L 210.611116 169.358485 
L 210.936095 58.066164 
L 211.261075 169.576978 
L 211.586054 129.18706 
L 211.911034 158.175878 
L 212.236014 154.420489 
L 212.560993 49.952261 
L 212.885973 185.753634 
L 213.210952 114.817288 
L 213.535932 152.8559 
L 213.860911 221.455282 
L 214.51087 59.806292 
L 214.83585 203.863339 
L 215.160829 209.798362 
L 215.485809 194.65074 
L 215.810788 73.74661 
L 216.135768 87.307358 
L 216.785727 151.66075 
L 217.110706 71.039929 
L 217.435686 99.580869 
L 217.760665 91.97671 
L 218.085645 91.037463 
L 218.735604 155.798211 
L 219.060584 66.465916 
L 219.385563 47.100422 
L 219.710543 224.868881 
L 220.035522 213.71585 
L 220.360502 24.653041 
L 220.685481 162.46269 
L 221.010461 41.62221 
L 221.33544 143.943605 
L 221.66042 204.300564 
L 221.985399 218.752892 
L 222.310379 210.244428 
L 222.635358 197.766641 
L 223.610297 56.620062 
L 223.935276 166.137788 
L 224.260256 146.304492 
L 224.585235 139.621328 
L 224.910215 129.118915 
L 225.235195 126.63109 
L 225.560174 224.629259 
L 225.885154 221.801594 
L 226.210133 200.206499 
L 226.535113 199.911268 
L 226.860092 79.487662 
L 227.185072 186.402873 
L 227.510051 51.430825 
L 227.835031 50.877423 
L 228.16001 47.168795 
L 228.48499 59.516938 
L 228.809969 199.026608 
L 229.134949 151.68509 
L 229.459928 219.301973 
L 229.784908 87.951778 
L 230.109887 67.271049 
L 230.434867 70.079663 
L 230.759846 150.381974 
L 231.084826 79.109179 
L 231.409805 210.187943 
L 231.734785 219.084628 
L 232.059765 71.956107 
L 232.384744 138.874181 
L 232.709724 23.499182 
L 233.034703 209.10575 
L 233.359683 56.811361 
L 233.684662 136.482457 
L 234.009642 68.419679 
L 234.334621 73.070842 
L 234.659601 55.078356 
L 234.98458 183.16243 
L 235.30956 51.345799 
L 235.634539 215.49452 
L 235.959519 230.533858 
L 236.609478 78.74966 
L 236.934457 151.00173 
L 237.259437 77.448415 
L 237.584416 96.283442 
L 237.909396 200.363039 
L 238.234376 46.404467 
L 238.559355 224.512688 
L 238.884335 49.818525 
L 239.209314 167.711908 
L 239.534294 124.807448 
L 239.859273 138.705014 
L 240.184253 189.144654 
L 240.509232 151.792345 
L 240.834212 187.776276 
L 241.159191 189.133414 
L 241.484171 197.203498 
L 242.13413 82.694721 
L 242.459109 133.954558 
L 242.784089 70.985867 
L 243.109068 125.112419 
L 243.434048 114.204311 
L 243.759027 116.731132 
L 244.084007 157.82397 
L 244.408986 104.17435 
L 244.733966 225.530473 
L 245.058946 58.823695 
L 245.383925 70.912556 
L 245.708905 176.171904 
L 246.033884 67.300839 
L 246.358864 221.328165 
L 246.683843 180.945624 
L 247.008823 214.983744 
L 247.333802 72.969186 
L 247.658782 82.652991 
L 247.983761 75.59654 
L 248.308741 245.168352 
L 248.63372 146.950199 
L 248.9587 107.339535 
L 249.283679 220.130542 
L 249.608659 118.175256 
L 249.933638 231.509358 
L 250.258618 208.373684 
L 250.583597 144.285923 
L 250.908577 103.817486 
L 251.233557 203.611367 
L 251.558536 192.231516 
L 252.208495 177.613456 
L 252.533475 180.046955 
L 252.858454 146.748666 
L 253.183434 96.115328 
L 253.508413 143.263375 
L 253.833393 77.862047 
L 254.158372 93.393104 
L 254.483352 218.448643 
L 254.808331 237.964909 
L 255.133311 71.601801 
L 255.45829 236.831484 
L 255.78327 223.850286 
L 256.108249 249.322065 
L 256.433229 123.700194 
L 256.758208 129.89415 
L 257.083188 42.760288 
L 257.408167 57.765479 
L 257.733147 149.179748 
L 258.058127 151.519016 
L 258.383106 161.950617 
L 258.708086 188.081846 
L 259.358045 191.483638 
L 259.683024 198.14106 
L 260.008004 177.202751 
L 260.332983 170.01363 
L 260.657963 43.284482 
L 260.982942 128.632229 
L 261.307922 51.32883 
L 261.632901 181.86651 
L 261.957881 167.387304 
L 262.60784 222.685995 
L 262.932819 227.166614 
L 263.257799 57.969495 
L 263.582778 42.938035 
L 263.907758 228.410731 
L 264.232738 200.14948 
L 264.557717 138.582895 
L 264.882697 182.850094 
L 265.207676 144.329468 
L 265.532656 192.189809 
L 265.857635 127.247349 
L 266.182615 168.745214 
L 266.507594 157.389408 
L 266.832574 215.742109 
L 267.157553 153.269449 
L 267.482533 44.938209 
L 267.807512 182.563451 
L 268.132492 73.026505 
L 268.457471 80.451383 
L 268.782451 57.199685 
L 269.43241 111.305587 
L 269.757389 67.39671 
L 270.082369 223.466354 
L 270.732328 31.982289 
L 271.057308 76.001023 
L 271.382287 36.853926 
L 271.707267 75.1799 
L 272.032246 57.354237 
L 272.357226 93.636021 
L 272.682205 84.390093 
L 273.007185 134.252819 
L 273.332164 53.036155 
L 273.657144 73.272146 
L 273.982123 68.631562 
L 274.307103 102.129944 
L 274.957062 228.627398 
L 275.282041 42.979977 
L 275.932 171.212158 
L 276.25698 201.693302 
L 276.581959 63.472046 
L 276.906939 63.542102 
L 277.231919 70.110238 
L 277.556898 107.198357 
L 277.881878 166.890492 
L 278.206857 182.199841 
L 278.531837 244.9748 
L 278.856816 78.281984 
L 279.181796 231.889942 
L 279.506775 121.091989 
L 279.831755 146.150233 
L 280.156734 139.646912 
L 280.481714 55.073717 
L 280.806693 234.391202 
L 281.131673 78.839709 
L 281.456652 222.214596 
L 281.781632 221.425066 
L 282.106611 138.532833 
L 282.431591 211.673692 
L 282.75657 62.801572 
L 283.08155 116.686263 
L 283.406529 221.130022 
L 283.731509 222.127184 
L 284.056489 109.433477 
L 284.381468 74.6075 
L 284.706448 154.602656 
L 285.031427 135.071932 
L 285.356407 88.46985 
L 285.681386 129.50033 
L 286.006366 209.269338 
L 286.331345 129.37532 
L 286.656325 124.218187 
L 286.981304 99.212364 
L 287.306284 117.914953 
L 287.631263 41.651309 
L 287.956243 194.13446 
L 288.281222 35.227563 
L 288.606202 115.545911 
L 288.931181 85.535622 
L 289.256161 201.430158 
L 289.58114 144.692657 
L 289.90612 67.691113 
L 290.2311 84.39909 
L 290.556079 225.682322 
L 290.881059 127.814119 
L 291.206038 227.027153 
L 291.531018 46.475825 
L 291.855997 70.258752 
L 292.180977 251.265034 
L 292.505956 80.197305 
L 292.830936 65.928781 
L 293.155915 177.996347 
L 293.480895 98.37723 
L 293.805874 149.492672 
L 294.130854 100.315495 
L 294.455833 159.622175 
L 294.780813 159.383343 
L 295.105792 136.303106 
L 295.430772 192.851406 
L 295.755751 54.181486 
L 296.080731 155.799816 
L 296.40571 149.577905 
L 296.73069 53.686187 
L 297.05567 140.077513 
L 297.380649 135.127695 
L 297.705629 54.782109 
L 298.030608 71.661106 
L 298.355588 219.36669 
L 298.680567 156.939496 
L 299.005547 53.394079 
L 299.330526 172.813489 
L 299.655506 169.160441 
L 299.980485 200.936537 
L 300.305465 213.032491 
L 300.630444 80.988393 
L 300.955424 71.336544 
L 301.280403 27.925786 
L 301.605383 66.180788 
L 301.930362 173.985772 
L 302.255342 216.30707 
L 302.580321 25.225813 
L 302.905301 160.226999 
L 303.230281 170.160578 
L 303.55526 53.474315 
L 304.205219 204.080553 
L 304.530199 70.165632 
L 304.855178 51.603828 
L 305.180158 238.202365 
L 305.505137 79.501761 
L 305.830117 174.062307 
L 306.155096 143.481028 
L 306.480076 59.167797 
L 306.805055 41.965542 
L 307.130035 181.81367 
L 307.455014 186.760457 
L 307.779994 209.561969 
L 308.104973 108.325423 
L 308.429953 219.06963 
L 308.754932 138.164024 
L 309.079912 209.460701 
L 309.404891 145.166991 
L 309.729871 224.271896 
L 310.054851 66.675519 
L 310.37983 199.260012 
L 310.70481 179.187061 
L 311.029789 71.605034 
L 311.354769 98.690043 
L 311.679748 206.797101 
L 312.004728 235.90615 
L 312.329707 102.291653 
L 312.654687 165.814587 
L 312.979666 85.81849 
L 313.304646 148.049683 
L 313.629625 165.385799 
L 313.954605 141.60581 
L 314.279584 79.431325 
L 314.604564 47.563257 
L 314.929543 222.180542 
L 315.254523 126.466793 
L 315.579502 228.583544 
L 316.229462 58.231424 
L 316.554441 166.706989 
L 316.879421 50.940837 
L 317.2044 112.80289 
L 317.52938 50.319223 
L 317.854359 85.528003 
L 318.179339 217.895952 
L 318.829298 156.379877 
L 319.154277 201.657815 
L 319.479257 135.271186 
L 319.804236 140.504659 
L 320.129216 42.177015 
L 320.454195 149.855588 
L 320.779175 78.866437 
L 321.104154 47.712829 
L 321.429134 61.544396 
L 321.754113 198.440259 
L 322.079093 139.880417 
L 322.404072 170.214638 
L 322.729052 159.540916 
L 323.054032 167.474985 
L 323.379011 72.289702 
L 323.703991 148.648159 
L 324.02897 133.830701 
L 324.35395 39.746877 
L 324.678929 227.67623 
L 325.328888 79.937822 
L 325.653868 205.959137 
L 325.978847 110.506875 
L 326.303827 185.132115 
L 326.628806 55.579589 
L 326.953786 165.06084 
L 327.278765 164.261281 
L 327.603745 109.550018 
L 327.928724 195.32692 
L 328.578683 152.117335 
L 328.903663 168.066239 
L 329.228643 136.390831 
L 329.553622 124.321398 
L 329.878602 133.795993 
L 330.203581 117.846988 
L 330.528561 189.476604 
L 330.85354 226.110897 
L 331.17852 94.747831 
L 331.503499 73.357812 
L 331.828479 190.61909 
L 332.478438 131.432151 
L 332.803417 119.492623 
L 333.128397 89.5901 
L 333.453376 212.884496 
L 333.778356 72.540329 
L 334.103335 207.60774 
L 334.753294 56.994821 
L 335.403253 206.686304 
L 335.728233 42.190649 
L 336.378192 97.168429 
L 336.703172 174.623108 
L 337.028151 223.395045 
L 337.353131 68.939114 
L 337.67811 150.859471 
L 338.00309 81.922537 
L 338.328069 181.021427 
L 338.653049 176.080311 
L 338.978028 36.263762 
L 339.627987 195.604971 
L 339.952967 174.363929 
L 340.277946 117.370645 
L 340.602926 205.776782 
L 340.927905 120.701402 
L 341.252885 132.435712 
L 341.577864 63.440834 
L 341.902844 156.202337 
L 342.227824 34.890823 
L 342.552803 205.921099 
L 342.877783 128.972809 
L 343.202762 237.331345 
L 343.527742 110.172342 
L 343.852721 59.431673 
L 344.177701 95.730778 
L 344.50268 147.775012 
L 344.82766 158.456772 
L 345.152639 81.388655 
L 345.802598 36.068605 
L 346.127578 150.194718 
L 346.452557 22.670384 
L 346.777537 188.701962 
L 347.102516 166.115665 
L 347.427496 199.24702 
L 347.752475 163.53419 
L 348.077455 65.591094 
L 348.402434 53.010156 
L 348.727414 73.669557 
L 349.377373 138.67034 
L 349.702353 103.158541 
L 350.027332 171.114851 
L 350.352312 80.632827 
L 350.677291 114.27801 
L 351.002271 108.883425 
L 351.32725 139.764703 
L 351.65223 65.558005 
L 351.977209 191.8516 
L 352.302189 162.49509 
L 352.627168 78.919813 
L 352.952148 135.170327 
L 353.277127 52.885613 
L 353.602107 163.187226 
L 353.927086 158.461038 
L 354.252066 52.700667 
L 354.577045 139.996528 
L 354.902025 130.04924 
L 355.227005 168.038704 
L 355.551984 179.828765 
L 355.876964 102.432327 
L 356.201943 211.872093 
L 356.526923 56.484767 
L 356.851902 76.7312 
L 357.176882 196.942619 
L 357.501861 94.419969 
L 357.826841 113.853515 
L 358.15182 200.54452 
L 358.4768 184.150785 
L 358.801779 158.445668 
L 359.126759 101.255331 
L 359.451738 115.520789 
L 359.776718 138.66039 
L 360.101697 91.004789 
L 360.426677 92.787451 
L 360.751656 120.033398 
L 361.076636 83.156682 
L 361.401615 172.60441 
L 361.726595 57.362467 
L 362.051575 108.265135 
L 362.376554 62.732512 
L 363.026513 182.434068 
L 363.351493 116.183128 
L 363.676472 152.410369 
L 364.001452 88.091382 
L 364.326431 136.625528 
L 364.651411 66.721218 
L 364.97639 102.788236 
L 365.30137 104.883118 
L 365.626349 203.087046 
L 365.951329 48.083571 
L 366.276308 77.842184 
L 366.601288 88.129271 
L 366.926267 180.433682 
L 367.251247 136.299656 
L 367.576226 215.133132 
L 367.901206 130.386292 
L 368.226186 207.982989 
L 368.551165 122.487129 
L 368.876145 101.071046 
L 369.201124 152.531293 
L 369.526104 129.545495 
L 369.851083 52.141675 
L 370.176063 208.988444 
L 370.501042 69.934738 
L 370.826022 197.739893 
L 371.151001 226.402133 
L 371.475981 197.556079 
L 371.80096 80.952563 
L 372.12594 156.426265 
L 372.450919 62.902423 
L 372.775899 135.896787 
L 373.100878 240.345618 
L 373.425858 99.985084 
L 373.750837 225.070555 
L 374.075817 86.967866 
L 374.400796 213.946984 
L 374.725776 177.018468 
L 375.050756 90.576069 
L 375.375735 48.896161 
L 375.700715 165.053001 
L 376.025694 68.088649 
L 376.350674 195.001709 
L 376.675653 65.644974 
L 377.000633 93.327802 
L 377.325612 186.228072 
L 377.650592 162.846238 
L 377.975571 198.034782 
L 378.300551 148.287058 
L 378.62553 187.654535 
L 379.275489 33.898519 
L 379.600469 239.05738 
L 379.925448 135.240609 
L 380.250428 132.314971 
L 380.575407 65.738131 
L 380.900387 151.196744 
L 381.225367 144.491388 
L 381.550346 159.127365 
L 382.200305 240.772654 
L 382.525285 165.659557 
L 382.850264 234.50532 
L 383.175244 128.119089 
L 383.500223 172.559223 
L 383.825203 120.686556 
L 384.150182 196.574783 
L 384.475162 28.098614 
L 384.800141 31.373258 
L 385.125121 172.219142 
L 385.4501 139.723138 
L 385.77508 85.832132 
L 386.100059 195.633184 
L 386.425039 149.476296 
L 386.750018 179.807101 
L 387.074998 55.083856 
L 387.399977 79.922131 
L 387.724957 147.415028 
L 388.049937 169.932358 
L 388.374916 93.813495 
L 388.699896 97.502849 
L 389.024875 89.533718 
L 389.349855 256.718477 
L 389.674834 239.565926 
L 389.999814 120.038542 
L 390.324793 130.619536 
L 390.649773 218.902434 
L 390.649773 218.902434 
" style="fill:none;stroke:#ff7f0e;stroke-linecap:round;stroke-width:1.5;"/>
   </g>
   <g id="patch_3">
    <path d="M 49.7625 273.312 
L 49.7625 7.2 
" style="fill:none;stroke:#262626;stroke-linecap:square;stroke-linejoin:miter;stroke-width:1.25;"/>
   </g>
   <g id="patch_4">
    <path d="M 49.7625 273.312 
L 406.8825 273.312 
" style="fill:none;stroke:#262626;stroke-linecap:square;stroke-linejoin:miter;stroke-width:1.25;"/>
   </g>
   <g id="legend_1">
    <g id="line2d_14">
     <path d="M 58.7625 244.415125 
L 78.7625 244.415125 
" style="fill:none;stroke:#1f77b4;stroke-linecap:round;stroke-width:1.5;"/>
    </g>
    <g id="line2d_15"/>
    <g id="text_14">
     <!-- raw -->
     <g style="fill:#262626;" transform="translate(86.7625 247.915125)scale(0.1 -0.1)">
      <defs>
       <path d="M 6.9375 0 
L 6.9375 40.53125 
Q 6.9375 42.1875 6.90625 43.921875 
Q 6.890625 45.65625 6.828125 47.265625 
Q 6.78125 48.875 6.734375 50.28125 
Q 6.6875 51.703125 6.640625 52.828125 
L 14.9375 52.828125 
Q 14.984375 51.703125 15.0625 50.265625 
Q 15.140625 48.828125 15.203125 47.3125 
Q 15.28125 45.796875 15.296875 44.40625 
Q 15.328125 43.015625 15.328125 42.046875 
L 15.53125 42.046875 
Q 16.453125 45.0625 17.5 47.28125 
Q 18.5625 49.515625 19.96875 50.953125 
Q 21.390625 52.390625 23.34375 53.09375 
Q 25.296875 53.8125 28.078125 53.8125 
Q 29.15625 53.8125 30.125 53.640625 
Q 31.109375 53.46875 31.640625 53.328125 
L 31.640625 45.265625 
Q 30.765625 45.515625 29.59375 45.625 
Q 28.421875 45.75 26.953125 45.75 
Q 23.921875 45.75 21.796875 44.375 
Q 19.671875 43.015625 18.328125 40.59375 
Q 17 38.1875 16.359375 34.84375 
Q 15.71875 31.5 15.71875 27.546875 
L 15.71875 0 
z
" id="LiberationSans-114"/>
       <path d="M 57.328125 0 
L 47.125 0 
L 38.671875 34.078125 
Q 38.28125 35.40625 37.859375 37.359375 
Q 37.453125 39.3125 37.0625 41.15625 
Q 36.578125 43.3125 36.140625 45.609375 
Q 35.6875 43.40625 35.203125 41.265625 
Q 34.8125 39.40625 34.34375 37.40625 
Q 33.890625 35.40625 33.5 33.890625 
L 24.8125 0 
L 14.65625 0 
L -0.140625 52.828125 
L 8.546875 52.828125 
L 17.484375 16.9375 
Q 17.828125 15.828125 18.15625 14.1875 
Q 18.5 12.546875 18.84375 10.984375 
Q 19.1875 9.1875 19.578125 7.28125 
Q 19.96875 9.125 20.40625 10.890625 
Q 20.796875 12.40625 21.1875 13.96875 
Q 21.578125 15.53125 21.875 16.546875 
L 31.453125 52.828125 
L 40.875 52.828125 
L 50.09375 16.546875 
Q 50.4375 15.28125 50.828125 13.671875 
Q 51.21875 12.0625 51.5625 10.640625 
Q 51.953125 8.984375 52.34375 7.28125 
Q 52.734375 9.125 53.125 10.890625 
Q 53.46875 12.40625 53.828125 14.03125 
Q 54.203125 15.671875 54.546875 16.9375 
L 63.875 52.828125 
L 72.46875 52.828125 
z
" id="LiberationSans-119"/>
      </defs>
      <use xlink:href="#LiberationSans-114"/>
      <use x="33.300781" xlink:href="#LiberationSans-97"/>
      <use x="88.916016" xlink:href="#LiberationSans-119"/>
     </g>
    </g>
    <g id="line2d_16">
     <path d="M 58.7625 258.737 
L 78.7625 258.737 
" style="fill:none;stroke:#ff7f0e;stroke-linecap:round;stroke-width:1.5;"/>
    </g>
    <g id="line2d_17"/>
    <g id="text_15">
     <!-- band-stop @ 40-60Hz -->
     <g style="fill:#262626;" transform="translate(86.7625 262.237)scale(0.1 -0.1)">
      <defs>
       <path d="M 51.421875 26.65625 
Q 51.421875 -0.984375 31.984375 -0.984375 
Q 25.984375 -0.984375 22 1.1875 
Q 18.015625 3.375 15.53125 8.203125 
L 15.4375 8.203125 
Q 15.4375 6.9375 15.359375 5.5625 
Q 15.28125 4.203125 15.203125 3.03125 
Q 15.140625 1.859375 15.0625 1.03125 
Q 14.984375 0.203125 14.9375 0 
L 6.453125 0 
Q 6.5 0.4375 6.546875 1.484375 
Q 6.59375 2.546875 6.640625 4 
Q 6.6875 5.46875 6.703125 7.21875 
Q 6.734375 8.984375 6.734375 10.890625 
L 6.734375 72.46875 
L 15.53125 72.46875 
L 15.53125 51.8125 
Q 15.53125 50.34375 15.5 49 
Q 15.484375 47.65625 15.4375 46.625 
Q 15.375 45.40625 15.328125 44.34375 
L 15.53125 44.34375 
Q 17.96875 49.421875 22 51.609375 
Q 26.03125 53.8125 31.984375 53.8125 
Q 42 53.8125 46.703125 47.0625 
Q 51.421875 40.328125 51.421875 26.65625 
z
M 42.1875 26.375 
Q 42.1875 31.84375 41.5 35.75 
Q 40.828125 39.65625 39.3125 42.15625 
Q 37.796875 44.671875 35.453125 45.84375 
Q 33.109375 47.015625 29.734375 47.015625 
Q 26.265625 47.015625 23.609375 45.890625 
Q 20.953125 44.78125 19.171875 42.28125 
Q 17.390625 39.796875 16.453125 35.734375 
Q 15.53125 31.6875 15.53125 25.828125 
Q 15.53125 20.171875 16.453125 16.3125 
Q 17.390625 12.453125 19.171875 10.03125 
Q 20.953125 7.625 23.578125 6.5625 
Q 26.21875 5.515625 29.640625 5.515625 
Q 32.859375 5.515625 35.203125 6.640625 
Q 37.546875 7.765625 39.109375 10.25 
Q 40.671875 12.75 41.421875 16.71875 
Q 42.1875 20.703125 42.1875 26.375 
z
" id="LiberationSans-98"/>
       <path d="M 40.09375 8.5 
Q 37.640625 3.421875 33.609375 1.21875 
Q 29.59375 -0.984375 23.640625 -0.984375 
Q 13.625 -0.984375 8.90625 5.75 
Q 4.203125 12.5 4.203125 26.171875 
Q 4.203125 53.8125 23.640625 53.8125 
Q 29.640625 53.8125 33.640625 51.609375 
Q 37.640625 49.421875 40.09375 44.625 
L 40.1875 44.625 
Q 40.1875 45.125 40.15625 46.171875 
Q 40.140625 47.21875 40.109375 48.359375 
Q 40.09375 49.515625 40.09375 50.53125 
Q 40.09375 51.5625 40.09375 52 
L 40.09375 72.46875 
L 48.875 72.46875 
L 48.875 10.890625 
Q 48.875 8.984375 48.890625 7.21875 
Q 48.921875 5.46875 48.96875 4 
Q 49.03125 2.546875 49.078125 1.484375 
Q 49.125 0.4375 49.171875 0 
L 40.765625 0 
Q 40.671875 0.484375 40.59375 1.390625 
Q 40.53125 2.296875 40.453125 3.46875 
Q 40.375 4.640625 40.328125 5.9375 
Q 40.28125 7.234375 40.28125 8.5 
z
M 13.421875 26.46875 
Q 13.421875 21 14.109375 17.09375 
Q 14.796875 13.1875 16.3125 10.671875 
Q 17.828125 8.15625 20.171875 6.984375 
Q 22.515625 5.8125 25.875 5.8125 
Q 29.34375 5.8125 32 6.9375 
Q 34.671875 8.0625 36.453125 10.578125 
Q 38.234375 13.09375 39.15625 17.140625 
Q 40.09375 21.1875 40.09375 27.046875 
Q 40.09375 32.671875 39.15625 36.546875 
Q 38.234375 40.4375 36.421875 42.828125 
Q 34.625 45.21875 32 46.265625 
Q 29.390625 47.3125 25.984375 47.3125 
Q 22.75 47.3125 20.40625 46.1875 
Q 18.0625 45.0625 16.5 42.578125 
Q 14.9375 40.09375 14.171875 36.109375 
Q 13.421875 32.125 13.421875 26.46875 
z
" id="LiberationSans-100"/>
       <path d="M 4.4375 22.65625 
L 4.4375 30.46875 
L 28.859375 30.46875 
L 28.859375 22.65625 
z
" id="LiberationSans-45"/>
       <path d="M 51.421875 26.65625 
Q 51.421875 20.65625 50.4375 15.578125 
Q 49.46875 10.5 47.1875 6.828125 
Q 44.921875 3.171875 41.1875 1.09375 
Q 37.453125 -0.984375 31.984375 -0.984375 
Q 26.3125 -0.984375 22.0625 1.171875 
Q 17.828125 3.328125 15.578125 8.203125 
L 15.328125 8.203125 
Q 15.375 8.109375 15.40625 7.328125 
Q 15.4375 6.546875 15.453125 5.375 
Q 15.484375 4.203125 15.5 2.75 
Q 15.53125 1.3125 15.53125 -0.09375 
L 15.53125 -20.75 
L 6.734375 -20.75 
L 6.734375 42.046875 
Q 6.734375 43.953125 6.703125 45.703125 
Q 6.6875 47.46875 6.640625 48.90625 
Q 6.59375 50.34375 6.546875 51.359375 
Q 6.5 52.390625 6.453125 52.828125 
L 14.9375 52.828125 
Q 14.984375 52.6875 15.0625 51.796875 
Q 15.140625 50.921875 15.203125 49.671875 
Q 15.28125 48.4375 15.359375 47.015625 
Q 15.4375 45.609375 15.4375 44.34375 
L 15.625 44.34375 
Q 16.84375 46.875 18.40625 48.65625 
Q 19.96875 50.4375 21.96875 51.578125 
Q 23.96875 52.734375 26.4375 53.25 
Q 28.90625 53.765625 31.984375 53.765625 
Q 37.453125 53.765625 41.1875 51.8125 
Q 44.921875 49.859375 47.1875 46.3125 
Q 49.46875 42.78125 50.4375 37.765625 
Q 51.421875 32.765625 51.421875 26.65625 
z
M 42.1875 26.46875 
Q 42.1875 31.34375 41.59375 35.15625 
Q 41.015625 38.96875 39.578125 41.59375 
Q 38.140625 44.234375 35.734375 45.59375 
Q 33.34375 46.96875 29.734375 46.96875 
Q 26.8125 46.96875 24.21875 46.140625 
Q 21.625 45.3125 19.703125 42.96875 
Q 17.78125 40.625 16.65625 36.5 
Q 15.53125 32.375 15.53125 25.78125 
Q 15.53125 20.171875 16.453125 16.28125 
Q 17.390625 12.40625 19.171875 10.015625 
Q 20.953125 7.625 23.578125 6.5625 
Q 26.21875 5.515625 29.640625 5.515625 
Q 33.296875 5.515625 35.71875 6.921875 
Q 38.140625 8.34375 39.578125 11.03125 
Q 41.015625 13.71875 41.59375 17.59375 
Q 42.1875 21.484375 42.1875 26.46875 
z
" id="LiberationSans-112"/>
       <path id="LiberationSans-32"/>
       <path d="M 92.875 36.859375 
Q 92.875 29.828125 91.234375 24 
Q 89.59375 18.171875 86.71875 13.96875 
Q 83.84375 9.765625 79.8125 7.421875 
Q 75.78125 5.078125 71.046875 5.078125 
Q 68.3125 5.078125 66.375 5.734375 
Q 64.453125 6.390625 63.234375 7.53125 
Q 62.015625 8.6875 61.46875 10.25 
Q 60.9375 11.8125 60.9375 13.671875 
Q 60.9375 14.40625 60.984375 15.453125 
Q 61.03125 16.5 61.078125 17.09375 
L 60.796875 17.09375 
Q 59.625 14.890625 57.9375 12.71875 
Q 56.25 10.546875 53.96875 8.859375 
Q 51.703125 7.171875 48.84375 6.125 
Q 46 5.078125 42.53125 5.078125 
Q 38.421875 5.078125 35.375 6.484375 
Q 32.328125 7.90625 30.34375 10.421875 
Q 28.375 12.9375 27.390625 16.375 
Q 26.421875 19.828125 26.421875 23.875 
Q 26.421875 29.734375 28.15625 35.125 
Q 29.890625 40.53125 33.109375 44.65625 
Q 36.328125 48.78125 40.84375 51.265625 
Q 45.359375 53.765625 50.921875 53.765625 
Q 53.859375 53.765625 56.203125 53.09375 
Q 58.546875 52.4375 60.328125 51.265625 
Q 62.109375 50.09375 63.421875 48.453125 
Q 64.75 46.828125 65.625 44.875 
L 65.921875 44.875 
L 67.828125 52.6875 
L 75.4375 52.6875 
L 69.78125 27.984375 
Q 68.84375 23.875 68.40625 20.9375 
Q 67.96875 18.015625 67.96875 15.625 
Q 67.96875 13.28125 69.015625 12.15625 
Q 70.0625 11.03125 71.921875 11.03125 
Q 74.953125 11.03125 77.5625 13 
Q 80.171875 14.984375 82.09375 18.453125 
Q 84.03125 21.921875 85.125 26.609375 
Q 86.234375 31.296875 86.234375 36.765625 
Q 86.234375 43.0625 84.203125 48.484375 
Q 82.171875 53.90625 78.234375 57.859375 
Q 74.3125 61.8125 68.5 64.0625 
Q 62.703125 66.3125 55.078125 66.3125 
Q 48.53125 66.3125 42.984375 64.75 
Q 37.453125 63.1875 32.953125 60.34375 
Q 28.46875 57.515625 25.078125 53.578125 
Q 21.6875 49.65625 19.390625 44.96875 
Q 17.09375 40.28125 15.921875 34.9375 
Q 14.75 29.59375 14.75 23.96875 
Q 14.75 17.09375 16.84375 11.28125 
Q 18.953125 5.46875 22.96875 1.296875 
Q 27 -2.875 32.9375 -5.21875 
Q 38.875 -7.5625 46.578125 -7.5625 
Q 51.703125 -7.5625 56.140625 -6.75 
Q 60.59375 -5.953125 64.296875 -4.78125 
Q 68.015625 -3.609375 70.9375 -2.21875 
Q 73.875 -0.828125 76.03125 0.34375 
L 78.71875 -5.125 
Q 76.265625 -6.59375 72.96875 -8.125 
Q 69.671875 -9.671875 65.625 -10.9375 
Q 61.578125 -12.203125 56.78125 -13 
Q 52 -13.8125 46.578125 -13.8125 
Q 37.3125 -13.8125 30.109375 -11 
Q 22.90625 -8.203125 17.9375 -3.171875 
Q 12.984375 1.859375 10.421875 8.78125 
Q 7.859375 15.71875 7.859375 23.96875 
Q 7.859375 30.765625 9.390625 37.015625 
Q 10.9375 43.265625 13.8125 48.625 
Q 16.703125 54 20.84375 58.390625 
Q 25 62.796875 30.25 65.921875 
Q 35.5 69.046875 41.71875 70.75 
Q 47.953125 72.46875 54.984375 72.46875 
Q 64.796875 72.46875 71.921875 69.578125 
Q 79.046875 66.703125 83.703125 61.8125 
Q 88.375 56.9375 90.625 50.484375 
Q 92.875 44.046875 92.875 36.859375 
z
M 63.28125 36.46875 
Q 63.28125 38.921875 62.453125 40.96875 
Q 61.625 43.015625 60.078125 44.484375 
Q 58.546875 45.953125 56.375 46.75 
Q 54.203125 47.5625 51.46875 47.5625 
Q 47.265625 47.5625 44.09375 45.484375 
Q 40.921875 43.40625 38.796875 40.03125 
Q 36.671875 36.671875 35.5625 32.4375 
Q 34.46875 28.21875 34.46875 23.96875 
Q 34.46875 18.109375 36.78125 14.78125 
Q 39.109375 11.46875 43.953125 11.46875 
Q 47.3125 11.46875 50.234375 12.984375 
Q 53.171875 14.5 55.515625 16.984375 
Q 57.859375 19.484375 59.5625 22.703125 
Q 61.28125 25.921875 62.15625 29.390625 
Q 62.59375 31.15625 62.9375 33.109375 
Q 63.28125 35.0625 63.28125 36.46875 
z
" id="LiberationSans-64"/>
       <path d="M 54.734375 0 
L 54.734375 31.890625 
L 17.53125 31.890625 
L 17.53125 0 
L 8.203125 0 
L 8.203125 68.796875 
L 17.53125 68.796875 
L 17.53125 39.703125 
L 54.734375 39.703125 
L 54.734375 68.796875 
L 64.0625 68.796875 
L 64.0625 0 
z
" id="LiberationSans-72"/>
       <path d="M 2.390625 0 
L 2.390625 6.6875 
L 34.671875 46.046875 
L 4.34375 46.046875 
L 4.34375 52.828125 
L 44.578125 52.828125 
L 44.578125 46.140625 
L 12.25 6.78125 
L 46.390625 6.78125 
L 46.390625 0 
z
" id="LiberationSans-122"/>
      </defs>
      <use xlink:href="#LiberationSans-98"/>
      <use x="55.615234" xlink:href="#LiberationSans-97"/>
      <use x="111.230469" xlink:href="#LiberationSans-110"/>
      <use x="166.845703" xlink:href="#LiberationSans-100"/>
      <use x="222.460938" xlink:href="#LiberationSans-45"/>
      <use x="255.761719" xlink:href="#LiberationSans-115"/>
      <use x="305.761719" xlink:href="#LiberationSans-116"/>
      <use x="333.544922" xlink:href="#LiberationSans-111"/>
      <use x="389.160156" xlink:href="#LiberationSans-112"/>
      <use x="444.775391" xlink:href="#LiberationSans-32"/>
      <use x="472.558594" xlink:href="#LiberationSans-64"/>
      <use x="574.072266" xlink:href="#LiberationSans-32"/>
      <use x="601.855469" xlink:href="#LiberationSans-52"/>
      <use x="657.470703" xlink:href="#LiberationSans-48"/>
      <use x="713.085938" xlink:href="#LiberationSans-45"/>
      <use x="746.386719" xlink:href="#LiberationSans-54"/>
      <use x="802.001953" xlink:href="#LiberationSans-48"/>
      <use x="857.617188" xlink:href="#LiberationSans-72"/>
      <use x="929.833984" xlink:href="#LiberationSans-122"/>
     </g>
    </g>
   </g>
  </g>
 </g>
 <defs>
  <clipPath id="p6f05c3f003">
   <rect height="266.112" width="357.12" x="49.7625" y="7.2"/>
  </clipPath>
 </defs>
</svg>
