<?xml version="1.0" encoding="utf-8" standalone="no"?>
<!DOCTYPE svg PUBLIC "-//W3C//DTD SVG 1.1//EN"
  "http://www.w3.org/Graphics/SVG/1.1/DTD/svg11.dtd">
<!-- Created with matplotlib (https://matplotlib.org/) -->
<svg height="312.65575pt" version="1.1" viewBox="0 0 414.0825 312.65575" width="414.0825pt" xmlns="http://www.w3.org/2000/svg" xmlns:xlink="http://www.w3.org/1999/xlink">
 <defs>
  <style type="text/css">
*{stroke-linecap:butt;stroke-linejoin:round;}
  </style>
 </defs>
 <g id="figure_1">
  <g id="patch_1">
   <path d="M 0 312.65575 
L 414.0825 312.65575 
L 414.0825 0 
L 0 0 
z
" style="fill:#ffffff;"/>
  </g>
  <g id="axes_1">
   <g id="patch_2">
    <path d="M 49.7625 273.312 
L 406.8825 273.312 
L 406.8825 7.2 
L 49.7625 7.2 
z
" style="fill:#ffffff;"/>
   </g>
   <g id="matplotlib.axis_1">
    <g id="xtick_1">
     <g id="line2d_1">
      <defs>
       <path d="M 0 0 
L 0 6 
" id="m976226e594" style="stroke:#262626;stroke-width:0.8;"/>
      </defs>
      <g>
       <use style="fill:#262626;stroke:#262626;stroke-width:0.8;" x="65.995227" xlink:href="#m976226e594" y="273.312"/>
      </g>
     </g>
     <g id="text_1">
      <!-- 0 -->
      <defs>
       <path d="M 51.703125 34.421875 
Q 51.703125 24.515625 49.828125 17.75 
Q 47.953125 10.984375 44.703125 6.8125 
Q 41.453125 2.640625 37.0625 0.828125 
Q 32.671875 -0.984375 27.6875 -0.984375 
Q 22.65625 -0.984375 18.3125 0.828125 
Q 13.96875 2.640625 10.765625 6.78125 
Q 7.5625 10.9375 5.734375 17.703125 
Q 3.90625 24.46875 3.90625 34.421875 
Q 3.90625 44.828125 5.734375 51.640625 
Q 7.5625 58.453125 10.78125 62.5 
Q 14.015625 66.546875 18.40625 68.1875 
Q 22.796875 69.828125 27.984375 69.828125 
Q 32.90625 69.828125 37.21875 68.1875 
Q 41.546875 66.546875 44.765625 62.5 
Q 48 58.453125 49.84375 51.640625 
Q 51.703125 44.828125 51.703125 34.421875 
z
M 42.78125 34.421875 
Q 42.78125 42.625 41.796875 48.0625 
Q 40.828125 53.515625 38.921875 56.765625 
Q 37.015625 60.015625 34.25 61.359375 
Q 31.5 62.703125 27.984375 62.703125 
Q 24.265625 62.703125 21.4375 61.328125 
Q 18.609375 59.96875 16.671875 56.71875 
Q 14.75 53.46875 13.765625 48.015625 
Q 12.796875 42.578125 12.796875 34.421875 
Q 12.796875 26.515625 13.796875 21.09375 
Q 14.796875 15.671875 16.71875 12.375 
Q 18.65625 9.078125 21.4375 7.640625 
Q 24.21875 6.203125 27.78125 6.203125 
Q 31.25 6.203125 34.03125 7.640625 
Q 36.8125 9.078125 38.734375 12.375 
Q 40.671875 15.671875 41.71875 21.09375 
Q 42.78125 26.515625 42.78125 34.421875 
z
" id="LiberationSans-48"/>
      </defs>
      <g style="fill:#262626;" transform="translate(63.214759 290.058875)scale(0.1 -0.1)">
       <use xlink:href="#LiberationSans-48"/>
      </g>
     </g>
    </g>
    <g id="xtick_2">
     <g id="line2d_2">
      <g>
       <use style="fill:#262626;stroke:#262626;stroke-width:0.8;" x="130.991132" xlink:href="#m976226e594" y="273.312"/>
      </g>
     </g>
     <g id="text_2">
      <!-- 200 -->
      <defs>
       <path d="M 5.03125 0 
L 5.03125 6.203125 
Q 7.515625 11.921875 11.109375 16.28125 
Q 14.703125 20.65625 18.65625 24.1875 
Q 22.609375 27.734375 26.484375 30.765625 
Q 30.375 33.796875 33.5 36.8125 
Q 36.625 39.84375 38.546875 43.15625 
Q 40.484375 46.484375 40.484375 50.6875 
Q 40.484375 53.609375 39.59375 55.828125 
Q 38.71875 58.0625 37.0625 59.5625 
Q 35.40625 61.078125 33.078125 61.828125 
Q 30.765625 62.59375 27.9375 62.59375 
Q 25.296875 62.59375 22.96875 61.859375 
Q 20.65625 61.140625 18.84375 59.671875 
Q 17.046875 58.203125 15.890625 56.03125 
Q 14.75 53.859375 14.40625 50.984375 
L 5.421875 51.8125 
Q 5.859375 55.515625 7.46875 58.78125 
Q 9.078125 62.0625 11.90625 64.53125 
Q 14.75 67 18.71875 68.40625 
Q 22.703125 69.828125 27.9375 69.828125 
Q 33.0625 69.828125 37.0625 68.609375 
Q 41.0625 67.390625 43.8125 64.984375 
Q 46.578125 62.59375 48.046875 59.078125 
Q 49.515625 55.5625 49.515625 50.984375 
Q 49.515625 47.515625 48.265625 44.390625 
Q 47.015625 41.265625 44.9375 38.421875 
Q 42.875 35.59375 40.140625 32.953125 
Q 37.40625 30.328125 34.421875 27.8125 
Q 31.453125 25.296875 28.421875 22.828125 
Q 25.390625 20.359375 22.71875 17.859375 
Q 20.0625 15.375 17.96875 12.8125 
Q 15.875 10.25 14.703125 7.46875 
L 50.59375 7.46875 
L 50.59375 0 
z
" id="LiberationSans-50"/>
      </defs>
      <g style="fill:#262626;" transform="translate(122.649726 290.058875)scale(0.1 -0.1)">
       <use xlink:href="#LiberationSans-50"/>
       <use x="55.615234" xlink:href="#LiberationSans-48"/>
       <use x="111.230469" xlink:href="#LiberationSans-48"/>
      </g>
     </g>
    </g>
    <g id="xtick_3">
     <g id="line2d_3">
      <g>
       <use style="fill:#262626;stroke:#262626;stroke-width:0.8;" x="195.987037" xlink:href="#m976226e594" y="273.312"/>
      </g>
     </g>
     <g id="text_3">
      <!-- 400 -->
      <defs>
       <path d="M 43.015625 15.578125 
L 43.015625 0 
L 34.71875 0 
L 34.71875 15.578125 
L 2.296875 15.578125 
L 2.296875 22.40625 
L 33.796875 68.796875 
L 43.015625 68.796875 
L 43.015625 22.515625 
L 52.6875 22.515625 
L 52.6875 15.578125 
z
M 34.71875 58.890625 
Q 34.625 58.640625 34.234375 57.9375 
Q 33.84375 57.234375 33.34375 56.34375 
Q 32.859375 55.46875 32.34375 54.5625 
Q 31.84375 53.65625 31.453125 53.078125 
L 13.8125 27.09375 
Q 13.578125 26.703125 13.109375 26.0625 
Q 12.640625 25.4375 12.15625 24.78125 
Q 11.671875 24.125 11.171875 23.484375 
Q 10.6875 22.859375 10.40625 22.515625 
L 34.71875 22.515625 
z
" id="LiberationSans-52"/>
      </defs>
      <g style="fill:#262626;" transform="translate(187.645631 290.058875)scale(0.1 -0.1)">
       <use xlink:href="#LiberationSans-52"/>
       <use x="55.615234" xlink:href="#LiberationSans-48"/>
       <use x="111.230469" xlink:href="#LiberationSans-48"/>
      </g>
     </g>
    </g>
    <g id="xtick_4">
     <g id="line2d_4">
      <g>
       <use style="fill:#262626;stroke:#262626;stroke-width:0.8;" x="260.982942" xlink:href="#m976226e594" y="273.312"/>
      </g>
     </g>
     <g id="text_4">
      <!-- 600 -->
      <defs>
       <path d="M 51.21875 22.515625 
Q 51.21875 17.328125 49.78125 13 
Q 48.34375 8.6875 45.53125 5.578125 
Q 42.71875 2.484375 38.5625 0.75 
Q 34.421875 -0.984375 29 -0.984375 
Q 23 -0.984375 18.5 1.3125 
Q 14.015625 3.609375 11.03125 7.921875 
Q 8.0625 12.25 6.5625 18.53125 
Q 5.078125 24.8125 5.078125 32.8125 
Q 5.078125 42 6.765625 48.921875 
Q 8.453125 55.859375 11.625 60.5 
Q 14.796875 65.140625 19.359375 67.484375 
Q 23.921875 69.828125 29.6875 69.828125 
Q 33.203125 69.828125 36.28125 69.09375 
Q 39.359375 68.359375 41.875 66.71875 
Q 44.390625 65.09375 46.28125 62.40625 
Q 48.1875 59.71875 49.3125 55.8125 
L 40.921875 54.296875 
Q 39.546875 58.734375 36.546875 60.71875 
Q 33.546875 62.703125 29.59375 62.703125 
Q 25.984375 62.703125 23.046875 60.984375 
Q 20.125 59.28125 18.0625 55.875 
Q 16.015625 52.484375 14.90625 47.359375 
Q 13.8125 42.234375 13.8125 35.40625 
Q 16.21875 39.84375 20.5625 42.15625 
Q 24.90625 44.484375 30.515625 44.484375 
Q 35.203125 44.484375 39.015625 42.96875 
Q 42.828125 41.453125 45.53125 38.59375 
Q 48.25 35.75 49.734375 31.671875 
Q 51.21875 27.59375 51.21875 22.515625 
z
M 42.28125 22.125 
Q 42.28125 25.6875 41.40625 28.5625 
Q 40.53125 31.453125 38.765625 33.46875 
Q 37.015625 35.5 34.421875 36.59375 
Q 31.84375 37.703125 28.421875 37.703125 
Q 26.03125 37.703125 23.578125 36.984375 
Q 21.140625 36.28125 19.15625 34.6875 
Q 17.1875 33.109375 15.9375 30.515625 
Q 14.703125 27.9375 14.703125 24.21875 
Q 14.703125 20.40625 15.671875 17.109375 
Q 16.65625 13.8125 18.484375 11.375 
Q 20.3125 8.9375 22.890625 7.515625 
Q 25.484375 6.109375 28.71875 6.109375 
Q 31.890625 6.109375 34.40625 7.203125 
Q 36.921875 8.296875 38.671875 10.375 
Q 40.4375 12.453125 41.359375 15.421875 
Q 42.28125 18.40625 42.28125 22.125 
z
" id="LiberationSans-54"/>
      </defs>
      <g style="fill:#262626;" transform="translate(252.641536 290.058875)scale(0.1 -0.1)">
       <use xlink:href="#LiberationSans-54"/>
       <use x="55.615234" xlink:href="#LiberationSans-48"/>
       <use x="111.230469" xlink:href="#LiberationSans-48"/>
      </g>
     </g>
    </g>
    <g id="xtick_5">
     <g id="line2d_5">
      <g>
       <use style="fill:#262626;stroke:#262626;stroke-width:0.8;" x="325.978847" xlink:href="#m976226e594" y="273.312"/>
      </g>
     </g>
     <g id="text_5">
      <!-- 800 -->
      <defs>
       <path d="M 51.265625 19.1875 
Q 51.265625 14.796875 49.875 11.109375 
Q 48.484375 7.421875 45.625 4.734375 
Q 42.78125 2.046875 38.328125 0.53125 
Q 33.890625 -0.984375 27.828125 -0.984375 
Q 21.78125 -0.984375 17.359375 0.53125 
Q 12.9375 2.046875 10.03125 4.703125 
Q 7.125 7.375 5.734375 11.0625 
Q 4.34375 14.75 4.34375 19.09375 
Q 4.34375 22.859375 5.484375 25.78125 
Q 6.640625 28.71875 8.5625 30.828125 
Q 10.5 32.953125 12.96875 34.25 
Q 15.4375 35.546875 18.0625 35.984375 
L 18.0625 36.1875 
Q 15.1875 36.859375 12.90625 38.375 
Q 10.640625 39.890625 9.09375 42.015625 
Q 7.5625 44.140625 6.75 46.71875 
Q 5.953125 49.3125 5.953125 52.203125 
Q 5.953125 55.8125 7.34375 59 
Q 8.734375 62.203125 11.46875 64.625 
Q 14.203125 67.046875 18.25 68.4375 
Q 22.3125 69.828125 27.640625 69.828125 
Q 33.25 69.828125 37.375 68.40625 
Q 41.5 67 44.203125 64.578125 
Q 46.921875 62.15625 48.234375 58.9375 
Q 49.5625 55.71875 49.5625 52.09375 
Q 49.5625 49.265625 48.75 46.671875 
Q 47.953125 44.09375 46.40625 41.96875 
Q 44.875 39.84375 42.59375 38.34375 
Q 40.328125 36.859375 37.359375 36.28125 
L 37.359375 36.078125 
Q 40.328125 35.59375 42.859375 34.296875 
Q 45.40625 33.015625 47.265625 30.890625 
Q 49.125 28.765625 50.1875 25.828125 
Q 51.265625 22.90625 51.265625 19.1875 
z
M 40.4375 51.609375 
Q 40.4375 54.203125 39.765625 56.34375 
Q 39.109375 58.5 37.59375 60.03125 
Q 36.078125 61.578125 33.640625 62.421875 
Q 31.203125 63.28125 27.640625 63.28125 
Q 24.171875 63.28125 21.78125 62.421875 
Q 19.390625 61.578125 17.84375 60.03125 
Q 16.3125 58.5 15.625 56.34375 
Q 14.9375 54.203125 14.9375 51.609375 
Q 14.9375 49.5625 15.46875 47.40625 
Q 16.015625 45.265625 17.421875 43.5 
Q 18.84375 41.75 21.328125 40.625 
Q 23.828125 39.5 27.734375 39.5 
Q 31.890625 39.5 34.40625 40.625 
Q 36.921875 41.75 38.25 43.5 
Q 39.59375 45.265625 40.015625 47.40625 
Q 40.4375 49.5625 40.4375 51.609375 
z
M 42.140625 20.015625 
Q 42.140625 22.515625 41.453125 24.828125 
Q 40.765625 27.15625 39.109375 28.9375 
Q 37.453125 30.71875 34.640625 31.8125 
Q 31.84375 32.90625 27.640625 32.90625 
Q 23.78125 32.90625 21.0625 31.8125 
Q 18.359375 30.71875 16.671875 28.90625 
Q 14.984375 27.09375 14.203125 24.71875 
Q 13.421875 22.359375 13.421875 19.828125 
Q 13.421875 16.65625 14.203125 14.03125 
Q 14.984375 11.421875 16.6875 9.546875 
Q 18.40625 7.671875 21.1875 6.640625 
Q 23.96875 5.609375 27.9375 5.609375 
Q 31.9375 5.609375 34.671875 6.640625 
Q 37.40625 7.671875 39.0625 9.546875 
Q 40.71875 11.421875 41.421875 14.078125 
Q 42.140625 16.75 42.140625 20.015625 
z
" id="LiberationSans-56"/>
      </defs>
      <g style="fill:#262626;" transform="translate(317.637441 290.058875)scale(0.1 -0.1)">
       <use xlink:href="#LiberationSans-56"/>
       <use x="55.615234" xlink:href="#LiberationSans-48"/>
       <use x="111.230469" xlink:href="#LiberationSans-48"/>
      </g>
     </g>
    </g>
    <g id="xtick_6">
     <g id="line2d_6">
      <g>
       <use style="fill:#262626;stroke:#262626;stroke-width:0.8;" x="390.974752" xlink:href="#m976226e594" y="273.312"/>
      </g>
     </g>
     <g id="text_6">
      <!-- 1000 -->
      <defs>
       <path d="M 7.625 0 
L 7.625 7.46875 
L 25.140625 7.46875 
L 25.140625 60.40625 
L 9.625 49.3125 
L 9.625 57.625 
L 25.875 68.796875 
L 33.984375 68.796875 
L 33.984375 7.46875 
L 50.734375 7.46875 
L 50.734375 0 
z
" id="LiberationSans-49"/>
      </defs>
      <g style="fill:#262626;" transform="translate(379.852877 290.058875)scale(0.1 -0.1)">
       <use xlink:href="#LiberationSans-49"/>
       <use x="55.615234" xlink:href="#LiberationSans-48"/>
       <use x="111.230469" xlink:href="#LiberationSans-48"/>
       <use x="166.845703" xlink:href="#LiberationSans-48"/>
      </g>
     </g>
    </g>
    <g id="text_7">
     <!-- time -->
     <defs>
      <path d="M 27.046875 0.390625 
Q 25.046875 -0.140625 22.96875 -0.453125 
Q 20.90625 -0.78125 18.171875 -0.78125 
Q 7.625 -0.78125 7.625 11.1875 
L 7.625 46.4375 
L 1.515625 46.4375 
L 1.515625 52.828125 
L 7.953125 52.828125 
L 10.546875 64.65625 
L 16.40625 64.65625 
L 16.40625 52.828125 
L 26.171875 52.828125 
L 26.171875 46.4375 
L 16.40625 46.4375 
L 16.40625 13.09375 
Q 16.40625 9.28125 17.640625 7.734375 
Q 18.890625 6.203125 21.96875 6.203125 
Q 23.25 6.203125 24.4375 6.390625 
Q 25.640625 6.59375 27.046875 6.890625 
z
" id="LiberationSans-116"/>
      <path d="M 6.6875 64.0625 
L 6.6875 72.46875 
L 15.484375 72.46875 
L 15.484375 64.0625 
z
M 6.6875 0 
L 6.6875 52.828125 
L 15.484375 52.828125 
L 15.484375 0 
z
" id="LiberationSans-105"/>
      <path d="M 37.5 0 
L 37.5 33.5 
Q 37.5 37.359375 37.015625 39.9375 
Q 36.53125 42.53125 35.375 44.109375 
Q 34.234375 45.703125 32.375 46.359375 
Q 30.515625 47.015625 27.828125 47.015625 
Q 25.046875 47.015625 22.796875 45.921875 
Q 20.5625 44.828125 18.96875 42.75 
Q 17.390625 40.671875 16.53125 37.625 
Q 15.671875 34.578125 15.671875 30.609375 
L 15.671875 0 
L 6.9375 0 
L 6.9375 41.546875 
Q 6.9375 43.21875 6.90625 45.046875 
Q 6.890625 46.875 6.828125 48.5 
Q 6.78125 50.140625 6.734375 51.3125 
Q 6.6875 52.484375 6.640625 52.828125 
L 14.9375 52.828125 
Q 14.984375 52.59375 15.03125 51.515625 
Q 15.09375 50.4375 15.15625 49.046875 
Q 15.234375 47.65625 15.28125 46.21875 
Q 15.328125 44.78125 15.328125 43.796875 
L 15.484375 43.796875 
Q 16.65625 46.09375 18.015625 47.953125 
Q 19.390625 49.8125 21.21875 51.09375 
Q 23.046875 52.390625 25.40625 53.09375 
Q 27.78125 53.8125 30.90625 53.8125 
Q 36.921875 53.8125 40.40625 51.421875 
Q 43.890625 49.03125 45.265625 43.796875 
L 45.40625 43.796875 
Q 46.578125 46.09375 48.046875 47.953125 
Q 49.515625 49.8125 51.46875 51.09375 
Q 53.421875 52.390625 55.859375 53.09375 
Q 58.296875 53.8125 61.421875 53.8125 
Q 65.4375 53.8125 68.328125 52.734375 
Q 71.234375 51.65625 73.09375 49.40625 
Q 74.953125 47.171875 75.828125 43.625 
Q 76.703125 40.09375 76.703125 35.203125 
L 76.703125 0 
L 68.015625 0 
L 68.015625 33.5 
Q 68.015625 37.359375 67.53125 39.9375 
Q 67.046875 42.53125 65.890625 44.109375 
Q 64.75 45.703125 62.890625 46.359375 
Q 61.03125 47.015625 58.34375 47.015625 
Q 55.5625 47.015625 53.3125 45.96875 
Q 51.078125 44.921875 49.484375 42.875 
Q 47.90625 40.828125 47.046875 37.75 
Q 46.1875 34.671875 46.1875 30.609375 
L 46.1875 0 
z
" id="LiberationSans-109"/>
      <path d="M 13.484375 24.5625 
Q 13.484375 20.40625 14.328125 16.90625 
Q 15.1875 13.421875 16.96875 10.90625 
Q 18.75 8.40625 21.53125 7 
Q 24.3125 5.609375 28.21875 5.609375 
Q 33.9375 5.609375 37.375 7.90625 
Q 40.828125 10.203125 42.046875 13.71875 
L 49.75 11.53125 
Q 48.921875 9.328125 47.4375 7.109375 
Q 45.953125 4.890625 43.453125 3.09375 
Q 40.96875 1.3125 37.234375 0.15625 
Q 33.5 -0.984375 28.21875 -0.984375 
Q 16.5 -0.984375 10.375 6 
Q 4.25 12.984375 4.25 26.765625 
Q 4.25 34.1875 6.09375 39.328125 
Q 7.953125 44.484375 11.171875 47.703125 
Q 14.40625 50.921875 18.703125 52.359375 
Q 23 53.8125 27.875 53.8125 
Q 34.515625 53.8125 38.984375 51.65625 
Q 43.453125 49.515625 46.15625 45.71875 
Q 48.875 41.9375 50.015625 36.8125 
Q 51.171875 31.6875 51.171875 25.734375 
L 51.171875 24.5625 
z
M 42.09375 31.296875 
Q 41.359375 39.65625 37.84375 43.484375 
Q 34.328125 47.3125 27.734375 47.3125 
Q 25.53125 47.3125 23.109375 46.609375 
Q 20.703125 45.90625 18.65625 44.09375 
Q 16.609375 42.28125 15.1875 39.171875 
Q 13.765625 36.078125 13.578125 31.296875 
z
" id="LiberationSans-101"/>
     </defs>
     <g style="fill:#262626;" transform="translate(218.877188 303.38075)scale(0.1 -0.1)">
      <use xlink:href="#LiberationSans-116"/>
      <use x="27.783203" xlink:href="#LiberationSans-105"/>
      <use x="50" xlink:href="#LiberationSans-109"/>
      <use x="133.300781" xlink:href="#LiberationSans-101"/>
     </g>
    </g>
   </g>
   <g id="matplotlib.axis_2">
    <g id="ytick_1">
     <g id="line2d_7">
      <defs>
       <path d="M 0 0 
L -6 0 
" id="me005c6b85b" style="stroke:#262626;stroke-width:0.8;"/>
      </defs>
      <g>
       <use style="fill:#262626;stroke:#262626;stroke-width:0.8;" x="49.7625" xlink:href="#me005c6b85b" y="246.845038"/>
      </g>
     </g>
     <g id="text_8">
      <!-- −1.0 -->
      <defs>
       <path d="M 4.9375 29.6875 
L 4.9375 36.8125 
L 53.515625 36.8125 
L 53.515625 29.6875 
z
" id="LiberationSans-8722"/>
       <path d="M 9.125 0 
L 9.125 10.6875 
L 18.65625 10.6875 
L 18.65625 0 
z
" id="LiberationSans-46"/>
      </defs>
      <g style="fill:#262626;" transform="translate(20.521875 250.468475)scale(0.1 -0.1)">
       <use xlink:href="#LiberationSans-8722"/>
       <use x="58.398438" xlink:href="#LiberationSans-49"/>
       <use x="114.013672" xlink:href="#LiberationSans-46"/>
       <use x="141.796875" xlink:href="#LiberationSans-48"/>
      </g>
     </g>
    </g>
    <g id="ytick_2">
     <g id="line2d_8">
      <g>
       <use style="fill:#262626;stroke:#262626;stroke-width:0.8;" x="49.7625" xlink:href="#me005c6b85b" y="194.039646"/>
      </g>
     </g>
     <g id="text_9">
      <!-- −0.5 -->
      <defs>
       <path d="M 51.421875 22.40625 
Q 51.421875 17.234375 49.859375 12.9375 
Q 48.296875 8.640625 45.21875 5.53125 
Q 42.140625 2.4375 37.578125 0.71875 
Q 33.015625 -0.984375 27 -0.984375 
Q 21.578125 -0.984375 17.546875 0.28125 
Q 13.53125 1.5625 10.734375 3.78125 
Q 7.953125 6 6.3125 8.984375 
Q 4.6875 11.96875 4 15.375 
L 12.890625 16.40625 
Q 13.421875 14.453125 14.390625 12.625 
Q 15.375 10.796875 17.0625 9.34375 
Q 18.75 7.90625 21.21875 7.046875 
Q 23.6875 6.203125 27.203125 6.203125 
Q 30.609375 6.203125 33.390625 7.25 
Q 36.1875 8.296875 38.15625 10.34375 
Q 40.140625 12.40625 41.203125 15.375 
Q 42.28125 18.359375 42.28125 22.21875 
Q 42.28125 25.390625 41.25 28.046875 
Q 40.234375 30.71875 38.328125 32.640625 
Q 36.421875 34.578125 33.65625 35.640625 
Q 30.90625 36.71875 27.390625 36.71875 
Q 25.203125 36.71875 23.34375 36.328125 
Q 21.484375 35.9375 19.890625 35.25 
Q 18.3125 34.578125 17.015625 33.671875 
Q 15.71875 32.765625 14.59375 31.78125 
L 6 31.78125 
L 8.296875 68.796875 
L 47.40625 68.796875 
L 47.40625 61.328125 
L 16.3125 61.328125 
L 14.984375 39.5 
Q 17.328125 41.3125 20.84375 42.59375 
Q 24.359375 43.890625 29.203125 43.890625 
Q 34.328125 43.890625 38.421875 42.328125 
Q 42.53125 40.765625 45.40625 37.90625 
Q 48.296875 35.0625 49.859375 31.109375 
Q 51.421875 27.15625 51.421875 22.40625 
z
" id="LiberationSans-53"/>
      </defs>
      <g style="fill:#262626;" transform="translate(20.521875 197.663083)scale(0.1 -0.1)">
       <use xlink:href="#LiberationSans-8722"/>
       <use x="58.398438" xlink:href="#LiberationSans-48"/>
       <use x="114.013672" xlink:href="#LiberationSans-46"/>
       <use x="141.796875" xlink:href="#LiberationSans-53"/>
      </g>
     </g>
    </g>
    <g id="ytick_3">
     <g id="line2d_9">
      <g>
       <use style="fill:#262626;stroke:#262626;stroke-width:0.8;" x="49.7625" xlink:href="#me005c6b85b" y="141.234254"/>
      </g>
     </g>
     <g id="text_10">
      <!-- 0.0 -->
      <g style="fill:#262626;" transform="translate(26.3625 144.857692)scale(0.1 -0.1)">
       <use xlink:href="#LiberationSans-48"/>
       <use x="55.615234" xlink:href="#LiberationSans-46"/>
       <use x="83.398438" xlink:href="#LiberationSans-48"/>
      </g>
     </g>
    </g>
    <g id="ytick_4">
     <g id="line2d_10">
      <g>
       <use style="fill:#262626;stroke:#262626;stroke-width:0.8;" x="49.7625" xlink:href="#me005c6b85b" y="88.428862"/>
      </g>
     </g>
     <g id="text_11">
      <!-- 0.5 -->
      <g style="fill:#262626;" transform="translate(26.3625 92.0523)scale(0.1 -0.1)">
       <use xlink:href="#LiberationSans-48"/>
       <use x="55.615234" xlink:href="#LiberationSans-46"/>
       <use x="83.398438" xlink:href="#LiberationSans-53"/>
      </g>
     </g>
    </g>
    <g id="ytick_5">
     <g id="line2d_11">
      <g>
       <use style="fill:#262626;stroke:#262626;stroke-width:0.8;" x="49.7625" xlink:href="#me005c6b85b" y="35.62347"/>
      </g>
     </g>
     <g id="text_12">
      <!-- 1.0 -->
      <g style="fill:#262626;" transform="translate(26.3625 39.246908)scale(0.1 -0.1)">
       <use xlink:href="#LiberationSans-49"/>
       <use x="55.615234" xlink:href="#LiberationSans-46"/>
       <use x="83.398438" xlink:href="#LiberationSans-48"/>
      </g>
     </g>
    </g>
    <g id="text_13">
     <!-- analogs -->
     <defs>
      <path d="M 20.21875 -0.984375 
Q 12.25 -0.984375 8.25 3.21875 
Q 4.25 7.421875 4.25 14.75 
Q 4.25 19.96875 6.21875 23.3125 
Q 8.203125 26.65625 11.390625 28.5625 
Q 14.59375 30.46875 18.6875 31.203125 
Q 22.796875 31.9375 27.046875 32.03125 
L 38.921875 32.234375 
L 38.921875 35.109375 
Q 38.921875 38.375 38.234375 40.671875 
Q 37.546875 42.96875 36.125 44.375 
Q 34.71875 45.796875 32.59375 46.453125 
Q 30.46875 47.125 27.59375 47.125 
Q 25.046875 47.125 23 46.75 
Q 20.953125 46.390625 19.4375 45.4375 
Q 17.921875 44.484375 16.984375 42.84375 
Q 16.0625 41.21875 15.765625 38.71875 
L 6.59375 39.546875 
Q 7.078125 42.671875 8.4375 45.28125 
Q 9.8125 47.90625 12.328125 49.796875 
Q 14.84375 51.703125 18.625 52.75 
Q 22.40625 53.8125 27.78125 53.8125 
Q 37.75 53.8125 42.765625 49.234375 
Q 47.796875 44.671875 47.796875 36.03125 
L 47.796875 13.28125 
Q 47.796875 9.375 48.828125 7.390625 
Q 49.859375 5.421875 52.734375 5.421875 
Q 53.46875 5.421875 54.203125 5.515625 
Q 54.9375 5.609375 55.609375 5.765625 
L 55.609375 0.296875 
Q 53.953125 -0.09375 52.3125 -0.28125 
Q 50.6875 -0.484375 48.828125 -0.484375 
Q 46.34375 -0.484375 44.5625 0.171875 
Q 42.78125 0.828125 41.65625 2.171875 
Q 40.53125 3.515625 39.9375 5.484375 
Q 39.359375 7.46875 39.203125 10.109375 
L 38.921875 10.109375 
Q 37.5 7.5625 35.8125 5.515625 
Q 34.125 3.46875 31.875 2.03125 
Q 29.640625 0.59375 26.78125 -0.1875 
Q 23.921875 -0.984375 20.21875 -0.984375 
z
M 22.21875 5.609375 
Q 26.421875 5.609375 29.5625 7.140625 
Q 32.71875 8.6875 34.78125 11.078125 
Q 36.859375 13.484375 37.890625 16.3125 
Q 38.921875 19.140625 38.921875 21.734375 
L 38.921875 26.078125 
L 29.296875 25.875 
Q 26.078125 25.828125 23.171875 25.40625 
Q 20.265625 25 18.0625 23.78125 
Q 15.875 22.5625 14.578125 20.359375 
Q 13.28125 18.171875 13.28125 14.59375 
Q 13.28125 10.296875 15.59375 7.953125 
Q 17.921875 5.609375 22.21875 5.609375 
z
" id="LiberationSans-97"/>
      <path d="M 40.28125 0 
L 40.28125 33.5 
Q 40.28125 37.359375 39.71875 39.9375 
Q 39.15625 42.53125 37.890625 44.109375 
Q 36.625 45.703125 34.546875 46.359375 
Q 32.46875 47.015625 29.390625 47.015625 
Q 26.265625 47.015625 23.75 45.921875 
Q 21.234375 44.828125 19.453125 42.75 
Q 17.671875 40.671875 16.6875 37.625 
Q 15.71875 34.578125 15.71875 30.609375 
L 15.71875 0 
L 6.9375 0 
L 6.9375 41.546875 
Q 6.9375 43.21875 6.90625 45.046875 
Q 6.890625 46.875 6.828125 48.5 
Q 6.78125 50.140625 6.734375 51.3125 
Q 6.6875 52.484375 6.640625 52.828125 
L 14.9375 52.828125 
Q 14.984375 52.59375 15.03125 51.515625 
Q 15.09375 50.4375 15.15625 49.046875 
Q 15.234375 47.65625 15.28125 46.21875 
Q 15.328125 44.78125 15.328125 43.796875 
L 15.484375 43.796875 
Q 16.75 46.09375 18.265625 47.953125 
Q 19.78125 49.8125 21.78125 51.09375 
Q 23.78125 52.390625 26.359375 53.09375 
Q 28.953125 53.8125 32.375 53.8125 
Q 36.765625 53.8125 39.9375 52.734375 
Q 43.109375 51.65625 45.15625 49.40625 
Q 47.21875 47.171875 48.171875 43.625 
Q 49.125 40.09375 49.125 35.203125 
L 49.125 0 
z
" id="LiberationSans-110"/>
      <path d="M 6.734375 0 
L 6.734375 72.46875 
L 15.53125 72.46875 
L 15.53125 0 
z
" id="LiberationSans-108"/>
      <path d="M 51.421875 26.46875 
Q 51.421875 12.59375 45.3125 5.796875 
Q 39.203125 -0.984375 27.59375 -0.984375 
Q 22.078125 -0.984375 17.71875 0.671875 
Q 13.375 2.34375 10.375 5.765625 
Q 7.375 9.1875 5.78125 14.328125 
Q 4.203125 19.484375 4.203125 26.46875 
Q 4.203125 53.8125 27.875 53.8125 
Q 34.03125 53.8125 38.5 52.09375 
Q 42.96875 50.390625 45.828125 46.96875 
Q 48.6875 43.5625 50.046875 38.421875 
Q 51.421875 33.296875 51.421875 26.46875 
z
M 42.1875 26.46875 
Q 42.1875 32.625 41.234375 36.625 
Q 40.28125 40.625 38.453125 43.015625 
Q 36.625 45.40625 33.984375 46.359375 
Q 31.34375 47.3125 28.03125 47.3125 
Q 24.65625 47.3125 21.9375 46.3125 
Q 19.234375 45.3125 17.328125 42.890625 
Q 15.4375 40.484375 14.421875 36.46875 
Q 13.421875 32.46875 13.421875 26.46875 
Q 13.421875 20.3125 14.5 16.28125 
Q 15.578125 12.25 17.453125 9.859375 
Q 19.34375 7.46875 21.90625 6.484375 
Q 24.46875 5.515625 27.484375 5.515625 
Q 30.859375 5.515625 33.59375 6.46875 
Q 36.328125 7.421875 38.234375 9.8125 
Q 40.140625 12.203125 41.15625 16.25 
Q 42.1875 20.3125 42.1875 26.46875 
z
" id="LiberationSans-111"/>
      <path d="M 26.765625 -20.75 
Q 22.21875 -20.75 18.703125 -19.8125 
Q 15.1875 -18.890625 12.6875 -17.15625 
Q 10.203125 -15.4375 8.640625 -13.03125 
Q 7.078125 -10.640625 6.390625 -7.71875 
L 15.234375 -6.453125 
Q 16.109375 -10.109375 19.109375 -12.078125 
Q 22.125 -14.0625 27 -14.0625 
Q 29.984375 -14.0625 32.421875 -13.234375 
Q 34.859375 -12.40625 36.5625 -10.5625 
Q 38.28125 -8.734375 39.203125 -5.796875 
Q 40.140625 -2.875 40.140625 1.3125 
L 40.140625 9.8125 
L 40.046875 9.8125 
Q 39.0625 7.8125 37.625 5.984375 
Q 36.1875 4.15625 34.109375 2.734375 
Q 32.03125 1.3125 29.296875 0.453125 
Q 26.5625 -0.390625 23.046875 -0.390625 
Q 18.015625 -0.390625 14.421875 1.296875 
Q 10.84375 2.984375 8.5625 6.34375 
Q 6.296875 9.71875 5.25 14.71875 
Q 4.203125 19.734375 4.203125 26.3125 
Q 4.203125 32.671875 5.25 37.75 
Q 6.296875 42.828125 8.65625 46.359375 
Q 11.03125 49.90625 14.8125 51.78125 
Q 18.609375 53.65625 24.03125 53.65625 
Q 29.640625 53.65625 33.765625 51.09375 
Q 37.890625 48.53125 40.140625 43.796875 
L 40.234375 43.796875 
Q 40.234375 45.015625 40.296875 46.53125 
Q 40.375 48.046875 40.453125 49.390625 
Q 40.53125 50.734375 40.625 51.703125 
Q 40.71875 52.6875 40.828125 52.828125 
L 49.171875 52.828125 
Q 49.125 52.390625 49.078125 51.34375 
Q 49.03125 50.296875 48.96875 48.828125 
Q 48.921875 47.359375 48.890625 45.578125 
Q 48.875 43.796875 48.875 41.890625 
L 48.875 1.515625 
Q 48.875 -9.578125 43.421875 -15.15625 
Q 37.984375 -20.75 26.765625 -20.75 
z
M 40.140625 26.421875 
Q 40.140625 31.9375 38.9375 35.859375 
Q 37.75 39.796875 35.796875 42.28125 
Q 33.84375 44.78125 31.328125 45.953125 
Q 28.8125 47.125 26.171875 47.125 
Q 22.796875 47.125 20.375 45.953125 
Q 17.96875 44.78125 16.375 42.265625 
Q 14.796875 39.75 14.03125 35.8125 
Q 13.28125 31.890625 13.28125 26.421875 
Q 13.28125 20.703125 14.03125 16.8125 
Q 14.796875 12.9375 16.359375 10.546875 
Q 17.921875 8.15625 20.3125 7.125 
Q 22.703125 6.109375 26.03125 6.109375 
Q 28.65625 6.109375 31.171875 7.21875 
Q 33.6875 8.34375 35.6875 10.78125 
Q 37.703125 13.234375 38.921875 17.09375 
Q 40.140625 20.953125 40.140625 26.421875 
z
" id="LiberationSans-103"/>
      <path d="M 46.390625 14.59375 
Q 46.390625 10.890625 44.9375 7.984375 
Q 43.5 5.078125 40.765625 3.09375 
Q 38.03125 1.125 34.046875 0.0625 
Q 30.078125 -0.984375 24.953125 -0.984375 
Q 20.359375 -0.984375 16.671875 -0.265625 
Q 12.984375 0.4375 10.203125 2 
Q 7.421875 3.5625 5.53125 6.125 
Q 3.65625 8.6875 2.78125 12.40625 
L 10.546875 13.921875 
Q 11.671875 9.671875 15.1875 7.6875 
Q 18.703125 5.71875 24.953125 5.71875 
Q 27.78125 5.71875 30.140625 6.109375 
Q 32.515625 6.5 34.21875 7.453125 
Q 35.9375 8.40625 36.890625 9.984375 
Q 37.84375 11.578125 37.84375 13.921875 
Q 37.84375 16.3125 36.71875 17.84375 
Q 35.59375 19.390625 33.59375 20.40625 
Q 31.59375 21.4375 28.734375 22.1875 
Q 25.875 22.953125 22.46875 23.875 
Q 19.28125 24.703125 16.15625 25.734375 
Q 13.03125 26.765625 10.515625 28.4375 
Q 8.015625 30.125 6.453125 32.609375 
Q 4.890625 35.109375 4.890625 38.875 
Q 4.890625 46.09375 10.03125 49.875 
Q 15.1875 53.65625 25.046875 53.65625 
Q 33.796875 53.65625 38.9375 50.578125 
Q 44.09375 47.515625 45.453125 40.71875 
L 37.546875 39.75 
Q 37.109375 41.796875 35.9375 43.1875 
Q 34.765625 44.578125 33.109375 45.4375 
Q 31.453125 46.296875 29.375 46.65625 
Q 27.296875 47.015625 25.046875 47.015625 
Q 19.09375 47.015625 16.25 45.203125 
Q 13.421875 43.40625 13.421875 39.75 
Q 13.421875 37.59375 14.46875 36.203125 
Q 15.53125 34.8125 17.40625 33.859375 
Q 19.28125 32.90625 21.921875 32.203125 
Q 24.5625 31.5 27.734375 30.71875 
Q 29.828125 30.171875 32.03125 29.5625 
Q 34.234375 28.953125 36.296875 28.09375 
Q 38.375 27.25 40.203125 26.09375 
Q 42.046875 24.953125 43.40625 23.34375 
Q 44.78125 21.734375 45.578125 19.578125 
Q 46.390625 17.4375 46.390625 14.59375 
z
" id="LiberationSans-115"/>
     </defs>
     <g style="fill:#262626;" transform="translate(14.446875 157.769281)rotate(-90)scale(0.1 -0.1)">
      <use xlink:href="#LiberationSans-97"/>
      <use x="55.615234" xlink:href="#LiberationSans-110"/>
      <use x="111.230469" xlink:href="#LiberationSans-97"/>
      <use x="166.845703" xlink:href="#LiberationSans-108"/>
      <use x="189.0625" xlink:href="#LiberationSans-111"/>
      <use x="244.677734" xlink:href="#LiberationSans-103"/>
      <use x="300.292969" xlink:href="#LiberationSans-115"/>
     </g>
    </g>
   </g>
   <g id="line2d_12">
    <path clip-path="url(#pb1bfcf2caa)" d="M 65.995227 122.139874 
L 66.320207 96.725841 
L 66.645186 135.673606 
L 66.970166 84.210209 
L 67.295145 87.991056 
L 67.620125 108.041605 
L 67.945104 36.100185 
L 68.270084 149.726727 
L 68.595063 97.681983 
L 68.920043 78.337126 
L 69.245023 167.418397 
L 69.570002 150.279812 
L 69.894982 42.136009 
L 70.219961 240.024479 
L 70.544941 176.023364 
L 70.86992 144.146374 
L 71.1949 246.5356 
L 71.519879 56.930002 
L 71.844859 186.384047 
L 72.169838 192.412219 
L 72.494818 73.574453 
L 72.819797 188.128985 
L 73.144777 107.940963 
L 73.469756 73.325856 
L 73.794736 79.456836 
L 74.119715 81.680177 
L 74.444695 228.122871 
L 74.769674 229.979636 
L 75.094654 182.04859 
L 75.419633 239.25207 
L 75.744613 141.143484 
L 76.069593 163.458551 
L 76.394572 129.189151 
L 76.719552 183.734454 
L 77.044531 144.243316 
L 77.69449 205.612879 
L 78.01947 109.68479 
L 78.344449 104.600851 
L 78.669429 71.69342 
L 78.994408 62.078595 
L 79.319388 98.04749 
L 79.644367 101.630614 
L 79.969347 234.873915 
L 80.294326 223.657294 
L 80.619306 75.214269 
L 80.944285 197.640707 
L 81.269265 171.742028 
L 81.594244 216.155103 
L 81.919224 205.624733 
L 82.244204 83.060194 
L 82.569183 191.534639 
L 82.894163 151.999168 
L 83.219142 214.808773 
L 83.544122 103.65162 
L 83.869101 93.018763 
L 84.194081 170.447819 
L 84.51906 81.089621 
L 84.84404 196.171579 
L 85.169019 100.70002 
L 85.493999 92.660775 
L 85.818978 42.243708 
L 86.143958 197.773692 
L 86.468937 227.051363 
L 86.793917 191.286284 
L 87.118896 220.893892 
L 87.443876 211.00194 
L 87.768855 176.272847 
L 88.093835 159.401263 
L 88.418814 55.95899 
L 88.743794 205.526768 
L 89.068774 41.588584 
L 89.393753 75.723207 
L 90.043712 50.526421 
L 90.368692 87.744252 
L 90.693671 80.237725 
L 91.018651 154.368371 
L 91.34363 139.026939 
L 91.66861 49.884004 
L 91.993589 166.949231 
L 92.318569 237.984911 
L 92.643548 85.734861 
L 92.968528 125.78181 
L 93.293507 74.72566 
L 93.618487 230.886981 
L 93.943466 115.627443 
L 94.268446 194.524212 
L 94.593425 56.055229 
L 94.918405 223.629688 
L 95.243385 68.770625 
L 95.568364 228.14047 
L 95.893344 241.543935 
L 96.218323 197.195417 
L 96.543303 176.498848 
L 96.868282 114.508649 
L 97.193262 219.021962 
L 97.518241 154.471524 
L 97.843221 203.70016 
L 98.1682 66.18653 
L 98.49318 237.347141 
L 99.468118 53.981122 
L 99.793098 63.506107 
L 100.118077 57.761181 
L 100.443057 233.569067 
L 100.768036 69.223908 
L 101.093016 82.110681 
L 101.417995 56.23201 
L 101.742975 181.03341 
L 102.067955 54.260583 
L 102.392934 161.798557 
L 102.717914 112.909508 
L 103.042893 157.249286 
L 103.367873 156.516466 
L 103.692852 131.38351 
L 104.017832 171.66564 
L 104.342811 79.401887 
L 104.667791 113.006871 
L 104.99277 101.153745 
L 105.31775 198.045505 
L 105.642729 42.049826 
L 105.967709 107.401608 
L 106.292688 205.193018 
L 106.617668 88.325312 
L 106.942647 210.152873 
L 107.267627 233.456781 
L 107.592606 135.414383 
L 107.917586 129.928841 
L 108.242566 206.931433 
L 108.567545 173.259891 
L 108.892525 47.078165 
L 109.217504 186.646208 
L 109.542484 213.985708 
L 109.867463 37.194545 
L 110.192443 182.991589 
L 110.517422 103.160791 
L 110.842402 197.934533 
L 111.167381 130.647576 
L 111.492361 165.253951 
L 111.81734 43.738759 
L 112.14232 155.427103 
L 112.467299 123.454851 
L 112.792279 47.290026 
L 113.117258 37.897418 
L 113.442238 225.372599 
L 113.767217 70.618509 
L 114.092197 166.133793 
L 114.417176 121.204386 
L 114.742156 167.626795 
L 115.067136 162.120644 
L 115.392115 213.2909 
L 115.717095 125.864409 
L 116.042074 131.366839 
L 116.367054 206.849011 
L 117.017013 41.304933 
L 117.666972 145.251148 
L 117.991951 53.348342 
L 118.64191 218.319988 
L 118.96689 131.199192 
L 119.291869 208.619613 
L 119.616849 84.731463 
L 119.941828 42.556984 
L 120.266808 170.632371 
L 120.591787 154.981001 
L 120.916767 157.815893 
L 121.241747 186.58353 
L 121.566726 79.097101 
L 121.891706 116.367491 
L 122.216685 233.315968 
L 122.541665 69.671049 
L 122.866644 207.327968 
L 123.191624 40.027195 
L 123.516603 167.285659 
L 123.841583 116.637577 
L 124.166562 230.407011 
L 124.491542 174.044721 
L 124.816521 77.370577 
L 125.141501 146.048312 
L 125.46648 55.773272 
L 125.79146 125.363395 
L 126.116439 50.710563 
L 126.441419 39.296633 
L 126.766398 150.972717 
L 127.091378 127.471781 
L 127.416357 70.491791 
L 127.741337 200.052489 
L 128.066317 64.850289 
L 128.391296 121.818738 
L 128.716276 93.603762 
L 129.041255 229.978146 
L 129.366235 85.009674 
L 129.691214 181.200141 
L 130.016194 76.762614 
L 130.666153 188.840568 
L 130.991132 45.601641 
L 131.316112 85.247359 
L 131.641091 38.64688 
L 131.966071 169.861135 
L 132.29105 109.715849 
L 132.61603 117.664319 
L 132.941009 101.618225 
L 133.265989 238.751753 
L 133.590968 185.227625 
L 133.915948 54.77333 
L 134.240928 157.325102 
L 134.565907 43.936374 
L 134.890887 201.748563 
L 135.215866 36.167583 
L 135.540846 99.500905 
L 135.865825 82.854002 
L 136.190805 163.019399 
L 136.515784 55.265361 
L 136.840764 131.631509 
L 137.165743 103.016166 
L 137.490723 226.819486 
L 137.815702 113.42045 
L 138.140682 61.164596 
L 138.465661 209.187775 
L 138.790641 91.02141 
L 139.11562 241.47985 
L 139.4406 51.210985 
L 139.765579 39.231744 
L 140.090559 172.034569 
L 140.415538 224.228731 
L 140.740518 107.739505 
L 141.065498 240.543345 
L 141.390477 144.933529 
L 141.715457 189.439414 
L 142.040436 146.865621 
L 142.365416 242.984855 
L 142.690395 235.943432 
L 143.015375 243.470598 
L 143.340354 116.071034 
L 143.665334 128.541334 
L 143.990313 197.59704 
L 144.315293 110.260063 
L 144.640272 60.081395 
L 144.965252 188.268629 
L 145.290231 71.110002 
L 145.615211 106.90882 
L 145.94019 239.701431 
L 146.26517 167.605289 
L 146.590149 139.595763 
L 146.915129 92.294388 
L 147.240109 186.196871 
L 147.565088 39.271245 
L 148.540027 226.351257 
L 148.865006 208.536255 
L 149.189986 143.851762 
L 149.514965 142.35471 
L 149.839945 84.686277 
L 150.164924 93.460873 
L 150.489904 204.331831 
L 150.814883 121.177368 
L 151.139863 242.489269 
L 151.789822 85.449531 
L 152.114801 162.460207 
L 152.439781 70.34909 
L 152.76476 40.659987 
L 153.414719 216.217049 
L 153.739699 166.649023 
L 154.064679 244.841949 
L 154.389658 119.536323 
L 154.714638 73.312051 
L 155.039617 113.788107 
L 155.364597 80.806672 
L 155.689576 77.888077 
L 156.014556 67.092828 
L 156.339535 190.519896 
L 156.664515 62.814335 
L 156.989494 108.686278 
L 157.314474 185.648752 
L 157.639453 38.307101 
L 157.964433 46.146023 
L 158.289412 125.510713 
L 158.614392 68.741242 
L 158.939371 191.611762 
L 159.264351 158.969051 
L 159.58933 207.986234 
L 159.91431 136.988142 
L 160.23929 142.078838 
L 160.564269 201.894295 
L 160.889249 104.73481 
L 161.214228 221.965187 
L 161.539208 233.814473 
L 161.864187 165.544807 
L 162.189167 160.281206 
L 162.839126 192.361145 
L 163.164105 175.288167 
L 163.489085 212.336593 
L 163.814064 161.627175 
L 164.139044 55.773295 
L 164.464023 199.44124 
L 164.789003 102.274203 
L 165.113982 216.897091 
L 165.438962 172.092326 
L 165.763941 179.005997 
L 166.088921 48.92422 
L 166.4139 156.445997 
L 166.73888 101.003739 
L 167.06386 119.591899 
L 167.388839 217.056444 
L 167.713819 48.393831 
L 168.038798 173.789984 
L 168.363778 237.391108 
L 168.688757 183.384847 
L 169.013737 175.951956 
L 169.338716 227.255224 
L 169.663696 115.892438 
L 169.988675 173.600959 
L 170.313655 113.95824 
L 170.638634 245.421285 
L 170.963614 39.415236 
L 171.288593 210.828305 
L 171.613573 107.580113 
L 171.938552 95.655955 
L 172.263532 210.597653 
L 172.588511 223.248994 
L 172.913491 214.617444 
L 173.238471 194.711699 
L 173.56345 211.310786 
L 173.88843 104.481822 
L 174.213409 157.955989 
L 174.538389 133.251854 
L 174.863368 236.846487 
L 175.188348 64.930682 
L 175.513327 210.816647 
L 175.838307 170.773098 
L 176.163286 231.657861 
L 176.488266 217.951377 
L 176.813245 106.213843 
L 177.138225 100.555726 
L 177.463204 103.855327 
L 177.788184 130.22184 
L 178.113163 45.651919 
L 178.438143 139.718283 
L 178.763122 151.919525 
L 179.413081 225.965885 
L 179.738061 131.062894 
L 180.063041 180.333439 
L 180.38802 136.159575 
L 180.713 203.308243 
L 181.037979 69.804892 
L 181.362959 35.687426 
L 181.687938 178.746463 
L 182.012918 68.92728 
L 182.337897 62.451538 
L 182.662877 36.452771 
L 182.987856 174.455155 
L 183.312836 87.15279 
L 183.637815 198.515641 
L 183.962795 114.874647 
L 184.287774 97.967086 
L 184.612754 90.304363 
L 184.937733 203.085808 
L 185.262713 67.575893 
L 185.587692 157.926702 
L 185.912672 201.143129 
L 186.562631 64.485392 
L 186.887611 42.575214 
L 187.21259 88.807409 
L 187.53757 245.657363 
L 187.862549 218.393332 
L 188.187529 230.734327 
L 188.512508 225.466512 
L 188.837488 165.939794 
L 189.162467 175.347949 
L 189.487447 222.832318 
L 189.812426 60.497904 
L 190.137406 116.853461 
L 190.462385 78.614809 
L 190.787365 168.365794 
L 191.112344 160.194343 
L 191.437324 179.756588 
L 191.762303 154.239882 
L 192.087283 117.920196 
L 192.412262 142.716183 
L 192.737242 69.858894 
L 193.062222 56.716232 
L 193.387201 147.637678 
L 193.712181 196.205094 
L 194.03716 47.200013 
L 194.36214 91.589024 
L 194.687119 111.636391 
L 195.012099 89.397581 
L 195.337078 230.796047 
L 195.662058 232.560899 
L 195.987037 214.502654 
L 196.312017 215.700213 
L 196.636996 157.990361 
L 196.961976 213.597901 
L 197.286955 66.350792 
L 198.261894 232.139256 
L 198.586873 122.00722 
L 198.911853 222.230793 
L 199.236833 89.860892 
L 199.561812 77.285214 
L 199.886792 131.94552 
L 200.211771 215.245687 
L 200.536751 80.64266 
L 200.86173 181.82517 
L 201.18671 199.815892 
L 201.511689 147.453327 
L 201.836669 51.962253 
L 202.161648 184.033385 
L 202.486628 55.567327 
L 202.811607 235.512302 
L 203.136587 229.20303 
L 203.461566 99.293883 
L 203.786546 206.587757 
L 204.111525 179.967921 
L 204.436505 218.040123 
L 204.761484 176.667038 
L 205.086464 187.605838 
L 205.411443 91.314648 
L 205.736423 98.562557 
L 206.061403 45.143823 
L 206.386382 93.831554 
L 206.711362 100.084543 
L 207.036341 100.214204 
L 207.361321 60.343268 
L 207.6863 184.273451 
L 208.01128 183.459112 
L 208.336259 90.284695 
L 208.661239 198.53758 
L 208.986218 54.206743 
L 209.311198 133.887604 
L 209.636177 183.45218 
L 209.961157 82.915994 
L 210.286136 180.876185 
L 210.611116 43.379882 
L 210.936095 39.216516 
L 211.261075 106.00329 
L 211.586054 222.843109 
L 211.911034 191.249652 
L 212.560993 67.000973 
L 212.885973 207.793022 
L 213.210952 224.792776 
L 213.535932 231.113787 
L 214.185891 59.977112 
L 214.51087 237.897852 
L 214.83585 201.998151 
L 215.160829 100.414204 
L 215.485809 72.404869 
L 216.135768 81.021732 
L 216.460747 219.42852 
L 216.785727 162.939893 
L 217.110706 38.845727 
L 217.435686 37.970655 
L 217.760665 119.59938 
L 218.085645 97.032507 
L 218.410624 45.913383 
L 218.735604 151.81057 
L 219.060584 217.935806 
L 219.385563 105.548608 
L 219.710543 44.050724 
L 220.035522 99.580074 
L 220.360502 77.16629 
L 221.010461 226.469939 
L 221.33544 211.173499 
L 221.66042 39.287145 
L 222.310379 244.30603 
L 222.635358 45.050863 
L 222.960338 141.703185 
L 223.285317 70.207116 
L 223.610297 130.998849 
L 223.935276 225.363322 
L 224.585235 36.172588 
L 224.910215 239.507669 
L 225.235195 69.039948 
L 225.560174 197.106415 
L 225.885154 163.651997 
L 226.210133 168.120751 
L 226.535113 56.999686 
L 226.860092 140.286674 
L 227.185072 152.392184 
L 227.510051 74.060492 
L 227.835031 236.514796 
L 228.16001 228.583599 
L 228.48499 242.263883 
L 228.809969 101.52821 
L 229.134949 135.823573 
L 229.459928 61.810271 
L 230.109887 199.99196 
L 230.434867 76.780548 
L 230.759846 184.677492 
L 231.084826 49.207175 
L 231.409805 193.950112 
L 231.734785 211.418819 
L 232.059765 142.644371 
L 232.384744 236.175155 
L 232.709724 239.154095 
L 233.034703 142.076068 
L 233.684662 244.869559 
L 234.009642 184.311433 
L 234.334621 146.014757 
L 234.659601 163.56276 
L 234.98458 218.230965 
L 235.30956 124.405212 
L 235.634539 96.80739 
L 235.959519 104.156597 
L 236.609478 217.781763 
L 237.259437 58.766647 
L 237.584416 147.840663 
L 237.909396 205.51298 
L 238.234376 227.190173 
L 238.559355 47.467374 
L 238.884335 89.905426 
L 239.209314 180.739663 
L 239.534294 184.46024 
L 239.859273 57.755586 
L 240.184253 209.338797 
L 240.509232 133.833623 
L 240.834212 96.137546 
L 241.484171 238.416802 
L 241.80915 198.737464 
L 242.13413 56.36371 
L 242.459109 136.35103 
L 242.784089 74.60626 
L 243.109068 129.472266 
L 243.434048 47.535924 
L 243.759027 54.816313 
L 244.084007 144.848669 
L 244.408986 179.618699 
L 244.733966 119.759613 
L 245.058946 104.294204 
L 245.383925 141.581694 
L 245.708905 73.161087 
L 246.033884 208.1221 
L 246.358864 176.210047 
L 246.683843 101.867548 
L 247.008823 194.740085 
L 247.333802 153.940341 
L 247.658782 43.283728 
L 247.983761 114.646534 
L 248.308741 46.383681 
L 248.63372 94.249832 
L 248.9587 93.779787 
L 249.283679 121.832038 
L 249.608659 216.807515 
L 249.933638 137.070171 
L 250.258618 193.476487 
L 250.583597 35.903856 
L 250.908577 190.456918 
L 251.233557 198.119212 
L 251.558536 115.06746 
L 251.883516 138.921629 
L 252.208495 242.334842 
L 252.533475 219.484837 
L 252.858454 75.535276 
L 253.508413 216.003475 
L 253.833393 148.575774 
L 254.158372 193.374492 
L 254.483352 199.617699 
L 254.808331 44.552804 
L 255.133311 170.37765 
L 255.45829 237.037787 
L 255.78327 41.891117 
L 256.108249 78.957777 
L 256.433229 193.10746 
L 256.758208 160.478264 
L 257.083188 64.710882 
L 257.408167 171.351594 
L 257.733147 126.997067 
L 258.058127 133.871731 
L 258.383106 162.082974 
L 258.708086 111.768444 
L 259.033065 146.875826 
L 259.358045 242.3607 
L 259.683024 74.829761 
L 260.008004 222.944096 
L 260.332983 148.819235 
L 260.982942 97.826943 
L 261.307922 160.07595 
L 261.632901 91.481333 
L 261.957881 219.101067 
L 262.28286 108.823245 
L 262.60784 72.304434 
L 262.932819 58.975288 
L 263.582778 180.754824 
L 263.907758 212.340619 
L 264.557717 132.790804 
L 264.882697 205.37586 
L 265.207676 45.653346 
L 265.532656 57.350686 
L 265.857635 239.883767 
L 266.182615 128.146586 
L 266.507594 80.125998 
L 266.832574 195.012963 
L 267.157553 136.186854 
L 267.482533 161.090796 
L 267.807512 205.330228 
L 268.457471 36.955819 
L 268.782451 169.68849 
L 269.10743 130.170678 
L 269.43241 177.595058 
L 269.757389 61.614576 
L 270.082369 64.2223 
L 270.407348 209.084243 
L 270.732328 56.756426 
L 271.057308 214.84313 
L 271.382287 226.68606 
L 271.707267 108.931165 
L 272.032246 165.333768 
L 272.682205 109.008014 
L 273.007185 235.684674 
L 273.657144 149.491684 
L 274.307103 236.501225 
L 274.632082 228.537076 
L 274.957062 77.498596 
L 275.282041 54.340498 
L 275.607021 214.690081 
L 275.932 194.195536 
L 276.581959 45.282258 
L 276.906939 183.56523 
L 277.231919 66.205475 
L 277.556898 139.961719 
L 277.881878 44.799223 
L 278.206857 218.06427 
L 278.531837 41.184428 
L 278.856816 153.700841 
L 279.181796 45.563897 
L 279.506775 149.959771 
L 279.831755 134.880259 
L 280.156734 76.859199 
L 280.806693 115.971453 
L 281.131673 158.769864 
L 281.456652 79.464964 
L 281.781632 46.558763 
L 282.106611 244.772765 
L 282.431591 122.679475 
L 282.75657 63.931189 
L 283.08155 108.893584 
L 283.406529 77.692627 
L 283.731509 57.788829 
L 284.056489 88.227987 
L 284.381468 95.395498 
L 284.706448 43.069898 
L 285.031427 64.416211 
L 285.356407 74.619646 
L 285.681386 228.594785 
L 286.006366 196.356771 
L 286.331345 129.246158 
L 286.656325 96.97064 
L 286.981304 182.799513 
L 287.306284 227.132127 
L 287.631263 181.13418 
L 287.956243 83.987046 
L 288.281222 61.519017 
L 288.606202 54.020098 
L 288.931181 166.820224 
L 289.256161 168.156856 
L 289.58114 160.939648 
L 289.90612 167.465973 
L 290.2311 106.129946 
L 290.881059 242.54796 
L 291.206038 154.113574 
L 291.855997 240.760349 
L 292.180977 147.392852 
L 292.505956 203.342993 
L 292.830936 151.216202 
L 293.155915 188.17825 
L 293.805874 37.550363 
L 294.130854 131.257854 
L 294.455833 110.206668 
L 294.780813 52.674171 
L 295.105792 167.848083 
L 295.430772 211.666413 
L 296.080731 161.766059 
L 296.40571 110.603392 
L 296.73069 245.875947 
L 297.05567 66.592098 
L 297.380649 230.77235 
L 297.705629 56.607246 
L 298.355588 37.713974 
L 298.680567 75.859028 
L 299.005547 216.882091 
L 299.330526 97.687328 
L 299.655506 203.899196 
L 299.980485 57.35229 
L 300.305465 179.971038 
L 300.630444 177.818679 
L 300.955424 53.01687 
L 301.280403 244.05035 
L 301.930362 157.723843 
L 302.255342 98.83753 
L 302.580321 110.065097 
L 302.905301 105.450812 
L 303.230281 60.965406 
L 303.55526 221.280804 
L 303.88024 136.553226 
L 304.205219 93.608503 
L 304.530199 112.483103 
L 304.855178 152.151427 
L 305.180158 243.230068 
L 305.505137 234.076215 
L 305.830117 221.722064 
L 306.155096 174.347934 
L 306.480076 221.994091 
L 306.805055 156.847264 
L 307.130035 209.111997 
L 307.455014 82.268332 
L 307.779994 62.768057 
L 308.104973 164.54308 
L 308.429953 138.840741 
L 308.754932 45.446067 
L 309.079912 133.73425 
L 309.404891 36.664113 
L 309.729871 216.823907 
L 310.054851 64.724222 
L 310.70481 242.047328 
L 311.029789 41.490584 
L 311.354769 43.006108 
L 311.679748 165.88997 
L 312.004728 45.309654 
L 312.329707 217.06076 
L 312.654687 103.191108 
L 312.979666 206.305496 
L 313.304646 194.747822 
L 313.629625 82.232163 
L 314.279584 245.339555 
L 314.604564 159.348949 
L 314.929543 198.671878 
L 315.254523 102.511022 
L 315.579502 205.773279 
L 315.904482 68.942927 
L 316.229462 190.429233 
L 316.554441 163.828993 
L 316.879421 183.893225 
L 317.2044 110.834539 
L 317.52938 225.477116 
L 317.854359 145.860139 
L 318.179339 176.200967 
L 318.504318 60.096031 
L 318.829298 231.33882 
L 319.154277 71.595546 
L 319.479257 211.427305 
L 319.804236 228.135526 
L 320.129216 204.110087 
L 320.454195 225.162514 
L 321.104154 38.112727 
L 321.429134 239.594361 
L 321.754113 149.444785 
L 322.079093 165.298658 
L 322.404072 175.112839 
L 322.729052 176.748286 
L 323.054032 57.799041 
L 323.379011 242.836866 
L 323.703991 83.165984 
L 324.02897 193.420095 
L 324.35395 165.884759 
L 324.678929 158.100315 
L 325.003909 182.479119 
L 325.328888 227.083388 
L 325.653868 222.695897 
L 325.978847 183.873314 
L 326.303827 73.261242 
L 326.628806 218.408774 
L 326.953786 89.983488 
L 327.278765 185.829521 
L 327.603745 60.238189 
L 327.928724 156.372826 
L 328.253704 210.57337 
L 328.578683 38.613428 
L 328.903663 209.536018 
L 329.228643 126.951489 
L 329.553622 126.599456 
L 329.878602 168.098796 
L 330.203581 45.870126 
L 330.528561 68.60053 
L 330.85354 71.56925 
L 331.17852 41.083139 
L 331.828479 226.317306 
L 332.153458 85.164237 
L 332.478438 166.409208 
L 332.803417 206.640036 
L 333.128397 144.772777 
L 333.453376 51.313232 
L 333.778356 210.65074 
L 334.103335 67.581544 
L 334.428315 158.511135 
L 334.753294 217.949509 
L 335.078274 67.648398 
L 335.403253 42.04031 
L 335.728233 185.322381 
L 336.053213 182.731644 
L 336.378192 164.353303 
L 336.703172 74.883146 
L 337.028151 244.644701 
L 337.353131 199.540584 
L 337.67811 97.743773 
L 338.00309 161.165237 
L 338.328069 177.079479 
L 338.653049 62.600079 
L 339.303008 46.609903 
L 339.627987 189.276487 
L 339.952967 54.102694 
L 340.277946 91.182018 
L 340.602926 214.271557 
L 340.927905 117.942846 
L 341.252885 241.282556 
L 341.577864 97.220293 
L 341.902844 91.899756 
L 342.227824 80.119721 
L 342.552803 210.404025 
L 342.877783 114.145101 
L 343.202762 209.066648 
L 343.527742 46.892123 
L 343.852721 104.268221 
L 344.177701 226.710163 
L 344.50268 207.339797 
L 344.82766 106.707956 
L 345.152639 146.161948 
L 345.477619 91.323091 
L 345.802598 187.536388 
L 346.127578 107.878664 
L 346.452557 209.467234 
L 347.102516 44.537107 
L 347.427496 114.150953 
L 347.752475 236.285308 
L 348.077455 37.997149 
L 348.402434 213.711486 
L 348.727414 95.173356 
L 349.702353 209.393239 
L 350.027332 209.310466 
L 350.352312 65.532512 
L 350.677291 62.467088 
L 351.32725 224.95795 
L 351.65223 60.090299 
L 351.977209 143.976652 
L 352.302189 154.168951 
L 352.627168 160.802449 
L 352.952148 169.746172 
L 353.277127 135.741352 
L 353.602107 119.152892 
L 353.927086 148.324497 
L 354.252066 57.453607 
L 354.577045 179.748135 
L 354.902025 124.693101 
L 355.227005 183.488301 
L 355.551984 87.721265 
L 355.876964 225.274859 
L 356.201943 206.98774 
L 356.526923 77.61402 
L 356.851902 208.149755 
L 357.501861 41.908695 
L 358.15182 207.262867 
L 358.4768 179.108172 
L 358.801779 72.912932 
L 359.126759 172.566669 
L 359.451738 94.023835 
L 359.776718 82.651939 
L 360.101697 140.984411 
L 360.426677 81.413479 
L 360.751656 179.908288 
L 361.401615 101.829125 
L 361.726595 211.344364 
L 362.051575 189.050177 
L 362.376554 109.120844 
L 362.701534 108.418846 
L 363.026513 142.64888 
L 363.351493 78.800252 
L 363.676472 145.024646 
L 364.001452 60.690768 
L 364.326431 91.406362 
L 364.651411 180.374696 
L 364.97639 163.358867 
L 365.626349 57.917354 
L 365.951329 209.097899 
L 366.276308 138.136998 
L 366.601288 221.755206 
L 366.926267 187.818082 
L 367.251247 101.95098 
L 367.576226 230.425806 
L 367.901206 106.94062 
L 368.226186 56.574301 
L 368.551165 42.093126 
L 368.876145 201.087645 
L 369.201124 88.661638 
L 369.526104 51.17562 
L 369.851083 227.545869 
L 370.176063 159.394322 
L 370.501042 52.645866 
L 370.826022 204.011945 
L 371.151001 49.614643 
L 371.80096 225.745464 
L 372.12594 151.821246 
L 372.450919 177.931637 
L 372.775899 187.237433 
L 373.100878 132.473718 
L 373.425858 144.699832 
L 373.750837 145.043179 
L 374.075817 228.227603 
L 374.400796 77.378134 
L 374.725776 145.154671 
L 375.050756 73.452022 
L 375.375735 72.672865 
L 375.700715 179.859217 
L 376.025694 245.927005 
L 376.350674 54.370298 
L 376.675653 86.169912 
L 377.000633 224.191111 
L 377.325612 98.625154 
L 377.650592 242.615692 
L 377.975571 240.981724 
L 378.300551 135.779829 
L 378.62553 226.559861 
L 378.95051 43.156366 
L 379.275489 58.048605 
L 379.600469 109.590722 
L 379.925448 233.388329 
L 380.250428 178.232825 
L 380.575407 168.329124 
L 380.900387 145.272845 
L 381.225367 211.169108 
L 381.550346 124.862123 
L 381.875326 154.800879 
L 382.200305 46.755488 
L 382.525285 49.100414 
L 382.850264 127.404743 
L 383.175244 110.744561 
L 383.500223 217.739452 
L 383.825203 199.674353 
L 384.150182 56.594518 
L 384.475162 99.166116 
L 384.800141 206.833295 
L 385.4501 49.403301 
L 385.77508 173.937456 
L 386.100059 207.595767 
L 386.425039 47.868982 
L 386.750018 149.415845 
L 387.074998 158.714529 
L 387.399977 190.329074 
L 387.724957 58.522994 
L 388.049937 68.232539 
L 388.699896 240.378853 
L 389.024875 152.502623 
L 389.349855 208.643924 
L 389.674834 216.696524 
L 389.999814 163.815189 
L 390.324793 225.917852 
L 390.649773 44.607884 
L 390.649773 44.607884 
" style="fill:none;stroke:#1f77b4;stroke-linecap:round;stroke-width:1.5;"/>
   </g>
   <g id="line2d_13">
    <path clip-path="url(#pb1bfcf2caa)" d="M 65.995227 127.872843 
L 66.320207 110.371025 
L 66.645186 155.820311 
L 66.970166 108.686299 
L 67.295145 114.097501 
L 67.620125 132.856142 
L 67.945104 56.816317 
L 68.270084 163.988069 
L 68.595063 103.869492 
L 68.920043 75.77159 
L 69.245023 156.453921 
L 69.570002 132.273974 
L 69.894982 19.296 
L 70.219961 215.149013 
L 70.544941 152.167463 
L 70.86992 124.242247 
L 71.1949 233.019014 
L 71.519879 51.424859 
L 71.844859 189.489409 
L 72.169838 203.620876 
L 72.494818 91.330729 
L 72.819797 210.02103 
L 73.144777 131.008562 
L 73.469756 94.4456 
L 73.794736 95.758344 
L 74.119715 90.940709 
L 74.444695 229.080485 
L 74.769674 222.510634 
L 75.094654 167.180033 
L 75.419633 219.014798 
L 75.744613 118.294418 
L 76.069593 141.11333 
L 76.394572 110.414996 
L 76.719552 171.153139 
L 77.044531 139.688987 
L 77.69449 218.354723 
L 78.01947 129.406445 
L 78.344449 128.848418 
L 78.669429 97.353943 
L 78.994408 85.783841 
L 79.319388 116.62155 
L 79.644367 112.517997 
L 79.969347 236.485551 
L 80.294326 215.582487 
L 80.619306 58.272462 
L 80.944285 173.779369 
L 81.269265 143.80046 
L 81.594244 187.516745 
L 81.919224 179.795912 
L 82.244204 63.231389 
L 82.569183 180.185552 
L 82.894163 150.596369 
L 83.219142 223.625178 
L 83.544122 121.726522 
L 83.869101 118.269345 
L 84.194081 199.923919 
L 84.51906 111.337095 
L 84.84404 223.654309 
L 85.169019 122.227764 
L 85.493999 105.77271 
L 85.818978 45.50611 
L 86.143958 190.955784 
L 86.468937 211.146353 
L 86.793917 168.364672 
L 87.118896 193.81235 
L 87.443876 183.0163 
L 87.768855 150.611471 
L 88.093835 138.858173 
L 88.418814 42.563948 
L 88.743794 200.334719 
L 89.068774 44.607028 
L 89.393753 85.978237 
L 90.043712 69.465706 
L 90.368692 107.462953 
L 90.693671 98.467847 
L 91.018651 169.283042 
L 91.34363 149.430098 
L 91.66861 55.293497 
L 91.993589 167.576292 
L 92.318569 234.620627 
L 92.643548 79.56003 
L 92.968528 118.137721 
L 93.293507 66.893744 
L 93.618487 223.908804 
L 93.943466 110.179066 
L 94.268446 190.855881 
L 94.593425 54.006112 
L 94.918405 222.71513 
L 95.243385 68.321819 
L 95.568364 227.46722 
L 95.893344 240.088706 
L 96.218323 194.648706 
L 96.543303 172.860755 
L 96.868282 110.097907 
L 97.193262 214.435812 
L 97.518241 150.497386 
L 97.843221 201.186638 
L 98.1682 65.89477 
L 98.49318 239.809482 
L 99.468118 64.152523 
L 99.793098 74.700097 
L 100.118077 68.707234 
L 100.443057 242.926691 
L 100.768036 75.760497 
L 101.093016 84.864803 
L 101.417995 54.652315 
L 101.742975 175.076566 
L 102.067955 44.425366 
L 102.392934 149.086645 
L 102.717914 98.718749 
L 103.042893 143.211318 
L 103.367873 144.297274 
L 103.692852 122.472866 
L 104.017832 167.184323 
L 104.342811 79.95394 
L 104.667791 118.599025 
L 104.99277 111.193916 
L 105.31775 211.416049 
L 105.642729 57.240665 
L 105.967709 122.689416 
L 106.292688 218.847564 
L 106.617668 98.811656 
L 106.942647 216.301719 
L 107.267627 234.58555 
L 107.592606 131.386127 
L 107.917586 121.150083 
L 108.242566 194.299898 
L 108.567545 158.066662 
L 108.892525 30.871877 
L 109.217504 171.078973 
L 109.542484 200.65443 
L 109.867463 27.483646 
L 110.192443 177.934487 
L 110.517422 103.338532 
L 110.842402 203.415887 
L 111.167381 140.971862 
L 111.492361 179.461223 
L 111.81734 60.451553 
L 112.14232 172.982802 
L 112.467299 140.075409 
L 112.792279 61.267859 
L 113.117258 47.781112 
L 113.442238 230.133755 
L 113.767217 69.770624 
L 114.092197 159.783625 
L 114.417176 110.035539 
L 114.742156 152.820231 
L 115.067136 145.21951 
L 115.392115 196.024327 
L 115.717095 109.95148 
L 116.042074 118.32834 
L 116.367054 197.852512 
L 117.017013 41.998588 
L 117.666972 154.494903 
L 117.991951 65.47143 
L 118.64191 232.529446 
L 118.96689 144.63733 
L 119.291869 220.246349 
L 119.616849 93.709267 
L 119.941828 48.289694 
L 120.266808 172.7942 
L 120.591787 153.52999 
L 120.916767 152.982199 
L 121.241747 178.835119 
L 121.566726 69.093036 
L 121.891706 104.908674 
L 122.216685 221.296339 
L 122.541665 58.022938 
L 122.866644 196.960293 
L 123.191624 31.763565 
L 123.516603 161.807217 
L 123.841583 114.431039 
L 124.166562 231.715735 
L 124.491542 178.823306 
L 124.816521 85.254246 
L 125.141501 156.35572 
L 125.46648 67.552961 
L 125.79146 137.480047 
L 126.116439 61.961033 
L 126.441419 48.543656 
L 126.766398 157.280163 
L 127.091378 130.218382 
L 127.416357 69.443598 
L 127.741337 195.388109 
L 128.066317 57.138222 
L 128.391296 111.950016 
L 128.716276 82.691109 
L 129.041255 219.231318 
L 129.366235 75.594981 
L 129.691214 174.101823 
L 130.016194 72.669415 
L 130.666153 191.331261 
L 130.991132 50.910881 
L 131.316112 92.634922 
L 131.641091 47.180318 
L 131.966071 178.548044 
L 132.29105 117.630292 
L 132.61603 124.046549 
L 132.941009 105.940892 
L 133.265989 240.749433 
L 133.590968 184.884675 
L 133.915948 52.27707 
L 134.240928 153.007807 
L 134.565907 38.224586 
L 134.890887 195.122687 
L 135.215866 29.130097 
L 135.540846 92.554814 
L 135.865825 76.492982 
L 136.190805 157.721995 
L 136.515784 51.481612 
L 136.840764 129.758972 
L 137.165743 103.367289 
L 137.490723 229.579162 
L 137.815702 118.594748 
L 138.140682 68.534344 
L 138.465661 218.286617 
L 138.790641 101.145543 
L 139.11562 251.727244 
L 139.4406 60.55111 
L 139.765579 46.60952 
L 140.090559 176.50429 
L 140.415538 225.092014 
L 140.740518 104.654021 
L 141.065498 233.588013 
L 141.390477 134.626399 
L 141.715457 176.703744 
L 142.040436 132.946297 
L 142.365416 229.322613 
L 142.690395 224.015031 
L 143.015375 234.609394 
L 143.340354 111.294685 
L 143.665334 128.419784 
L 143.990313 202.1825 
L 144.315293 119.081157 
L 144.640272 72.198476 
L 144.965252 202.386742 
L 145.290231 85.732665 
L 145.615211 120.50923 
L 145.94019 250.890739 
L 146.26517 175.274286 
L 146.590149 143.013716 
L 146.915129 91.167353 
L 147.240109 180.6899 
L 147.565088 29.991174 
L 148.540027 212.765351 
L 148.865006 196.388252 
L 149.189986 134.454131 
L 149.514965 136.708363 
L 149.839945 83.371221 
L 150.164924 96.583141 
L 150.489904 211.52644 
L 150.814883 131.656461 
L 151.139863 255.124222 
L 151.789822 98.214337 
L 152.114801 173.146797 
L 152.439781 77.748957 
L 152.76476 43.911395 
L 153.414719 210.484015 
L 153.739699 157.108446 
L 154.064679 232.542118 
L 154.389658 105.807035 
L 154.714638 59.598602 
L 155.039617 101.490355 
L 155.364597 71.140998 
L 155.689576 71.779136 
L 156.014556 65.101286 
L 156.339535 192.808091 
L 156.664515 69.144732 
L 156.989494 118.45107 
L 157.314474 197.931389 
L 157.639453 51.96911 
L 157.964433 59.933724 
L 158.289412 138.178341 
L 158.614392 79.174553 
L 158.939371 198.9314 
L 159.264351 162.60057 
L 159.58933 207.691042 
L 159.91431 132.85892 
L 160.23929 134.510651 
L 160.564269 191.540878 
L 160.889249 92.453242 
L 161.214228 208.751157 
L 161.539208 220.729511 
L 161.864187 153.635299 
L 162.189167 150.49702 
L 162.839126 188.956171 
L 163.164105 175.64976 
L 163.489085 216.465527 
L 163.814064 169.216294 
L 164.139044 66.219123 
L 164.464023 211.886408 
L 164.789003 115.676388 
L 165.113982 230.112063 
L 165.438962 183.962354 
L 165.763941 188.449362 
L 166.088921 55.026233 
L 166.4139 158.552857 
L 166.73888 98.809626 
L 167.06386 113.201271 
L 167.388839 207.006399 
L 167.713819 35.62741 
L 168.038798 159.581086 
L 168.363778 223.226464 
L 168.688757 170.806047 
L 169.013737 166.372604 
L 169.338716 221.782929 
L 169.663696 115.182568 
L 169.988675 177.763705 
L 170.313655 122.535004 
L 170.638634 257.432438 
L 170.963614 53.470492 
L 171.288593 225.289195 
L 171.613573 120.757529 
L 171.938552 106.016635 
L 172.263532 216.953059 
L 172.588511 224.898456 
L 172.913491 211.42083 
L 173.238471 187.086432 
L 173.56345 200.163921 
L 173.88843 91.092561 
L 174.213409 143.82745 
L 174.538389 119.949781 
L 174.863368 225.835761 
L 175.188348 57.42049 
L 175.513327 207.632228 
L 175.838307 172.269103 
L 176.163286 237.677407 
L 176.488266 227.832736 
L 176.813245 118.850504 
L 177.138225 114.515265 
L 177.463204 117.551426 
L 177.788184 142.114898 
L 178.113163 54.445643 
L 178.438143 144.524865 
L 178.763122 152.36885 
L 179.413081 218.734716 
L 179.738061 121.374828 
L 180.063041 169.43333 
L 180.38802 125.307711 
L 180.713 193.610005 
L 181.037979 62.075971 
L 181.362959 30.376923 
L 181.687938 175.930355 
L 182.012918 68.3621 
L 182.337897 63.668935 
L 182.662877 38.88131 
L 182.987856 177.54915 
L 183.312836 90.497602 
L 183.637815 201.887012 
L 183.962795 118.246227 
L 184.287774 101.472704 
L 184.612754 94.170365 
L 184.937733 207.547912 
L 185.262713 72.790278 
L 185.587692 163.890796 
L 185.912672 207.64361 
L 186.562631 70.534391 
L 186.887611 47.309057 
L 187.21259 91.452777 
L 187.53757 245.570244 
L 187.862549 215.170607 
L 188.187529 224.279844 
L 188.512508 216.010999 
L 188.837488 154.023314 
L 189.162467 161.774593 
L 189.487447 208.604765 
L 189.812426 46.737106 
L 190.137406 104.713153 
L 190.462385 69.200242 
L 190.787365 162.654606 
L 191.112344 158.952637 
L 191.437324 183.450576 
L 191.762303 162.953918 
L 192.087283 131.29838 
L 192.412262 159.943934 
L 192.737242 89.694538 
L 193.062222 77.576421 
L 193.387201 167.732341 
L 193.712181 213.70357 
L 194.03716 60.405956 
L 194.36214 99.113505 
L 194.687119 112.559552 
L 195.012099 83.39595 
L 195.337078 218.210125 
L 195.662058 214.38507 
L 195.987037 192.292369 
L 196.312017 191.41149 
L 196.636996 133.779262 
L 196.961976 191.60711 
L 197.286955 48.507014 
L 198.261894 233.865066 
L 198.586873 130.714956 
L 198.911853 237.126224 
L 199.236833 109.60146 
L 199.561812 100.099142 
L 199.886792 155.798168 
L 200.211771 238.032566 
L 200.536751 100.381384 
L 200.86173 196.830374 
L 201.18671 208.846961 
L 201.511689 149.820171 
L 201.836669 47.582478 
L 202.161648 173.443649 
L 202.486628 39.885234 
L 202.811607 216.341579 
L 203.136587 208.480738 
L 203.461566 79.089303 
L 203.786546 188.880002 
L 204.111525 166.432739 
L 204.436505 209.865595 
L 204.761484 174.417109 
L 205.086464 191.153158 
L 205.411443 99.858287 
L 205.736423 110.735828 
L 206.061403 59.202893 
L 206.386382 107.89866 
L 206.711362 112.407316 
L 207.036341 109.400107 
L 207.361321 65.536391 
L 207.6863 185.25155 
L 208.01128 180.634857 
L 208.336259 84.609222 
L 208.661239 191.327845 
L 208.986218 46.929452 
L 209.311198 127.933031 
L 209.636177 179.928774 
L 209.961157 82.489351 
L 210.286136 183.673025 
L 210.611116 48.973795 
L 210.936095 46.700727 
L 211.261075 114.141094 
L 211.586054 230.265491 
L 211.911034 196.657159 
L 212.560993 65.60604 
L 212.885973 202.484312 
L 213.210952 215.914523 
L 213.535932 219.494486 
L 214.185891 46.70968 
L 214.51087 226.006447 
L 214.83585 192.860844 
L 215.160829 95.139155 
L 215.485809 71.700072 
L 216.135768 89.672295 
L 216.460747 231.924691 
L 216.785727 178.191296 
L 217.110706 55.469595 
L 217.435686 54.41587 
L 217.760665 134.300053 
L 218.085645 108.567898 
L 218.410624 53.149818 
L 218.735604 154.013513 
L 219.060584 214.84041 
L 219.385563 97.377103 
L 219.710543 31.483069 
L 220.035522 83.695982 
L 220.360502 59.364778 
L 221.010461 209.739279 
L 221.33544 197.41739 
L 221.66042 29.847353 
L 222.310379 245.845367 
L 222.635358 52.218263 
L 222.960338 153.864245 
L 223.285317 86.238529 
L 223.610297 149.398382 
L 223.935276 244.394181 
L 224.585235 51.11608 
L 224.910215 250.071426 
L 225.235195 74.148972 
L 225.560174 196.19373 
L 225.885154 156.72034 
L 226.210133 155.750814 
L 226.535113 40.305462 
L 226.860092 120.827129 
L 227.185072 132.044195 
L 227.510051 54.854284 
L 227.835031 220.441465 
L 228.16001 217.388453 
L 228.48499 237.241093 
L 228.809969 103.346061 
L 229.134949 144.418208 
L 229.459928 76.372444 
L 230.109887 221.56509 
L 230.434867 98.600911 
L 230.759846 204.428708 
L 231.084826 64.781358 
L 231.409805 203.686283 
L 231.734785 214.291729 
L 232.059765 138.375693 
L 232.384744 225.255804 
L 232.709724 222.779559 
L 233.034703 122.003171 
L 233.684662 223.884269 
L 234.009642 166.132668 
L 234.334621 132.446128 
L 234.659601 155.893342 
L 234.98458 217.118896 
L 235.30956 129.82853 
L 235.634539 108.085184 
L 235.959519 120.041763 
L 236.609478 237.658781 
L 237.259437 75.022091 
L 237.584416 159.848125 
L 237.909396 212.179226 
L 238.234376 227.946749 
L 238.559355 42.304376 
L 238.884335 79.361274 
L 239.209314 165.857123 
L 239.534294 166.701022 
L 239.859273 38.869705 
L 240.184253 191.2038 
L 240.509232 118.279634 
L 240.834212 84.76934 
L 241.484171 238.548121 
L 241.80915 205.044428 
L 242.13413 68.26428 
L 242.459109 152.634938 
L 242.784089 93.55013 
L 243.109068 149.022304 
L 243.434048 65.534588 
L 243.759027 69.249238 
L 244.084007 154.083606 
L 244.408986 182.600765 
L 244.733966 116.132139 
L 245.058946 94.435421 
L 245.383925 126.561905 
L 245.708905 54.626539 
L 246.033884 188.115021 
L 246.358864 156.939796 
L 246.683843 85.456364 
L 247.008823 182.978307 
L 247.333802 148.083429 
L 247.658782 43.914074 
L 247.983761 121.620371 
L 248.308741 58.870687 
L 248.63372 110.853232 
L 248.9587 112.714652 
L 249.283679 141.134847 
L 249.608659 234.547519 
L 249.933638 151.536504 
L 250.258618 203.325954 
L 250.583597 40.266577 
L 250.908577 189.000684 
L 251.233557 191.066848 
L 251.558536 103.159877 
L 251.883516 123.33373 
L 252.208495 224.558843 
L 252.533475 201.186781 
L 252.858454 58.394928 
L 253.508413 205.539253 
L 253.833393 143.000268 
L 254.158372 193.158489 
L 254.483352 204.749399 
L 254.808331 54.537716 
L 255.133311 184.285294 
L 255.45829 253.590305 
L 255.78327 59.577426 
L 256.108249 96.167356 
L 256.433229 208.281348 
L 256.758208 172.255796 
L 257.083188 72.050332 
L 257.408167 173.620851 
L 257.733147 124.030718 
L 258.058127 125.984967 
L 258.383106 150.039705 
L 258.708086 96.707928 
L 259.033065 130.205231 
L 259.358045 225.622204 
L 259.683024 59.551338 
L 260.008004 210.490735 
L 260.332983 140.263463 
L 260.982942 98.667742 
L 261.307922 165.522401 
L 261.632901 100.916072 
L 261.957881 231.577311 
L 262.28286 123.164233 
L 262.60784 87.217236 
L 262.932819 73.175362 
L 263.582778 190.310867 
L 263.907758 218.497363 
L 264.557717 131.508599 
L 264.882697 200.591766 
L 265.207676 37.800277 
L 265.532656 47.026768 
L 265.857635 227.822413 
L 266.182615 115.184437 
L 266.507594 67.159837 
L 266.832574 182.952675 
L 267.157553 125.906419 
L 267.482533 153.372007 
L 267.807512 200.80126 
L 268.457471 39.790636 
L 268.782451 176.155624 
L 269.10743 139.865732 
L 269.43241 189.855628 
L 269.757389 75.555429 
L 270.082369 78.79426 
L 270.407348 223.156927 
L 270.732328 69.21109 
L 271.057308 224.662675 
L 271.382287 233.035038 
L 271.707267 111.218857 
L 272.032246 163.261884 
L 272.682205 98.661807 
L 273.007185 222.122505 
L 273.657144 132.851296 
L 274.307103 222.273657 
L 274.632082 217.503551 
L 274.957062 70.680498 
L 275.282041 52.392836 
L 275.607021 217.841534 
L 275.932 202.226985 
L 276.581959 60.696711 
L 276.906939 200.779044 
L 277.231919 83.67372 
L 277.556898 156.100644 
L 277.881878 58.13442 
L 278.206857 227.372167 
L 278.531837 45.610046 
L 278.856816 152.840468 
L 279.181796 39.509182 
L 279.506775 139.299283 
L 279.831755 120.65288 
L 280.156734 60.459053 
L 280.481714 77.253957 
L 280.806693 100.142617 
L 281.131673 145.652316 
L 281.456652 70.375381 
L 281.781632 42.40104 
L 282.106611 245.934293 
L 282.431591 128.975546 
L 282.75657 74.603178 
L 283.08155 122.675993 
L 283.731509 72.713036 
L 284.056489 101.051001 
L 284.381468 104.617691 
L 284.706448 47.652236 
L 285.031427 63.920113 
L 285.356407 69.274609 
L 285.681386 219.277003 
L 286.006366 184.469392 
L 286.331345 116.514494 
L 286.656325 85.192273 
L 286.981304 173.594121 
L 287.306284 221.720417 
L 287.631263 180.166976 
L 287.956243 87.45158 
L 288.281222 68.748771 
L 288.606202 63.813265 
L 288.931181 177.641901 
L 289.256161 178.38068 
L 289.58114 169.085163 
L 289.90612 172.401044 
L 290.2311 107.217754 
L 290.881059 236.312265 
L 291.206038 145.442378 
L 291.855997 231.193439 
L 292.180977 139.373925 
L 292.505956 197.876834 
L 292.830936 148.879767 
L 293.155915 189.057062 
L 293.805874 43.303903 
L 294.130854 138.059924 
L 294.455833 117.018599 
L 294.780813 58.603713 
L 295.105792 172.294295 
L 295.430772 214.399936 
L 296.080731 161.777083 
L 296.40571 110.043404 
L 296.73069 245.322303 
L 297.05567 66.475358 
L 297.380649 231.262874 
L 297.705629 57.559288 
L 298.355588 38.049217 
L 298.680567 74.858613 
L 299.005547 213.966218 
L 299.330526 92.55121 
L 299.655506 196.616012 
L 299.980485 48.414786 
L 300.305465 170.267676 
L 300.630444 168.542937 
L 300.955424 45.515976 
L 301.280403 239.634533 
L 301.930362 162.246787 
L 302.255342 108.193819 
L 302.580321 123.654723 
L 302.905301 122.060571 
L 303.230281 78.896611 
L 303.55526 238.550644 
L 303.88024 151.137879 
L 304.205219 103.694605 
L 304.530199 116.702891 
L 304.855178 149.774689 
L 305.180158 234.27871 
L 305.830117 202.646777 
L 306.155096 152.881272 
L 306.480076 200.335022 
L 306.805055 137.195241 
L 307.130035 193.420432 
L 307.455014 72.036481 
L 307.779994 58.898345 
L 308.104973 167.279155 
L 308.429953 147.780422 
L 308.754932 59.614488 
L 309.079912 151.708324 
L 309.404891 56.73532 
L 309.729871 237.175666 
L 310.054851 83.599302 
L 310.70481 253.616382 
L 311.029789 47.930232 
L 311.354769 43.89013 
L 311.679748 161.243419 
L 312.004728 35.606901 
L 312.329707 203.189291 
L 312.654687 86.380097 
L 312.979666 188.023557 
L 313.304646 176.577745 
L 313.629625 65.734307 
L 314.279584 236.135656 
L 314.604564 155.129191 
L 314.929543 199.761377 
L 315.254523 108.754807 
L 315.579502 216.548244 
L 315.904482 83.216696 
L 316.229462 206.85916 
L 316.554441 180.889782 
L 316.879421 200.016818 
L 317.2044 124.549814 
L 317.52938 235.541701 
L 317.854359 151.372712 
L 318.179339 176.682261 
L 318.504318 55.535074 
L 318.829298 222.203243 
L 319.154277 58.799479 
L 319.479257 196.252911 
L 319.804236 212.111345 
L 320.129216 188.853017 
L 320.454195 212.200056 
L 321.104154 33.149024 
L 321.429134 239.468198 
L 321.754113 154.06078 
L 322.079093 174.085917 
L 322.404072 187.089953 
L 322.729052 190.629789 
L 323.054032 72.13344 
L 323.379011 256.164137 
L 323.703991 94.175365 
L 324.02897 201.0867 
L 324.35395 169.570433 
L 324.678929 157.607875 
L 325.003909 178.054706 
L 325.328888 219.368471 
L 325.653868 212.633602 
L 325.978847 172.581718 
L 326.303827 61.897423 
L 326.628806 208.047478 
L 326.953786 81.520729 
L 327.278765 179.912807 
L 327.603745 57.227095 
L 327.928724 156.33251 
L 328.253704 213.295221 
L 328.578683 43.652951 
L 328.903663 216.265398 
L 329.228643 134.625173 
L 329.553622 134.424811 
L 329.878602 175.307395 
L 330.203581 51.788305 
L 330.528561 72.717252 
L 330.85354 73.597237 
L 331.17852 41.002002 
L 331.828479 223.037121 
L 332.153458 81.206304 
L 332.478438 162.499048 
L 332.803417 203.440983 
L 333.128397 142.776712 
L 333.453376 50.757464 
L 333.778356 211.481701 
L 334.103335 69.470078 
L 334.428315 160.911643 
L 334.753294 220.192734 
L 335.078274 69.052334 
L 335.403253 42.027669 
L 335.728233 183.534782 
L 336.053213 179.114735 
L 336.378192 159.185748 
L 336.703172 68.746948 
L 337.028151 238.34938 
L 337.353131 194.008617 
L 337.67811 93.868201 
L 338.00309 159.667409 
L 338.328069 178.394155 
L 338.653049 66.801407 
L 338.978028 59.865234 
L 339.303008 55.323775 
L 339.627987 199.029766 
L 339.952967 63.872617 
L 340.277946 99.94083 
L 340.602926 221.10563 
L 340.927905 122.149273 
L 341.252885 242.429287 
L 341.577864 95.170161 
L 341.902844 86.807656 
L 342.227824 72.414016 
L 342.552803 200.753693 
L 342.877783 103.404785 
L 343.202762 198.199078 
L 343.527742 36.879319 
L 343.852721 96.026314 
L 344.177701 221.014954 
L 344.50268 204.757341 
L 344.82766 107.529482 
L 345.152639 150.360205 
L 345.477619 98.545645 
L 345.802598 197.135584 
L 346.127578 118.970076 
L 346.452557 221.008989 
L 347.102516 53.702846 
L 347.427496 120.682163 
L 347.752475 239.525686 
L 348.077455 37.624415 
L 348.402434 209.774426 
L 348.727414 88.090427 
L 349.702353 198.25901 
L 350.027332 199.075833 
L 350.352312 57.225748 
L 350.677291 56.877759 
L 351.32725 225.907193 
L 351.65223 64.176956 
L 351.977209 150.680914 
L 352.302189 162.715993 
L 352.952148 179.081496 
L 353.277127 143.984458 
L 353.602107 125.455059 
L 353.927086 152.059473 
L 354.252066 58.290073 
L 354.577045 177.693842 
L 354.902025 120.100762 
L 355.227005 177.015848 
L 355.551984 80.24988 
L 355.876964 217.79701 
L 356.201943 200.476522 
L 356.526923 72.888028 
L 356.851902 205.757912 
L 357.501861 44.429988 
L 358.15182 212.769198 
L 358.4768 184.816982 
L 358.801779 77.881488 
L 359.126759 175.946863 
L 359.451738 95.186988 
L 359.776718 81.291866 
L 360.101697 137.183038 
L 360.426677 75.656081 
L 360.751656 173.039016 
L 361.401615 96.134573 
L 361.726595 207.961964 
L 362.051575 188.846021 
L 362.376554 112.542215 
L 362.701534 115.386673 
L 363.026513 152.529015 
L 363.351493 90.459114 
L 363.676472 156.961503 
L 364.001452 71.231189 
L 364.326431 98.933158 
L 364.651411 183.564569 
L 364.97639 161.385912 
L 365.626349 45.743288 
L 365.951329 193.253962 
L 366.276308 120.361209 
L 366.601288 204.145129 
L 366.926267 172.566767 
L 367.251247 91.057938 
L 367.576226 225.42669 
L 367.901206 108.692673 
L 368.226186 65.126637 
L 368.551165 56.666265 
L 368.876145 220.165678 
L 369.201124 110.172967 
L 369.526104 72.734861 
L 369.851083 246.733848 
L 370.176063 174.040366 
L 370.501042 61.074739 
L 370.826022 205.235078 
L 371.151001 43.448865 
L 371.80096 207.523929 
L 372.12594 130.305216 
L 372.450919 155.507866 
L 372.775899 166.36966 
L 373.100878 115.411015 
L 373.425858 133.215689 
L 373.750837 140.238073 
L 374.075817 230.415084 
L 374.400796 86.063208 
L 374.725776 159.109802 
L 375.050756 90.886658 
L 375.375735 91.474613 
L 375.700715 197.871092 
L 376.025694 261.216 
L 376.350674 65.447142 
L 376.675653 92.143749 
L 377.000633 224.852506 
L 377.325612 94.441514 
L 377.650592 234.632768 
L 377.975571 230.645915 
L 378.300551 124.707732 
L 378.62553 216.293445 
L 378.95051 34.945954 
L 379.275489 52.697748 
L 379.600469 107.383311 
L 379.925448 234.094081 
L 380.250428 181.171099 
L 380.575407 172.478507 
L 380.900387 149.422915 
L 381.225367 214.102774 
L 381.550346 125.545057 
L 381.875326 152.554093 
L 382.200305 41.392258 
L 382.525285 41.010881 
L 382.850264 117.570405 
L 383.175244 100.664064 
L 383.500223 209.257388 
L 383.825203 194.7251 
L 384.150182 56.895621 
L 384.475162 105.914711 
L 384.800141 220.455596 
L 385.4501 74.241938 
L 385.77508 201.208513 
L 386.100059 234.180922 
L 386.425039 70.286728 
L 386.750018 164.240158 
L 387.074998 163.038492 
L 387.399977 182.209673 
L 387.724957 37.342615 
L 388.049937 34.930157 
L 388.699896 191.981942 
L 389.024875 103.722443 
L 389.349855 165.189567 
L 389.674834 184.16338 
L 389.999814 146.965142 
L 390.324793 228.006301 
L 390.649773 66.852377 
L 390.649773 66.852377 
" style="fill:none;stroke:#ff7f0e;stroke-linecap:round;stroke-width:1.5;"/>
   </g>
   <g id="patch_3">
    <path d="M 49.7625 273.312 
L 49.7625 7.2 
" style="fill:none;stroke:#262626;stroke-linecap:square;stroke-linejoin:miter;stroke-width:1.25;"/>
   </g>
   <g id="patch_4">
    <path d="M 49.7625 273.312 
L 406.8825 273.312 
" style="fill:none;stroke:#262626;stroke-linecap:square;stroke-linejoin:miter;stroke-width:1.25;"/>
   </g>
   <g id="legend_1">
    <g id="line2d_14">
     <path d="M 58.7625 244.415125 
L 78.7625 244.415125 
" style="fill:none;stroke:#1f77b4;stroke-linecap:round;stroke-width:1.5;"/>
    </g>
    <g id="line2d_15"/>
    <g id="text_14">
     <!-- raw -->
     <defs>
      <path d="M 6.9375 0 
L 6.9375 40.53125 
Q 6.9375 42.1875 6.90625 43.921875 
Q 6.890625 45.65625 6.828125 47.265625 
Q 6.78125 48.875 6.734375 50.28125 
Q 6.6875 51.703125 6.640625 52.828125 
L 14.9375 52.828125 
Q 14.984375 51.703125 15.0625 50.265625 
Q 15.140625 48.828125 15.203125 47.3125 
Q 15.28125 45.796875 15.296875 44.40625 
Q 15.328125 43.015625 15.328125 42.046875 
L 15.53125 42.046875 
Q 16.453125 45.0625 17.5 47.28125 
Q 18.5625 49.515625 19.96875 50.953125 
Q 21.390625 52.390625 23.34375 53.09375 
Q 25.296875 53.8125 28.078125 53.8125 
Q 29.15625 53.8125 30.125 53.640625 
Q 31.109375 53.46875 31.640625 53.328125 
L 31.640625 45.265625 
Q 30.765625 45.515625 29.59375 45.625 
Q 28.421875 45.75 26.953125 45.75 
Q 23.921875 45.75 21.796875 44.375 
Q 19.671875 43.015625 18.328125 40.59375 
Q 17 38.1875 16.359375 34.84375 
Q 15.71875 31.5 15.71875 27.546875 
L 15.71875 0 
z
" id="LiberationSans-114"/>
      <path d="M 57.328125 0 
L 47.125 0 
L 38.671875 34.078125 
Q 38.28125 35.40625 37.859375 37.359375 
Q 37.453125 39.3125 37.0625 41.15625 
Q 36.578125 43.3125 36.140625 45.609375 
Q 35.6875 43.40625 35.203125 41.265625 
Q 34.8125 39.40625 34.34375 37.40625 
Q 33.890625 35.40625 33.5 33.890625 
L 24.8125 0 
L 14.65625 0 
L -0.140625 52.828125 
L 8.546875 52.828125 
L 17.484375 16.9375 
Q 17.828125 15.828125 18.15625 14.1875 
Q 18.5 12.546875 18.84375 10.984375 
Q 19.1875 9.1875 19.578125 7.28125 
Q 19.96875 9.125 20.40625 10.890625 
Q 20.796875 12.40625 21.1875 13.96875 
Q 21.578125 15.53125 21.875 16.546875 
L 31.453125 52.828125 
L 40.875 52.828125 
L 50.09375 16.546875 
Q 50.4375 15.28125 50.828125 13.671875 
Q 51.21875 12.0625 51.5625 10.640625 
Q 51.953125 8.984375 52.34375 7.28125 
Q 52.734375 9.125 53.125 10.890625 
Q 53.46875 12.40625 53.828125 14.03125 
Q 54.203125 15.671875 54.546875 16.9375 
L 63.875 52.828125 
L 72.46875 52.828125 
z
" id="LiberationSans-119"/>
     </defs>
     <g style="fill:#262626;" transform="translate(86.7625 247.915125)scale(0.1 -0.1)">
      <use xlink:href="#LiberationSans-114"/>
      <use x="33.300781" xlink:href="#LiberationSans-97"/>
      <use x="88.916016" xlink:href="#LiberationSans-119"/>
     </g>
    </g>
    <g id="line2d_16">
     <path d="M 58.7625 258.737 
L 78.7625 258.737 
" style="fill:none;stroke:#ff7f0e;stroke-linecap:round;stroke-width:1.5;"/>
    </g>
    <g id="line2d_17"/>
    <g id="text_15">
     <!-- band-stop @ 40-60Hz -->
     <defs>
      <path d="M 51.421875 26.65625 
Q 51.421875 -0.984375 31.984375 -0.984375 
Q 25.984375 -0.984375 22 1.1875 
Q 18.015625 3.375 15.53125 8.203125 
L 15.4375 8.203125 
Q 15.4375 6.9375 15.359375 5.5625 
Q 15.28125 4.203125 15.203125 3.03125 
Q 15.140625 1.859375 15.0625 1.03125 
Q 14.984375 0.203125 14.9375 0 
L 6.453125 0 
Q 6.5 0.4375 6.546875 1.484375 
Q 6.59375 2.546875 6.640625 4 
Q 6.6875 5.46875 6.703125 7.21875 
Q 6.734375 8.984375 6.734375 10.890625 
L 6.734375 72.46875 
L 15.53125 72.46875 
L 15.53125 51.8125 
Q 15.53125 50.34375 15.5 49 
Q 15.484375 47.65625 15.4375 46.625 
Q 15.375 45.40625 15.328125 44.34375 
L 15.53125 44.34375 
Q 17.96875 49.421875 22 51.609375 
Q 26.03125 53.8125 31.984375 53.8125 
Q 42 53.8125 46.703125 47.0625 
Q 51.421875 40.328125 51.421875 26.65625 
z
M 42.1875 26.375 
Q 42.1875 31.84375 41.5 35.75 
Q 40.828125 39.65625 39.3125 42.15625 
Q 37.796875 44.671875 35.453125 45.84375 
Q 33.109375 47.015625 29.734375 47.015625 
Q 26.265625 47.015625 23.609375 45.890625 
Q 20.953125 44.78125 19.171875 42.28125 
Q 17.390625 39.796875 16.453125 35.734375 
Q 15.53125 31.6875 15.53125 25.828125 
Q 15.53125 20.171875 16.453125 16.3125 
Q 17.390625 12.453125 19.171875 10.03125 
Q 20.953125 7.625 23.578125 6.5625 
Q 26.21875 5.515625 29.640625 5.515625 
Q 32.859375 5.515625 35.203125 6.640625 
Q 37.546875 7.765625 39.109375 10.25 
Q 40.671875 12.75 41.421875 16.71875 
Q 42.1875 20.703125 42.1875 26.375 
z
" id="LiberationSans-98"/>
      <path d="M 40.09375 8.5 
Q 37.640625 3.421875 33.609375 1.21875 
Q 29.59375 -0.984375 23.640625 -0.984375 
Q 13.625 -0.984375 8.90625 5.75 
Q 4.203125 12.5 4.203125 26.171875 
Q 4.203125 53.8125 23.640625 53.8125 
Q 29.640625 53.8125 33.640625 51.609375 
Q 37.640625 49.421875 40.09375 44.625 
L 40.1875 44.625 
Q 40.1875 45.125 40.15625 46.171875 
Q 40.140625 47.21875 40.109375 48.359375 
Q 40.09375 49.515625 40.09375 50.53125 
Q 40.09375 51.5625 40.09375 52 
L 40.09375 72.46875 
L 48.875 72.46875 
L 48.875 10.890625 
Q 48.875 8.984375 48.890625 7.21875 
Q 48.921875 5.46875 48.96875 4 
Q 49.03125 2.546875 49.078125 1.484375 
Q 49.125 0.4375 49.171875 0 
L 40.765625 0 
Q 40.671875 0.484375 40.59375 1.390625 
Q 40.53125 2.296875 40.453125 3.46875 
Q 40.375 4.640625 40.328125 5.9375 
Q 40.28125 7.234375 40.28125 8.5 
z
M 13.421875 26.46875 
Q 13.421875 21 14.109375 17.09375 
Q 14.796875 13.1875 16.3125 10.671875 
Q 17.828125 8.15625 20.171875 6.984375 
Q 22.515625 5.8125 25.875 5.8125 
Q 29.34375 5.8125 32 6.9375 
Q 34.671875 8.0625 36.453125 10.578125 
Q 38.234375 13.09375 39.15625 17.140625 
Q 40.09375 21.1875 40.09375 27.046875 
Q 40.09375 32.671875 39.15625 36.546875 
Q 38.234375 40.4375 36.421875 42.828125 
Q 34.625 45.21875 32 46.265625 
Q 29.390625 47.3125 25.984375 47.3125 
Q 22.75 47.3125 20.40625 46.1875 
Q 18.0625 45.0625 16.5 42.578125 
Q 14.9375 40.09375 14.171875 36.109375 
Q 13.421875 32.125 13.421875 26.46875 
z
" id="LiberationSans-100"/>
      <path d="M 4.4375 22.65625 
L 4.4375 30.46875 
L 28.859375 30.46875 
L 28.859375 22.65625 
z
" id="LiberationSans-45"/>
      <path d="M 51.421875 26.65625 
Q 51.421875 20.65625 50.4375 15.578125 
Q 49.46875 10.5 47.1875 6.828125 
Q 44.921875 3.171875 41.1875 1.09375 
Q 37.453125 -0.984375 31.984375 -0.984375 
Q 26.3125 -0.984375 22.0625 1.171875 
Q 17.828125 3.328125 15.578125 8.203125 
L 15.328125 8.203125 
Q 15.375 8.109375 15.40625 7.328125 
Q 15.4375 6.546875 15.453125 5.375 
Q 15.484375 4.203125 15.5 2.75 
Q 15.53125 1.3125 15.53125 -0.09375 
L 15.53125 -20.75 
L 6.734375 -20.75 
L 6.734375 42.046875 
Q 6.734375 43.953125 6.703125 45.703125 
Q 6.6875 47.46875 6.640625 48.90625 
Q 6.59375 50.34375 6.546875 51.359375 
Q 6.5 52.390625 6.453125 52.828125 
L 14.9375 52.828125 
Q 14.984375 52.6875 15.0625 51.796875 
Q 15.140625 50.921875 15.203125 49.671875 
Q 15.28125 48.4375 15.359375 47.015625 
Q 15.4375 45.609375 15.4375 44.34375 
L 15.625 44.34375 
Q 16.84375 46.875 18.40625 48.65625 
Q 19.96875 50.4375 21.96875 51.578125 
Q 23.96875 52.734375 26.4375 53.25 
Q 28.90625 53.765625 31.984375 53.765625 
Q 37.453125 53.765625 41.1875 51.8125 
Q 44.921875 49.859375 47.1875 46.3125 
Q 49.46875 42.78125 50.4375 37.765625 
Q 51.421875 32.765625 51.421875 26.65625 
z
M 42.1875 26.46875 
Q 42.1875 31.34375 41.59375 35.15625 
Q 41.015625 38.96875 39.578125 41.59375 
Q 38.140625 44.234375 35.734375 45.59375 
Q 33.34375 46.96875 29.734375 46.96875 
Q 26.8125 46.96875 24.21875 46.140625 
Q 21.625 45.3125 19.703125 42.96875 
Q 17.78125 40.625 16.65625 36.5 
Q 15.53125 32.375 15.53125 25.78125 
Q 15.53125 20.171875 16.453125 16.28125 
Q 17.390625 12.40625 19.171875 10.015625 
Q 20.953125 7.625 23.578125 6.5625 
Q 26.21875 5.515625 29.640625 5.515625 
Q 33.296875 5.515625 35.71875 6.921875 
Q 38.140625 8.34375 39.578125 11.03125 
Q 41.015625 13.71875 41.59375 17.59375 
Q 42.1875 21.484375 42.1875 26.46875 
z
" id="LiberationSans-112"/>
      <path id="LiberationSans-32"/>
      <path d="M 92.875 36.859375 
Q 92.875 29.828125 91.234375 24 
Q 89.59375 18.171875 86.71875 13.96875 
Q 83.84375 9.765625 79.8125 7.421875 
Q 75.78125 5.078125 71.046875 5.078125 
Q 68.3125 5.078125 66.375 5.734375 
Q 64.453125 6.390625 63.234375 7.53125 
Q 62.015625 8.6875 61.46875 10.25 
Q 60.9375 11.8125 60.9375 13.671875 
Q 60.9375 14.40625 60.984375 15.453125 
Q 61.03125 16.5 61.078125 17.09375 
L 60.796875 17.09375 
Q 59.625 14.890625 57.9375 12.71875 
Q 56.25 10.546875 53.96875 8.859375 
Q 51.703125 7.171875 48.84375 6.125 
Q 46 5.078125 42.53125 5.078125 
Q 38.421875 5.078125 35.375 6.484375 
Q 32.328125 7.90625 30.34375 10.421875 
Q 28.375 12.9375 27.390625 16.375 
Q 26.421875 19.828125 26.421875 23.875 
Q 26.421875 29.734375 28.15625 35.125 
Q 29.890625 40.53125 33.109375 44.65625 
Q 36.328125 48.78125 40.84375 51.265625 
Q 45.359375 53.765625 50.921875 53.765625 
Q 53.859375 53.765625 56.203125 53.09375 
Q 58.546875 52.4375 60.328125 51.265625 
Q 62.109375 50.09375 63.421875 48.453125 
Q 64.75 46.828125 65.625 44.875 
L 65.921875 44.875 
L 67.828125 52.6875 
L 75.4375 52.6875 
L 69.78125 27.984375 
Q 68.84375 23.875 68.40625 20.9375 
Q 67.96875 18.015625 67.96875 15.625 
Q 67.96875 13.28125 69.015625 12.15625 
Q 70.0625 11.03125 71.921875 11.03125 
Q 74.953125 11.03125 77.5625 13 
Q 80.171875 14.984375 82.09375 18.453125 
Q 84.03125 21.921875 85.125 26.609375 
Q 86.234375 31.296875 86.234375 36.765625 
Q 86.234375 43.0625 84.203125 48.484375 
Q 82.171875 53.90625 78.234375 57.859375 
Q 74.3125 61.8125 68.5 64.0625 
Q 62.703125 66.3125 55.078125 66.3125 
Q 48.53125 66.3125 42.984375 64.75 
Q 37.453125 63.1875 32.953125 60.34375 
Q 28.46875 57.515625 25.078125 53.578125 
Q 21.6875 49.65625 19.390625 44.96875 
Q 17.09375 40.28125 15.921875 34.9375 
Q 14.75 29.59375 14.75 23.96875 
Q 14.75 17.09375 16.84375 11.28125 
Q 18.953125 5.46875 22.96875 1.296875 
Q 27 -2.875 32.9375 -5.21875 
Q 38.875 -7.5625 46.578125 -7.5625 
Q 51.703125 -7.5625 56.140625 -6.75 
Q 60.59375 -5.953125 64.296875 -4.78125 
Q 68.015625 -3.609375 70.9375 -2.21875 
Q 73.875 -0.828125 76.03125 0.34375 
L 78.71875 -5.125 
Q 76.265625 -6.59375 72.96875 -8.125 
Q 69.671875 -9.671875 65.625 -10.9375 
Q 61.578125 -12.203125 56.78125 -13 
Q 52 -13.8125 46.578125 -13.8125 
Q 37.3125 -13.8125 30.109375 -11 
Q 22.90625 -8.203125 17.9375 -3.171875 
Q 12.984375 1.859375 10.421875 8.78125 
Q 7.859375 15.71875 7.859375 23.96875 
Q 7.859375 30.765625 9.390625 37.015625 
Q 10.9375 43.265625 13.8125 48.625 
Q 16.703125 54 20.84375 58.390625 
Q 25 62.796875 30.25 65.921875 
Q 35.5 69.046875 41.71875 70.75 
Q 47.953125 72.46875 54.984375 72.46875 
Q 64.796875 72.46875 71.921875 69.578125 
Q 79.046875 66.703125 83.703125 61.8125 
Q 88.375 56.9375 90.625 50.484375 
Q 92.875 44.046875 92.875 36.859375 
z
M 63.28125 36.46875 
Q 63.28125 38.921875 62.453125 40.96875 
Q 61.625 43.015625 60.078125 44.484375 
Q 58.546875 45.953125 56.375 46.75 
Q 54.203125 47.5625 51.46875 47.5625 
Q 47.265625 47.5625 44.09375 45.484375 
Q 40.921875 43.40625 38.796875 40.03125 
Q 36.671875 36.671875 35.5625 32.4375 
Q 34.46875 28.21875 34.46875 23.96875 
Q 34.46875 18.109375 36.78125 14.78125 
Q 39.109375 11.46875 43.953125 11.46875 
Q 47.3125 11.46875 50.234375 12.984375 
Q 53.171875 14.5 55.515625 16.984375 
Q 57.859375 19.484375 59.5625 22.703125 
Q 61.28125 25.921875 62.15625 29.390625 
Q 62.59375 31.15625 62.9375 33.109375 
Q 63.28125 35.0625 63.28125 36.46875 
z
" id="LiberationSans-64"/>
      <path d="M 54.734375 0 
L 54.734375 31.890625 
L 17.53125 31.890625 
L 17.53125 0 
L 8.203125 0 
L 8.203125 68.796875 
L 17.53125 68.796875 
L 17.53125 39.703125 
L 54.734375 39.703125 
L 54.734375 68.796875 
L 64.0625 68.796875 
L 64.0625 0 
z
" id="LiberationSans-72"/>
      <path d="M 2.390625 0 
L 2.390625 6.6875 
L 34.671875 46.046875 
L 4.34375 46.046875 
L 4.34375 52.828125 
L 44.578125 52.828125 
L 44.578125 46.140625 
L 12.25 6.78125 
L 46.390625 6.78125 
L 46.390625 0 
z
" id="LiberationSans-122"/>
     </defs>
     <g style="fill:#262626;" transform="translate(86.7625 262.237)scale(0.1 -0.1)">
      <use xlink:href="#LiberationSans-98"/>
      <use x="55.615234" xlink:href="#LiberationSans-97"/>
      <use x="111.230469" xlink:href="#LiberationSans-110"/>
      <use x="166.845703" xlink:href="#LiberationSans-100"/>
      <use x="222.460938" xlink:href="#LiberationSans-45"/>
      <use x="255.761719" xlink:href="#LiberationSans-115"/>
      <use x="305.761719" xlink:href="#LiberationSans-116"/>
      <use x="333.544922" xlink:href="#LiberationSans-111"/>
      <use x="389.160156" xlink:href="#LiberationSans-112"/>
      <use x="444.775391" xlink:href="#LiberationSans-32"/>
      <use x="472.558594" xlink:href="#LiberationSans-64"/>
      <use x="574.072266" xlink:href="#LiberationSans-32"/>
      <use x="601.855469" xlink:href="#LiberationSans-52"/>
      <use x="657.470703" xlink:href="#LiberationSans-48"/>
      <use x="713.085938" xlink:href="#LiberationSans-45"/>
      <use x="746.386719" xlink:href="#LiberationSans-54"/>
      <use x="802.001953" xlink:href="#LiberationSans-48"/>
      <use x="857.617188" xlink:href="#LiberationSans-72"/>
      <use x="929.833984" xlink:href="#LiberationSans-122"/>
     </g>
    </g>
   </g>
  </g>
 </g>
 <defs>
  <clipPath id="pb1bfcf2caa">
   <rect height="266.112" width="357.12" x="49.7625" y="7.2"/>
  </clipPath>
 </defs>
</svg>
