<?xml version="1.0" encoding="utf-8" standalone="no"?>
<!DOCTYPE svg PUBLIC "-//W3C//DTD SVG 1.1//EN"
  "http://www.w3.org/Graphics/SVG/1.1/DTD/svg11.dtd">
<!-- Created with matplotlib (https://matplotlib.org/) -->
<svg height="312.65575pt" version="1.1" viewBox="0 0 414.0825 312.65575" width="414.0825pt" xmlns="http://www.w3.org/2000/svg" xmlns:xlink="http://www.w3.org/1999/xlink">
 <defs>
  <style type="text/css">
*{stroke-linecap:butt;stroke-linejoin:round;}
  </style>
 </defs>
 <g id="figure_1">
  <g id="patch_1">
   <path d="M 0 312.65575 
L 414.0825 312.65575 
L 414.0825 0 
L 0 0 
z
" style="fill:#ffffff;"/>
  </g>
  <g id="axes_1">
   <g id="patch_2">
    <path d="M 49.7625 273.312 
L 406.8825 273.312 
L 406.8825 7.2 
L 49.7625 7.2 
z
" style="fill:#ffffff;"/>
   </g>
   <g id="matplotlib.axis_1">
    <g id="xtick_1">
     <g id="line2d_1">
      <defs>
       <path d="M 0 0 
L 0 6 
" id="mf988c3da8b" style="stroke:#262626;stroke-width:0.8;"/>
      </defs>
      <g>
       <use style="fill:#262626;stroke:#262626;stroke-width:0.8;" x="65.995227" xlink:href="#mf988c3da8b" y="273.312"/>
      </g>
     </g>
     <g id="text_1">
      <!-- 0 -->
      <defs>
       <path d="M 51.703125 34.421875 
Q 51.703125 17.1875 45.625 8.09375 
Q 39.546875 -0.984375 27.6875 -0.984375 
Q 15.828125 -0.984375 9.859375 8.046875 
Q 3.90625 17.09375 3.90625 34.421875 
Q 3.90625 52.15625 9.6875 60.984375 
Q 15.484375 69.828125 27.984375 69.828125 
Q 40.140625 69.828125 45.921875 60.890625 
Q 51.703125 51.953125 51.703125 34.421875 
z
M 42.78125 34.421875 
Q 42.78125 49.3125 39.328125 56 
Q 35.890625 62.703125 27.984375 62.703125 
Q 19.875 62.703125 16.328125 56.109375 
Q 12.796875 49.515625 12.796875 34.421875 
Q 12.796875 19.78125 16.375 12.984375 
Q 19.96875 6.203125 27.78125 6.203125 
Q 35.546875 6.203125 39.15625 13.125 
Q 42.78125 20.0625 42.78125 34.421875 
z
" id="LiberationSans-48"/>
      </defs>
      <g style="fill:#262626;" transform="translate(63.214759 290.058875)scale(0.1 -0.1)">
       <use xlink:href="#LiberationSans-48"/>
      </g>
     </g>
    </g>
    <g id="xtick_2">
     <g id="line2d_2">
      <g>
       <use style="fill:#262626;stroke:#262626;stroke-width:0.8;" x="130.991132" xlink:href="#mf988c3da8b" y="273.312"/>
      </g>
     </g>
     <g id="text_2">
      <!-- 200 -->
      <defs>
       <path d="M 5.03125 0 
L 5.03125 6.203125 
Q 7.515625 11.921875 11.109375 16.28125 
Q 14.703125 20.65625 18.65625 24.1875 
Q 22.609375 27.734375 26.484375 30.765625 
Q 30.375 33.796875 33.5 36.8125 
Q 36.625 39.84375 38.546875 43.15625 
Q 40.484375 46.484375 40.484375 50.6875 
Q 40.484375 56.34375 37.15625 59.46875 
Q 33.84375 62.59375 27.9375 62.59375 
Q 22.3125 62.59375 18.671875 59.546875 
Q 15.046875 56.5 14.40625 50.984375 
L 5.421875 51.8125 
Q 6.390625 60.0625 12.421875 64.9375 
Q 18.453125 69.828125 27.9375 69.828125 
Q 38.328125 69.828125 43.921875 64.921875 
Q 49.515625 60.015625 49.515625 50.984375 
Q 49.515625 46.96875 47.671875 43.015625 
Q 45.84375 39.0625 42.234375 35.109375 
Q 38.625 31.15625 28.421875 22.859375 
Q 22.796875 18.265625 19.46875 14.578125 
Q 16.15625 10.890625 14.703125 7.46875 
L 50.59375 7.46875 
L 50.59375 0 
z
" id="LiberationSans-50"/>
      </defs>
      <g style="fill:#262626;" transform="translate(122.649726 290.058875)scale(0.1 -0.1)">
       <use xlink:href="#LiberationSans-50"/>
       <use x="55.615234" xlink:href="#LiberationSans-48"/>
       <use x="111.230469" xlink:href="#LiberationSans-48"/>
      </g>
     </g>
    </g>
    <g id="xtick_3">
     <g id="line2d_3">
      <g>
       <use style="fill:#262626;stroke:#262626;stroke-width:0.8;" x="195.987037" xlink:href="#mf988c3da8b" y="273.312"/>
      </g>
     </g>
     <g id="text_3">
      <!-- 400 -->
      <defs>
       <path d="M 43.015625 15.578125 
L 43.015625 0 
L 34.71875 0 
L 34.71875 15.578125 
L 2.296875 15.578125 
L 2.296875 22.40625 
L 33.796875 68.796875 
L 43.015625 68.796875 
L 43.015625 22.515625 
L 52.6875 22.515625 
L 52.6875 15.578125 
z
M 34.71875 58.890625 
Q 34.625 58.59375 33.34375 56.296875 
Q 32.078125 54 31.453125 53.078125 
L 13.8125 27.09375 
L 11.1875 23.484375 
L 10.40625 22.515625 
L 34.71875 22.515625 
z
" id="LiberationSans-52"/>
      </defs>
      <g style="fill:#262626;" transform="translate(187.645631 290.058875)scale(0.1 -0.1)">
       <use xlink:href="#LiberationSans-52"/>
       <use x="55.615234" xlink:href="#LiberationSans-48"/>
       <use x="111.230469" xlink:href="#LiberationSans-48"/>
      </g>
     </g>
    </g>
    <g id="xtick_4">
     <g id="line2d_4">
      <g>
       <use style="fill:#262626;stroke:#262626;stroke-width:0.8;" x="260.982942" xlink:href="#mf988c3da8b" y="273.312"/>
      </g>
     </g>
     <g id="text_4">
      <!-- 600 -->
      <defs>
       <path d="M 51.21875 22.515625 
Q 51.21875 11.625 45.3125 5.3125 
Q 39.40625 -0.984375 29 -0.984375 
Q 17.390625 -0.984375 11.234375 7.65625 
Q 5.078125 16.3125 5.078125 32.8125 
Q 5.078125 50.6875 11.46875 60.25 
Q 17.875 69.828125 29.6875 69.828125 
Q 45.265625 69.828125 49.3125 55.8125 
L 40.921875 54.296875 
Q 38.328125 62.703125 29.59375 62.703125 
Q 22.078125 62.703125 17.9375 55.6875 
Q 13.8125 48.6875 13.8125 35.40625 
Q 16.21875 39.84375 20.5625 42.15625 
Q 24.90625 44.484375 30.515625 44.484375 
Q 40.046875 44.484375 45.625 38.515625 
Q 51.21875 32.5625 51.21875 22.515625 
z
M 42.28125 22.125 
Q 42.28125 29.59375 38.625 33.640625 
Q 34.96875 37.703125 28.421875 37.703125 
Q 22.265625 37.703125 18.484375 34.109375 
Q 14.703125 30.515625 14.703125 24.21875 
Q 14.703125 16.265625 18.625 11.1875 
Q 22.5625 6.109375 28.71875 6.109375 
Q 35.0625 6.109375 38.671875 10.375 
Q 42.28125 14.65625 42.28125 22.125 
z
" id="LiberationSans-54"/>
      </defs>
      <g style="fill:#262626;" transform="translate(252.641536 290.058875)scale(0.1 -0.1)">
       <use xlink:href="#LiberationSans-54"/>
       <use x="55.615234" xlink:href="#LiberationSans-48"/>
       <use x="111.230469" xlink:href="#LiberationSans-48"/>
      </g>
     </g>
    </g>
    <g id="xtick_5">
     <g id="line2d_5">
      <g>
       <use style="fill:#262626;stroke:#262626;stroke-width:0.8;" x="325.978847" xlink:href="#mf988c3da8b" y="273.312"/>
      </g>
     </g>
     <g id="text_5">
      <!-- 800 -->
      <defs>
       <path d="M 51.265625 19.1875 
Q 51.265625 9.671875 45.203125 4.34375 
Q 39.15625 -0.984375 27.828125 -0.984375 
Q 16.796875 -0.984375 10.5625 4.234375 
Q 4.34375 9.46875 4.34375 19.09375 
Q 4.34375 25.828125 8.203125 30.421875 
Q 12.0625 35.015625 18.0625 35.984375 
L 18.0625 36.1875 
Q 12.453125 37.5 9.203125 41.890625 
Q 5.953125 46.296875 5.953125 52.203125 
Q 5.953125 60.0625 11.828125 64.9375 
Q 17.71875 69.828125 27.640625 69.828125 
Q 37.796875 69.828125 43.671875 65.03125 
Q 49.5625 60.25 49.5625 52.09375 
Q 49.5625 46.1875 46.28125 41.796875 
Q 43.015625 37.40625 37.359375 36.28125 
L 37.359375 36.078125 
Q 43.953125 35.015625 47.609375 30.5 
Q 51.265625 25.984375 51.265625 19.1875 
z
M 40.4375 51.609375 
Q 40.4375 63.28125 27.640625 63.28125 
Q 21.4375 63.28125 18.1875 60.34375 
Q 14.9375 57.421875 14.9375 51.609375 
Q 14.9375 45.703125 18.28125 42.59375 
Q 21.625 39.5 27.734375 39.5 
Q 33.9375 39.5 37.1875 42.359375 
Q 40.4375 45.21875 40.4375 51.609375 
z
M 42.140625 20.015625 
Q 42.140625 26.421875 38.328125 29.65625 
Q 34.515625 32.90625 27.640625 32.90625 
Q 20.953125 32.90625 17.1875 29.40625 
Q 13.421875 25.921875 13.421875 19.828125 
Q 13.421875 5.609375 27.9375 5.609375 
Q 35.109375 5.609375 38.625 9.046875 
Q 42.140625 12.5 42.140625 20.015625 
z
" id="LiberationSans-56"/>
      </defs>
      <g style="fill:#262626;" transform="translate(317.637441 290.058875)scale(0.1 -0.1)">
       <use xlink:href="#LiberationSans-56"/>
       <use x="55.615234" xlink:href="#LiberationSans-48"/>
       <use x="111.230469" xlink:href="#LiberationSans-48"/>
      </g>
     </g>
    </g>
    <g id="xtick_6">
     <g id="line2d_6">
      <g>
       <use style="fill:#262626;stroke:#262626;stroke-width:0.8;" x="390.974752" xlink:href="#mf988c3da8b" y="273.312"/>
      </g>
     </g>
     <g id="text_6">
      <!-- 1000 -->
      <defs>
       <path d="M 7.625 0 
L 7.625 7.46875 
L 25.140625 7.46875 
L 25.140625 60.40625 
L 9.625 49.3125 
L 9.625 57.625 
L 25.875 68.796875 
L 33.984375 68.796875 
L 33.984375 7.46875 
L 50.734375 7.46875 
L 50.734375 0 
z
" id="LiberationSans-49"/>
      </defs>
      <g style="fill:#262626;" transform="translate(379.852877 290.058875)scale(0.1 -0.1)">
       <use xlink:href="#LiberationSans-49"/>
       <use x="55.615234" xlink:href="#LiberationSans-48"/>
       <use x="111.230469" xlink:href="#LiberationSans-48"/>
       <use x="166.845703" xlink:href="#LiberationSans-48"/>
      </g>
     </g>
    </g>
    <g id="text_7">
     <!-- time -->
     <defs>
      <path d="M 27.046875 0.390625 
Q 22.703125 -0.78125 18.171875 -0.78125 
Q 7.625 -0.78125 7.625 11.1875 
L 7.625 46.4375 
L 1.515625 46.4375 
L 1.515625 52.828125 
L 7.953125 52.828125 
L 10.546875 64.65625 
L 16.40625 64.65625 
L 16.40625 52.828125 
L 26.171875 52.828125 
L 26.171875 46.4375 
L 16.40625 46.4375 
L 16.40625 13.09375 
Q 16.40625 9.28125 17.640625 7.734375 
Q 18.890625 6.203125 21.96875 6.203125 
Q 23.734375 6.203125 27.046875 6.890625 
z
" id="LiberationSans-116"/>
      <path d="M 6.6875 64.0625 
L 6.6875 72.46875 
L 15.484375 72.46875 
L 15.484375 64.0625 
z
M 6.6875 0 
L 6.6875 52.828125 
L 15.484375 52.828125 
L 15.484375 0 
z
" id="LiberationSans-105"/>
      <path d="M 37.5 0 
L 37.5 33.5 
Q 37.5 41.15625 35.390625 44.078125 
Q 33.296875 47.015625 27.828125 47.015625 
Q 22.21875 47.015625 18.9375 42.71875 
Q 15.671875 38.421875 15.671875 30.609375 
L 15.671875 0 
L 6.9375 0 
L 6.9375 41.546875 
Q 6.9375 50.78125 6.640625 52.828125 
L 14.9375 52.828125 
Q 14.984375 52.59375 15.03125 51.515625 
Q 15.09375 50.4375 15.15625 49.046875 
Q 15.234375 47.65625 15.328125 43.796875 
L 15.484375 43.796875 
Q 18.3125 49.421875 21.96875 51.609375 
Q 25.640625 53.8125 30.90625 53.8125 
Q 36.921875 53.8125 40.40625 51.421875 
Q 43.890625 49.03125 45.265625 43.796875 
L 45.40625 43.796875 
Q 48.140625 49.125 52.015625 51.46875 
Q 55.90625 53.8125 61.421875 53.8125 
Q 69.4375 53.8125 73.0625 49.46875 
Q 76.703125 45.125 76.703125 35.203125 
L 76.703125 0 
L 68.015625 0 
L 68.015625 33.5 
Q 68.015625 41.15625 65.90625 44.078125 
Q 63.8125 47.015625 58.34375 47.015625 
Q 52.59375 47.015625 49.390625 42.75 
Q 46.1875 38.484375 46.1875 30.609375 
L 46.1875 0 
z
" id="LiberationSans-109"/>
      <path d="M 13.484375 24.5625 
Q 13.484375 15.484375 17.234375 10.546875 
Q 21 5.609375 28.21875 5.609375 
Q 33.9375 5.609375 37.375 7.90625 
Q 40.828125 10.203125 42.046875 13.71875 
L 49.75 11.53125 
Q 45.015625 -0.984375 28.21875 -0.984375 
Q 16.5 -0.984375 10.375 6 
Q 4.25 12.984375 4.25 26.765625 
Q 4.25 39.84375 10.375 46.828125 
Q 16.5 53.8125 27.875 53.8125 
Q 51.171875 53.8125 51.171875 25.734375 
L 51.171875 24.5625 
z
M 42.09375 31.296875 
Q 41.359375 39.65625 37.84375 43.484375 
Q 34.328125 47.3125 27.734375 47.3125 
Q 21.34375 47.3125 17.609375 43.03125 
Q 13.875 38.765625 13.578125 31.296875 
z
" id="LiberationSans-101"/>
     </defs>
     <g style="fill:#262626;" transform="translate(218.877188 303.38075)scale(0.1 -0.1)">
      <use xlink:href="#LiberationSans-116"/>
      <use x="27.783203" xlink:href="#LiberationSans-105"/>
      <use x="50" xlink:href="#LiberationSans-109"/>
      <use x="133.300781" xlink:href="#LiberationSans-101"/>
     </g>
    </g>
   </g>
   <g id="matplotlib.axis_2">
    <g id="ytick_1">
     <g id="line2d_7">
      <defs>
       <path d="M 0 0 
L -6 0 
" id="mb557a0d65c" style="stroke:#262626;stroke-width:0.8;"/>
      </defs>
      <g>
       <use style="fill:#262626;stroke:#262626;stroke-width:0.8;" x="49.7625" xlink:href="#mb557a0d65c" y="261.49504"/>
      </g>
     </g>
     <g id="text_8">
      <!-- −1.0 -->
      <defs>
       <path d="M 4.9375 29.6875 
L 4.9375 36.8125 
L 53.515625 36.8125 
L 53.515625 29.6875 
z
" id="LiberationSans-8722"/>
       <path d="M 9.125 0 
L 9.125 10.6875 
L 18.65625 10.6875 
L 18.65625 0 
z
" id="LiberationSans-46"/>
      </defs>
      <g style="fill:#262626;" transform="translate(20.521875 265.118478)scale(0.1 -0.1)">
       <use xlink:href="#LiberationSans-8722"/>
       <use x="58.398438" xlink:href="#LiberationSans-49"/>
       <use x="114.013672" xlink:href="#LiberationSans-46"/>
       <use x="141.796875" xlink:href="#LiberationSans-48"/>
      </g>
     </g>
    </g>
    <g id="ytick_2">
     <g id="line2d_8">
      <g>
       <use style="fill:#262626;stroke:#262626;stroke-width:0.8;" x="49.7625" xlink:href="#mb557a0d65c" y="209.186973"/>
      </g>
     </g>
     <g id="text_9">
      <!-- −0.5 -->
      <defs>
       <path d="M 51.421875 22.40625 
Q 51.421875 11.53125 44.953125 5.265625 
Q 38.484375 -0.984375 27 -0.984375 
Q 17.390625 -0.984375 11.46875 3.21875 
Q 5.5625 7.421875 4 15.375 
L 12.890625 16.40625 
Q 15.671875 6.203125 27.203125 6.203125 
Q 34.28125 6.203125 38.28125 10.46875 
Q 42.28125 14.75 42.28125 22.21875 
Q 42.28125 28.71875 38.25 32.71875 
Q 34.234375 36.71875 27.390625 36.71875 
Q 23.828125 36.71875 20.75 35.59375 
Q 17.671875 34.46875 14.59375 31.78125 
L 6 31.78125 
L 8.296875 68.796875 
L 47.40625 68.796875 
L 47.40625 61.328125 
L 16.3125 61.328125 
L 14.984375 39.5 
Q 20.703125 43.890625 29.203125 43.890625 
Q 39.359375 43.890625 45.390625 37.9375 
Q 51.421875 31.984375 51.421875 22.40625 
z
" id="LiberationSans-53"/>
      </defs>
      <g style="fill:#262626;" transform="translate(20.521875 212.81041)scale(0.1 -0.1)">
       <use xlink:href="#LiberationSans-8722"/>
       <use x="58.398438" xlink:href="#LiberationSans-48"/>
       <use x="114.013672" xlink:href="#LiberationSans-46"/>
       <use x="141.796875" xlink:href="#LiberationSans-53"/>
      </g>
     </g>
    </g>
    <g id="ytick_3">
     <g id="line2d_9">
      <g>
       <use style="fill:#262626;stroke:#262626;stroke-width:0.8;" x="49.7625" xlink:href="#mb557a0d65c" y="156.878905"/>
      </g>
     </g>
     <g id="text_10">
      <!-- 0.0 -->
      <g style="fill:#262626;" transform="translate(26.3625 160.502342)scale(0.1 -0.1)">
       <use xlink:href="#LiberationSans-48"/>
       <use x="55.615234" xlink:href="#LiberationSans-46"/>
       <use x="83.398438" xlink:href="#LiberationSans-48"/>
      </g>
     </g>
    </g>
    <g id="ytick_4">
     <g id="line2d_10">
      <g>
       <use style="fill:#262626;stroke:#262626;stroke-width:0.8;" x="49.7625" xlink:href="#mb557a0d65c" y="104.570837"/>
      </g>
     </g>
     <g id="text_11">
      <!-- 0.5 -->
      <g style="fill:#262626;" transform="translate(26.3625 108.194275)scale(0.1 -0.1)">
       <use xlink:href="#LiberationSans-48"/>
       <use x="55.615234" xlink:href="#LiberationSans-46"/>
       <use x="83.398438" xlink:href="#LiberationSans-53"/>
      </g>
     </g>
    </g>
    <g id="ytick_5">
     <g id="line2d_11">
      <g>
       <use style="fill:#262626;stroke:#262626;stroke-width:0.8;" x="49.7625" xlink:href="#mb557a0d65c" y="52.26277"/>
      </g>
     </g>
     <g id="text_12">
      <!-- 1.0 -->
      <g style="fill:#262626;" transform="translate(26.3625 55.886207)scale(0.1 -0.1)">
       <use xlink:href="#LiberationSans-49"/>
       <use x="55.615234" xlink:href="#LiberationSans-46"/>
       <use x="83.398438" xlink:href="#LiberationSans-48"/>
      </g>
     </g>
    </g>
    <g id="text_13">
     <!-- analogs -->
     <defs>
      <path d="M 20.21875 -0.984375 
Q 12.25 -0.984375 8.25 3.21875 
Q 4.25 7.421875 4.25 14.75 
Q 4.25 22.953125 9.640625 27.34375 
Q 15.046875 31.734375 27.046875 32.03125 
L 38.921875 32.234375 
L 38.921875 35.109375 
Q 38.921875 41.546875 36.1875 44.328125 
Q 33.453125 47.125 27.59375 47.125 
Q 21.6875 47.125 19 45.109375 
Q 16.3125 43.109375 15.765625 38.71875 
L 6.59375 39.546875 
Q 8.84375 53.8125 27.78125 53.8125 
Q 37.75 53.8125 42.765625 49.234375 
Q 47.796875 44.671875 47.796875 36.03125 
L 47.796875 13.28125 
Q 47.796875 9.375 48.828125 7.390625 
Q 49.859375 5.421875 52.734375 5.421875 
Q 54 5.421875 55.609375 5.765625 
L 55.609375 0.296875 
Q 52.296875 -0.484375 48.828125 -0.484375 
Q 43.953125 -0.484375 41.71875 2.078125 
Q 39.5 4.640625 39.203125 10.109375 
L 38.921875 10.109375 
Q 35.546875 4.046875 31.078125 1.53125 
Q 26.609375 -0.984375 20.21875 -0.984375 
z
M 22.21875 5.609375 
Q 27.046875 5.609375 30.8125 7.8125 
Q 34.578125 10.015625 36.75 13.84375 
Q 38.921875 17.671875 38.921875 21.734375 
L 38.921875 26.078125 
L 29.296875 25.875 
Q 23.09375 25.78125 19.890625 24.609375 
Q 16.703125 23.4375 14.984375 21 
Q 13.28125 18.5625 13.28125 14.59375 
Q 13.28125 10.296875 15.59375 7.953125 
Q 17.921875 5.609375 22.21875 5.609375 
z
" id="LiberationSans-97"/>
      <path d="M 40.28125 0 
L 40.28125 33.5 
Q 40.28125 38.71875 39.25 41.59375 
Q 38.234375 44.484375 35.984375 45.75 
Q 33.734375 47.015625 29.390625 47.015625 
Q 23.046875 47.015625 19.375 42.671875 
Q 15.71875 38.328125 15.71875 30.609375 
L 15.71875 0 
L 6.9375 0 
L 6.9375 41.546875 
Q 6.9375 50.78125 6.640625 52.828125 
L 14.9375 52.828125 
Q 14.984375 52.59375 15.03125 51.515625 
Q 15.09375 50.4375 15.15625 49.046875 
Q 15.234375 47.65625 15.328125 43.796875 
L 15.484375 43.796875 
Q 18.5 49.265625 22.484375 51.53125 
Q 26.46875 53.8125 32.375 53.8125 
Q 41.0625 53.8125 45.09375 49.484375 
Q 49.125 45.171875 49.125 35.203125 
L 49.125 0 
z
" id="LiberationSans-110"/>
      <path d="M 6.734375 0 
L 6.734375 72.46875 
L 15.53125 72.46875 
L 15.53125 0 
z
" id="LiberationSans-108"/>
      <path d="M 51.421875 26.46875 
Q 51.421875 12.59375 45.3125 5.796875 
Q 39.203125 -0.984375 27.59375 -0.984375 
Q 16.015625 -0.984375 10.109375 6.078125 
Q 4.203125 13.140625 4.203125 26.46875 
Q 4.203125 53.8125 27.875 53.8125 
Q 39.984375 53.8125 45.703125 47.140625 
Q 51.421875 40.484375 51.421875 26.46875 
z
M 42.1875 26.46875 
Q 42.1875 37.40625 38.9375 42.359375 
Q 35.6875 47.3125 28.03125 47.3125 
Q 20.3125 47.3125 16.859375 42.25 
Q 13.421875 37.203125 13.421875 26.46875 
Q 13.421875 16.015625 16.8125 10.765625 
Q 20.21875 5.515625 27.484375 5.515625 
Q 35.40625 5.515625 38.796875 10.59375 
Q 42.1875 15.671875 42.1875 26.46875 
z
" id="LiberationSans-111"/>
      <path d="M 26.765625 -20.75 
Q 18.109375 -20.75 12.984375 -17.359375 
Q 7.859375 -13.96875 6.390625 -7.71875 
L 15.234375 -6.453125 
Q 16.109375 -10.109375 19.109375 -12.078125 
Q 22.125 -14.0625 27 -14.0625 
Q 40.140625 -14.0625 40.140625 1.3125 
L 40.140625 9.8125 
L 40.046875 9.8125 
Q 37.546875 4.734375 33.203125 2.171875 
Q 28.859375 -0.390625 23.046875 -0.390625 
Q 13.328125 -0.390625 8.765625 6.046875 
Q 4.203125 12.5 4.203125 26.3125 
Q 4.203125 40.328125 9.109375 46.984375 
Q 14.015625 53.65625 24.03125 53.65625 
Q 29.640625 53.65625 33.765625 51.09375 
Q 37.890625 48.53125 40.140625 43.796875 
L 40.234375 43.796875 
Q 40.234375 45.265625 40.421875 48.875 
Q 40.625 52.484375 40.828125 52.828125 
L 49.171875 52.828125 
Q 48.875 50.203125 48.875 41.890625 
L 48.875 1.515625 
Q 48.875 -20.75 26.765625 -20.75 
z
M 40.140625 26.421875 
Q 40.140625 32.859375 38.375 37.515625 
Q 36.625 42.1875 33.421875 44.65625 
Q 30.21875 47.125 26.171875 47.125 
Q 19.4375 47.125 16.359375 42.234375 
Q 13.28125 37.359375 13.28125 26.421875 
Q 13.28125 15.578125 16.15625 10.84375 
Q 19.046875 6.109375 26.03125 6.109375 
Q 30.171875 6.109375 33.390625 8.546875 
Q 36.625 10.984375 38.375 15.546875 
Q 40.140625 20.125 40.140625 26.421875 
z
" id="LiberationSans-103"/>
      <path d="M 46.390625 14.59375 
Q 46.390625 7.125 40.75 3.0625 
Q 35.109375 -0.984375 24.953125 -0.984375 
Q 15.09375 -0.984375 9.734375 2.265625 
Q 4.390625 5.515625 2.78125 12.40625 
L 10.546875 13.921875 
Q 11.671875 9.671875 15.1875 7.6875 
Q 18.703125 5.71875 24.953125 5.71875 
Q 31.640625 5.71875 34.734375 7.765625 
Q 37.84375 9.8125 37.84375 13.921875 
Q 37.84375 17.046875 35.6875 19 
Q 33.546875 20.953125 28.765625 22.21875 
L 22.46875 23.875 
Q 14.890625 25.828125 11.6875 27.703125 
Q 8.5 29.59375 6.6875 32.28125 
Q 4.890625 34.96875 4.890625 38.875 
Q 4.890625 46.09375 10.03125 49.875 
Q 15.1875 53.65625 25.046875 53.65625 
Q 33.796875 53.65625 38.9375 50.578125 
Q 44.09375 47.515625 45.453125 40.71875 
L 37.546875 39.75 
Q 36.8125 43.265625 33.609375 45.140625 
Q 30.421875 47.015625 25.046875 47.015625 
Q 19.09375 47.015625 16.25 45.203125 
Q 13.421875 43.40625 13.421875 39.75 
Q 13.421875 37.5 14.59375 36.03125 
Q 15.765625 34.578125 18.0625 33.546875 
Q 20.359375 32.515625 27.734375 30.71875 
Q 34.71875 28.953125 37.796875 27.46875 
Q 40.875 25.984375 42.65625 24.171875 
Q 44.4375 22.359375 45.40625 19.984375 
Q 46.390625 17.625 46.390625 14.59375 
z
" id="LiberationSans-115"/>
     </defs>
     <g style="fill:#262626;" transform="translate(14.446875 157.769281)rotate(-90)scale(0.1 -0.1)">
      <use xlink:href="#LiberationSans-97"/>
      <use x="55.615234" xlink:href="#LiberationSans-110"/>
      <use x="111.230469" xlink:href="#LiberationSans-97"/>
      <use x="166.845703" xlink:href="#LiberationSans-108"/>
      <use x="189.0625" xlink:href="#LiberationSans-111"/>
      <use x="244.677734" xlink:href="#LiberationSans-103"/>
      <use x="300.292969" xlink:href="#LiberationSans-115"/>
     </g>
    </g>
   </g>
   <g id="line2d_12">
    <path clip-path="url(#pf05ee21b10)" d="M 65.995227 212.733439 
L 66.645186 68.336824 
L 66.970166 104.970604 
L 67.945104 159.400591 
L 68.270084 222.45986 
L 68.595063 74.29274 
L 68.920043 209.493288 
L 69.245023 242.390277 
L 69.570002 104.567661 
L 69.894982 224.750603 
L 70.219961 183.682396 
L 70.544941 255.576921 
L 70.86992 232.816004 
L 71.1949 225.255251 
L 71.519879 250.110686 
L 71.844859 124.101214 
L 72.169838 86.365999 
L 72.494818 183.38541 
L 72.819797 78.505418 
L 73.144777 216.856052 
L 73.469756 193.412863 
L 73.794736 229.955997 
L 74.119715 131.654031 
L 74.444695 173.644772 
L 75.094654 102.12807 
L 75.419633 147.316359 
L 75.744613 130.174516 
L 76.069593 65.810493 
L 76.394572 198.921136 
L 76.719552 186.346354 
L 77.044531 111.328336 
L 77.369511 133.590199 
L 77.69449 224.140195 
L 78.01947 182.792885 
L 78.344449 163.608231 
L 78.669429 173.745152 
L 78.994408 224.194197 
L 79.319388 68.074433 
L 79.644367 101.993355 
L 79.969347 160.779867 
L 80.619306 73.754549 
L 80.944285 233.003015 
L 81.269265 209.108918 
L 81.919224 94.316286 
L 82.244204 253.909346 
L 82.569183 55.606688 
L 82.894163 166.313899 
L 83.869101 225.013991 
L 84.194081 95.872234 
L 84.51906 61.591565 
L 84.84404 174.947209 
L 85.169019 62.217896 
L 85.493999 89.129995 
L 85.818978 160.843621 
L 86.143958 120.467012 
L 86.468937 170.482313 
L 86.793917 144.592073 
L 87.118896 249.349874 
L 87.443876 115.814252 
L 87.768855 250.44242 
L 88.093835 90.534502 
L 88.418814 88.889521 
L 88.743794 211.890821 
L 89.068774 193.774342 
L 89.718733 136.653905 
L 90.043712 201.371381 
L 90.368692 137.527765 
L 91.018651 249.884591 
L 91.34363 260.966195 
L 91.66861 240.330975 
L 91.993589 95.730627 
L 92.318569 60.332584 
L 92.643548 172.159933 
L 92.968528 154.225013 
L 93.293507 230.769665 
L 93.618487 146.201499 
L 93.943466 231.228567 
L 94.593425 66.22721 
L 94.918405 220.548591 
L 95.243385 101.523637 
L 95.568364 256.577575 
L 95.893344 182.9289 
L 96.218323 238.322879 
L 96.543303 187.745803 
L 96.868282 225.185517 
L 97.193262 183.38759 
L 97.518241 174.135796 
L 97.843221 198.601677 
L 98.49318 69.241539 
L 98.818159 177.677561 
L 99.143139 221.250645 
L 99.468118 204.851103 
L 99.793098 82.810509 
L 100.118077 141.889563 
L 100.443057 166.292049 
L 100.768036 230.186209 
L 101.093016 167.397574 
L 101.417995 203.225526 
L 101.742975 64.154877 
L 102.067955 76.519044 
L 102.392934 243.939921 
L 102.717914 153.394458 
L 103.042893 214.405572 
L 103.367873 175.547217 
L 103.692852 78.030143 
L 104.017832 151.12198 
L 104.342811 191.566416 
L 104.667791 217.998088 
L 104.99277 94.041253 
L 105.967709 215.990295 
L 106.292688 191.559913 
L 106.617668 60.664821 
L 106.942647 152.675442 
L 107.267627 177.65582 
L 107.592606 152.396722 
L 107.917586 98.505506 
L 108.242566 190.333275 
L 108.567545 224.103953 
L 108.892525 139.107528 
L 109.217504 122.312875 
L 109.542484 112.371434 
L 109.867463 76.954774 
L 110.192443 183.833436 
L 110.517422 245.728364 
L 110.842402 60.97759 
L 111.167381 170.476507 
L 111.492361 131.089456 
L 111.81734 122.082465 
L 112.14232 147.146736 
L 112.467299 218.548541 
L 112.792279 103.494745 
L 113.117258 93.32419 
L 113.442238 145.794703 
L 113.767217 159.272279 
L 114.092197 237.655496 
L 114.417176 243.929644 
L 114.742156 190.447117 
L 115.067136 196.455993 
L 115.392115 61.959336 
L 116.042074 123.417582 
L 116.367054 153.186355 
L 116.692033 226.476352 
L 117.017013 56.770329 
L 117.341992 183.024423 
L 117.666972 239.122754 
L 118.316931 78.626452 
L 118.64191 75.845129 
L 118.96689 259.200617 
L 119.291869 76.053369 
L 119.616849 204.691781 
L 119.941828 253.340764 
L 120.266808 84.109957 
L 120.591787 80.746237 
L 120.916767 136.744258 
L 121.241747 141.304961 
L 121.566726 91.364039 
L 121.891706 96.973707 
L 122.216685 75.256251 
L 122.541665 145.842437 
L 122.866644 59.032042 
L 123.191624 53.068977 
L 123.516603 237.110147 
L 123.841583 83.74307 
L 124.166562 156.916094 
L 124.491542 180.403655 
L 124.816521 133.220529 
L 125.141501 249.78524 
L 125.79146 79.276629 
L 126.116439 216.832003 
L 126.441419 172.280514 
L 126.766398 64.925321 
L 127.091378 171.825655 
L 127.416357 186.512967 
L 128.391296 129.262056 
L 128.716276 93.964267 
L 129.041255 166.900669 
L 129.366235 90.451648 
L 130.016194 190.673995 
L 130.341173 123.830495 
L 130.666153 111.324383 
L 130.991132 144.733186 
L 131.316112 249.649361 
L 131.966071 201.80155 
L 132.29105 202.360643 
L 132.61603 120.593677 
L 132.941009 257.655908 
L 133.265989 103.382026 
L 133.590968 205.976832 
L 133.915948 196.628466 
L 134.240928 151.039268 
L 134.565907 216.316437 
L 134.890887 76.435099 
L 135.215866 243.633137 
L 135.865825 83.76849 
L 136.190805 132.640624 
L 136.515784 200.330272 
L 136.840764 173.458427 
L 137.490723 57.857485 
L 137.815702 74.621598 
L 138.140682 189.847046 
L 138.465661 52.639831 
L 138.790641 260.761752 
L 139.11562 255.714004 
L 139.4406 89.121019 
L 139.765579 219.76101 
L 140.090559 248.780148 
L 140.740518 172.341138 
L 141.065498 108.637001 
L 141.390477 130.8639 
L 141.715457 211.777013 
L 142.040436 156.194622 
L 142.365416 67.70116 
L 142.690395 90.969112 
L 143.015375 193.873308 
L 143.340354 55.973596 
L 143.665334 113.228785 
L 143.990313 248.42862 
L 144.315293 254.138285 
L 144.640272 226.258663 
L 144.965252 109.204104 
L 145.290231 223.050928 
L 145.615211 154.475502 
L 145.94019 241.982014 
L 146.26517 68.815938 
L 146.590149 189.52738 
L 146.915129 71.484508 
L 147.240109 63.796564 
L 147.565088 260.21273 
L 147.890068 164.382981 
L 148.215047 256.336198 
L 148.540027 71.367189 
L 149.189986 245.814334 
L 149.514965 238.42159 
L 149.839945 181.252576 
L 150.164924 64.767705 
L 150.489904 116.516085 
L 150.814883 79.961175 
L 151.139863 184.820484 
L 151.464842 252.45334 
L 151.789822 57.636349 
L 152.114801 257.901897 
L 152.439781 63.215733 
L 152.76476 184.355826 
L 153.08974 259.383802 
L 153.414719 117.301108 
L 153.739699 56.334366 
L 154.064679 59.454978 
L 154.389658 227.821824 
L 154.714638 223.57215 
L 155.039617 143.166049 
L 155.364597 128.150304 
L 155.689576 106.784951 
L 156.014556 223.613462 
L 156.339535 60.83981 
L 156.664515 127.850175 
L 156.989494 84.26549 
L 157.314474 148.495864 
L 157.639453 174.814955 
L 157.964433 57.036842 
L 158.289412 139.696464 
L 158.614392 80.117112 
L 158.939371 62.035508 
L 159.264351 120.189058 
L 159.58933 146.639354 
L 159.91431 260.760457 
L 160.23929 253.12164 
L 160.564269 219.470484 
L 160.889249 222.576074 
L 161.539208 197.692874 
L 162.189167 173.504985 
L 162.514146 240.809012 
L 162.839126 252.631557 
L 163.164105 120.484113 
L 163.814064 168.56574 
L 164.464023 88.317799 
L 164.789003 172.007882 
L 165.113982 127.352159 
L 165.438962 61.976959 
L 165.763941 85.8185 
L 166.088921 172.361923 
L 166.4139 126.599472 
L 166.73888 224.446089 
L 167.388839 56.169494 
L 167.713819 153.046792 
L 168.038798 67.403173 
L 168.363778 176.26743 
L 168.688757 52.504469 
L 169.338716 252.651003 
L 169.663696 138.727002 
L 170.313655 254.6989 
L 170.638634 89.746039 
L 170.963614 203.803502 
L 171.288593 94.831378 
L 171.613573 201.190621 
L 171.938552 220.835696 
L 172.263532 57.716289 
L 172.588511 185.827167 
L 172.913491 135.66773 
L 173.238471 133.867228 
L 173.56345 144.225901 
L 173.88843 70.111173 
L 174.538389 177.021067 
L 174.863368 81.057234 
L 175.188348 223.610839 
L 175.838307 62.609228 
L 176.163286 130.641674 
L 176.488266 90.558876 
L 176.813245 124.749046 
L 177.138225 85.871569 
L 177.463204 63.877697 
L 177.788184 204.391008 
L 178.113163 225.996467 
L 178.763122 114.642771 
L 179.088102 213.959299 
L 179.413081 260.636885 
L 179.738061 189.741947 
L 180.063041 58.778402 
L 181.037979 221.201906 
L 181.362959 186.989589 
L 181.687938 225.95915 
L 182.012918 239.252432 
L 182.337897 71.775275 
L 182.662877 52.754395 
L 182.987856 227.157004 
L 183.312836 250.087162 
L 183.637815 192.504652 
L 183.962795 164.901042 
L 184.287774 218.639826 
L 184.612754 198.427222 
L 184.937733 219.4664 
L 185.262713 99.494743 
L 185.912672 128.642693 
L 186.237652 180.476569 
L 186.562631 71.29434 
L 186.887611 58.637545 
L 187.21259 225.164093 
L 187.53757 214.833599 
L 187.862549 151.516067 
L 188.187529 242.402477 
L 188.512508 170.175951 
L 188.837488 139.765533 
L 189.162467 152.260402 
L 189.487447 192.258286 
L 189.812426 147.997873 
L 190.137406 60.882939 
L 190.462385 218.389551 
L 190.787365 124.483188 
L 191.112344 252.415052 
L 191.437324 247.598585 
L 191.762303 146.034768 
L 192.087283 239.538377 
L 192.412262 256.819371 
L 192.737242 225.608986 
L 193.062222 143.310366 
L 193.387201 114.333415 
L 193.712181 219.129991 
L 194.03716 121.673601 
L 194.36214 223.315103 
L 194.687119 133.13995 
L 195.012099 175.299781 
L 195.337078 124.699084 
L 195.662058 53.297893 
L 195.987037 65.273467 
L 196.312017 260.599159 
L 196.636996 76.232677 
L 196.961976 247.58302 
L 197.286955 62.086939 
L 197.611935 202.528014 
L 197.936914 181.561025 
L 198.261894 242.321371 
L 198.586873 238.003956 
L 198.911853 109.437462 
L 199.236833 63.910262 
L 199.561812 133.706746 
L 199.886792 111.716116 
L 200.211771 102.06638 
L 200.536751 206.505813 
L 200.86173 252.031542 
L 201.18671 261.103202 
L 201.511689 188.127895 
L 201.836669 210.972932 
L 202.161648 248.456161 
L 202.486628 223.931928 
L 202.811607 235.445853 
L 203.136587 70.072959 
L 203.461566 232.146613 
L 203.786546 149.001631 
L 204.111525 137.398135 
L 204.436505 147.779507 
L 204.761484 240.769238 
L 205.086464 194.792135 
L 205.411443 250.767632 
L 205.736423 178.708126 
L 206.061403 222.034058 
L 206.386382 143.98339 
L 206.711362 116.537167 
L 207.036341 150.158394 
L 207.361321 170.63871 
L 207.6863 180.452389 
L 208.01128 85.38596 
L 208.336259 215.596162 
L 208.661239 107.87287 
L 208.986218 103.005293 
L 209.311198 173.784871 
L 209.636177 199.290161 
L 209.961157 163.042577 
L 210.286136 241.991679 
L 210.611116 251.884995 
L 211.261075 222.338261 
L 211.911034 83.828254 
L 212.236014 212.19106 
L 212.560993 65.828969 
L 212.885973 61.69749 
L 213.210952 60.861252 
L 213.535932 86.249887 
L 213.860911 185.371101 
L 214.185891 246.287221 
L 214.51087 142.479805 
L 214.83585 144.600853 
L 215.160829 83.652681 
L 215.485809 53.101571 
L 215.810788 155.172133 
L 216.785727 260.490762 
L 217.110706 154.972026 
L 217.435686 145.262608 
L 217.760665 88.891289 
L 218.085645 155.921256 
L 218.410624 69.740287 
L 218.735604 130.079708 
L 219.060584 85.669581 
L 219.385563 230.465532 
L 219.710543 82.53112 
L 220.035522 120.233159 
L 220.360502 225.876796 
L 220.685481 221.79038 
L 221.010461 67.641212 
L 221.33544 254.754547 
L 221.66042 164.717804 
L 221.985399 195.905894 
L 222.310379 122.339377 
L 222.635358 85.817477 
L 222.960338 186.092308 
L 223.285317 172.173347 
L 223.610297 56.046153 
L 223.935276 97.474409 
L 224.260256 73.770983 
L 224.585235 169.691825 
L 224.910215 212.518745 
L 225.235195 175.319912 
L 225.560174 111.665502 
L 225.885154 238.598668 
L 226.210133 204.904175 
L 226.535113 251.737305 
L 227.185072 88.36669 
L 227.510051 256.334601 
L 227.835031 120.195565 
L 228.16001 66.386811 
L 228.48499 211.922086 
L 228.809969 116.364248 
L 229.134949 57.472255 
L 229.459928 60.155417 
L 229.784908 212.340272 
L 230.109887 240.502546 
L 230.434867 230.469548 
L 230.759846 114.606523 
L 231.084826 109.642863 
L 231.409805 120.422994 
L 231.734785 191.176596 
L 232.059765 225.972226 
L 232.384744 139.981078 
L 232.709724 160.293482 
L 233.034703 108.999417 
L 233.359683 169.148269 
L 233.684662 190.640688 
L 234.009642 200.089851 
L 234.334621 217.248625 
L 234.659601 205.892323 
L 234.98458 241.653452 
L 235.30956 188.92136 
L 235.634539 253.843456 
L 235.959519 222.491248 
L 236.284498 105.246564 
L 236.609478 193.396425 
L 236.934457 121.678292 
L 237.259437 111.499736 
L 237.584416 139.892311 
L 237.909396 60.904535 
L 238.234376 257.009128 
L 238.559355 106.945069 
L 238.884335 60.885934 
L 239.209314 81.079968 
L 239.534294 226.366471 
L 239.859273 193.113686 
L 240.184253 225.41255 
L 240.509232 135.681926 
L 240.834212 112.482332 
L 241.159191 195.152976 
L 241.80915 116.932161 
L 242.13413 173.337154 
L 242.459109 82.807432 
L 242.784089 100.061895 
L 243.109068 247.964922 
L 243.434048 131.535584 
L 243.759027 212.257341 
L 244.408986 61.283099 
L 244.733966 77.566901 
L 245.058946 176.857155 
L 245.383925 200.500934 
L 245.708905 212.449794 
L 246.033884 150.075745 
L 246.358864 237.590577 
L 246.683843 146.568983 
L 247.008823 261.216 
L 247.333802 193.735247 
L 247.658782 215.477685 
L 247.983761 58.284728 
L 248.308741 109.332478 
L 248.9587 242.068852 
L 249.283679 153.363678 
L 249.608659 216.834856 
L 250.258618 86.710278 
L 250.583597 132.651366 
L 250.908577 128.88605 
L 251.233557 148.294044 
L 251.558536 67.481146 
L 251.883516 66.510926 
L 252.208495 154.216801 
L 252.533475 197.520289 
L 252.858454 165.334608 
L 253.183434 222.461105 
L 253.508413 128.351274 
L 253.833393 156.859585 
L 254.158372 239.881247 
L 254.483352 220.140746 
L 254.808331 161.140557 
L 255.133311 75.78278 
L 255.45829 142.987824 
L 255.78327 118.895925 
L 256.108249 190.559327 
L 256.433229 141.937337 
L 256.758208 167.888744 
L 257.083188 123.583792 
L 257.408167 250.913 
L 257.733147 158.280716 
L 258.058127 199.563831 
L 258.383106 193.246599 
L 258.708086 60.440104 
L 259.033065 223.26939 
L 259.358045 196.372489 
L 259.683024 154.809059 
L 260.008004 80.921952 
L 260.332983 174.314213 
L 260.657963 105.854418 
L 260.982942 82.313943 
L 261.307922 196.629614 
L 261.632901 179.319028 
L 261.957881 186.891972 
L 262.28286 87.234728 
L 262.60784 252.216246 
L 262.932819 196.963396 
L 263.257799 119.340845 
L 263.907758 170.209227 
L 264.232738 148.520447 
L 264.557717 220.153969 
L 264.882697 171.375224 
L 265.207676 156.522586 
L 265.532656 72.937194 
L 265.857635 206.919907 
L 266.182615 79.917312 
L 266.507594 126.698949 
L 266.832574 257.239082 
L 267.157553 109.87878 
L 267.482533 254.05644 
L 267.807512 52.810722 
L 268.132492 78.911285 
L 268.457471 199.281133 
L 268.782451 207.636304 
L 269.10743 181.685257 
L 269.43241 186.973417 
L 269.757389 183.589953 
L 270.082369 194.901316 
L 270.407348 131.533887 
L 270.732328 227.125781 
L 271.057308 84.488454 
L 271.382287 91.514224 
L 271.707267 161.799377 
L 272.032246 83.076413 
L 272.357226 209.784316 
L 272.682205 257.81978 
L 273.007185 131.93676 
L 273.332164 165.685615 
L 273.657144 142.825914 
L 273.982123 73.324214 
L 274.307103 58.55531 
L 274.632082 128.746969 
L 274.957062 101.629954 
L 275.282041 243.959612 
L 275.607021 227.868154 
L 275.932 108.084934 
L 276.25698 171.239466 
L 276.581959 168.184714 
L 276.906939 196.924354 
L 277.231919 134.416485 
L 277.556898 222.752537 
L 277.881878 130.323924 
L 278.206857 225.130711 
L 278.531837 248.140574 
L 278.856816 192.373551 
L 279.181796 213.133022 
L 279.506775 75.489301 
L 279.831755 249.997004 
L 280.156734 224.541756 
L 280.481714 146.685191 
L 280.806693 160.84026 
L 281.131673 251.901318 
L 281.456652 259.977598 
L 281.781632 54.759341 
L 282.431591 185.040286 
L 282.75657 163.065433 
L 283.08155 205.724153 
L 283.406529 189.336316 
L 284.056489 76.782323 
L 284.381468 222.969098 
L 284.706448 85.664294 
L 285.031427 236.061471 
L 285.356407 216.511729 
L 285.681386 253.71677 
L 286.006366 232.032655 
L 286.331345 69.56562 
L 286.981304 245.244836 
L 287.306284 60.689215 
L 287.631263 77.581484 
L 287.956243 103.591103 
L 288.281222 66.182408 
L 288.606202 215.436862 
L 288.931181 86.499594 
L 289.256161 117.126616 
L 289.58114 79.513338 
L 289.90612 94.755424 
L 290.2311 188.997092 
L 290.556079 99.465876 
L 290.881059 206.580712 
L 291.206038 192.742956 
L 291.531018 238.917682 
L 291.855997 65.846837 
L 292.180977 200.607746 
L 292.505956 152.56402 
L 292.830936 179.615582 
L 293.155915 60.6471 
L 293.480895 191.391942 
L 293.805874 98.59813 
L 294.130854 82.514376 
L 294.455833 170.352104 
L 294.780813 182.369293 
L 295.105792 105.042484 
L 295.430772 70.487741 
L 295.755751 103.53896 
L 296.080731 213.972875 
L 296.40571 75.632393 
L 296.73069 180.400448 
L 297.05567 140.929252 
L 297.380649 87.531878 
L 297.705629 222.076775 
L 298.030608 97.350203 
L 298.355588 136.758544 
L 298.680567 74.57914 
L 299.005547 225.513283 
L 299.330526 173.474741 
L 299.655506 87.237389 
L 299.980485 257.471147 
L 300.305465 238.018894 
L 300.630444 54.236832 
L 300.955424 202.82753 
L 301.280403 57.379923 
L 301.605383 223.30355 
L 301.930362 185.94243 
L 302.255342 103.970457 
L 302.905301 139.905481 
L 303.230281 150.623033 
L 303.55526 85.020081 
L 303.88024 212.336219 
L 304.205219 168.915844 
L 304.530199 228.969404 
L 304.855178 136.804827 
L 305.180158 209.073062 
L 305.505137 191.644507 
L 305.830117 162.894183 
L 306.155096 255.89377 
L 306.480076 242.258657 
L 306.805055 117.976512 
L 307.130035 171.740677 
L 307.455014 80.553018 
L 307.779994 116.14724 
L 308.104973 259.800062 
L 308.429953 132.458919 
L 308.754932 241.884774 
L 309.079912 98.098618 
L 309.404891 54.039635 
L 309.729871 150.35111 
L 310.054851 118.635535 
L 310.37983 211.84126 
L 310.70481 169.935471 
L 311.029789 82.37227 
L 311.354769 226.464757 
L 311.679748 205.936423 
L 312.004728 168.295941 
L 312.329707 112.469587 
L 312.654687 182.847987 
L 312.979666 67.383509 
L 313.304646 241.731577 
L 313.954605 113.158959 
L 314.279584 214.211316 
L 314.604564 124.15223 
L 314.929543 227.135553 
L 315.254523 249.782158 
L 315.579502 236.174647 
L 315.904482 66.912212 
L 316.229462 146.05095 
L 316.554441 94.873805 
L 316.879421 191.892984 
L 317.2044 137.491726 
L 317.52938 157.935082 
L 317.854359 63.61614 
L 318.179339 105.078302 
L 318.504318 108.641947 
L 318.829298 251.796441 
L 319.154277 146.486407 
L 319.479257 163.785358 
L 319.804236 67.360496 
L 320.129216 207.650792 
L 320.454195 205.037174 
L 320.779175 175.428131 
L 321.429134 234.465596 
L 321.754113 82.096185 
L 322.079093 144.685575 
L 322.404072 81.270163 
L 322.729052 87.594826 
L 323.054032 202.482678 
L 323.379011 146.890691 
L 323.703991 244.083212 
L 324.02897 69.99481 
L 324.35395 176.910235 
L 324.678929 179.125278 
L 325.003909 198.148847 
L 325.328888 165.109319 
L 325.653868 208.818852 
L 325.978847 183.063848 
L 326.303827 94.120303 
L 326.628806 86.941867 
L 326.953786 197.85025 
L 327.278765 163.362086 
L 327.603745 78.663744 
L 327.928724 250.47408 
L 328.253704 75.457221 
L 328.578683 215.634602 
L 328.903663 119.522733 
L 329.228643 139.606426 
L 329.553622 145.801992 
L 329.878602 81.689149 
L 330.203581 240.24287 
L 331.17852 91.747231 
L 331.503499 216.208163 
L 331.828479 93.496206 
L 332.153458 177.877773 
L 332.478438 221.968165 
L 332.803417 102.690584 
L 333.128397 242.476057 
L 333.453376 153.789094 
L 333.778356 248.130165 
L 334.428315 135.730377 
L 334.753294 145.137723 
L 335.078274 176.828068 
L 335.403253 171.724354 
L 335.728233 214.047532 
L 336.053213 166.109691 
L 336.378192 62.043362 
L 336.703172 83.552845 
L 337.028151 231.107637 
L 337.353131 255.263939 
L 337.67811 66.171629 
L 338.00309 151.281994 
L 338.328069 148.962011 
L 338.653049 98.143641 
L 338.978028 195.651952 
L 339.303008 160.664425 
L 339.627987 58.819499 
L 339.952967 120.859844 
L 340.277946 229.326618 
L 340.602926 233.619705 
L 340.927905 218.756261 
L 341.252885 101.074216 
L 341.577864 199.692639 
L 341.902844 257.019803 
L 342.227824 63.943294 
L 342.552803 225.985517 
L 342.877783 259.495159 
L 343.202762 211.879457 
L 343.527742 212.319434 
L 343.852721 173.197923 
L 344.177701 68.919786 
L 344.50268 77.541184 
L 344.82766 165.897955 
L 345.152639 175.52152 
L 345.477619 145.369229 
L 345.802598 210.556605 
L 346.127578 250.576256 
L 346.452557 64.979042 
L 346.777537 222.431588 
L 347.102516 219.983205 
L 347.427496 162.641093 
L 347.752475 158.633664 
L 348.077455 257.638009 
L 348.402434 230.538134 
L 349.052394 118.436515 
L 349.377373 213.702528 
L 350.027332 144.880467 
L 350.352312 75.572815 
L 350.677291 193.270569 
L 351.002271 233.550341 
L 351.65223 105.256784 
L 351.977209 238.508834 
L 352.302189 172.637549 
L 352.627168 257.773815 
L 352.952148 254.473377 
L 353.277127 160.445612 
L 353.602107 199.102543 
L 353.927086 84.671321 
L 354.252066 135.504928 
L 354.577045 166.517616 
L 354.902025 176.141796 
L 355.227005 157.455239 
L 355.551984 253.033932 
L 355.876964 74.693859 
L 356.201943 52.617804 
L 356.526923 223.522077 
L 356.851902 236.307039 
L 357.176882 231.454002 
L 357.501861 123.186848 
L 357.826841 123.100272 
L 358.15182 84.081942 
L 358.4768 104.188698 
L 358.801779 167.405449 
L 359.126759 133.265921 
L 359.451738 117.483676 
L 359.776718 154.214024 
L 360.101697 161.973505 
L 360.426677 126.519837 
L 360.751656 144.853375 
L 361.076636 126.76153 
L 361.401615 133.266044 
L 361.726595 111.015911 
L 362.051575 126.999803 
L 362.376554 152.74814 
L 362.701534 118.841145 
L 363.676472 261.198303 
L 364.001452 144.33247 
L 364.326431 137.910906 
L 364.651411 58.111028 
L 364.97639 185.862108 
L 365.30137 179.029647 
L 365.951329 246.73699 
L 366.276308 99.799401 
L 366.601288 209.253704 
L 366.926267 134.092494 
L 367.251247 117.590726 
L 367.576226 162.897118 
L 367.901206 78.133898 
L 368.226186 168.638838 
L 368.551165 201.882962 
L 368.876145 74.019678 
L 369.201124 81.227989 
L 369.526104 227.17259 
L 369.851083 256.063158 
L 370.176063 242.667158 
L 370.501042 201.540078 
L 370.826022 58.066914 
L 371.151001 144.635437 
L 371.475981 183.396641 
L 371.80096 75.546954 
L 372.12594 166.684297 
L 372.450919 195.536946 
L 372.775899 64.561541 
L 373.100878 83.74853 
L 373.425858 84.97239 
L 373.750837 154.30854 
L 374.075817 96.319052 
L 374.400796 223.96853 
L 375.050756 55.642724 
L 375.375735 200.617147 
L 375.700715 95.290899 
L 376.025694 158.871129 
L 376.350674 253.166407 
L 376.675653 101.846759 
L 377.000633 226.224936 
L 377.325612 129.370392 
L 377.650592 243.571327 
L 377.975571 63.379825 
L 378.300551 200.456989 
L 378.62553 214.111319 
L 378.95051 234.475537 
L 379.275489 63.560853 
L 379.600469 112.541804 
L 379.925448 106.315648 
L 380.250428 157.00349 
L 380.575407 162.166668 
L 380.900387 238.475046 
L 381.225367 144.358217 
L 381.550346 209.832141 
L 381.875326 57.044703 
L 382.200305 94.824601 
L 382.850264 229.829565 
L 383.175244 97.178307 
L 383.500223 235.957454 
L 383.825203 221.880309 
L 384.150182 217.238122 
L 384.800141 96.817389 
L 385.125121 195.730225 
L 385.4501 243.779383 
L 386.100059 104.966236 
L 386.425039 215.115811 
L 386.750018 215.479728 
L 387.074998 63.304578 
L 387.399977 61.855289 
L 387.724957 54.257646 
L 388.049937 92.506588 
L 388.374916 222.120839 
L 388.699896 217.141665 
L 389.024875 190.308941 
L 389.349855 194.931448 
L 389.674834 61.358567 
L 389.999814 96.395299 
L 390.324793 110.009037 
L 390.649773 222.585533 
L 390.649773 222.585533 
" style="fill:none;stroke:#1f77b4;stroke-linecap:round;stroke-width:1.5;"/>
   </g>
   <g id="line2d_13">
    <path clip-path="url(#pf05ee21b10)" d="M 65.995227 171.258789 
L 66.320207 95.104538 
L 66.645186 52.347571 
L 66.970166 52.766663 
L 67.945104 129.761777 
L 68.270084 131.021334 
L 68.595063 131.528861 
L 68.920043 145.451901 
L 69.245023 154.248049 
L 69.570002 150.46578 
L 69.894982 156.89462 
L 70.86992 221.409521 
L 71.1949 214.976732 
L 71.519879 180.897825 
L 71.844859 131.439002 
L 72.169838 99.463128 
L 72.494818 100.571613 
L 72.819797 126.74947 
L 73.469756 190.22354 
L 73.794736 186.238381 
L 74.444695 138.592869 
L 74.769674 122.723366 
L 75.094654 114.99255 
L 75.419633 111.544692 
L 75.744613 110.636183 
L 76.069593 123.45835 
L 76.394572 146.710024 
L 76.719552 153.633718 
L 77.044531 145.841037 
L 77.369511 153.420524 
L 77.69449 175.264226 
L 78.01947 186.414131 
L 78.344449 185.760963 
L 78.669429 180.233029 
L 78.994408 159.109043 
L 79.319388 127.406331 
L 79.644367 111.973113 
L 79.969347 114.092287 
L 80.294326 121.208881 
L 80.619306 144.380627 
L 80.944285 179.557855 
L 81.269265 190.160436 
L 81.919224 153.223025 
L 82.244204 144.576416 
L 82.569183 139.443158 
L 82.894163 153.522043 
L 83.219142 186.549142 
L 83.544122 204.358762 
L 83.869101 180.783375 
L 84.194081 133.85439 
L 84.51906 104.300242 
L 84.84404 98.754368 
L 85.169019 99.144223 
L 85.493999 106.57118 
L 87.118896 190.20186 
L 87.443876 185.879646 
L 88.093835 130.3344 
L 88.418814 129.948023 
L 88.743794 159.544732 
L 89.068774 177.95613 
L 89.393753 168.794989 
L 89.718733 154.297733 
L 90.043712 150.930678 
L 90.368692 163.988494 
L 91.018651 238.514773 
L 91.34363 243.976636 
L 91.66861 193.358527 
L 91.993589 121.823457 
L 92.318569 91.538008 
L 92.643548 118.375156 
L 92.968528 163.020841 
L 93.293507 188.903519 
L 93.618487 188.805525 
L 93.943466 165.948886 
L 94.268446 132.280191 
L 94.593425 115.932469 
L 94.918405 130.586721 
L 95.568364 189.685162 
L 95.893344 204.911913 
L 96.218323 206.04559 
L 96.868282 194.40437 
L 97.193262 186.931529 
L 97.518241 174.671967 
L 98.1682 117.235212 
L 98.49318 114.858458 
L 99.143139 182.918033 
L 99.468118 166.64129 
L 99.793098 130.967177 
L 100.118077 128.397137 
L 100.768036 193.331832 
L 101.093016 185.860871 
L 101.742975 104.422402 
L 102.067955 114.271016 
L 102.717914 192.369615 
L 103.042893 184.763138 
L 103.367873 150.7719 
L 103.692852 128.425717 
L 104.017832 144.285916 
L 104.342811 172.257698 
L 104.667791 168.793147 
L 104.99277 142.199598 
L 105.31775 138.140218 
L 105.642729 165.637525 
L 105.967709 183.102758 
L 106.292688 163.138252 
L 106.617668 135.208504 
L 106.942647 134.670654 
L 107.267627 146.552002 
L 107.592606 147.612093 
L 107.917586 154.041797 
L 108.242566 177.504223 
L 108.567545 188.510439 
L 108.892525 164.224928 
L 109.217504 125.081482 
L 109.542484 107.047134 
L 109.867463 128.35751 
L 110.192443 167.655867 
L 110.517422 179.427127 
L 111.167381 137.124175 
L 111.492361 135.025801 
L 111.81734 148.388283 
L 112.14232 167.254072 
L 112.467299 166.79259 
L 113.117258 120.480737 
L 113.442238 138.355973 
L 114.092197 231.096192 
L 114.417176 245.591301 
L 114.742156 218.984229 
L 115.392115 115.6732 
L 115.717095 105.448453 
L 116.367054 164.312992 
L 116.692033 168.853677 
L 117.017013 166.438291 
L 117.341992 184.376728 
L 117.666972 195.722659 
L 118.316931 128.695656 
L 118.64191 129.704157 
L 119.291869 186.676051 
L 119.616849 203.621355 
L 119.941828 191.282233 
L 120.591787 120.541691 
L 120.916767 124.700489 
L 121.241747 131.495013 
L 121.891706 110.008202 
L 122.541665 103.116376 
L 122.866644 101.552921 
L 123.191624 119.214435 
L 123.516603 145.423633 
L 123.841583 156.467929 
L 124.166562 160.39469 
L 124.816521 190.569416 
L 125.141501 192.520927 
L 125.79146 160.52713 
L 126.116439 161.05392 
L 126.766398 143.053223 
L 127.091378 155.640108 
L 127.416357 177.362225 
L 127.741337 178.665015 
L 128.716276 123.004955 
L 129.041255 125.278761 
L 129.366235 136.406171 
L 129.691214 151.381557 
L 130.016194 153.521248 
L 130.341173 137.586856 
L 130.666153 133.618744 
L 130.991132 165.892874 
L 131.316112 210.820868 
L 131.641091 228.372651 
L 131.966071 212.154347 
L 132.29105 187.023372 
L 132.61603 174.337846 
L 132.941009 172.245806 
L 133.265989 173.088973 
L 133.915948 181.591551 
L 134.240928 174.831385 
L 134.565907 164.377249 
L 134.890887 164.071718 
L 135.215866 166.587363 
L 135.865825 130.951592 
L 136.190805 140.71936 
L 136.515784 164.000335 
L 136.840764 155.999964 
L 137.490723 79.453374 
L 137.815702 82.230857 
L 138.140682 112.534724 
L 138.790641 192.029824 
L 139.11562 196.824295 
L 139.4406 184.557428 
L 139.765579 195.458471 
L 140.090559 215.780772 
L 140.415538 203.794969 
L 141.065498 135.905794 
L 141.390477 143.960083 
L 141.715457 157.067772 
L 142.040436 140.337727 
L 142.365416 111.222906 
L 142.690395 101.596943 
L 143.015375 102.895939 
L 143.340354 108.990394 
L 143.665334 145.681431 
L 143.990313 204.936694 
L 144.315293 232.100981 
L 144.965252 176.496392 
L 145.290231 173.17344 
L 145.615211 182.985481 
L 145.94019 174.89815 
L 146.590149 112.032254 
L 146.915129 97.661258 
L 147.240109 125.113314 
L 147.565088 178.373135 
L 147.890068 203.790424 
L 148.540027 150.505879 
L 148.865006 166.398589 
L 149.189986 210.988286 
L 149.514965 219.645993 
L 150.489904 89.291265 
L 150.814883 120.042449 
L 151.139863 166.875783 
L 151.464842 184.543893 
L 152.114801 152.163776 
L 152.439781 158.185881 
L 152.76476 183.100529 
L 153.08974 183.942383 
L 153.739699 90.448113 
L 154.064679 110.900423 
L 154.389658 171.703072 
L 154.714638 198.784786 
L 155.364597 144.943939 
L 155.689576 141.477295 
L 156.014556 141.465213 
L 156.664515 109.49265 
L 156.989494 118.058148 
L 157.314474 137.294996 
L 157.639453 140.204714 
L 158.614392 85.163504 
L 158.939371 84.239077 
L 159.264351 116.231718 
L 159.91431 231.936717 
L 160.23929 253.818992 
L 160.564269 244.109384 
L 161.214228 209.200261 
L 161.539208 196.256268 
L 161.864187 193.640696 
L 162.514146 225.747398 
L 162.839126 214.825673 
L 163.489085 155.432813 
L 164.139044 138.316875 
L 164.789003 136.381798 
L 165.438962 99.878633 
L 165.763941 107.918296 
L 166.4139 177.332319 
L 166.73888 181.542298 
L 167.388839 120.643493 
L 167.713819 111.19757 
L 168.038798 115.485367 
L 168.363778 117.2473 
L 168.688757 125.875455 
L 169.663696 209.289814 
L 169.988675 212.895912 
L 170.313655 199.749997 
L 170.638634 173.010297 
L 170.963614 156.411487 
L 171.288593 164.2518 
L 171.613573 179.556921 
L 171.938552 174.905615 
L 172.263532 155.906267 
L 172.588511 148.732736 
L 172.913491 151.053549 
L 173.238471 144.216325 
L 173.56345 126.822164 
L 173.88843 115.554249 
L 174.213409 123.260376 
L 174.863368 161.485391 
L 175.188348 167.378432 
L 175.513327 148.225859 
L 175.838307 119.676897 
L 176.163286 107.420635 
L 176.488266 106.516645 
L 176.813245 100.034156 
L 177.138225 97.100889 
L 177.463204 123.373594 
L 177.788184 169.908605 
L 178.113163 190.498047 
L 178.438143 176.072213 
L 178.763122 173.785014 
L 179.088102 202.68632 
L 179.413081 214.089459 
L 180.063041 119.002495 
L 180.38802 114.801446 
L 181.037979 200.667447 
L 181.362959 223.179072 
L 181.687938 215.76477 
L 182.337897 113.978209 
L 182.662877 112.591808 
L 183.312836 209.868768 
L 183.637815 206.631954 
L 183.962795 192.307374 
L 184.287774 194.546446 
L 184.612754 195.223942 
L 184.937733 170.159245 
L 185.262713 132.23992 
L 185.587692 114.888704 
L 185.912672 118.570825 
L 186.237652 111.635386 
L 186.562631 94.801412 
L 186.887611 107.969653 
L 187.53757 189.389966 
L 187.862549 196.235972 
L 188.187529 185.708545 
L 188.837488 149.541455 
L 189.162467 147.903208 
L 189.487447 143.935214 
L 189.812426 125.670418 
L 190.137406 116.058344 
L 190.462385 135.443971 
L 191.112344 200.026841 
L 191.437324 203.778425 
L 191.762303 200.137872 
L 192.412262 219.764446 
L 192.737242 194.298425 
L 193.062222 152.584439 
L 193.387201 133.90318 
L 193.712181 143.504973 
L 194.03716 158.929433 
L 194.36214 165.253692 
L 194.687119 157.343801 
L 195.012099 131.08975 
L 195.337078 92.344334 
L 195.662058 72.040134 
L 195.987037 95.837952 
L 196.312017 137.220757 
L 196.636996 152.902349 
L 197.286955 130.958472 
L 197.611935 149.891186 
L 197.936914 189.474319 
L 198.261894 211.013325 
L 198.586873 183.870069 
L 199.236833 81.194327 
L 199.561812 74.314425 
L 199.886792 89.846391 
L 200.211771 125.099228 
L 200.86173 219.927782 
L 201.18671 223.679194 
L 201.511689 207.346563 
L 201.836669 204.446605 
L 202.161648 214.34605 
L 202.486628 208.362794 
L 203.136587 150.938779 
L 203.461566 143.048901 
L 203.786546 139.147139 
L 204.111525 137.353807 
L 204.436505 155.097575 
L 205.086464 209.119652 
L 205.411443 212.19257 
L 205.736423 199.138522 
L 206.711362 125.863466 
L 207.036341 134.052546 
L 207.361321 147.927991 
L 207.6863 148.893294 
L 208.336259 134.354271 
L 208.661239 123.324422 
L 208.986218 123.762005 
L 209.636177 170.685517 
L 210.611116 242.818161 
L 210.936095 236.091364 
L 211.911034 139.297216 
L 212.236014 125.198997 
L 212.885973 61.49741 
L 213.210952 62.892155 
L 214.185891 205.488351 
L 214.51087 180.996697 
L 215.160829 86.750671 
L 215.485809 88.341199 
L 216.460747 233.955435 
L 216.785727 228.689353 
L 217.760665 119.820184 
L 218.085645 111.577081 
L 218.410624 109.052071 
L 218.735604 117.258865 
L 219.060584 135.90495 
L 219.385563 145.795533 
L 219.710543 144.807114 
L 220.035522 158.216532 
L 220.360502 181.741855 
L 220.685481 185.451433 
L 221.010461 179.570508 
L 221.33544 187.518844 
L 221.66042 191.481549 
L 222.310379 141.642052 
L 222.635358 137.428045 
L 222.960338 149.727026 
L 223.285317 139.428723 
L 223.610297 103.759637 
L 223.935276 84.662955 
L 224.260256 108.753644 
L 224.585235 155.618577 
L 224.910215 181.953226 
L 225.235195 176.420952 
L 225.560174 174.412112 
L 226.210133 222.117581 
L 226.535113 213.812332 
L 226.860092 182.526293 
L 227.185072 162.456507 
L 227.510051 156.187748 
L 228.16001 136.869841 
L 228.48499 132.122077 
L 229.134949 80.839579 
L 229.459928 105.530926 
L 230.109887 222.58607 
L 230.434867 202.791186 
L 230.759846 145.186442 
L 231.084826 112.274773 
L 231.409805 131.24186 
L 231.734785 172.480488 
L 232.059765 188.724053 
L 232.384744 168.107254 
L 232.709724 139.089237 
L 233.034703 131.929531 
L 233.359683 151.212921 
L 234.009642 199.166592 
L 234.334621 208.316394 
L 235.30956 222.02743 
L 235.634539 218.346292 
L 236.934457 125.75409 
L 237.259437 112.908684 
L 237.584416 115.651671 
L 237.909396 137.09155 
L 238.234376 147.320443 
L 238.884335 89.907972 
L 239.209314 111.160602 
L 239.534294 169.107264 
L 239.859273 204.918455 
L 240.184253 192.250977 
L 240.509232 157.976391 
L 240.834212 142.012478 
L 241.159191 147.878957 
L 241.484171 150.52992 
L 241.80915 139.268445 
L 242.13413 121.204768 
L 242.459109 113.627776 
L 242.784089 134.744375 
L 243.109068 171.324108 
L 243.434048 189.294392 
L 243.759027 172.252948 
L 244.408986 89.735336 
L 244.733966 98.793005 
L 245.383925 189.301789 
L 245.708905 197.990435 
L 246.033884 189.823835 
L 246.358864 189.175933 
L 247.008823 218.359784 
L 247.333802 207.271417 
L 247.983761 115.735498 
L 248.308741 120.440618 
L 248.9587 203.423644 
L 249.283679 204.753036 
L 249.608659 179.98186 
L 250.258618 120.124502 
L 250.583597 120.063846 
L 250.908577 125.998574 
L 251.233557 112.349838 
L 251.558536 89.738616 
L 251.883516 94.784872 
L 252.533475 176.348652 
L 252.858454 189.984068 
L 253.508413 165.602711 
L 253.833393 180.25854 
L 254.158372 206.715982 
L 254.483352 201.67757 
L 255.133311 118.573683 
L 255.45829 114.973275 
L 256.108249 155.720543 
L 256.433229 157.434732 
L 256.758208 156.036654 
L 257.083188 169.252188 
L 257.408167 189.770141 
L 257.733147 196.295489 
L 258.058127 181.147627 
L 258.383106 156.672785 
L 258.708086 150.369829 
L 259.033065 169.113521 
L 259.358045 177.815638 
L 260.332983 116.468875 
L 260.657963 113.395836 
L 260.982942 127.800092 
L 261.307922 156.746969 
L 261.632901 172.142888 
L 261.957881 167.159685 
L 262.28286 169.770892 
L 262.60784 184.215204 
L 262.932819 179.7629 
L 263.257799 154.478961 
L 263.582778 140.88328 
L 263.907758 152.332678 
L 264.232738 174.906294 
L 264.557717 187.19964 
L 264.882697 174.262113 
L 265.532656 126.379097 
L 265.857635 121.401665 
L 266.182615 128.044173 
L 266.832574 181.920404 
L 267.157553 185.133501 
L 267.807512 111.684022 
L 268.132492 111.156619 
L 268.782451 189.578743 
L 269.10743 195.294134 
L 269.757389 180.020258 
L 270.082369 176.519944 
L 270.407348 170.699407 
L 270.732328 151.900955 
L 271.057308 120.898084 
L 271.382287 100.596771 
L 271.707267 107.619417 
L 272.682205 201.176043 
L 273.007185 182.930629 
L 273.982123 78.242568 
L 274.307103 67.946004 
L 274.632082 94.411747 
L 275.282041 188.985501 
L 275.607021 189.067278 
L 275.932 161.766583 
L 276.25698 149.091737 
L 276.906939 164.843875 
L 277.231919 164.181569 
L 277.556898 164.3959 
L 277.881878 176.93996 
L 278.206857 201.591299 
L 278.531837 215.512981 
L 278.856816 198.87885 
L 279.181796 168.214193 
L 279.506775 160.356557 
L 279.831755 178.113729 
L 280.156734 186.093029 
L 280.481714 180.070657 
L 280.806693 191.389157 
L 281.131673 208.079548 
L 281.456652 184.81621 
L 281.781632 135.097366 
L 282.106611 118.263853 
L 282.75657 179.485852 
L 283.08155 189.196737 
L 283.406529 167.635065 
L 283.731509 134.443139 
L 284.056489 121.039945 
L 284.381468 133.43191 
L 284.706448 161.210882 
L 285.356407 233.532253 
L 285.681386 232.252297 
L 286.331345 160.58841 
L 286.656325 160.250568 
L 286.981304 157.297144 
L 287.631263 87.488615 
L 287.956243 89.513512 
L 288.606202 142.932635 
L 288.931181 134.528865 
L 289.256161 110.129111 
L 289.58114 100.927441 
L 289.90612 116.048357 
L 290.881059 193.660517 
L 291.206038 206.66137 
L 291.531018 190.88161 
L 291.855997 167.693456 
L 292.180977 164.198895 
L 292.505956 167.780114 
L 292.830936 157.644067 
L 293.480895 131.795804 
L 293.805874 126.037586 
L 294.130854 135.270859 
L 294.455833 156.738599 
L 294.780813 157.622835 
L 295.105792 129.477934 
L 295.430772 111.078884 
L 295.755751 126.304156 
L 296.080731 149.605805 
L 296.40571 155.992682 
L 297.05567 148.403021 
L 297.380649 152.295641 
L 297.705629 154.330861 
L 298.355588 128.909104 
L 298.680567 139.891978 
L 299.005547 161.989915 
L 299.655506 185.291122 
L 299.980485 202.44182 
L 300.305465 191.858222 
L 300.630444 154.138222 
L 300.955424 131.84369 
L 301.280403 144.664227 
L 301.605383 169.142702 
L 301.930362 169.589717 
L 302.580321 128.705658 
L 302.905301 126.877131 
L 303.230281 130.098716 
L 303.55526 143.012729 
L 304.205219 191.038232 
L 304.530199 192.590366 
L 304.855178 183.400615 
L 305.180158 179.392541 
L 305.505137 186.479674 
L 306.155096 223.01003 
L 306.480076 210.176188 
L 307.130035 123.528194 
L 307.455014 112.58315 
L 307.779994 142.230805 
L 308.104973 184.283115 
L 308.429953 198.138191 
L 308.754932 169.662796 
L 309.079912 119.88654 
L 309.404891 92.234327 
L 309.729871 109.012553 
L 310.054851 145.797488 
L 310.37983 164.374172 
L 310.70481 157.504244 
L 311.029789 156.382063 
L 311.354769 176.762266 
L 311.679748 187.741195 
L 312.004728 168.32898 
L 312.329707 139.968267 
L 312.654687 129.843916 
L 312.979666 145.881149 
L 313.304646 170.150075 
L 313.629625 174.227363 
L 313.954605 160.649272 
L 314.279584 156.645655 
L 314.604564 177.489263 
L 314.929543 213.756532 
L 315.254523 228.333742 
L 315.579502 193.078989 
L 315.904482 136.53908 
L 316.229462 110.652374 
L 316.554441 126.270865 
L 316.879421 151.783372 
L 317.2044 153.126993 
L 317.854359 95.409253 
L 318.179339 101.136209 
L 318.829298 180.066125 
L 319.154277 173.291795 
L 319.479257 141.901093 
L 319.804236 133.561285 
L 320.779175 208.481868 
L 321.104154 208.70587 
L 321.429134 184.87456 
L 322.079093 104.612611 
L 322.404072 94.805221 
L 322.729052 118.359494 
L 323.054032 158.912838 
L 323.379011 182.50382 
L 323.703991 172.31686 
L 324.02897 151.136552 
L 324.35395 151.699824 
L 325.003909 189.178576 
L 325.328888 195.493104 
L 325.653868 186.713611 
L 326.303827 124.204518 
L 326.628806 121.936199 
L 326.953786 141.57109 
L 327.278765 152.032098 
L 327.603745 152.912145 
L 328.253704 158.15236 
L 328.578683 154.885905 
L 328.903663 144.092383 
L 329.228643 129.498931 
L 329.553622 126.170004 
L 329.878602 147.282254 
L 330.203581 177.228622 
L 330.528561 180.177492 
L 331.17852 136.711563 
L 331.503499 137.818426 
L 332.478438 168.792867 
L 332.803417 171.28822 
L 333.128397 181.944753 
L 333.453376 198.152037 
L 333.778356 200.774076 
L 334.428315 150.258125 
L 334.753294 143.105155 
L 335.403253 182.824099 
L 335.728233 175.519737 
L 336.378192 98.798228 
L 336.703172 120.552542 
L 337.028151 171.775888 
L 337.353131 182.392993 
L 338.00309 118.707044 
L 338.328069 119.434319 
L 338.653049 134.878136 
L 338.978028 140.387215 
L 339.627987 102.111262 
L 339.952967 128.139745 
L 340.277946 182.342217 
L 340.602926 207.347234 
L 341.252885 163.390468 
L 341.577864 161.107896 
L 342.227824 158.790524 
L 342.552803 182.611482 
L 342.877783 215.944581 
L 343.202762 221.149366 
L 343.527742 188.540137 
L 344.177701 86.146066 
L 344.50268 82.907885 
L 345.477619 170.806689 
L 345.802598 180.232084 
L 346.452557 155.518661 
L 346.777537 161.154221 
L 347.102516 170.531394 
L 347.427496 170.797505 
L 347.752475 181.930544 
L 348.077455 202.312064 
L 348.402434 199.918046 
L 348.727414 173.021327 
L 349.052394 155.534789 
L 349.377373 155.735465 
L 349.702353 146.240668 
L 350.027332 124.014006 
L 350.352312 124.078415 
L 350.677291 154.490912 
L 351.002271 173.158401 
L 351.65223 148.414228 
L 351.977209 167.557042 
L 352.627168 227.391539 
L 352.952148 222.453795 
L 353.927086 116.69786 
L 354.252066 119.746626 
L 354.902025 173.605194 
L 355.227005 182.654599 
L 355.551984 156.142412 
L 355.876964 113.120016 
L 356.201943 113.446661 
L 356.851902 219.660714 
L 357.176882 208.570266 
L 357.826841 107.530359 
L 358.15182 94.4545 
L 358.801779 132.856209 
L 359.126759 139.409696 
L 359.451738 139.598306 
L 360.101697 148.592815 
L 360.426677 144.912733 
L 361.401615 127.490529 
L 361.726595 125.574918 
L 362.051575 128.087346 
L 362.376554 133.062514 
L 362.701534 147.236181 
L 363.351493 217.685089 
L 363.676472 219.991271 
L 364.326431 126.576063 
L 364.651411 115.695627 
L 364.97639 150.975073 
L 365.30137 198.827689 
L 365.626349 222.612696 
L 365.951329 211.135206 
L 366.601288 164.661949 
L 367.251247 139.610463 
L 367.576226 134.810323 
L 367.901206 144.174561 
L 368.226186 157.724353 
L 368.551165 148.371254 
L 368.876145 124.777408 
L 369.201124 139.169107 
L 369.851083 254.071123 
L 370.176063 245.889217 
L 370.826022 139.687295 
L 371.151001 130.371621 
L 372.12594 163.421477 
L 372.450919 152.676154 
L 373.100878 94.465325 
L 373.425858 103.282207 
L 374.075817 162.855045 
L 374.400796 172.069176 
L 375.050756 133.718354 
L 375.375735 134.449739 
L 376.350674 192.25434 
L 376.675653 190.572825 
L 377.325612 180.826796 
L 377.650592 168.048621 
L 377.975571 163.861076 
L 378.62553 209.202687 
L 378.95051 187.064903 
L 379.275489 133.878865 
L 379.600469 101.828253 
L 379.925448 112.425092 
L 380.575407 185.382329 
L 380.900387 201.727011 
L 381.225367 185.619721 
L 381.875326 106.46184 
L 382.200305 109.68523 
L 382.850264 166.949177 
L 383.175244 176.678921 
L 383.500223 193.652236 
L 383.825203 203.228118 
L 384.150182 179.060164 
L 384.475162 139.106971 
L 384.800141 129.032952 
L 385.125121 154.430287 
L 385.4501 169.748382 
L 386.100059 144.528868 
L 386.425039 150.332506 
L 386.750018 130.565838 
L 387.399977 19.296 
L 387.724957 19.392834 
L 388.699896 171.579686 
L 389.024875 153.8369 
L 389.674834 39.172273 
L 389.999814 19.538515 
L 390.324793 62.831152 
L 390.649773 152.558758 
L 390.649773 152.558758 
" style="fill:none;stroke:#ff7f0e;stroke-linecap:round;stroke-width:1.5;"/>
   </g>
   <g id="patch_3">
    <path d="M 49.7625 273.312 
L 49.7625 7.2 
" style="fill:none;stroke:#262626;stroke-linecap:square;stroke-linejoin:miter;stroke-width:1.25;"/>
   </g>
   <g id="patch_4">
    <path d="M 49.7625 273.312 
L 406.8825 273.312 
" style="fill:none;stroke:#262626;stroke-linecap:square;stroke-linejoin:miter;stroke-width:1.25;"/>
   </g>
   <g id="legend_1">
    <g id="line2d_14">
     <path d="M 58.7625 19.946875 
L 78.7625 19.946875 
" style="fill:none;stroke:#1f77b4;stroke-linecap:round;stroke-width:1.5;"/>
    </g>
    <g id="line2d_15"/>
    <g id="text_14">
     <!-- raw -->
     <defs>
      <path d="M 6.9375 0 
L 6.9375 40.53125 
Q 6.9375 46.09375 6.640625 52.828125 
L 14.9375 52.828125 
Q 15.328125 43.84375 15.328125 42.046875 
L 15.53125 42.046875 
Q 17.625 48.828125 20.359375 51.3125 
Q 23.09375 53.8125 28.078125 53.8125 
Q 29.828125 53.8125 31.640625 53.328125 
L 31.640625 45.265625 
Q 29.890625 45.75 26.953125 45.75 
Q 21.484375 45.75 18.59375 41.03125 
Q 15.71875 36.328125 15.71875 27.546875 
L 15.71875 0 
z
" id="LiberationSans-114"/>
      <path d="M 57.328125 0 
L 47.125 0 
L 37.890625 37.359375 
L 36.140625 45.609375 
Q 35.6875 43.40625 34.765625 39.28125 
Q 33.84375 35.15625 24.8125 0 
L 14.65625 0 
L -0.140625 52.828125 
L 8.546875 52.828125 
L 17.484375 16.9375 
Q 17.828125 15.765625 19.578125 7.28125 
L 20.40625 10.890625 
L 31.453125 52.828125 
L 40.875 52.828125 
L 50.09375 16.546875 
L 52.34375 7.28125 
L 53.859375 14.0625 
L 63.875 52.828125 
L 72.46875 52.828125 
z
" id="LiberationSans-119"/>
     </defs>
     <g style="fill:#262626;" transform="translate(86.7625 23.446875)scale(0.1 -0.1)">
      <use xlink:href="#LiberationSans-114"/>
      <use x="33.300781" xlink:href="#LiberationSans-97"/>
      <use x="88.916016" xlink:href="#LiberationSans-119"/>
     </g>
    </g>
    <g id="line2d_16">
     <path d="M 58.7625 34.26875 
L 78.7625 34.26875 
" style="fill:none;stroke:#ff7f0e;stroke-linecap:round;stroke-width:1.5;"/>
    </g>
    <g id="line2d_17"/>
    <g id="text_15">
     <!-- band-pass @ 10-200Hz -->
     <defs>
      <path d="M 51.421875 26.65625 
Q 51.421875 -0.984375 31.984375 -0.984375 
Q 25.984375 -0.984375 22 1.1875 
Q 18.015625 3.375 15.53125 8.203125 
L 15.4375 8.203125 
Q 15.4375 6.6875 15.234375 3.578125 
Q 15.046875 0.484375 14.9375 0 
L 6.453125 0 
Q 6.734375 2.640625 6.734375 10.890625 
L 6.734375 72.46875 
L 15.53125 72.46875 
L 15.53125 51.8125 
Q 15.53125 48.640625 15.328125 44.34375 
L 15.53125 44.34375 
Q 17.96875 49.421875 22 51.609375 
Q 26.03125 53.8125 31.984375 53.8125 
Q 42 53.8125 46.703125 47.0625 
Q 51.421875 40.328125 51.421875 26.65625 
z
M 42.1875 26.375 
Q 42.1875 37.453125 39.25 42.234375 
Q 36.328125 47.015625 29.734375 47.015625 
Q 22.3125 47.015625 18.921875 41.9375 
Q 15.53125 36.859375 15.53125 25.828125 
Q 15.53125 15.4375 18.84375 10.46875 
Q 22.171875 5.515625 29.640625 5.515625 
Q 36.28125 5.515625 39.234375 10.421875 
Q 42.1875 15.328125 42.1875 26.375 
z
" id="LiberationSans-98"/>
      <path d="M 40.09375 8.5 
Q 37.640625 3.421875 33.609375 1.21875 
Q 29.59375 -0.984375 23.640625 -0.984375 
Q 13.625 -0.984375 8.90625 5.75 
Q 4.203125 12.5 4.203125 26.171875 
Q 4.203125 53.8125 23.640625 53.8125 
Q 29.640625 53.8125 33.640625 51.609375 
Q 37.640625 49.421875 40.09375 44.625 
L 40.1875 44.625 
L 40.09375 50.53125 
L 40.09375 72.46875 
L 48.875 72.46875 
L 48.875 10.890625 
Q 48.875 2.640625 49.171875 0 
L 40.765625 0 
Q 40.625 0.78125 40.453125 3.609375 
Q 40.28125 6.453125 40.28125 8.5 
z
M 13.421875 26.46875 
Q 13.421875 15.375 16.34375 10.59375 
Q 19.28125 5.8125 25.875 5.8125 
Q 33.34375 5.8125 36.71875 10.984375 
Q 40.09375 16.15625 40.09375 27.046875 
Q 40.09375 37.546875 36.71875 42.421875 
Q 33.34375 47.3125 25.984375 47.3125 
Q 19.34375 47.3125 16.375 42.40625 
Q 13.421875 37.5 13.421875 26.46875 
z
" id="LiberationSans-100"/>
      <path d="M 4.4375 22.65625 
L 4.4375 30.46875 
L 28.859375 30.46875 
L 28.859375 22.65625 
z
" id="LiberationSans-45"/>
      <path d="M 51.421875 26.65625 
Q 51.421875 -0.984375 31.984375 -0.984375 
Q 19.78125 -0.984375 15.578125 8.203125 
L 15.328125 8.203125 
Q 15.53125 7.8125 15.53125 -0.09375 
L 15.53125 -20.75 
L 6.734375 -20.75 
L 6.734375 42.046875 
Q 6.734375 50.203125 6.453125 52.828125 
L 14.9375 52.828125 
Q 14.984375 52.640625 15.078125 51.4375 
Q 15.1875 50.25 15.3125 47.75 
Q 15.4375 45.265625 15.4375 44.34375 
L 15.625 44.34375 
Q 17.96875 49.21875 21.828125 51.484375 
Q 25.6875 53.765625 31.984375 53.765625 
Q 41.75 53.765625 46.578125 47.21875 
Q 51.421875 40.671875 51.421875 26.65625 
z
M 42.1875 26.46875 
Q 42.1875 37.5 39.203125 42.234375 
Q 36.234375 46.96875 29.734375 46.96875 
Q 24.515625 46.96875 21.5625 44.765625 
Q 18.609375 42.578125 17.0625 37.90625 
Q 15.53125 33.25 15.53125 25.78125 
Q 15.53125 15.375 18.84375 10.4375 
Q 22.171875 5.515625 29.640625 5.515625 
Q 36.1875 5.515625 39.1875 10.328125 
Q 42.1875 15.140625 42.1875 26.46875 
z
" id="LiberationSans-112"/>
      <path id="LiberationSans-32"/>
      <path d="M 92.875 36.859375 
Q 92.875 27.78125 90.0625 20.4375 
Q 87.25 13.09375 82.25 9.078125 
Q 77.25 5.078125 71.046875 5.078125 
Q 66.21875 5.078125 63.578125 7.21875 
Q 60.9375 9.375 60.9375 13.671875 
L 61.078125 17.09375 
L 60.796875 17.09375 
Q 57.5625 11.078125 52.796875 8.078125 
Q 48.046875 5.078125 42.53125 5.078125 
Q 34.859375 5.078125 30.640625 10.0625 
Q 26.421875 15.046875 26.421875 23.875 
Q 26.421875 31.890625 29.5625 38.765625 
Q 32.71875 45.65625 38.375 49.703125 
Q 44.046875 53.765625 50.921875 53.765625 
Q 61.625 53.765625 65.625 44.875 
L 65.921875 44.875 
L 67.828125 52.6875 
L 75.4375 52.6875 
L 69.78125 27.984375 
Q 67.96875 19.96875 67.96875 15.625 
Q 67.96875 11.03125 71.921875 11.03125 
Q 75.828125 11.03125 79.125 14.40625 
Q 82.421875 17.78125 84.328125 23.6875 
Q 86.234375 29.59375 86.234375 36.765625 
Q 86.234375 45.515625 82.46875 52.265625 
Q 78.71875 59.03125 71.625 62.671875 
Q 64.546875 66.3125 55.078125 66.3125 
Q 43.265625 66.3125 34.171875 61.078125 
Q 25.09375 55.859375 19.921875 46.015625 
Q 14.75 36.1875 14.75 23.96875 
Q 14.75 14.546875 18.578125 7.34375 
Q 22.40625 0.140625 29.65625 -3.703125 
Q 36.921875 -7.5625 46.578125 -7.5625 
Q 53.65625 -7.5625 60.9375 -5.734375 
Q 68.21875 -3.90625 76.03125 0.34375 
L 78.71875 -5.125 
Q 71.625 -9.375 63.34375 -11.59375 
Q 55.078125 -13.8125 46.578125 -13.8125 
Q 34.8125 -13.8125 26 -9.15625 
Q 17.1875 -4.5 12.515625 4.125 
Q 7.859375 12.75 7.859375 23.96875 
Q 7.859375 37.640625 13.9375 48.828125 
Q 20.015625 60.015625 30.8125 66.234375 
Q 41.609375 72.46875 54.984375 72.46875 
Q 66.75 72.46875 75.296875 68.046875 
Q 83.84375 63.625 88.359375 55.5625 
Q 92.875 47.515625 92.875 36.859375 
z
M 63.28125 36.46875 
Q 63.28125 41.453125 60.0625 44.5 
Q 56.84375 47.5625 51.46875 47.5625 
Q 46.53125 47.5625 42.703125 44.453125 
Q 38.875 41.359375 36.671875 35.859375 
Q 34.46875 30.375 34.46875 23.96875 
Q 34.46875 18.109375 36.78125 14.78125 
Q 39.109375 11.46875 43.953125 11.46875 
Q 50.046875 11.46875 55.125 16.59375 
Q 60.203125 21.734375 62.15625 29.390625 
Q 63.28125 33.890625 63.28125 36.46875 
z
" id="LiberationSans-64"/>
      <path d="M 54.734375 0 
L 54.734375 31.890625 
L 17.53125 31.890625 
L 17.53125 0 
L 8.203125 0 
L 8.203125 68.796875 
L 17.53125 68.796875 
L 17.53125 39.703125 
L 54.734375 39.703125 
L 54.734375 68.796875 
L 64.0625 68.796875 
L 64.0625 0 
z
" id="LiberationSans-72"/>
      <path d="M 4.046875 0 
L 4.046875 6.6875 
L 33.59375 46.046875 
L 5.71875 46.046875 
L 5.71875 52.828125 
L 44 52.828125 
L 44 46.140625 
L 14.40625 6.78125 
L 45.015625 6.78125 
L 45.015625 0 
z
" id="LiberationSans-122"/>
     </defs>
     <g style="fill:#262626;" transform="translate(86.7625 37.76875)scale(0.1 -0.1)">
      <use xlink:href="#LiberationSans-98"/>
      <use x="55.615234" xlink:href="#LiberationSans-97"/>
      <use x="111.230469" xlink:href="#LiberationSans-110"/>
      <use x="166.845703" xlink:href="#LiberationSans-100"/>
      <use x="222.460938" xlink:href="#LiberationSans-45"/>
      <use x="255.761719" xlink:href="#LiberationSans-112"/>
      <use x="311.376953" xlink:href="#LiberationSans-97"/>
      <use x="366.992188" xlink:href="#LiberationSans-115"/>
      <use x="416.992188" xlink:href="#LiberationSans-115"/>
      <use x="466.992188" xlink:href="#LiberationSans-32"/>
      <use x="494.775391" xlink:href="#LiberationSans-64"/>
      <use x="596.289062" xlink:href="#LiberationSans-32"/>
      <use x="624.072266" xlink:href="#LiberationSans-49"/>
      <use x="679.6875" xlink:href="#LiberationSans-48"/>
      <use x="735.302734" xlink:href="#LiberationSans-45"/>
      <use x="768.603516" xlink:href="#LiberationSans-50"/>
      <use x="824.21875" xlink:href="#LiberationSans-48"/>
      <use x="879.833984" xlink:href="#LiberationSans-48"/>
      <use x="935.449219" xlink:href="#LiberationSans-72"/>
      <use x="1007.666016" xlink:href="#LiberationSans-122"/>
     </g>
    </g>
   </g>
  </g>
 </g>
 <defs>
  <clipPath id="pf05ee21b10">
   <rect height="266.112" width="357.12" x="49.7625" y="7.2"/>
  </clipPath>
 </defs>
</svg>
