<?xml version="1.0" encoding="utf-8" standalone="no"?>
<!DOCTYPE svg PUBLIC "-//W3C//DTD SVG 1.1//EN"
  "http://www.w3.org/Graphics/SVG/1.1/DTD/svg11.dtd">
<!-- Created with matplotlib (https://matplotlib.org/) -->
<svg height="313.477562pt" version="1.1" viewBox="0 0 405.743437 313.477562" width="405.743437pt" xmlns="http://www.w3.org/2000/svg" xmlns:xlink="http://www.w3.org/1999/xlink">
 <defs>
  <style type="text/css">
*{stroke-linecap:butt;stroke-linejoin:round;}
  </style>
 </defs>
 <g id="figure_1">
  <g id="patch_1">
   <path d="M 0 313.477562 
L 405.743437 313.477562 
L 405.743437 0 
L 0 0 
z
" style="fill:#ffffff;"/>
  </g>
  <g id="axes_1">
   <g id="patch_2">
    <path d="M 41.423438 274.133812 
L 398.543437 274.133812 
L 398.543437 8.021812 
L 41.423438 8.021812 
z
" style="fill:#ffffff;"/>
   </g>
   <g id="matplotlib.axis_1">
    <g id="xtick_1">
     <g id="line2d_1">
      <defs>
       <path d="M 0 0 
L 0 6 
" id="m3220115f8a" style="stroke:#262626;stroke-width:0.8;"/>
      </defs>
      <g>
       <use style="fill:#262626;stroke:#262626;stroke-width:0.8;" x="57.656165" xlink:href="#m3220115f8a" y="274.133812"/>
      </g>
     </g>
     <g id="text_1">
      <!-- 0 -->
      <defs>
       <path d="M 51.703125 34.421875 
Q 51.703125 17.1875 45.625 8.09375 
Q 39.546875 -0.984375 27.6875 -0.984375 
Q 15.828125 -0.984375 9.859375 8.046875 
Q 3.90625 17.09375 3.90625 34.421875 
Q 3.90625 52.15625 9.6875 60.984375 
Q 15.484375 69.828125 27.984375 69.828125 
Q 40.140625 69.828125 45.921875 60.890625 
Q 51.703125 51.953125 51.703125 34.421875 
z
M 42.78125 34.421875 
Q 42.78125 49.3125 39.328125 56 
Q 35.890625 62.703125 27.984375 62.703125 
Q 19.875 62.703125 16.328125 56.109375 
Q 12.796875 49.515625 12.796875 34.421875 
Q 12.796875 19.78125 16.375 12.984375 
Q 19.96875 6.203125 27.78125 6.203125 
Q 35.546875 6.203125 39.15625 13.125 
Q 42.78125 20.0625 42.78125 34.421875 
z
" id="LiberationSans-48"/>
      </defs>
      <g style="fill:#262626;" transform="translate(54.875696 290.880687)scale(0.1 -0.1)">
       <use xlink:href="#LiberationSans-48"/>
      </g>
     </g>
    </g>
    <g id="xtick_2">
     <g id="line2d_2">
      <g>
       <use style="fill:#262626;stroke:#262626;stroke-width:0.8;" x="123.242942" xlink:href="#m3220115f8a" y="274.133812"/>
      </g>
     </g>
     <g id="text_2">
      <!-- 20 -->
      <defs>
       <path d="M 5.03125 0 
L 5.03125 6.203125 
Q 7.515625 11.921875 11.109375 16.28125 
Q 14.703125 20.65625 18.65625 24.1875 
Q 22.609375 27.734375 26.484375 30.765625 
Q 30.375 33.796875 33.5 36.8125 
Q 36.625 39.84375 38.546875 43.15625 
Q 40.484375 46.484375 40.484375 50.6875 
Q 40.484375 56.34375 37.15625 59.46875 
Q 33.84375 62.59375 27.9375 62.59375 
Q 22.3125 62.59375 18.671875 59.546875 
Q 15.046875 56.5 14.40625 50.984375 
L 5.421875 51.8125 
Q 6.390625 60.0625 12.421875 64.9375 
Q 18.453125 69.828125 27.9375 69.828125 
Q 38.328125 69.828125 43.921875 64.921875 
Q 49.515625 60.015625 49.515625 50.984375 
Q 49.515625 46.96875 47.671875 43.015625 
Q 45.84375 39.0625 42.234375 35.109375 
Q 38.625 31.15625 28.421875 22.859375 
Q 22.796875 18.265625 19.46875 14.578125 
Q 16.15625 10.890625 14.703125 7.46875 
L 50.59375 7.46875 
L 50.59375 0 
z
" id="LiberationSans-50"/>
      </defs>
      <g style="fill:#262626;" transform="translate(117.682004 290.880687)scale(0.1 -0.1)">
       <use xlink:href="#LiberationSans-50"/>
       <use x="55.615234" xlink:href="#LiberationSans-48"/>
      </g>
     </g>
    </g>
    <g id="xtick_3">
     <g id="line2d_3">
      <g>
       <use style="fill:#262626;stroke:#262626;stroke-width:0.8;" x="188.829718" xlink:href="#m3220115f8a" y="274.133812"/>
      </g>
     </g>
     <g id="text_3">
      <!-- 40 -->
      <defs>
       <path d="M 43.015625 15.578125 
L 43.015625 0 
L 34.71875 0 
L 34.71875 15.578125 
L 2.296875 15.578125 
L 2.296875 22.40625 
L 33.796875 68.796875 
L 43.015625 68.796875 
L 43.015625 22.515625 
L 52.6875 22.515625 
L 52.6875 15.578125 
z
M 34.71875 58.890625 
Q 34.625 58.59375 33.34375 56.296875 
Q 32.078125 54 31.453125 53.078125 
L 13.8125 27.09375 
L 11.1875 23.484375 
L 10.40625 22.515625 
L 34.71875 22.515625 
z
" id="LiberationSans-52"/>
      </defs>
      <g style="fill:#262626;" transform="translate(183.268781 290.880687)scale(0.1 -0.1)">
       <use xlink:href="#LiberationSans-52"/>
       <use x="55.615234" xlink:href="#LiberationSans-48"/>
      </g>
     </g>
    </g>
    <g id="xtick_4">
     <g id="line2d_4">
      <g>
       <use style="fill:#262626;stroke:#262626;stroke-width:0.8;" x="254.416495" xlink:href="#m3220115f8a" y="274.133812"/>
      </g>
     </g>
     <g id="text_4">
      <!-- 60 -->
      <defs>
       <path d="M 51.21875 22.515625 
Q 51.21875 11.625 45.3125 5.3125 
Q 39.40625 -0.984375 29 -0.984375 
Q 17.390625 -0.984375 11.234375 7.65625 
Q 5.078125 16.3125 5.078125 32.8125 
Q 5.078125 50.6875 11.46875 60.25 
Q 17.875 69.828125 29.6875 69.828125 
Q 45.265625 69.828125 49.3125 55.8125 
L 40.921875 54.296875 
Q 38.328125 62.703125 29.59375 62.703125 
Q 22.078125 62.703125 17.9375 55.6875 
Q 13.8125 48.6875 13.8125 35.40625 
Q 16.21875 39.84375 20.5625 42.15625 
Q 24.90625 44.484375 30.515625 44.484375 
Q 40.046875 44.484375 45.625 38.515625 
Q 51.21875 32.5625 51.21875 22.515625 
z
M 42.28125 22.125 
Q 42.28125 29.59375 38.625 33.640625 
Q 34.96875 37.703125 28.421875 37.703125 
Q 22.265625 37.703125 18.484375 34.109375 
Q 14.703125 30.515625 14.703125 24.21875 
Q 14.703125 16.265625 18.625 11.1875 
Q 22.5625 6.109375 28.71875 6.109375 
Q 35.0625 6.109375 38.671875 10.375 
Q 42.28125 14.65625 42.28125 22.125 
z
" id="LiberationSans-54"/>
      </defs>
      <g style="fill:#262626;" transform="translate(248.855558 290.880687)scale(0.1 -0.1)">
       <use xlink:href="#LiberationSans-54"/>
       <use x="55.615234" xlink:href="#LiberationSans-48"/>
      </g>
     </g>
    </g>
    <g id="xtick_5">
     <g id="line2d_5">
      <g>
       <use style="fill:#262626;stroke:#262626;stroke-width:0.8;" x="320.003272" xlink:href="#m3220115f8a" y="274.133812"/>
      </g>
     </g>
     <g id="text_5">
      <!-- 80 -->
      <defs>
       <path d="M 51.265625 19.1875 
Q 51.265625 9.671875 45.203125 4.34375 
Q 39.15625 -0.984375 27.828125 -0.984375 
Q 16.796875 -0.984375 10.5625 4.234375 
Q 4.34375 9.46875 4.34375 19.09375 
Q 4.34375 25.828125 8.203125 30.421875 
Q 12.0625 35.015625 18.0625 35.984375 
L 18.0625 36.1875 
Q 12.453125 37.5 9.203125 41.890625 
Q 5.953125 46.296875 5.953125 52.203125 
Q 5.953125 60.0625 11.828125 64.9375 
Q 17.71875 69.828125 27.640625 69.828125 
Q 37.796875 69.828125 43.671875 65.03125 
Q 49.5625 60.25 49.5625 52.09375 
Q 49.5625 46.1875 46.28125 41.796875 
Q 43.015625 37.40625 37.359375 36.28125 
L 37.359375 36.078125 
Q 43.953125 35.015625 47.609375 30.5 
Q 51.265625 25.984375 51.265625 19.1875 
z
M 40.4375 51.609375 
Q 40.4375 63.28125 27.640625 63.28125 
Q 21.4375 63.28125 18.1875 60.34375 
Q 14.9375 57.421875 14.9375 51.609375 
Q 14.9375 45.703125 18.28125 42.59375 
Q 21.625 39.5 27.734375 39.5 
Q 33.9375 39.5 37.1875 42.359375 
Q 40.4375 45.21875 40.4375 51.609375 
z
M 42.140625 20.015625 
Q 42.140625 26.421875 38.328125 29.65625 
Q 34.515625 32.90625 27.640625 32.90625 
Q 20.953125 32.90625 17.1875 29.40625 
Q 13.421875 25.921875 13.421875 19.828125 
Q 13.421875 5.609375 27.9375 5.609375 
Q 35.109375 5.609375 38.625 9.046875 
Q 42.140625 12.5 42.140625 20.015625 
z
" id="LiberationSans-56"/>
      </defs>
      <g style="fill:#262626;" transform="translate(314.442335 290.880687)scale(0.1 -0.1)">
       <use xlink:href="#LiberationSans-56"/>
       <use x="55.615234" xlink:href="#LiberationSans-48"/>
      </g>
     </g>
    </g>
    <g id="xtick_6">
     <g id="line2d_6">
      <g>
       <use style="fill:#262626;stroke:#262626;stroke-width:0.8;" x="385.590049" xlink:href="#m3220115f8a" y="274.133812"/>
      </g>
     </g>
     <g id="text_6">
      <!-- 100 -->
      <defs>
       <path d="M 7.625 0 
L 7.625 7.46875 
L 25.140625 7.46875 
L 25.140625 60.40625 
L 9.625 49.3125 
L 9.625 57.625 
L 25.875 68.796875 
L 33.984375 68.796875 
L 33.984375 7.46875 
L 50.734375 7.46875 
L 50.734375 0 
z
" id="LiberationSans-49"/>
      </defs>
      <g style="fill:#262626;" transform="translate(377.248643 290.880687)scale(0.1 -0.1)">
       <use xlink:href="#LiberationSans-49"/>
       <use x="55.615234" xlink:href="#LiberationSans-48"/>
       <use x="111.230469" xlink:href="#LiberationSans-48"/>
      </g>
     </g>
    </g>
    <g id="text_7">
     <!-- time -->
     <defs>
      <path d="M 27.046875 0.390625 
Q 22.703125 -0.78125 18.171875 -0.78125 
Q 7.625 -0.78125 7.625 11.1875 
L 7.625 46.4375 
L 1.515625 46.4375 
L 1.515625 52.828125 
L 7.953125 52.828125 
L 10.546875 64.65625 
L 16.40625 64.65625 
L 16.40625 52.828125 
L 26.171875 52.828125 
L 26.171875 46.4375 
L 16.40625 46.4375 
L 16.40625 13.09375 
Q 16.40625 9.28125 17.640625 7.734375 
Q 18.890625 6.203125 21.96875 6.203125 
Q 23.734375 6.203125 27.046875 6.890625 
z
" id="LiberationSans-116"/>
      <path d="M 6.6875 64.0625 
L 6.6875 72.46875 
L 15.484375 72.46875 
L 15.484375 64.0625 
z
M 6.6875 0 
L 6.6875 52.828125 
L 15.484375 52.828125 
L 15.484375 0 
z
" id="LiberationSans-105"/>
      <path d="M 37.5 0 
L 37.5 33.5 
Q 37.5 41.15625 35.390625 44.078125 
Q 33.296875 47.015625 27.828125 47.015625 
Q 22.21875 47.015625 18.9375 42.71875 
Q 15.671875 38.421875 15.671875 30.609375 
L 15.671875 0 
L 6.9375 0 
L 6.9375 41.546875 
Q 6.9375 50.78125 6.640625 52.828125 
L 14.9375 52.828125 
Q 14.984375 52.59375 15.03125 51.515625 
Q 15.09375 50.4375 15.15625 49.046875 
Q 15.234375 47.65625 15.328125 43.796875 
L 15.484375 43.796875 
Q 18.3125 49.421875 21.96875 51.609375 
Q 25.640625 53.8125 30.90625 53.8125 
Q 36.921875 53.8125 40.40625 51.421875 
Q 43.890625 49.03125 45.265625 43.796875 
L 45.40625 43.796875 
Q 48.140625 49.125 52.015625 51.46875 
Q 55.90625 53.8125 61.421875 53.8125 
Q 69.4375 53.8125 73.0625 49.46875 
Q 76.703125 45.125 76.703125 35.203125 
L 76.703125 0 
L 68.015625 0 
L 68.015625 33.5 
Q 68.015625 41.15625 65.90625 44.078125 
Q 63.8125 47.015625 58.34375 47.015625 
Q 52.59375 47.015625 49.390625 42.75 
Q 46.1875 38.484375 46.1875 30.609375 
L 46.1875 0 
z
" id="LiberationSans-109"/>
      <path d="M 13.484375 24.5625 
Q 13.484375 15.484375 17.234375 10.546875 
Q 21 5.609375 28.21875 5.609375 
Q 33.9375 5.609375 37.375 7.90625 
Q 40.828125 10.203125 42.046875 13.71875 
L 49.75 11.53125 
Q 45.015625 -0.984375 28.21875 -0.984375 
Q 16.5 -0.984375 10.375 6 
Q 4.25 12.984375 4.25 26.765625 
Q 4.25 39.84375 10.375 46.828125 
Q 16.5 53.8125 27.875 53.8125 
Q 51.171875 53.8125 51.171875 25.734375 
L 51.171875 24.5625 
z
M 42.09375 31.296875 
Q 41.359375 39.65625 37.84375 43.484375 
Q 34.328125 47.3125 27.734375 47.3125 
Q 21.34375 47.3125 17.609375 43.03125 
Q 13.875 38.765625 13.578125 31.296875 
z
" id="LiberationSans-101"/>
     </defs>
     <g style="fill:#262626;" transform="translate(210.538125 304.202562)scale(0.1 -0.1)">
      <use xlink:href="#LiberationSans-116"/>
      <use x="27.783203" xlink:href="#LiberationSans-105"/>
      <use x="50" xlink:href="#LiberationSans-109"/>
      <use x="133.300781" xlink:href="#LiberationSans-101"/>
     </g>
    </g>
   </g>
   <g id="matplotlib.axis_2">
    <g id="ytick_1">
     <g id="line2d_7">
      <defs>
       <path d="M 0 0 
L -6 0 
" id="ma83aa34fe7" style="stroke:#262626;stroke-width:0.8;"/>
      </defs>
      <g>
       <use style="fill:#262626;stroke:#262626;stroke-width:0.8;" x="41.423438" xlink:href="#ma83aa34fe7" y="252.408885"/>
      </g>
     </g>
     <g id="text_8">
      <!-- −2 -->
      <defs>
       <path d="M 4.9375 29.6875 
L 4.9375 36.8125 
L 53.515625 36.8125 
L 53.515625 29.6875 
z
" id="LiberationSans-8722"/>
      </defs>
      <g style="fill:#262626;" transform="translate(20.521875 256.032323)scale(0.1 -0.1)">
       <use xlink:href="#LiberationSans-8722"/>
       <use x="58.398438" xlink:href="#LiberationSans-50"/>
      </g>
     </g>
    </g>
    <g id="ytick_2">
     <g id="line2d_8">
      <g>
       <use style="fill:#262626;stroke:#262626;stroke-width:0.8;" x="41.423438" xlink:href="#ma83aa34fe7" y="212.144644"/>
      </g>
     </g>
     <g id="text_9">
      <!-- 0 -->
      <g style="fill:#262626;" transform="translate(26.3625 215.768081)scale(0.1 -0.1)">
       <use xlink:href="#LiberationSans-48"/>
      </g>
     </g>
    </g>
    <g id="ytick_3">
     <g id="line2d_9">
      <g>
       <use style="fill:#262626;stroke:#262626;stroke-width:0.8;" x="41.423438" xlink:href="#ma83aa34fe7" y="171.880403"/>
      </g>
     </g>
     <g id="text_10">
      <!-- 2 -->
      <g style="fill:#262626;" transform="translate(26.3625 175.50384)scale(0.1 -0.1)">
       <use xlink:href="#LiberationSans-50"/>
      </g>
     </g>
    </g>
    <g id="ytick_4">
     <g id="line2d_10">
      <g>
       <use style="fill:#262626;stroke:#262626;stroke-width:0.8;" x="41.423438" xlink:href="#ma83aa34fe7" y="131.616161"/>
      </g>
     </g>
     <g id="text_11">
      <!-- 4 -->
      <g style="fill:#262626;" transform="translate(26.3625 135.239599)scale(0.1 -0.1)">
       <use xlink:href="#LiberationSans-52"/>
      </g>
     </g>
    </g>
    <g id="ytick_5">
     <g id="line2d_11">
      <g>
       <use style="fill:#262626;stroke:#262626;stroke-width:0.8;" x="41.423438" xlink:href="#ma83aa34fe7" y="91.35192"/>
      </g>
     </g>
     <g id="text_12">
      <!-- 6 -->
      <g style="fill:#262626;" transform="translate(26.3625 94.975358)scale(0.1 -0.1)">
       <use xlink:href="#LiberationSans-54"/>
      </g>
     </g>
    </g>
    <g id="ytick_6">
     <g id="line2d_12">
      <g>
       <use style="fill:#262626;stroke:#262626;stroke-width:0.8;" x="41.423438" xlink:href="#ma83aa34fe7" y="51.087679"/>
      </g>
     </g>
     <g id="text_13">
      <!-- 8 -->
      <g style="fill:#262626;" transform="translate(26.3625 54.711116)scale(0.1 -0.1)">
       <use xlink:href="#LiberationSans-56"/>
      </g>
     </g>
    </g>
    <g id="ytick_7">
     <g id="line2d_13">
      <g>
       <use style="fill:#262626;stroke:#262626;stroke-width:0.8;" x="41.423438" xlink:href="#ma83aa34fe7" y="10.823438"/>
      </g>
     </g>
     <g id="text_14">
      <!-- 10 -->
      <g style="fill:#262626;" transform="translate(20.801563 14.446875)scale(0.1 -0.1)">
       <use xlink:href="#LiberationSans-49"/>
       <use x="55.615234" xlink:href="#LiberationSans-48"/>
      </g>
     </g>
    </g>
    <g id="text_15">
     <!-- analogs -->
     <defs>
      <path d="M 20.21875 -0.984375 
Q 12.25 -0.984375 8.25 3.21875 
Q 4.25 7.421875 4.25 14.75 
Q 4.25 22.953125 9.640625 27.34375 
Q 15.046875 31.734375 27.046875 32.03125 
L 38.921875 32.234375 
L 38.921875 35.109375 
Q 38.921875 41.546875 36.1875 44.328125 
Q 33.453125 47.125 27.59375 47.125 
Q 21.6875 47.125 19 45.109375 
Q 16.3125 43.109375 15.765625 38.71875 
L 6.59375 39.546875 
Q 8.84375 53.8125 27.78125 53.8125 
Q 37.75 53.8125 42.765625 49.234375 
Q 47.796875 44.671875 47.796875 36.03125 
L 47.796875 13.28125 
Q 47.796875 9.375 48.828125 7.390625 
Q 49.859375 5.421875 52.734375 5.421875 
Q 54 5.421875 55.609375 5.765625 
L 55.609375 0.296875 
Q 52.296875 -0.484375 48.828125 -0.484375 
Q 43.953125 -0.484375 41.71875 2.078125 
Q 39.5 4.640625 39.203125 10.109375 
L 38.921875 10.109375 
Q 35.546875 4.046875 31.078125 1.53125 
Q 26.609375 -0.984375 20.21875 -0.984375 
z
M 22.21875 5.609375 
Q 27.046875 5.609375 30.8125 7.8125 
Q 34.578125 10.015625 36.75 13.84375 
Q 38.921875 17.671875 38.921875 21.734375 
L 38.921875 26.078125 
L 29.296875 25.875 
Q 23.09375 25.78125 19.890625 24.609375 
Q 16.703125 23.4375 14.984375 21 
Q 13.28125 18.5625 13.28125 14.59375 
Q 13.28125 10.296875 15.59375 7.953125 
Q 17.921875 5.609375 22.21875 5.609375 
z
" id="LiberationSans-97"/>
      <path d="M 40.28125 0 
L 40.28125 33.5 
Q 40.28125 38.71875 39.25 41.59375 
Q 38.234375 44.484375 35.984375 45.75 
Q 33.734375 47.015625 29.390625 47.015625 
Q 23.046875 47.015625 19.375 42.671875 
Q 15.71875 38.328125 15.71875 30.609375 
L 15.71875 0 
L 6.9375 0 
L 6.9375 41.546875 
Q 6.9375 50.78125 6.640625 52.828125 
L 14.9375 52.828125 
Q 14.984375 52.59375 15.03125 51.515625 
Q 15.09375 50.4375 15.15625 49.046875 
Q 15.234375 47.65625 15.328125 43.796875 
L 15.484375 43.796875 
Q 18.5 49.265625 22.484375 51.53125 
Q 26.46875 53.8125 32.375 53.8125 
Q 41.0625 53.8125 45.09375 49.484375 
Q 49.125 45.171875 49.125 35.203125 
L 49.125 0 
z
" id="LiberationSans-110"/>
      <path d="M 6.734375 0 
L 6.734375 72.46875 
L 15.53125 72.46875 
L 15.53125 0 
z
" id="LiberationSans-108"/>
      <path d="M 51.421875 26.46875 
Q 51.421875 12.59375 45.3125 5.796875 
Q 39.203125 -0.984375 27.59375 -0.984375 
Q 16.015625 -0.984375 10.109375 6.078125 
Q 4.203125 13.140625 4.203125 26.46875 
Q 4.203125 53.8125 27.875 53.8125 
Q 39.984375 53.8125 45.703125 47.140625 
Q 51.421875 40.484375 51.421875 26.46875 
z
M 42.1875 26.46875 
Q 42.1875 37.40625 38.9375 42.359375 
Q 35.6875 47.3125 28.03125 47.3125 
Q 20.3125 47.3125 16.859375 42.25 
Q 13.421875 37.203125 13.421875 26.46875 
Q 13.421875 16.015625 16.8125 10.765625 
Q 20.21875 5.515625 27.484375 5.515625 
Q 35.40625 5.515625 38.796875 10.59375 
Q 42.1875 15.671875 42.1875 26.46875 
z
" id="LiberationSans-111"/>
      <path d="M 26.765625 -20.75 
Q 18.109375 -20.75 12.984375 -17.359375 
Q 7.859375 -13.96875 6.390625 -7.71875 
L 15.234375 -6.453125 
Q 16.109375 -10.109375 19.109375 -12.078125 
Q 22.125 -14.0625 27 -14.0625 
Q 40.140625 -14.0625 40.140625 1.3125 
L 40.140625 9.8125 
L 40.046875 9.8125 
Q 37.546875 4.734375 33.203125 2.171875 
Q 28.859375 -0.390625 23.046875 -0.390625 
Q 13.328125 -0.390625 8.765625 6.046875 
Q 4.203125 12.5 4.203125 26.3125 
Q 4.203125 40.328125 9.109375 46.984375 
Q 14.015625 53.65625 24.03125 53.65625 
Q 29.640625 53.65625 33.765625 51.09375 
Q 37.890625 48.53125 40.140625 43.796875 
L 40.234375 43.796875 
Q 40.234375 45.265625 40.421875 48.875 
Q 40.625 52.484375 40.828125 52.828125 
L 49.171875 52.828125 
Q 48.875 50.203125 48.875 41.890625 
L 48.875 1.515625 
Q 48.875 -20.75 26.765625 -20.75 
z
M 40.140625 26.421875 
Q 40.140625 32.859375 38.375 37.515625 
Q 36.625 42.1875 33.421875 44.65625 
Q 30.21875 47.125 26.171875 47.125 
Q 19.4375 47.125 16.359375 42.234375 
Q 13.28125 37.359375 13.28125 26.421875 
Q 13.28125 15.578125 16.15625 10.84375 
Q 19.046875 6.109375 26.03125 6.109375 
Q 30.171875 6.109375 33.390625 8.546875 
Q 36.625 10.984375 38.375 15.546875 
Q 40.140625 20.125 40.140625 26.421875 
z
" id="LiberationSans-103"/>
      <path d="M 46.390625 14.59375 
Q 46.390625 7.125 40.75 3.0625 
Q 35.109375 -0.984375 24.953125 -0.984375 
Q 15.09375 -0.984375 9.734375 2.265625 
Q 4.390625 5.515625 2.78125 12.40625 
L 10.546875 13.921875 
Q 11.671875 9.671875 15.1875 7.6875 
Q 18.703125 5.71875 24.953125 5.71875 
Q 31.640625 5.71875 34.734375 7.765625 
Q 37.84375 9.8125 37.84375 13.921875 
Q 37.84375 17.046875 35.6875 19 
Q 33.546875 20.953125 28.765625 22.21875 
L 22.46875 23.875 
Q 14.890625 25.828125 11.6875 27.703125 
Q 8.5 29.59375 6.6875 32.28125 
Q 4.890625 34.96875 4.890625 38.875 
Q 4.890625 46.09375 10.03125 49.875 
Q 15.1875 53.65625 25.046875 53.65625 
Q 33.796875 53.65625 38.9375 50.578125 
Q 44.09375 47.515625 45.453125 40.71875 
L 37.546875 39.75 
Q 36.8125 43.265625 33.609375 45.140625 
Q 30.421875 47.015625 25.046875 47.015625 
Q 19.09375 47.015625 16.25 45.203125 
Q 13.421875 43.40625 13.421875 39.75 
Q 13.421875 37.5 14.59375 36.03125 
Q 15.765625 34.578125 18.0625 33.546875 
Q 20.359375 32.515625 27.734375 30.71875 
Q 34.71875 28.953125 37.796875 27.46875 
Q 40.875 25.984375 42.65625 24.171875 
Q 44.4375 22.359375 45.40625 19.984375 
Q 46.390625 17.625 46.390625 14.59375 
z
" id="LiberationSans-115"/>
     </defs>
     <g style="fill:#262626;" transform="translate(14.446875 158.591093)rotate(-90)scale(0.1 -0.1)">
      <use xlink:href="#LiberationSans-97"/>
      <use x="55.615234" xlink:href="#LiberationSans-110"/>
      <use x="111.230469" xlink:href="#LiberationSans-97"/>
      <use x="166.845703" xlink:href="#LiberationSans-108"/>
      <use x="189.0625" xlink:href="#LiberationSans-111"/>
      <use x="244.677734" xlink:href="#LiberationSans-103"/>
      <use x="300.292969" xlink:href="#LiberationSans-115"/>
     </g>
    </g>
   </g>
   <g id="patch_3">
    <path clip-path="url(#p3bbd2fe0aa)" d="M 41.423438 200.83299 
L 41.423438 86.125023 
L 398.543437 86.125023 
L 398.543437 200.83299 
z
" style="fill:#808080;opacity:0.3;stroke:#808080;stroke-linejoin:miter;"/>
   </g>
   <g id="line2d_14">
    <path clip-path="url(#p3bbd2fe0aa)" d="M 57.656165 219.253702 
L 60.935504 218.632636 
L 64.214842 232.390546 
L 67.494181 210.070578 
L 70.77352 181.417237 
L 74.052859 184.102667 
L 77.332198 212.01564 
L 80.611537 222.561714 
L 83.890876 226.265795 
L 87.170214 216.088226 
L 90.449553 236.38167 
L 93.728892 251.866538 
L 97.008231 241.585545 
L 100.28757 222.683319 
L 103.566909 235.197325 
L 106.846247 262.037812 
L 110.125586 195.921548 
L 113.404925 180.151972 
L 116.684264 185.527324 
L 119.963603 168.031882 
L 123.242942 170.537458 
L 126.52228 153.079751 
L 129.801619 149.870828 
L 133.080958 148.033331 
L 136.360297 150.319975 
L 139.639636 179.45883 
L 142.918975 140.44087 
L 146.198314 159.395944 
L 149.477652 186.776103 
L 152.756991 191.061424 
L 156.03633 210.41789 
L 159.315669 211.458979 
L 162.595008 197.612834 
L 165.874347 177.575276 
L 169.153685 161.173019 
L 172.433024 167.32604 
L 175.712363 166.327651 
L 178.991702 158.116181 
L 182.271041 193.50417 
L 185.55038 182.01709 
L 188.829718 211.355615 
L 192.109057 170.279111 
L 195.388396 178.422857 
L 198.667735 182.144787 
L 201.947074 197.640623 
L 205.226413 210.323255 
L 208.505752 164.540929 
L 211.78509 145.609293 
L 215.064429 176.798024 
L 218.343768 146.515028 
L 221.623107 122.492531 
L 224.902446 128.153934 
L 228.181785 121.979474 
L 231.461123 122.28033 
L 234.740462 82.568114 
L 238.019801 98.599124 
L 241.29914 95.659621 
L 244.578479 104.279094 
L 247.857818 133.129236 
L 251.137157 89.006911 
L 254.416495 112.794351 
L 257.695834 108.362684 
L 260.975173 143.406679 
L 264.254512 151.440815 
L 267.533851 142.945688 
L 270.81319 159.549332 
L 274.092528 147.735766 
L 277.371867 153.152134 
L 280.651206 129.797213 
L 283.930545 102.382078 
L 287.209884 114.194494 
L 290.489223 112.649699 
L 293.768561 108.956376 
L 297.0479 96.487562 
L 300.327239 96.198021 
L 303.606578 92.368671 
L 306.885917 97.26896 
L 310.165256 94.948937 
L 313.444595 68.818649 
L 316.723933 55.811623 
L 320.003272 41.69386 
L 323.282611 27.136921 
L 326.56195 30.233418 
L 329.841289 23.814753 
L 333.120628 45.6616 
L 336.399966 20.117812 
L 339.679305 76.144707 
L 342.958644 77.899189 
L 346.237983 54.930533 
L 349.517322 82.388087 
L 352.796661 74.339669 
L 356.075999 88.044942 
L 359.355338 95.469734 
L 362.634677 76.425936 
L 365.914016 72.43863 
L 369.193355 113.394528 
L 372.472694 133.052045 
L 375.752033 113.416468 
L 379.031371 104.378299 
L 382.31071 69.184623 
" style="fill:none;stroke:#000000;stroke-linecap:round;stroke-width:1.5;"/>
   </g>
   <g id="line2d_15">
    <path clip-path="url(#p3bbd2fe0aa)" d="M 57.656165 219.253702 
L 60.935504 218.632636 
L 64.214842 232.390546 
L 67.494181 210.070578 
M 77.332198 212.01564 
L 80.611537 222.561714 
L 83.890876 226.265795 
L 87.170214 216.088226 
L 90.449553 236.38167 
L 93.728892 251.866538 
L 97.008231 241.585545 
L 100.28757 222.683319 
L 103.566909 235.197325 
L 106.846247 262.037812 
M 156.03633 210.41789 
L 159.315669 211.458979 
M 188.829718 211.355615 
M 205.226413 210.323255 
M 234.740462 82.568114 
M 313.444595 68.818649 
L 316.723933 55.811623 
L 320.003272 41.69386 
L 323.282611 27.136921 
L 326.56195 30.233418 
L 329.841289 23.814753 
L 333.120628 45.6616 
L 336.399966 20.117812 
L 339.679305 76.144707 
L 342.958644 77.899189 
L 346.237983 54.930533 
L 349.517322 82.388087 
L 352.796661 74.339669 
M 362.634677 76.425936 
L 365.914016 72.43863 
M 382.31071 69.184623 
" style="fill:none;stroke:#ff0000;stroke-linecap:round;stroke-width:1.5;"/>
    <defs>
     <path d="M 0 3 
C 0.795609 3 1.55874 2.683901 2.12132 2.12132 
C 2.683901 1.55874 3 0.795609 3 0 
C 3 -0.795609 2.683901 -1.55874 2.12132 -2.12132 
C 1.55874 -2.683901 0.795609 -3 0 -3 
C -0.795609 -3 -1.55874 -2.683901 -2.12132 -2.12132 
C -2.683901 -1.55874 -3 -0.795609 -3 0 
C -3 0.795609 -2.683901 1.55874 -2.12132 2.12132 
C -1.55874 2.683901 -0.795609 3 0 3 
z
" id="m8cd1ee1d74" style="stroke:#ff0000;"/>
    </defs>
    <g clip-path="url(#p3bbd2fe0aa)">
     <use style="fill:#ff0000;stroke:#ff0000;" x="57.656165" xlink:href="#m8cd1ee1d74" y="219.253702"/>
     <use style="fill:#ff0000;stroke:#ff0000;" x="60.935504" xlink:href="#m8cd1ee1d74" y="218.632636"/>
     <use style="fill:#ff0000;stroke:#ff0000;" x="64.214842" xlink:href="#m8cd1ee1d74" y="232.390546"/>
     <use style="fill:#ff0000;stroke:#ff0000;" x="67.494181" xlink:href="#m8cd1ee1d74" y="210.070578"/>
     <use style="fill:#ff0000;stroke:#ff0000;" x="77.332198" xlink:href="#m8cd1ee1d74" y="212.01564"/>
     <use style="fill:#ff0000;stroke:#ff0000;" x="80.611537" xlink:href="#m8cd1ee1d74" y="222.561714"/>
     <use style="fill:#ff0000;stroke:#ff0000;" x="83.890876" xlink:href="#m8cd1ee1d74" y="226.265795"/>
     <use style="fill:#ff0000;stroke:#ff0000;" x="87.170214" xlink:href="#m8cd1ee1d74" y="216.088226"/>
     <use style="fill:#ff0000;stroke:#ff0000;" x="90.449553" xlink:href="#m8cd1ee1d74" y="236.38167"/>
     <use style="fill:#ff0000;stroke:#ff0000;" x="93.728892" xlink:href="#m8cd1ee1d74" y="251.866538"/>
     <use style="fill:#ff0000;stroke:#ff0000;" x="97.008231" xlink:href="#m8cd1ee1d74" y="241.585545"/>
     <use style="fill:#ff0000;stroke:#ff0000;" x="100.28757" xlink:href="#m8cd1ee1d74" y="222.683319"/>
     <use style="fill:#ff0000;stroke:#ff0000;" x="103.566909" xlink:href="#m8cd1ee1d74" y="235.197325"/>
     <use style="fill:#ff0000;stroke:#ff0000;" x="106.846247" xlink:href="#m8cd1ee1d74" y="262.037812"/>
     <use style="fill:#ff0000;stroke:#ff0000;" x="156.03633" xlink:href="#m8cd1ee1d74" y="210.41789"/>
     <use style="fill:#ff0000;stroke:#ff0000;" x="159.315669" xlink:href="#m8cd1ee1d74" y="211.458979"/>
     <use style="fill:#ff0000;stroke:#ff0000;" x="188.829718" xlink:href="#m8cd1ee1d74" y="211.355615"/>
     <use style="fill:#ff0000;stroke:#ff0000;" x="205.226413" xlink:href="#m8cd1ee1d74" y="210.323255"/>
     <use style="fill:#ff0000;stroke:#ff0000;" x="234.740462" xlink:href="#m8cd1ee1d74" y="82.568114"/>
     <use style="fill:#ff0000;stroke:#ff0000;" x="313.444595" xlink:href="#m8cd1ee1d74" y="68.818649"/>
     <use style="fill:#ff0000;stroke:#ff0000;" x="316.723933" xlink:href="#m8cd1ee1d74" y="55.811623"/>
     <use style="fill:#ff0000;stroke:#ff0000;" x="320.003272" xlink:href="#m8cd1ee1d74" y="41.69386"/>
     <use style="fill:#ff0000;stroke:#ff0000;" x="323.282611" xlink:href="#m8cd1ee1d74" y="27.136921"/>
     <use style="fill:#ff0000;stroke:#ff0000;" x="326.56195" xlink:href="#m8cd1ee1d74" y="30.233418"/>
     <use style="fill:#ff0000;stroke:#ff0000;" x="329.841289" xlink:href="#m8cd1ee1d74" y="23.814753"/>
     <use style="fill:#ff0000;stroke:#ff0000;" x="333.120628" xlink:href="#m8cd1ee1d74" y="45.6616"/>
     <use style="fill:#ff0000;stroke:#ff0000;" x="336.399966" xlink:href="#m8cd1ee1d74" y="20.117812"/>
     <use style="fill:#ff0000;stroke:#ff0000;" x="339.679305" xlink:href="#m8cd1ee1d74" y="76.144707"/>
     <use style="fill:#ff0000;stroke:#ff0000;" x="342.958644" xlink:href="#m8cd1ee1d74" y="77.899189"/>
     <use style="fill:#ff0000;stroke:#ff0000;" x="346.237983" xlink:href="#m8cd1ee1d74" y="54.930533"/>
     <use style="fill:#ff0000;stroke:#ff0000;" x="349.517322" xlink:href="#m8cd1ee1d74" y="82.388087"/>
     <use style="fill:#ff0000;stroke:#ff0000;" x="352.796661" xlink:href="#m8cd1ee1d74" y="74.339669"/>
     <use style="fill:#ff0000;stroke:#ff0000;" x="362.634677" xlink:href="#m8cd1ee1d74" y="76.425936"/>
     <use style="fill:#ff0000;stroke:#ff0000;" x="365.914016" xlink:href="#m8cd1ee1d74" y="72.43863"/>
     <use style="fill:#ff0000;stroke:#ff0000;" x="382.31071" xlink:href="#m8cd1ee1d74" y="69.184623"/>
    </g>
   </g>
   <g id="line2d_16">
    <path clip-path="url(#p3bbd2fe0aa)" d="M 41.423438 143.479007 
L 398.543437 143.479007 
" style="fill:none;stroke:#808080;stroke-linecap:round;stroke-width:1.5;"/>
   </g>
   <g id="patch_4">
    <path d="M 41.423438 274.133812 
L 41.423438 8.021812 
" style="fill:none;stroke:#262626;stroke-linecap:square;stroke-linejoin:miter;stroke-width:1.25;"/>
   </g>
   <g id="patch_5">
    <path d="M 41.423438 274.133812 
L 398.543437 274.133812 
" style="fill:none;stroke:#262626;stroke-linecap:square;stroke-linejoin:miter;stroke-width:1.25;"/>
   </g>
   <g id="legend_1">
    <g id="line2d_17">
     <path d="M 50.423438 20.768687 
L 70.423438 20.768687 
" style="fill:none;stroke:#ff0000;stroke-linecap:round;stroke-width:1.5;"/>
    </g>
    <g id="line2d_18">
     <g>
      <use style="fill:#ff0000;stroke:#ff0000;" x="60.423438" xlink:href="#m8cd1ee1d74" y="20.768687"/>
     </g>
    </g>
    <g id="text_16">
     <!-- outliers -->
     <defs>
      <path d="M 15.328125 52.828125 
L 15.328125 19.34375 
Q 15.328125 14.109375 16.359375 11.21875 
Q 17.390625 8.34375 19.625 7.078125 
Q 21.875 5.8125 26.21875 5.8125 
Q 32.5625 5.8125 36.21875 10.15625 
Q 39.890625 14.5 39.890625 22.21875 
L 39.890625 52.828125 
L 48.6875 52.828125 
L 48.6875 11.28125 
Q 48.6875 2.046875 48.96875 0 
L 40.671875 0 
Q 40.625 0.25 40.578125 1.3125 
Q 40.53125 2.390625 40.453125 3.78125 
Q 40.375 5.171875 40.28125 9.03125 
L 40.140625 9.03125 
Q 37.109375 3.5625 33.125 1.28125 
Q 29.15625 -0.984375 23.25 -0.984375 
Q 14.546875 -0.984375 10.515625 3.34375 
Q 6.5 7.671875 6.5 17.625 
L 6.5 52.828125 
z
" id="LiberationSans-117"/>
      <path d="M 6.9375 0 
L 6.9375 40.53125 
Q 6.9375 46.09375 6.640625 52.828125 
L 14.9375 52.828125 
Q 15.328125 43.84375 15.328125 42.046875 
L 15.53125 42.046875 
Q 17.625 48.828125 20.359375 51.3125 
Q 23.09375 53.8125 28.078125 53.8125 
Q 29.828125 53.8125 31.640625 53.328125 
L 31.640625 45.265625 
Q 29.890625 45.75 26.953125 45.75 
Q 21.484375 45.75 18.59375 41.03125 
Q 15.71875 36.328125 15.71875 27.546875 
L 15.71875 0 
z
" id="LiberationSans-114"/>
     </defs>
     <g style="fill:#262626;" transform="translate(78.423438 24.268687)scale(0.1 -0.1)">
      <use xlink:href="#LiberationSans-111"/>
      <use x="55.615234" xlink:href="#LiberationSans-117"/>
      <use x="111.230469" xlink:href="#LiberationSans-116"/>
      <use x="139.013672" xlink:href="#LiberationSans-108"/>
      <use x="161.230469" xlink:href="#LiberationSans-105"/>
      <use x="183.447266" xlink:href="#LiberationSans-101"/>
      <use x="239.0625" xlink:href="#LiberationSans-114"/>
      <use x="272.363281" xlink:href="#LiberationSans-115"/>
     </g>
    </g>
    <g id="patch_6">
     <path d="M 50.423438 38.590562 
L 70.423438 38.590562 
L 70.423438 31.590562 
L 50.423438 31.590562 
z
" style="fill:#808080;opacity:0.3;stroke:#808080;stroke-linejoin:miter;"/>
    </g>
    <g id="text_17">
     <!-- mean +/- 1 std -->
     <defs>
      <path id="LiberationSans-32"/>
      <path d="M 32.765625 29.6875 
L 32.765625 8.796875 
L 25.59375 8.796875 
L 25.59375 29.6875 
L 4.890625 29.6875 
L 4.890625 36.8125 
L 25.59375 36.8125 
L 25.59375 57.71875 
L 32.765625 57.71875 
L 32.765625 36.8125 
L 53.46875 36.8125 
L 53.46875 29.6875 
z
" id="LiberationSans-43"/>
      <path d="M 0 -0.984375 
L 20.0625 72.46875 
L 27.78125 72.46875 
L 7.90625 -0.984375 
z
" id="LiberationSans-47"/>
      <path d="M 4.4375 22.65625 
L 4.4375 30.46875 
L 28.859375 30.46875 
L 28.859375 22.65625 
z
" id="LiberationSans-45"/>
      <path d="M 40.09375 8.5 
Q 37.640625 3.421875 33.609375 1.21875 
Q 29.59375 -0.984375 23.640625 -0.984375 
Q 13.625 -0.984375 8.90625 5.75 
Q 4.203125 12.5 4.203125 26.171875 
Q 4.203125 53.8125 23.640625 53.8125 
Q 29.640625 53.8125 33.640625 51.609375 
Q 37.640625 49.421875 40.09375 44.625 
L 40.1875 44.625 
L 40.09375 50.53125 
L 40.09375 72.46875 
L 48.875 72.46875 
L 48.875 10.890625 
Q 48.875 2.640625 49.171875 0 
L 40.765625 0 
Q 40.625 0.78125 40.453125 3.609375 
Q 40.28125 6.453125 40.28125 8.5 
z
M 13.421875 26.46875 
Q 13.421875 15.375 16.34375 10.59375 
Q 19.28125 5.8125 25.875 5.8125 
Q 33.34375 5.8125 36.71875 10.984375 
Q 40.09375 16.15625 40.09375 27.046875 
Q 40.09375 37.546875 36.71875 42.421875 
Q 33.34375 47.3125 25.984375 47.3125 
Q 19.34375 47.3125 16.375 42.40625 
Q 13.421875 37.5 13.421875 26.46875 
z
" id="LiberationSans-100"/>
     </defs>
     <g style="fill:#262626;" transform="translate(78.423438 38.590562)scale(0.1 -0.1)">
      <use xlink:href="#LiberationSans-109"/>
      <use x="83.300781" xlink:href="#LiberationSans-101"/>
      <use x="138.916016" xlink:href="#LiberationSans-97"/>
      <use x="194.53125" xlink:href="#LiberationSans-110"/>
      <use x="250.146484" xlink:href="#LiberationSans-32"/>
      <use x="277.929688" xlink:href="#LiberationSans-43"/>
      <use x="336.328125" xlink:href="#LiberationSans-47"/>
      <use x="364.111328" xlink:href="#LiberationSans-45"/>
      <use x="397.412109" xlink:href="#LiberationSans-32"/>
      <use x="425.195312" xlink:href="#LiberationSans-49"/>
      <use x="480.810547" xlink:href="#LiberationSans-32"/>
      <use x="508.59375" xlink:href="#LiberationSans-115"/>
      <use x="558.59375" xlink:href="#LiberationSans-116"/>
      <use x="586.376953" xlink:href="#LiberationSans-100"/>
     </g>
    </g>
   </g>
  </g>
 </g>
 <defs>
  <clipPath id="p3bbd2fe0aa">
   <rect height="266.112" width="357.12" x="41.423438" y="8.021812"/>
  </clipPath>
 </defs>
</svg>
