<?xml version="1.0" encoding="utf-8" standalone="no"?>
<!DOCTYPE svg PUBLIC "-//W3C//DTD SVG 1.1//EN"
  "http://www.w3.org/Graphics/SVG/1.1/DTD/svg11.dtd">
<!-- Created with matplotlib (https://matplotlib.org/) -->
<svg height="312.65575pt" version="1.1" viewBox="0 0 414.0825 312.65575" width="414.0825pt" xmlns="http://www.w3.org/2000/svg" xmlns:xlink="http://www.w3.org/1999/xlink">
 <defs>
  <style type="text/css">
*{stroke-linecap:butt;stroke-linejoin:round;}
  </style>
 </defs>
 <g id="figure_1">
  <g id="patch_1">
   <path d="M 0 312.65575 
L 414.0825 312.65575 
L 414.0825 0 
L 0 0 
z
" style="fill:#ffffff;"/>
  </g>
  <g id="axes_1">
   <g id="patch_2">
    <path d="M 49.7625 273.312 
L 406.8825 273.312 
L 406.8825 7.2 
L 49.7625 7.2 
z
" style="fill:#ffffff;"/>
   </g>
   <g id="matplotlib.axis_1">
    <g id="xtick_1">
     <g id="line2d_1">
      <defs>
       <path d="M 0 0 
L 0 6 
" id="m132651a8ca" style="stroke:#262626;stroke-width:0.8;"/>
      </defs>
      <g>
       <use style="fill:#262626;stroke:#262626;stroke-width:0.8;" x="65.995227" xlink:href="#m132651a8ca" y="273.312"/>
      </g>
     </g>
     <g id="text_1">
      <!-- 0 -->
      <defs>
       <path d="M 51.703125 34.421875 
Q 51.703125 24.515625 49.828125 17.75 
Q 47.953125 10.984375 44.703125 6.8125 
Q 41.453125 2.640625 37.0625 0.828125 
Q 32.671875 -0.984375 27.6875 -0.984375 
Q 22.65625 -0.984375 18.3125 0.828125 
Q 13.96875 2.640625 10.765625 6.78125 
Q 7.5625 10.9375 5.734375 17.703125 
Q 3.90625 24.46875 3.90625 34.421875 
Q 3.90625 44.828125 5.734375 51.640625 
Q 7.5625 58.453125 10.78125 62.5 
Q 14.015625 66.546875 18.40625 68.1875 
Q 22.796875 69.828125 27.984375 69.828125 
Q 32.90625 69.828125 37.21875 68.1875 
Q 41.546875 66.546875 44.765625 62.5 
Q 48 58.453125 49.84375 51.640625 
Q 51.703125 44.828125 51.703125 34.421875 
z
M 42.78125 34.421875 
Q 42.78125 42.625 41.796875 48.0625 
Q 40.828125 53.515625 38.921875 56.765625 
Q 37.015625 60.015625 34.25 61.359375 
Q 31.5 62.703125 27.984375 62.703125 
Q 24.265625 62.703125 21.4375 61.328125 
Q 18.609375 59.96875 16.671875 56.71875 
Q 14.75 53.46875 13.765625 48.015625 
Q 12.796875 42.578125 12.796875 34.421875 
Q 12.796875 26.515625 13.796875 21.09375 
Q 14.796875 15.671875 16.71875 12.375 
Q 18.65625 9.078125 21.4375 7.640625 
Q 24.21875 6.203125 27.78125 6.203125 
Q 31.25 6.203125 34.03125 7.640625 
Q 36.8125 9.078125 38.734375 12.375 
Q 40.671875 15.671875 41.71875 21.09375 
Q 42.78125 26.515625 42.78125 34.421875 
z
" id="LiberationSans-48"/>
      </defs>
      <g style="fill:#262626;" transform="translate(63.214759 290.058875)scale(0.1 -0.1)">
       <use xlink:href="#LiberationSans-48"/>
      </g>
     </g>
    </g>
    <g id="xtick_2">
     <g id="line2d_2">
      <g>
       <use style="fill:#262626;stroke:#262626;stroke-width:0.8;" x="130.991132" xlink:href="#m132651a8ca" y="273.312"/>
      </g>
     </g>
     <g id="text_2">
      <!-- 200 -->
      <defs>
       <path d="M 5.03125 0 
L 5.03125 6.203125 
Q 7.515625 11.921875 11.109375 16.28125 
Q 14.703125 20.65625 18.65625 24.1875 
Q 22.609375 27.734375 26.484375 30.765625 
Q 30.375 33.796875 33.5 36.8125 
Q 36.625 39.84375 38.546875 43.15625 
Q 40.484375 46.484375 40.484375 50.6875 
Q 40.484375 53.609375 39.59375 55.828125 
Q 38.71875 58.0625 37.0625 59.5625 
Q 35.40625 61.078125 33.078125 61.828125 
Q 30.765625 62.59375 27.9375 62.59375 
Q 25.296875 62.59375 22.96875 61.859375 
Q 20.65625 61.140625 18.84375 59.671875 
Q 17.046875 58.203125 15.890625 56.03125 
Q 14.75 53.859375 14.40625 50.984375 
L 5.421875 51.8125 
Q 5.859375 55.515625 7.46875 58.78125 
Q 9.078125 62.0625 11.90625 64.53125 
Q 14.75 67 18.71875 68.40625 
Q 22.703125 69.828125 27.9375 69.828125 
Q 33.0625 69.828125 37.0625 68.609375 
Q 41.0625 67.390625 43.8125 64.984375 
Q 46.578125 62.59375 48.046875 59.078125 
Q 49.515625 55.5625 49.515625 50.984375 
Q 49.515625 47.515625 48.265625 44.390625 
Q 47.015625 41.265625 44.9375 38.421875 
Q 42.875 35.59375 40.140625 32.953125 
Q 37.40625 30.328125 34.421875 27.8125 
Q 31.453125 25.296875 28.421875 22.828125 
Q 25.390625 20.359375 22.71875 17.859375 
Q 20.0625 15.375 17.96875 12.8125 
Q 15.875 10.25 14.703125 7.46875 
L 50.59375 7.46875 
L 50.59375 0 
z
" id="LiberationSans-50"/>
      </defs>
      <g style="fill:#262626;" transform="translate(122.649726 290.058875)scale(0.1 -0.1)">
       <use xlink:href="#LiberationSans-50"/>
       <use x="55.615234" xlink:href="#LiberationSans-48"/>
       <use x="111.230469" xlink:href="#LiberationSans-48"/>
      </g>
     </g>
    </g>
    <g id="xtick_3">
     <g id="line2d_3">
      <g>
       <use style="fill:#262626;stroke:#262626;stroke-width:0.8;" x="195.987037" xlink:href="#m132651a8ca" y="273.312"/>
      </g>
     </g>
     <g id="text_3">
      <!-- 400 -->
      <defs>
       <path d="M 43.015625 15.578125 
L 43.015625 0 
L 34.71875 0 
L 34.71875 15.578125 
L 2.296875 15.578125 
L 2.296875 22.40625 
L 33.796875 68.796875 
L 43.015625 68.796875 
L 43.015625 22.515625 
L 52.6875 22.515625 
L 52.6875 15.578125 
z
M 34.71875 58.890625 
Q 34.625 58.640625 34.234375 57.9375 
Q 33.84375 57.234375 33.34375 56.34375 
Q 32.859375 55.46875 32.34375 54.5625 
Q 31.84375 53.65625 31.453125 53.078125 
L 13.8125 27.09375 
Q 13.578125 26.703125 13.109375 26.0625 
Q 12.640625 25.4375 12.15625 24.78125 
Q 11.671875 24.125 11.171875 23.484375 
Q 10.6875 22.859375 10.40625 22.515625 
L 34.71875 22.515625 
z
" id="LiberationSans-52"/>
      </defs>
      <g style="fill:#262626;" transform="translate(187.645631 290.058875)scale(0.1 -0.1)">
       <use xlink:href="#LiberationSans-52"/>
       <use x="55.615234" xlink:href="#LiberationSans-48"/>
       <use x="111.230469" xlink:href="#LiberationSans-48"/>
      </g>
     </g>
    </g>
    <g id="xtick_4">
     <g id="line2d_4">
      <g>
       <use style="fill:#262626;stroke:#262626;stroke-width:0.8;" x="260.982942" xlink:href="#m132651a8ca" y="273.312"/>
      </g>
     </g>
     <g id="text_4">
      <!-- 600 -->
      <defs>
       <path d="M 51.21875 22.515625 
Q 51.21875 17.328125 49.78125 13 
Q 48.34375 8.6875 45.53125 5.578125 
Q 42.71875 2.484375 38.5625 0.75 
Q 34.421875 -0.984375 29 -0.984375 
Q 23 -0.984375 18.5 1.3125 
Q 14.015625 3.609375 11.03125 7.921875 
Q 8.0625 12.25 6.5625 18.53125 
Q 5.078125 24.8125 5.078125 32.8125 
Q 5.078125 42 6.765625 48.921875 
Q 8.453125 55.859375 11.625 60.5 
Q 14.796875 65.140625 19.359375 67.484375 
Q 23.921875 69.828125 29.6875 69.828125 
Q 33.203125 69.828125 36.28125 69.09375 
Q 39.359375 68.359375 41.875 66.71875 
Q 44.390625 65.09375 46.28125 62.40625 
Q 48.1875 59.71875 49.3125 55.8125 
L 40.921875 54.296875 
Q 39.546875 58.734375 36.546875 60.71875 
Q 33.546875 62.703125 29.59375 62.703125 
Q 25.984375 62.703125 23.046875 60.984375 
Q 20.125 59.28125 18.0625 55.875 
Q 16.015625 52.484375 14.90625 47.359375 
Q 13.8125 42.234375 13.8125 35.40625 
Q 16.21875 39.84375 20.5625 42.15625 
Q 24.90625 44.484375 30.515625 44.484375 
Q 35.203125 44.484375 39.015625 42.96875 
Q 42.828125 41.453125 45.53125 38.59375 
Q 48.25 35.75 49.734375 31.671875 
Q 51.21875 27.59375 51.21875 22.515625 
z
M 42.28125 22.125 
Q 42.28125 25.6875 41.40625 28.5625 
Q 40.53125 31.453125 38.765625 33.46875 
Q 37.015625 35.5 34.421875 36.59375 
Q 31.84375 37.703125 28.421875 37.703125 
Q 26.03125 37.703125 23.578125 36.984375 
Q 21.140625 36.28125 19.15625 34.6875 
Q 17.1875 33.109375 15.9375 30.515625 
Q 14.703125 27.9375 14.703125 24.21875 
Q 14.703125 20.40625 15.671875 17.109375 
Q 16.65625 13.8125 18.484375 11.375 
Q 20.3125 8.9375 22.890625 7.515625 
Q 25.484375 6.109375 28.71875 6.109375 
Q 31.890625 6.109375 34.40625 7.203125 
Q 36.921875 8.296875 38.671875 10.375 
Q 40.4375 12.453125 41.359375 15.421875 
Q 42.28125 18.40625 42.28125 22.125 
z
" id="LiberationSans-54"/>
      </defs>
      <g style="fill:#262626;" transform="translate(252.641536 290.058875)scale(0.1 -0.1)">
       <use xlink:href="#LiberationSans-54"/>
       <use x="55.615234" xlink:href="#LiberationSans-48"/>
       <use x="111.230469" xlink:href="#LiberationSans-48"/>
      </g>
     </g>
    </g>
    <g id="xtick_5">
     <g id="line2d_5">
      <g>
       <use style="fill:#262626;stroke:#262626;stroke-width:0.8;" x="325.978847" xlink:href="#m132651a8ca" y="273.312"/>
      </g>
     </g>
     <g id="text_5">
      <!-- 800 -->
      <defs>
       <path d="M 51.265625 19.1875 
Q 51.265625 14.796875 49.875 11.109375 
Q 48.484375 7.421875 45.625 4.734375 
Q 42.78125 2.046875 38.328125 0.53125 
Q 33.890625 -0.984375 27.828125 -0.984375 
Q 21.78125 -0.984375 17.359375 0.53125 
Q 12.9375 2.046875 10.03125 4.703125 
Q 7.125 7.375 5.734375 11.0625 
Q 4.34375 14.75 4.34375 19.09375 
Q 4.34375 22.859375 5.484375 25.78125 
Q 6.640625 28.71875 8.5625 30.828125 
Q 10.5 32.953125 12.96875 34.25 
Q 15.4375 35.546875 18.0625 35.984375 
L 18.0625 36.1875 
Q 15.1875 36.859375 12.90625 38.375 
Q 10.640625 39.890625 9.09375 42.015625 
Q 7.5625 44.140625 6.75 46.71875 
Q 5.953125 49.3125 5.953125 52.203125 
Q 5.953125 55.8125 7.34375 59 
Q 8.734375 62.203125 11.46875 64.625 
Q 14.203125 67.046875 18.25 68.4375 
Q 22.3125 69.828125 27.640625 69.828125 
Q 33.25 69.828125 37.375 68.40625 
Q 41.5 67 44.203125 64.578125 
Q 46.921875 62.15625 48.234375 58.9375 
Q 49.5625 55.71875 49.5625 52.09375 
Q 49.5625 49.265625 48.75 46.671875 
Q 47.953125 44.09375 46.40625 41.96875 
Q 44.875 39.84375 42.59375 38.34375 
Q 40.328125 36.859375 37.359375 36.28125 
L 37.359375 36.078125 
Q 40.328125 35.59375 42.859375 34.296875 
Q 45.40625 33.015625 47.265625 30.890625 
Q 49.125 28.765625 50.1875 25.828125 
Q 51.265625 22.90625 51.265625 19.1875 
z
M 40.4375 51.609375 
Q 40.4375 54.203125 39.765625 56.34375 
Q 39.109375 58.5 37.59375 60.03125 
Q 36.078125 61.578125 33.640625 62.421875 
Q 31.203125 63.28125 27.640625 63.28125 
Q 24.171875 63.28125 21.78125 62.421875 
Q 19.390625 61.578125 17.84375 60.03125 
Q 16.3125 58.5 15.625 56.34375 
Q 14.9375 54.203125 14.9375 51.609375 
Q 14.9375 49.5625 15.46875 47.40625 
Q 16.015625 45.265625 17.421875 43.5 
Q 18.84375 41.75 21.328125 40.625 
Q 23.828125 39.5 27.734375 39.5 
Q 31.890625 39.5 34.40625 40.625 
Q 36.921875 41.75 38.25 43.5 
Q 39.59375 45.265625 40.015625 47.40625 
Q 40.4375 49.5625 40.4375 51.609375 
z
M 42.140625 20.015625 
Q 42.140625 22.515625 41.453125 24.828125 
Q 40.765625 27.15625 39.109375 28.9375 
Q 37.453125 30.71875 34.640625 31.8125 
Q 31.84375 32.90625 27.640625 32.90625 
Q 23.78125 32.90625 21.0625 31.8125 
Q 18.359375 30.71875 16.671875 28.90625 
Q 14.984375 27.09375 14.203125 24.71875 
Q 13.421875 22.359375 13.421875 19.828125 
Q 13.421875 16.65625 14.203125 14.03125 
Q 14.984375 11.421875 16.6875 9.546875 
Q 18.40625 7.671875 21.1875 6.640625 
Q 23.96875 5.609375 27.9375 5.609375 
Q 31.9375 5.609375 34.671875 6.640625 
Q 37.40625 7.671875 39.0625 9.546875 
Q 40.71875 11.421875 41.421875 14.078125 
Q 42.140625 16.75 42.140625 20.015625 
z
" id="LiberationSans-56"/>
      </defs>
      <g style="fill:#262626;" transform="translate(317.637441 290.058875)scale(0.1 -0.1)">
       <use xlink:href="#LiberationSans-56"/>
       <use x="55.615234" xlink:href="#LiberationSans-48"/>
       <use x="111.230469" xlink:href="#LiberationSans-48"/>
      </g>
     </g>
    </g>
    <g id="xtick_6">
     <g id="line2d_6">
      <g>
       <use style="fill:#262626;stroke:#262626;stroke-width:0.8;" x="390.974752" xlink:href="#m132651a8ca" y="273.312"/>
      </g>
     </g>
     <g id="text_6">
      <!-- 1000 -->
      <defs>
       <path d="M 7.625 0 
L 7.625 7.46875 
L 25.140625 7.46875 
L 25.140625 60.40625 
L 9.625 49.3125 
L 9.625 57.625 
L 25.875 68.796875 
L 33.984375 68.796875 
L 33.984375 7.46875 
L 50.734375 7.46875 
L 50.734375 0 
z
" id="LiberationSans-49"/>
      </defs>
      <g style="fill:#262626;" transform="translate(379.852877 290.058875)scale(0.1 -0.1)">
       <use xlink:href="#LiberationSans-49"/>
       <use x="55.615234" xlink:href="#LiberationSans-48"/>
       <use x="111.230469" xlink:href="#LiberationSans-48"/>
       <use x="166.845703" xlink:href="#LiberationSans-48"/>
      </g>
     </g>
    </g>
    <g id="text_7">
     <!-- time -->
     <defs>
      <path d="M 27.046875 0.390625 
Q 25.046875 -0.140625 22.96875 -0.453125 
Q 20.90625 -0.78125 18.171875 -0.78125 
Q 7.625 -0.78125 7.625 11.1875 
L 7.625 46.4375 
L 1.515625 46.4375 
L 1.515625 52.828125 
L 7.953125 52.828125 
L 10.546875 64.65625 
L 16.40625 64.65625 
L 16.40625 52.828125 
L 26.171875 52.828125 
L 26.171875 46.4375 
L 16.40625 46.4375 
L 16.40625 13.09375 
Q 16.40625 9.28125 17.640625 7.734375 
Q 18.890625 6.203125 21.96875 6.203125 
Q 23.25 6.203125 24.4375 6.390625 
Q 25.640625 6.59375 27.046875 6.890625 
z
" id="LiberationSans-116"/>
      <path d="M 6.6875 64.0625 
L 6.6875 72.46875 
L 15.484375 72.46875 
L 15.484375 64.0625 
z
M 6.6875 0 
L 6.6875 52.828125 
L 15.484375 52.828125 
L 15.484375 0 
z
" id="LiberationSans-105"/>
      <path d="M 37.5 0 
L 37.5 33.5 
Q 37.5 37.359375 37.015625 39.9375 
Q 36.53125 42.53125 35.375 44.109375 
Q 34.234375 45.703125 32.375 46.359375 
Q 30.515625 47.015625 27.828125 47.015625 
Q 25.046875 47.015625 22.796875 45.921875 
Q 20.5625 44.828125 18.96875 42.75 
Q 17.390625 40.671875 16.53125 37.625 
Q 15.671875 34.578125 15.671875 30.609375 
L 15.671875 0 
L 6.9375 0 
L 6.9375 41.546875 
Q 6.9375 43.21875 6.90625 45.046875 
Q 6.890625 46.875 6.828125 48.5 
Q 6.78125 50.140625 6.734375 51.3125 
Q 6.6875 52.484375 6.640625 52.828125 
L 14.9375 52.828125 
Q 14.984375 52.59375 15.03125 51.515625 
Q 15.09375 50.4375 15.15625 49.046875 
Q 15.234375 47.65625 15.28125 46.21875 
Q 15.328125 44.78125 15.328125 43.796875 
L 15.484375 43.796875 
Q 16.65625 46.09375 18.015625 47.953125 
Q 19.390625 49.8125 21.21875 51.09375 
Q 23.046875 52.390625 25.40625 53.09375 
Q 27.78125 53.8125 30.90625 53.8125 
Q 36.921875 53.8125 40.40625 51.421875 
Q 43.890625 49.03125 45.265625 43.796875 
L 45.40625 43.796875 
Q 46.578125 46.09375 48.046875 47.953125 
Q 49.515625 49.8125 51.46875 51.09375 
Q 53.421875 52.390625 55.859375 53.09375 
Q 58.296875 53.8125 61.421875 53.8125 
Q 65.4375 53.8125 68.328125 52.734375 
Q 71.234375 51.65625 73.09375 49.40625 
Q 74.953125 47.171875 75.828125 43.625 
Q 76.703125 40.09375 76.703125 35.203125 
L 76.703125 0 
L 68.015625 0 
L 68.015625 33.5 
Q 68.015625 37.359375 67.53125 39.9375 
Q 67.046875 42.53125 65.890625 44.109375 
Q 64.75 45.703125 62.890625 46.359375 
Q 61.03125 47.015625 58.34375 47.015625 
Q 55.5625 47.015625 53.3125 45.96875 
Q 51.078125 44.921875 49.484375 42.875 
Q 47.90625 40.828125 47.046875 37.75 
Q 46.1875 34.671875 46.1875 30.609375 
L 46.1875 0 
z
" id="LiberationSans-109"/>
      <path d="M 13.484375 24.5625 
Q 13.484375 20.40625 14.328125 16.90625 
Q 15.1875 13.421875 16.96875 10.90625 
Q 18.75 8.40625 21.53125 7 
Q 24.3125 5.609375 28.21875 5.609375 
Q 33.9375 5.609375 37.375 7.90625 
Q 40.828125 10.203125 42.046875 13.71875 
L 49.75 11.53125 
Q 48.921875 9.328125 47.4375 7.109375 
Q 45.953125 4.890625 43.453125 3.09375 
Q 40.96875 1.3125 37.234375 0.15625 
Q 33.5 -0.984375 28.21875 -0.984375 
Q 16.5 -0.984375 10.375 6 
Q 4.25 12.984375 4.25 26.765625 
Q 4.25 34.1875 6.09375 39.328125 
Q 7.953125 44.484375 11.171875 47.703125 
Q 14.40625 50.921875 18.703125 52.359375 
Q 23 53.8125 27.875 53.8125 
Q 34.515625 53.8125 38.984375 51.65625 
Q 43.453125 49.515625 46.15625 45.71875 
Q 48.875 41.9375 50.015625 36.8125 
Q 51.171875 31.6875 51.171875 25.734375 
L 51.171875 24.5625 
z
M 42.09375 31.296875 
Q 41.359375 39.65625 37.84375 43.484375 
Q 34.328125 47.3125 27.734375 47.3125 
Q 25.53125 47.3125 23.109375 46.609375 
Q 20.703125 45.90625 18.65625 44.09375 
Q 16.609375 42.28125 15.1875 39.171875 
Q 13.765625 36.078125 13.578125 31.296875 
z
" id="LiberationSans-101"/>
     </defs>
     <g style="fill:#262626;" transform="translate(218.877188 303.38075)scale(0.1 -0.1)">
      <use xlink:href="#LiberationSans-116"/>
      <use x="27.783203" xlink:href="#LiberationSans-105"/>
      <use x="50" xlink:href="#LiberationSans-109"/>
      <use x="133.300781" xlink:href="#LiberationSans-101"/>
     </g>
    </g>
   </g>
   <g id="matplotlib.axis_2">
    <g id="ytick_1">
     <g id="line2d_7">
      <defs>
       <path d="M 0 0 
L -6 0 
" id="mef4abba80a" style="stroke:#262626;stroke-width:0.8;"/>
      </defs>
      <g>
       <use style="fill:#262626;stroke:#262626;stroke-width:0.8;" x="49.7625" xlink:href="#mef4abba80a" y="244.702104"/>
      </g>
     </g>
     <g id="text_8">
      <!-- −1.0 -->
      <defs>
       <path d="M 4.9375 29.6875 
L 4.9375 36.8125 
L 53.515625 36.8125 
L 53.515625 29.6875 
z
" id="LiberationSans-8722"/>
       <path d="M 9.125 0 
L 9.125 10.6875 
L 18.65625 10.6875 
L 18.65625 0 
z
" id="LiberationSans-46"/>
      </defs>
      <g style="fill:#262626;" transform="translate(20.521875 248.325542)scale(0.1 -0.1)">
       <use xlink:href="#LiberationSans-8722"/>
       <use x="58.398438" xlink:href="#LiberationSans-49"/>
       <use x="114.013672" xlink:href="#LiberationSans-46"/>
       <use x="141.796875" xlink:href="#LiberationSans-48"/>
      </g>
     </g>
    </g>
    <g id="ytick_2">
     <g id="line2d_8">
      <g>
       <use style="fill:#262626;stroke:#262626;stroke-width:0.8;" x="49.7625" xlink:href="#mef4abba80a" y="196.474614"/>
      </g>
     </g>
     <g id="text_9">
      <!-- −0.5 -->
      <defs>
       <path d="M 51.421875 22.40625 
Q 51.421875 17.234375 49.859375 12.9375 
Q 48.296875 8.640625 45.21875 5.53125 
Q 42.140625 2.4375 37.578125 0.71875 
Q 33.015625 -0.984375 27 -0.984375 
Q 21.578125 -0.984375 17.546875 0.28125 
Q 13.53125 1.5625 10.734375 3.78125 
Q 7.953125 6 6.3125 8.984375 
Q 4.6875 11.96875 4 15.375 
L 12.890625 16.40625 
Q 13.421875 14.453125 14.390625 12.625 
Q 15.375 10.796875 17.0625 9.34375 
Q 18.75 7.90625 21.21875 7.046875 
Q 23.6875 6.203125 27.203125 6.203125 
Q 30.609375 6.203125 33.390625 7.25 
Q 36.1875 8.296875 38.15625 10.34375 
Q 40.140625 12.40625 41.203125 15.375 
Q 42.28125 18.359375 42.28125 22.21875 
Q 42.28125 25.390625 41.25 28.046875 
Q 40.234375 30.71875 38.328125 32.640625 
Q 36.421875 34.578125 33.65625 35.640625 
Q 30.90625 36.71875 27.390625 36.71875 
Q 25.203125 36.71875 23.34375 36.328125 
Q 21.484375 35.9375 19.890625 35.25 
Q 18.3125 34.578125 17.015625 33.671875 
Q 15.71875 32.765625 14.59375 31.78125 
L 6 31.78125 
L 8.296875 68.796875 
L 47.40625 68.796875 
L 47.40625 61.328125 
L 16.3125 61.328125 
L 14.984375 39.5 
Q 17.328125 41.3125 20.84375 42.59375 
Q 24.359375 43.890625 29.203125 43.890625 
Q 34.328125 43.890625 38.421875 42.328125 
Q 42.53125 40.765625 45.40625 37.90625 
Q 48.296875 35.0625 49.859375 31.109375 
Q 51.421875 27.15625 51.421875 22.40625 
z
" id="LiberationSans-53"/>
      </defs>
      <g style="fill:#262626;" transform="translate(20.521875 200.098051)scale(0.1 -0.1)">
       <use xlink:href="#LiberationSans-8722"/>
       <use x="58.398438" xlink:href="#LiberationSans-48"/>
       <use x="114.013672" xlink:href="#LiberationSans-46"/>
       <use x="141.796875" xlink:href="#LiberationSans-53"/>
      </g>
     </g>
    </g>
    <g id="ytick_3">
     <g id="line2d_9">
      <g>
       <use style="fill:#262626;stroke:#262626;stroke-width:0.8;" x="49.7625" xlink:href="#mef4abba80a" y="148.247123"/>
      </g>
     </g>
     <g id="text_10">
      <!-- 0.0 -->
      <g style="fill:#262626;" transform="translate(26.3625 151.87056)scale(0.1 -0.1)">
       <use xlink:href="#LiberationSans-48"/>
       <use x="55.615234" xlink:href="#LiberationSans-46"/>
       <use x="83.398438" xlink:href="#LiberationSans-48"/>
      </g>
     </g>
    </g>
    <g id="ytick_4">
     <g id="line2d_10">
      <g>
       <use style="fill:#262626;stroke:#262626;stroke-width:0.8;" x="49.7625" xlink:href="#mef4abba80a" y="100.019632"/>
      </g>
     </g>
     <g id="text_11">
      <!-- 0.5 -->
      <g style="fill:#262626;" transform="translate(26.3625 103.64307)scale(0.1 -0.1)">
       <use xlink:href="#LiberationSans-48"/>
       <use x="55.615234" xlink:href="#LiberationSans-46"/>
       <use x="83.398438" xlink:href="#LiberationSans-53"/>
      </g>
     </g>
    </g>
    <g id="ytick_5">
     <g id="line2d_11">
      <g>
       <use style="fill:#262626;stroke:#262626;stroke-width:0.8;" x="49.7625" xlink:href="#mef4abba80a" y="51.792141"/>
      </g>
     </g>
     <g id="text_12">
      <!-- 1.0 -->
      <g style="fill:#262626;" transform="translate(26.3625 55.415579)scale(0.1 -0.1)">
       <use xlink:href="#LiberationSans-49"/>
       <use x="55.615234" xlink:href="#LiberationSans-46"/>
       <use x="83.398438" xlink:href="#LiberationSans-48"/>
      </g>
     </g>
    </g>
    <g id="text_13">
     <!-- analogs -->
     <defs>
      <path d="M 20.21875 -0.984375 
Q 12.25 -0.984375 8.25 3.21875 
Q 4.25 7.421875 4.25 14.75 
Q 4.25 19.96875 6.21875 23.3125 
Q 8.203125 26.65625 11.390625 28.5625 
Q 14.59375 30.46875 18.6875 31.203125 
Q 22.796875 31.9375 27.046875 32.03125 
L 38.921875 32.234375 
L 38.921875 35.109375 
Q 38.921875 38.375 38.234375 40.671875 
Q 37.546875 42.96875 36.125 44.375 
Q 34.71875 45.796875 32.59375 46.453125 
Q 30.46875 47.125 27.59375 47.125 
Q 25.046875 47.125 23 46.75 
Q 20.953125 46.390625 19.4375 45.4375 
Q 17.921875 44.484375 16.984375 42.84375 
Q 16.0625 41.21875 15.765625 38.71875 
L 6.59375 39.546875 
Q 7.078125 42.671875 8.4375 45.28125 
Q 9.8125 47.90625 12.328125 49.796875 
Q 14.84375 51.703125 18.625 52.75 
Q 22.40625 53.8125 27.78125 53.8125 
Q 37.75 53.8125 42.765625 49.234375 
Q 47.796875 44.671875 47.796875 36.03125 
L 47.796875 13.28125 
Q 47.796875 9.375 48.828125 7.390625 
Q 49.859375 5.421875 52.734375 5.421875 
Q 53.46875 5.421875 54.203125 5.515625 
Q 54.9375 5.609375 55.609375 5.765625 
L 55.609375 0.296875 
Q 53.953125 -0.09375 52.3125 -0.28125 
Q 50.6875 -0.484375 48.828125 -0.484375 
Q 46.34375 -0.484375 44.5625 0.171875 
Q 42.78125 0.828125 41.65625 2.171875 
Q 40.53125 3.515625 39.9375 5.484375 
Q 39.359375 7.46875 39.203125 10.109375 
L 38.921875 10.109375 
Q 37.5 7.5625 35.8125 5.515625 
Q 34.125 3.46875 31.875 2.03125 
Q 29.640625 0.59375 26.78125 -0.1875 
Q 23.921875 -0.984375 20.21875 -0.984375 
z
M 22.21875 5.609375 
Q 26.421875 5.609375 29.5625 7.140625 
Q 32.71875 8.6875 34.78125 11.078125 
Q 36.859375 13.484375 37.890625 16.3125 
Q 38.921875 19.140625 38.921875 21.734375 
L 38.921875 26.078125 
L 29.296875 25.875 
Q 26.078125 25.828125 23.171875 25.40625 
Q 20.265625 25 18.0625 23.78125 
Q 15.875 22.5625 14.578125 20.359375 
Q 13.28125 18.171875 13.28125 14.59375 
Q 13.28125 10.296875 15.59375 7.953125 
Q 17.921875 5.609375 22.21875 5.609375 
z
" id="LiberationSans-97"/>
      <path d="M 40.28125 0 
L 40.28125 33.5 
Q 40.28125 37.359375 39.71875 39.9375 
Q 39.15625 42.53125 37.890625 44.109375 
Q 36.625 45.703125 34.546875 46.359375 
Q 32.46875 47.015625 29.390625 47.015625 
Q 26.265625 47.015625 23.75 45.921875 
Q 21.234375 44.828125 19.453125 42.75 
Q 17.671875 40.671875 16.6875 37.625 
Q 15.71875 34.578125 15.71875 30.609375 
L 15.71875 0 
L 6.9375 0 
L 6.9375 41.546875 
Q 6.9375 43.21875 6.90625 45.046875 
Q 6.890625 46.875 6.828125 48.5 
Q 6.78125 50.140625 6.734375 51.3125 
Q 6.6875 52.484375 6.640625 52.828125 
L 14.9375 52.828125 
Q 14.984375 52.59375 15.03125 51.515625 
Q 15.09375 50.4375 15.15625 49.046875 
Q 15.234375 47.65625 15.28125 46.21875 
Q 15.328125 44.78125 15.328125 43.796875 
L 15.484375 43.796875 
Q 16.75 46.09375 18.265625 47.953125 
Q 19.78125 49.8125 21.78125 51.09375 
Q 23.78125 52.390625 26.359375 53.09375 
Q 28.953125 53.8125 32.375 53.8125 
Q 36.765625 53.8125 39.9375 52.734375 
Q 43.109375 51.65625 45.15625 49.40625 
Q 47.21875 47.171875 48.171875 43.625 
Q 49.125 40.09375 49.125 35.203125 
L 49.125 0 
z
" id="LiberationSans-110"/>
      <path d="M 6.734375 0 
L 6.734375 72.46875 
L 15.53125 72.46875 
L 15.53125 0 
z
" id="LiberationSans-108"/>
      <path d="M 51.421875 26.46875 
Q 51.421875 12.59375 45.3125 5.796875 
Q 39.203125 -0.984375 27.59375 -0.984375 
Q 22.078125 -0.984375 17.71875 0.671875 
Q 13.375 2.34375 10.375 5.765625 
Q 7.375 9.1875 5.78125 14.328125 
Q 4.203125 19.484375 4.203125 26.46875 
Q 4.203125 53.8125 27.875 53.8125 
Q 34.03125 53.8125 38.5 52.09375 
Q 42.96875 50.390625 45.828125 46.96875 
Q 48.6875 43.5625 50.046875 38.421875 
Q 51.421875 33.296875 51.421875 26.46875 
z
M 42.1875 26.46875 
Q 42.1875 32.625 41.234375 36.625 
Q 40.28125 40.625 38.453125 43.015625 
Q 36.625 45.40625 33.984375 46.359375 
Q 31.34375 47.3125 28.03125 47.3125 
Q 24.65625 47.3125 21.9375 46.3125 
Q 19.234375 45.3125 17.328125 42.890625 
Q 15.4375 40.484375 14.421875 36.46875 
Q 13.421875 32.46875 13.421875 26.46875 
Q 13.421875 20.3125 14.5 16.28125 
Q 15.578125 12.25 17.453125 9.859375 
Q 19.34375 7.46875 21.90625 6.484375 
Q 24.46875 5.515625 27.484375 5.515625 
Q 30.859375 5.515625 33.59375 6.46875 
Q 36.328125 7.421875 38.234375 9.8125 
Q 40.140625 12.203125 41.15625 16.25 
Q 42.1875 20.3125 42.1875 26.46875 
z
" id="LiberationSans-111"/>
      <path d="M 26.765625 -20.75 
Q 22.21875 -20.75 18.703125 -19.8125 
Q 15.1875 -18.890625 12.6875 -17.15625 
Q 10.203125 -15.4375 8.640625 -13.03125 
Q 7.078125 -10.640625 6.390625 -7.71875 
L 15.234375 -6.453125 
Q 16.109375 -10.109375 19.109375 -12.078125 
Q 22.125 -14.0625 27 -14.0625 
Q 29.984375 -14.0625 32.421875 -13.234375 
Q 34.859375 -12.40625 36.5625 -10.5625 
Q 38.28125 -8.734375 39.203125 -5.796875 
Q 40.140625 -2.875 40.140625 1.3125 
L 40.140625 9.8125 
L 40.046875 9.8125 
Q 39.0625 7.8125 37.625 5.984375 
Q 36.1875 4.15625 34.109375 2.734375 
Q 32.03125 1.3125 29.296875 0.453125 
Q 26.5625 -0.390625 23.046875 -0.390625 
Q 18.015625 -0.390625 14.421875 1.296875 
Q 10.84375 2.984375 8.5625 6.34375 
Q 6.296875 9.71875 5.25 14.71875 
Q 4.203125 19.734375 4.203125 26.3125 
Q 4.203125 32.671875 5.25 37.75 
Q 6.296875 42.828125 8.65625 46.359375 
Q 11.03125 49.90625 14.8125 51.78125 
Q 18.609375 53.65625 24.03125 53.65625 
Q 29.640625 53.65625 33.765625 51.09375 
Q 37.890625 48.53125 40.140625 43.796875 
L 40.234375 43.796875 
Q 40.234375 45.015625 40.296875 46.53125 
Q 40.375 48.046875 40.453125 49.390625 
Q 40.53125 50.734375 40.625 51.703125 
Q 40.71875 52.6875 40.828125 52.828125 
L 49.171875 52.828125 
Q 49.125 52.390625 49.078125 51.34375 
Q 49.03125 50.296875 48.96875 48.828125 
Q 48.921875 47.359375 48.890625 45.578125 
Q 48.875 43.796875 48.875 41.890625 
L 48.875 1.515625 
Q 48.875 -9.578125 43.421875 -15.15625 
Q 37.984375 -20.75 26.765625 -20.75 
z
M 40.140625 26.421875 
Q 40.140625 31.9375 38.9375 35.859375 
Q 37.75 39.796875 35.796875 42.28125 
Q 33.84375 44.78125 31.328125 45.953125 
Q 28.8125 47.125 26.171875 47.125 
Q 22.796875 47.125 20.375 45.953125 
Q 17.96875 44.78125 16.375 42.265625 
Q 14.796875 39.75 14.03125 35.8125 
Q 13.28125 31.890625 13.28125 26.421875 
Q 13.28125 20.703125 14.03125 16.8125 
Q 14.796875 12.9375 16.359375 10.546875 
Q 17.921875 8.15625 20.3125 7.125 
Q 22.703125 6.109375 26.03125 6.109375 
Q 28.65625 6.109375 31.171875 7.21875 
Q 33.6875 8.34375 35.6875 10.78125 
Q 37.703125 13.234375 38.921875 17.09375 
Q 40.140625 20.953125 40.140625 26.421875 
z
" id="LiberationSans-103"/>
      <path d="M 46.390625 14.59375 
Q 46.390625 10.890625 44.9375 7.984375 
Q 43.5 5.078125 40.765625 3.09375 
Q 38.03125 1.125 34.046875 0.0625 
Q 30.078125 -0.984375 24.953125 -0.984375 
Q 20.359375 -0.984375 16.671875 -0.265625 
Q 12.984375 0.4375 10.203125 2 
Q 7.421875 3.5625 5.53125 6.125 
Q 3.65625 8.6875 2.78125 12.40625 
L 10.546875 13.921875 
Q 11.671875 9.671875 15.1875 7.6875 
Q 18.703125 5.71875 24.953125 5.71875 
Q 27.78125 5.71875 30.140625 6.109375 
Q 32.515625 6.5 34.21875 7.453125 
Q 35.9375 8.40625 36.890625 9.984375 
Q 37.84375 11.578125 37.84375 13.921875 
Q 37.84375 16.3125 36.71875 17.84375 
Q 35.59375 19.390625 33.59375 20.40625 
Q 31.59375 21.4375 28.734375 22.1875 
Q 25.875 22.953125 22.46875 23.875 
Q 19.28125 24.703125 16.15625 25.734375 
Q 13.03125 26.765625 10.515625 28.4375 
Q 8.015625 30.125 6.453125 32.609375 
Q 4.890625 35.109375 4.890625 38.875 
Q 4.890625 46.09375 10.03125 49.875 
Q 15.1875 53.65625 25.046875 53.65625 
Q 33.796875 53.65625 38.9375 50.578125 
Q 44.09375 47.515625 45.453125 40.71875 
L 37.546875 39.75 
Q 37.109375 41.796875 35.9375 43.1875 
Q 34.765625 44.578125 33.109375 45.4375 
Q 31.453125 46.296875 29.375 46.65625 
Q 27.296875 47.015625 25.046875 47.015625 
Q 19.09375 47.015625 16.25 45.203125 
Q 13.421875 43.40625 13.421875 39.75 
Q 13.421875 37.59375 14.46875 36.203125 
Q 15.53125 34.8125 17.40625 33.859375 
Q 19.28125 32.90625 21.921875 32.203125 
Q 24.5625 31.5 27.734375 30.71875 
Q 29.828125 30.171875 32.03125 29.5625 
Q 34.234375 28.953125 36.296875 28.09375 
Q 38.375 27.25 40.203125 26.09375 
Q 42.046875 24.953125 43.40625 23.34375 
Q 44.78125 21.734375 45.578125 19.578125 
Q 46.390625 17.4375 46.390625 14.59375 
z
" id="LiberationSans-115"/>
     </defs>
     <g style="fill:#262626;" transform="translate(14.446875 157.769281)rotate(-90)scale(0.1 -0.1)">
      <use xlink:href="#LiberationSans-97"/>
      <use x="55.615234" xlink:href="#LiberationSans-110"/>
      <use x="111.230469" xlink:href="#LiberationSans-97"/>
      <use x="166.845703" xlink:href="#LiberationSans-108"/>
      <use x="189.0625" xlink:href="#LiberationSans-111"/>
      <use x="244.677734" xlink:href="#LiberationSans-103"/>
      <use x="300.292969" xlink:href="#LiberationSans-115"/>
     </g>
    </g>
   </g>
   <g id="line2d_12">
    <path clip-path="url(#p3b71400f3b)" d="M 65.995227 240.26141 
L 66.320207 78.844494 
L 66.645186 171.957332 
L 66.970166 181.145302 
L 67.295145 177.762409 
L 67.620125 164.510123 
L 67.945104 171.730704 
L 68.270084 135.431941 
L 68.595063 229.473738 
L 68.920043 57.282321 
L 69.245023 64.05137 
L 69.570002 64.445753 
L 69.894982 75.08069 
L 70.219961 117.318582 
L 70.544941 202.04806 
L 70.86992 235.156247 
L 71.1949 225.542081 
L 71.844859 147.498049 
L 72.169838 53.093691 
L 72.494818 160.700716 
L 72.819797 143.492646 
L 73.144777 110.599346 
L 73.469756 209.836721 
L 73.794736 64.750482 
L 74.119715 142.646058 
L 74.444695 191.409503 
L 74.769674 64.310264 
L 75.094654 124.046449 
L 75.419633 151.393536 
L 75.744613 132.784249 
L 76.069593 100.347151 
L 76.394572 214.890184 
L 76.719552 77.867698 
L 77.044531 59.603681 
L 77.369511 135.322222 
L 77.69449 113.085261 
L 78.01947 78.831659 
L 78.344449 172.397399 
L 78.669429 53.17496 
L 79.319388 162.908531 
L 79.644367 114.036861 
L 79.969347 144.064829 
L 80.294326 223.165333 
L 80.619306 91.171758 
L 80.944285 135.828432 
L 81.269265 91.175567 
L 81.594244 214.818048 
L 81.919224 140.847645 
L 82.569183 54.048307 
L 82.894163 74.093059 
L 83.219142 77.96045 
L 83.544122 196.964578 
L 83.869101 83.046526 
L 84.194081 212.046059 
L 84.51906 206.485162 
L 84.84404 223.459487 
L 85.169019 79.263189 
L 85.493999 223.818733 
L 85.818978 218.059024 
L 86.143958 197.268023 
L 86.793917 74.906577 
L 87.118896 164.021726 
L 87.443876 139.318102 
L 87.768855 212.58464 
L 88.093835 193.398499 
L 88.418814 218.86649 
L 88.743794 165.624675 
L 89.068774 130.820474 
L 89.393753 189.911907 
L 89.718733 81.501075 
L 90.043712 55.41145 
L 90.368692 221.523036 
L 90.693671 241.256721 
L 91.018651 92.34627 
L 91.34363 207.925232 
L 91.66861 176.576608 
L 91.993589 168.650975 
L 92.318569 67.88095 
L 92.643548 117.605649 
L 92.968528 236.868129 
L 93.293507 241.845061 
L 93.618487 206.20343 
L 93.943466 183.323567 
L 94.268446 151.232629 
L 94.593425 83.074534 
L 94.918405 183.970623 
L 95.243385 172.064323 
L 95.568364 181.169536 
L 95.893344 242.972602 
L 96.218323 60.434211 
L 96.543303 217.888413 
L 96.868282 189.208182 
L 97.193262 219.758209 
L 97.843221 64.877974 
L 98.1682 225.275933 
L 98.49318 159.648695 
L 98.818159 240.385774 
L 99.143139 95.988157 
L 99.468118 121.003193 
L 99.793098 109.723261 
L 100.118077 153.583714 
L 100.443057 69.61065 
L 100.768036 165.694392 
L 101.093016 145.529972 
L 101.417995 110.573886 
L 101.742975 144.28077 
L 102.067955 208.177371 
L 102.392934 183.536023 
L 102.717914 226.897582 
L 103.042893 161.246651 
L 103.367873 127.144298 
L 103.692852 221.836497 
L 104.017832 123.055566 
L 104.342811 72.458173 
L 104.667791 179.551831 
L 104.99277 201.869708 
L 105.31775 72.432338 
L 105.642729 111.218975 
L 105.967709 224.370384 
L 106.617668 114.663505 
L 106.942647 133.897732 
L 107.267627 125.378202 
L 107.592606 135.296079 
L 107.917586 90.748116 
L 108.242566 182.888552 
L 108.892525 53.513006 
L 109.217504 169.475155 
L 109.542484 92.101003 
L 109.867463 197.22518 
L 110.192443 190.32142 
L 110.517422 64.357549 
L 110.842402 239.698337 
L 111.167381 202.758203 
L 111.492361 151.54189 
L 111.81734 167.181694 
L 112.14232 123.328995 
L 112.467299 207.524101 
L 112.792279 231.092884 
L 113.117258 173.454012 
L 113.442238 143.548754 
L 114.092197 128.668011 
L 114.417176 138.859739 
L 114.742156 197.294101 
L 115.067136 97.212843 
L 115.392115 227.768417 
L 115.717095 206.437665 
L 116.042074 102.06872 
L 116.367054 190.740146 
L 116.692033 149.506161 
L 117.017013 181.5824 
L 117.341992 146.900378 
L 117.666972 177.828747 
L 117.991951 52.909478 
L 118.316931 175.741116 
L 118.96689 73.331847 
L 119.291869 121.638088 
L 119.616849 135.542602 
L 119.941828 134.892071 
L 120.266808 148.929887 
L 120.591787 88.911799 
L 120.916767 234.974797 
L 121.241747 73.951727 
L 121.566726 131.600494 
L 121.891706 80.946003 
L 122.216685 242.697248 
L 122.541665 77.010025 
L 122.866644 221.52638 
L 123.191624 105.571965 
L 123.516603 164.350978 
L 123.841583 113.316455 
L 124.166562 123.518045 
L 124.491542 213.181282 
L 124.816521 145.427982 
L 125.141501 191.221584 
L 125.46648 136.588254 
L 125.79146 102.333918 
L 126.116439 229.026546 
L 126.441419 145.206394 
L 126.766398 125.555158 
L 127.091378 187.72278 
L 127.416357 60.858238 
L 128.066317 209.492739 
L 128.391296 223.908675 
L 128.716276 140.210581 
L 129.691214 238.78006 
L 130.016194 135.399304 
L 130.341173 129.226155 
L 130.666153 217.34697 
L 131.316112 61.057076 
L 131.641091 55.979134 
L 132.29105 89.008605 
L 132.61603 204.312963 
L 132.941009 214.524199 
L 133.265989 158.867279 
L 133.915948 80.597711 
L 134.240928 199.954123 
L 134.890887 119.804431 
L 135.215866 158.74261 
L 135.540846 157.083619 
L 135.865825 201.274761 
L 136.190805 54.365386 
L 136.515784 153.032586 
L 136.840764 141.930875 
L 137.165743 202.539839 
L 137.490723 145.520009 
L 137.815702 195.44263 
L 138.140682 205.669425 
L 138.465661 191.512535 
L 138.790641 244.169741 
L 139.11562 134.714274 
L 139.4406 169.953351 
L 139.765579 71.336039 
L 140.090559 236.849285 
L 140.415538 236.368336 
L 140.740518 73.808277 
L 141.065498 220.271091 
L 141.390477 244.285399 
L 141.715457 210.187837 
L 142.040436 85.768182 
L 142.365416 89.85056 
L 142.690395 179.087212 
L 143.015375 115.832285 
L 143.340354 146.848582 
L 143.665334 70.169711 
L 143.990313 233.817454 
L 144.315293 87.831749 
L 144.640272 211.791921 
L 144.965252 169.154531 
L 145.290231 207.671657 
L 145.615211 109.160785 
L 145.94019 113.846226 
L 146.26517 139.007198 
L 146.590149 110.019499 
L 146.915129 121.323686 
L 147.240109 94.918696 
L 147.565088 198.518176 
L 147.890068 161.960588 
L 148.215047 215.451836 
L 148.865006 109.338775 
L 149.189986 111.325861 
L 149.514965 107.846587 
L 149.839945 185.137772 
L 150.164924 116.954431 
L 150.489904 173.81419 
L 150.814883 62.500179 
L 151.139863 178.463311 
L 151.464842 128.373879 
L 152.114801 69.847081 
L 152.439781 160.221314 
L 152.76476 175.160935 
L 153.08974 161.745385 
L 153.414719 182.257853 
L 154.064679 64.771748 
L 154.389658 220.381751 
L 155.039617 71.536722 
L 155.364597 225.389011 
L 156.014556 77.790695 
L 156.339535 70.995902 
L 156.989494 239.888637 
L 157.314474 224.323254 
L 157.639453 131.518599 
L 157.964433 220.808545 
L 158.289412 215.877926 
L 158.614392 95.753024 
L 158.939371 99.886127 
L 159.264351 82.122843 
L 159.58933 224.304743 
L 159.91431 206.477983 
L 160.23929 84.015546 
L 160.564269 105.59712 
L 160.889249 89.225138 
L 161.214228 53.770303 
L 161.539208 77.944635 
L 161.864187 144.299558 
L 162.189167 184.751825 
L 162.514146 134.805815 
L 162.839126 121.512397 
L 163.164105 180.017052 
L 163.489085 95.980669 
L 163.814064 226.808974 
L 164.139044 94.349458 
L 164.464023 238.529271 
L 165.113982 78.522428 
L 165.438962 228.016304 
L 165.763941 144.825105 
L 166.088921 213.953908 
L 166.4139 72.083231 
L 166.73888 84.13436 
L 167.06386 64.540164 
L 167.388839 75.909293 
L 167.713819 102.613633 
L 168.038798 209.035136 
L 168.363778 186.346336 
L 168.688757 148.853794 
L 169.013737 131.098048 
L 169.338716 93.811135 
L 169.663696 200.919331 
L 169.988675 219.956117 
L 170.313655 151.601794 
L 170.638634 214.252924 
L 170.963614 110.873363 
L 171.288593 133.657171 
L 171.613573 101.735027 
L 171.938552 232.46456 
L 172.263532 58.602334 
L 172.588511 244.701036 
L 173.238471 113.593782 
L 173.56345 235.993748 
L 173.88843 228.62314 
L 174.213409 229.909491 
L 174.538389 132.523084 
L 174.863368 71.869185 
L 175.188348 137.552778 
L 175.513327 128.267177 
L 176.163286 241.086748 
L 176.488266 240.53241 
L 176.813245 73.338262 
L 177.138225 224.914859 
L 177.463204 51.832774 
L 177.788184 212.983344 
L 178.113163 114.558399 
L 178.438143 61.639139 
L 178.763122 174.812893 
L 179.088102 103.022625 
L 179.413081 177.018362 
L 179.738061 185.875936 
L 180.063041 205.772086 
L 180.38802 86.335582 
L 180.713 195.049575 
L 181.037979 190.078074 
L 181.362959 51.990888 
L 181.687938 181.56066 
L 182.012918 163.144693 
L 182.337897 53.710543 
L 182.662877 173.460388 
L 182.987856 174.067734 
L 183.312836 85.027737 
L 183.637815 184.527628 
L 183.962795 199.602436 
L 184.287774 163.06063 
L 184.612754 109.541513 
L 184.937733 236.360094 
L 185.262713 172.569977 
L 185.587692 177.908013 
L 185.912672 197.474206 
L 186.237652 118.483559 
L 186.562631 188.760129 
L 186.887611 127.657542 
L 187.21259 147.410503 
L 187.53757 202.804014 
L 187.862549 193.278856 
L 188.512508 233.777764 
L 188.837488 125.254481 
L 189.162467 114.914462 
L 189.487447 212.679052 
L 190.137406 55.248174 
L 190.462385 230.349199 
L 190.787365 150.104677 
L 191.112344 103.29173 
L 191.437324 235.826472 
L 191.762303 94.565393 
L 192.087283 55.744628 
L 192.412262 227.631914 
L 192.737242 86.085764 
L 193.062222 171.669953 
L 193.387201 216.900653 
L 193.712181 149.560221 
L 194.03716 230.905428 
L 194.36214 143.983541 
L 194.687119 240.967987 
L 195.012099 104.145698 
L 195.337078 150.56789 
L 195.662058 156.168071 
L 195.987037 206.85481 
L 196.312017 175.010842 
L 196.636996 209.617679 
L 196.961976 102.838027 
L 197.286955 206.308141 
L 197.611935 125.724243 
L 197.936914 190.763032 
L 198.261894 117.963693 
L 198.911853 163.016574 
L 199.236833 114.873538 
L 199.561812 164.505175 
L 199.886792 86.251532 
L 200.211771 103.955293 
L 200.536751 140.407456 
L 200.86173 75.508361 
L 201.18671 84.806401 
L 201.511689 142.104986 
L 201.836669 231.497862 
L 202.161648 135.515769 
L 202.486628 176.169492 
L 202.811607 140.508937 
L 203.136587 119.864191 
L 203.461566 120.306319 
L 203.786546 114.772606 
L 204.111525 113.664419 
L 204.436505 223.62063 
L 204.761484 207.718886 
L 205.086464 123.064462 
L 205.411443 165.961584 
L 205.736423 97.540422 
L 206.061403 220.605859 
L 206.386382 207.75541 
L 206.711362 136.968711 
L 207.036341 148.102822 
L 207.361321 193.311439 
L 207.6863 165.928624 
L 208.01128 237.953867 
L 208.336259 237.557084 
L 208.661239 226.38974 
L 208.986218 133.433094 
L 209.311198 78.082603 
L 209.636177 194.502439 
L 209.961157 238.154773 
L 210.286136 108.000876 
L 210.611116 79.696136 
L 210.936095 218.047197 
L 211.261075 170.287531 
L 211.586054 214.080186 
L 211.911034 224.184696 
L 212.236014 119.663936 
L 212.560993 58.054679 
L 212.885973 113.877199 
L 213.210952 54.721544 
L 213.535932 160.902928 
L 213.860911 71.494077 
L 214.185891 205.139314 
L 214.51087 221.957177 
L 214.83585 109.178987 
L 215.160829 173.053737 
L 215.485809 183.417001 
L 215.810788 115.205393 
L 216.135768 180.36971 
L 216.460747 134.249929 
L 216.785727 186.934231 
L 217.110706 93.507457 
L 217.435686 184.439281 
L 217.760665 141.496404 
L 218.085645 240.231207 
L 218.410624 91.969348 
L 218.735604 125.032767 
L 219.060584 207.617659 
L 219.385563 203.154434 
L 219.710543 194.064605 
L 220.035522 133.483703 
L 220.360502 138.926421 
L 220.685481 191.871064 
L 221.010461 110.810573 
L 221.33544 73.197206 
L 221.66042 236.307535 
L 221.985399 164.220716 
L 222.310379 130.20616 
L 222.635358 131.572911 
L 222.960338 240.933541 
L 223.285317 204.081812 
L 223.610297 232.774342 
L 223.935276 134.943073 
L 224.260256 120.199965 
L 224.585235 213.886249 
L 224.910215 180.460942 
L 225.235195 181.079676 
L 225.560174 86.554067 
L 225.885154 207.150366 
L 226.535113 93.666044 
L 226.860092 84.668206 
L 227.185072 116.114864 
L 227.510051 186.920217 
L 227.835031 85.92822 
L 228.16001 101.530884 
L 228.48499 108.80299 
L 228.809969 231.712435 
L 229.134949 236.355878 
L 229.459928 110.559211 
L 229.784908 62.441774 
L 230.109887 95.44305 
L 230.434867 84.302184 
L 231.084826 185.944402 
L 231.409805 113.959905 
L 231.734785 107.355829 
L 232.059765 114.418823 
L 232.384744 62.072495 
L 232.709724 173.869611 
L 233.034703 237.05177 
L 233.359683 69.454138 
L 233.684662 213.740225 
L 234.009642 110.182449 
L 234.334621 76.252268 
L 234.659601 184.872739 
L 234.98458 84.506731 
L 235.30956 180.644783 
L 235.634539 91.481837 
L 235.959519 231.231228 
L 236.284498 118.299202 
L 236.609478 114.075422 
L 236.934457 149.901166 
L 237.584416 66.610777 
L 237.909396 103.134197 
L 238.234376 59.258523 
L 238.559355 158.160319 
L 238.884335 142.789559 
L 239.209314 193.824282 
L 239.534294 54.569723 
L 239.859273 234.065679 
L 240.184253 175.520653 
L 240.509232 187.273355 
L 240.834212 170.140144 
L 241.159191 67.665186 
L 241.484171 173.703932 
L 241.80915 67.808172 
L 242.13413 163.03582 
L 242.459109 79.808693 
L 242.784089 144.051312 
L 243.109068 184.639039 
L 243.434048 158.018051 
L 243.759027 162.834766 
L 244.084007 194.562092 
L 244.408986 188.827908 
L 244.733966 208.733285 
L 245.058946 179.884249 
L 245.383925 124.248004 
L 245.708905 170.131182 
L 246.358864 54.304182 
L 246.683843 171.955549 
L 247.008823 155.454391 
L 247.333802 213.04362 
L 247.658782 169.039868 
L 247.983761 104.488883 
L 248.308741 202.762552 
L 248.63372 209.582064 
L 248.9587 172.095641 
L 249.283679 86.776462 
L 249.608659 124.392419 
L 249.933638 59.975502 
L 250.258618 70.207243 
L 250.583597 215.546233 
L 250.908577 236.49325 
L 251.233557 167.712754 
L 251.558536 143.987771 
L 251.883516 145.243396 
L 252.208495 218.831476 
L 252.533475 220.623578 
L 252.858454 235.662198 
L 253.183434 80.562748 
L 253.508413 61.872818 
L 253.833393 222.385311 
L 254.158372 203.588676 
L 254.483352 227.366658 
L 254.808331 75.423193 
L 255.133311 59.757638 
L 255.45829 194.198936 
L 255.78327 186.137759 
L 256.108249 174.739509 
L 256.758208 113.048582 
L 257.083188 147.400136 
L 257.408167 61.244424 
L 257.733147 225.431661 
L 258.058127 90.643145 
L 258.383106 180.176984 
L 258.708086 171.869394 
L 259.358045 65.416001 
L 259.683024 106.539839 
L 260.008004 95.030869 
L 260.332983 99.869309 
L 260.657963 182.782133 
L 260.982942 98.682683 
L 261.307922 93.360234 
L 261.632901 141.803868 
L 261.957881 141.156478 
L 262.28286 98.144392 
L 262.60784 87.088711 
L 262.932819 179.653744 
L 263.257799 90.072767 
L 263.582778 87.633075 
L 263.907758 199.536936 
L 264.232738 106.395163 
L 264.557717 208.717852 
L 264.882697 226.752003 
L 265.532656 69.414042 
L 265.857635 237.861705 
L 266.182615 85.261704 
L 266.507594 146.998762 
L 266.832574 78.626795 
L 267.157553 81.987 
L 267.482533 75.850559 
L 267.807512 96.378658 
L 268.132492 82.08048 
L 268.457471 210.745088 
L 268.782451 186.085805 
L 269.10743 197.924106 
L 269.43241 101.480288 
L 269.757389 215.062816 
L 270.082369 209.548548 
L 270.407348 75.141053 
L 270.732328 108.530397 
L 271.057308 75.832585 
L 271.382287 217.819087 
L 271.707267 167.734809 
L 272.032246 190.079423 
L 272.357226 242.834526 
L 272.682205 189.814791 
L 273.007185 171.476713 
L 273.332164 226.912017 
L 273.657144 135.421011 
L 273.982123 170.78428 
L 274.307103 235.739187 
L 274.632082 108.897568 
L 274.957062 104.016759 
L 275.282041 83.724249 
L 275.607021 151.036485 
L 275.932 57.838172 
L 276.25698 68.370024 
L 276.581959 138.340883 
L 276.906939 158.866444 
L 277.231919 244.116733 
L 277.556898 107.544176 
L 277.881878 135.716752 
L 278.206857 63.840498 
L 278.531837 130.068807 
L 278.856816 53.170272 
L 279.181796 79.99186 
L 279.506775 60.743562 
L 279.831755 181.492691 
L 280.156734 215.893703 
L 280.481714 90.977534 
L 280.806693 93.03685 
L 281.131673 203.911497 
L 281.456652 97.175241 
L 281.781632 132.433645 
L 282.106611 223.573613 
L 282.75657 65.076307 
L 283.08155 147.001398 
L 283.406529 92.554211 
L 283.731509 239.12508 
L 284.056489 104.247946 
L 284.381468 62.047739 
L 284.706448 148.338218 
L 285.031427 179.554497 
L 285.681386 67.946187 
L 286.006366 210.601478 
L 286.331345 166.825469 
L 286.656325 214.552152 
L 286.981304 148.892555 
L 287.306284 140.449314 
L 287.631263 62.55582 
L 287.956243 165.123821 
L 288.281222 135.330525 
L 288.606202 73.926134 
L 288.931181 182.699878 
L 289.256161 114.649177 
L 289.58114 98.63804 
L 289.90612 180.939915 
L 290.2311 212.999052 
L 290.556079 147.685843 
L 290.881059 175.871496 
L 291.206038 193.298846 
L 291.531018 56.919435 
L 291.855997 147.831784 
L 292.180977 79.479024 
L 292.505956 207.02343 
L 292.830936 63.474235 
L 293.155915 91.448366 
L 293.480895 88.69733 
L 293.805874 169.512577 
L 294.455833 130.238143 
L 294.780813 92.348464 
L 295.105792 80.910598 
L 295.430772 229.646386 
L 295.755751 70.299463 
L 296.080731 63.84966 
L 296.73069 208.67605 
L 297.05567 86.821729 
L 297.380649 138.874088 
L 297.705629 87.056767 
L 298.030608 87.517499 
L 298.355588 227.971155 
L 298.680567 127.601623 
L 299.005547 151.498755 
L 299.330526 62.186232 
L 299.655506 187.477044 
L 299.980485 204.962631 
L 300.305465 71.645112 
L 300.630444 216.013389 
L 300.955424 112.265661 
L 301.280403 186.825293 
L 301.605383 135.159001 
L 301.930362 125.827236 
L 302.255342 164.187412 
L 302.580321 56.621646 
L 302.905301 219.270173 
L 303.230281 169.197321 
L 303.55526 161.674558 
L 303.88024 122.966861 
L 304.205219 166.137639 
L 304.530199 225.982891 
L 304.855178 61.933419 
L 305.180158 164.436304 
L 305.505137 178.596928 
L 305.830117 158.524956 
L 306.155096 202.918639 
L 306.480076 225.368343 
L 306.805055 216.039835 
L 307.130035 212.552728 
L 307.455014 206.568929 
L 308.104973 124.345719 
L 308.429953 123.383375 
L 308.754932 244.683282 
L 309.079912 67.040195 
L 309.404891 85.966685 
L 309.729871 58.748853 
L 310.054851 175.257152 
L 310.37983 116.4557 
L 310.70481 212.289228 
L 311.029789 87.088293 
L 311.354769 213.572663 
L 312.004728 150.01517 
L 312.329707 130.011022 
L 312.654687 136.743318 
L 312.979666 225.006766 
L 313.304646 163.356602 
L 313.629625 66.663712 
L 313.954605 76.413524 
L 314.279584 130.734077 
L 314.604564 134.294992 
L 314.929543 223.158849 
L 315.254523 206.070061 
L 315.579502 195.965381 
L 316.229462 103.616236 
L 316.879421 220.383673 
L 317.2044 159.947329 
L 317.52938 213.328529 
L 317.854359 99.798297 
L 318.179339 212.582429 
L 318.829298 110.935712 
L 319.154277 200.680424 
L 319.479257 230.035139 
L 319.804236 136.036023 
L 320.129216 234.24587 
L 320.454195 131.315677 
L 320.779175 99.344729 
L 321.104154 181.173769 
L 321.429134 150.494638 
L 321.754113 65.534693 
L 322.079093 153.820511 
L 322.404072 52.456897 
L 322.729052 214.414775 
L 323.054032 107.941691 
L 323.379011 118.805475 
L 323.703991 76.425815 
L 324.02897 226.868888 
L 324.35395 190.647461 
L 324.678929 219.203415 
L 325.003909 64.698759 
L 325.328888 162.3999 
L 325.653868 69.141336 
L 325.978847 187.908062 
L 326.303827 220.324438 
L 326.628806 187.49711 
L 327.278765 81.648316 
L 327.603745 170.3564 
L 327.928724 68.2264 
L 328.253704 197.587307 
L 328.578683 110.911196 
L 328.903663 102.775669 
L 329.228643 191.851928 
L 329.553622 239.499346 
L 329.878602 174.244182 
L 330.203581 235.983317 
L 330.528561 70.937727 
L 330.85354 60.757581 
L 331.17852 102.839992 
L 331.503499 104.517408 
L 331.828479 198.231508 
L 332.153458 230.441124 
L 332.478438 89.968129 
L 332.803417 136.834197 
L 333.453376 94.301575 
L 334.103335 216.817627 
L 334.428315 91.331585 
L 334.753294 157.166192 
L 335.078274 85.180182 
L 335.403253 160.265578 
L 335.728233 202.837477 
L 336.053213 211.713533 
L 336.378192 101.192186 
L 337.028151 166.650174 
L 337.353131 149.767879 
L 337.67811 138.671341 
L 338.00309 198.516287 
L 338.328069 171.750196 
L 338.653049 188.293019 
L 339.303008 148.138666 
L 339.627987 211.259708 
L 339.952967 168.789128 
L 340.277946 170.336386 
L 340.602926 189.529119 
L 340.927905 52.082215 
L 341.252885 230.498624 
L 341.577864 120.670424 
L 341.902844 211.051159 
L 342.227824 82.749563 
L 342.552803 68.344484 
L 342.877783 167.253002 
L 343.202762 85.844907 
L 343.527742 196.492082 
L 343.852721 217.681494 
L 344.177701 183.76604 
L 344.50268 178.789783 
L 344.82766 168.047875 
L 345.152639 172.754609 
L 345.477619 165.388243 
L 345.802598 107.729594 
L 346.127578 197.32725 
L 346.452557 241.118687 
L 346.777537 150.237847 
L 347.102516 158.222257 
L 347.427496 233.114969 
L 347.752475 218.890481 
L 348.077455 146.333283 
L 348.402434 199.416344 
L 348.727414 75.40465 
L 349.052394 211.272257 
L 349.377373 240.820248 
L 350.027332 54.461415 
L 351.002271 241.448097 
L 351.32725 151.150719 
L 351.65223 204.872755 
L 351.977209 119.743888 
L 352.302189 132.233957 
L 352.627168 193.539725 
L 352.952148 231.413939 
L 353.277127 99.051379 
L 353.602107 131.760248 
L 353.927086 82.247561 
L 354.252066 194.584093 
L 354.577045 118.758508 
L 354.902025 221.807453 
L 355.227005 188.409066 
L 355.551984 118.049169 
L 355.876964 85.439245 
L 356.201943 182.792378 
L 356.526923 90.595294 
L 356.851902 113.956902 
L 357.176882 177.439267 
L 357.501861 75.636404 
L 357.826841 146.466744 
L 358.15182 119.648834 
L 358.4768 149.08988 
L 358.801779 157.367913 
L 359.126759 81.118754 
L 359.451738 187.850686 
L 359.776718 237.635962 
L 360.101697 74.983267 
L 360.426677 85.546764 
L 360.751656 173.988937 
L 361.076636 208.926732 
L 361.401615 114.384934 
L 361.726595 229.508341 
L 362.051575 162.95559 
L 362.376554 228.138407 
L 362.701534 129.359371 
L 363.026513 239.453336 
L 363.351493 123.315753 
L 363.676472 114.834042 
L 364.001452 150.727082 
L 364.326431 210.941447 
L 364.651411 225.142203 
L 365.30137 154.959101 
L 365.626349 120.813722 
L 365.951329 244.460942 
L 366.276308 107.53079 
L 366.601288 107.212872 
L 366.926267 158.946333 
L 367.251247 178.45558 
L 367.576226 82.21239 
L 367.901206 93.347362 
L 368.226186 55.018351 
L 368.551165 172.952946 
L 368.876145 69.76506 
L 369.201124 227.84141 
L 369.526104 165.326201 
L 369.851083 154.9268 
L 370.176063 159.653056 
L 370.501042 124.114436 
L 370.826022 211.867316 
L 371.151001 77.554848 
L 371.475981 138.261328 
L 371.80096 70.271074 
L 372.12594 244.194434 
L 372.450919 123.171121 
L 372.775899 165.134876 
L 373.100878 147.263463 
L 373.425858 101.214804 
L 373.750837 200.882269 
L 374.075817 205.174962 
L 374.400796 109.084892 
L 374.725776 144.125455 
L 375.050756 199.630795 
L 375.375735 151.330087 
L 375.700715 156.048709 
L 376.025694 111.315585 
L 376.350674 244.188751 
L 376.675653 131.510203 
L 377.000633 127.860755 
L 377.650592 73.160688 
L 377.975571 159.785107 
L 378.300551 178.62654 
L 378.62553 224.963484 
L 378.95051 179.723114 
L 379.275489 231.49073 
L 379.600469 89.830088 
L 379.925448 89.022578 
L 380.250428 164.212803 
L 380.900387 221.934856 
L 381.225367 80.489974 
L 381.550346 75.424523 
L 381.875326 193.332185 
L 382.200305 124.7583 
L 382.525285 194.805235 
L 382.850264 201.272935 
L 383.175244 240.61086 
L 383.500223 133.362302 
L 383.825203 215.776887 
L 384.150182 242.31558 
L 384.475162 224.47527 
L 384.800141 184.172901 
L 385.125121 115.613858 
L 385.4501 205.614099 
L 385.77508 73.477042 
L 386.100059 189.049816 
L 386.425039 180.805253 
L 386.750018 202.652135 
L 387.074998 195.740526 
L 387.399977 230.400702 
L 387.724957 187.837923 
L 388.049937 78.873332 
L 388.374916 111.898152 
L 388.699896 75.854148 
L 389.024875 224.473756 
L 389.349855 156.809117 
L 389.674834 200.476555 
L 389.999814 105.572431 
L 390.324793 57.533562 
L 390.649773 87.411137 
L 390.649773 87.411137 
" style="fill:none;stroke:#1f77b4;stroke-linecap:round;stroke-width:1.5;"/>
   </g>
   <g id="line2d_13">
    <path clip-path="url(#p3b71400f3b)" d="M 65.995227 148.030317 
L 66.320207 19.296 
L 66.645186 135.78288 
L 66.970166 157.323209 
L 67.295145 159.611475 
L 67.620125 150.543363 
L 67.945104 164.347834 
L 68.270084 139.537275 
L 68.595063 250.419972 
L 68.920043 96.728671 
L 69.245023 115.99603 
L 69.570002 116.010218 
L 69.894982 111.669428 
L 70.219961 128.63617 
L 70.544941 186.786693 
L 70.86992 201.980139 
L 71.1949 188.943036 
L 71.519879 155.509921 
L 71.844859 137.139471 
L 72.169838 57.195255 
L 72.494818 172.844869 
L 72.819797 158.014111 
L 73.144777 124.947551 
L 73.469756 224.034899 
L 73.794736 79.630172 
L 74.119715 158.651939 
L 74.444695 208.928737 
L 74.769674 83.210635 
L 75.094654 142.878586 
L 75.419633 168.927688 
L 75.744613 149.654768 
L 76.069593 118.89808 
L 76.394572 238.521259 
L 76.719552 109.115279 
L 77.044531 97.70447 
L 77.369511 177.064752 
L 77.69449 155.562013 
L 78.01947 120.188008 
L 78.344449 211.170625 
L 78.669429 87.396301 
L 79.319388 180.709246 
L 79.644367 122.983653 
L 79.969347 146.655026 
L 80.294326 223.651974 
L 80.619306 93.681001 
L 80.944285 142.169935 
L 81.269265 101.934653 
L 81.594244 232.480263 
L 81.919224 169.779641 
L 82.569183 104.938761 
L 82.894163 124.087702 
L 83.219142 116.540037 
L 83.544122 217.080661 
L 83.869101 82.46601 
L 84.194081 192.866281 
L 84.51906 174.535308 
L 84.84404 185.890686 
L 85.169019 41.050987 
L 85.493999 187.91339 
L 85.818978 188.367294 
L 86.143958 178.237117 
L 86.793917 72.869368 
L 87.118896 158.756673 
L 87.443876 124.054784 
L 87.768855 186.261505 
L 88.093835 160.817405 
L 88.418814 188.107282 
L 88.743794 144.049152 
L 89.068774 121.903455 
L 89.393753 192.288398 
L 89.718733 89.165883 
L 90.043712 59.617061 
L 90.368692 216.254109 
L 90.693671 227.386259 
L 91.018651 74.985903 
L 91.34363 191.868786 
L 91.66861 164.784081 
L 91.993589 160.837912 
L 92.318569 58.720837 
L 92.643548 99.202404 
L 92.968528 205.545329 
L 93.293507 202.121749 
L 93.618487 167.529951 
L 93.943466 153.552107 
L 94.268446 132.229232 
L 94.593425 70.48502 
L 94.918405 171.052976 
L 95.243385 154.45796 
L 95.568364 158.623006 
L 95.893344 217.543279 
L 96.218323 33.453398 
L 96.543303 189.453953 
L 96.868282 160.680422 
L 97.193262 194.282388 
L 97.843221 47.036551 
L 98.1682 207.803596 
L 98.49318 143.876784 
L 98.818159 231.498104 
L 99.143139 98.627667 
L 99.468118 135.58893 
L 99.793098 132.841827 
L 100.118077 180.44795 
L 100.443057 95.361072 
L 100.768036 186.010588 
L 101.093016 157.120905 
L 101.417995 110.674556 
L 101.742975 130.83381 
L 102.067955 181.930065 
L 102.392934 149.267925 
L 102.717914 191.831826 
L 103.042893 131.913034 
L 103.367873 107.229073 
L 103.692852 212.433487 
L 104.017832 123.070652 
L 104.342811 78.230462 
L 104.667791 186.824433 
L 104.99277 208.487749 
L 105.31775 77.270678 
L 105.642729 112.773876 
L 105.967709 223.137115 
L 106.617668 119.562111 
L 106.942647 145.376593 
L 107.267627 142.840715 
L 107.592606 157.477187 
L 107.917586 116.466262 
L 108.242566 211.414287 
L 108.892525 81.835137 
L 109.217504 191.086511 
L 109.542484 103.370462 
L 109.867463 197.457722 
L 110.192443 181.030195 
L 110.517422 47.161337 
L 110.842402 216.184914 
L 111.492361 124.317122 
L 111.81734 139.998247 
L 112.14232 94.589708 
L 112.467299 177.011387 
L 112.792279 202.306562 
L 113.117258 151.723005 
L 113.442238 131.760391 
L 113.767217 132.830077 
L 114.092197 128.685777 
L 114.417176 136.971047 
L 114.742156 189.814649 
L 115.067136 82.828473 
L 115.392115 207.729635 
L 115.717095 184.154829 
L 116.042074 80.739025 
L 116.367054 171.771081 
L 116.692033 133.877604 
L 117.017013 171.267005 
L 117.341992 144.543182 
L 117.666972 185.337917 
L 117.991951 70.05577 
L 118.316931 200.489724 
L 118.96689 104.706331 
L 119.291869 150.652399 
L 119.616849 159.427881 
L 119.941828 153.273001 
L 120.266808 163.065817 
L 120.591787 100.704609 
L 120.916767 246.652014 
L 121.241747 86.826632 
L 121.566726 144.228891 
L 121.891706 90.20247 
L 122.216685 247.170564 
L 122.541665 78.119897 
L 122.866644 221.84676 
L 123.191624 106.936588 
L 123.516603 166.592615 
L 123.841583 114.092647 
L 124.166562 119.943833 
L 124.491542 204.391847 
L 124.816521 133.45145 
L 125.141501 179.181764 
L 125.46648 126.371146 
L 125.79146 94.131298 
L 126.116439 223.162298 
L 126.441419 143.103363 
L 126.766398 127.838522 
L 127.091378 192.246743 
L 127.416357 62.45972 
L 128.066317 189.649905 
L 128.391296 193.317177 
L 128.716276 102.401407 
L 129.366235 165.006991 
L 129.691214 201.47059 
L 130.016194 109.43467 
L 130.341173 118.99395 
L 130.666153 225.992493 
L 131.316112 106.604571 
L 131.641091 107.828851 
L 131.966071 118.209381 
L 132.29105 116.920128 
L 132.61603 213.318119 
L 132.941009 211.134289 
L 133.265989 152.544697 
L 133.590968 121.674409 
L 133.915948 80.117878 
L 134.240928 200.441851 
L 134.890887 120.373696 
L 135.215866 159.756424 
L 135.540846 159.64433 
L 135.865825 206.487415 
L 136.190805 60.751795 
L 136.515784 155.816588 
L 136.840764 135.965363 
L 137.165743 185.188021 
L 137.490723 116.81784 
L 137.815702 157.390906 
L 138.140682 162.261692 
L 138.465661 148.485613 
L 138.790641 207.339908 
L 139.11562 107.059163 
L 139.4406 149.317688 
L 139.765579 51.578582 
L 140.090559 212.541977 
L 140.415538 206.160328 
L 140.740518 39.059137 
L 141.065498 183.859882 
L 141.390477 212.312215 
L 141.715457 190.487664 
L 142.040436 82.109837 
L 142.365416 99.352337 
L 142.690395 195.69352 
L 143.015375 134.103553 
L 143.340354 162.180594 
L 143.665334 78.327234 
L 143.990313 232.284741 
L 144.315293 77.071484 
L 144.640272 195.236674 
L 144.965252 152.852987 
L 145.290231 198.616052 
L 145.615211 111.837516 
L 145.94019 127.987466 
L 146.26517 160.495537 
L 146.590149 132.929289 
L 146.915129 139.194774 
L 147.240109 102.375373 
L 147.565088 193.956548 
L 147.890068 149.142671 
L 148.215047 201.956223 
L 148.865006 112.224781 
L 149.189986 121.756622 
L 149.514965 121.401739 
L 149.839945 199.084626 
L 150.164924 131.545418 
L 150.489904 190.651235 
L 150.814883 82.526373 
L 151.139863 201.640076 
L 151.464842 153.92792 
L 152.114801 90.097075 
L 152.439781 171.405693 
L 152.76476 177.583446 
L 153.08974 159.878543 
L 153.414719 181.507505 
L 154.064679 71.053759 
L 154.389658 228.042954 
L 155.039617 82.184571 
L 155.364597 238.685487 
L 156.014556 94.344689 
L 156.339535 79.672164 
L 156.989494 215.698046 
L 157.314474 189.118008 
L 157.639453 94.270076 
L 157.964433 189.689565 
L 158.289412 196.908517 
L 158.614392 90.454601 
L 158.939371 103.852663 
L 159.264351 88.895051 
L 159.58933 232.084713 
L 159.91431 220.182172 
L 160.23929 110.028051 
L 160.564269 145.616162 
L 160.889249 138.898938 
L 161.214228 104.67754 
L 161.539208 121.008889 
L 161.864187 174.075532 
L 162.189167 201.547935 
L 162.514146 142.346389 
L 162.839126 123.069042 
L 163.164105 176.941783 
L 163.489085 88.445901 
L 163.814064 214.998967 
L 164.139044 79.253808 
L 164.464023 222.078226 
L 165.113982 64.660925 
L 165.438962 217.826394 
L 165.763941 143.086518 
L 166.088921 227.041036 
L 166.4139 103.129878 
L 166.73888 129.440115 
L 167.06386 114.348541 
L 167.388839 118.639926 
L 167.713819 129.993926 
L 168.038798 219.817189 
L 169.338716 79.989224 
L 169.663696 180.869911 
L 169.988675 196.225312 
L 170.313655 129.989045 
L 170.638634 200.144445 
L 170.963614 106.116405 
L 171.288593 135.39028 
L 171.613573 104.159846 
L 171.938552 230.059147 
L 172.263532 47.586745 
L 172.588511 223.325959 
L 173.238471 74.449244 
L 173.56345 192.848087 
L 173.88843 188.824829 
L 174.213409 202.134774 
L 174.538389 120.799967 
L 174.863368 71.743942 
L 175.188348 138.589089 
L 175.513327 120.524786 
L 175.838307 157.485107 
L 176.163286 211.947574 
L 176.488266 211.964527 
L 176.813245 53.616131 
L 177.138225 217.588885 
L 177.463204 56.438806 
L 177.788184 227.128113 
L 178.113163 134.657132 
L 178.438143 82.301561 
L 178.763122 189.736184 
L 179.088102 107.730046 
L 179.413081 170.731957 
L 179.738061 171.845926 
L 180.063041 189.60411 
L 180.38802 72.858179 
L 180.713 187.172961 
L 181.037979 189.533287 
L 181.362959 58.783246 
L 181.687938 193.794508 
L 182.012918 178.365396 
L 182.337897 68.928234 
L 182.662877 185.226438 
L 182.987856 179.926975 
L 183.312836 83.55474 
L 183.637815 175.029221 
L 183.962795 183.037627 
L 184.287774 141.306951 
L 184.612754 83.625137 
L 184.937733 207.293298 
L 185.262713 143.020141 
L 185.587692 151.405171 
L 185.912672 176.393919 
L 186.237652 102.663849 
L 186.562631 175.267716 
L 186.887611 111.748272 
L 187.21259 124.334612 
L 187.53757 170.369855 
L 187.862549 153.730664 
L 188.187529 171.301573 
L 188.512508 199.757433 
L 188.837488 102.53529 
L 189.162467 103.747842 
L 189.487447 210.52969 
L 190.137406 60.023853 
L 190.462385 233.470915 
L 190.787365 151.966713 
L 191.112344 106.437639 
L 191.437324 242.69544 
L 191.762303 105.438877 
L 192.087283 67.066067 
L 192.412262 233.79055 
L 192.737242 82.619059 
L 193.062222 156.473534 
L 193.387201 190.866404 
L 193.712181 116.452876 
L 194.03716 195.765023 
L 194.36214 111.550392 
L 194.687119 214.346751 
L 195.012099 83.272616 
L 195.337078 131.974962 
L 195.662058 135.656054 
L 195.987037 182.916332 
L 196.312017 149.561755 
L 196.636996 185.942558 
L 196.961976 83.142031 
L 197.286955 191.175246 
L 197.611935 115.230007 
L 197.936914 185.146954 
L 198.261894 117.348285 
L 198.911853 172.741592 
L 199.236833 131.226654 
L 199.561812 188.683828 
L 199.886792 118.033475 
L 200.211771 140.909036 
L 200.536751 178.291981 
L 200.86173 108.76078 
L 201.18671 107.412174 
L 201.511689 150.773202 
L 201.836669 228.807042 
L 202.161648 128.632619 
L 202.486628 172.409234 
L 202.811607 143.997449 
L 203.136587 130.28839 
L 203.461566 133.306925 
L 204.111525 114.093633 
L 204.436505 214.810299 
L 204.761484 193.872873 
L 205.086464 108.777639 
L 205.411443 152.296296 
L 205.736423 82.442871 
L 206.061403 202.218611 
L 206.386382 186.247634 
L 206.711362 112.519544 
L 207.036341 118.610523 
L 207.361321 155.724848 
L 207.6863 119.38665 
L 208.01128 185.87222 
L 208.336259 187.440965 
L 208.661239 186.349011 
L 208.986218 106.966907 
L 209.311198 62.164489 
L 209.636177 183.648559 
L 209.961157 229.116661 
L 210.286136 98.643389 
L 210.611116 66.097627 
L 210.936095 196.936528 
L 211.261075 143.727501 
L 211.586054 190.161129 
L 211.911034 213.475983 
L 212.236014 129.372168 
L 212.560993 87.363413 
L 212.885973 154.478853 
L 213.210952 95.315523 
L 213.535932 191.580446 
L 213.860911 86.435677 
L 214.185891 204.140113 
L 214.51087 210.037931 
L 214.83585 92.982227 
L 215.160829 157.271923 
L 215.485809 170.460613 
L 215.810788 105.856693 
L 216.135768 174.112442 
L 216.460747 130.06274 
L 216.785727 183.619707 
L 217.110706 89.307425 
L 217.435686 177.493447 
L 217.760665 131.294616 
L 218.085645 227.760635 
L 218.410624 77.445424 
L 218.735604 106.63198 
L 219.060584 184.309728 
L 219.710543 172.136254 
L 220.035522 119.09512 
L 220.360502 133.056366 
L 220.685481 193.077617 
L 221.010461 115.64512 
L 221.33544 76.46218 
L 221.66042 233.655712 
L 221.985399 154.03729 
L 222.310379 111.611066 
L 222.635358 103.161807 
L 222.960338 203.412883 
L 223.285317 162.237312 
L 223.610297 193.076804 
L 223.935276 101.181848 
L 224.260256 91.97196 
L 224.585235 189.636384 
L 224.910215 160.858315 
L 225.235195 168.495255 
L 225.560174 82.825762 
L 225.885154 213.395941 
L 226.210133 155.885984 
L 226.535113 120.008736 
L 226.860092 115.927749 
L 227.185072 146.964743 
L 227.510051 213.835374 
L 227.835031 106.566888 
L 228.16001 113.016719 
L 228.48499 109.603952 
L 228.809969 225.980385 
L 229.134949 234.123314 
L 229.459928 121.130095 
L 229.784908 87.499845 
L 230.109887 129.092036 
L 230.434867 118.564811 
L 231.084826 212.518856 
L 231.409805 139.827837 
L 231.734785 133.503313 
L 232.059765 138.13387 
L 232.384744 78.814775 
L 232.709724 181.423609 
L 233.034703 238.302378 
L 233.359683 70.230855 
L 233.684662 218.781616 
L 234.009642 121.126396 
L 234.334621 91.238015 
L 234.659601 200.043795 
L 234.98458 96.513617 
L 235.30956 187.889648 
L 235.634539 94.733327 
L 235.959519 234.131096 
L 236.284498 126.167386 
L 236.609478 131.284034 
L 236.934457 178.537225 
L 237.259437 151.792468 
L 237.584416 113.51462 
L 237.909396 150.389131 
L 238.234376 99.047183 
L 238.559355 184.914171 
L 238.884335 155.060058 
L 239.209314 193.195678 
L 239.534294 43.283078 
L 239.859273 215.233529 
L 240.184253 155.004756 
L 240.509232 172.808612 
L 240.834212 167.753733 
L 241.159191 78.889552 
L 241.484171 195.665597 
L 241.80915 95.199744 
L 242.13413 189.722375 
L 242.459109 99.725981 
L 242.784089 152.385695 
L 243.109068 179.284018 
L 243.434048 139.709888 
L 243.759027 133.972922 
L 244.084007 158.868317 
L 244.408986 151.822128 
L 244.733966 177.271979 
L 245.058946 160.179945 
L 245.383925 119.439602 
L 245.708905 179.092639 
L 246.358864 71.207447 
L 246.683843 180.032346 
L 247.008823 150.995071 
L 247.333802 197.954984 
L 247.983761 81.469823 
L 248.308741 182.06244 
L 248.63372 197.26221 
L 248.9587 174.333413 
L 249.283679 105.141619 
L 249.608659 153.404778 
L 249.933638 88.711889 
L 250.258618 86.925277 
L 250.583597 213.918104 
L 250.908577 218.591472 
L 251.233557 139.972046 
L 251.558536 111.040184 
L 251.883516 108.703147 
L 252.208495 180.768504 
L 252.533475 186.087368 
L 252.858454 210.305923 
L 253.183434 65.261798 
L 253.508413 51.305383 
L 253.833393 211.015735 
L 254.158372 191.873693 
L 254.483352 220.059278 
L 254.808331 74.557083 
L 255.133311 61.452862 
L 255.45829 193.269771 
L 256.108249 171.32232 
L 256.758208 120.319479 
L 257.083188 158.106945 
L 257.408167 71.523709 
L 257.733147 233.023288 
L 258.058127 96.68789 
L 258.383106 188.705561 
L 258.708086 188.078335 
L 259.033065 135.230943 
L 259.358045 102.505691 
L 259.683024 148.273887 
L 260.008004 135.631049 
L 260.332983 135.838704 
L 260.657963 214.07693 
L 260.982942 127.401603 
L 261.307922 121.266131 
L 261.632901 169.882921 
L 261.957881 170.406583 
L 262.28286 128.792425 
L 262.60784 117.653109 
L 262.932819 207.71757 
L 263.257799 112.694913 
L 263.582778 101.062949 
L 263.907758 200.799474 
L 264.232738 95.61212 
L 264.557717 189.974785 
L 264.882697 207.282841 
L 265.207676 120.69954 
L 265.532656 66.289813 
L 265.857635 246.539662 
L 266.182615 107.639508 
L 266.507594 183.913389 
L 266.832574 127.739931 
L 267.157553 137.152676 
L 267.482533 128.068574 
L 267.807512 136.088368 
L 268.132492 102.28771 
L 268.457471 210.216792 
L 268.782451 170.183258 
L 269.10743 175.363075 
L 269.43241 80.163498 
L 269.757389 201.044828 
L 270.082369 207.125287 
L 270.407348 84.141703 
L 270.732328 121.93621 
L 271.057308 82.753425 
L 271.382287 209.689738 
L 271.707267 141.91361 
L 272.032246 149.223967 
L 272.357226 192.776063 
L 272.682205 137.228046 
L 273.007185 121.716085 
L 273.332164 183.541796 
L 273.657144 100.938329 
L 273.982123 147.679925 
L 274.307103 227.525177 
L 274.632082 118.656247 
L 274.957062 131.161413 
L 275.282041 123.487555 
L 275.607021 196.613493 
L 275.932 101.498356 
L 276.25698 102.115459 
L 276.581959 157.110052 
L 276.906939 164.587092 
L 277.231919 245.874283 
L 277.556898 116.608224 
L 277.881878 159.470569 
L 278.206857 103.362159 
L 278.531837 181.335358 
L 278.856816 108.87529 
L 279.181796 131.15451 
L 279.506775 99.670104 
L 279.831755 205.829922 
L 280.156734 229.604373 
L 280.481714 99.759085 
L 280.806693 99.559365 
L 281.131673 208.292746 
L 281.456652 99.359453 
L 281.781632 133.233946 
L 282.106611 225.614025 
L 282.75657 77.237119 
L 283.08155 162.053007 
L 283.406529 108.028966 
L 283.731509 255.418271 
L 284.056489 122.986883 
L 284.381468 82.423774 
L 284.706448 167.189729 
L 285.031427 194.342155 
L 285.681386 68.477659 
L 286.006366 201.516452 
L 286.331345 151.450756 
L 286.656325 200.259722 
L 286.981304 143.137604 
L 287.306284 146.799372 
L 287.631263 79.508565 
L 287.956243 188.468222 
L 288.281222 160.930619 
L 288.606202 98.105361 
L 288.931181 202.002175 
L 289.256161 126.029493 
L 289.58114 99.495492 
L 289.90612 170.689233 
L 290.2311 195.198342 
L 290.556079 129.077347 
L 291.206038 192.160646 
L 291.531018 68.390297 
L 291.855997 169.467435 
L 292.180977 107.763587 
L 292.505956 239.805495 
L 292.830936 99.084194 
L 293.155915 126.577238 
L 293.480895 119.342048 
L 293.805874 194.371037 
L 294.455833 152.213881 
L 294.780813 116.314704 
L 295.105792 106.447834 
L 295.430772 256.652912 
L 295.755751 98.883247 
L 296.080731 92.124561 
L 296.73069 231.589037 
L 297.05567 109.625415 
L 297.380649 162.369637 
L 297.705629 109.021684 
L 298.030608 104.787314 
L 298.355588 239.780767 
L 298.680567 136.137156 
L 299.005547 158.575876 
L 299.330526 66.909653 
L 299.655506 188.249864 
L 299.980485 202.215239 
L 300.305465 67.168791 
L 300.630444 211.385367 
L 300.955424 109.041343 
L 301.280403 186.649014 
L 301.605383 138.867168 
L 301.930362 132.517919 
L 302.255342 171.019964 
L 302.580321 59.828953 
L 302.905301 216.621365 
L 303.230281 161.870533 
L 303.55526 152.715408 
L 303.88024 114.4916 
L 304.205219 159.049411 
L 304.530199 220.590139 
L 304.855178 56.48017 
L 305.180158 154.183984 
L 305.505137 158.239478 
L 305.830117 124.891528 
L 306.155096 156.018133 
L 306.480076 168.863391 
L 306.805055 156.644293 
L 307.130035 158.082853 
L 307.455014 163.764645 
L 308.104973 112.854038 
L 308.429953 126.263766 
L 308.754932 261.216 
L 309.079912 95.945331 
L 309.404891 121.850027 
L 309.729871 92.605097 
L 310.054851 199.22034 
L 310.37983 127.241602 
L 310.70481 210.800721 
L 311.029789 76.182149 
L 311.354769 196.915104 
L 312.004728 134.49773 
L 312.329707 118.822331 
L 312.654687 130.892061 
L 312.979666 226.979517 
L 313.304646 175.924929 
L 313.629625 88.156538 
L 313.954605 98.779889 
L 314.279584 143.706136 
L 314.604564 131.456164 
L 314.929543 205.236018 
L 315.254523 179.916556 
L 315.579502 169.895923 
L 316.229462 85.668956 
L 316.879421 199.338595 
L 317.2044 137.65286 
L 317.52938 192.333332 
L 317.854359 81.183183 
L 318.179339 195.379581 
L 318.829298 88.925782 
L 319.154277 173.08384 
L 319.479257 198.911458 
L 319.804236 106.541835 
L 320.129216 211.949892 
L 320.454195 119.927791 
L 320.779175 99.555821 
L 321.104154 191.859046 
L 321.429134 170.331864 
L 321.754113 92.21404 
L 322.079093 183.273741 
L 322.404072 80.329239 
L 322.729052 238.002084 
L 323.054032 126.041321 
L 323.379011 129.54996 
L 323.703991 77.149343 
L 324.02897 217.742409 
L 324.35395 177.094529 
L 324.678929 208.671331 
L 325.003909 60.705444 
L 325.328888 162.179978 
L 325.653868 66.771922 
L 325.978847 179.886107 
L 326.303827 209.27904 
L 326.628806 180.470669 
L 327.278765 94.171424 
L 327.603745 188.665583 
L 327.928724 86.642571 
L 328.253704 210.818578 
L 328.578683 114.559238 
L 328.903663 93.558744 
L 329.228643 169.950994 
L 329.553622 211.348846 
L 329.878602 151.04977 
L 330.203581 228.128659 
L 330.528561 81.919883 
L 330.85354 84.682281 
L 331.17852 128.320595 
L 331.503499 122.171432 
L 331.828479 206.10399 
L 332.153458 233.812167 
L 332.478438 95.640046 
L 332.803417 147.474653 
L 333.453376 106.545908 
L 334.103335 222.95977 
L 334.428315 97.115066 
L 334.753294 162.216966 
L 335.078274 86.467628 
L 335.403253 155.290933 
L 335.728233 192.900627 
L 336.053213 201.45673 
L 336.378192 94.218412 
L 337.028151 162.263031 
L 337.67811 125.046733 
L 338.00309 178.412429 
L 338.328069 146.422031 
L 338.653049 159.993251 
L 339.303008 118.686552 
L 339.627987 183.059603 
L 339.952967 144.011214 
L 340.277946 151.270679 
L 340.602926 177.188817 
L 340.927905 45.655497 
L 341.252885 228.999374 
L 341.577864 125.132423 
L 341.902844 223.570082 
L 342.227824 102.721386 
L 342.552803 90.235068 
L 342.877783 182.743941 
L 343.202762 88.036275 
L 343.527742 182.98639 
L 343.852721 191.685928 
L 344.177701 152.089739 
L 344.50268 147.893873 
L 344.82766 141.555036 
L 345.152639 151.083962 
L 345.477619 146.073552 
L 345.802598 86.318968 
L 346.127578 169.99513 
L 346.452557 207.245346 
L 346.777537 111.519222 
L 347.102516 116.437131 
L 347.427496 190.653939 
L 347.752475 179.622753 
L 348.077455 113.58582 
L 348.402434 173.602283 
L 348.727414 54.385532 
L 349.052394 193.537809 
L 349.377373 228.111866 
L 350.027332 53.609704 
L 350.677291 163.833464 
L 351.002271 220.402258 
L 351.32725 126.561002 
L 351.65223 181.66458 
L 351.977209 99.947071 
L 352.302189 115.42968 
L 352.952148 223.631881 
L 353.277127 99.09667 
L 353.602107 137.311754 
L 353.927086 87.379809 
L 354.252066 194.052683 
L 354.577045 111.473612 
L 354.902025 211.540138 
L 355.227005 181.692229 
L 355.551984 119.898715 
L 355.876964 96.545683 
L 356.201943 200.937781 
L 356.526923 113.045117 
L 356.851902 138.238241 
L 357.176882 201.771775 
L 357.501861 98.749162 
L 357.826841 166.85677 
L 358.15182 135.924166 
L 358.4768 160.745347 
L 358.801779 164.591861 
L 359.126759 84.283446 
L 359.451738 188.403501 
L 359.776718 238.710355 
L 360.101697 78.131264 
L 360.426677 87.415929 
L 360.751656 169.011215 
L 361.076636 194.067716 
L 361.401615 89.856779 
L 361.726595 197.511958 
L 362.051575 127.347792 
L 362.376554 193.655509 
L 362.701534 99.982774 
L 363.026513 217.139453 
L 363.351493 106.822455 
L 363.676472 99.153209 
L 364.001452 129.716631 
L 364.326431 182.135816 
L 364.651411 191.647421 
L 364.97639 151.89013 
L 365.626349 101.209794 
L 365.951329 233.213705 
L 366.276308 105.684476 
L 366.601288 114.693335 
L 366.926267 175.337578 
L 367.251247 204.360995 
L 367.576226 117.257107 
L 367.901206 133.141903 
L 368.226186 91.730746 
L 368.551165 199.028717 
L 368.876145 81.208719 
L 369.201124 225.634712 
L 369.526104 154.754532 
L 369.851083 142.599555 
L 370.176063 150.591178 
L 370.501042 121.172695 
L 370.826022 216.206408 
L 371.151001 88.051523 
L 371.475981 150.799841 
L 371.80096 79.690949 
L 372.12594 247.990675 
L 372.450919 122.476346 
L 372.775899 162.071888 
L 373.100878 142.434364 
L 373.425858 93.68103 
L 373.750837 190.189413 
L 374.075817 192.741071 
L 374.400796 96.486365 
L 374.725776 131.355735 
L 375.050756 186.43808 
L 375.375735 138.563907 
L 375.700715 144.904872 
L 376.025694 103.121311 
L 376.350674 241.603523 
L 376.675653 137.75531 
L 377.000633 143.050939 
L 377.325612 119.622448 
L 377.650592 86.273564 
L 377.975571 159.235477 
L 378.300551 162.338814 
L 378.62553 197.989672 
L 378.95051 151.250196 
L 379.275489 209.941958 
L 379.600469 78.318344 
L 379.925448 84.365911 
L 380.250428 161.526817 
L 380.900387 224.077365 
L 381.225367 87.542037 
L 381.550346 82.926439 
L 381.875326 193.872266 
L 382.200305 112.565919 
L 382.525285 167.662815 
L 382.850264 160.592839 
L 383.175244 190.201223 
L 383.500223 77.056561 
L 383.825203 156.938332 
L 384.150182 185.784268 
L 384.475162 176.702403 
L 384.800141 149.830315 
L 385.125121 94.449767 
L 385.4501 192.564711 
L 385.77508 60.87449 
L 386.100059 169.695481 
L 386.425039 151.444655 
L 386.750018 165.605911 
L 387.074998 157.82753 
L 387.399977 200.387289 
L 387.724957 172.39407 
L 388.049937 78.169763 
L 388.374916 119.010309 
L 388.699896 81.834519 
L 389.024875 225.264567 
L 389.349855 156.245323 
L 389.674834 207.406154 
L 389.999814 128.214004 
L 390.324793 99.738878 
L 390.649773 149.427707 
L 390.649773 149.427707 
" style="fill:none;stroke:#ff7f0e;stroke-linecap:round;stroke-width:1.5;"/>
   </g>
   <g id="patch_3">
    <path d="M 49.7625 273.312 
L 49.7625 7.2 
" style="fill:none;stroke:#262626;stroke-linecap:square;stroke-linejoin:miter;stroke-width:1.25;"/>
   </g>
   <g id="patch_4">
    <path d="M 49.7625 273.312 
L 406.8825 273.312 
" style="fill:none;stroke:#262626;stroke-linecap:square;stroke-linejoin:miter;stroke-width:1.25;"/>
   </g>
   <g id="legend_1">
    <g id="line2d_14">
     <path d="M 281.91375 19.946875 
L 301.91375 19.946875 
" style="fill:none;stroke:#1f77b4;stroke-linecap:round;stroke-width:1.5;"/>
    </g>
    <g id="line2d_15"/>
    <g id="text_14">
     <!-- raw -->
     <defs>
      <path d="M 6.9375 0 
L 6.9375 40.53125 
Q 6.9375 42.1875 6.90625 43.921875 
Q 6.890625 45.65625 6.828125 47.265625 
Q 6.78125 48.875 6.734375 50.28125 
Q 6.6875 51.703125 6.640625 52.828125 
L 14.9375 52.828125 
Q 14.984375 51.703125 15.0625 50.265625 
Q 15.140625 48.828125 15.203125 47.3125 
Q 15.28125 45.796875 15.296875 44.40625 
Q 15.328125 43.015625 15.328125 42.046875 
L 15.53125 42.046875 
Q 16.453125 45.0625 17.5 47.28125 
Q 18.5625 49.515625 19.96875 50.953125 
Q 21.390625 52.390625 23.34375 53.09375 
Q 25.296875 53.8125 28.078125 53.8125 
Q 29.15625 53.8125 30.125 53.640625 
Q 31.109375 53.46875 31.640625 53.328125 
L 31.640625 45.265625 
Q 30.765625 45.515625 29.59375 45.625 
Q 28.421875 45.75 26.953125 45.75 
Q 23.921875 45.75 21.796875 44.375 
Q 19.671875 43.015625 18.328125 40.59375 
Q 17 38.1875 16.359375 34.84375 
Q 15.71875 31.5 15.71875 27.546875 
L 15.71875 0 
z
" id="LiberationSans-114"/>
      <path d="M 57.328125 0 
L 47.125 0 
L 38.671875 34.078125 
Q 38.28125 35.40625 37.859375 37.359375 
Q 37.453125 39.3125 37.0625 41.15625 
Q 36.578125 43.3125 36.140625 45.609375 
Q 35.6875 43.40625 35.203125 41.265625 
Q 34.8125 39.40625 34.34375 37.40625 
Q 33.890625 35.40625 33.5 33.890625 
L 24.8125 0 
L 14.65625 0 
L -0.140625 52.828125 
L 8.546875 52.828125 
L 17.484375 16.9375 
Q 17.828125 15.828125 18.15625 14.1875 
Q 18.5 12.546875 18.84375 10.984375 
Q 19.1875 9.1875 19.578125 7.28125 
Q 19.96875 9.125 20.40625 10.890625 
Q 20.796875 12.40625 21.1875 13.96875 
Q 21.578125 15.53125 21.875 16.546875 
L 31.453125 52.828125 
L 40.875 52.828125 
L 50.09375 16.546875 
Q 50.4375 15.28125 50.828125 13.671875 
Q 51.21875 12.0625 51.5625 10.640625 
Q 51.953125 8.984375 52.34375 7.28125 
Q 52.734375 9.125 53.125 10.890625 
Q 53.46875 12.40625 53.828125 14.03125 
Q 54.203125 15.671875 54.546875 16.9375 
L 63.875 52.828125 
L 72.46875 52.828125 
z
" id="LiberationSans-119"/>
     </defs>
     <g style="fill:#262626;" transform="translate(309.91375 23.446875)scale(0.1 -0.1)">
      <use xlink:href="#LiberationSans-114"/>
      <use x="33.300781" xlink:href="#LiberationSans-97"/>
      <use x="88.916016" xlink:href="#LiberationSans-119"/>
     </g>
    </g>
    <g id="line2d_16">
     <path d="M 281.91375 34.26875 
L 301.91375 34.26875 
" style="fill:none;stroke:#ff7f0e;stroke-linecap:round;stroke-width:1.5;"/>
    </g>
    <g id="line2d_17"/>
    <g id="text_15">
     <!-- high-pass @ 100Hz -->
     <defs>
      <path d="M 15.484375 43.796875 
Q 16.9375 46.484375 18.640625 48.359375 
Q 20.359375 50.25 22.40625 51.46875 
Q 24.46875 52.6875 26.90625 53.25 
Q 29.34375 53.8125 32.375 53.8125 
Q 37.453125 53.8125 40.703125 52.4375 
Q 43.953125 51.078125 45.828125 48.609375 
Q 47.703125 46.140625 48.40625 42.71875 
Q 49.125 39.3125 49.125 35.203125 
L 49.125 0 
L 40.28125 0 
L 40.28125 33.5 
Q 40.28125 36.859375 39.859375 39.390625 
Q 39.453125 41.9375 38.28125 43.625 
Q 37.109375 45.3125 34.953125 46.15625 
Q 32.8125 47.015625 29.390625 47.015625 
Q 26.265625 47.015625 23.75 45.890625 
Q 21.234375 44.78125 19.453125 42.71875 
Q 17.671875 40.671875 16.6875 37.734375 
Q 15.71875 34.8125 15.71875 31.15625 
L 15.71875 0 
L 6.9375 0 
L 6.9375 72.46875 
L 15.71875 72.46875 
L 15.71875 53.609375 
Q 15.71875 52 15.671875 50.390625 
Q 15.625 48.78125 15.546875 47.40625 
Q 15.484375 46.046875 15.421875 45.09375 
Q 15.375 44.140625 15.328125 43.796875 
z
" id="LiberationSans-104"/>
      <path d="M 4.4375 22.65625 
L 4.4375 30.46875 
L 28.859375 30.46875 
L 28.859375 22.65625 
z
" id="LiberationSans-45"/>
      <path d="M 51.421875 26.65625 
Q 51.421875 20.65625 50.4375 15.578125 
Q 49.46875 10.5 47.1875 6.828125 
Q 44.921875 3.171875 41.1875 1.09375 
Q 37.453125 -0.984375 31.984375 -0.984375 
Q 26.3125 -0.984375 22.0625 1.171875 
Q 17.828125 3.328125 15.578125 8.203125 
L 15.328125 8.203125 
Q 15.375 8.109375 15.40625 7.328125 
Q 15.4375 6.546875 15.453125 5.375 
Q 15.484375 4.203125 15.5 2.75 
Q 15.53125 1.3125 15.53125 -0.09375 
L 15.53125 -20.75 
L 6.734375 -20.75 
L 6.734375 42.046875 
Q 6.734375 43.953125 6.703125 45.703125 
Q 6.6875 47.46875 6.640625 48.90625 
Q 6.59375 50.34375 6.546875 51.359375 
Q 6.5 52.390625 6.453125 52.828125 
L 14.9375 52.828125 
Q 14.984375 52.6875 15.0625 51.796875 
Q 15.140625 50.921875 15.203125 49.671875 
Q 15.28125 48.4375 15.359375 47.015625 
Q 15.4375 45.609375 15.4375 44.34375 
L 15.625 44.34375 
Q 16.84375 46.875 18.40625 48.65625 
Q 19.96875 50.4375 21.96875 51.578125 
Q 23.96875 52.734375 26.4375 53.25 
Q 28.90625 53.765625 31.984375 53.765625 
Q 37.453125 53.765625 41.1875 51.8125 
Q 44.921875 49.859375 47.1875 46.3125 
Q 49.46875 42.78125 50.4375 37.765625 
Q 51.421875 32.765625 51.421875 26.65625 
z
M 42.1875 26.46875 
Q 42.1875 31.34375 41.59375 35.15625 
Q 41.015625 38.96875 39.578125 41.59375 
Q 38.140625 44.234375 35.734375 45.59375 
Q 33.34375 46.96875 29.734375 46.96875 
Q 26.8125 46.96875 24.21875 46.140625 
Q 21.625 45.3125 19.703125 42.96875 
Q 17.78125 40.625 16.65625 36.5 
Q 15.53125 32.375 15.53125 25.78125 
Q 15.53125 20.171875 16.453125 16.28125 
Q 17.390625 12.40625 19.171875 10.015625 
Q 20.953125 7.625 23.578125 6.5625 
Q 26.21875 5.515625 29.640625 5.515625 
Q 33.296875 5.515625 35.71875 6.921875 
Q 38.140625 8.34375 39.578125 11.03125 
Q 41.015625 13.71875 41.59375 17.59375 
Q 42.1875 21.484375 42.1875 26.46875 
z
" id="LiberationSans-112"/>
      <path id="LiberationSans-32"/>
      <path d="M 92.875 36.859375 
Q 92.875 29.828125 91.234375 24 
Q 89.59375 18.171875 86.71875 13.96875 
Q 83.84375 9.765625 79.8125 7.421875 
Q 75.78125 5.078125 71.046875 5.078125 
Q 68.3125 5.078125 66.375 5.734375 
Q 64.453125 6.390625 63.234375 7.53125 
Q 62.015625 8.6875 61.46875 10.25 
Q 60.9375 11.8125 60.9375 13.671875 
Q 60.9375 14.40625 60.984375 15.453125 
Q 61.03125 16.5 61.078125 17.09375 
L 60.796875 17.09375 
Q 59.625 14.890625 57.9375 12.71875 
Q 56.25 10.546875 53.96875 8.859375 
Q 51.703125 7.171875 48.84375 6.125 
Q 46 5.078125 42.53125 5.078125 
Q 38.421875 5.078125 35.375 6.484375 
Q 32.328125 7.90625 30.34375 10.421875 
Q 28.375 12.9375 27.390625 16.375 
Q 26.421875 19.828125 26.421875 23.875 
Q 26.421875 29.734375 28.15625 35.125 
Q 29.890625 40.53125 33.109375 44.65625 
Q 36.328125 48.78125 40.84375 51.265625 
Q 45.359375 53.765625 50.921875 53.765625 
Q 53.859375 53.765625 56.203125 53.09375 
Q 58.546875 52.4375 60.328125 51.265625 
Q 62.109375 50.09375 63.421875 48.453125 
Q 64.75 46.828125 65.625 44.875 
L 65.921875 44.875 
L 67.828125 52.6875 
L 75.4375 52.6875 
L 69.78125 27.984375 
Q 68.84375 23.875 68.40625 20.9375 
Q 67.96875 18.015625 67.96875 15.625 
Q 67.96875 13.28125 69.015625 12.15625 
Q 70.0625 11.03125 71.921875 11.03125 
Q 74.953125 11.03125 77.5625 13 
Q 80.171875 14.984375 82.09375 18.453125 
Q 84.03125 21.921875 85.125 26.609375 
Q 86.234375 31.296875 86.234375 36.765625 
Q 86.234375 43.0625 84.203125 48.484375 
Q 82.171875 53.90625 78.234375 57.859375 
Q 74.3125 61.8125 68.5 64.0625 
Q 62.703125 66.3125 55.078125 66.3125 
Q 48.53125 66.3125 42.984375 64.75 
Q 37.453125 63.1875 32.953125 60.34375 
Q 28.46875 57.515625 25.078125 53.578125 
Q 21.6875 49.65625 19.390625 44.96875 
Q 17.09375 40.28125 15.921875 34.9375 
Q 14.75 29.59375 14.75 23.96875 
Q 14.75 17.09375 16.84375 11.28125 
Q 18.953125 5.46875 22.96875 1.296875 
Q 27 -2.875 32.9375 -5.21875 
Q 38.875 -7.5625 46.578125 -7.5625 
Q 51.703125 -7.5625 56.140625 -6.75 
Q 60.59375 -5.953125 64.296875 -4.78125 
Q 68.015625 -3.609375 70.9375 -2.21875 
Q 73.875 -0.828125 76.03125 0.34375 
L 78.71875 -5.125 
Q 76.265625 -6.59375 72.96875 -8.125 
Q 69.671875 -9.671875 65.625 -10.9375 
Q 61.578125 -12.203125 56.78125 -13 
Q 52 -13.8125 46.578125 -13.8125 
Q 37.3125 -13.8125 30.109375 -11 
Q 22.90625 -8.203125 17.9375 -3.171875 
Q 12.984375 1.859375 10.421875 8.78125 
Q 7.859375 15.71875 7.859375 23.96875 
Q 7.859375 30.765625 9.390625 37.015625 
Q 10.9375 43.265625 13.8125 48.625 
Q 16.703125 54 20.84375 58.390625 
Q 25 62.796875 30.25 65.921875 
Q 35.5 69.046875 41.71875 70.75 
Q 47.953125 72.46875 54.984375 72.46875 
Q 64.796875 72.46875 71.921875 69.578125 
Q 79.046875 66.703125 83.703125 61.8125 
Q 88.375 56.9375 90.625 50.484375 
Q 92.875 44.046875 92.875 36.859375 
z
M 63.28125 36.46875 
Q 63.28125 38.921875 62.453125 40.96875 
Q 61.625 43.015625 60.078125 44.484375 
Q 58.546875 45.953125 56.375 46.75 
Q 54.203125 47.5625 51.46875 47.5625 
Q 47.265625 47.5625 44.09375 45.484375 
Q 40.921875 43.40625 38.796875 40.03125 
Q 36.671875 36.671875 35.5625 32.4375 
Q 34.46875 28.21875 34.46875 23.96875 
Q 34.46875 18.109375 36.78125 14.78125 
Q 39.109375 11.46875 43.953125 11.46875 
Q 47.3125 11.46875 50.234375 12.984375 
Q 53.171875 14.5 55.515625 16.984375 
Q 57.859375 19.484375 59.5625 22.703125 
Q 61.28125 25.921875 62.15625 29.390625 
Q 62.59375 31.15625 62.9375 33.109375 
Q 63.28125 35.0625 63.28125 36.46875 
z
" id="LiberationSans-64"/>
      <path d="M 54.734375 0 
L 54.734375 31.890625 
L 17.53125 31.890625 
L 17.53125 0 
L 8.203125 0 
L 8.203125 68.796875 
L 17.53125 68.796875 
L 17.53125 39.703125 
L 54.734375 39.703125 
L 54.734375 68.796875 
L 64.0625 68.796875 
L 64.0625 0 
z
" id="LiberationSans-72"/>
      <path d="M 2.390625 0 
L 2.390625 6.6875 
L 34.671875 46.046875 
L 4.34375 46.046875 
L 4.34375 52.828125 
L 44.578125 52.828125 
L 44.578125 46.140625 
L 12.25 6.78125 
L 46.390625 6.78125 
L 46.390625 0 
z
" id="LiberationSans-122"/>
     </defs>
     <g style="fill:#262626;" transform="translate(309.91375 37.76875)scale(0.1 -0.1)">
      <use xlink:href="#LiberationSans-104"/>
      <use x="55.615234" xlink:href="#LiberationSans-105"/>
      <use x="77.832031" xlink:href="#LiberationSans-103"/>
      <use x="133.447266" xlink:href="#LiberationSans-104"/>
      <use x="189.0625" xlink:href="#LiberationSans-45"/>
      <use x="222.363281" xlink:href="#LiberationSans-112"/>
      <use x="277.978516" xlink:href="#LiberationSans-97"/>
      <use x="333.59375" xlink:href="#LiberationSans-115"/>
      <use x="383.59375" xlink:href="#LiberationSans-115"/>
      <use x="433.59375" xlink:href="#LiberationSans-32"/>
      <use x="461.376953" xlink:href="#LiberationSans-64"/>
      <use x="562.890625" xlink:href="#LiberationSans-32"/>
      <use x="590.673828" xlink:href="#LiberationSans-49"/>
      <use x="646.289062" xlink:href="#LiberationSans-48"/>
      <use x="701.904297" xlink:href="#LiberationSans-48"/>
      <use x="757.519531" xlink:href="#LiberationSans-72"/>
      <use x="829.736328" xlink:href="#LiberationSans-122"/>
     </g>
    </g>
   </g>
  </g>
 </g>
 <defs>
  <clipPath id="p3b71400f3b">
   <rect height="266.112" width="357.12" x="49.7625" y="7.2"/>
  </clipPath>
 </defs>
</svg>
