<?xml version="1.0" encoding="utf-8" standalone="no"?>
<!DOCTYPE svg PUBLIC "-//W3C//DTD SVG 1.1//EN"
  "http://www.w3.org/Graphics/SVG/1.1/DTD/svg11.dtd">
<!-- Created with matplotlib (https://matplotlib.org/) -->
<svg height="312.65575pt" version="1.1" viewBox="0 0 414.0825 312.65575" width="414.0825pt" xmlns="http://www.w3.org/2000/svg" xmlns:xlink="http://www.w3.org/1999/xlink">
 <defs>
  <style type="text/css">
*{stroke-linecap:butt;stroke-linejoin:round;}
  </style>
 </defs>
 <g id="figure_1">
  <g id="patch_1">
   <path d="M 0 312.65575 
L 414.0825 312.65575 
L 414.0825 0 
L 0 0 
z
" style="fill:#ffffff;"/>
  </g>
  <g id="axes_1">
   <g id="patch_2">
    <path d="M 49.7625 273.312 
L 406.8825 273.312 
L 406.8825 7.2 
L 49.7625 7.2 
z
" style="fill:#ffffff;"/>
   </g>
   <g id="matplotlib.axis_1">
    <g id="xtick_1">
     <g id="line2d_1">
      <defs>
       <path d="M 0 0 
L 0 6 
" id="md2c955c04a" style="stroke:#262626;stroke-width:0.8;"/>
      </defs>
      <g>
       <use style="fill:#262626;stroke:#262626;stroke-width:0.8;" x="65.995227" xlink:href="#md2c955c04a" y="273.312"/>
      </g>
     </g>
     <g id="text_1">
      <!-- 0 -->
      <defs>
       <path d="M 51.703125 34.421875 
Q 51.703125 17.1875 45.625 8.09375 
Q 39.546875 -0.984375 27.6875 -0.984375 
Q 15.828125 -0.984375 9.859375 8.046875 
Q 3.90625 17.09375 3.90625 34.421875 
Q 3.90625 52.15625 9.6875 60.984375 
Q 15.484375 69.828125 27.984375 69.828125 
Q 40.140625 69.828125 45.921875 60.890625 
Q 51.703125 51.953125 51.703125 34.421875 
z
M 42.78125 34.421875 
Q 42.78125 49.3125 39.328125 56 
Q 35.890625 62.703125 27.984375 62.703125 
Q 19.875 62.703125 16.328125 56.109375 
Q 12.796875 49.515625 12.796875 34.421875 
Q 12.796875 19.78125 16.375 12.984375 
Q 19.96875 6.203125 27.78125 6.203125 
Q 35.546875 6.203125 39.15625 13.125 
Q 42.78125 20.0625 42.78125 34.421875 
z
" id="LiberationSans-48"/>
      </defs>
      <g style="fill:#262626;" transform="translate(63.214759 290.058875)scale(0.1 -0.1)">
       <use xlink:href="#LiberationSans-48"/>
      </g>
     </g>
    </g>
    <g id="xtick_2">
     <g id="line2d_2">
      <g>
       <use style="fill:#262626;stroke:#262626;stroke-width:0.8;" x="130.991132" xlink:href="#md2c955c04a" y="273.312"/>
      </g>
     </g>
     <g id="text_2">
      <!-- 200 -->
      <defs>
       <path d="M 5.03125 0 
L 5.03125 6.203125 
Q 7.515625 11.921875 11.109375 16.28125 
Q 14.703125 20.65625 18.65625 24.1875 
Q 22.609375 27.734375 26.484375 30.765625 
Q 30.375 33.796875 33.5 36.8125 
Q 36.625 39.84375 38.546875 43.15625 
Q 40.484375 46.484375 40.484375 50.6875 
Q 40.484375 56.34375 37.15625 59.46875 
Q 33.84375 62.59375 27.9375 62.59375 
Q 22.3125 62.59375 18.671875 59.546875 
Q 15.046875 56.5 14.40625 50.984375 
L 5.421875 51.8125 
Q 6.390625 60.0625 12.421875 64.9375 
Q 18.453125 69.828125 27.9375 69.828125 
Q 38.328125 69.828125 43.921875 64.921875 
Q 49.515625 60.015625 49.515625 50.984375 
Q 49.515625 46.96875 47.671875 43.015625 
Q 45.84375 39.0625 42.234375 35.109375 
Q 38.625 31.15625 28.421875 22.859375 
Q 22.796875 18.265625 19.46875 14.578125 
Q 16.15625 10.890625 14.703125 7.46875 
L 50.59375 7.46875 
L 50.59375 0 
z
" id="LiberationSans-50"/>
      </defs>
      <g style="fill:#262626;" transform="translate(122.649726 290.058875)scale(0.1 -0.1)">
       <use xlink:href="#LiberationSans-50"/>
       <use x="55.615234" xlink:href="#LiberationSans-48"/>
       <use x="111.230469" xlink:href="#LiberationSans-48"/>
      </g>
     </g>
    </g>
    <g id="xtick_3">
     <g id="line2d_3">
      <g>
       <use style="fill:#262626;stroke:#262626;stroke-width:0.8;" x="195.987037" xlink:href="#md2c955c04a" y="273.312"/>
      </g>
     </g>
     <g id="text_3">
      <!-- 400 -->
      <defs>
       <path d="M 43.015625 15.578125 
L 43.015625 0 
L 34.71875 0 
L 34.71875 15.578125 
L 2.296875 15.578125 
L 2.296875 22.40625 
L 33.796875 68.796875 
L 43.015625 68.796875 
L 43.015625 22.515625 
L 52.6875 22.515625 
L 52.6875 15.578125 
z
M 34.71875 58.890625 
Q 34.625 58.59375 33.34375 56.296875 
Q 32.078125 54 31.453125 53.078125 
L 13.8125 27.09375 
L 11.1875 23.484375 
L 10.40625 22.515625 
L 34.71875 22.515625 
z
" id="LiberationSans-52"/>
      </defs>
      <g style="fill:#262626;" transform="translate(187.645631 290.058875)scale(0.1 -0.1)">
       <use xlink:href="#LiberationSans-52"/>
       <use x="55.615234" xlink:href="#LiberationSans-48"/>
       <use x="111.230469" xlink:href="#LiberationSans-48"/>
      </g>
     </g>
    </g>
    <g id="xtick_4">
     <g id="line2d_4">
      <g>
       <use style="fill:#262626;stroke:#262626;stroke-width:0.8;" x="260.982942" xlink:href="#md2c955c04a" y="273.312"/>
      </g>
     </g>
     <g id="text_4">
      <!-- 600 -->
      <defs>
       <path d="M 51.21875 22.515625 
Q 51.21875 11.625 45.3125 5.3125 
Q 39.40625 -0.984375 29 -0.984375 
Q 17.390625 -0.984375 11.234375 7.65625 
Q 5.078125 16.3125 5.078125 32.8125 
Q 5.078125 50.6875 11.46875 60.25 
Q 17.875 69.828125 29.6875 69.828125 
Q 45.265625 69.828125 49.3125 55.8125 
L 40.921875 54.296875 
Q 38.328125 62.703125 29.59375 62.703125 
Q 22.078125 62.703125 17.9375 55.6875 
Q 13.8125 48.6875 13.8125 35.40625 
Q 16.21875 39.84375 20.5625 42.15625 
Q 24.90625 44.484375 30.515625 44.484375 
Q 40.046875 44.484375 45.625 38.515625 
Q 51.21875 32.5625 51.21875 22.515625 
z
M 42.28125 22.125 
Q 42.28125 29.59375 38.625 33.640625 
Q 34.96875 37.703125 28.421875 37.703125 
Q 22.265625 37.703125 18.484375 34.109375 
Q 14.703125 30.515625 14.703125 24.21875 
Q 14.703125 16.265625 18.625 11.1875 
Q 22.5625 6.109375 28.71875 6.109375 
Q 35.0625 6.109375 38.671875 10.375 
Q 42.28125 14.65625 42.28125 22.125 
z
" id="LiberationSans-54"/>
      </defs>
      <g style="fill:#262626;" transform="translate(252.641536 290.058875)scale(0.1 -0.1)">
       <use xlink:href="#LiberationSans-54"/>
       <use x="55.615234" xlink:href="#LiberationSans-48"/>
       <use x="111.230469" xlink:href="#LiberationSans-48"/>
      </g>
     </g>
    </g>
    <g id="xtick_5">
     <g id="line2d_5">
      <g>
       <use style="fill:#262626;stroke:#262626;stroke-width:0.8;" x="325.978847" xlink:href="#md2c955c04a" y="273.312"/>
      </g>
     </g>
     <g id="text_5">
      <!-- 800 -->
      <defs>
       <path d="M 51.265625 19.1875 
Q 51.265625 9.671875 45.203125 4.34375 
Q 39.15625 -0.984375 27.828125 -0.984375 
Q 16.796875 -0.984375 10.5625 4.234375 
Q 4.34375 9.46875 4.34375 19.09375 
Q 4.34375 25.828125 8.203125 30.421875 
Q 12.0625 35.015625 18.0625 35.984375 
L 18.0625 36.1875 
Q 12.453125 37.5 9.203125 41.890625 
Q 5.953125 46.296875 5.953125 52.203125 
Q 5.953125 60.0625 11.828125 64.9375 
Q 17.71875 69.828125 27.640625 69.828125 
Q 37.796875 69.828125 43.671875 65.03125 
Q 49.5625 60.25 49.5625 52.09375 
Q 49.5625 46.1875 46.28125 41.796875 
Q 43.015625 37.40625 37.359375 36.28125 
L 37.359375 36.078125 
Q 43.953125 35.015625 47.609375 30.5 
Q 51.265625 25.984375 51.265625 19.1875 
z
M 40.4375 51.609375 
Q 40.4375 63.28125 27.640625 63.28125 
Q 21.4375 63.28125 18.1875 60.34375 
Q 14.9375 57.421875 14.9375 51.609375 
Q 14.9375 45.703125 18.28125 42.59375 
Q 21.625 39.5 27.734375 39.5 
Q 33.9375 39.5 37.1875 42.359375 
Q 40.4375 45.21875 40.4375 51.609375 
z
M 42.140625 20.015625 
Q 42.140625 26.421875 38.328125 29.65625 
Q 34.515625 32.90625 27.640625 32.90625 
Q 20.953125 32.90625 17.1875 29.40625 
Q 13.421875 25.921875 13.421875 19.828125 
Q 13.421875 5.609375 27.9375 5.609375 
Q 35.109375 5.609375 38.625 9.046875 
Q 42.140625 12.5 42.140625 20.015625 
z
" id="LiberationSans-56"/>
      </defs>
      <g style="fill:#262626;" transform="translate(317.637441 290.058875)scale(0.1 -0.1)">
       <use xlink:href="#LiberationSans-56"/>
       <use x="55.615234" xlink:href="#LiberationSans-48"/>
       <use x="111.230469" xlink:href="#LiberationSans-48"/>
      </g>
     </g>
    </g>
    <g id="xtick_6">
     <g id="line2d_6">
      <g>
       <use style="fill:#262626;stroke:#262626;stroke-width:0.8;" x="390.974752" xlink:href="#md2c955c04a" y="273.312"/>
      </g>
     </g>
     <g id="text_6">
      <!-- 1000 -->
      <defs>
       <path d="M 7.625 0 
L 7.625 7.46875 
L 25.140625 7.46875 
L 25.140625 60.40625 
L 9.625 49.3125 
L 9.625 57.625 
L 25.875 68.796875 
L 33.984375 68.796875 
L 33.984375 7.46875 
L 50.734375 7.46875 
L 50.734375 0 
z
" id="LiberationSans-49"/>
      </defs>
      <g style="fill:#262626;" transform="translate(379.852877 290.058875)scale(0.1 -0.1)">
       <use xlink:href="#LiberationSans-49"/>
       <use x="55.615234" xlink:href="#LiberationSans-48"/>
       <use x="111.230469" xlink:href="#LiberationSans-48"/>
       <use x="166.845703" xlink:href="#LiberationSans-48"/>
      </g>
     </g>
    </g>
    <g id="text_7">
     <!-- time -->
     <defs>
      <path d="M 27.046875 0.390625 
Q 22.703125 -0.78125 18.171875 -0.78125 
Q 7.625 -0.78125 7.625 11.1875 
L 7.625 46.4375 
L 1.515625 46.4375 
L 1.515625 52.828125 
L 7.953125 52.828125 
L 10.546875 64.65625 
L 16.40625 64.65625 
L 16.40625 52.828125 
L 26.171875 52.828125 
L 26.171875 46.4375 
L 16.40625 46.4375 
L 16.40625 13.09375 
Q 16.40625 9.28125 17.640625 7.734375 
Q 18.890625 6.203125 21.96875 6.203125 
Q 23.734375 6.203125 27.046875 6.890625 
z
" id="LiberationSans-116"/>
      <path d="M 6.6875 64.0625 
L 6.6875 72.46875 
L 15.484375 72.46875 
L 15.484375 64.0625 
z
M 6.6875 0 
L 6.6875 52.828125 
L 15.484375 52.828125 
L 15.484375 0 
z
" id="LiberationSans-105"/>
      <path d="M 37.5 0 
L 37.5 33.5 
Q 37.5 41.15625 35.390625 44.078125 
Q 33.296875 47.015625 27.828125 47.015625 
Q 22.21875 47.015625 18.9375 42.71875 
Q 15.671875 38.421875 15.671875 30.609375 
L 15.671875 0 
L 6.9375 0 
L 6.9375 41.546875 
Q 6.9375 50.78125 6.640625 52.828125 
L 14.9375 52.828125 
Q 14.984375 52.59375 15.03125 51.515625 
Q 15.09375 50.4375 15.15625 49.046875 
Q 15.234375 47.65625 15.328125 43.796875 
L 15.484375 43.796875 
Q 18.3125 49.421875 21.96875 51.609375 
Q 25.640625 53.8125 30.90625 53.8125 
Q 36.921875 53.8125 40.40625 51.421875 
Q 43.890625 49.03125 45.265625 43.796875 
L 45.40625 43.796875 
Q 48.140625 49.125 52.015625 51.46875 
Q 55.90625 53.8125 61.421875 53.8125 
Q 69.4375 53.8125 73.0625 49.46875 
Q 76.703125 45.125 76.703125 35.203125 
L 76.703125 0 
L 68.015625 0 
L 68.015625 33.5 
Q 68.015625 41.15625 65.90625 44.078125 
Q 63.8125 47.015625 58.34375 47.015625 
Q 52.59375 47.015625 49.390625 42.75 
Q 46.1875 38.484375 46.1875 30.609375 
L 46.1875 0 
z
" id="LiberationSans-109"/>
      <path d="M 13.484375 24.5625 
Q 13.484375 15.484375 17.234375 10.546875 
Q 21 5.609375 28.21875 5.609375 
Q 33.9375 5.609375 37.375 7.90625 
Q 40.828125 10.203125 42.046875 13.71875 
L 49.75 11.53125 
Q 45.015625 -0.984375 28.21875 -0.984375 
Q 16.5 -0.984375 10.375 6 
Q 4.25 12.984375 4.25 26.765625 
Q 4.25 39.84375 10.375 46.828125 
Q 16.5 53.8125 27.875 53.8125 
Q 51.171875 53.8125 51.171875 25.734375 
L 51.171875 24.5625 
z
M 42.09375 31.296875 
Q 41.359375 39.65625 37.84375 43.484375 
Q 34.328125 47.3125 27.734375 47.3125 
Q 21.34375 47.3125 17.609375 43.03125 
Q 13.875 38.765625 13.578125 31.296875 
z
" id="LiberationSans-101"/>
     </defs>
     <g style="fill:#262626;" transform="translate(218.877188 303.38075)scale(0.1 -0.1)">
      <use xlink:href="#LiberationSans-116"/>
      <use x="27.783203" xlink:href="#LiberationSans-105"/>
      <use x="50" xlink:href="#LiberationSans-109"/>
      <use x="133.300781" xlink:href="#LiberationSans-101"/>
     </g>
    </g>
   </g>
   <g id="matplotlib.axis_2">
    <g id="ytick_1">
     <g id="line2d_7">
      <defs>
       <path d="M 0 0 
L -6 0 
" id="mc31f197758" style="stroke:#262626;stroke-width:0.8;"/>
      </defs>
      <g>
       <use style="fill:#262626;stroke:#262626;stroke-width:0.8;" x="49.7625" xlink:href="#mc31f197758" y="247.865286"/>
      </g>
     </g>
     <g id="text_8">
      <!-- −1.0 -->
      <defs>
       <path d="M 4.9375 29.6875 
L 4.9375 36.8125 
L 53.515625 36.8125 
L 53.515625 29.6875 
z
" id="LiberationSans-8722"/>
       <path d="M 9.125 0 
L 9.125 10.6875 
L 18.65625 10.6875 
L 18.65625 0 
z
" id="LiberationSans-46"/>
      </defs>
      <g style="fill:#262626;" transform="translate(20.521875 251.488723)scale(0.1 -0.1)">
       <use xlink:href="#LiberationSans-8722"/>
       <use x="58.398438" xlink:href="#LiberationSans-49"/>
       <use x="114.013672" xlink:href="#LiberationSans-46"/>
       <use x="141.796875" xlink:href="#LiberationSans-48"/>
      </g>
     </g>
    </g>
    <g id="ytick_2">
     <g id="line2d_8">
      <g>
       <use style="fill:#262626;stroke:#262626;stroke-width:0.8;" x="49.7625" xlink:href="#mc31f197758" y="197.01687"/>
      </g>
     </g>
     <g id="text_9">
      <!-- −0.5 -->
      <defs>
       <path d="M 51.421875 22.40625 
Q 51.421875 11.53125 44.953125 5.265625 
Q 38.484375 -0.984375 27 -0.984375 
Q 17.390625 -0.984375 11.46875 3.21875 
Q 5.5625 7.421875 4 15.375 
L 12.890625 16.40625 
Q 15.671875 6.203125 27.203125 6.203125 
Q 34.28125 6.203125 38.28125 10.46875 
Q 42.28125 14.75 42.28125 22.21875 
Q 42.28125 28.71875 38.25 32.71875 
Q 34.234375 36.71875 27.390625 36.71875 
Q 23.828125 36.71875 20.75 35.59375 
Q 17.671875 34.46875 14.59375 31.78125 
L 6 31.78125 
L 8.296875 68.796875 
L 47.40625 68.796875 
L 47.40625 61.328125 
L 16.3125 61.328125 
L 14.984375 39.5 
Q 20.703125 43.890625 29.203125 43.890625 
Q 39.359375 43.890625 45.390625 37.9375 
Q 51.421875 31.984375 51.421875 22.40625 
z
" id="LiberationSans-53"/>
      </defs>
      <g style="fill:#262626;" transform="translate(20.521875 200.640307)scale(0.1 -0.1)">
       <use xlink:href="#LiberationSans-8722"/>
       <use x="58.398438" xlink:href="#LiberationSans-48"/>
       <use x="114.013672" xlink:href="#LiberationSans-46"/>
       <use x="141.796875" xlink:href="#LiberationSans-53"/>
      </g>
     </g>
    </g>
    <g id="ytick_3">
     <g id="line2d_9">
      <g>
       <use style="fill:#262626;stroke:#262626;stroke-width:0.8;" x="49.7625" xlink:href="#mc31f197758" y="146.168454"/>
      </g>
     </g>
     <g id="text_10">
      <!-- 0.0 -->
      <g style="fill:#262626;" transform="translate(26.3625 149.791891)scale(0.1 -0.1)">
       <use xlink:href="#LiberationSans-48"/>
       <use x="55.615234" xlink:href="#LiberationSans-46"/>
       <use x="83.398438" xlink:href="#LiberationSans-48"/>
      </g>
     </g>
    </g>
    <g id="ytick_4">
     <g id="line2d_10">
      <g>
       <use style="fill:#262626;stroke:#262626;stroke-width:0.8;" x="49.7625" xlink:href="#mc31f197758" y="95.320037"/>
      </g>
     </g>
     <g id="text_11">
      <!-- 0.5 -->
      <g style="fill:#262626;" transform="translate(26.3625 98.943475)scale(0.1 -0.1)">
       <use xlink:href="#LiberationSans-48"/>
       <use x="55.615234" xlink:href="#LiberationSans-46"/>
       <use x="83.398438" xlink:href="#LiberationSans-53"/>
      </g>
     </g>
    </g>
    <g id="ytick_5">
     <g id="line2d_11">
      <g>
       <use style="fill:#262626;stroke:#262626;stroke-width:0.8;" x="49.7625" xlink:href="#mc31f197758" y="44.471621"/>
      </g>
     </g>
     <g id="text_12">
      <!-- 1.0 -->
      <g style="fill:#262626;" transform="translate(26.3625 48.095059)scale(0.1 -0.1)">
       <use xlink:href="#LiberationSans-49"/>
       <use x="55.615234" xlink:href="#LiberationSans-46"/>
       <use x="83.398438" xlink:href="#LiberationSans-48"/>
      </g>
     </g>
    </g>
    <g id="text_13">
     <!-- analogs -->
     <defs>
      <path d="M 20.21875 -0.984375 
Q 12.25 -0.984375 8.25 3.21875 
Q 4.25 7.421875 4.25 14.75 
Q 4.25 22.953125 9.640625 27.34375 
Q 15.046875 31.734375 27.046875 32.03125 
L 38.921875 32.234375 
L 38.921875 35.109375 
Q 38.921875 41.546875 36.1875 44.328125 
Q 33.453125 47.125 27.59375 47.125 
Q 21.6875 47.125 19 45.109375 
Q 16.3125 43.109375 15.765625 38.71875 
L 6.59375 39.546875 
Q 8.84375 53.8125 27.78125 53.8125 
Q 37.75 53.8125 42.765625 49.234375 
Q 47.796875 44.671875 47.796875 36.03125 
L 47.796875 13.28125 
Q 47.796875 9.375 48.828125 7.390625 
Q 49.859375 5.421875 52.734375 5.421875 
Q 54 5.421875 55.609375 5.765625 
L 55.609375 0.296875 
Q 52.296875 -0.484375 48.828125 -0.484375 
Q 43.953125 -0.484375 41.71875 2.078125 
Q 39.5 4.640625 39.203125 10.109375 
L 38.921875 10.109375 
Q 35.546875 4.046875 31.078125 1.53125 
Q 26.609375 -0.984375 20.21875 -0.984375 
z
M 22.21875 5.609375 
Q 27.046875 5.609375 30.8125 7.8125 
Q 34.578125 10.015625 36.75 13.84375 
Q 38.921875 17.671875 38.921875 21.734375 
L 38.921875 26.078125 
L 29.296875 25.875 
Q 23.09375 25.78125 19.890625 24.609375 
Q 16.703125 23.4375 14.984375 21 
Q 13.28125 18.5625 13.28125 14.59375 
Q 13.28125 10.296875 15.59375 7.953125 
Q 17.921875 5.609375 22.21875 5.609375 
z
" id="LiberationSans-97"/>
      <path d="M 40.28125 0 
L 40.28125 33.5 
Q 40.28125 38.71875 39.25 41.59375 
Q 38.234375 44.484375 35.984375 45.75 
Q 33.734375 47.015625 29.390625 47.015625 
Q 23.046875 47.015625 19.375 42.671875 
Q 15.71875 38.328125 15.71875 30.609375 
L 15.71875 0 
L 6.9375 0 
L 6.9375 41.546875 
Q 6.9375 50.78125 6.640625 52.828125 
L 14.9375 52.828125 
Q 14.984375 52.59375 15.03125 51.515625 
Q 15.09375 50.4375 15.15625 49.046875 
Q 15.234375 47.65625 15.328125 43.796875 
L 15.484375 43.796875 
Q 18.5 49.265625 22.484375 51.53125 
Q 26.46875 53.8125 32.375 53.8125 
Q 41.0625 53.8125 45.09375 49.484375 
Q 49.125 45.171875 49.125 35.203125 
L 49.125 0 
z
" id="LiberationSans-110"/>
      <path d="M 6.734375 0 
L 6.734375 72.46875 
L 15.53125 72.46875 
L 15.53125 0 
z
" id="LiberationSans-108"/>
      <path d="M 51.421875 26.46875 
Q 51.421875 12.59375 45.3125 5.796875 
Q 39.203125 -0.984375 27.59375 -0.984375 
Q 16.015625 -0.984375 10.109375 6.078125 
Q 4.203125 13.140625 4.203125 26.46875 
Q 4.203125 53.8125 27.875 53.8125 
Q 39.984375 53.8125 45.703125 47.140625 
Q 51.421875 40.484375 51.421875 26.46875 
z
M 42.1875 26.46875 
Q 42.1875 37.40625 38.9375 42.359375 
Q 35.6875 47.3125 28.03125 47.3125 
Q 20.3125 47.3125 16.859375 42.25 
Q 13.421875 37.203125 13.421875 26.46875 
Q 13.421875 16.015625 16.8125 10.765625 
Q 20.21875 5.515625 27.484375 5.515625 
Q 35.40625 5.515625 38.796875 10.59375 
Q 42.1875 15.671875 42.1875 26.46875 
z
" id="LiberationSans-111"/>
      <path d="M 26.765625 -20.75 
Q 18.109375 -20.75 12.984375 -17.359375 
Q 7.859375 -13.96875 6.390625 -7.71875 
L 15.234375 -6.453125 
Q 16.109375 -10.109375 19.109375 -12.078125 
Q 22.125 -14.0625 27 -14.0625 
Q 40.140625 -14.0625 40.140625 1.3125 
L 40.140625 9.8125 
L 40.046875 9.8125 
Q 37.546875 4.734375 33.203125 2.171875 
Q 28.859375 -0.390625 23.046875 -0.390625 
Q 13.328125 -0.390625 8.765625 6.046875 
Q 4.203125 12.5 4.203125 26.3125 
Q 4.203125 40.328125 9.109375 46.984375 
Q 14.015625 53.65625 24.03125 53.65625 
Q 29.640625 53.65625 33.765625 51.09375 
Q 37.890625 48.53125 40.140625 43.796875 
L 40.234375 43.796875 
Q 40.234375 45.265625 40.421875 48.875 
Q 40.625 52.484375 40.828125 52.828125 
L 49.171875 52.828125 
Q 48.875 50.203125 48.875 41.890625 
L 48.875 1.515625 
Q 48.875 -20.75 26.765625 -20.75 
z
M 40.140625 26.421875 
Q 40.140625 32.859375 38.375 37.515625 
Q 36.625 42.1875 33.421875 44.65625 
Q 30.21875 47.125 26.171875 47.125 
Q 19.4375 47.125 16.359375 42.234375 
Q 13.28125 37.359375 13.28125 26.421875 
Q 13.28125 15.578125 16.15625 10.84375 
Q 19.046875 6.109375 26.03125 6.109375 
Q 30.171875 6.109375 33.390625 8.546875 
Q 36.625 10.984375 38.375 15.546875 
Q 40.140625 20.125 40.140625 26.421875 
z
" id="LiberationSans-103"/>
      <path d="M 46.390625 14.59375 
Q 46.390625 7.125 40.75 3.0625 
Q 35.109375 -0.984375 24.953125 -0.984375 
Q 15.09375 -0.984375 9.734375 2.265625 
Q 4.390625 5.515625 2.78125 12.40625 
L 10.546875 13.921875 
Q 11.671875 9.671875 15.1875 7.6875 
Q 18.703125 5.71875 24.953125 5.71875 
Q 31.640625 5.71875 34.734375 7.765625 
Q 37.84375 9.8125 37.84375 13.921875 
Q 37.84375 17.046875 35.6875 19 
Q 33.546875 20.953125 28.765625 22.21875 
L 22.46875 23.875 
Q 14.890625 25.828125 11.6875 27.703125 
Q 8.5 29.59375 6.6875 32.28125 
Q 4.890625 34.96875 4.890625 38.875 
Q 4.890625 46.09375 10.03125 49.875 
Q 15.1875 53.65625 25.046875 53.65625 
Q 33.796875 53.65625 38.9375 50.578125 
Q 44.09375 47.515625 45.453125 40.71875 
L 37.546875 39.75 
Q 36.8125 43.265625 33.609375 45.140625 
Q 30.421875 47.015625 25.046875 47.015625 
Q 19.09375 47.015625 16.25 45.203125 
Q 13.421875 43.40625 13.421875 39.75 
Q 13.421875 37.5 14.59375 36.03125 
Q 15.765625 34.578125 18.0625 33.546875 
Q 20.359375 32.515625 27.734375 30.71875 
Q 34.71875 28.953125 37.796875 27.46875 
Q 40.875 25.984375 42.65625 24.171875 
Q 44.4375 22.359375 45.40625 19.984375 
Q 46.390625 17.625 46.390625 14.59375 
z
" id="LiberationSans-115"/>
     </defs>
     <g style="fill:#262626;" transform="translate(14.446875 157.769281)rotate(-90)scale(0.1 -0.1)">
      <use xlink:href="#LiberationSans-97"/>
      <use x="55.615234" xlink:href="#LiberationSans-110"/>
      <use x="111.230469" xlink:href="#LiberationSans-97"/>
      <use x="166.845703" xlink:href="#LiberationSans-108"/>
      <use x="189.0625" xlink:href="#LiberationSans-111"/>
      <use x="244.677734" xlink:href="#LiberationSans-103"/>
      <use x="300.292969" xlink:href="#LiberationSans-115"/>
     </g>
    </g>
   </g>
   <g id="line2d_12">
    <path clip-path="url(#pe7aa09cabd)" d="M 65.995227 225.734552 
L 66.320207 58.275934 
L 66.645186 155.867448 
L 66.970166 98.483363 
L 67.295145 145.960876 
L 67.620125 124.941991 
L 67.945104 186.283055 
L 68.270084 207.113269 
L 68.595063 137.509944 
L 68.920043 158.327536 
L 69.245023 168.51873 
L 69.570002 111.069379 
L 69.894982 107.420612 
L 70.219961 238.525437 
L 70.544941 178.966802 
L 70.86992 164.114985 
L 71.1949 228.158034 
L 71.519879 199.884544 
L 71.844859 237.361672 
L 72.169838 45.235955 
L 72.494818 98.054217 
L 72.819797 230.078478 
L 73.144777 243.74669 
L 73.469756 101.566704 
L 73.794736 158.536382 
L 74.119715 87.83582 
L 74.444695 60.03611 
L 75.094654 209.808618 
L 75.419633 88.771974 
L 75.744613 53.459233 
L 76.069593 129.849918 
L 76.394572 109.151326 
L 76.719552 179.225071 
L 77.044531 170.26497 
L 77.369511 98.441215 
L 77.69449 59.162522 
L 78.01947 119.933033 
L 78.344449 87.215225 
L 78.669429 212.955811 
L 78.994408 204.75415 
L 79.319388 139.652801 
L 79.644367 211.955282 
L 79.969347 118.711312 
L 80.294326 188.544876 
L 80.619306 86.872566 
L 80.944285 83.500761 
L 81.594244 211.089548 
L 82.244204 45.938696 
L 82.569183 121.234242 
L 82.894163 240.58894 
L 83.219142 244.347801 
L 83.544122 182.705691 
L 83.869101 208.0441 
L 84.194081 82.495821 
L 84.51906 76.037165 
L 84.84404 195.263866 
L 85.169019 181.631201 
L 85.493999 199.814149 
L 85.818978 63.106031 
L 86.143958 145.629596 
L 86.468937 114.411168 
L 86.793917 163.358862 
L 87.118896 119.520997 
L 87.443876 169.384747 
L 87.768855 178.776844 
L 88.093835 118.816059 
L 88.418814 127.647004 
L 88.743794 188.16356 
L 89.068774 217.488757 
L 89.393753 172.899121 
L 89.718733 163.416717 
L 90.368692 61.855929 
L 90.693671 240.505527 
L 91.018651 198.30618 
L 91.34363 208.464691 
L 91.66861 145.701785 
L 91.993589 160.466864 
L 92.318569 99.583652 
L 92.643548 198.559425 
L 93.293507 68.094318 
L 93.618487 62.639203 
L 93.943466 52.854572 
L 94.268446 90.588866 
L 94.593425 63.593086 
L 94.918405 200.163192 
L 95.243385 207.678574 
L 95.568364 246.545651 
L 95.893344 104.097622 
L 96.218323 57.190399 
L 96.543303 209.843821 
L 96.868282 118.314998 
L 97.193262 96.0401 
L 97.518241 59.194427 
L 97.843221 116.298014 
L 98.1682 50.513688 
L 98.49318 177.760953 
L 98.818159 176.692039 
L 99.143139 137.419982 
L 99.468118 169.863433 
L 99.793098 247.575302 
L 100.118077 99.027492 
L 100.443057 94.970802 
L 100.768036 95.935384 
L 101.093016 177.690268 
L 101.417995 141.634916 
L 101.742975 174.648953 
L 102.067955 244.603584 
L 102.392934 133.466735 
L 102.717914 222.693151 
L 103.042893 231.585388 
L 103.367873 94.201562 
L 103.692852 245.931785 
L 104.017832 52.809044 
L 104.342811 143.065609 
L 104.667791 47.925972 
L 104.99277 236.068947 
L 105.31775 129.179073 
L 105.642729 176.81438 
L 105.967709 76.306291 
L 106.292688 174.39487 
L 106.617668 194.883763 
L 106.942647 73.444413 
L 107.592606 244.441495 
L 108.242566 114.739603 
L 108.567545 196.130167 
L 108.892525 160.001746 
L 109.217504 236.329786 
L 109.542484 128.250938 
L 109.867463 94.03969 
L 110.192443 163.800129 
L 110.517422 162.392631 
L 110.842402 229.909185 
L 111.167381 206.791793 
L 111.492361 216.405309 
L 111.81734 149.893045 
L 112.14232 140.218062 
L 112.467299 54.856875 
L 112.792279 232.970462 
L 113.117258 125.855941 
L 113.442238 140.778821 
L 113.767217 142.866744 
L 114.092197 70.270219 
L 114.417176 206.060063 
L 114.742156 239.57226 
L 115.067136 111.12952 
L 115.717095 244.287608 
L 116.042074 196.737405 
L 116.367054 184.95018 
L 116.692033 122.404268 
L 117.017013 212.762429 
L 117.341992 163.852648 
L 117.666972 149.732837 
L 117.991951 154.45931 
L 118.316931 49.771904 
L 118.64191 238.610012 
L 118.96689 54.444381 
L 119.291869 129.502943 
L 119.616849 86.01931 
L 119.941828 160.326154 
L 120.266808 155.557536 
L 120.591787 69.015847 
L 120.916767 65.637885 
L 121.241747 199.31748 
L 121.566726 207.34075 
L 121.891706 146.934195 
L 122.216685 64.754642 
L 122.541665 182.300302 
L 122.866644 115.249644 
L 123.516603 89.487792 
L 124.166562 166.008452 
L 124.491542 51.18036 
L 124.816521 123.524484 
L 125.141501 99.679738 
L 125.46648 177.697961 
L 125.79146 111.601867 
L 126.116439 195.430875 
L 126.441419 198.014126 
L 126.766398 102.495318 
L 127.091378 141.8169 
L 127.416357 108.891152 
L 127.741337 193.063204 
L 128.066317 126.088751 
L 128.391296 157.571994 
L 128.716276 126.447346 
L 129.041255 188.702191 
L 129.366235 102.347093 
L 129.691214 83.944359 
L 130.016194 194.999922 
L 130.341173 186.720969 
L 130.666153 113.390696 
L 130.991132 106.387668 
L 131.316112 104.655871 
L 131.641091 109.008735 
L 131.966071 167.970685 
L 132.29105 167.55455 
L 132.941009 215.966305 
L 133.265989 106.999435 
L 133.590968 228.911277 
L 133.915948 57.124276 
L 134.240928 79.722529 
L 134.565907 73.454051 
L 134.890887 63.454593 
L 135.215866 164.757624 
L 135.540846 75.651723 
L 135.865825 215.716619 
L 136.190805 243.463482 
L 136.515784 88.223349 
L 136.840764 232.652122 
L 137.165743 46.805631 
L 137.490723 110.615967 
L 137.815702 94.618388 
L 138.140682 197.870339 
L 138.465661 110.805334 
L 138.790641 239.074624 
L 139.11562 77.456842 
L 139.4406 213.36482 
L 139.765579 106.027073 
L 140.090559 202.207374 
L 140.415538 233.942345 
L 140.740518 149.932522 
L 141.065498 213.433543 
L 141.390477 99.501 
L 141.715457 199.545898 
L 142.040436 178.208538 
L 142.365416 132.451737 
L 142.690395 189.904544 
L 143.015375 170.984898 
L 143.340354 81.972985 
L 143.665334 211.415138 
L 143.990313 231.146003 
L 144.315293 181.079393 
L 144.965252 137.491826 
L 145.290231 172.116666 
L 145.615211 87.20225 
L 145.94019 239.867951 
L 146.26517 160.046504 
L 146.590149 170.116855 
L 147.240109 51.330818 
L 147.565088 144.058162 
L 147.890068 47.140787 
L 148.215047 186.389674 
L 148.540027 241.586903 
L 148.865006 214.170447 
L 149.189986 167.499388 
L 149.514965 183.524973 
L 149.839945 228.125091 
L 150.164924 159.864961 
L 150.489904 179.09468 
L 150.814883 222.925313 
L 151.139863 187.636938 
L 151.464842 67.569808 
L 151.789822 186.43046 
L 152.114801 102.651276 
L 152.439781 123.378787 
L 153.08974 199.248986 
L 153.414719 172.810034 
L 153.739699 127.43443 
L 154.064679 176.524304 
L 154.714638 224.177501 
L 155.039617 68.926264 
L 155.364597 158.308416 
L 155.689576 120.701874 
L 156.014556 148.118925 
L 156.339535 70.390784 
L 156.664515 136.622202 
L 156.989494 150.077391 
L 157.314474 59.807302 
L 157.639453 101.484982 
L 157.964433 225.176741 
L 158.289412 211.721324 
L 158.614392 87.769482 
L 158.939371 77.858423 
L 159.264351 136.976925 
L 159.58933 135.092605 
L 159.91431 119.334125 
L 160.23929 158.551919 
L 160.564269 109.517093 
L 160.889249 225.800885 
L 161.214228 52.347178 
L 161.539208 95.288547 
L 161.864187 119.488452 
L 162.189167 183.527384 
L 162.514146 215.127959 
L 163.164105 113.304768 
L 163.489085 118.972739 
L 163.814064 170.038499 
L 164.464023 82.354038 
L 164.789003 242.51913 
L 165.438962 93.579958 
L 165.763941 136.782961 
L 166.088921 115.359177 
L 166.4139 142.776581 
L 166.73888 46.124287 
L 167.06386 236.755611 
L 167.388839 147.98988 
L 167.713819 229.271739 
L 168.038798 215.365915 
L 168.363778 169.957712 
L 168.688757 216.229417 
L 169.013737 51.857422 
L 169.338716 55.294244 
L 169.663696 179.502713 
L 169.988675 117.744654 
L 170.313655 139.303242 
L 170.638634 81.980061 
L 170.963614 120.246824 
L 171.288593 247.813938 
L 171.613573 92.640451 
L 171.938552 95.96111 
L 172.263532 144.190917 
L 172.588511 64.217287 
L 172.913491 63.093083 
L 173.238471 141.30497 
L 173.56345 124.204331 
L 173.88843 45.17901 
L 174.213409 187.087143 
L 174.538389 181.840195 
L 174.863368 210.690232 
L 175.188348 65.651626 
L 175.513327 96.441064 
L 175.838307 226.3782 
L 176.163286 48.180026 
L 176.488266 99.192305 
L 176.813245 74.874477 
L 177.138225 238.07172 
L 177.463204 145.159434 
L 177.788184 105.77482 
L 178.113163 137.43339 
L 178.763122 81.514883 
L 179.088102 171.727499 
L 179.413081 75.251454 
L 179.738061 214.729182 
L 180.063041 192.768778 
L 180.38802 239.049061 
L 180.713 173.743181 
L 181.037979 170.594091 
L 181.362959 84.078348 
L 181.687938 115.022645 
L 182.012918 159.038684 
L 182.337897 115.229434 
L 182.662877 237.129487 
L 182.987856 211.199198 
L 183.312836 120.348064 
L 183.637815 117.415338 
L 183.962795 90.411201 
L 184.287774 165.897688 
L 184.612754 100.90236 
L 184.937733 108.74802 
L 185.262713 51.917176 
L 185.587692 204.109161 
L 185.912672 135.657158 
L 186.237652 125.470211 
L 186.562631 44.746633 
L 186.887611 206.945706 
L 187.21259 141.446055 
L 187.53757 177.453388 
L 187.862549 140.901988 
L 188.187529 200.651799 
L 188.512508 238.18123 
L 188.837488 131.4091 
L 189.162467 179.554646 
L 189.487447 210.859557 
L 189.812426 181.978844 
L 190.137406 237.842005 
L 190.462385 54.551357 
L 190.787365 129.663482 
L 191.112344 82.146498 
L 191.437324 161.805725 
L 191.762303 64.136805 
L 192.087283 149.561422 
L 192.412262 131.128444 
L 192.737242 147.837506 
L 193.062222 98.721126 
L 193.387201 132.61103 
L 193.712181 192.623786 
L 194.03716 218.263467 
L 194.36214 124.583425 
L 194.687119 148.369181 
L 195.012099 228.344437 
L 195.337078 167.3992 
L 195.662058 143.163023 
L 195.987037 79.680441 
L 196.312017 232.386813 
L 196.636996 176.98354 
L 196.961976 80.542242 
L 197.286955 115.979966 
L 197.611935 188.8896 
L 197.936914 75.929478 
L 198.261894 147.532497 
L 198.586873 146.503668 
L 198.911853 49.233608 
L 199.236833 55.227789 
L 199.561812 174.94201 
L 199.886792 219.272382 
L 200.211771 181.626736 
L 200.536751 241.665184 
L 200.86173 243.641229 
L 201.18671 167.418589 
L 201.511689 56.467816 
L 201.836669 70.636723 
L 202.161648 143.841054 
L 202.486628 132.901821 
L 202.811607 246.65845 
L 203.136587 204.033716 
L 203.461566 242.826385 
L 203.786546 94.396725 
L 204.111525 218.241854 
L 204.436505 71.106611 
L 204.761484 117.017196 
L 205.086464 201.202981 
L 205.411443 215.785973 
L 205.736423 120.210398 
L 206.061403 64.640751 
L 206.386382 101.755368 
L 206.711362 176.973105 
L 207.036341 128.395184 
L 207.361321 184.658326 
L 207.6863 44.644594 
L 208.01128 95.556139 
L 208.336259 122.903953 
L 208.661239 161.777058 
L 208.986218 122.137026 
L 209.636177 241.99436 
L 209.961157 167.506783 
L 210.286136 58.611382 
L 210.611116 120.479611 
L 210.936095 230.789228 
L 211.261075 67.863192 
L 211.586054 193.177845 
L 211.911034 198.284115 
L 212.236014 187.438865 
L 212.560993 130.466008 
L 212.885973 137.079178 
L 213.210952 147.914841 
L 213.535932 101.922834 
L 213.860911 183.483517 
L 214.185891 88.798317 
L 214.51087 212.205967 
L 214.83585 88.685176 
L 215.160829 112.850516 
L 215.485809 108.905044 
L 215.810788 149.920376 
L 216.135768 112.2014 
L 216.460747 231.635072 
L 216.785727 74.665184 
L 217.110706 236.567331 
L 217.435686 217.612205 
L 217.760665 130.549913 
L 218.085645 97.47368 
L 218.410624 232.356201 
L 218.735604 60.587556 
L 219.060584 49.839658 
L 219.385563 124.61886 
L 219.710543 149.983416 
L 220.035522 97.070246 
L 220.360502 181.079481 
L 220.685481 147.538425 
L 221.010461 61.525971 
L 221.33544 53.491027 
L 221.66042 59.305301 
L 221.985399 194.485012 
L 222.310379 200.582556 
L 222.635358 187.322211 
L 222.960338 158.105402 
L 223.285317 183.965625 
L 223.610297 171.752774 
L 223.935276 121.631662 
L 224.260256 92.772394 
L 224.585235 98.257408 
L 224.910215 82.216692 
L 225.235195 241.319182 
L 225.560174 238.156536 
L 225.885154 87.309793 
L 226.210133 139.440431 
L 226.535113 130.275136 
L 226.860092 237.169452 
L 227.185072 195.936076 
L 227.510051 118.028064 
L 227.835031 73.113133 
L 228.16001 61.356672 
L 228.48499 146.083131 
L 228.809969 136.919283 
L 229.134949 78.428269 
L 229.459928 138.515848 
L 229.784908 142.739536 
L 230.109887 63.776927 
L 230.434867 87.197975 
L 230.759846 62.965693 
L 231.084826 203.475218 
L 231.734785 76.511792 
L 232.059765 225.258522 
L 232.384744 86.236038 
L 232.709724 210.649659 
L 233.034703 83.499051 
L 233.359683 123.388172 
L 233.684662 208.562309 
L 234.334621 109.170095 
L 234.659601 118.943622 
L 234.98458 160.965913 
L 235.30956 64.939832 
L 235.634539 142.250397 
L 235.959519 144.975082 
L 236.284498 235.20391 
L 236.609478 60.311841 
L 236.934457 211.840898 
L 237.584416 84.424727 
L 237.909396 204.043454 
L 238.234376 140.6009 
L 238.559355 198.9115 
L 238.884335 93.348136 
L 239.209314 133.081868 
L 239.534294 73.765219 
L 239.859273 65.917855 
L 240.184253 115.917006 
L 240.509232 100.325302 
L 241.159191 169.674917 
L 241.80915 63.125134 
L 242.13413 163.115136 
L 242.459109 183.916278 
L 242.784089 168.859673 
L 243.109068 159.308166 
L 243.434048 232.903439 
L 243.759027 146.485373 
L 244.084007 147.3249 
L 244.408986 128.179539 
L 244.733966 174.06999 
L 245.383925 69.241652 
L 245.708905 53.52854 
L 246.033884 129.162259 
L 246.358864 239.202556 
L 246.683843 50.728824 
L 247.008823 104.297415 
L 247.333802 179.532408 
L 247.658782 217.934342 
L 247.983761 218.694849 
L 248.308741 213.747136 
L 248.63372 238.596124 
L 248.9587 64.372839 
L 249.283679 137.876453 
L 249.933638 79.433261 
L 250.258618 86.87086 
L 250.908577 51.131824 
L 251.233557 158.561105 
L 251.558536 54.573073 
L 251.883516 100.752693 
L 252.208495 233.491824 
L 252.533475 109.194918 
L 252.858454 108.191468 
L 253.183434 63.618986 
L 253.508413 172.013253 
L 253.833393 128.897992 
L 254.158372 245.386415 
L 254.483352 180.323285 
L 254.808331 235.205306 
L 255.133311 141.719629 
L 255.45829 81.601613 
L 255.78327 205.87615 
L 256.108249 140.587119 
L 256.433229 206.371222 
L 256.758208 223.318016 
L 257.083188 143.931776 
L 257.408167 231.766958 
L 257.733147 128.401075 
L 258.058127 241.491445 
L 258.383106 226.160137 
L 258.708086 135.999282 
L 259.033065 127.576765 
L 259.358045 241.969528 
L 259.683024 131.24408 
L 260.008004 77.319184 
L 260.332983 100.950752 
L 260.657963 221.183067 
L 260.982942 127.359696 
L 261.307922 111.133386 
L 261.632901 240.292695 
L 261.957881 73.892989 
L 262.28286 63.536239 
L 262.60784 74.888681 
L 262.932819 80.14047 
L 263.257799 96.344084 
L 263.582778 119.029224 
L 263.907758 109.836852 
L 264.232738 83.849592 
L 264.557717 113.117297 
L 264.882697 181.207699 
L 265.207676 171.39718 
L 265.532656 65.40948 
L 265.857635 244.382762 
L 266.182615 105.729607 
L 266.507594 53.669581 
L 266.832574 104.22295 
L 267.157553 45.709884 
L 267.482533 108.023008 
L 267.807512 240.876063 
L 268.132492 79.656715 
L 268.457471 189.973365 
L 268.782451 157.140072 
L 269.10743 184.387767 
L 269.43241 193.243082 
L 269.757389 160.120099 
L 270.082369 170.829641 
L 270.732328 82.475483 
L 271.057308 187.439336 
L 271.382287 204.395757 
L 271.707267 112.223013 
L 272.032246 111.526431 
L 272.357226 64.580901 
L 272.682205 244.622034 
L 273.007185 74.36222 
L 273.332164 141.896745 
L 273.657144 121.496377 
L 273.982123 229.280914 
L 274.307103 159.874149 
L 274.632082 201.633416 
L 274.957062 196.157525 
L 275.607021 82.616893 
L 275.932 96.584957 
L 276.25698 127.659638 
L 276.581959 138.151043 
L 276.906939 160.953944 
L 277.231919 50.02224 
L 277.881878 196.210129 
L 278.206857 201.066277 
L 278.531837 123.519953 
L 278.856816 141.525479 
L 279.181796 246.299602 
L 279.506775 79.035248 
L 279.831755 104.65126 
L 280.156734 113.253401 
L 280.481714 233.875736 
L 280.806693 174.22542 
L 281.131673 57.61446 
L 281.456652 72.420099 
L 281.781632 189.787661 
L 282.106611 215.920504 
L 282.431591 156.523641 
L 282.75657 175.491641 
L 283.406529 51.298568 
L 283.731509 174.033091 
L 284.056489 235.209283 
L 284.381468 65.296283 
L 284.706448 240.146551 
L 285.031427 54.078739 
L 285.356407 112.694041 
L 285.681386 56.331667 
L 286.006366 207.255771 
L 286.331345 239.587205 
L 286.656325 148.566469 
L 286.981304 156.211338 
L 287.306284 180.441858 
L 287.631263 53.084026 
L 288.281222 113.303694 
L 288.606202 214.740941 
L 288.931181 98.508557 
L 289.256161 99.995558 
L 289.58114 161.409112 
L 289.90612 59.769691 
L 290.2311 213.903043 
L 290.556079 193.490519 
L 290.881059 235.005856 
L 291.206038 86.0756 
L 291.531018 121.403366 
L 291.855997 183.808423 
L 292.505956 239.699484 
L 292.830936 213.950294 
L 293.155915 155.670061 
L 293.480895 197.591056 
L 293.805874 195.189952 
L 294.130854 69.7786 
L 294.455833 143.089547 
L 294.780813 99.540055 
L 295.105792 240.601905 
L 295.430772 173.593373 
L 295.755751 150.405276 
L 296.080731 209.949279 
L 296.40571 223.419088 
L 296.73069 70.851011 
L 297.05567 56.790845 
L 297.380649 231.836503 
L 297.705629 176.877091 
L 298.030608 52.95606 
L 298.355588 230.950716 
L 298.680567 116.952708 
L 299.005547 50.121618 
L 299.330526 48.900789 
L 299.655506 152.021446 
L 299.980485 214.763148 
L 300.305465 206.762617 
L 300.630444 66.925998 
L 300.955424 62.434739 
L 301.280403 124.226417 
L 301.605383 92.02986 
L 301.930362 97.367957 
L 302.255342 113.254966 
L 302.580321 79.602394 
L 303.230281 139.2526 
L 303.55526 199.669863 
L 303.88024 96.56315 
L 304.530199 187.906525 
L 304.855178 84.754494 
L 305.180158 106.158154 
L 305.505137 57.216357 
L 305.830117 214.215504 
L 306.155096 115.824298 
L 306.480076 198.188525 
L 306.805055 64.082231 
L 307.130035 227.627735 
L 307.455014 114.406131 
L 307.779994 86.963462 
L 308.104973 175.677246 
L 308.429953 53.799645 
L 308.754932 74.832054 
L 309.079912 187.94179 
L 309.404891 246.331475 
L 309.729871 187.527096 
L 310.054851 190.648518 
L 310.37983 66.852123 
L 310.70481 51.158965 
L 311.029789 233.538239 
L 311.354769 152.006904 
L 311.679748 136.338031 
L 312.004728 228.967643 
L 312.329707 171.084643 
L 312.654687 183.372731 
L 312.979666 138.83482 
L 313.304646 113.383246 
L 313.629625 104.780871 
L 313.954605 220.050181 
L 314.279584 82.516874 
L 314.604564 109.854136 
L 314.929543 67.03308 
L 315.254523 156.473178 
L 315.579502 66.053771 
L 315.904482 71.772314 
L 316.229462 158.695605 
L 316.554441 170.34315 
L 316.879421 58.137232 
L 317.2044 102.40531 
L 317.52938 59.066063 
L 317.854359 85.765665 
L 318.179339 123.938047 
L 318.504318 224.301565 
L 318.829298 188.579964 
L 319.154277 50.808878 
L 319.479257 182.896855 
L 319.804236 228.897836 
L 320.129216 103.953416 
L 320.454195 98.573471 
L 320.779175 189.804994 
L 321.104154 187.320691 
L 321.429134 152.495423 
L 321.754113 243.433552 
L 322.079093 87.321986 
L 322.404072 183.371435 
L 322.729052 74.21528 
L 323.054032 84.615343 
L 323.379011 113.340303 
L 323.703991 181.787796 
L 324.02897 142.849768 
L 324.35395 157.389833 
L 324.678929 178.938857 
L 325.003909 75.359738 
L 325.328888 149.52301 
L 325.653868 78.494683 
L 325.978847 226.464515 
L 326.303827 219.181737 
L 326.628806 49.084527 
L 326.953786 128.316904 
L 327.278765 144.181364 
L 327.603745 141.458657 
L 327.928724 204.080981 
L 328.253704 101.685456 
L 328.578683 230.621444 
L 328.903663 131.254875 
L 329.228643 131.774529 
L 329.553622 61.925152 
L 330.203581 219.987602 
L 330.528561 131.370902 
L 330.85354 229.289822 
L 331.17852 206.414911 
L 331.503499 241.537997 
L 331.828479 143.464623 
L 332.153458 230.671888 
L 332.803417 58.110176 
L 333.128397 101.470374 
L 333.453376 232.120242 
L 333.778356 202.262431 
L 334.103335 110.846618 
L 334.428315 65.888596 
L 334.753294 241.169854 
L 335.078274 82.617873 
L 335.403253 133.595902 
L 335.728233 136.79377 
L 336.053213 53.052153 
L 336.378192 95.799108 
L 336.703172 74.956494 
L 337.028151 175.86483 
L 337.353131 135.111152 
L 337.67811 122.69567 
L 338.00309 182.45715 
L 338.328069 131.88043 
L 338.653049 199.731081 
L 338.978028 218.703583 
L 339.303008 171.802104 
L 339.627987 97.498459 
L 339.952967 61.518624 
L 340.277946 154.769148 
L 340.602926 117.11902 
L 340.927905 226.908186 
L 341.252885 63.903087 
L 341.577864 132.214791 
L 341.902844 89.14943 
L 342.227824 86.280979 
L 342.552803 195.698772 
L 342.877783 140.234555 
L 343.202762 52.509789 
L 343.527742 229.634187 
L 343.852721 108.937264 
L 344.177701 52.146869 
L 344.50268 186.729806 
L 344.82766 72.652236 
L 345.152639 57.965256 
L 345.477619 95.912684 
L 345.802598 200.814573 
L 346.127578 179.931656 
L 346.452557 240.581902 
L 346.777537 78.752966 
L 347.102516 75.059753 
L 347.752475 176.163354 
L 348.077455 232.24241 
L 348.402434 94.698139 
L 348.727414 100.094461 
L 349.052394 62.247715 
L 349.377373 99.279701 
L 349.702353 79.313985 
L 350.027332 96.142842 
L 350.352312 119.587507 
L 350.677291 161.023026 
L 351.002271 64.380341 
L 351.977209 230.88816 
L 352.627168 137.274713 
L 352.952148 191.802798 
L 353.277127 202.867418 
L 353.602107 140.596786 
L 353.927086 213.324903 
L 354.252066 85.06695 
L 354.577045 149.347873 
L 354.902025 131.145233 
L 355.227005 217.888463 
L 355.551984 181.848516 
L 355.876964 164.455642 
L 356.201943 83.479916 
L 356.526923 91.219718 
L 356.851902 202.51308 
L 357.176882 122.538364 
L 357.501861 198.347805 
L 357.826841 46.862075 
L 358.15182 54.209321 
L 358.4768 133.30081 
L 359.126759 84.859423 
L 359.451738 101.218775 
L 359.776718 105.524564 
L 360.101697 52.901473 
L 360.426677 126.549893 
L 360.751656 118.445354 
L 361.076636 75.129402 
L 361.401615 111.613727 
L 361.726595 98.791434 
L 362.051575 200.236859 
L 362.376554 172.351946 
L 362.701534 217.905125 
L 363.026513 144.995799 
L 363.351493 155.17322 
L 363.676472 45.048687 
L 364.001452 123.549318 
L 364.326431 87.907391 
L 364.651411 179.928818 
L 364.97639 78.734234 
L 365.30137 122.7609 
L 365.626349 106.101461 
L 365.951329 187.979931 
L 366.276308 136.275713 
L 366.601288 118.906182 
L 366.926267 128.047161 
L 367.251247 61.720683 
L 367.576226 65.162317 
L 367.901206 50.37328 
L 368.226186 112.114658 
L 368.551165 50.184109 
L 368.876145 78.544535 
L 369.201124 192.779744 
L 369.526104 160.927579 
L 370.176063 247.01161 
L 370.501042 209.617361 
L 370.826022 247.039388 
L 371.151001 101.454703 
L 371.475981 161.314306 
L 371.80096 184.289567 
L 372.12594 92.936082 
L 372.450919 78.54275 
L 372.775899 49.495539 
L 373.100878 117.28379 
L 373.750837 185.776461 
L 374.075817 202.647171 
L 374.400796 204.557497 
L 374.725776 164.638759 
L 375.050756 46.142225 
L 375.375735 247.691649 
L 375.700715 207.754856 
L 376.025694 209.547347 
L 376.350674 102.007726 
L 376.675653 176.172125 
L 377.000633 154.861335 
L 377.325612 217.636079 
L 377.650592 165.491454 
L 377.975571 226.875098 
L 378.300551 139.447658 
L 378.62553 227.945243 
L 378.95051 87.080889 
L 379.275489 132.622086 
L 379.600469 100.614807 
L 379.925448 162.741704 
L 380.250428 170.272374 
L 380.575407 227.89022 
L 380.900387 141.316374 
L 381.225367 143.218805 
L 381.550346 152.656296 
L 381.875326 97.248542 
L 382.200305 78.539165 
L 382.525285 95.159423 
L 382.850264 218.603905 
L 383.175244 121.342323 
L 383.500223 231.528075 
L 383.825203 106.583513 
L 384.475162 220.915838 
L 384.800141 72.529603 
L 385.4501 175.716475 
L 385.77508 241.615572 
L 386.425039 60.086991 
L 386.750018 126.565406 
L 387.074998 50.237709 
L 387.399977 220.111993 
L 387.724957 132.275628 
L 388.049937 85.531708 
L 388.374916 140.973631 
L 388.699896 229.342966 
L 389.024875 129.309966 
L 389.349855 123.441671 
L 389.674834 99.650441 
L 389.999814 93.039686 
L 390.324793 91.095004 
L 390.649773 112.924899 
L 390.649773 112.924899 
" style="fill:none;stroke:#1f77b4;stroke-linecap:round;stroke-width:1.5;"/>
   </g>
   <g id="line2d_13">
    <path clip-path="url(#pe7aa09cabd)" d="M 65.995227 146.078899 
L 66.320207 21.973884 
L 66.645186 151.196013 
L 66.970166 109.150997 
L 67.295145 157.829526 
L 67.620125 129.330464 
L 67.945104 181.142368 
L 68.270084 195.931504 
L 68.595063 125.60476 
L 68.920043 149.031644 
L 69.245023 161.646537 
L 69.570002 102.880079 
L 69.894982 92.215892 
L 70.219961 212.488535 
L 70.544941 142.610835 
L 70.86992 121.172898 
L 71.1949 184.156097 
L 71.519879 161.370313 
L 71.844859 209.138053 
L 72.169838 26.456537 
L 72.494818 82.952755 
L 72.819797 215.048302 
L 73.144777 232.173977 
L 73.469756 100.056405 
L 73.794736 170.57819 
L 74.119715 111.583035 
L 74.444695 89.939087 
L 75.094654 240.564834 
L 75.419633 120.324191 
L 75.744613 84.629014 
L 76.069593 157.32814 
L 76.394572 131.38093 
L 76.719552 198.75951 
L 77.044531 192.089023 
L 77.369511 125.175633 
L 77.69449 87.404203 
L 78.01947 141.695192 
L 78.344449 95.050446 
L 78.669429 204.735226 
L 78.994408 184.897576 
L 79.319388 116.148928 
L 79.644367 192.551781 
L 79.969347 108.890548 
L 80.294326 190.496647 
L 80.619306 98.805346 
L 80.944285 100.443477 
L 81.594244 226.592053 
L 82.244204 49.931828 
L 82.569183 110.000406 
L 82.894163 212.748343 
L 83.219142 207.274526 
L 83.544122 148.015487 
L 83.869101 184.433975 
L 84.194081 71.282863 
L 84.51906 72.001395 
L 84.84404 192.717295 
L 85.169019 179.839205 
L 85.493999 201.901467 
L 85.818978 70.91053 
L 86.143958 157.187632 
L 86.468937 125.865388 
L 86.793917 171.577282 
L 87.118896 122.928512 
L 87.443876 167.840835 
L 87.768855 172.958412 
L 88.093835 108.743783 
L 88.418814 112.233315 
L 88.743794 167.554012 
L 89.068774 195.201367 
L 89.393753 154.050411 
L 89.718733 150.468189 
L 90.043712 110.012838 
L 90.368692 48.031756 
L 90.693671 217.869996 
L 91.018651 168.411672 
L 91.34363 178.021718 
L 91.66861 121.839725 
L 91.993589 147.878571 
L 92.318569 100.912565 
L 92.643548 216.251317 
L 93.293507 121.518017 
L 93.618487 126.07637 
L 93.943466 114.568955 
L 94.268446 138.060103 
L 94.593425 87.812282 
L 94.918405 199.811658 
L 95.243385 190.854402 
L 95.568364 226.975579 
L 95.893344 93.393215 
L 96.218323 60.16549 
L 96.543303 226.877819 
L 96.868282 148.927459 
L 97.193262 137.885146 
L 97.518241 106.052981 
L 97.843221 159.251797 
L 98.1682 81.108278 
L 98.49318 191.407947 
L 98.818159 174.550465 
L 99.143139 125.095223 
L 99.468118 155.057884 
L 99.793098 238.30482 
L 100.118077 100.056373 
L 100.443057 104.014461 
L 100.768036 104.876848 
L 101.093016 177.91509 
L 101.417995 127.973223 
L 101.742975 146.372071 
L 102.067955 205.02067 
L 102.392934 88.388728 
L 102.717914 178.901954 
L 103.042893 196.056394 
L 103.367873 72.432366 
L 103.692852 240.031817 
L 104.017832 60.610547 
L 104.342811 158.257592 
L 104.667791 62.803154 
L 104.99277 246.094426 
L 105.31775 134.647364 
L 105.642729 179.888692 
L 105.967709 77.524938 
L 106.292688 172.58208 
L 106.617668 188.713422 
L 106.942647 61.406128 
L 107.592606 219.577392 
L 108.242566 88.446589 
L 108.567545 171.179529 
L 108.892525 137.533853 
L 109.217504 218.400059 
L 109.542484 115.062007 
L 109.867463 81.326688 
L 110.192443 144.69411 
L 110.517422 132.555963 
L 110.842402 190.979091 
L 111.167381 165.861835 
L 111.492361 182.37057 
L 111.81734 128.865978 
L 112.14232 132.652132 
L 112.467299 56.472476 
L 112.792279 238.990995 
L 113.117258 133.801142 
L 113.442238 148.927501 
L 113.767217 147.804061 
L 114.092197 67.029109 
L 114.417176 191.054641 
L 114.742156 213.040026 
L 115.067136 75.446593 
L 115.717095 197.898299 
L 116.042074 151.563705 
L 116.367054 145.337118 
L 116.692033 90.187902 
L 117.017013 188.531928 
L 117.341992 148.75337 
L 117.666972 145.035725 
L 117.991951 160.019425 
L 118.316931 63.817109 
L 118.64191 259.247486 
L 118.96689 80.256163 
L 119.291869 158.304242 
L 119.616849 114.949722 
L 119.941828 187.645817 
L 120.266808 180.69445 
L 120.591787 90.133963 
L 120.916767 79.072991 
L 121.241747 203.673241 
L 121.566726 206.84895 
L 122.216685 72.772329 
L 122.541665 197.884567 
L 122.866644 138.123083 
L 123.191624 132.628448 
L 123.516603 121.680466 
L 124.166562 199.792905 
L 124.491542 83.763877 
L 124.816521 151.265146 
L 125.141501 118.463886 
L 125.46648 185.579707 
L 125.79146 109.772718 
L 126.116439 187.919755 
L 126.441419 190.319561 
L 126.766398 98.539215 
L 127.091378 141.709397 
L 127.416357 110.280846 
L 127.741337 194.13205 
L 128.066317 126.759643 
L 128.391296 158.676797 
L 128.716276 128.921069 
L 129.041255 193.320612 
L 129.366235 108.852567 
L 129.691214 90.80282 
L 130.016194 201.834314 
L 130.341173 196.113453 
L 130.666153 128.019923 
L 131.316112 121.142827 
L 131.641091 116.308536 
L 131.966071 161.535989 
L 132.29105 148.124841 
L 132.941009 192.777375 
L 133.265989 96.594639 
L 133.590968 238.175346 
L 133.915948 87.545509 
L 134.240928 125.771483 
L 134.565907 124.109716 
L 134.890887 106.581151 
L 135.215866 191.403069 
L 135.540846 82.597844 
L 135.865825 206.625058 
L 136.190805 227.94474 
L 136.515784 77.246188 
L 136.840764 233.190915 
L 137.165743 59.219263 
L 137.490723 129.056725 
L 137.815702 110.891152 
L 138.140682 206.384999 
L 138.465661 110.382154 
L 138.790641 231.327108 
L 139.11562 64.012571 
L 139.4406 194.221998 
L 139.765579 80.243303 
L 140.090559 170.072386 
L 140.415538 198.510905 
L 140.740518 115.833944 
L 141.065498 183.971489 
L 141.390477 75.187848 
L 141.715457 179.140708 
L 142.040436 160.486956 
L 142.365416 116.437195 
L 142.690395 174.24443 
L 143.015375 153.598442 
L 143.340354 59.969113 
L 143.665334 183.10656 
L 143.990313 198.934608 
L 144.315293 150.347209 
L 144.965252 118.321357 
L 145.290231 156.816771 
L 145.615211 73.613921 
L 145.94019 228.767391 
L 146.26517 156.040272 
L 146.590149 178.434411 
L 146.915129 137.766812 
L 147.240109 80.548138 
L 147.565088 170.185725 
L 147.890068 58.795409 
L 148.215047 176.467806 
L 148.540027 210.698184 
L 149.189986 115.856822 
L 149.514965 130.482829 
L 149.839945 177.084881 
L 150.164924 113.58019 
L 150.489904 140.160319 
L 150.814883 194.48296 
L 151.139863 172.438113 
L 151.464842 65.108357 
L 151.789822 192.1996 
L 152.114801 110.203397 
L 152.439781 126.392076 
L 153.08974 184.447225 
L 153.414719 151.125633 
L 153.739699 101.286296 
L 154.064679 148.353153 
L 154.714638 206.653665 
L 155.039617 63.770595 
L 155.364597 165.61932 
L 155.689576 138.293685 
L 156.014556 173.26953 
L 156.339535 99.728805 
L 156.664515 166.295007 
L 156.989494 176.500858 
L 157.314474 79.479211 
L 157.639453 111.931649 
L 157.964433 228.445491 
L 158.289412 214.871278 
L 158.614392 97.122747 
L 158.939371 93.888428 
L 159.264351 155.831392 
L 159.58933 153.003571 
L 159.91431 134.672566 
L 160.23929 171.749952 
L 160.564269 122.547107 
L 160.889249 240.898419 
L 161.214228 69.212638 
L 161.539208 109.361353 
L 161.864187 125.010114 
L 162.189167 178.955841 
L 162.514146 204.93446 
L 163.164105 109.895844 
L 163.489085 120.78871 
L 163.814064 174.525022 
L 164.464023 85.103025 
L 164.789003 244.759621 
L 165.438962 106.1521 
L 165.763941 155.080717 
L 166.088921 134.881 
L 166.4139 156.908508 
L 166.73888 47.563644 
L 167.06386 220.76134 
L 167.388839 115.638333 
L 167.713819 187.643565 
L 168.038798 175.188683 
L 168.363778 142.113444 
L 168.688757 207.798983 
L 169.013737 62.817019 
L 169.338716 78.719044 
L 169.663696 206.770057 
L 169.988675 143.402799 
L 170.313655 160.91373 
L 170.638634 98.229591 
L 170.963614 131.707448 
L 171.288593 258.910481 
L 171.613573 109.967623 
L 171.938552 123.78643 
L 172.263532 182.602222 
L 172.588511 109.75835 
L 172.913491 109.757552 
L 173.238471 182.811285 
L 173.56345 155.905673 
L 173.88843 64.122306 
L 174.213409 193.266977 
L 174.538389 180.362138 
L 174.863368 209.935327 
L 175.188348 71.790516 
L 175.513327 110.830106 
L 175.838307 247.752648 
L 176.163286 73.899085 
L 176.488266 124.315781 
L 176.813245 94.411802 
L 177.138225 251.664668 
L 177.463204 157.493503 
L 177.788184 121.841554 
L 178.113163 158.592684 
L 178.438143 135.761713 
L 178.763122 101.534088 
L 179.088102 181.454768 
L 179.413081 69.431674 
L 179.738061 192.327786 
L 180.063041 158.828738 
L 180.38802 203.429237 
L 180.713 146.512402 
L 181.037979 156.9871 
L 181.362959 82.011608 
L 182.012918 156.757338 
L 182.337897 104.842613 
L 182.662877 221.179506 
L 182.987856 197.416039 
L 183.312836 116.40449 
L 183.637815 126.166089 
L 183.962795 110.056876 
L 184.287774 193.164286 
L 184.612754 132.734231 
L 184.937733 141.647283 
L 185.262713 82.065444 
L 185.587692 229.672191 
L 185.912672 157.573041 
L 186.237652 144.285966 
L 186.562631 57.914771 
L 186.887611 210.72601 
L 187.21259 134.021493 
L 187.53757 158.967349 
L 187.862549 112.18427 
L 188.187529 163.506561 
L 188.512508 195.897187 
L 188.837488 87.410372 
L 189.487447 171.946725 
L 189.812426 152.981108 
L 190.137406 224.930164 
L 190.462385 60.33358 
L 190.787365 151.098958 
L 191.112344 112.849753 
L 191.437324 195.600266 
L 191.762303 96.371361 
L 192.087283 177.109945 
L 192.412262 152.438462 
L 192.737242 162.073278 
L 193.062222 104.277734 
L 193.387201 127.502012 
L 193.712181 176.992211 
L 194.03716 195.397663 
L 194.36214 98.491401 
L 194.687119 121.718413 
L 195.012099 203.562253 
L 195.337078 147.313196 
L 195.662058 128.925512 
L 195.987037 70.023071 
L 196.312017 226.58144 
L 196.636996 176.764306 
L 196.961976 87.603695 
L 197.286955 129.986005 
L 197.611935 209.149121 
L 197.936914 102.428184 
L 198.261894 179.671976 
L 198.586873 181.511405 
L 198.911853 80.32872 
L 199.236833 72.013158 
L 199.561812 168.910686 
L 199.886792 189.807713 
L 200.211771 136.68155 
L 200.536751 194.539893 
L 200.86173 208.567238 
L 201.18671 153.397618 
L 201.511689 61.667798 
L 201.836669 83.057994 
L 202.161648 148.73448 
L 202.486628 120.843761 
L 202.811607 217.46894 
L 203.136587 165.662996 
L 203.461566 206.149572 
L 203.786546 67.219472 
L 204.111525 202.51709 
L 204.436505 63.72944 
L 204.761484 112.953406 
L 205.086464 198.269922 
L 205.411443 216.810906 
L 205.736423 128.987985 
L 206.061403 80.751387 
L 206.386382 121.17896 
L 206.711362 196.990005 
L 207.036341 150.05619 
L 207.361321 210.340697 
L 207.6863 73.751017 
L 208.01128 122.970632 
L 208.336259 142.010953 
L 208.661239 168.462922 
L 208.986218 116.24894 
L 209.636177 226.079522 
L 209.961157 157.211773 
L 210.286136 55.276312 
L 210.611116 119.663652 
L 210.936095 227.243921 
L 211.261075 58.595542 
L 211.586054 177.775146 
L 211.911034 179.668656 
L 212.236014 170.984739 
L 212.560993 120.505439 
L 213.210952 151.527653 
L 213.535932 109.253315 
L 213.860911 193.014173 
L 214.185891 100.576569 
L 214.51087 227.424392 
L 214.83585 107.857753 
L 215.160829 133.735775 
L 215.485809 126.724593 
L 215.810788 159.708602 
L 216.135768 110.876723 
L 216.460747 218.863057 
L 216.785727 52.633289 
L 217.110706 210.004571 
L 217.435686 193.819559 
L 217.760665 116.695264 
L 218.085645 97.458634 
L 218.410624 246.998956 
L 218.735604 87.818271 
L 219.060584 83.75468 
L 219.385563 158.08024 
L 219.710543 179.369229 
L 220.035522 123.681374 
L 220.360502 209.381912 
L 220.685481 181.838338 
L 221.010461 101.284904 
L 221.66042 83.505801 
L 221.985399 198.538749 
L 222.310379 186.197112 
L 222.960338 133.038662 
L 223.285317 166.720572 
L 223.610297 167.608169 
L 223.935276 131.117713 
L 224.260256 110.53523 
L 224.585235 114.818706 
L 224.910215 88.825415 
L 225.235195 235.366748 
L 225.560174 223.962613 
L 225.885154 70.438987 
L 226.210133 121.810036 
L 226.535113 112.221341 
L 226.860092 222.250883 
L 227.185072 191.239684 
L 227.510051 129.047582 
L 227.835031 99.010312 
L 228.16001 95.911421 
L 228.48499 182.938849 
L 228.809969 173.295326 
L 229.134949 114.569965 
L 229.459928 175.878854 
L 229.784908 182.751429 
L 230.109887 105.775992 
L 230.434867 127.028512 
L 230.759846 95.139168 
L 231.084826 225.237019 
L 231.734785 82.133469 
L 232.059765 226.499784 
L 232.384744 85.618398 
L 232.709724 210.166792 
L 233.034703 83.642038 
L 233.359683 123.707739 
L 233.684662 209.962198 
L 234.334621 120.540411 
L 234.659601 135.556767 
L 234.98458 179.814224 
L 235.30956 81.736595 
L 235.634539 152.737879 
L 235.959519 147.543381 
L 236.284498 231.931981 
L 236.609478 54.498961 
L 236.934457 205.561703 
L 237.584416 78.08986 
L 237.909396 197.746208 
L 238.234376 137.440476 
L 238.559355 204.29302 
L 238.884335 111.81716 
L 239.209314 165.566894 
L 239.534294 116.842846 
L 239.859273 113.075419 
L 240.184253 160.349043 
L 240.509232 137.699989 
L 241.159191 192.807556 
L 241.80915 73.250307 
L 242.13413 161.88913 
L 242.459109 169.999065 
L 242.784089 144.60825 
L 243.109068 129.549546 
L 243.434048 203.898819 
L 243.759027 124.513051 
L 244.084007 136.649479 
L 244.408986 130.708264 
L 244.733966 190.506405 
L 245.383925 107.365174 
L 245.708905 92.363554 
L 246.033884 161.344029 
L 246.358864 261.216 
L 246.683843 60.550076 
L 247.008823 97.977487 
L 247.333802 153.689217 
L 247.658782 174.855192 
L 247.983761 167.420443 
L 248.308741 167.173428 
L 248.63372 209.05303 
L 248.9587 59.119032 
L 249.283679 157.475567 
L 249.933638 135.318167 
L 250.258618 151.351703 
L 250.908577 111.92678 
L 251.233557 209.745635 
L 251.558536 94.258674 
L 251.883516 129.551879 
L 252.208495 255.063847 
L 252.533475 128.306892 
L 252.858454 125.779065 
L 253.183434 75.013364 
L 253.508413 170.785074 
L 253.833393 112.007196 
L 254.158372 215.683735 
L 254.483352 145.439303 
L 254.808331 203.543361 
L 255.133311 117.54725 
L 255.45829 62.677918 
L 255.78327 186.093294 
L 256.108249 114.760255 
L 256.433229 172.71418 
L 256.758208 183.099203 
L 257.083188 99.527609 
L 257.408167 185.005262 
L 257.733147 80.735644 
L 258.058127 195.440616 
L 258.383106 185.832175 
L 258.708086 104.97251 
L 259.033065 107.052309 
L 259.358045 231.996061 
L 259.683024 131.070076 
L 260.008004 83.230959 
L 260.332983 107.132698 
L 260.657963 224.510186 
L 260.982942 129.673429 
L 261.307922 117.499326 
L 261.632901 257.087953 
L 261.957881 106.087291 
L 262.28286 110.916143 
L 262.60784 131.843714 
L 262.932819 139.286566 
L 263.582778 167.203504 
L 263.907758 148.885937 
L 264.232738 112.135654 
L 264.557717 129.781907 
L 264.882697 188.352515 
L 265.207676 174.470634 
L 265.532656 71.070874 
L 265.857635 259.001999 
L 266.182615 133.784921 
L 266.507594 94.364011 
L 266.832574 150.381694 
L 267.157553 87.010656 
L 267.482533 135.913572 
L 267.807512 252.195347 
L 268.132492 75.966533 
L 268.457471 174.399666 
L 268.782451 133.339331 
L 269.10743 157.057686 
L 269.43241 167.778023 
L 269.757389 141.231798 
L 270.082369 160.816444 
L 270.732328 84.140381 
L 271.057308 190.571844 
L 271.382287 210.223683 
L 271.707267 123.25567 
L 272.032246 127.215507 
L 272.357226 81.072577 
L 272.682205 257.987856 
L 273.007185 81.785048 
L 273.332164 140.242777 
L 273.657144 108.050083 
L 273.982123 204.811186 
L 274.307103 129.733928 
L 274.632082 174.025697 
L 274.957062 179.43212 
L 275.282041 144.7382 
L 275.607021 97.611067 
L 275.932 121.592656 
L 276.25698 155.987898 
L 276.581959 165.166622 
L 276.906939 183.797133 
L 277.231919 65.395207 
L 277.881878 189.242804 
L 278.206857 186.882784 
L 278.531837 107.731072 
L 278.856816 128.573205 
L 279.181796 239.476821 
L 279.506775 79.505329 
L 279.831755 109.798398 
L 280.156734 119.099984 
L 280.481714 239.611866 
L 280.806693 181.820251 
L 281.131673 66.478189 
L 281.456652 77.473985 
L 281.781632 186.772296 
L 282.106611 206.660647 
L 282.431591 147.452456 
L 282.75657 172.213255 
L 283.406529 57.049523 
L 283.731509 178.078326 
L 284.056489 237.971896 
L 284.381468 70.772813 
L 284.706448 251.525464 
L 285.031427 70.480449 
L 285.356407 128.039826 
L 285.681386 62.291541 
L 286.006366 199.802557 
L 286.331345 223.009916 
L 286.656325 132.551085 
L 286.981304 149.812332 
L 287.306284 188.336828 
L 287.631263 74.005003 
L 288.281222 140.598456 
L 288.606202 238.950154 
L 288.931181 119.863804 
L 289.256161 117.753373 
L 289.58114 172.508948 
L 289.90612 60.651572 
L 290.2311 203.479859 
L 290.556079 175.131342 
L 290.881059 214.173092 
L 291.206038 64.662809 
L 291.531018 95.456466 
L 291.855997 147.863627 
L 292.505956 186.788426 
L 292.830936 163.309596 
L 293.155915 114.562956 
L 293.480895 170.270474 
L 293.805874 182.317729 
L 294.130854 67.299121 
L 294.455833 142.645493 
L 294.780813 92.620327 
L 295.105792 223.416825 
L 295.430772 148.224909 
L 295.755751 122.242723 
L 296.080731 185.334767 
L 296.40571 207.861194 
L 296.73069 65.59691 
L 297.05567 57.798244 
L 297.380649 234.925325 
L 297.705629 182.185164 
L 298.030608 63.160853 
L 298.355588 248.449409 
L 298.680567 142.301416 
L 299.005547 79.411194 
L 299.330526 74.159447 
L 299.655506 167.682043 
L 299.980485 223.675011 
L 300.305465 218.446221 
L 300.630444 89.64099 
L 300.955424 97.71145 
L 301.280403 168.471637 
L 301.605383 140.550178 
L 301.930362 145.921857 
L 302.255342 157.855033 
L 302.580321 116.345083 
L 303.230281 153.842949 
L 303.55526 206.463192 
L 303.88024 100.896872 
L 304.530199 200.621945 
L 304.855178 104.186128 
L 305.180158 128.676009 
L 305.505137 76.601692 
L 305.830117 226.303672 
L 306.155096 121.111363 
L 306.480076 200.282713 
L 306.805055 67.051587 
L 307.130035 235.140829 
L 307.455014 129.113107 
L 307.779994 108.648763 
L 308.104973 200.383825 
L 308.429953 74.488625 
L 308.754932 83.51394 
L 309.079912 180.877534 
L 309.404891 228.350428 
L 309.729871 169.375558 
L 310.054851 181.219538 
L 310.37983 66.903613 
L 310.70481 53.584832 
L 311.029789 230.040594 
L 311.354769 138.773823 
L 311.679748 114.132504 
L 312.004728 201.7238 
L 312.329707 144.981416 
L 312.654687 164.478168 
L 312.979666 130.424914 
L 313.304646 115.198285 
L 313.629625 115.003287 
L 313.954605 238.236713 
L 314.279584 109.54249 
L 314.604564 145.134088 
L 314.929543 107.689928 
L 315.254523 199.137768 
L 315.579502 107.957162 
L 315.904482 111.025754 
L 316.229462 195.925408 
L 316.554441 209.232814 
L 316.879421 101.775861 
L 317.2044 149.189134 
L 317.52938 102.65135 
L 317.854359 118.392635 
L 318.179339 140.997092 
L 318.504318 227.422081 
L 318.829298 183.659174 
L 319.154277 42.601127 
L 319.479257 173.256981 
L 319.804236 219.10941 
L 320.129216 94.441301 
L 320.454195 86.938915 
L 320.779175 173.071753 
L 321.104154 165.968977 
L 321.429134 131.164382 
L 321.754113 228.805742 
L 322.079093 84.942372 
L 322.404072 194.75741 
L 322.729052 95.828986 
L 323.054032 109.080541 
L 323.379011 133.123803 
L 323.703991 193.437098 
L 324.02897 147.952696 
L 324.35395 160.172806 
L 324.678929 183.149088 
L 325.003909 81.79116 
L 325.328888 155.663286 
L 325.653868 81.324994 
L 325.978847 226.280515 
L 326.303827 219.831485 
L 326.628806 53.148832 
L 326.953786 133.621223 
L 327.278765 146.396241 
L 327.603745 138.341901 
L 327.928724 196.842713 
L 328.253704 93.963859 
L 328.578683 226.868336 
L 328.903663 134.586163 
L 329.228643 140.911088 
L 329.553622 70.034372 
L 330.203581 202.251926 
L 330.528561 96.87919 
L 330.85354 181.405497 
L 331.17852 151.986663 
L 331.503499 189.374749 
L 331.828479 101.496506 
L 332.153458 203.758455 
L 332.803417 56.453885 
L 333.128397 101.434204 
L 333.453376 229.167343 
L 333.778356 198.392557 
L 334.103335 110.113543 
L 334.428315 70.160564 
L 334.753294 251.501963 
L 335.078274 101.165903 
L 335.403253 162.190499 
L 335.728233 175.064688 
L 336.053213 97.443921 
L 336.378192 139.670591 
L 336.703172 111.05351 
L 337.028151 199.575143 
L 337.353131 145.274455 
L 337.67811 120.001517 
L 338.00309 168.433547 
L 338.328069 109.504332 
L 338.653049 174.435516 
L 338.978028 198.287419 
L 339.303008 163.410381 
L 339.627987 102.997901 
L 339.952967 76.408136 
L 340.277946 172.533437 
L 340.602926 134.579951 
L 340.927905 245.462852 
L 341.252885 86.14311 
L 341.577864 158.052553 
L 341.902844 115.348246 
L 342.227824 109.017855 
L 342.552803 213.668595 
L 342.877783 155.265365 
L 343.202762 67.519596 
L 343.527742 247.800974 
L 343.852721 133.411784 
L 344.177701 83.923556 
L 344.50268 223.755697 
L 344.82766 110.365492 
L 345.152639 89.254364 
L 345.477619 113.645316 
L 345.802598 203.189498 
L 346.127578 172.751675 
L 346.452557 233.367905 
L 346.777537 77.662538 
L 347.102516 79.037524 
L 347.752475 180.027501 
L 348.077455 240.884346 
L 348.402434 115.391829 
L 348.727414 135.948769 
L 349.052394 110.517478 
L 349.377373 153.869165 
L 349.702353 133.754606 
L 350.352312 160.597624 
L 350.677291 192.392314 
L 351.002271 84.004058 
L 351.65223 154.408832 
L 351.977209 204.531781 
L 352.627168 101.338952 
L 352.952148 157.705982 
L 353.277127 173.573768 
L 353.602107 118.484193 
L 353.927086 198.983094 
L 354.252066 76.223422 
L 354.577045 141.435838 
L 354.902025 120.432881 
L 355.227005 204.81878 
L 355.551984 170.860903 
L 355.876964 160.008745 
L 356.201943 86.124601 
L 356.526923 98.131284 
L 356.851902 212.022005 
L 357.176882 137.031297 
L 357.501861 222.234095 
L 357.826841 82.107107 
L 358.15182 98.310519 
L 358.4768 182.016384 
L 359.126759 137.187551 
L 359.451738 154.775623 
L 359.776718 159.64608 
L 360.101697 106.070403 
L 360.426677 176.658687 
L 360.751656 163.23137 
L 361.076636 111.40017 
L 361.401615 134.869463 
L 361.726595 105.407631 
L 362.051575 190.898445 
L 362.376554 153.593432 
L 362.701534 200.130039 
L 363.026513 138.124195 
L 363.351493 164.359389 
L 363.676472 68.782127 
L 364.001452 155.541049 
L 364.326431 121.401909 
L 364.651411 210.709445 
L 364.97639 104.807612 
L 365.30137 142.920749 
L 365.626349 120.52379 
L 365.951329 200.106967 
L 366.276308 152.65958 
L 366.601288 146.488377 
L 366.926267 171.311084 
L 367.251247 120.939947 
L 367.576226 135.872257 
L 367.901206 124.632654 
L 368.226186 180.614903 
L 368.551165 103.37103 
L 368.876145 107.726101 
L 369.201124 192.885598 
L 369.526104 132.671567 
L 369.851083 148.895987 
L 370.176063 184.561155 
L 370.501042 147.745773 
L 370.826022 197.404618 
L 371.151001 71.525306 
L 371.475981 153.688812 
L 371.80096 198.468146 
L 372.12594 125.473353 
L 372.450919 121.247375 
L 372.775899 90.134291 
L 373.100878 144.108944 
L 373.750837 173.701806 
L 374.075817 178.557902 
L 374.400796 176.640392 
L 374.725776 137.620524 
L 375.050756 19.296 
L 375.375735 218.538808 
L 375.700715 177.020575 
L 376.025694 180.316431 
L 376.350674 75.118526 
L 376.675653 148.888132 
L 377.000633 123.883412 
L 377.325612 182.298401 
L 377.650592 128.508505 
L 377.975571 193.152397 
L 378.300551 114.162429 
L 378.62553 214.454872 
L 378.95051 84.805012 
L 379.275489 136.225817 
L 379.600469 102.356269 
L 379.925448 156.944718 
L 380.250428 156.784783 
L 380.575407 212.217851 
L 380.900387 131.143779 
L 381.225367 144.091864 
L 381.550346 165.797802 
L 381.875326 119.057784 
L 382.200305 101.248602 
L 382.525285 110.19923 
L 382.850264 221.361337 
L 383.175244 112.89053 
L 383.500223 216.402742 
L 383.825203 89.556644 
L 384.475162 208.807895 
L 384.800141 63.668494 
L 385.4501 168.356392 
L 385.77508 238.975895 
L 386.425039 79.184806 
L 386.750018 151.84754 
L 387.074998 74.363477 
L 387.399977 238.352397 
L 387.724957 143.726043 
L 388.049937 90.811026 
L 388.374916 141.59704 
L 388.699896 229.777282 
L 389.024875 136.158608 
L 389.349855 141.176137 
L 389.674834 128.027919 
L 389.999814 127.962966 
L 390.324793 127.182986 
L 390.649773 146.437871 
L 390.649773 146.437871 
" style="fill:none;stroke:#ff7f0e;stroke-linecap:round;stroke-width:1.5;"/>
   </g>
   <g id="patch_3">
    <path d="M 49.7625 273.312 
L 49.7625 7.2 
" style="fill:none;stroke:#262626;stroke-linecap:square;stroke-linejoin:miter;stroke-width:1.25;"/>
   </g>
   <g id="patch_4">
    <path d="M 49.7625 273.312 
L 406.8825 273.312 
" style="fill:none;stroke:#262626;stroke-linecap:square;stroke-linejoin:miter;stroke-width:1.25;"/>
   </g>
   <g id="legend_1">
    <g id="line2d_14">
     <path d="M 170.338125 19.946875 
L 190.338125 19.946875 
" style="fill:none;stroke:#1f77b4;stroke-linecap:round;stroke-width:1.5;"/>
    </g>
    <g id="line2d_15"/>
    <g id="text_14">
     <!-- raw -->
     <defs>
      <path d="M 6.9375 0 
L 6.9375 40.53125 
Q 6.9375 46.09375 6.640625 52.828125 
L 14.9375 52.828125 
Q 15.328125 43.84375 15.328125 42.046875 
L 15.53125 42.046875 
Q 17.625 48.828125 20.359375 51.3125 
Q 23.09375 53.8125 28.078125 53.8125 
Q 29.828125 53.8125 31.640625 53.328125 
L 31.640625 45.265625 
Q 29.890625 45.75 26.953125 45.75 
Q 21.484375 45.75 18.59375 41.03125 
Q 15.71875 36.328125 15.71875 27.546875 
L 15.71875 0 
z
" id="LiberationSans-114"/>
      <path d="M 57.328125 0 
L 47.125 0 
L 37.890625 37.359375 
L 36.140625 45.609375 
Q 35.6875 43.40625 34.765625 39.28125 
Q 33.84375 35.15625 24.8125 0 
L 14.65625 0 
L -0.140625 52.828125 
L 8.546875 52.828125 
L 17.484375 16.9375 
Q 17.828125 15.765625 19.578125 7.28125 
L 20.40625 10.890625 
L 31.453125 52.828125 
L 40.875 52.828125 
L 50.09375 16.546875 
L 52.34375 7.28125 
L 53.859375 14.0625 
L 63.875 52.828125 
L 72.46875 52.828125 
z
" id="LiberationSans-119"/>
     </defs>
     <g style="fill:#262626;" transform="translate(198.338125 23.446875)scale(0.1 -0.1)">
      <use xlink:href="#LiberationSans-114"/>
      <use x="33.300781" xlink:href="#LiberationSans-97"/>
      <use x="88.916016" xlink:href="#LiberationSans-119"/>
     </g>
    </g>
    <g id="line2d_16">
     <path d="M 170.338125 34.26875 
L 190.338125 34.26875 
" style="fill:none;stroke:#ff7f0e;stroke-linecap:round;stroke-width:1.5;"/>
    </g>
    <g id="line2d_17"/>
    <g id="text_15">
     <!-- high-pass @ 100Hz -->
     <defs>
      <path d="M 15.484375 43.796875 
Q 18.3125 48.96875 22.28125 51.390625 
Q 26.265625 53.8125 32.375 53.8125 
Q 40.96875 53.8125 45.046875 49.53125 
Q 49.125 45.265625 49.125 35.203125 
L 49.125 0 
L 40.28125 0 
L 40.28125 33.5 
Q 40.28125 39.0625 39.25 41.765625 
Q 38.234375 44.484375 35.890625 45.75 
Q 33.546875 47.015625 29.390625 47.015625 
Q 23.1875 47.015625 19.453125 42.71875 
Q 15.71875 38.421875 15.71875 31.15625 
L 15.71875 0 
L 6.9375 0 
L 6.9375 72.46875 
L 15.71875 72.46875 
L 15.71875 53.609375 
Q 15.71875 50.640625 15.546875 47.453125 
Q 15.375 44.28125 15.328125 43.796875 
z
" id="LiberationSans-104"/>
      <path d="M 4.4375 22.65625 
L 4.4375 30.46875 
L 28.859375 30.46875 
L 28.859375 22.65625 
z
" id="LiberationSans-45"/>
      <path d="M 51.421875 26.65625 
Q 51.421875 -0.984375 31.984375 -0.984375 
Q 19.78125 -0.984375 15.578125 8.203125 
L 15.328125 8.203125 
Q 15.53125 7.8125 15.53125 -0.09375 
L 15.53125 -20.75 
L 6.734375 -20.75 
L 6.734375 42.046875 
Q 6.734375 50.203125 6.453125 52.828125 
L 14.9375 52.828125 
Q 14.984375 52.640625 15.078125 51.4375 
Q 15.1875 50.25 15.3125 47.75 
Q 15.4375 45.265625 15.4375 44.34375 
L 15.625 44.34375 
Q 17.96875 49.21875 21.828125 51.484375 
Q 25.6875 53.765625 31.984375 53.765625 
Q 41.75 53.765625 46.578125 47.21875 
Q 51.421875 40.671875 51.421875 26.65625 
z
M 42.1875 26.46875 
Q 42.1875 37.5 39.203125 42.234375 
Q 36.234375 46.96875 29.734375 46.96875 
Q 24.515625 46.96875 21.5625 44.765625 
Q 18.609375 42.578125 17.0625 37.90625 
Q 15.53125 33.25 15.53125 25.78125 
Q 15.53125 15.375 18.84375 10.4375 
Q 22.171875 5.515625 29.640625 5.515625 
Q 36.1875 5.515625 39.1875 10.328125 
Q 42.1875 15.140625 42.1875 26.46875 
z
" id="LiberationSans-112"/>
      <path id="LiberationSans-32"/>
      <path d="M 92.875 36.859375 
Q 92.875 27.78125 90.0625 20.4375 
Q 87.25 13.09375 82.25 9.078125 
Q 77.25 5.078125 71.046875 5.078125 
Q 66.21875 5.078125 63.578125 7.21875 
Q 60.9375 9.375 60.9375 13.671875 
L 61.078125 17.09375 
L 60.796875 17.09375 
Q 57.5625 11.078125 52.796875 8.078125 
Q 48.046875 5.078125 42.53125 5.078125 
Q 34.859375 5.078125 30.640625 10.0625 
Q 26.421875 15.046875 26.421875 23.875 
Q 26.421875 31.890625 29.5625 38.765625 
Q 32.71875 45.65625 38.375 49.703125 
Q 44.046875 53.765625 50.921875 53.765625 
Q 61.625 53.765625 65.625 44.875 
L 65.921875 44.875 
L 67.828125 52.6875 
L 75.4375 52.6875 
L 69.78125 27.984375 
Q 67.96875 19.96875 67.96875 15.625 
Q 67.96875 11.03125 71.921875 11.03125 
Q 75.828125 11.03125 79.125 14.40625 
Q 82.421875 17.78125 84.328125 23.6875 
Q 86.234375 29.59375 86.234375 36.765625 
Q 86.234375 45.515625 82.46875 52.265625 
Q 78.71875 59.03125 71.625 62.671875 
Q 64.546875 66.3125 55.078125 66.3125 
Q 43.265625 66.3125 34.171875 61.078125 
Q 25.09375 55.859375 19.921875 46.015625 
Q 14.75 36.1875 14.75 23.96875 
Q 14.75 14.546875 18.578125 7.34375 
Q 22.40625 0.140625 29.65625 -3.703125 
Q 36.921875 -7.5625 46.578125 -7.5625 
Q 53.65625 -7.5625 60.9375 -5.734375 
Q 68.21875 -3.90625 76.03125 0.34375 
L 78.71875 -5.125 
Q 71.625 -9.375 63.34375 -11.59375 
Q 55.078125 -13.8125 46.578125 -13.8125 
Q 34.8125 -13.8125 26 -9.15625 
Q 17.1875 -4.5 12.515625 4.125 
Q 7.859375 12.75 7.859375 23.96875 
Q 7.859375 37.640625 13.9375 48.828125 
Q 20.015625 60.015625 30.8125 66.234375 
Q 41.609375 72.46875 54.984375 72.46875 
Q 66.75 72.46875 75.296875 68.046875 
Q 83.84375 63.625 88.359375 55.5625 
Q 92.875 47.515625 92.875 36.859375 
z
M 63.28125 36.46875 
Q 63.28125 41.453125 60.0625 44.5 
Q 56.84375 47.5625 51.46875 47.5625 
Q 46.53125 47.5625 42.703125 44.453125 
Q 38.875 41.359375 36.671875 35.859375 
Q 34.46875 30.375 34.46875 23.96875 
Q 34.46875 18.109375 36.78125 14.78125 
Q 39.109375 11.46875 43.953125 11.46875 
Q 50.046875 11.46875 55.125 16.59375 
Q 60.203125 21.734375 62.15625 29.390625 
Q 63.28125 33.890625 63.28125 36.46875 
z
" id="LiberationSans-64"/>
      <path d="M 54.734375 0 
L 54.734375 31.890625 
L 17.53125 31.890625 
L 17.53125 0 
L 8.203125 0 
L 8.203125 68.796875 
L 17.53125 68.796875 
L 17.53125 39.703125 
L 54.734375 39.703125 
L 54.734375 68.796875 
L 64.0625 68.796875 
L 64.0625 0 
z
" id="LiberationSans-72"/>
      <path d="M 4.046875 0 
L 4.046875 6.6875 
L 33.59375 46.046875 
L 5.71875 46.046875 
L 5.71875 52.828125 
L 44 52.828125 
L 44 46.140625 
L 14.40625 6.78125 
L 45.015625 6.78125 
L 45.015625 0 
z
" id="LiberationSans-122"/>
     </defs>
     <g style="fill:#262626;" transform="translate(198.338125 37.76875)scale(0.1 -0.1)">
      <use xlink:href="#LiberationSans-104"/>
      <use x="55.615234" xlink:href="#LiberationSans-105"/>
      <use x="77.832031" xlink:href="#LiberationSans-103"/>
      <use x="133.447266" xlink:href="#LiberationSans-104"/>
      <use x="189.0625" xlink:href="#LiberationSans-45"/>
      <use x="222.363281" xlink:href="#LiberationSans-112"/>
      <use x="277.978516" xlink:href="#LiberationSans-97"/>
      <use x="333.59375" xlink:href="#LiberationSans-115"/>
      <use x="383.59375" xlink:href="#LiberationSans-115"/>
      <use x="433.59375" xlink:href="#LiberationSans-32"/>
      <use x="461.376953" xlink:href="#LiberationSans-64"/>
      <use x="562.890625" xlink:href="#LiberationSans-32"/>
      <use x="590.673828" xlink:href="#LiberationSans-49"/>
      <use x="646.289062" xlink:href="#LiberationSans-48"/>
      <use x="701.904297" xlink:href="#LiberationSans-48"/>
      <use x="757.519531" xlink:href="#LiberationSans-72"/>
      <use x="829.736328" xlink:href="#LiberationSans-122"/>
     </g>
    </g>
   </g>
  </g>
 </g>
 <defs>
  <clipPath id="pe7aa09cabd">
   <rect height="266.112" width="357.12" x="49.7625" y="7.2"/>
  </clipPath>
 </defs>
</svg>
